<svg xmlns="http://www.w3.org/2000/svg" viewBox="0 0 500 500"><path d="M140.38 36.92c-65 32.83-117.8 86.77-125.93 199.34C7 339.5 31.28 402.66 139.47 455.1 249.15 508.25 380 487.2 445 421.54c58.56-59.18 67.4-172.5.06-283.78C362.13.79 205.37 4.09 140.38 36.92z" style="fill:#37474f"/><path style="fill:#263238" d="m136.81 343.08-48.97-28.33-55.28 31.92L81.53 375l55.28-31.92zM383.2 208.6l-53.61-31.06-72.29 41.73 53.62 31.07 72.28-41.74z"/><path d="m326.17 450.42 133.43-77c2.32-1.34 2.32-3.51 0-4.85L219.8 230.09a9.28 9.28 0 0 0-8.4 0L78 307.13c-2.31 1.34-2.31 3.51 0 4.85l239.77 138.44a9.28 9.28 0 0 0 8.4 0zM309.47 244.25l-44.02-25.42V112.11l44.02 25.42v106.72z" style="fill:#263238"/><path style="fill:#37474f" d="m309.47 137.53 62.89-36.31v106.72l-62.89 36.31V137.53z"/><path d="m372.36 101.22.2 26.68.08 26.68.07 26.68c.05 8.89 0 17.79 0 26.68v.19l-.16.1L341 226.29l-15.76 9-15.8 8.95 15.68-9.24 15.69-9.14 31.39-18.24-.16.28c0-8.89-.07-17.79 0-26.68l.07-26.68.07-26.68z" style="fill:#263238"/><path style="fill:#455a64" d="m372.36 101.22-62.89 36.31-44.02-25.42 62.89-36.31 44.02 25.42z"/><path style="fill:#263238" d="m315.76 206.12 50.31-29.05v24.55l1.16.67-50.31 29.05-1.16-.67v-24.55z"/><path style="fill:#455a64" d="m316.92 206.78 50.31-29.04v24.55l-50.31 29.05v-24.56z"/><path d="m316.92 206.78 50.31-29.04v24.55l-50.31 29.05v-24.56z" style="opacity:.05"/><path d="m336.64 201.32 8.56-4.93c1.11-.65 2-.35 2 .65a4.05 4.05 0 0 1-2 3l-8.56 4.96c-1.11.64-2 .34-2-.66a4.05 4.05 0 0 1 2-3.02zM315.76 174.31l50.31-29.05v24.55l1.16.67-50.31 29.05-1.16-.67v-24.55z" style="fill:#263238"/><path style="fill:#455a64" d="m316.92 174.98 50.31-29.05v24.55l-50.31 29.05v-24.55z"/><path d="m316.92 174.98 50.31-29.05v24.55l-50.31 29.05v-24.55z" style="opacity:.05"/><path d="m336.64 169.52 8.56-4.94c1.11-.64 2-.35 2 .65a4 4 0 0 1-2 3l-8.56 4.94c-1.11.64-2 .35-2-.65a4 4 0 0 1 2-3zM315.76 142.5l50.31-29.04V138l-50.31 29.05V142.5z" style="fill:#263238"/><g><path style="fill:#37474f" d="m391.01 132.73-27.91-16.1v20.38l27.91 16.11v-20.39z"/><path d="m391.01 132.73-27.91-16.1v20.38l27.91 16.11v-20.39z" style="opacity:.1"/><path d="m316.7 163.8 46.39-26.8L391 153.12s-46.4 27.11-46.4 26.79-27.9-16.11-27.9-16.11z" style="fill:#263238"/><path d="M332.88 143.72v3.35a1.48 1.48 0 0 0 .74 1.27l24 13.86a1.44 1.44 0 0 0 1.42.15l25.46-14.7a1.22 1.22 0 0 0 .52-1.13 4.15 4.15 0 0 0-1.94-3.22L358.35 129z" style="fill:#37474f"/><path d="M332.88 143.72v3.35a1.48 1.48 0 0 0 .74 1.27l24 13.86a1.44 1.44 0 0 0 1.42.15l25.46-14.7a1.22 1.22 0 0 0 .52-1.13 4.15 4.15 0 0 0-1.94-3.22L358.35 129z" style="opacity:.30000000000000004"/><path d="m357.62 158-24.74-14.28v3.35a1.48 1.48 0 0 0 .74 1.27l24 13.86c1.07.62 1.94.18 1.94-1a4.16 4.16 0 0 0-1.94-3.2z" style="opacity:.2"/><path d="M356.49 158.74a1.38 1.38 0 0 1 .64 1.08c0 .38-.28.53-.64.32l-23.61-13.62v-1.4z" style="opacity:.2"/><path d="M385 139.16v3.35a1.48 1.48 0 0 1-.74 1.28l-24 13.85a1.4 1.4 0 0 1-1.41.16l-25.45-14.71a1.24 1.24 0 0 1-.52-1.13 4.16 4.16 0 0 1 1.94-3.22l24.74-14.28z" style="fill:#37474f"/><path d="M360.29 153.44 385 139.16v3.35a1.48 1.48 0 0 1-.74 1.28l-24 13.85c-1.07.62-1.93.18-1.93-1a4.14 4.14 0 0 1 1.96-3.2z" style="opacity:.2"/><path d="M361.42 154.19a1.39 1.39 0 0 0-.65 1.07c0 .39.29.54.65.33L385 142v-1.4z" style="opacity:.2"/><path d="M332.88 134.32v3.35a1.5 1.5 0 0 0 .74 1.28l24 13.85a1.42 1.42 0 0 0 1.38.2l25.46-14.71a1.22 1.22 0 0 0 .52-1.13 4.16 4.16 0 0 0-1.94-3.22l-24.73-14.28z" style="fill:#37474f"/><path d="m357.62 148.6-24.74-14.28v3.35a1.5 1.5 0 0 0 .74 1.28l24 13.85c1.07.62 1.94.18 1.94-1a4.16 4.16 0 0 0-1.94-3.2z" style="fill:#37474f"/><path d="m357.62 148.6-24.74-14.28v3.35a1.5 1.5 0 0 0 .74 1.28l24 13.85c1.07.62 1.94.18 1.94-1a4.16 4.16 0 0 0-1.94-3.2z" style="opacity:.2"/><path d="M356.49 149.35a1.38 1.38 0 0 1 .64 1.07c0 .39-.28.54-.64.33l-23.61-13.63v-1.4z" style="opacity:.2"/><path style="fill:#455a64" d="m365.05 115.5-1.95 1.12 27.91 16.11 1.95-1.12-27.91-16.11z"/><path style="fill:#37474f" d="m344.62 159.52-27.92-16.11v20.39l27.91 16.11.01-20.39z"/><path style="fill:#455a64" d="m318.65 142.28-1.95 1.13 27.92 16.11 1.95-1.13-27.92-16.11z"/><path style="fill:#455a64" d="m344.05 157.8 50.31-29.05v24.55l-50.31 29.05V157.8z"/><path d="m363.77 152.34 8.56-4.94c1.11-.64 2-.35 2 .65a4 4 0 0 1-2 3l-8.56 4.95c-1.11.64-2 .35-2-.66a4 4 0 0 1 2-3zM344.05 157.8l-1.67-.97v24.55l1.67.97V157.8z" style="fill:#263238"/><path style="fill:#37474f" d="m342.38 156.83 50.31-29.05 1.67.97-50.31 29.05-1.67-.97z"/></g><g><path d="M357.15 93.38c4.08 2.35 4.08 6.17 0 8.53a16.31 16.31 0 0 1-14.78 0c-4.08-2.36-4.08-6.18 0-8.53a16.31 16.31 0 0 1 14.78 0z" style="fill:#263238"/><path d="M343.26 98.17c-3.56-3.63-5.65-12.69-2.18-15.56h17.65c3.46 2.87 1.38 11.93-2.18 15.56l-.1.1-.12.12c-.1.09-.2.19-.32.28l-.08.07-.27.2a3.89 3.89 0 0 1-.46.29 11.69 11.69 0 0 1-10.59 0 3.21 3.21 0 0 1-.46-.29l-.25-.19-.11-.08-.31-.28-.14-.14a.3.3 0 0 1-.08-.08z" style="fill:#37474f"/><path d="M357.19 81.45c4 2.32 4 6.09 0 8.41a16.08 16.08 0 0 1-14.58 0c-4-2.32-4-6.09 0-8.41a16.08 16.08 0 0 1 14.58 0z" style="fill:#455a64"/><path d="M354.34 83.1c2.45 1.41 2.45 3.7 0 5.12a9.83 9.83 0 0 1-8.87 0c-2.45-1.42-2.45-3.71 0-5.12a9.77 9.77 0 0 1 8.87 0z" style="fill:#37474f"/><path d="M345.47 85.53a9.77 9.77 0 0 1 8.87 0 4.12 4.12 0 0 1 1.47 1.34 4.23 4.23 0 0 1-1.47 1.35 9.83 9.83 0 0 1-8.87 0 4.14 4.14 0 0 1-1.47-1.35 4 4 0 0 1 1.47-1.34z" style="fill:#263238"/><path d="M368.3 86.42c.13-.87-.09-1.77.05-2.64a9.39 9.39 0 0 1 .65-1.89 4.86 4.86 0 0 0-.08-4.15 12.34 12.34 0 0 0-1.83-2 19.36 19.36 0 0 0-2.68-3 6.15 6.15 0 0 0-8.6 1.46 12.62 12.62 0 0 1-1 1.48c-1 1.15-2.86 1.53-3.61 2.89-.52.94-.38 2.1-.62 3.15-.17.72-.52 1.38-.7 2.1a3.07 3.07 0 0 0 1.48 3.35 1.74 1.74 0 0 0 2.73-.69 12.82 12.82 0 0 0 .46-1.64A5.28 5.28 0 0 1 357 81.7a4.52 4.52 0 0 0 1.89-1.32 10.47 10.47 0 0 0 .47-1.5 2.45 2.45 0 0 1 3-1.41 10.66 10.66 0 0 1 1.87 1.21 10 10 0 0 1 1.34.82c1.17 1 .29 2.83.55 4.12.21 1 .95 1.89.95 2.92 0 .4 0 .92.35 1 .58.18.83-.74.88-1.12z" style="fill:#263238"/><path d="M332.11 86.42c-.13-.87.1-1.77 0-2.64a10.06 10.06 0 0 0-.65-1.89 4.86 4.86 0 0 1 .08-4.15 11.9 11.9 0 0 1 1.83-2 19.36 19.36 0 0 1 2.68-3 6.33 6.33 0 0 1 3.86-1.14 6.25 6.25 0 0 1 4.73 2.6 15.58 15.58 0 0 0 1 1.48c1.05 1.15 2.86 1.53 3.62 2.89.52.94.38 2.1.62 3.15.17.72.52 1.38.7 2.1a3.07 3.07 0 0 1-1.48 3.35 1.74 1.74 0 0 1-2.73-.69 12.82 12.82 0 0 1-.46-1.64 5.28 5.28 0 0 0-2.47-3.12 4.52 4.52 0 0 1-1.89-1.32 10.47 10.47 0 0 1-.47-1.5 2.45 2.45 0 0 0-3-1.41 10.66 10.66 0 0 0-1.87 1.21 10.78 10.78 0 0 0-1.35.82c-1.16 1-.28 2.83-.54 4.12-.21 1-.95 1.89-.95 2.92 0 .4 0 .92-.36 1-.55.16-.84-.76-.9-1.14z" style="fill:#263238"/><path d="M351.73 64.62a4.62 4.62 0 0 0-2.27 2.73 7.33 7.33 0 0 1-.76 2.42 14.18 14.18 0 0 0-1.41 2.06c-.46 1.11 0 2.37-.14 3.56-.14 1.52-1.19 3-.56 4.56a14.27 14.27 0 0 1 1.4 4 10.36 10.36 0 0 0 .24 2.16 1.71 1.71 0 0 0 1.55 1.3 2.17 2.17 0 0 0 1.42-1 4.89 4.89 0 0 0 .86-1.46c.56-1.65-.28-3.55.4-5.15.22-.5.57-.94.74-1.46a3.53 3.53 0 0 0-.2-2.18 3.26 3.26 0 0 1 .62-2.32 7.39 7.39 0 0 0 1.13-2.35 14.73 14.73 0 0 0 0-2.3 2.37 2.37 0 0 1 .92-2c.64-.39 1.35.08 2.06 0 1-.08 1.95-.13 2.58.78.07.1.19.23.3.16a.27.27 0 0 0 .07-.18 2.44 2.44 0 0 0-.64-2 4.31 4.31 0 0 0-.83-.49 10.69 10.69 0 0 1-1.3-1c-1-.79-2.47-.73-3.69-.69a5.51 5.51 0 0 0-2.49.85z" style="fill:#263238"/></g><g><path style="fill:#263238" d="m295.63 120.61-15.74-9.09 31.48-18.17 15.73 9.09-31.47 18.17z"/><path style="fill:#263238" d="m296 114.49 1.31.63 24.29-14.02-1.31-.64L296 114.49z"/><path style="fill:#455a64" d="m320.29 100.46-23.1 13.34-3.36-34.56 23.1-13.33 3.36 34.55z"/><path d="m320.11 61.49-28.76 16.6 4 40.76 28.75-16.6zm1.49 39.61-24.28 14-3.49-35.88 24.28-14z" style="fill:#37474f"/><path style="fill:#263238" d="m321.6 101.1-1.31-.64-3.36-34.55 1.18-.69 3.49 35.88z"/><path style="fill:#455a64" d="m320.11 61.49-1.33-.62-28.75 16.6 1.33.62 28.75-16.6z"/><path style="fill:#263238" d="m290.03 77.47 1.33.62 3.96 40.76-1.33-.62-3.96-40.76z"/><g><path style="fill:#37474f" d="m319.27 99.81-21.29 12.29-.57-5.82 3.96-17.1 3.78 5.84-.79 4.91 6.3-18.14 8.05 12.19.56 5.83zM301 82a3 3 0 0 0-1.4 2.63c.09 1 .87 1.32 1.74.81a3 3 0 0 0 1.41-2.63c-.06-.97-.84-1.33-1.75-.81z"/></g></g><g><path style="fill:#263238" d="m144.84 107.62 1.46.87 29.88-17.25-1.46-.87-29.88 17.25z"/><path style="fill:#455a64" d="m174.72 90.37-28.42 16.41V77.01l28.42-16.4v29.76z"/><path d="m178.93 55-35.38 20.42v37.83l35.38-20.43zm-2.75 36.24-29.88 17.25V77l29.88-17.25z" style="fill:#37474f"/><path style="fill:#263238" d="m176.18 91.24-1.46-.87V60.61l1.46-.85v31.48z"/><path style="fill:#455a64" d="m178.93 55-1.48-.85-35.38 20.43 1.48.84L178.93 55z"/><path style="fill:#263238" d="m142.07 74.58 1.48.84v37.83l-1.48-.85V74.58z"/><g><path style="fill:#37474f" d="m173.61 89.48-26.2 15.13v-7.56l6.55-15.13 4.08 3.78-1.47 6.34 9.05-19.35 7.99 9.23v7.56z"/><path d="M157.79 74.61a4.28 4.28 0 0 0-1.93 3.39c0 1.23.86 1.73 1.93 1.12a4.3 4.3 0 0 0 1.94-3.36c0-1.27-.87-1.76-1.94-1.15z" style="fill:#37474f"/></g><g><path style="fill:#263238" d="m99.45 150.11 1.54.56 29.22-21.78-1.54-.56-29.22 21.78z"/><path style="fill:#455a64" d="m128.67 128.33-27.79 20.71-1.97-28.26 27.79-20.7 1.97 28.25z"/><path d="M130.6 94 96 119.77l2.5 35.91 34.6-25.78zm-.39 34.9L101 150.67l-2.08-29.89L128.13 99z" style="fill:#37474f"/><path style="fill:#263238" d="m130.21 128.89-1.54-.56-1.97-28.25 1.43-1.08 2.08 29.89z"/><path style="fill:#455a64" d="m130.6 93.99-1.28-.75-34.59 25.79 1.28.74 34.59-25.78z"/><path style="fill:#263238" d="m94.73 119.03 1.28.74 2.5 35.91-1.28-.74-2.5-35.91z"/><g><path style="fill:#37474f" d="m127.48 127.68-25.62 19.1-.5-7.18 5.66-15.55 4.39 2.86-1.07 6.28 7.91-20.01 8.73 7.32.5 7.18z"/><path d="M110.43 116.42a4.6 4.6 0 0 0-1.75 3.54c.08 1.17 1 1.49 2 .71a4.61 4.61 0 0 0 1.74-3.54c-.03-1.13-.94-1.49-1.99-.71z" style="fill:#37474f"/></g></g></g><g><path d="m105.87 320.21-15.58-9a6.24 6.24 0 0 1-2.83-4.9v-91.56a6.24 6.24 0 0 1 2.83-4.9l127.08-73.37a6.21 6.21 0 0 1 5.66 0l15.58 9a6.24 6.24 0 0 1 2.83 4.9v91.57a6.24 6.24 0 0 1-2.83 4.9l-127.08 73.36a6.21 6.21 0 0 1-5.66 0z" style="fill:#455a64"/><path d="M241.44 150.37v91.57a6.24 6.24 0 0 1-2.83 4.9l-127.08 73.37c-1.57.91-2.83.18-2.83-1.63V227a6.25 6.25 0 0 1 2.83-4.9l127.08-73.37c1.57-.89 2.83-.16 2.83 1.64z" style="fill:#263238"/><path d="M110.87 320.51a6.28 6.28 0 0 1-5-.3l-15.59-9a6.28 6.28 0 0 1-2.82-4.9v-91.56a5.81 5.81 0 0 1 .82-2.79l21.25 12.27a5.76 5.76 0 0 0-.83 2.78v91.57c0 1.54.93 2.3 2.17 1.93z" style="fill:#37474f"/><path d="m335.61 409.94-13.1-7.57a3.14 3.14 0 0 0-2.83 0l-13.1 7.57a2.81 2.81 0 0 0-1 1.05c-.05.09-.08.18-.12.27a2.8 2.8 0 0 0-.3 1.13v21.25a3.14 3.14 0 0 0 1.31 2.37.87.87 0 0 1 .11.09l13.1 7.56a1.15 1.15 0 0 0 .17.06 2.08 2.08 0 0 0 .49.19 3.14 3.14 0 0 0 .75.09 3 3 0 0 0 1.42-.34l13.1-7.56a3.14 3.14 0 0 0 1.41-2.46v-21.25a3.11 3.11 0 0 0-1.41-2.45z" style="fill:#455a64"/><path d="m322.51 443.66 13.1-7.56a3.14 3.14 0 0 0 1.41-2.46v-21.25c0-.91-.63-1.27-1.41-.82l-13.1 7.56a3.13 3.13 0 0 0-1.41 2.45v21.26c-.01.9.63 1.27 1.41.82z" style="fill:#37474f"/><path d="M447.12 345.56 434 338a3.1 3.1 0 0 0-2.83 0l-13.11 7.57a2.89 2.89 0 0 0-1 1.05c-.05.09-.07.18-.11.27a2.65 2.65 0 0 0-.3 1.13v21.25a3.12 3.12 0 0 0 1.31 2.36l.11.09 13.1 7.56a.85.85 0 0 0 .17.06 1.92 1.92 0 0 0 .49.19 3.08 3.08 0 0 0 .75.09 3 3 0 0 0 1.42-.34l13.09-7.56a3.13 3.13 0 0 0 1.42-2.45V348a3.11 3.11 0 0 0-1.39-2.44z" style="fill:#455a64"/><path d="m434 379.28 13.09-7.56a3.13 3.13 0 0 0 1.42-2.45V348c0-.91-.63-1.27-1.41-.82l-13.1 7.57a3.14 3.14 0 0 0-1.42 2.45v21.26c.02.9.65 1.27 1.42.82z" style="fill:#37474f"/><path d="m235.78 217.77-121.42 70.1a12.52 12.52 0 0 0-5.66 9.81v5.37a12.49 12.49 0 0 0 5.66 9.8l201.07 116.09a12.48 12.48 0 0 0 11.32 0l121.43-70.1a12.52 12.52 0 0 0 5.66-9.8v-5.38a12.49 12.49 0 0 0-5.66-9.8L247.1 217.77a12.48 12.48 0 0 0-11.32 0z" style="fill:#455a64"/><path d="M453.84 343.67V349a12.49 12.49 0 0 1-5.66 9.8L326.76 429a11.61 11.61 0 0 1-5.66 1.34v-18.49a11.61 11.61 0 0 0 5.66-1.34l121.42-70.11c2.92-1.7 3.11-4.35.58-6.17a12.65 12.65 0 0 1 5.08 9.44z" style="fill:#263238"/><path d="M114.36 294.41c-3-1.71-3.12-4.43-.43-6.24a12.58 12.58 0 0 0-5.23 9.51v5.37a12.49 12.49 0 0 0 5.66 9.8l201.07 116.09a11.54 11.54 0 0 0 5.67 1.36v-18.45a11.55 11.55 0 0 1-5.66-1.34z" style="fill:#37474f"/><path d="m235.78 187.16-121.42 70.11a12.49 12.49 0 0 0-5.66 9.8v11.45a12.52 12.52 0 0 0 5.66 9.81l201.07 116.09a12.54 12.54 0 0 0 11.32 0l121.43-70.11a12.49 12.49 0 0 0 5.66-9.8v-11.45a12.52 12.52 0 0 0-5.66-9.81L247.1 187.16a12.54 12.54 0 0 0-11.32 0z" style="fill:#5030af"/><path d="m114.36 263.8 201.07 116.09a12.48 12.48 0 0 0 11.32 0l121.43-70.1c3.13-1.81 3.13-4.73 0-6.54L247.1 187.16a12.54 12.54 0 0 0-11.32 0l-121.42 70.11c-3.13 1.8-3.13 4.73 0 6.53z" style="fill:#fff;opacity:.8"/><path d="M191.72 259.41s-14.83 5.89-19.3 7.26-7.63 1.8-10.76 0l-26.41-15.33c-3.13-1.81-3.14-4.33 0-6.14l79.37-46.15 32.15 18.51c3.13 1.8 3.81 2.57 0 6.25-20.77 20.07-45.26 31.79-55.05 35.6z" style="opacity:.05"/><path d="M453.84 313.06v11.45a12.52 12.52 0 0 1-5.66 9.81l-121.42 70.1a11.61 11.61 0 0 1-5.66 1.35v-24.52a11.61 11.61 0 0 0 5.66-1.35l121.42-70.11c2.92-1.7 3.11-4.35.58-6.17a12.65 12.65 0 0 1 5.08 9.44z" style="fill:#fff;opacity:.5"/><path d="M114.36 263.81c-3-1.72-3.12-4.44-.43-6.25a12.6 12.6 0 0 0-5.23 9.51v11.45a12.52 12.52 0 0 0 5.66 9.81l201.07 116.09a11.65 11.65 0 0 0 5.67 1.35v-24.52a11.56 11.56 0 0 1-5.66-1.35z" style="fill:#fff;opacity:.6000000000000001"/><path d="M245.89 218.07c.68-3.79-2.67-10.47-7.48-14.93l-19.36-17.93c-2.69-2.49-5.27-3.76-7.14-3.73-4.79-.37-26 9.86-36.7 16s-34.15 21.11-38.6 27.87c-1.46 2.22 29.45 39 34.2 38.11 10.56-1.9 30.75-11.47 41.39-17.95 17.38-10.6 27.79-19.74 31.58-23.68 1.79-1.9 1.96-2.96 2.11-3.76z" style="fill:#fafafa"/><path d="m143.3 241.94 19.36 17.93c4.81 4.46 9.27 5 10 1.21s-2.67-10.47-7.48-14.93l-19.36-17.93c-4.81-4.45-9.26-5-10-1.21s2.67 10.47 7.48 14.93z" style="fill:#ebebeb"/><path d="M227.49 329.15v42.92l93.61 54v-44.82a11.67 11.67 0 0 1-5.67-1.36z" style="fill:#5030af"/><path d="M227.49 329.15v42.92l93.61 54v-44.82a11.67 11.67 0 0 1-5.67-1.36z" style="opacity:.30000000000000004"/><path d="M448.18 309.79c2.92-1.7 3.11-4.35.58-6.17a12.65 12.65 0 0 1 5.08 9.44v36.38L321.1 426.08v-44.83a11.74 11.74 0 0 0 5.66-1.35z" style="fill:#5030af"/><path d="M448.18 309.79c2.92-1.7 3.11-4.35.58-6.17a12.65 12.65 0 0 1 5.08 9.44v36.38L321.1 426.08v-44.83a11.74 11.74 0 0 0 5.66-1.35z" style="opacity:.45"/><path d="m448.18 303.25-146.47-84.56c-65.19 37.64-21.62 80-74.22 110.46l87.94 50.74a12.48 12.48 0 0 0 11.32 0l121.43-70.1c3.13-1.79 3.13-4.73 0-6.54z" style="fill:#5030af"/><path d="m448.18 303.25-146.47-84.56c-65.19 37.64-21.62 80-74.22 110.46l87.94 50.74a12.48 12.48 0 0 0 11.32 0l121.43-70.1c3.13-1.79 3.13-4.73 0-6.54zM248.73 341.42v43l2.66 1.45v-42.92l-2.66-1.53z" style="opacity:.2"/><path d="M248.73 341.42c47.1-29.28 17.31-69.41 30-105.21a50.5 50.5 0 0 1 3.73-3.67C268.79 275 299.77 314.83 251.39 343z" style="opacity:.1"/></g><g><path d="m122.97 347.14-7.45-4.31 7.45-2.15v6.46zM85.64 362.24v6.86l-42.96-24.86v-6.86l42.96 24.86z"/><path style="fill:#263238" d="m38.95 283.59 42.97 24.86v55.94l-42.97-24.86v-55.94z"/><path style="fill:#37474f" d="m81.92 308.45 48.51-28.01v55.94l-48.51 28.01v-55.94z"/><path style="fill:#455a64" d="m130.43 280.44-42.97-24.86-48.51 28.01 42.97 24.86 48.51-28.01zM85.64 310.6l41.06-23.7v12.91l-41.06 23.7V310.6z"/><path style="opacity:.2" d="m85.64 327.81 41.06-23.7v30.12l-41.06 23.71v-30.13z"/><path style="fill:#263238" d="m85.64 369.1 3.73-2.15v-6.86l-3.73 2.15v6.86zM122.97 347.14l3.73-2.15v-6.46l-3.73 2.15v6.46z"/><path d="M98.37 306c0 .59 1.78 0 4-1.22l7-4c2.19-1.27 4-2.78 4-3.37v-1.08l-14.9 8.61z" style="fill:#37474f"/><path style="opacity:.2" d="m126.7 334.23-25.91-15.16-15.15 8.74v30.13l41.06-23.71z"/><path d="m90.73 307.67.75-.43c2.8.29 5.18 3.38 6.65 2.79s2.61-7.33 2.29-7.95-9.42 3.99-9.69 5.59z" style="fill:#fafafa"/><g><path d="M72.87 284.3a4.26 4.26 0 0 0-.09-.86 12.85 12.85 0 0 0-5.24-7.81h-11a12.86 12.86 0 0 0-5.25 7.81 3.63 3.63 0 0 0-.08.86v.15c.1 1.52 1.14 3 3.15 4.17a16.88 16.88 0 0 0 15.29 0c2-1.16 3-2.65 3.14-4.17a1.09 1.09 0 0 0 .08-.15z" style="fill:#263238"/><path d="M56.87 275.45c-2.87 1.66-2.87 4.34 0 6a11.46 11.46 0 0 0 10.39 0c2.87-1.66 2.87-4.34 0-6a11.46 11.46 0 0 0-10.39 0z" style="fill:#37474f"/><path d="M63.56 222.53h-3v54.77a.71.71 0 0 0 .44.7 2.37 2.37 0 0 0 2.11 0 .7.7 0 0 0 .42-.69z" style="fill:#263238"/><path d="m83.38 221.24-10-25.6h-22.6l-10 25.6c-1.43 4 .53 8.33 5.92 11.44 8.5 4.91 22.29 4.91 30.79 0 5.35-3.11 7.32-7.44 5.89-11.44z" style="fill:#455a64"/><path d="M53.9 201.77c4.51 2.6 11.82 2.6 16.33 0s4.51-6.83 0-9.43-11.82-2.6-16.33 0-4.51 6.83 0 9.43z" style="fill:#455a64"/><path d="M53.9 192.34a9.47 9.47 0 0 0-2 1.62 5.06 5.06 0 0 0-1.16 2.22 3.91 3.91 0 0 0 .26 2.43 5.9 5.9 0 0 0 1.52 2c2.64 2.14 6.17 2.88 9.53 2.9s6.9-.76 9.53-2.9a5.9 5.9 0 0 0 1.52-2 3.77 3.77 0 0 0 .26-2.43 5 5 0 0 0-1.15-2.18 9.67 9.67 0 0 0-2-1.62 9.69 9.69 0 0 1 2.07 1.54 5.14 5.14 0 0 1 1.31 2.24 4.11 4.11 0 0 1-.21 2.61 6.29 6.29 0 0 1-1.55 2.13 12 12 0 0 1-4.63 2.39 18.85 18.85 0 0 1-10.32 0 12 12 0 0 1-4.62-2.39 6.16 6.16 0 0 1-1.55-2.13 4 4 0 0 1-.21-2.61 5.14 5.14 0 0 1 1.31-2.24 9.22 9.22 0 0 1 2.09-1.58z" style="fill:#37474f"/><path d="M62.06 202.08a14.38 14.38 0 0 1-7.06-1.67c-1.65-.95-2.56-2.15-2.56-3.36s.91-2.4 2.56-3.35a14.38 14.38 0 0 1 7.06-1.7 14.39 14.39 0 0 1 7.08 1.67c1.65 1 2.56 2.14 2.56 3.35s-.91 2.41-2.56 3.36a14.39 14.39 0 0 1-7.08 1.7z" style="fill:#37474f"/></g></g><g><path d="M419.56 316.34c-2.76-2.35-15-12.28-15-12.28a75.89 75.89 0 0 1-14.45-.86c-8-1.24-20.29-8.66-20.29-8.66l-4.28 1.54s26 11 14.26 17.79-30.8-8.24-30.8-8.24l-2.68 2.47s12.85 7.08 15 11.72a15.22 15.22 0 0 1 1.49 8.34s17.14 7.24 21.27 8.66c9.26 3.17 9.26 6.23 10.18 10.36s2.67 18.24 2.67 18.24 26.1-4.69 39.24-21.57c.01 0-5.81-18.65-16.61-27.51z" style="opacity:.2"/><path d="M367.36 294.43c5.75 2.8 15.2 11.12 10 14.62s-19.26-.45-26.5-5.07c0 0 14.55 14.58 26.21 14.11s15-8.51 10.72-13-20.43-10.66-20.43-10.66z" style="fill:#263238"/><path d="M421.38 314.69c-2.76-2.35-15-12.28-15-12.28a75.78 75.78 0 0 1-14.44-.86c-8-1.24-20.29-8.66-20.29-8.66l-4.28 1.54s26 11 14.26 17.78-30.8-8.23-30.8-8.23l-2.68 2.47s12.86 7.08 15 11.71a15.23 15.23 0 0 1 1.49 8.34s17.13 7.25 21.27 8.67c9.26 3.17 9.26 6.22 10.18 10.36s2.67 18.24 2.67 18.24 26.09-4.69 39.24-21.57c0 0-5.83-18.65-16.62-27.51z" style="fill:#37474f"/><g><path d="M132.79 370.53c5.14 4.26 10.3 9.62 15.42 11.27 2.68.87 7 .22 10.34.06 10.38-.47 16.27-1.92 18.33 2 2.36 4.53-22.38 9.74-30.22 9.7s-9-2.12-15.83-7.46-11.71-9.91-11.71-9.91z" style="fill:#263238"/><path d="M132.79 368.71c5.14 4.26 10.3 9.63 15.42 11.28 2.68.86 7 .21 10.34.06 10.38-.47 16.27-1.93 18.33 2 2.36 4.53-22.38 9.73-30.22 9.7s-9-2.12-15.83-7.47-11.71-9.91-11.71-9.91z" style="fill:#5030af"/><path d="M132.79 368.71c5.14 4.26 10.3 9.63 15.42 11.28 2.68.86 7 .21 10.34.06 10.38-.47 16.27-1.93 18.33 2 2.36 4.53-22.38 9.73-30.22 9.7s-9-2.12-15.83-7.47-11.71-9.91-11.71-9.91z" style="opacity:.30000000000000004"/><path d="M169.11 379.42c4-.12 6.56.33 7.77 2.66.83 1.58-1.66 3.25-5.58 4.74-2.7-2.54-3.14-5.14-2.19-7.4zM134.85 387.56c6.2-.9 12.66.35 15.75 4a37.52 37.52 0 0 1-3.94.26c-5.99-.07-8.11-1.3-11.81-4.26z" style="fill:#5030af"/><path d="m119.12 374.4 13.67-5.69c2.15 1.78 4.29 3.74 6.44 5.55L125 379.58c-3.58-3.05-5.88-5.18-5.88-5.18z" style="opacity:.15"/></g><g><path d="M374.44 167.14c0-.15-.07-.3-.1-.46a1.21 1.21 0 0 0 0-.19v-.7a3.73 3.73 0 0 1 0-.57v-.17q0-.31.12-.66v-.12a7.67 7.67 0 0 1 .19-.76.29.29 0 0 1 0-.09c.08-.28.17-.56.27-.85a74.83 74.83 0 0 1 4.1-8.93c2.87-5.71 1.5-10.86 1.12-16.29l-2.13-1 9.88-5.7 1.44 1.42s.35 3.49.7 7.26c.06.6.11 1.2.16 1.8l.06.65v.54l.06.65v.54c0 .17 0 .5.06.74v.33a11.36 11.36 0 0 1 0 1.65c0 .14 0 .28-.05.42a13.41 13.41 0 0 1-.26 1.52v.12a13.94 13.94 0 0 1-.51 1.63c0 .15-.11.31-.17.46-.18.46-.37.92-.59 1.38 0 .09-.07.18-.12.28-.25.52-.52 1.05-.81 1.58l-.3.56c-.08.13-.15.27-.22.4-.91 1.62-1.93 3.26-2.94 4.92a35.84 35.84 0 0 1-5.81 7.44c-.22.2-.44.38-.66.55l-.08.07-.57.4-.13.08a4.55 4.55 0 0 1-.49.25l-.16.07a2.41 2.41 0 0 1-.41.13 1 1 0 0 1-.17 0 1.37 1.37 0 0 1-.35 0 .88.88 0 0 1-.16 0 1 1 0 0 1-.31-.14l-.13-.07a1.36 1.36 0 0 1-.34-.4 2.45 2.45 0 0 1-.24-.52 1 1 0 0 0 .05-.22z" style="opacity:.1"/><path d="M381.8 136.54c.38 5.43 1.75 10.59-1.13 16.29s-6 11.57-4.39 14.26 6.73-3.3 9.83-8.42 6.4-10 6-14.92-1.11-12.51-1.11-12.51l-2-1.32-9.55 5.48z" style="fill:#5030af"/><path d="M381.8 136.54c.38 5.43 1.75 10.59-1.13 16.29s-6 11.57-4.39 14.26 6.73-3.3 9.83-8.42 6.4-10 6-14.92-1.11-12.51-1.11-12.51l-2-1.32-9.55 5.48z" style="opacity:.15"/><path d="M392.13 143.75c-.12-1.59-.28-3.45-.44-5.25-2.95 3.29-4.88 11.79-2.64 15.25 1.95-3.37 3.33-6.68 3.08-10z" style="fill:#5030af"/><path d="M392.13 143.75c-.12-1.59-.28-3.45-.44-5.25-2.95 3.29-4.88 11.79-2.64 15.25 1.95-3.37 3.33-6.68 3.08-10z" style="fill:#fff;opacity:.30000000000000004"/><path d="M376.91 160.82c-1 2.63-1.44 4.88-.63 6.27s2.72.38 4.74-1.69c-.02-2.6-1.56-4.73-4.11-4.58z" style="fill:#5030af"/><path d="M376.91 160.82c-1 2.63-1.44 4.88-.63 6.27s2.72.38 4.74-1.69c-.02-2.6-1.56-4.73-4.11-4.58z" style="fill:#fff;opacity:.30000000000000004"/></g></g><g><path d="M255.42 457a36.81 36.81 0 0 0 11.68 6.59 5.47 5.47 0 0 0 4.31-.52l25.53-16.55a1.69 1.69 0 0 0 .19-2.88 40.1 40.1 0 0 0-9.78-5.6 5.63 5.63 0 0 0-4.35.35l-27.22 15.72a1.71 1.71 0 0 0-.36 2.89z" style="fill:#263238"/><path d="M304.08 440.57c0 2.55-4.15 4.62-9.26 4.62s-9.25-2.07-9.25-4.62 4.14-4.62 9.25-4.62h.3c-4.54.07-8.17 1.93-8.17 4.22s3.78 4.22 8.45 4.22 8.46-1.89 8.46-4.22a2.34 2.34 0 0 0-.34-1.19 2.59 2.59 0 0 1 .56 1.59z"/><path d="M303.51 439c-1.27-1.72-4.53-3-8.39-3h.28c3.85 0 7.08 1.23 8.11 3zM259.38 464.31c0 .51-.82.92-1.83.92s-1.83-.41-1.83-.92.82-.91 1.83-.91 1.83.41 1.83.91zM261.68 462.41c0 .25-.4.44-.88.44s-.88-.19-.88-.44.39-.43.88-.43.88.19.88.43z"/><path d="M273.68 452.39a23.46 23.46 0 0 1-7-12.4c-.61-4.08 1.47-5.25 4.64-2.61a23.46 23.46 0 0 1 7 12.4c.68 4.22-1.4 5.36-4.64 2.61z" style="fill:#5030af"/><path d="M273.68 452.39a23.46 23.46 0 0 1-7-12.4c-.61-4.08 1.47-5.25 4.64-2.61a23.46 23.46 0 0 1 7 12.4c.68 4.22-1.4 5.36-4.64 2.61z" style="opacity:.30000000000000004"/><path d="m271 457.53-10-17.86 21.8-10.48c.82-.35 2-.06 3.33 1a18.09 18.09 0 0 1 6 10.71c.21 1.73-.13 2.9-.85 3.42z" style="fill:#5030af"/><g style="opacity:.9"><path d="m271 457.53-10-17.86 21.8-10.48c.82-.35 2-.06 3.33 1a18.09 18.09 0 0 1 6 10.71c.21 1.73-.13 2.9-.85 3.42z" style="fill:#fff"/></g><g style="opacity:.1"><path d="m261 439.67 4.43-2.13a9.55 9.55 0 0 1 1.64 1c3.77 3 7.35 9.33 8 14.22 0 .21 0 .4.05.6a10 10 0 0 1 0 1.47l-4.12 2.7z" style="fill:#5030af"/></g><path d="m261 439.67 4.43-2.13a9.55 9.55 0 0 1 1.64 1c3.77 3 7.35 9.33 8 14.22 0 .21 0 .4.05.6a10 10 0 0 1 0 1.47l-4.12 2.7z" style="opacity:.05"/><path d="m272.28 458.31-3.22 1.81-1.17-2.12c-.3-.2-.61-.42-.93-.68-3.85-3.09-7.43-9.46-8-14.22 0-.4-.06-.76-.07-1.11l-1.14-2 3.25-1.79c1-.59 2.64-.21 4.52 1.27 3.77 3 7.35 9.32 8 14.22.29 2.44-.19 4.03-1.24 4.62z" style="fill:#5030af"/><path d="m272.28 458.31-3.22 1.81-1.17-2.12c-.3-.2-.61-.42-.93-.68-3.85-3.09-7.43-9.46-8-14.22 0-.4-.06-.76-.07-1.11l-1.14-2 3.25-1.79c1-.59 2.64-.21 4.52 1.27 3.77 3 7.35 9.32 8 14.22.29 2.44-.19 4.03-1.24 4.62z" style="opacity:.2"/><path d="M264.49 458.75c-3.85-3.09-7.43-9.46-8-14.22s2-6.22 5.79-3.25 7.35 9.32 8 14.21-1.95 6.35-5.79 3.26z" style="fill:#5030af"/><path d="m267.25 458.7-3 .85-2.87-5.11a24 24 0 0 1-2.86-5.08l-2.78-4.95 2.28-2.14c.78-.86 2.22-.67 4 .78a21.36 21.36 0 0 1 6.59 11.72c.39 2.37-.21 3.72-1.36 3.93z" style="fill:#5030af"/><path d="m267.25 458.7-3 .85-2.87-5.11a24 24 0 0 1-2.86-5.08l-2.78-4.95 2.28-2.14c.78-.86 2.22-.67 4 .78a21.36 21.36 0 0 1 6.59 11.72c.39 2.37-.21 3.72-1.36 3.93z" style="opacity:.2"/><path d="M261.3 458.29a20.71 20.71 0 0 1-6.06-10.77c-.54-3.54 1.24-4.54 4-2.24a20.63 20.63 0 0 1 6.06 10.77c.58 3.64-1.2 4.64-4 2.24z" style="fill:#5030af"/><path d="M264 458.38s.13-.18.18-.54a5.37 5.37 0 0 0-.07-1.59 17.79 17.79 0 0 0-2.08-5.5 17.23 17.23 0 0 0-3.56-4.55 4.65 4.65 0 0 0-1.31-.84.87.87 0 0 0-.56-.1c-.07 0-.39.56-.15 2.08a17.1 17.1 0 0 0 2 5.4 17.71 17.71 0 0 0 3.61 4.64c1.18 1 1.82 1.05 1.94 1z" style="fill:#5030af"/><path d="M264 458.38s.13-.18.18-.54a5.37 5.37 0 0 0-.07-1.59 17.79 17.79 0 0 0-2.08-5.5 17.23 17.23 0 0 0-3.56-4.55 4.65 4.65 0 0 0-1.31-.84.87.87 0 0 0-.56-.1c-.07 0-.39.56-.15 2.08a17.1 17.1 0 0 0 2 5.4 17.71 17.71 0 0 0 3.61 4.64c1.18 1 1.82 1.05 1.94 1z" style="opacity:.5"/><path d="M264.16 457.84a5.37 5.37 0 0 0-.07-1.59 17.79 17.79 0 0 0-2.08-5.5 17.23 17.23 0 0 0-3.56-4.55 4.65 4.65 0 0 0-1.31-.84 5.18 5.18 0 0 0 0 1.55 17.28 17.28 0 0 0 2.05 5.41 17.82 17.82 0 0 0 3.61 4.63 5.34 5.34 0 0 0 1.36.89z" style="fill:#5030af"/><path d="M264.16 457.84a5.37 5.37 0 0 0-.07-1.59 17.79 17.79 0 0 0-2.08-5.5 17.23 17.23 0 0 0-3.56-4.55 4.65 4.65 0 0 0-1.31-.84 5.18 5.18 0 0 0 0 1.55 17.28 17.28 0 0 0 2.05 5.41 17.82 17.82 0 0 0 3.61 4.63 5.34 5.34 0 0 0 1.36.89z" style="opacity:.2"/><path d="M262.53 454.77a1.79 1.79 0 0 0 .44 1.32c.25.16.46-.19.46-.78A1.71 1.71 0 0 0 263 454c-.26-.16-.47.19-.47.77z" style="opacity:.5"/><path d="M275.61 432.33c.8-.44 2-.1 3.53 1.15a22.07 22.07 0 0 1 6.56 11.67c.32 2 0 3.24-.79 3.69l-7.44 4.85c.84-.47 1.19-1.81.85-3.91a23.46 23.46 0 0 0-7-12.4c-1.59-1.32-2.9-1.69-3.74-1.22z" style="fill:#5030af"/><path d="M279.14 437.52a14 14 0 0 0-1.71 0 4.43 4.43 0 0 1-2.91-1 .3.3 0 0 1-.06-.38 3.47 3.47 0 0 1 5.93 1.62c0 .07-.09.14-.13.11a3.09 3.09 0 0 0-1.12-.35zM274.55 437.17a5.13 5.13 0 0 0 1.5.83 4.28 4.28 0 0 0 1.78.21 4.27 4.27 0 0 1 2.18.3.28.28 0 0 1 .15.38 3.08 3.08 0 0 1-3.61 1.2 3.11 3.11 0 0 1-2.46-2.71.28.28 0 0 1 .46-.21z" style="fill:#37474f"/></g><g><path d="M373.59 240.94c-4.48 2.17-3.5 5.25 0 8.17s9 4.44 11.49 7.24 6.15 8.06 14.44 8.06 15.26-3.22 11.64-7.31-7.56-5.3-13.63-7.87-9.64-5.6-13.58-7.63c-3.33-1.7-6.5-2.53-10.36-.66zM407.19 229.42c3.77-2.59 9.1-2 14.16 0s7.68 5.17 12.53 6.63 10.35 2.64 12 8c1.38 4.58-4.67 8.87-10.57 7.6-5.1-1.1-9.29-4.95-13.74-8.45s-9.7-5.57-13.21-7.84c-2.97-1.88-4.36-3.72-1.17-5.94z" style="fill:#263238"/><path d="M411.16 252.44c-3.62-4.08-7.56-5.3-13.63-7.87S387.89 239 384 237c-3.33-1.71-6.5-2.54-10.36-.67-2.09 1-3 2.23-3 3.53v2.35c0 1.45 1.18 3 3 4.51 3.51 2.92 9 4.44 11.49 7.24s6.15 8 14.44 8c6.73 0 12.59-2.12 12.61-5.1v-2.24a3.33 3.33 0 0 0-1.02-2.18z" style="fill:#37474f"/><path d="M373.59 236.28c-4.48 2.17-3.5 5.25 0 8.17s9 4.44 11.49 7.24 6.15 8.06 14.44 8.06 15.26-3.22 11.64-7.31-7.56-5.3-13.63-7.87S387.89 239 384 237c-3.38-1.76-6.55-2.59-10.41-.72z" style="fill:#455a64"/><path d="M403.88 254.54a.92.92 0 0 1-.88-.54 7.24 7.24 0 0 0-5.2-3.94c-4-.59-15.8-.55-15.92-.55a.92.92 0 0 1 0-1.84c.48 0 12 0 16.18.57a9.11 9.11 0 0 1 6.61 5 .9.9 0 0 1-.46 1.21.84.84 0 0 1-.33.09z" style="fill:#5030af"/><path d="M402.86 253a.92.92 0 0 1-.91-.93 10.43 10.43 0 0 1 .12-1.19 4.3 4.3 0 0 0-.51-3.44c-1.08-1.35-3.66-2.24-7.68-2.65a.91.91 0 1 1 .18-1.82c4.6.46 7.52 1.55 8.94 3.33a6 6 0 0 1 .89 4.82 8 8 0 0 0-.1 1 .92.92 0 0 1-.93.88z" style="fill:#5030af"/><path d="M445.86 239.43c-1.63-5.4-7.12-6.58-12-8s-7.48-4.61-12.53-6.63-10.39-2.59-14.16 0c-1.34.92-1.88 1.78-1.84 2.6v2.19c0 1.17 1.24 2.27 3 3.4 3.51 2.28 8.76 4.34 13.21 7.84s8.64 7.36 13.74 8.46c5.34 1.15 10.79-2.26 10.75-6.31v-2.38a5 5 0 0 0-.17-1.17z" style="fill:#37474f"/><path d="M407.19 224.76c3.77-2.59 9.1-2 14.16 0s7.68 5.17 12.53 6.63 10.35 2.64 12 8c1.38 4.58-4.67 8.88-10.57 7.6-5.1-1.1-9.29-4.95-13.74-8.45s-9.7-5.57-13.21-7.84c-2.97-1.88-4.36-3.7-1.17-5.94z" style="fill:#455a64"/><path d="M436.73 242.62a.94.94 0 0 1-.89-.67c-.16-.57-2.22-3.88-7.45-4.8a76.15 76.15 0 0 0-9.48-1.09.92.92 0 0 1 0-1.84 79.36 79.36 0 0 1 9.74 1.12c5.8 1 8.56 4.85 8.9 6.13a.91.91 0 0 1-.64 1.12z" style="fill:#5030af"/><path d="M435.67 241a.91.91 0 0 1-.32-.06.92.92 0 0 1-.55-1.17s1.46-4.1.72-7.39c-.51-2.25-5.75-2-7.55-1.69a.92.92 0 0 1-.28-1.81c.88-.14 8.64-1.22 9.62 3.09.87 3.83-.71 8.24-.78 8.43a.92.92 0 0 1-.86.6z" style="fill:#5030af"/></g><g><path d="M191.88 206.41a12.87 12.87 0 0 0-8 11.64 23.49 23.49 0 0 1 0 3.56c-.37 2.32-1.66 4.24-1.65 6.66a12.5 12.5 0 0 0 2 6.52c2.09 3.34 5.94 5 9.78 5.36 2.93.29 6-.23 8.76.75a63.82 63.82 0 0 0 6.19 2.16 13.5 13.5 0 0 0 6.94.06 8 8 0 0 0 5.19-4.38c1.32 1.07.82 3.15.41 4.8a19.35 19.35 0 0 0 1.84 13.81c1.7 3.09 4.31 5.81 4.91 9.29a18.13 18.13 0 0 1-15.25-5.09c-.92-.92-1.66-2-2.56-2.92s-2.06-1.91-2.93-3a47.08 47.08 0 0 1-2.7-4.12c-.44-.67-1.28-3-2.29-2a1.8 1.8 0 0 0-.46.86c-.7 2.31.17 5 1.33 7A2.58 2.58 0 0 1 204 259c-.31 1.87-3.77.72-4.83.41-2.64-.75-4.9-2.86-7.15-4.44a5.43 5.43 0 0 0-3.15-1.33 1.37 1.37 0 0 0-1.38.91c-.17.83.84 1.39 1.23 2.15s0 2 .34 3c.21.68.76 1.22 1 1.89a6.33 6.33 0 0 1 .2 1.44c.38 4 3.28 7.48 6.45 9.63a34.92 34.92 0 0 0 11.23 4.69c3.77.94 7.6 1.66 11.39 2.52a52.28 52.28 0 0 1 10.4 4.13 1 1 0 0 1 .4.3.86.86 0 0 1 0 .67 28.6 28.6 0 0 0-1.27 7.5 11.69 11.69 0 0 0 2.37 6.06 24.76 24.76 0 0 0 6.95 6.37 103.71 103.71 0 0 0 11.88 7c3.22 1.6 6.53 3 9.81 4.51q13.9 6.21 27.42 13.23c7.83 4.07 15.29 8.72 19.52 16.8a15 15 0 0 0 1.76 2.93c1.09 1.24 2.74 2.05 4.27 1.12 1.32-.8 2.22-2.55 2.91-3.89a18.72 18.72 0 0 0 2.05-10.26c-.08-.94-.24-1.88-.35-2.82-.34-3.08.42-6.11.25-9.16a21.64 21.64 0 0 0-1.87-8.74 32.6 32.6 0 0 1-1.55-3c-.43-1.12-.56-2.35-1-3.45-1.34-3.07-5.22-3.92-8.15-4.71a52 52 0 0 1-9.4-3.4 36.16 36.16 0 0 1-4.2-2.81 11.86 11.86 0 0 0-1.65-1.13c2.68-1.81 5.75-3.89 8.26-5.93a32 32 0 0 0 7.7-9.82 24.89 24.89 0 0 0 0-21.19c-3.77-8.62-8.9-14.49-16.32-20.28-12.42-9.7-25.53-13.44-40-15.42-5.12-.71-10.3-1.1-15.33-2.32-11.88-2.89-22.17-10.2-33.55-14.72-2.42-.97-6.31-1.98-8.76-1.03z" style="opacity:.15"/><path d="M224.69 237.76c-1.5 5.09-1.69 10.41.72 15.68s10.94 21.15 10.94 21.15l14.32-6.2-12.94-22.64z" style="fill:#ffa8a7"/><path d="M224.29 264.85c-3.85-.9-7.71-2.23-10-5.49a28.38 28.38 0 0 0-2.89-3.8 54.37 54.37 0 0 0-4.33-3.31 15.46 15.46 0 0 1-2.14-2.14c-.28-.34-.74-.74-1.1-.49a.71.71 0 0 0-.22.27 4.38 4.38 0 0 0 0 3.74c.49 1.19 1.24 2.26 1.73 3.46.22.51.59 1.61.19 2.13s-1.75.24-2.33.08a27.88 27.88 0 0 1-6-2.11c-.7-.36-3.22-2.12-3.83-2.59l-.3-.22a4.6 4.6 0 0 0-3.09-1 1.08 1.08 0 0 0-.35.1.71.71 0 0 0-.29.73 2.15 2.15 0 0 0 .33.76c.25.43.49.86.71 1.29s.53.82.31 1.45a4.2 4.2 0 0 0-.35 1.18c0 .8.7 1.33 1 2s-.07 1.55.35 2.35a4.39 4.39 0 0 0 1.09 1.26 3.52 3.52 0 0 1 .55.54 9.93 9.93 0 0 1 .78 2.12c.55 1.23 1.8 1.65 2.85 2.33a29.24 29.24 0 0 0 4.12 2.23 30.42 30.42 0 0 0 8.88 2.43c1 .11 2 .27 3 .39a14.06 14.06 0 0 1 3.71.71c4.34 1.58 16.45 5.92 19.48 6.67q3.42.84 6.85 1.63l.76-15.77a145.77 145.77 0 0 1-19.47-2.93z" style="fill:#ffa8a7"/><path d="M238.73 210.94a76.55 76.55 0 0 0-6.68 8.37c-1.82 2.89-6.53 13.29-7.36 18.45a49.4 49.4 0 0 0 6.31 13.32c4.2 6.36 6.92 10.19 10.36 11.18 7.22 2.1 10-2.74 10-2.74 4.13 2.61 7.34 4.36 9.59 5.52a38.73 38.73 0 0 0 17.92-13.24c4.63-6.36 14.16-11.3 19.45-12.1-4.75-7.8-15.69-17.86-20.19-20.94a76.52 76.52 0 0 0-19.37-9.7c-14.01-4.38-16.53.08-20.03 1.88z" style="fill:#5030af"/><path d="M222.05 236.48a3.49 3.49 0 0 0-1.16-4.17c-1.46-1-7.63-3.15-10.08-3.14a11.73 11.73 0 0 0-5.87 1.6c-1.69 1 .37 4.64-1.51 5.35-10.31 3.85-16.27-2.63-17.29-6.07s-.94-7 .69-8.4c-1.47-2.58-1.28-6.41-.25-9.18 3.9-10.57 10.44-11.67 12.58-11.4a9.78 9.78 0 0 1 2.8-2.74c3-1.8 5.33-2.16 9.47-1.67 2.44.29 5.64 1.22 11.58 4.82 3 1.83 5.46 3.81 8.83 4.87a3.18 3.18 0 0 1-2.8 1.15c3 1.52 4.65 3.49 5 6.86a5.08 5.08 0 0 0-3.78-1.55c1.28 1 2.51 3.36 1 5.19a5.55 5.55 0 0 1-2.81 1.74 20.57 20.57 0 0 1-2.79.56c-2.56.36-.78 3.62-.45 5a19.49 19.49 0 0 1 .29 6.44 5.3 5.3 0 0 1-3.45 4.74z" style="fill:#263238"/><path d="M195 231.7a28 28 0 0 0 3.17 2 60.53 60.53 0 0 0 6.76 3.21c8.26 3.24 11.9 1.86 13.87.15a13.61 13.61 0 0 0 3.65-6.64l4.79 2.44s2.93 8.39 7.74 2.61a12.8 12.8 0 0 0 2.41-10.52 14.79 14.79 0 0 0-3.15-6.18L223.33 213a4.51 4.51 0 0 0 1.12-5.53c-1.44-3.24-4.3-5-7.12-4s-4.06 4.53-2.06 7.44c1.42 2.07-.49 2.41-2.79 1.35s-3.81.43-5.34.67c-5.17.81-5.59-1.55-9-.16-1.94.8-4.1 4.34-3.2 8.14-4.35 1.95-5.07 7.01.06 10.79z" style="fill:#ffa8a7"/><path d="M207.75 219a1.59 1.59 0 1 1-1.46 2.82c-.78-.4-.37-1.09 0-1.87s.71-1.37 1.46-.95zM202.26 228.66a1.59 1.59 0 0 1-.84 3.06c-.85-.23-.59-1-.36-1.84s.35-1.45 1.2-1.22z" style="fill:#263238"/><path d="M214.29 229.26a2.06 2.06 0 0 1-.45-.79 3.11 3.11 0 0 1-.13-1.09 2.05 2.05 0 0 1 1-1.77.2.2 0 0 1 .17 0 .17.17 0 0 1 .1.17 9.72 9.72 0 0 1-.38 1 3.73 3.73 0 0 0-.12.94 2.41 2.41 0 0 0 .15.89c.1.22.24.43.34.66 0 .08.1.21.05.3a.2.2 0 0 1-.24.07 1.4 1.4 0 0 1-.49-.38z" style="fill:#b16668"/><path d="m198.36 226.54-.92 3.16a1.57 1.57 0 0 0 2-1 1.73 1.73 0 0 0-1.08-2.16zM204.89 215.84l-2.27 2.39a1.59 1.59 0 0 0 2.3 0 1.74 1.74 0 0 0-.03-2.39z" style="fill:#263238"/><path style="fill:#f28f8f" d="m202.62 223.71 8.84 4.66-3.84 3.94-5-8.6zM222.47 230.4c1.44-6.78.78-12-1.22-14.23a7 7 0 0 1 3.79 5.07c.59 3.84-.92 10-.92 10z"/><g><path d="M310.92 343.28a3.54 3.54 0 0 1 .16.34 4 4 0 0 0 1.16 1.74 2.39 2.39 0 0 0 2.91-.48 5.86 5.86 0 0 0 1.36-2.86c.8-3.27 1.44-7.55 0-10.72-1.26-2.71-4-4.33-6.34-6.21a26 26 0 0 1-5.74-6.53c-.83-1.35-1.68-2.9-3.2-3.34a7.6 7.6 0 0 0-2.43-.08 11.18 11.18 0 0 1-5.4-1.32l-.79-.38c-4-2.27-13.82-9.46-16.14-11.28l-7.67 13.92c5.08 2.11 17 7.63 20.85 9.21a53.13 53.13 0 0 1 6.89 3.71 52.23 52.23 0 0 1 6.79 4.74 28.54 28.54 0 0 1 7.59 9.54z" style="fill:#ffa8a7"/><path d="M301.68 249.5c7.34 10.38 7.67 25.55-4.81 37.15-15.49 14.39-51.52 15.68-59 10.76s-8.21-15.75 10.41-23.73c10-4.28 18.74-5.17 30.26-6.39 2.09-1.92 21.16-20.29 23.14-17.79z" style="fill:#263238"/><path d="M232.88 288.53c-.29 5 2.48 12.28 18.09 19.8 14.18 6.84 22.47 10.49 22.47 10.49a21.4 21.4 0 0 0 9.18-12.62l-11.79-9.47c-6.83-5.47-25.23-15.19-33.62-16.15a11 11 0 0 0-4.33 7.95z" style="fill:#37474f"/><path d="M248.31 273.68c10-4.28 18.84-9.43 30.37-10.65 2.06-1.92 23-10.29 23-10.29" style="fill:#263238"/><path d="M310 344.23a4.5 4.5 0 0 0 2.42 2.67c1.7.56 3.4-1 4.06-2a15.41 15.41 0 0 0 2.21-6.14c.45-3.45.47-6.08-1-8.51-1.3-2.1-3.11-3.22-5-4.79-1.66-1.38-3.58-2.41-5.1-4s-2.06-3.67-3.22-5.41c-1.45-2.17-3.49-3.49-6.16-2.73s-3 .43-4.1 0c-1.3-.56-1.47.1-1.47.1l.79.38c1.66 1.92-1.64 10.51-2.81 11.7l-.94-.23s-.33.68.75 1.12c5.26 2.12 11.38 7 15.28 11a20.37 20.37 0 0 1 4.29 6.84z" style="fill:#e0e0e0"/><path d="M318.78 333.59a3.58 3.58 0 0 0-2.86-.72c-1.91.4-6.24 4.23-7.51 8.24a21.52 21.52 0 0 1 1.54 3.12 4.5 4.5 0 0 0 2.42 2.67c1.7.56 3.4-1 4.06-2a15.41 15.41 0 0 0 2.21-6.14 19.52 19.52 0 0 0 .14-5.17zM304.31 316.1c-1.45-2.17-3.49-3.49-6.16-2.73l-.7.18c1 3 4.22 6.72 8.46 5.56a28.78 28.78 0 0 0-1.6-3.01z" style="fill:#5030af"/><path d="M307.49 333.34a3.46 3.46 0 0 0 2.35-.55 9.15 9.15 0 0 0 3.36-4.65 18.72 18.72 0 0 0 1.36-5.35 10.44 10.44 0 0 0-.94-5.4 22.17 22.17 0 0 0-2.53-3.59 11.15 11.15 0 0 1-1.73-2.94 12.07 12.07 0 0 1-.31-1.45c-.13-.57-.31-1.14-.44-1.72a12.24 12.24 0 0 0-1.33-4.23c-1.43-2.17-4.09-2.66-6.39-3.41-.56-.19-1.12-.36-1.69-.54l-.83-.42c-4.15-2-16.84-10.55-19.25-12.22L272.3 302c5.2 1.81 15.95 5.8 19.45 7.46a18 18 0 0 1 4 2.4 24.31 24.31 0 0 1 5 6.41 41.18 41.18 0 0 1 2.35 4.87 13.82 13.82 0 0 1 .65 2.45 43.06 43.06 0 0 0 1 5 4 4 0 0 0 2.74 2.75z" style="fill:#ffa8a7"/><path d="M298.37 299.09c1 2.33-2.5 10.94-4 11.72l-1-.57s-.45.6 1 1.49a21.72 21.72 0 0 1 4.63 4.67c1 1.36 3.51 5.91 4 8.11s1.29 6.49 1.69 9 4.49 3.38 7.44-.89a16.44 16.44 0 0 0 2.83-13.12c-1-4.43-3-5.74-4.41-7.71s-1.13-4.29-1.87-6.79-1.29-4-4-4.69-5.08-1.21-6.07-1.86-1.42 0-1.42 0z" style="fill:#f5f5f5"/><path d="M309.35 308.62a31.75 31.75 0 0 0-.71-3.66c-.74-2.51-1.29-4-4-4.69l-2.37-.58c-.22 3.42 2.14 8.82 7.08 8.93zM312.57 324.59c-2.24-.19-5.44 2-8.35 6.4.16.91.31 1.77.43 2.48.4 2.46 4.49 3.38 7.44-.89a18.07 18.07 0 0 0 2.79-6.21 2.29 2.29 0 0 0-2.31-1.78z" style="fill:#5030af"/><path d="M302.14 245.92c5.53 13.84 2.74 24.82-4.33 31.49-12.52 11.82-52.66 10.87-60.51 6.61s-6.84-13.7 11-23.27c9.58-5.14 18.63-8.54 30.85-11.92 1.89-2.09 12.15-9.71 18.79-9.71a35.84 35.84 0 0 1 4.2 6.8z" style="fill:#455a64"/><path d="M246.43 272c3.88-1.63 21.25 1.68 30.25 4.76 7.63 2.62 15.35 1.74 21.48-6.44a28.52 28.52 0 0 0 5.45-20.17c3.7 11.15.46 21.32-5.8 27.23-8.1 7.65-27.78 9.95-42.79 9.46z" style="fill:#37474f"/><path d="M232.61 276.83c-.22 5 3.69 11.48 18.16 17.05 14.69 5.65 25.53 10.27 25.53 10.27a30.76 30.76 0 0 0 7.32-14.9s-4.5-2.94-11.77-7.8-14.85-9.24-23.32-9.45-15.92 4.83-15.92 4.83z" style="fill:#455a64"/></g><path d="m267.38 249.27-18.26-19s-11.46-11-11.15-18.53c5.65-6.59 12.2-6.8 19-2.09s22.64 27.26 25.17 31.13c3 4.53 4.9 6.8 1.44 13.46-6.55 12.58-10 15.68-14.79 23.93a108.39 108.39 0 0 0-5.64 11.18c-1.71 3.57-3.38 7.2-6.11 10.13-.19.21-.39.42-.6.62a3.45 3.45 0 0 1-2.43 1.26 2.63 2.63 0 0 0-.84 0 1.9 1.9 0 0 0-.49.3 3.87 3.87 0 0 1-3.24.79 3.31 3.31 0 0 0-.88-.2 2.56 2.56 0 0 0-.88.27 4.17 4.17 0 0 1-4-.11c-.35-.25-.73-.7-1.15-.8a3.53 3.53 0 0 0-1.51.13c-.51.12-1 .25-1.53.4a2.46 2.46 0 0 1-.88.14.78.78 0 0 1-.69-.5 1 1 0 0 1 0-.39 5 5 0 0 1 1.89-2.95l.31-.25c.66-.51 3.15-2.68 3.73-3.29a25.92 25.92 0 0 0 4.15-5.69c.32-.56.7-1.8.2-2.44s-1.68-.46-2.28-.37c-1.37.19-2.69.69-4.06.87a4.69 4.69 0 0 1-3.91-.94.81.81 0 0 1-.22-.3c-.17-.45.37-.82.8-1a15.61 15.61 0 0 0 2.81-1.66c1.57-1.16 2.93-2.62 4.61-3.62a30.31 30.31 0 0 1 4.73-2c4-1.54 6.44-5.21 8.41-9a157.15 157.15 0 0 0 8.29-19.48z" style="fill:#ffa8a7"/></g><g><path d="m184.35 101.69 5.62 3.25v-2.37c0-2.9 2-4.08 4.54-2.63a8.82 8.82 0 0 1 2.71 2.61c.41-3.65 3.27-5 6.74-3a15 15 0 0 1 6.8 11.78v2.43a6.56 6.56 0 0 1-.57 2.83l4.66 2.69a5.57 5.57 0 0 1 2.53 4.37c0 1.61-1.13 2.26-2.53 1.45l-30.46-17.58a5.59 5.59 0 0 1-2.52-4.37c-.04-1.61 1.13-2.26 2.48-1.46z" style="fill:#e0e0e0"/><path d="m184.35 101.69 5.62 3.25v-2.37c0-2.9 2-4.08 4.54-2.63a8.82 8.82 0 0 1 2.71 2.61c.41-3.65 3.27-5 6.74-3a15 15 0 0 1 6.8 11.78v2.43a6.56 6.56 0 0 1-.57 2.83l4.66 2.69a5.57 5.57 0 0 1 2.53 4.37c0 1.61-1.13 2.26-2.53 1.45l-30.46-17.58a5.59 5.59 0 0 1-2.52-4.37c-.04-1.61 1.13-2.26 2.48-1.46z" style="opacity:.15"/><path d="M327.82 143.12 325.1 141v-6c0-4.75-3.79-10.27-7.91-12.65-4.12-2.38-7.46-.45-7.46 4.3v.87a10.58 10.58 0 0 0-3.46-3.46c-3-1.71-5.37-.32-5.37 3.1v.4l-3.79-2.2c-1.95-1.12-3.54-.21-3.54 2a7.8 7.8 0 0 0 3.54 6.12l30.71 17.74c1.95 1.12 3.54.21 3.54-2a7.8 7.8 0 0 0-3.54-6.1z" style="fill:#e0e0e0"/><path d="M327.82 143.12 325.1 141v-6c0-4.75-3.79-10.27-7.91-12.65-4.12-2.38-7.46-.45-7.46 4.3v.87a10.58 10.58 0 0 0-3.46-3.46c-3-1.71-5.37-.32-5.37 3.1v.4l-3.79-2.2c-1.95-1.12-3.54-.21-3.54 2a7.8 7.8 0 0 0 3.54 6.12l30.71 17.74c1.95 1.12 3.54.21 3.54-2a7.8 7.8 0 0 0-3.54-6.1z" style="opacity:.15"/><path d="M244.42 120.42a7.53 7.53 0 0 1 2.17 2.07 18.92 18.92 0 0 1-.8-5.3c0-5.56 2.93-8.38 6.54-6.29a10.09 10.09 0 0 1 3 2.84 14.11 14.11 0 0 1-.3-2.8c0-4.46 2.35-6.72 5.25-5a9.48 9.48 0 0 1 3.2 3.53c1.56-6.58 6.12-9.36 11.5-6.26 6.67 3.85 12.08 15.3 12.08 25.58a19.08 19.08 0 0 1-1.77 8.66 6 6 0 0 1 1.33.57c3.84 2.22 7 8.82 7 14.75s-3.12 8.92-7 6.7l-42.19-24.35c-2.63-1.52-4.76-6-4.76-10.07s2.12-6.14 4.75-4.63z" style="fill:#e0e0e0"/><path d="M244.42 120.42a7.53 7.53 0 0 1 2.17 2.07 18.92 18.92 0 0 1-.8-5.3c0-5.56 2.93-8.38 6.54-6.29a10.09 10.09 0 0 1 3 2.84 14.11 14.11 0 0 1-.3-2.8c0-4.46 2.35-6.72 5.25-5a9.48 9.48 0 0 1 3.2 3.53c1.56-6.58 6.12-9.36 11.5-6.26 6.67 3.85 12.08 15.3 12.08 25.58a19.08 19.08 0 0 1-1.77 8.66 6 6 0 0 1 1.33.57c3.84 2.22 7 8.82 7 14.75s-3.12 8.92-7 6.7l-42.19-24.35c-2.63-1.52-4.76-6-4.76-10.07s2.12-6.14 4.75-4.63z" style="opacity:.15"/><path d="M209.71 91.94c0 5.92 3.12 12.53 7 14.75l19.81 11.44c.84-3.33 3.11-4.82 5.82-3.51v-1.27c0-7.09 3.75-10.7 8.35-8a10.33 10.33 0 0 1 .92.6c.2-2.57 1-4.49 2.26-5.51a10 10 0 0 0-2.87-2.7 4.15 4.15 0 0 0-3-.6 9.3 9.3 0 0 0 .29-2.47c0-3.63-1.23-6.34-4.08-8.09a3.34 3.34 0 0 0-4.45 1c-.59-7.84-3.73-12.89-9.12-16-6.67-3.85-12.65 3.06-13.19 7.77a15.38 15.38 0 0 0 .58 6.89 8.35 8.35 0 0 0-1.32-1c-3.88-2.24-7 .76-7 6.7z" style="fill:#e0e0e0"/><path d="M209.71 91.94c0 5.92 3.12 12.53 7 14.75l19.81 11.44c.84-3.33 3.11-4.82 5.82-3.51v-1.27c0-7.09 3.75-10.7 8.35-8a10.33 10.33 0 0 1 .92.6c.2-2.57 1-4.49 2.26-5.51a10 10 0 0 0-2.87-2.7 4.15 4.15 0 0 0-3-.6 9.3 9.3 0 0 0 .29-2.47c0-3.63-1.23-6.34-4.08-8.09a3.34 3.34 0 0 0-4.45 1c-.59-7.84-3.73-12.89-9.12-16-6.67-3.85-12.65 3.06-13.19 7.77a15.38 15.38 0 0 0 .58 6.89 8.35 8.35 0 0 0-1.32-1c-3.88-2.24-7 .76-7 6.7z" style="opacity:.15"/><g style="opacity:.5"><path d="M323.52 156.68a.5.5 0 0 1-.5-.5v-1.5a.5.5 0 0 1 1 0v1.5a.5.5 0 0 1-.5.5zM323.52 273.76a.5.5 0 0 1-.5-.5v-2.92a.5.5 0 1 1 1 0v2.92a.5.5 0 0 1-.5.5zm0-5.85a.5.5 0 0 1-.5-.5v-2.93a.5.5 0 0 1 1 0v2.93a.5.5 0 0 1-.5.5zm0-5.85a.5.5 0 0 1-.5-.5v-2.93a.5.5 0 0 1 1 0v2.93a.5.5 0 0 1-.5.5zm0-5.86a.5.5 0 0 1-.5-.5v-2.92a.5.5 0 1 1 1 0v2.92a.5.5 0 0 1-.5.5zm0-5.85a.5.5 0 0 1-.5-.5v-2.93a.5.5 0 1 1 1 0v2.93a.5.5 0 0 1-.5.5zm0-5.86a.5.5 0 0 1-.5-.5v-2.92a.5.5 0 1 1 1 0V244a.5.5 0 0 1-.5.49zm0-5.85a.5.5 0 0 1-.5-.5v-2.93a.5.5 0 0 1 1 0v2.93a.5.5 0 0 1-.5.5zm0-5.85a.5.5 0 0 1-.5-.5v-2.93a.5.5 0 0 1 1 0v2.93a.5.5 0 0 1-.5.5zm0 88.5a.5.5 0 0 1-.5-.5v-2.93a.5.5 0 0 1 1 0v2.93a.5.5 0 0 1-.5.5zm0-5.86a.5.5 0 0 1-.5-.5V312a.5.5 0 0 1 1 0v2.92a.5.5 0 0 1-.5.51zm0-5.85a.5.5 0 0 1-.5-.5v-2.93a.5.5 0 0 1 1 0v2.93a.5.5 0 0 1-.5.5zm0-5.86a.5.5 0 0 1-.5-.5v-2.92a.5.5 0 1 1 1 0v2.92a.5.5 0 0 1-.5.5zm0-5.85a.5.5 0 0 1-.5-.5v-2.93a.5.5 0 0 1 1 0v2.93a.5.5 0 0 1-.5.5zm0-5.85a.5.5 0 0 1-.5-.5v-2.93a.5.5 0 1 1 1 0v2.93a.5.5 0 0 1-.5.48zm0-5.86a.5.5 0 0 1-.5-.5v-2.93a.5.5 0 0 1 1 0v2.93a.5.5 0 0 1-.5.5zm0-5.85a.5.5 0 0 1-.5-.5v-2.93a.5.5 0 0 1 1 0v2.93a.5.5 0 0 1-.5.5zm0-53.38a.5.5 0 0 1-.5-.5v-2.93a.5.5 0 0 1 1 0v2.93a.5.5 0 0 1-.5.5zm0-5.85a.5.5 0 0 1-.5-.5v-2.93a.5.5 0 1 1 1 0v2.93a.5.5 0 0 1-.5.5zm0-5.86a.5.5 0 0 1-.5-.5v-2.92a.5.5 0 1 1 1 0v2.92a.5.5 0 0 1-.5.5zm0-5.85a.5.5 0 0 1-.5-.5v-2.93a.5.5 0 0 1 1 0v2.93a.5.5 0 0 1-.5.5zm0-5.86a.5.5 0 0 1-.5-.5v-2.92a.5.5 0 0 1 1 0V203a.5.5 0 0 1-.5.51zm0-5.85a.5.5 0 0 1-.5-.5v-2.93a.5.5 0 0 1 1 0v2.93a.5.5 0 0 1-.5.5zm0-5.85a.5.5 0 0 1-.5-.5v-2.93a.5.5 0 0 1 1 0v2.93a.5.5 0 0 1-.5.5zm0-5.86a.5.5 0 0 1-.5-.5v-2.93a.5.5 0 1 1 1 0v2.93a.5.5 0 0 1-.5.55zm0-5.85a.5.5 0 0 1-.5-.5v-2.93a.5.5 0 1 1 1 0v2.93a.5.5 0 0 1-.5.5zm0-5.86a.5.5 0 0 1-.5-.5v-2.92a.5.5 0 0 1 1 0v2.92a.5.5 0 0 1-.5.5zm0-5.85a.5.5 0 0 1-.5-.5V165a.5.5 0 0 1 1 0v2.93a.5.5 0 0 1-.5.46zm0-5.85a.5.5 0 0 1-.5-.5v-2.93a.5.5 0 0 1 1 0V162a.5.5 0 0 1-.5.54zM311 149.65a.5.5 0 0 1-.5-.5v-1.5a.5.5 0 0 1 .5-.5.5.5 0 0 1 .5.5v1.5a.51.51 0 0 1-.5.5zM311 266.73a.5.5 0 0 1-.5-.5v-2.93a.5.5 0 0 1 .5-.5.51.51 0 0 1 .5.5v2.93a.5.5 0 0 1-.5.5zm0-5.85a.5.5 0 0 1-.5-.5v-2.93a.5.5 0 0 1 .5-.5.5.5 0 0 1 .5.5v2.93a.51.51 0 0 1-.5.5zm0-5.86a.5.5 0 0 1-.5-.5v-2.93a.5.5 0 0 1 .5-.5.51.51 0 0 1 .5.5v2.93a.5.5 0 0 1-.5.48zm0-5.85a.5.5 0 0 1-.5-.5v-2.93a.5.5 0 0 1 .5-.5.5.5 0 0 1 .5.5v2.93a.51.51 0 0 1-.5.5zm0-5.86a.5.5 0 0 1-.5-.5v-2.92a.5.5 0 0 1 .5-.5.5.5 0 0 1 .5.5v2.92a.5.5 0 0 1-.5.5zm0-5.85a.5.5 0 0 1-.5-.5V234a.5.5 0 0 1 .5-.5.5.5 0 0 1 .5.5v3a.51.51 0 0 1-.5.46zm0 56.7a.5.5 0 0 1-.5-.5v-1.28a.5.5 0 0 1 .5-.5.5.5 0 0 1 .5.5v1.28a.51.51 0 0 1-.5.5zm0-4.21a.5.5 0 0 1-.5-.5v-2.93a.5.5 0 0 1 .5-.5.51.51 0 0 1 .5.5v2.93a.5.5 0 0 1-.5.55zm0-5.85a.5.5 0 0 1-.5-.5v-2.93a.5.5 0 0 1 .5-.5.5.5 0 0 1 .5.5v2.93a.51.51 0 0 1-.5.5zm0-5.86a.5.5 0 0 1-.5-.5v-2.93a.5.5 0 0 1 .5-.5.51.51 0 0 1 .5.5v2.93a.5.5 0 0 1-.5.5zm0-5.85a.5.5 0 0 1-.5-.5V269a.5.5 0 0 1 .5-.5.5.5 0 0 1 .5.5v2.93a.51.51 0 0 1-.5.46zm0-40.79a.5.5 0 0 1-.5-.5v-2.92a.5.5 0 0 1 .5-.5.5.5 0 0 1 .5.5v2.92a.5.5 0 0 1-.5.5zm0-5.85a.5.5 0 0 1-.5-.5v-2.93a.5.5 0 0 1 .5-.5.51.51 0 0 1 .5.5v2.93a.5.5 0 0 1-.5.5zm0-5.85a.5.5 0 0 1-.5-.5v-2.93a.5.5 0 0 1 .5-.5.5.5 0 0 1 .5.5v2.93a.51.51 0 0 1-.5.5zm0-5.86a.5.5 0 0 1-.5-.5v-2.93a.5.5 0 0 1 .5-.5.51.51 0 0 1 .5.5v2.93a.5.5 0 0 1-.5.46zm0-5.85a.5.5 0 0 1-.5-.5v-2.93a.5.5 0 0 1 .5-.5.5.5 0 0 1 .5.5v2.93a.51.51 0 0 1-.5.5zm0-5.86a.5.5 0 0 1-.5-.5v-2.92a.5.5 0 0 1 .5-.5.5.5 0 0 1 .5.5v2.92a.5.5 0 0 1-.5.5zm0-5.85a.5.5 0 0 1-.5-.5v-2.93a.5.5 0 0 1 .5-.5.51.51 0 0 1 .5.5V196a.51.51 0 0 1-.5.48zm0-5.86a.5.5 0 0 1-.5-.5v-2.92a.5.5 0 0 1 .5-.5.5.5 0 0 1 .5.5v2.92a.5.5 0 0 1-.5.5zm0-5.85a.5.5 0 0 1-.5-.5v-2.93a.5.5 0 0 1 .5-.5.51.51 0 0 1 .5.5v2.93a.5.5 0 0 1-.5.5zm0-5.85a.5.5 0 0 1-.5-.5v-2.93a.5.5 0 0 1 .5-.5.5.5 0 0 1 .5.5v2.93a.51.51 0 0 1-.5.5zm0-5.86a.5.5 0 0 1-.5-.5v-2.93a.5.5 0 0 1 .5-.5.51.51 0 0 1 .5.5v2.93a.5.5 0 0 1-.5.5zm0-5.85a.5.5 0 0 1-.5-.5v-2.93a.5.5 0 0 1 .5-.5.5.5 0 0 1 .5.5v2.93a.51.51 0 0 1-.5.5zm0-5.86a.5.5 0 0 1-.5-.5v-2.92a.5.5 0 0 1 .5-.5.5.5 0 0 1 .5.5v2.92a.5.5 0 0 1-.5.5zm0-5.85a.5.5 0 0 1-.5-.5v-2.93a.5.5 0 0 1 .5-.5.51.51 0 0 1 .5.5V155a.5.5 0 0 1-.5.5zM298.39 147.51a.5.5 0 0 1-.5-.5v-1.5a.51.51 0 0 1 .5-.5.5.5 0 0 1 .5.5V147a.5.5 0 0 1-.5.51zM298.39 233.78a.5.5 0 0 1-.5-.5v-1a.5.5 0 0 1 .5-.5.5.5 0 0 1 .5.5v1a.5.5 0 0 1-.5.5zm0-3.9a.51.51 0 0 1-.5-.5v-2.94a.5.5 0 0 1 .5-.5.5.5 0 0 1 .5.5v2.94a.5.5 0 0 1-.5.5zm0-5.89a.5.5 0 0 1-.5-.5v-2.94a.51.51 0 0 1 .5-.5.5.5 0 0 1 .5.5v2.94a.5.5 0 0 1-.5.51zm0-5.88a.5.5 0 0 1-.5-.5v-2.94a.5.5 0 0 1 .5-.5.5.5 0 0 1 .5.5v2.94a.5.5 0 0 1-.5.5zm0-5.88a.51.51 0 0 1-.5-.5v-2.94a.5.5 0 0 1 .5-.5.5.5 0 0 1 .5.5v2.94a.5.5 0 0 1-.5.5zm0-5.89a.5.5 0 0 1-.5-.5v-2.94a.51.51 0 0 1 .5-.5.5.5 0 0 1 .5.5v2.94a.5.5 0 0 1-.5.5zm0-5.88a.5.5 0 0 1-.5-.5V197a.5.5 0 0 1 .5-.5.5.5 0 0 1 .5.5v3a.5.5 0 0 1-.5.46zm0-5.88a.51.51 0 0 1-.5-.5v-2.94a.5.5 0 0 1 .5-.5.5.5 0 0 1 .5.5v2.94a.5.5 0 0 1-.5.5zm0-5.89a.5.5 0 0 1-.5-.5v-2.94a.51.51 0 0 1 .5-.5.5.5 0 0 1 .5.5v2.94a.5.5 0 0 1-.5.5zm0-5.88a.5.5 0 0 1-.5-.5v-2.94a.5.5 0 0 1 .5-.5.5.5 0 0 1 .5.5v2.94a.5.5 0 0 1-.5.5zm0-5.88a.5.5 0 0 1-.5-.5v-2.94a.5.5 0 0 1 .5-.5.5.5 0 0 1 .5.5v2.94a.5.5 0 0 1-.5.5zm0-5.88a.51.51 0 0 1-.5-.5v-3a.51.51 0 0 1 .5-.5.5.5 0 0 1 .5.5v3a.5.5 0 0 1-.5.5zm0-5.89a.5.5 0 0 1-.5-.5v-2.94a.5.5 0 0 1 .5-.5.5.5 0 0 1 .5.5v2.94a.5.5 0 0 1-.5.5zm0-5.88a.5.5 0 0 1-.5-.5v-2.94a.5.5 0 0 1 .5-.5.5.5 0 0 1 .5.5v2.94a.5.5 0 0 1-.5.5zm0-5.88a.51.51 0 0 1-.5-.5v-3a.51.51 0 0 1 .5-.5.5.5 0 0 1 .5.5v3a.5.5 0 0 1-.5.5zM285.83 166.67a.5.5 0 0 1-.5-.5v-1.5a.5.5 0 0 1 1 0v1.5a.5.5 0 0 1-.5.5zM285.83 219.71a.5.5 0 0 1-.5-.5v-1.27a.5.5 0 0 1 1 0v1.27a.5.5 0 0 1-.5.5zm0-4.32a.5.5 0 0 1-.5-.5v-3a.5.5 0 1 1 1 0v3a.5.5 0 0 1-.5.5zm0-6.09a.5.5 0 0 1-.5-.5v-3.05a.5.5 0 0 1 1 0v3.05a.5.5 0 0 1-.5.5zm0-6.09a.5.5 0 0 1-.5-.5v-3.05a.5.5 0 0 1 1 0v3.05a.5.5 0 0 1-.5.5zm0-6.09a.5.5 0 0 1-.5-.5v-3.05a.5.5 0 0 1 1 0v3.05a.5.5 0 0 1-.5.5zm0-6.09a.5.5 0 0 1-.5-.5v-3.05a.5.5 0 1 1 1 0v3.05a.5.5 0 0 1-.5.47zm0-6.09a.5.5 0 0 1-.5-.5v-3.05a.5.5 0 0 1 1 0v3.05a.5.5 0 0 1-.5.5zm0-6.09a.5.5 0 0 1-.5-.5v-3a.5.5 0 0 1 1 0v3a.5.5 0 0 1-.5.5zm0-6.09a.5.5 0 0 1-.5-.5v-3a.5.5 0 1 1 1 0v3a.5.5 0 0 1-.5.5zM273.27 159.85a.5.5 0 0 1-.5-.5v-1.5a.5.5 0 0 1 .5-.5.5.5 0 0 1 .5.5v1.5a.51.51 0 0 1-.5.5zM273.27 210a.5.5 0 0 1-.5-.5v-3.13a.5.5 0 0 1 .5-.5.51.51 0 0 1 .5.5v3.13a.5.5 0 0 1-.5.5zm0-6.26a.5.5 0 0 1-.5-.5v-3.13a.5.5 0 0 1 .5-.5.5.5 0 0 1 .5.5v3.13a.5.5 0 0 1-.5.45zm0-6.26a.5.5 0 0 1-.5-.5v-3.18a.5.5 0 0 1 .5-.5.5.5 0 0 1 .5.5v3.13a.51.51 0 0 1-.5.5zm0-6.27a.5.5 0 0 1-.5-.5v-3.13a.5.5 0 0 1 .5-.5.51.51 0 0 1 .5.5v3.13a.5.5 0 0 1-.5.45zm0-6.26a.5.5 0 0 1-.5-.5v-3.13a.5.5 0 0 1 .5-.5.5.5 0 0 1 .5.5v3.13a.5.5 0 0 1-.5.45zm0-6.26a.5.5 0 0 1-.5-.5V175a.5.5 0 0 1 .5-.5.5.5 0 0 1 .5.5v3.13a.51.51 0 0 1-.5.51zm0-6.27a.5.5 0 0 1-.5-.5v-3.13a.5.5 0 0 1 .5-.5.51.51 0 0 1 .5.5v3.13a.5.5 0 0 1-.5.45zm0-6.26a.5.5 0 0 1-.5-.5v-3.13a.5.5 0 0 1 .5-.5.5.5 0 0 1 .5.5v3.13a.5.5 0 0 1-.5.45zM260.7 152.38a.51.51 0 0 1-.5-.5v-1.5a.5.5 0 0 1 .5-.5.5.5 0 0 1 .5.5v1.5a.5.5 0 0 1-.5.5zM260.7 176.38a.5.5 0 0 1-.5-.5v-3a.5.5 0 0 1 .5-.5.5.5 0 0 1 .5.5v3a.5.5 0 0 1-.5.5zm0-6a.5.5 0 0 1-.5-.5v-3a.5.5 0 0 1 .5-.5.5.5 0 0 1 .5.5v3a.5.5 0 0 1-.5.5zm0-6a.5.5 0 0 1-.5-.5v-3a.5.5 0 0 1 .5-.5.5.5 0 0 1 .5.5v3a.5.5 0 0 1-.5.5zm0-6a.5.5 0 0 1-.5-.5v-3a.5.5 0 0 1 .5-.5.5.5 0 0 1 .5.5v3a.5.5 0 0 1-.5.5zM260.7 200.1a.5.5 0 0 1-.5-.5v-3a.5.5 0 0 1 .5-.5.5.5 0 0 1 .5.5v3a.5.5 0 0 1-.5.5zm0 6.05a.5.5 0 0 1-.5-.5v-3a.51.51 0 0 1 .5-.5.5.5 0 0 1 .5.5v3a.5.5 0 0 1-.5.5zm0-12.05a.51.51 0 0 1-.5-.5v-3a.5.5 0 0 1 .5-.5.5.5 0 0 1 .5.5v3a.5.5 0 0 1-.5.5zm0-6a.51.51 0 0 1-.5-.5v-3a.5.5 0 0 1 .5-.5.5.5 0 0 1 .5.5v3a.5.5 0 0 1-.5.5zm0-6a.51.51 0 0 1-.5-.5v-3a.5.5 0 0 1 .5-.5.5.5 0 0 1 .5.5v3a.5.5 0 0 1-.5.5zM235.58 130.46a.5.5 0 0 1-.5-.5v-1.5a.5.5 0 0 1 .5-.5.5.5 0 0 1 .5.5V130a.51.51 0 0 1-.5.46zM235.58 163.9a.5.5 0 0 1-.5-.5v-2.78a.5.5 0 0 1 .5-.5.5.5 0 0 1 .5.5v2.78a.5.5 0 0 1-.5.5zm0-5.57a.5.5 0 0 1-.5-.5V155a.5.5 0 0 1 .5-.5.51.51 0 0 1 .5.5v2.79a.5.5 0 0 1-.5.54zm0-5.57a.5.5 0 0 1-.5-.5v-2.79a.5.5 0 0 1 .5-.5.5.5 0 0 1 .5.5v2.79a.51.51 0 0 1-.5.5zm0-5.58a.5.5 0 0 1-.5-.5v-2.79a.5.5 0 0 1 .5-.5.51.51 0 0 1 .5.5v2.79a.5.5 0 0 1-.5.5zm0-5.57a.5.5 0 0 1-.5-.5v-2.79a.5.5 0 0 1 .5-.5.5.5 0 0 1 .5.5v2.79a.51.51 0 0 1-.5.5zm0-5.58a.5.5 0 0 1-.5-.5v-2.79a.5.5 0 0 1 .5-.5.51.51 0 0 1 .5.5v2.79a.5.5 0 0 1-.5.47zM235.58 197.22a.5.5 0 0 1-.5-.5v-2.78a.5.5 0 0 1 .5-.5.5.5 0 0 1 .5.5v2.78a.5.5 0 0 1-.5.5zm0-5.57a.5.5 0 0 1-.5-.5v-2.79a.5.5 0 0 1 .5-.5.5.5 0 0 1 .5.5v2.79a.51.51 0 0 1-.5.5zm0-5.58a.5.5 0 0 1-.5-.5v-2.78a.5.5 0 0 1 .5-.5.5.5 0 0 1 .5.5v2.78a.5.5 0 0 1-.5.5zm0-5.57a.5.5 0 0 1-.5-.5v-2.79a.5.5 0 0 1 .5-.5.51.51 0 0 1 .5.5V180a.51.51 0 0 1-.5.5zm0 31.84a.5.5 0 0 1-.5-.5v-1.17a.5.5 0 0 1 .5-.5.51.51 0 0 1 .5.5v1.17a.51.51 0 0 1-.5.5zm0-4a.5.5 0 0 1-.5-.5v-2.74a.5.5 0 0 1 .5-.5.5.5 0 0 1 .5.5v2.79a.51.51 0 0 1-.5.5zm0-5.58a.5.5 0 0 1-.5-.5v-2.79a.5.5 0 0 1 .5-.5.51.51 0 0 1 .5.5v2.79a.5.5 0 0 1-.5.55zm0-27.89a.5.5 0 0 1-.5-.5v-2.78a.5.5 0 0 1 .5-.5.5.5 0 0 1 .5.5v2.78a.5.5 0 0 1-.5.55zm0-5.57a.5.5 0 0 1-.5-.5v-2.79a.5.5 0 0 1 .5-.5.51.51 0 0 1 .5.5v2.79a.5.5 0 0 1-.5.55zM223 118.5a.5.5 0 0 1-.5-.5v-1.5a.51.51 0 0 1 .5-.5.5.5 0 0 1 .5.5v1.5a.5.5 0 0 1-.5.5zM223 163.86a.51.51 0 0 1-.5-.5v-2.84a.51.51 0 0 1 .5-.5.5.5 0 0 1 .5.5v2.84a.5.5 0 0 1-.5.5zm0-5.67a.51.51 0 0 1-.5-.5v-2.84a.51.51 0 0 1 .5-.5.5.5 0 0 1 .5.5v2.84a.5.5 0 0 1-.5.5zm0-5.67a.5.5 0 0 1-.5-.5v-2.84a.51.51 0 0 1 .5-.5.5.5 0 0 1 .5.5V152a.5.5 0 0 1-.5.52zm0-5.67a.5.5 0 0 1-.5-.5v-2.83a.5.5 0 0 1 .5-.5.5.5 0 0 1 .5.5v2.83a.5.5 0 0 1-.5.5zm0-5.67a.5.5 0 0 1-.5-.5v-2.83a.5.5 0 0 1 .5-.5.5.5 0 0 1 .5.5v2.83a.5.5 0 0 1-.5.5zm0 49.57a.5.5 0 0 1-.5-.5v-1.41a.5.5 0 0 1 .5-.5.5.5 0 0 1 .5.5v1.41a.5.5 0 0 1-.5.5zm0-4.25a.5.5 0 0 1-.5-.5v-2.83a.5.5 0 0 1 .5-.5.5.5 0 0 1 .5.5V186a.5.5 0 0 1-.5.5zm0-5.67a.5.5 0 0 1-.5-.5v-2.83a.5.5 0 0 1 .5-.5.5.5 0 0 1 .5.5v2.83a.5.5 0 0 1-.5.5zm0-5.67a.5.5 0 0 1-.5-.5v-2.83a.5.5 0 0 1 .5-.5.5.5 0 0 1 .5.5v2.83a.5.5 0 0 1-.5.5zm0-5.67a.5.5 0 0 1-.5-.5v-2.83a.5.5 0 0 1 .5-.5.5.5 0 0 1 .5.5V169a.5.5 0 0 1-.5.49zm0-34a.5.5 0 0 1-.5-.5v-2.83a.5.5 0 0 1 .5-.5.5.5 0 0 1 .5.5V135a.5.5 0 0 1-.5.51zm0-5.67a.5.5 0 0 1-.5-.5v-2.83a.5.5 0 0 1 .5-.5.5.5 0 0 1 .5.5v2.83a.5.5 0 0 1-.5.52zm0-5.67a.5.5 0 0 1-.5-.5v-2.83a.5.5 0 0 1 .5-.5.5.5 0 0 1 .5.5v2.83a.5.5 0 0 1-.5.52zM210.45 131.32a.51.51 0 0 1-.5-.5v-1.5a.5.5 0 0 1 .5-.5.5.5 0 0 1 .5.5v1.5a.5.5 0 0 1-.5.5zM210.45 186.19a.51.51 0 0 1-.5-.5v-1.5a.5.5 0 0 1 .5-.5.5.5 0 0 1 .5.5v1.5a.5.5 0 0 1-.5.5zM210.45 169.5a.51.51 0 0 1-.5-.5v-3.19a.51.51 0 0 1 .5-.5.5.5 0 0 1 .5.5V169a.5.5 0 0 1-.5.5zm0-6.37a.5.5 0 0 1-.5-.5v-3.18a.51.51 0 0 1 .5-.5.5.5 0 0 1 .5.5v3.18a.5.5 0 0 1-.5.5zm0-6.36a.5.5 0 0 1-.5-.5v-3.18a.5.5 0 0 1 .5-.5.5.5 0 0 1 .5.5v3.18a.5.5 0 0 1-.5.5zm0-6.36a.51.51 0 0 1-.5-.5v-3.18a.5.5 0 0 1 .5-.5.5.5 0 0 1 .5.5v3.18a.5.5 0 0 1-.5.5zm0-6.37a.5.5 0 0 1-.5-.5v-3.18a.51.51 0 0 1 .5-.5.5.5 0 0 1 .5.5v3.18a.5.5 0 0 1-.5.46zm0-6.36a.5.5 0 0 1-.5-.5V134a.5.5 0 0 1 .5-.5.5.5 0 0 1 .5.5v3.18a.5.5 0 0 1-.5.5zM210.45 174.18a.51.51 0 0 1-.5-.5v-1.5a.5.5 0 0 1 .5-.5.5.5 0 0 1 .5.5v1.5a.5.5 0 0 1-.5.5z" style="fill:#e0e0e0"/><path d="M210.45 182.29a.5.5 0 0 1-.5-.5v-3.18a.5.5 0 0 1 .5-.5.5.5 0 0 1 .5.5v3.18a.5.5 0 0 1-.5.5zm0-6.36a.5.5 0 0 1-.5-.5v-3.18a.5.5 0 0 1 .5-.5.5.5 0 0 1 .5.5v3.18a.5.5 0 0 1-.5.5zM197.89 124.07a.5.5 0 0 1-.5-.5v-1.5a.5.5 0 0 1 .5-.5.5.5 0 0 1 .5.5v1.5a.51.51 0 0 1-.5.5zM197.89 186.78a.5.5 0 0 1-.5-.5v-3.13a.5.5 0 0 1 .5-.5.5.5 0 0 1 .5.5v3.13a.5.5 0 0 1-.5.5zm0-6.27a.5.5 0 0 1-.5-.5v-3.13a.5.5 0 0 1 .5-.5.5.5 0 0 1 .5.5V180a.5.5 0 0 1-.5.51zm0-6.27a.5.5 0 0 1-.5-.5v-3.14a.5.5 0 0 1 .5-.5.51.51 0 0 1 .5.5v3.14a.5.5 0 0 1-.5.5zm0-6.27a.5.5 0 0 1-.5-.5v-3.14a.5.5 0 0 1 .5-.5.51.51 0 0 1 .5.5v3.14a.51.51 0 0 1-.5.53zm0-6.27a.5.5 0 0 1-.5-.5v-3.14a.5.5 0 0 1 .5-.5.5.5 0 0 1 .5.5v3.14a.51.51 0 0 1-.5.5zm0-6.28a.5.5 0 0 1-.5-.5v-3.13a.5.5 0 0 1 .5-.5.5.5 0 0 1 .5.5v3.13a.5.5 0 0 1-.5.5zm0-6.27a.5.5 0 0 1-.5-.5v-3.13a.5.5 0 0 1 .5-.5.5.5 0 0 1 .5.5v3.13a.5.5 0 0 1-.5.5zm0-6.27a.5.5 0 0 1-.5-.5v-3.14a.5.5 0 0 1 .5-.5.51.51 0 0 1 .5.5v3.14a.5.5 0 0 1-.5.5zm0-6.27a.5.5 0 0 1-.5-.5V133a.5.5 0 0 1 .5-.5.51.51 0 0 1 .5.5v3.14a.5.5 0 0 1-.5.47zm0-6.27a.5.5 0 0 1-.5-.5v-3.14a.5.5 0 0 1 .5-.5.5.5 0 0 1 .5.5v3.14a.51.51 0 0 1-.5.5zM197.89 191.42a.5.5 0 0 1-.5-.5v-1.5a.5.5 0 0 1 .5-.5.5.5 0 0 1 .5.5v1.5a.51.51 0 0 1-.5.5zM185.32 116.81a.5.5 0 0 1-.5-.5v-1.5a.51.51 0 0 1 .5-.5.5.5 0 0 1 .5.5v1.5a.5.5 0 0 1-.5.5zM185.32 193.7a.5.5 0 0 1-.5-.5v-2.95a.5.5 0 0 1 .5-.5.5.5 0 0 1 .5.5v2.95a.5.5 0 0 1-.5.5zm0-5.91a.51.51 0 0 1-.5-.5v-3a.5.5 0 0 1 .5-.5.5.5 0 0 1 .5.5v3a.5.5 0 0 1-.5.5zm0-5.92a.5.5 0 0 1-.5-.5v-3a.5.5 0 0 1 .5-.5.5.5 0 0 1 .5.5v3a.5.5 0 0 1-.5.5zm0-5.91a.51.51 0 0 1-.5-.5v-3a.5.5 0 0 1 .5-.5.5.5 0 0 1 .5.5v3a.5.5 0 0 1-.5.54zm0-5.92a.5.5 0 0 1-.5-.5v-2.95a.5.5 0 0 1 .5-.5.5.5 0 0 1 .5.5v2.95a.5.5 0 0 1-.5.46zm0-5.91a.5.5 0 0 1-.5-.5v-3a.51.51 0 0 1 .5-.5.5.5 0 0 1 .5.5v3a.5.5 0 0 1-.5.5zm0-5.92a.5.5 0 0 1-.5-.5v-3a.5.5 0 0 1 .5-.5.5.5 0 0 1 .5.5v3a.5.5 0 0 1-.5.5zm0-5.91a.5.5 0 0 1-.5-.5v-3a.51.51 0 0 1 .5-.5.5.5 0 0 1 .5.5v3a.5.5 0 0 1-.5.5zm0-5.91a.51.51 0 0 1-.5-.5v-3a.5.5 0 0 1 .5-.5.5.5 0 0 1 .5.5v3a.5.5 0 0 1-.5.5zm0-5.92a.5.5 0 0 1-.5-.5v-3a.51.51 0 0 1 .5-.5.5.5 0 0 1 .5.5v3a.5.5 0 0 1-.5.5zm0-5.91a.51.51 0 0 1-.5-.5v-3a.5.5 0 0 1 .5-.5.5.5 0 0 1 .5.5v3a.5.5 0 0 1-.5.5zm0-5.92a.5.5 0 0 1-.5-.5v-3a.51.51 0 0 1 .5-.5.5.5 0 0 1 .5.5v3a.5.5 0 0 1-.5.5zm0-5.91a.51.51 0 0 1-.5-.5v-3a.5.5 0 0 1 .5-.5.5.5 0 0 1 .5.5v3a.5.5 0 0 1-.5.5zM185.32 198.16a.5.5 0 0 1-.5-.5v-1.5a.5.5 0 0 1 .5-.5.5.5 0 0 1 .5.5v1.5a.5.5 0 0 1-.5.5zM248.14 145a.5.5 0 0 1-.5-.5V143a.5.5 0 0 1 1 0v1.5a.5.5 0 0 1-.5.5zM248.14 178.4a.5.5 0 0 1-.5-.5v-2.78a.5.5 0 0 1 1 0v2.78a.5.5 0 0 1-.5.5zm0-5.57a.5.5 0 0 1-.5-.5v-2.79a.5.5 0 1 1 1 0v2.79a.5.5 0 0 1-.5.5zm0-5.58a.5.5 0 0 1-.5-.5V164a.5.5 0 0 1 1 0v2.78a.5.5 0 0 1-.5.47zm0-5.57a.5.5 0 0 1-.5-.5v-2.79a.5.5 0 0 1 1 0v2.79a.5.5 0 0 1-.5.5zm0-5.58a.5.5 0 0 1-.5-.5v-2.78a.5.5 0 0 1 1 0v2.78a.5.5 0 0 1-.5.5zm0-5.57a.5.5 0 0 1-.5-.5v-2.79a.5.5 0 0 1 1 0V150a.5.5 0 0 1-.5.53zM248.14 204.37a.5.5 0 0 1-.5-.5v-1a.5.5 0 0 1 1 0v1a.5.5 0 0 1-.5.5zm0-3.8a.5.5 0 0 1-.5-.5v-2.79a.5.5 0 1 1 1 0v2.79a.5.5 0 0 1-.5.5zm0-5.57a.5.5 0 0 1-.5-.5v-2.79a.5.5 0 0 1 1 0v2.79a.5.5 0 0 1-.5.5zm0-5.58a.5.5 0 0 1-.5-.5v-2.79a.5.5 0 0 1 1 0v2.79a.5.5 0 0 1-.5.5zm0-5.57a.5.5 0 0 1-.5-.5v-2.79a.5.5 0 0 1 1 0v2.79a.5.5 0 0 1-.5.5z" style="fill:#e0e0e0"/></g></g></svg>