<?xml version="1.0" encoding="utf-8"?>
<!-- Uploaded to: SVG Repo, www.svgrepo.com, Generator: SVG Repo Mixer Tools -->
<svg
  width="800px"
  height="800px"
  viewBox="0 0 1024 1024"
  class="icon"
  version="1.1"
  xmlns="http://www.w3.org/2000/svg"
>
  <path
    d="M747.7 961.1H255.5c-52.2 0-94.5-42.3-94.5-94.5V102.3c0-27.3 22.2-49.5 49.5-49.5h582.2c27.3 0 49.5 22.2 49.5 49.5v764.2c0 52.2-42.3 94.6-94.5 94.6z"
    fill="#ecb9d8"
  />
  <path
    d="M747.7 974.1H255.5c-59.3 0-107.5-48.2-107.5-107.5V102.3c0-34.5 28-62.5 62.5-62.5h582.2c34.5 0 62.5 28 62.5 62.5v764.2c0 59.3-48.2 107.6-107.5 107.6zM210.5 65.8c-20.1 0-36.5 16.4-36.5 36.5v764.2c0 45 36.6 81.5 81.5 81.5h492.1c45 0 81.5-36.6 81.5-81.5V102.3c0-20.1-16.4-36.5-36.5-36.5H210.5z"
    fill="#191919"
  />
  <path
    d="M791.4 877.5H211.8c-28.1 0-50.8-22.7-50.8-50.8V103.6c0-28.1 22.7-50.8 50.8-50.8h579.6c28.1 0 50.8 22.7 50.8 50.8v723.1c0 28.1-22.7 50.8-50.8 50.8z"
    fill="white"
  />
  <path
    d="M791.4 890.5H211.8c-35.2 0-63.8-28.6-63.8-63.8V103.6c0-35.2 28.6-63.8 63.8-63.8h579.6c35.2 0 63.8 28.6 63.8 63.8v723.1c0 35.2-28.6 63.8-63.8 63.8zM211.8 65.8c-20.8 0-37.8 17-37.8 37.8v723.1c0 20.8 17 37.8 37.8 37.8h579.6c20.8 0 37.8-17 37.8-37.8V103.6c0-20.8-17-37.8-37.8-37.8H211.8z"
    fill="#0F0F0F"
  />
  <path
    d="M198.2 184.1h-86.4c-9.4 0-17-7.6-17-17s7.6-17 17-17h86.4c9.4 0 17 7.6 17 17s-7.6 17-17 17zM198.2 278.1h-86.4c-9.4 0-17-7.6-17-17s7.6-17 17-17h86.4c9.4 0 17 7.6 17 17s-7.6 17-17 17zM198.2 372h-86.4c-9.4 0-17-7.6-17-17s7.6-17 17-17h86.4c9.4 0 17 7.6 17 17s-7.6 17-17 17zM198.2 466h-86.4c-9.4 0-17-7.6-17-17s7.6-17 17-17h86.4c9.4 0 17 7.6 17 17s-7.6 17-17 17zM198.2 559.9h-86.4c-9.4 0-17-7.6-17-17s7.6-17 17-17h86.4c9.4 0 17 7.6 17 17s-7.6 17-17 17zM198.2 653.8h-86.4c-9.4 0-17-7.6-17-17s7.6-17 17-17h86.4c9.4 0 17 7.6 17 17s-7.6 17-17 17zM198.2 747.8h-86.4c-9.4 0-17-7.6-17-17s7.6-17 17-17h86.4c9.4 0 17 7.6 17 17s-7.6 17-17 17z"
    fill="#0F0F0F"
  />
</svg>
