<svg xmlns="http://www.w3.org/2000/svg" viewBox="0 0 64 80" x="0px" y="0px">
  <path
    fill="#CDEB87"
    d="m42.00006,26c5.28998-.17004,5.28998-7.83002,0-8-5.28998.16998-5.28998,7.82996,0,8Z"
  />
  <path
    fill="#CDEB87"
    d="m22.00006,26c5.28998-.17004,5.28998-7.83002,0-8-5.28998.16998-5.28998,7.82996,0,8Z"
  />
  <path
    fill="#CDEB87"
    d="m32.00006,4c-15.46002,0-28,15.64996-28,31.10999,0,15.46997,12.53998,24.89001,28,24.89001s28-9.42004,28-24.89001c0-15.46002-12.53998-31.10999-28-31.10999Zm16,18c0,3.31-2.69,6-6,6s-6-2.69-6-6c.28003-7.94,11.71997-7.94,12,0Zm-20,0c0,3.31-2.69,6-6,6s-6-2.69-6-6c.28003-7.94,11.71997-7.94,12,0Zm21.08002,18.34998c-4.85004,12.94-29.31,12.92999-34.16003,0-.44-1.23999,1.40002-1.91998,1.88-.70001,4.19,11.20001,26.22003,11.19,30.40002,0,.20001-.51996.76996-.76996,1.28998-.58997.52002.20001.78003.76996.59003,1.28998Z"
  />
</svg>
