<svg xmlns="http://www.w3.org/2000/svg" viewBox="0 0 64 80" x="0px" y="0px">
  <path
    fill="#AEC6CF"
    d="m42.00006,18c-5.28998.16998-5.28998,7.82996,0,8,5.28998-.17004,5.28998-7.83002,0-8Z"
  />
  <path
    fill="#AEC6CF"
    d="m26.00006,22c-.16998-5.29004-7.83002-5.29004-8,0,.16998,5.28998,7.83002,5.28998,8,0Z"
  />
  <path
    fill="#AEC6CF"
    d="m32.00006,4c-15.46002,0-28,15.64996-28,31.10999,0,15.46997,12.53998,24.89001,28,24.89001s28-9.42004,28-24.89001c0-15.46002-12.53998-31.10999-28-31.10999Zm-10,12c3.31,0,6,2.69,6,6s-2.69,6-6,6c-7.94-.28003-7.94-11.72003,0-12Zm22,29h-24c-1.32001-.02002-1.31-1.98004,0-2h24c1.32001.01996,1.31,1.97998,0,2Zm-8-23c0-3.31,2.69-6,6-6s6,2.69,6,6c-.28003,7.94-11.71997,7.94-12,0Z"
  />
</svg>
