<svg xmlns="http://www.w3.org/2000/svg" viewBox="0 0 64 80" x="0px" y="0px">
  <path
    fill="#FFB347"
    d="m42.00006,26c5.28998-.17004,5.28998-7.83002,0-8-5.28998.16998-5.28998,7.82996,0,8Z"
  />
  <path
    fill="#FFB347"
    d="m22.00006,26c5.28998-.17004,5.28998-7.83002,0-8-5.28998.16998-5.28998,7.82996,0,8Z"
  />
  <path
    fill="#FFB347"
    d="m32.00006,4c-15.46002,0-28,15.64996-28,31.10999,0,15.46997,12.53998,24.89001,28,24.89001s28-9.42004,28-24.89001c0-15.46002-12.53998-31.10999-28-31.10999Zm16,18c0,3.31-2.69,6-6,6s-6-2.69-6-6c.28003-7.94,11.71997-7.94,12,0Zm-20,0c0,3.31-2.69,6-6,6s-6-2.69-6-6c.28003-7.94,11.71997-7.94,12,0Zm19.20001,27.34998c-4.19-11.20001-26.22003-11.19-30.40002,0-.48999,1.22003-2.31.54004-1.88-.70001,2.65002-7.10999,10.56-9.64996,17.08002-9.64996s14.42999,2.53998,17.08002,9.64996c.44,1.24005-1.40002,1.92004-1.88.70001Z"
  />
</svg>
