<svg xmlns="http://www.w3.org/2000/svg" viewBox="0 0 64 80" x="0px" y="0px">
  <path
    fill="#77DD77"
    d="m32.00006,4c-15.46002,0-28,15.64996-28,31.10999,0,15.46997,12.53998,24.89001,28,24.89001s28-9.42004,28-24.89001c0-15.46002-12.53998-31.10999-28-31.10999Zm4.22998,20.35999l5-6c.38-.46002,1.16003-.46002,1.54004,0l5,6c.82996,1.01001-.70001,2.28003-1.54004,1.28003l-4.22998-5.08002-4.22998,5.08002c-.85004,1-2.37-.27002-1.54004-1.28003Zm-20,0l5-6c.38-.46002,1.16003-.46002,1.54004,0l5,6c.82996,1.01001-.70001,2.28003-1.54004,1.28003l-4.22998-5.08002-4.22998,5.08002c-.85004,1-2.37-.27002-1.54004-1.28003Zm32.85004,15.98999c-4.85004,12.94-29.31,12.92999-34.16003,0-.19-.52002.07001-1.08997.59003-1.28998.52002-.19,1.08997.07001,1.28998.58997,4.19,11.20001,26.22003,11.19,30.40002,0,.48999-1.21997,2.31-.53998,1.88.70001Z"
  />
</svg>
