<svg xmlns="http://www.w3.org/2000/svg" viewBox="0 0 500 500"><path style="fill:#e0e0e0" d="M0 382.4h500v.25H0zM85.91 392.99h33.74v.25H85.91zM58.55 393.11h20.02v.25H58.55zM208.33 387.75h94.79v.25h-94.79zM137.56 400.08h30.22v.25h-30.22zM335 391.19h78.67v.25H335zM237 337.8H43.91a5.71 5.71 0 0 1-5.7-5.71V60.66a5.71 5.71 0 0 1 5.7-5.66H237a5.71 5.71 0 0 1 5.71 5.71v271.38a5.71 5.71 0 0 1-5.71 5.71zM43.91 55.2a5.46 5.46 0 0 0-5.45 5.46v271.43a5.46 5.46 0 0 0 5.45 5.46H237a5.47 5.47 0 0 0 5.46-5.46V60.66A5.47 5.47 0 0 0 237 55.2zM453.31 337.8h-193.1a5.72 5.72 0 0 1-5.71-5.71V60.66a5.72 5.72 0 0 1 5.71-5.66h193.1a5.71 5.71 0 0 1 5.69 5.66v271.43a5.71 5.71 0 0 1-5.69 5.71zM260.21 55.2a5.47 5.47 0 0 0-5.46 5.46v271.43a5.47 5.47 0 0 0 5.46 5.46h193.1a5.47 5.47 0 0 0 5.46-5.46V60.66a5.47 5.47 0 0 0-5.46-5.46z"/><path style="fill:#e0e0e0" d="M395.74 265.78h25.48V382.4h-25.48z"/><path style="fill:#f0f0f0" d="M416.38 382.4h4.84v-13.77h-9.91l5.07 13.77z"/><path style="fill:#e0e0e0" d="M300.52 265.78H326V382.4h-25.48z"/><path style="fill:#f0f0f0" d="M321.77 265.78h99.45v108.17h-99.45z"/><path transform="rotate(-90 395.295 338.865)" style="fill:#e0e0e0" d="M377.42 316.69h35.76v44.35h-35.76z"/><path transform="rotate(-90 347.7 338.86)" style="fill:#e0e0e0" d="M329.82 316.69h35.76v44.35h-35.76z"/><path d="M352.09 324.84h-8.78a13.86 13.86 0 0 1-10.07-4.34h28.92a13.86 13.86 0 0 1-10.07 4.34zM400.13 324.84h-8.77a13.88 13.88 0 0 1-10.08-4.34h28.93a13.9 13.9 0 0 1-10.08 4.34z" style="fill:#f0f0f0"/><path transform="rotate(-90 395.295 291.805)" style="fill:#e0e0e0" d="M377.42 269.63h35.76v44.35h-35.76z"/><path transform="rotate(-90 347.7 291.81)" style="fill:#e0e0e0" d="M329.82 269.63h35.76v44.35h-35.76z"/><path d="M352.09 277.78h-8.78a13.89 13.89 0 0 1-10.07-4.33h28.92a13.89 13.89 0 0 1-10.07 4.33zM400.13 277.78h-8.77a13.91 13.91 0 0 1-10.08-4.33h28.93a13.93 13.93 0 0 1-10.08 4.33zM326.61 382.4h-4.84v-13.77h9.92l-5.08 13.77z" style="fill:#f0f0f0"/><path d="M346.37 247.51c0 4.46 3.1 7.56-1.36 7.56s-14.78-3.1-14.78-7.56a8.07 8.07 0 0 1 16.14 0z" style="fill:#e0e0e0"/><path d="M360.18 251.36c0 4.45 3.1 7.56-1.36 7.56S344 255.81 344 251.36a8.07 8.07 0 1 1 16.14 0z" style="fill:#e0e0e0"/><path d="M373.41 249c0 4.45 3.1 7.56-1.36 7.56s-14.78-3.11-14.78-7.56a8.07 8.07 0 0 1 16.14 0z" style="fill:#e0e0e0"/><path d="M325.29 250s.66 15.74 25.95 15.74S377.18 250 377.18 250z" style="fill:#e6e6e6"/><path style="fill:#e0e0e0" d="M294.05 73.99h128.23v141.9H294.05zM436 69.61H285.75a1.27 1.27 0 0 0-1.28 1.27 1.28 1.28 0 0 0 1.28 1.28H436a1.27 1.27 0 0 0 1.27-1.28 1.27 1.27 0 0 0-1.27-1.27z"/><path style="fill:#e6e6e6" d="M296.59 73.99h131.13v141.9H296.59z"/><path style="fill:#e0e0e0" d="M294.05 215.89h128.23V226H294.05z"/><path style="fill:#e6e6e6" d="M305.65 215.89h131.13V226H305.65z"/><path transform="rotate(90 362.155 144.935)" style="fill:#f5f5f5" d="M298.82 86.99h126.66v115.89H298.82z"/><path style="fill:#fafafa" d="m330.52 208.27 44.71-126.66h21.1l-44.71 126.66h-21.1zM356.15 208.27l44.71-126.66h8.23l-44.71 126.66h-8.23z"/><path transform="rotate(90 419.62 144.94)" style="fill:#e0e0e0" d="M356.29 144.46h126.66v.97H356.29z"/><path style="fill:#ebebeb" d="M291.19 67.33h13.11v122.22h-13.11z"/><path style="fill:#e0e0e0" d="M299.19 67.33h10.21v122.22h-10.21z"/><path style="fill:#ebebeb" d="M304.3 67.33h13.11v122.22H304.3z"/><path style="fill:#e0e0e0" d="M312.3 67.33h10.21v122.22H312.3z"/><path style="fill:#ebebeb" d="M317.41 67.33h13.11v122.22h-13.11zM407.67 67.33h7.55v122.22h-7.55z"/><path style="fill:#e0e0e0" d="M412.28 67.33h5.89v122.22h-5.89z"/><path style="fill:#ebebeb" d="M415.22 67.33h7.55v122.22h-7.55z"/><path style="fill:#e0e0e0" d="M419.83 67.33h5.89v122.22h-5.89z"/><path style="fill:#ebebeb" d="M422.78 67.33h7.55v122.22h-7.55z"/><path style="fill:#e6e6e6" d="M96.71 105.64h13.66v37.27H96.71z"/><path style="fill:#f0f0f0" d="m78.04 151.44-4.34 11.84h4.34l26.56-11.84H78.04z"/><path style="fill:#e0e0e0" d="M73.7 151.44v11.84l26.57-11.84H73.7z"/><path style="fill:#f0f0f0" d="m182.2 151.44-4.33 11.84h4.33l26.57-11.84H182.2z"/><path style="fill:#e0e0e0" d="M177.87 151.44v11.84l26.56-11.84h-26.56z"/><path transform="rotate(180 68.65 147.495)" style="fill:#e0e0e0" d="M54.2 142.99h28.89V152H54.2z"/><path style="fill:#f0f0f0" d="M83.09 142.99h143.63V152H83.09z"/><path style="fill:#e0e0e0" d="M133.12 142.91H99.87l-4.11-45.17h33.25l4.11 45.17z"/><path style="fill:#f0f0f0" d="M134.84 142.91H101.6l-4.12-45.17h33.25l4.11 45.17z"/><path style="fill:#fafafa" d="m106.14 137.91-3.2-35.17h23.25l3.2 35.17h-23.25z"/><path d="M148.26 128.24s.61 14.67 24.18 14.67 24.18-14.67 24.18-14.67z" style="fill:#e6e6e6"/><path d="M123.76 379.16H87.33a3.85 3.85 0 0 1-2.29-7l.59.8a2.86 2.86 0 0 0 1.7 5.15h36.43a8.43 8.43 0 0 0 8.42-8.42V261.88a9.18 9.18 0 0 1 9.16-9.17h10.9v1h-10.9a8.18 8.18 0 0 0-8.16 8.17v107.86a9.44 9.44 0 0 1-9.42 9.42zM179.84 254.77h65.61V382.4h-65.61z" style="fill:#e0e0e0"/><path style="fill:#ebebeb" d="M242.51 254.77h5.41V382.4h-5.41z"/><path transform="rotate(180 184.365 259.555)" style="fill:#ebebeb" d="M119.14 254.77H249.6v9.57H119.14z"/><path style="fill:#e0e0e0" d="M52.74 254.77h65.61V382.4H52.74z"/><path style="fill:#ebebeb" d="M115.4 254.77h5.41V382.4h-5.41z"/><path style="fill:#e0e0e0" d="M98.03 216.67h61.14l8.86 36.1h-61.14l-8.86-36.1zM106.89 252.77l.25 2h61.14l-.24-2h-61.15z"/><path style="fill:#f0f0f0" d="M99.92 216.67h61.14l8.86 36.1h-61.14l-8.86-36.1z"/><path style="fill:#fafafa" d="m110.07 251.12-8.05-32.8h57.74l8.05 32.8h-57.74z"/><path style="fill:#f0f0f0" d="m124.71 252.77.24 2h67.33l-.25-2h-67.32zM77.07 245.67s-9-15.51 3.49-27.86c0 0 3.25 2.13 3.2 5s-3.48 3.58-2.75 6 4 4.72 1.86 6.69.34 3.72.2 6.14-6 4.03-6 4.03z"/><path d="M77.75 247.09s3.65-17.56-12.09-25.34c0 0-2.42 3.05-1.47 5.74s4.44 2.29 4.49 4.79-2.3 5.73.35 6.93.84 3.64 1.74 5.88 6.98 2 6.98 2z" style="fill:#f0f0f0"/><path d="M64 243.2s.3 11.57 11.77 11.57 11.74-11.57 11.74-11.57z" style="fill:#e0e0e0"/><path d="M225.74 382.4h-2.28l-6.53-32.16-1.14-5.63-7.12-35h-27.29l-14.79 72.79h-2.28l15.07-74.18a1.1 1.1 0 0 1 1.09-.89h29.11a1.1 1.1 0 0 1 1.09.89l6.25 30.78 1.15 5.63z" style="fill:#ebebeb"/><path d="M269.55 382.4h-2.29l-14.79-72.83h-27.28l-7.12 35.06-1.14 5.61-6.53 32.16h-2.28l7.67-37.79 1.13-5.61 6.26-30.78a1.1 1.1 0 0 1 1.09-.89h29.11a1.12 1.12 0 0 1 1.1.89z" style="fill:#ebebeb"/><path d="M202.29 308.45h50.14A17.59 17.59 0 0 0 270 291.22l1.87-76.2a12.82 12.82 0 0 0-12.8-13.02h-31.43a12.82 12.82 0 0 0-12.73 11.36z" style="fill:#e6e6e6"/><path d="M173.7 298.84h53.43a2.5 2.5 0 0 1 2.5 2.5v.24a6.87 6.87 0 0 1-6.87 6.87H173.7v-9.61z" transform="rotate(180 201.665 303.645)" style="fill:#e6e6e6"/><g><ellipse cx="250" cy="416.24" rx="193.89" ry="11.32" style="fill:#f5f5f5"/></g><g><path d="m276.44 170.82.65.55c.24.21.51.41.77.61.52.41 1 .82 1.6 1.21 1.08.79 2.23 1.51 3.38 2.23a50.75 50.75 0 0 0 7.27 3.71 55.45 55.45 0 0 0 7.73 2.64c.66.18 1.34.3 2 .45l1 .22c.21 0 0 0 0 .05a1.1 1.1 0 0 0-.38.17c-.09.09-.09.09-.05.07a3.72 3.72 0 0 0 .46-.95 15.42 15.42 0 0 0 .65-3.55c.12-1.31.16-2.69.15-4.08 0-2.79-.22-5.64-.44-8.5s-.57-5.73-.94-8.61-.78-5.76-1.21-8.6l3.76-.86a159.32 159.32 0 0 1 4 17.36 84.71 84.71 0 0 1 1.09 9 45.23 45.23 0 0 1 .11 4.68 21.81 21.81 0 0 1-.65 5.11 9.89 9.89 0 0 1-1.36 3 6.53 6.53 0 0 1-1.59 1.61 5.83 5.83 0 0 1-2.39 1 6.74 6.74 0 0 1-2.24 0l-1.15-.19c-.77-.13-1.55-.23-2.31-.4a56.37 56.37 0 0 1-9-2.58 57.55 57.55 0 0 1-8.45-4.06c-1.35-.81-2.67-1.66-3.95-2.59-.64-.46-1.27-1-1.9-1.44-.31-.26-.62-.51-.93-.79s-.6-.51-1-.89z" style="fill:#e4897b"/><path d="M265.57 166.27c11-1.49 19.84 7.38 19.84 7.38l-10.06 15.52s-10.78-6.9-12.68-11.6c-1.96-4.89-2.73-10.57 2.9-11.3z" style="fill:#ffc100"/><path d="M265.57 166.27c11-1.49 19.84 7.38 19.84 7.38l-10.06 15.52s-10.78-6.9-12.68-11.6c-1.96-4.89-2.73-10.57 2.9-11.3z" style="fill:#fafafa;opacity:.6000000000000001"/><path d="m299.17 149.79-3.65-7.32 9.57-.08s.19 5.11-2.23 8z" style="fill:#e4897b"/><path style="fill:#e4897b" d="m297.22 134.6 7.12 1.27.75 6.52-9.57.08 1.7-7.87zM226.67 407.87l8.96.86 6.2-21.04-8.96-.87-6.2 21.05zM169.7 376.75l6.64 6.24 14.34-15.76-6.64-6.24-14.34 15.76z"/><path d="m179.41 380-5-9a.73.73 0 0 0-.9-.33l-7.69 2.92a1.48 1.48 0 0 0-.71 2.08c1.79 3.1 2.82 4.51 5 8.46 1.35 2.44 4 8 5.85 11.38s5.28 1.69 4.81.13c-2.14-7-1.73-10.93-1.13-14a2.4 2.4 0 0 0-.23-1.64zM236.68 406h-10.86a.89.89 0 0 0-.85.66l-2.37 8.59a1.36 1.36 0 0 0 1.33 1.72H248.94c4 0 4.8-4 3.16-4.38-7.36-1.62-11.61-3.87-13.88-6a2.26 2.26 0 0 0-1.54-.59z" style="fill:#263238"/><path style="fill:#ce6f64" d="m241.83 387.69-3.2 10.85h-9.22l3.45-11.71 8.97.86zM184.03 361l6.65 6.23-7.4 8.12-6.64-6.23 7.39-8.12z"/><path d="M276.41 160.06c-.07-7.27-6.65-9.81-6.65-9.81s8.23-15.58 4-25.92-18.17-12.16-22.59-7.33c-7.77-.33-10.24 10.83-10.24 10.83s-6.5 1.09-8.25 5.82 3.58 10.06 3.58 10.06-7.42 1-10.15 6.71-1.05 13.29 7.15 19.83c11.92 9.5 33.83-2.42 33.83-2.42s9.4.59 9.32-7.77z" style="fill:#263238"/><path d="M275 167.29s4 1.75-9.36 54.52l-37-3.21c1.92-15 2.75-24.32-1.78-55.88a109 109 0 0 1 15.91-.71 119.11 119.11 0 0 1 16.82 1.45 158.55 158.55 0 0 1 15.41 3.83z" style="fill:#ffc100"/><path d="M275 167.29s4 1.75-9.36 54.52l-37-3.21c1.92-15 2.75-24.32-1.78-55.88a109 109 0 0 1 15.91-.71 119.11 119.11 0 0 1 16.82 1.45 158.55 158.55 0 0 1 15.41 3.83z" style="fill:#fafafa;opacity:.6000000000000001"/><path d="M265.41 164.71c-1.92-.46-4-.9-5.9-1.25a119.11 119.11 0 0 0-16.82-1.46c-1.93-.07-3.86-.07-5.67 0l1.24 2.36c.22.42 5.5 10.27 15.53 15.86l2.76 1.54 2.57-1.83c6.48-4.63 7.44-10.65 6.29-15.22z" style="fill:#fafafa"/><path d="M246 143.21c.59 5.51.79 15.52-3.3 18.8 0 0 4.68 8.89 13.54 13.82 7.84-5.58 3.28-12.37 3.28-12.37-5.91-2-5.37-6.42-4-10.54z" style="fill:#e4897b"/><path d="m249.89 147.17 5.66 5.75a17.5 17.5 0 0 0-.78 2.94c-2.27-.53-5.57-2.9-5.61-5.34a9.84 9.84 0 0 1 .73-3.35z" style="fill:#ce6f64"/><path d="M245.76 130.71c-1.09 9-1.74 12.81 1.93 18.22 5.52 8.12 16.84 7.48 20.59-1 3.38-7.66 4.59-21.12-3.5-26.27a12.39 12.39 0 0 0-19.02 9.05z" style="fill:#e4897b"/><path d="M252.74 119.62c6.95 1.8.08 22.94-11 16.81 0 0 .5-8.93 3.58-12.72a11.5 11.5 0 0 1 7.42-4.09z" style="fill:#263238"/><path d="M252 120.79c3 4.88 25.25 14.13 17.77 3.63S252 120.79 252 120.79z" style="fill:#263238"/><path d="M242.9 138.5a6.68 6.68 0 0 0 1.59 4.82c1.54 1.75 3.57.69 4.21-1.43.57-1.9.46-5.1-1.59-6.08a3 3 0 0 0-4.21 2.69z" style="fill:#e4897b"/><path d="M265.6 221.81s12.53 55.44 4.17 94.52c-5.6 26.18-25.81 79.06-25.81 79.06l-15.8-.4s15.29-55.5 18.46-77.32c5.41-37.34-8.14-98.21-8.14-98.21z" style="fill:#263238"/><path d="m251.15 233-7.9 12.46a381.36 381.36 0 0 1 4.52 44.63c11.11-19.89 5.85-46.56 3.38-57.09z" style="fill:#263238"/><path style="fill:#ffc100" d="m245.26 396.21-19.52-.5 1.13-5.99 21.31 1.01-2.92 5.48z"/><path style="fill:#fafafa;opacity:.6000000000000001" d="m245.26 396.21-19.52-.5 1.13-5.99 21.31 1.01-2.92 5.48z"/><path d="M257.5 221.21s-7.35 58.8-23.29 90.9C221.34 338 187 375 187 375l-8.78-9.05s23.2-40.11 32.77-57.34c23.46-42.23 4.28-74.45 17.58-90z" style="fill:#263238"/><path style="fill:#ffc100" d="m187.88 376.16-11.34-11.05 3.77-5.12 12.35 12.77-4.78 3.4z"/><path style="fill:#fafafa;opacity:.6000000000000001" d="m187.88 376.16-11.34-11.05 3.77-5.12 12.35 12.77-4.78 3.4z"/><path d="m228.19 216.38-1.95 3.17c-.16.25.13.54.55.57l38.85 3.36c.34 0 .63-.11.67-.32l.62-3.28c0-.23-.23-.45-.6-.48l-37.51-3.25a.68.68 0 0 0-.63.23z" style="fill:#ffc100"/><path d="m228.19 216.38-1.95 3.17c-.16.25.13.54.55.57l38.85 3.36c.34 0 .63-.11.67-.32l.62-3.28c0-.23-.23-.45-.6-.48l-37.51-3.25a.68.68 0 0 0-.63.23z" style="opacity:.30000000000000004"/><path d="m232.87 221-1-.09c-.2 0-.34-.13-.32-.26l.85-4.26c0-.13.21-.22.41-.2l1 .09c.2 0 .34.13.32.26l-.84 4.26c-.04.14-.22.2-.42.2zM262.79 223.6l-1-.09c-.2 0-.34-.13-.32-.26l.85-4.27c0-.12.21-.21.41-.19l1 .09c.2 0 .34.13.32.25l-.84 4.27c-.04.13-.21.21-.42.2zM247.83 222.3l-1-.08c-.2 0-.34-.14-.32-.26l.85-4.27c0-.12.21-.21.41-.19l1 .08c.2 0 .34.14.32.26l-.84 4.27c-.04.12-.25.21-.42.19zM258.83 135.68c-.13.72.15 1.38.62 1.47s1-.43 1.1-1.16-.14-1.39-.62-1.47-.93.48-1.1 1.16zM267 137.18c-.13.72.15 1.38.62 1.47s1-.43 1.1-1.16-.14-1.39-.62-1.47-.92.43-1.1 1.16z" style="fill:#263238"/><path d="m267.93 136 1.83-.18s-1.14 1.18-1.83.18z" style="fill:#263238"/><path d="M264.64 138a20 20 0 0 0 1.75 5.11 3.17 3.17 0 0 1-2.68 0z" style="fill:#de5753"/><path d="M260.67 145.51a6.17 6.17 0 0 1-4.58-3.35.18.18 0 0 1 .1-.23.17.17 0 0 1 .23.09 5.88 5.88 0 0 0 4.31 3.13.18.18 0 0 1 0 .36zM256.88 130a.36.36 0 0 1-.22-.65 4.22 4.22 0 0 1 3.81-.77.36.36 0 0 1 .22.46.36.36 0 0 1-.46.22 3.49 3.49 0 0 0-3.13.66.4.4 0 0 1-.22.08zM271.68 134.42a.37.37 0 0 1-.28-.13 3.54 3.54 0 0 0-2.9-1.37.37.37 0 0 1-.4-.32.35.35 0 0 1 .32-.39 4.21 4.21 0 0 1 3.54 1.62.37.37 0 0 1 0 .51.4.4 0 0 1-.28.08z" style="fill:#263238"/><path d="M229.59 176a89.89 89.89 0 0 1-5 8.68c-1.8 2.76-3.7 5.46-5.75 8.06a86.54 86.54 0 0 1-6.65 7.45c-1.22 1.15-2.41 2.32-3.72 3.4l-1 .82-.24.2-.32.25a7.37 7.37 0 0 1-.66.48 12.29 12.29 0 0 1-2.94 1.48 15 15 0 0 1-6.09.67 23.64 23.64 0 0 1-5.4-1.19 42 42 0 0 1-9.19-4.53 84.71 84.71 0 0 1-15.14-12.54l2.66-2.79c2.39 1.92 4.91 3.83 7.49 5.56a76.8 76.8 0 0 0 7.88 4.84 41.6 41.6 0 0 0 8.16 3.41c2.7.75 5.41.88 7.28.1a8 8 0 0 0 2.77-2c1.11-1 2.14-2.11 3.19-3.19 2.05-2.23 3.95-4.62 5.82-7s3.56-5 5.2-7.6c.83-1.3 1.62-2.62 2.4-3.94s1.53-2.71 2.18-3.95z" style="fill:#e4897b"/><path d="m172.68 187.63-3.56-7.36-5.92 7.52s3.92 3.27 7.73 3.15zM165.23 178.12l-3.35 6.41 1.32 3.26 5.92-7.52-3.89-2.15z" style="fill:#e4897b"/><path d="M226.78 162.72c-4.54.8-10.91 13.83-10.91 13.83l12.47 11.27s8.08-10.85 7.6-16.77c-.41-5.05-3.38-9.35-9.16-8.33z" style="fill:#ffc100"/><path d="M226.78 162.72c-4.54.8-10.91 13.83-10.91 13.83l12.47 11.27s8.08-10.85 7.6-16.77c-.41-5.05-3.38-9.35-9.16-8.33z" style="fill:#fafafa;opacity:.6000000000000001"/><path d="M181.16 384.83a1 1 0 0 1-.35-.06c-1.09-.36-1.8-2.37-2.13-3.54a.18.18 0 0 1 .06-.19.2.2 0 0 1 .2 0c.33.17 3.23 1.73 3.32 2.87a.67.67 0 0 1-.31.64 1.3 1.3 0 0 1-.79.28zm-2-3.28c.5 1.61 1.15 2.67 1.77 2.88a.85.85 0 0 0 .82-.19.33.33 0 0 0 .16-.32c-.06-.7-1.76-1.81-2.76-2.37z" style="fill:#ffc100"/><path d="M181.61 382a6.5 6.5 0 0 1-2.85-.67.16.16 0 0 1-.09-.15.18.18 0 0 1 .1-.16c.09 0 2.39-1.31 3.63-.87a1.07 1.07 0 0 1 .67.64.72.72 0 0 1-.16.89 2.1 2.1 0 0 1-1.3.32zm-2.36-.82c1 .42 2.89.68 3.43.22.09-.07.17-.2.06-.48a.73.73 0 0 0-.46-.43c-.85-.3-2.38.37-3.03.69zM241.5 407.76a14.7 14.7 0 0 1-3-.38.18.18 0 0 1-.14-.16.17.17 0 0 1 .1-.18c.45-.21 4.38-2 5.38-1.36a.61.61 0 0 1 .26.56 1.35 1.35 0 0 1-.54 1 3.6 3.6 0 0 1-2.06.52zm-2.34-.62c1.17.22 3.33.5 4.22-.17a1 1 0 0 0 .4-.75.26.26 0 0 0-.1-.24c-.56-.38-2.89.44-4.52 1.16z" style="fill:#ffc100"/><path d="M238.58 407.38a.16.16 0 0 1-.12 0 .19.19 0 0 1-.06-.18c0-.16.94-4.05 3.07-3.8.54.06.68.33.71.54.14 1-2.35 3-3.53 3.47zm2.7-3.67c-1.37 0-2.16 2.26-2.43 3.17 1.29-.68 3.06-2.3 3-2.93 0-.05 0-.19-.39-.23z" style="fill:#ffc100"/><path d="m259.72 134.52 1.83-.19s-1.14 1.2-1.83.19z" style="fill:#263238"/><path d="M184.49 77.53 155.18 267l164.92 25.48L349.41 103zm67.76 107.77a38.72 38.72 0 1 1 44.18-32.3 38.72 38.72 0 0 1-44.18 32.3z" style="fill:#ffc100;opacity:.6000000000000001"/><path d="M315.12 285.29h-.25L149.7 259.7v-.25l29.39-189.69h.24L344.5 95.35v.25zm-164.85-26 164.43 25.43 29.23-189L179.5 70.33z" style="fill:#ffc100;opacity:.30000000000000004;mix-blend-mode:multiply"/><path d="M258.19 187.26a40.47 40.47 0 0 1-6.17-.48 40.16 40.16 0 1 1 6.17.48zm-5.71-3.44a37.21 37.21 0 1 0-31.09-42.47 37.26 37.26 0 0 0 31.09 42.47z" style="fill:#fafafa"/><path transform="rotate(8.79 201.687 198.42)" style="fill:#ffc100" d="M183.2 194.18h36.76v8.26H183.2z"/><path transform="rotate(8.79 201.687 198.42)" style="fill:#fafafa;opacity:.6000000000000001" d="M183.2 194.18h36.76v8.26H183.2z"/><path transform="rotate(8.79 236.921 203.892)" style="fill:#ffc100" d="M224.38 199.63h24.87v8.26h-24.87z"/><path transform="rotate(8.79 236.921 203.892)" style="fill:#fafafa;opacity:.6000000000000001" d="M224.38 199.63h24.87v8.26h-24.87z"/><path transform="rotate(8.79 246.648 222.318)" style="fill:#fafafa" d="M180.07 218.07H313v8.26H180.07z"/><path transform="rotate(8.1 212.62 241.292)" style="fill:#fafafa" d="M177.78 230.32h66.1v8.26h-66.1z"/><path transform="rotate(8.79 276.642 244.749)" style="fill:#fafafa" d="M254.41 240.48h44.22v8.26h-44.22z"/><path transform="rotate(8.79 228.09 255.024)" style="fill:#fafafa" d="M174.86 250.75h106.27v8.26H174.86z"/><path d="M351.17 292.48h-1a29.86 29.86 0 0 0-.91-7.36l1-.24a30.78 30.78 0 0 1 .91 7.6zm-3.92-12.92a30.36 30.36 0 0 0-9.67-11.56l.58-.81a31.44 31.44 0 0 1 10 11.92z" style="fill:#ffc100"/><path d="M351.17 292.48h-1a29.86 29.86 0 0 0-.91-7.36l1-.24a30.78 30.78 0 0 1 .91 7.6zm-3.92-12.92a30.36 30.36 0 0 0-9.67-11.56l.58-.81a31.44 31.44 0 0 1 10 11.92z" style="fill:#fafafa;opacity:.6000000000000001"/><path d="M320.1 264.91a27.57 27.57 0 1 0 27.57 27.57 27.57 27.57 0 0 0-27.57-27.57zm0 51.57a24 24 0 1 1 24-24 24 24 0 0 1-24 24z" style="fill:#ffc100"/><path d="M320.1 264.91a27.57 27.57 0 1 0 27.57 27.57 27.57 27.57 0 0 0-27.57-27.57zm0 51.57a24 24 0 1 1 24-24 24 24 0 0 1-24 24z" style="fill:#fafafa;opacity:.6000000000000001"/><circle cx="320.1" cy="292.48" r="23.99" style="fill:#ffc100"/><circle cx="320.1" cy="292.48" r="23.99" style="opacity:.2"/><path style="fill:#fafafa" d="m316.37 307.66-14.08-14.08 3.54-3.53 10.54 10.54 18.01-18.01 3.53 3.54-21.54 21.54z"/></g></svg>