<svg xmlns="http://www.w3.org/2000/svg" viewBox="0 0 750 500"><path d="M39.09 201s-10.76 4.78 2.59 27.54S64 262.4 64 262.4s2.45 5.33-2.09 6.44-14.72.11-16.43 5.84c-1.78 5.94 2.77 11.18 11.63 15.49S85 304.63 86.75 305.55s3.48 3.35.51 4.61-25.54 5-23.13 15.57 29 18.55 31.93 19.47 3.65 2.09 3.51 3.66-7.84 2.1-14.22 3.42-13.53 4-11.64 10 18.11 17.89 55.83 19.35l17.53-.47 8.64-15.34c16.5-34 13.66-53.85 9.26-58.36s-10.11.54-14.27 5.54-8.28 11.54-9.72 10.92-2.12-1.82-1.57-4.81 6.1-30.23-2.12-37.35-22.13 11-24.64 13.06-3.82-.69-3.82-2.61 0-23.54.4-33.38-2.1-16.32-8.18-17.56c-5.86-1.19-9.77 8.27-12.9 11.74s-6.66-1.19-6.66-1.19-5.58-13.16-19.35-35.67-23.26-15-23.26-15" style="fill:#ebebeb"/><path d="M148.22 385.18c-10.05-16.57-27.41-46.32-42.45-71.78s-28.67-48.49-38.63-65.11c-5-8.29-9-15-11.82-19.67l-3.21-5.35c-.35-.6-.63-1.06-.82-1.4s-.27-.48-.27-.48a5 5 0 0 1 .31.46c.21.32.5.78.87 1.37l3.3 5.29c2.86 4.61 7 11.3 12 19.58 10 16.57 23.73 39.58 38.77 65s32.35 55.24 42.31 71.86" style="fill:#e0e0e0"/><path d="M59.7 276.67a5.29 5.29 0 0 1 1.24.27c.79.2 1.92.53 3.31.94 2.79.85 6.62 2.1 10.81 3.57l10.72 3.79 3.22 1.13a5.29 5.29 0 0 1 1.18.46 6.51 6.51 0 0 1-1.25-.26c-.78-.21-1.92-.53-3.31-1-2.78-.86-6.59-2.17-10.78-3.64l-10.74-3.71-3.27-1.11a5.59 5.59 0 0 1-1.13-.44zM91.35 285.64c-.15-.05 2.1-8 5-17.86s5.39-17.75 5.54-17.7-2.11 8-5 17.86-5.4 17.74-5.54 17.7zM112.67 325.78a6.45 6.45 0 0 1 .65-1.13l1.91-2.95c1.6-2.5 3.8-6 6.09-9.87s4.25-7.51 5.65-10.13l1.66-3.11a5.6 5.6 0 0 1 .66-1.11 6.46 6.46 0 0 1-.47 1.21c-.34.76-.85 1.85-1.51 3.18-1.31 2.67-3.22 6.32-5.52 10.23s-4.56 7.36-6.24 9.81c-.85 1.22-1.55 2.2-2 2.86a5.37 5.37 0 0 1-.88 1.01zM82.26 324a4.75 4.75 0 0 1 1.2-.06l3.25.07c2.75.08 6.54.23 10.72.42s8 .4 10.72.58l3.24.24a5.1 5.1 0 0 1 1.19.16 5.23 5.23 0 0 1-1.2.05l-3.25-.06c-2.75-.08-6.54-.23-10.72-.43s-8-.4-10.72-.58l-3.24-.23a5.89 5.89 0 0 1-1.19-.16zM96.59 361.79a8.38 8.38 0 0 1 1.53-.05l4.17.07c3.52.08 8.38.23 13.74.43s10.23.41 13.74.59l4.17.24a7.62 7.62 0 0 1 1.52.17 9.19 9.19 0 0 1-1.53 0l-4.17-.06c-3.52-.09-8.38-.24-13.75-.43s-10.22-.41-13.74-.59l-4.16-.16a7.28 7.28 0 0 1-1.52-.21zM134.54 362.94a10.06 10.06 0 0 1 .78-1.44c.59-1 1.36-2.28 2.28-3.84 1.92-3.24 4.56-7.73 7.33-12.77s5.17-9.65 6.88-13c.82-1.61 1.51-2.95 2-4a10.47 10.47 0 0 1 .8-1.43A9.25 9.25 0 0 1 154 328c-.42 1-1.06 2.35-1.87 4.05-1.63 3.41-4 8.06-6.76 13.11s-5.46 9.51-7.47 12.7c-1 1.59-1.84 2.88-2.43 3.75a10.35 10.35 0 0 1-.93 1.33z" style="fill:#e0e0e0"/><path d="M597 334.79c-24.25-17.21-29.56-48.86-28.39-77.28.19-4.74-.29-9.74 2-13.89s7.57-7 11.8-4.92c3.51 1.68 5 5.79 7 9.19a27.76 27.76 0 0 0 11.05 10.71c3 1.59 6.74 2.57 9.73.95 4.11-2.23 4.63-7.88 4.64-12.6v-26.38c0-4.72 0-9.54 1.53-14s4.77-8.61 9.26-9.83 10 1.4 11 6c.38 1.92 0 3.91.09 5.87s1 4.14 2.87 4.69 3.78-.75 5.2-2.12c4.9-4.73 8.25-10.85 11.38-16.93s6.18-12.31 10.64-17.47 10.59-9.24 17.35-9.57 13.93 3.89 15.59 10.53-2.26 13.39-6.52 18.74a105.49 105.49 0 0 1-22.08 20.75c-1.5 1-3.12 2.17-3.7 3.91-1 3.14 1.91 6.29 5 7.34 3.51 1.2 7.33.86 11 1.32s7.65 2.11 9 5.6c1.9 4.84-2.17 9.86-6.16 13.15a90.42 90.42 0 0 1-26.82 15.22c-3.48 1.24-7.14 2.33-10 4.75s-4.54 6.65-2.87 10 6 4.44 9.64 3.79 6.91-2.6 10.38-3.88c6.5-2.4 14.87-1.9 19 3.74 2.7 3.7 2.9 8.83 1.49 13.21s-4.24 8.15-7.24 11.61C669.4 319.12 656 328.84 641 334s-29 6.42-43.94.84" style="fill:#ebebeb"/><path d="M604.48 317c4.28-14.31 10.28-29.61 17.11-45.4q2.58-5.91 5.09-11.67c1.69-3.83 3.35-7.62 5.21-11.23a211.31 211.31 0 0 1 11.88-20.14c4.09-6.22 8.19-12 12.07-17.33S663.45 201 667 196.67a165.55 165.55 0 0 1 18.41-19.18c2.34-2.09 4.21-3.65 5.49-4.69l1.47-1.17a4 4 0 0 1 .51-.38 3.38 3.38 0 0 1-.46.45c-.35.3-.82.71-1.41 1.24-1.24 1.08-3.08 2.68-5.38 4.8a177.37 177.37 0 0 0-18.16 19.32c-3.54 4.35-7.23 9.28-11.09 14.63s-7.93 11.13-12 17.35a214.91 214.91 0 0 0-11.78 20.08c-1.85 3.6-3.5 7.36-5.18 11.2L622.38 272c-6.82 15.78-12.82 31-17.14 45.28" style="fill:#e0e0e0"/><path d="M632.14 248.7a9.89 9.89 0 0 1-.45-2c-.23-1.3-.52-3.2-.83-5.56-.63-4.7-1.29-11.22-2-18.42s-1.44-13.69-2.14-18.37c-.35-2.35-.64-4.24-.87-5.54a10.89 10.89 0 0 1-.25-2 8.52 8.52 0 0 1 .58 2c.33 1.29.72 3.17 1.14 5.5.87 4.67 1.71 11.19 2.4 18.39s1.27 13.53 1.73 18.44q.33 3.33.56 5.58a9.24 9.24 0 0 1 .13 1.98zM692.89 237.8a13.69 13.69 0 0 1-2.43.27c-1.55.13-3.81.3-6.59.6-5.56.56-13.21 1.6-21.61 3.12s-15.93 3.25-21.34 4.64c-2.72.68-4.9 1.29-6.41 1.7a14.08 14.08 0 0 1-2.37.57 12.8 12.8 0 0 1 2.27-.89c1.49-.52 3.65-1.22 6.35-2 5.39-1.55 12.93-3.36 21.35-4.9a211.68 211.68 0 0 1 21.71-2.88c2.79-.22 5.06-.3 6.63-.32a11.41 11.41 0 0 1 2.44.09zM605.23 315.92a3.16 3.16 0 0 1-.41-.74l-1-2.21c-.88-1.91-2.08-4.72-3.51-8.21-2.88-7-6.55-16.72-10.46-27.54s-7.48-20.59-10.21-27.61c-1.33-3.42-2.43-6.22-3.25-8.31-.35-.91-.64-1.65-.87-2.27a3.07 3.07 0 0 1-.25-.81 4.44 4.44 0 0 1 .41.74c.27.6.61 1.33 1 2.21.88 1.91 2.08 4.72 3.51 8.2 2.88 7 6.55 16.73 10.46 27.55s7.48 20.59 10.2 27.61l3.26 8.31c.35.9.64 1.65.87 2.26a3.18 3.18 0 0 1 .25.82z" style="fill:#e0e0e0"/><path d="M686 290.52a3.11 3.11 0 0 1-.8.32l-2.35.77-8.65 2.73c-7.31 2.32-17.36 5.62-28.46 9.29s-21.21 6.9-28.56 9.06c-3.68 1.08-6.66 1.92-8.74 2.46l-2.39.61a3.34 3.34 0 0 1-.85.16 3.31 3.31 0 0 1 .8-.33l2.35-.76 8.65-2.74c7.31-2.31 17.36-5.62 28.47-9.29s21.2-6.89 28.55-9.05c3.68-1.08 6.66-1.93 8.74-2.47l2.39-.61a3 3 0 0 1 .85-.15z" style="fill:#e0e0e0"/><path d="M341.81 95.2a18.65 18.65 0 0 0-6.9-8.79 17.81 17.81 0 0 0-10.36-3.52 14.41 14.41 0 0 0-13.84 10.76 14.42 14.42 0 0 0-5.22-3.58 14.65 14.65 0 0 0-11.49.34 17.89 17.89 0 0 0-7.81 7.66 18.57 18.57 0 0 0-2.41 10.93 22.67 22.67 0 0 0 5.83 13c3.47 3.61 8.3 6.06 13.05 7.63 8 2.64 18.46 5.84 18.46 5.84s6.5-7.64 12.56-13.47c3.61-3.47 6.91-7.77 8.47-12.53a22.66 22.66 0 0 0-.34-14.27z" style="fill:#ebebeb"/><path d="M362.13 56.34a9.35 9.35 0 0 0-.19-5.61 9 9 0 0 0-3.16-4.5 7.25 7.25 0 0 0-8.81.27 7.27 7.27 0 0 0-5.82-6.27 9 9 0 0 0-5.44.8 9.34 9.34 0 0 0-4.22 3.71 11.42 11.42 0 0 0-1.47 7 16.13 16.13 0 0 0 3 7c2.46 3.44 5.76 7.83 5.76 7.83s4.9-1.17 9.09-1.74a16.07 16.07 0 0 0 7.15-2.58 11.33 11.33 0 0 0 4.11-5.91zM480.29 100.34a6.88 6.88 0 0 0-.47-4.12 6.67 6.67 0 0 0-2.6-3.12 5.42 5.42 0 0 0-4.22-.56 5.51 5.51 0 0 0-2.24 1.28 5.33 5.33 0 0 0-4.65-4.26 6.61 6.61 0 0 0-3.95.91 6.85 6.85 0 0 0-2.88 3 8.43 8.43 0 0 0-.67 5.23 12 12 0 0 0 2.65 4.94c2 2.38 4.7 5.42 4.7 5.42s3.54-1.15 6.58-1.82a11.91 11.91 0 0 0 5.11-2.32 8.4 8.4 0 0 0 2.64-4.58z" style="fill:#f5f5f5"/><path style="fill:#e0e0e0" d="M257.76 58v123.99H97.61L91.84 58.87 257.76 58z"/><path transform="rotate(-90 171.915 120.355)" style="fill:#fff" d="M110.28 40.28h123.28v160.15H110.28z"/><path d="M252.61 182.61H91.23V58.11h161.38zm-160.16-1.23h158.93v-122H92.45z" style="fill:#e0e0e0"/><path style="fill:#fff" d="M109.19 71.39h125.46v94.38H109.19z"/><path d="M234.65 71.39h-9.25l-25.73.08-90.52.14.28-.28v94.37l-.31-.32 125.46.06-.26.26c.05-28.52.1-52.09.13-68.53 0-8.23 0-14.68.07-19.09v-6.74 6.68c0 4.39 0 10.82.06 19 0 16.49.08 40.11.14 68.7v.28h-.26l-125.46.06h-.32V71.1h.29l90.71.14 25.66.08h8.51z" style="fill:#e0e0e0"/><path d="M91.84 58.43a16 16 0 0 1 2.71 1.67c1.62 1.09 3.85 2.64 6.25 4.42s4.54 3.46 6 4.72a14.69 14.69 0 0 1 2.35 2.15 16.81 16.81 0 0 1-2.62-1.8L100.42 65l-6.13-4.57a16.18 16.18 0 0 1-2.45-2zM252 58.72c.11.14-3.69 3.09-8.48 6.59s-8.76 6.22-8.86 6.08 3.69-3.1 8.48-6.6 8.75-6.21 8.86-6.07z" style="fill:#e0e0e0"/><path style="fill:#fff" d="m251.99 181.99-17.98-16.22"/><path d="M234 165.77c.12-.13 4.24 3.39 9.21 7.87s8.89 8.22 8.77 8.35-4.23-3.39-9.2-7.87-8.89-8.22-8.78-8.35zM91.84 182c-.12-.13 3.63-3.7 8.37-8s8.68-7.64 8.8-7.51-3.63 3.7-8.37 8-8.64 7.63-8.8 7.51z" style="fill:#e0e0e0"/><path d="M202.18 117.72a15.14 15.14 0 1 1-11.66-18 15.15 15.15 0 0 1 11.66 18z" style="fill:#f5f5f5"/><path d="M182.45 129c-.16-.07.49-1.63 1.32-4.18a25.09 25.09 0 0 0 1.38-10.18 14.18 14.18 0 0 0-4.42-8.94c-2-1.75-3.67-2.12-3.6-2.32s1.85 0 4.13 1.68a13.92 13.92 0 0 1 5.07 9.45 22.34 22.34 0 0 1-1.78 10.59c-1.05 2.49-1.97 3.9-2.1 3.9z" style="fill:#e0e0e0"/><path d="M202 112.74c-.07.35-4.09-1.11-8.81.3s-7.32 4.76-7.57 4.51c-.11-.08.35-1 1.54-2.26a13.42 13.42 0 0 1 12.32-3.62c1.66.38 2.57.93 2.52 1.07z" style="fill:#e0e0e0"/><path d="M195.16 112c-.19 0-.11-1.06-.65-2.55a6.8 6.8 0 0 0-9.84-3.83c-1.4.72-2 1.55-2.2 1.43s.31-1.13 1.78-2.15a7.14 7.14 0 0 1 11.06 4.32c.39 1.71-.03 2.78-.15 2.78z" style="fill:#e0e0e0"/><path d="M190.33 113.56c-.33-.07-.09-2.14-.69-4.56s-1.72-4.17-1.45-4.39 1.95 1.38 2.59 4.11-.16 4.95-.45 4.84z" style="fill:#e0e0e0"/><path d="M190.2 108.82c0 .35-1.32.42-2.57 1.08s-2.31 1.55-2.56 1.29.42-1.44 2-2.34 3.19-.31 3.13-.03z" style="fill:#e0e0e0"/><path d="M166 115.92a11.49 11.49 0 1 1-16.19 1.4 11.5 11.5 0 0 1 16.19-1.4z" style="fill:#f5f5f5"/><path d="M166.45 133.14a18.93 18.93 0 0 1-2.33-2.38 19.22 19.22 0 0 0-6.33-4.56 10.79 10.79 0 0 0-7.55-.22 19.63 19.63 0 0 0-2.85 1.58 5 5 0 0 1 2.6-2.16 10.51 10.51 0 0 1 8.14 0 16.93 16.93 0 0 1 6.46 5 9.3 9.3 0 0 1 1.86 2.74z" style="fill:#e0e0e0"/><path d="M162.57 114.27c.2.17-2.2 2.34-2.94 6s.57 6.6.32 6.68c-.1 0-.58-.61-1-1.84a10.18 10.18 0 0 1 2-9.54c.85-.98 1.55-1.39 1.62-1.3z" style="fill:#e0e0e0"/><path d="M159.61 118.57c-.08.12-.75-.31-1.94-.47a5.16 5.16 0 0 0-6.07 5.22c0 1.19.31 1.92.17 2s-.64-.61-.8-2a5.4 5.4 0 0 1 6.83-5.87c1.31.39 1.88 1.05 1.81 1.12z" style="fill:#e0e0e0"/><path d="M159 122.37c-.17.2-1.47-.7-3.31-1.16s-3.4-.34-3.45-.59 1.62-.82 3.68-.27 3.21 1.87 3.08 2.02z" style="fill:#e0e0e0"/><path d="M155.73 120.77c.23.14-.19 1-.19 2.11s.21 2.1 0 2.17-.82-.8-.84-2.18.87-2.24 1.03-2.1z" style="fill:#e0e0e0"/><path d="M166.46 112c-4.06-2.65-6.56-7.36-8.17-11.93a22.47 22.47 0 0 1-.19-14.29 18.67 18.67 0 0 1 9.78 10.44c1.69 4.6.69 11.36-1.42 15.78" style="fill:#ebebeb"/><path d="M161.73 93.25a161.38 161.38 0 0 1 4.37 18" style="fill:#fff"/><path d="M166.1 111.3a12.73 12.73 0 0 1-.74-2.63c-.44-1.88-.94-4-1.5-6.38s-1.11-4.5-1.58-6.37a13.48 13.48 0 0 1-.55-2.67 10.24 10.24 0 0 1 1 2.55c.52 1.6 1.16 3.84 1.76 6.34s1.06 4.78 1.33 6.44a11.38 11.38 0 0 1 .28 2.72z" style="fill:#e0e0e0"/><path d="M176.74 132.58c4.74-1 9.84.57 14.21 2.66a22.4 22.4 0 0 1 10.23 10 18.64 18.64 0 0 1-14.29-.47c-4.44-2.05-8.52-7.54-10.15-12.16" style="fill:#ebebeb"/><path d="M193.32 142.48a162 162 0 0 1-15.85-9.68" style="fill:#fff"/><path d="M177.47 132.8a11.5 11.5 0 0 1 2.37 1.34l5.58 3.45L191 141a12.18 12.18 0 0 1 2.28 1.5 11.28 11.28 0 0 1-2.5-1.11c-1.5-.77-3.54-1.89-5.73-3.23s-4.13-2.64-5.5-3.63a11.08 11.08 0 0 1-2.08-1.73z" style="fill:#e0e0e0"/><path d="M172.14 134.84c.87 2.76.24 5.88-.75 8.61a13.42 13.42 0 0 1-5.33 6.67 11.14 11.14 0 0 1-.56-8.53c1-2.77 4-5.51 6.64-6.75" style="fill:#ebebeb"/><path d="M167.23 145.28a95.8 95.8 0 0 1 4.83-10" style="fill:#fff"/><path d="M172.06 135.28c.15.09-.95 2.32-2.28 5.07s-2.39 5-2.55 4.93.64-2.44 2-5.21 2.68-4.87 2.83-4.79zM622.79 71.21v97.01H507.17L503 71.89l119.79-.68z" style="fill:#e0e0e0"/><path transform="rotate(-90 560.815 119.995)" style="fill:#fff" d="M512.59 62.18h96.44v115.63h-96.44z"/><path d="M619.41 169H502.22V71h117.19zm-115.63-1.55h114.07V72.56H503.78z" style="fill:#e0e0e0"/><path style="fill:#fff" d="M515.52 81.69h90.58v73.83h-90.58z"/><path d="M606.1 81.69H599.45l-18.54.1-65.39.18.37-.36v73.82l-.41-.4 90.58.06-.33.34.17-53.51c0-6.43.07-11.49.09-15v-5.38 5.2c0 3.47.05 8.51.09 14.91 0 13 .1 31.44.17 53.72v.34h-.34l-90.58.07-.4-.41V81.18h.36l65.62.18 18.47.09 4.85.05h1.24a1.63 1.63 0 0 1 .63.19z" style="fill:#e0e0e0"/><path d="M503 71.55c.14-.18 3.06 2 6.52 4.76s6.15 5.21 6 5.38-3.06-2-6.52-4.76-6.14-5.2-6-5.38zM618.63 71.78c.14.17-2.55 2.53-6 5.27s-6.38 4.81-6.52 4.64 2.56-2.54 6-5.28 6.38-4.81 6.52-4.63z" style="fill:#e0e0e0"/><path style="fill:#fff" d="m618.63 168.22-12.99-12.7"/><path d="M605.64 155.52c.16-.16 3.19 2.55 6.78 6.06s6.36 6.48 6.21 6.64-3.19-2.56-6.78-6.06-6.36-6.48-6.21-6.64zM503 168.22c-.16-.16 2.49-3 5.91-6.36s6.33-5.93 6.49-5.77-2.5 3-5.92 6.35-6.32 5.94-6.48 5.78z" style="fill:#e0e0e0"/><path d="M544.28 127.47h-8.2a.91.91 0 0 1-.52-.16 1.44 1.44 0 0 1-.46-1q0-.49 2.26-16.78a2.23 2.23 0 0 1 0-.36.89.89 0 0 1 .88-.59 1 1 0 0 1 1 1c-.07.74-.25 2.27-.55 4.6q-1.41 10.76-1.47 11.35h7a1.51 1.51 0 0 1 .53.09 1 1 0 0 1 .57 1.24 1.14 1.14 0 0 1-1.04.61zM546.06 119.73a14.77 14.77 0 0 1 .57-4 12.89 12.89 0 0 1 2.74-5.18 5.42 5.42 0 0 1 4-2.13 4.13 4.13 0 0 1 3.35 1.82 9.2 9.2 0 0 1 1.66 5.12c.27-.1.67-.28 1.19-.53a3.77 3.77 0 0 1 1.5-.49.88.88 0 0 1 .44.12.86.86 0 0 1 .45.78 1.31 1.31 0 0 1-.43.88 6.16 6.16 0 0 1-3.18 1.31 14.86 14.86 0 0 1-.47 2.65 12.53 12.53 0 0 1-2.73 5.3 5.51 5.51 0 0 1-4.09 2.1 3.23 3.23 0 0 1-.53 0 4.38 4.38 0 0 1-3.11-2.23 10.16 10.16 0 0 1-1.36-5.52zm2.08-.35a10.83 10.83 0 0 0 .63 3.87c.57 1.47 1.41 2.21 2.51 2.21a2.05 2.05 0 0 0 .87-.21 6.11 6.11 0 0 0 2.5-2.69 13.12 13.12 0 0 0 1.66-5 6 6 0 0 1-3.31-1 7.24 7.24 0 0 1-2.82-3.92 12.14 12.14 0 0 0-2.04 6.74zm5.62-8.75a1.2 1.2 0 0 0-.57.14 1.62 1.62 0 0 0-.68 1.53 3.44 3.44 0 0 0 0 .43 3.3 3.3 0 0 0 1.68 2.26 4.36 4.36 0 0 0 2.14.72 13 13 0 0 0-.29-2c-.41-1.97-1.18-3-2.28-3.08z" style="fill:#ebebeb"/><path d="M566.19 108.6a1 1 0 0 1 1 1q-.49 4-.77 6.22-.71 5.66-.71 6.42c0 2 .53 3.09 1.58 3.09a6.66 6.66 0 0 0 5.22-2.78 16.38 16.38 0 0 0 3-6 5.89 5.89 0 0 1-3.56-1.17 4.21 4.21 0 0 1-1.56-3.48 3.37 3.37 0 0 1 1.21-2.58 3.58 3.58 0 0 1 2.36-.9 3.84 3.84 0 0 1 2.82 1.1 4.48 4.48 0 0 1 1.28 3.36c0 .32 0 .84-.08 1.55a5.34 5.34 0 0 0 .53-.16 8.24 8.24 0 0 0 1.64-.84 2.32 2.32 0 0 1 1.14-.44.79.79 0 0 1 .38.11.85.85 0 0 1 .45.79c0 .51-.41 1-1.2 1.46a9 9 0 0 1-3.39 1.1 19.56 19.56 0 0 1-3.38 7.14q-3 3.94-7.22 4a3 3 0 0 1-1.07-.19c-1.4-.53-2.1-2.18-2.1-4.93a39.17 39.17 0 0 1 .55-5.79c.37-2.4.6-4.06.66-5l-1.91 1.2a5.28 5.28 0 0 1-1.41.77 1 1 0 0 1-1-1 1.12 1.12 0 0 1 .59-.93l.09-.06a33 33 0 0 1 4.86-3.06zm6.12 3.58a2.16 2.16 0 0 0 .27 1.08q.76 1.35 3.33 1.35a10.17 10.17 0 0 0 .2-1.84 3.19 3.19 0 0 0-.16-1 1.68 1.68 0 0 0-1.7-1.29 2.24 2.24 0 0 0-1.11.29 1.61 1.61 0 0 0-.83 1.41z" style="fill:#ebebeb"/><path d="M582.6 108.56h7.83a1.63 1.63 0 0 1 .45.06.9.9 0 0 1 .67.94.78.78 0 0 1-.09.37 1.16 1.16 0 0 1-1 .64h-7l-.88 6.65h5.06a1.46 1.46 0 0 1 .55.11.94.94 0 0 1 .6.92 1 1 0 0 1-.06.33 1.18 1.18 0 0 1-1 .65h-5.39l-.8 6.23h6.94a1.49 1.49 0 0 1 .52.08.94.94 0 0 1 .64.93 1 1 0 0 1 0 .3 1.11 1.11 0 0 1-1 .7h-8.12a1 1 0 0 1-.55-.16 1.15 1.15 0 0 1-.48-1q0-.17 2.17-16.8a1.22 1.22 0 0 1 .1-.34.91.91 0 0 1 .84-.61z" style="fill:#ebebeb"/><g><path d="m379.62 307-6.05-17.81-20.29-16.67-42.94-17.08-65-3.79-29.16 134.66s-12.41 67.14-13.59 77.19c-.16 1.32 153.78 1.15 153.78 1.15L340 425.21l31.28-76.62zM205.63 267.21c-8.94 11-70.34 77.18-72.23 81.16s-16 28.73-7.19 40.22l10.61 15L162 370c-.32 1.28 70.12-57.33 70.12-57.33l13.23-61.08s-28.99 2.41-39.72 15.62zm-43.5 102.38c0-.14.05-.2 0 0z" style="fill:#ff725e"/><path d="M289.91 395.36s-.13-.12-.32-.38l-.84-1.13c-.35-.5-.79-1.11-1.34-1.78s-1.12-1.48-1.85-2.29-1.48-1.75-2.37-2.68-1.84-1.9-2.87-2.91a73.57 73.57 0 0 0-7.22-6 72.48 72.48 0 0 0-8-4.93c-1.29-.65-2.5-1.29-3.68-1.8s-2.27-1-3.29-1.39-2-.72-2.76-1-1.53-.53-2.12-.7l-1.34-.43a2.06 2.06 0 0 1-.46-.19 2.81 2.81 0 0 1 .49.09l1.37.34c.6.14 1.32.34 2.15.61s1.78.55 2.8 1 2.16.8 3.33 1.34 2.43 1.12 3.73 1.76a63.89 63.89 0 0 1 15.3 11c1 1 2 2 2.86 3s1.65 1.88 2.34 2.73 1.27 1.66 1.79 2.35.95 1.32 1.28 1.84l.75 1.19a2.24 2.24 0 0 1 .27.36zM422.71 196.21c5.39-3.78 7-11.6 4.64-17.77s-7.78-10.74-13.79-13.44-12.61-3.75-19.11-4.79a21 21 0 0 0-36.26-9.75 13.36 13.36 0 0 0-22.85 6l19 24.78-4 65c3.49 11.87 16.5 20.1 28.72 18.17s22.06-13.76 21.73-26.12a22 22 0 0 0 6.84-2.22 22.58 22.58 0 0 0 16.35-6c9.17-8.83 8.53-25.69-1.27-33.86z" style="fill:#263238"/><path d="M341.84 284.4c3.5-8.72 5.89-14.7 5.87-14.64s18.25 3.83 30.51-17.15c6.1-10.43 12.65-28.89 17.52-44.16 4.38-13.74 1.91-33.67-12-37.47l-45.86-5.71c-4.23-1.15-7 1.73-8.49 5.84l-1.09 1.78-23 64.81-10.61 28.75a25.23 25.23 0 0 0 13.12 31.43 25.25 25.25 0 0 0 34.03-13.48z" style="fill:#ffbe9d"/><path d="M381 220.7a3.08 3.08 0 0 1-3.89 1.81 2.94 2.94 0 0 1-1.95-3.74A3.09 3.09 0 0 1 379 217a3 3 0 0 1 2 3.7zM387.72 217c-.5.23-2.05-2.22-5.14-3.42s-5.95-.53-6.14-1c-.1-.23.53-.76 1.79-1.1a8.5 8.5 0 0 1 5.1.38 8 8 0 0 1 3.91 3.18c.66 1.02.76 1.82.48 1.96zM350.22 210a3.07 3.07 0 0 1-3.89 1.82 3 3 0 0 1-1.95-3.74 3.08 3.08 0 0 1 3.89-1.82 2.94 2.94 0 0 1 1.95 3.74zM357.27 206.26c-.51.23-2-2.22-5.14-3.42s-5.95-.53-6.14-1c-.1-.23.52-.76 1.79-1.1a8.57 8.57 0 0 1 5.1.37 8.08 8.08 0 0 1 3.9 3.19c.67 1.06.73 1.86.49 1.96zM359.8 232.41c.06-.18 2.11.23 5.37 1 .82.23 1.63.36 2-.12a4.26 4.26 0 0 0 .38-2.54v-6.91c.1-9.81.49-17.75.88-17.74s.64 8 .55 17.77q-.06 3.61-.12 6.9a4.92 4.92 0 0 1-.79 3.26 2.12 2.12 0 0 1-1.75.64 5.52 5.52 0 0 1-1.41-.33c-3.22-1.01-5.16-1.75-5.11-1.93z" style="fill:#263238"/><path d="M347.71 269.76a61 61 0 0 1-26.84-19.66s1.4 18.73 24.6 25.36z" style="fill:#eb996e"/><path d="M361.28 196.7c-.66.69-3.51-1-7.26-2.18s-7-1.45-7.19-2.4c-.05-.44.79-1 2.3-1.28a12.67 12.67 0 0 1 5.91.47 12.54 12.54 0 0 1 5.1 3c1.07 1.12 1.44 2.05 1.14 2.39zM390.29 208.86c-.92.45-3.15-1.26-6.16-2.47s-5.77-1.71-6.07-2.67c-.12-.46.55-1 1.93-1.23a10.53 10.53 0 0 1 5.48.81 10.25 10.25 0 0 1 4.38 3.33c.79 1.14.86 1.99.44 2.23z" style="fill:#263238"/><path d="M355 157.77a16.43 16.43 0 0 0 12.12 22.17c3.66.72 8.07.46 10.32 3.44 2.35 3.13.64 7.87 2.46 11.34 2.6 5 10.12 4.21 14.54 7.66 3.41 2.66 4.38 7.3 5.73 11.41s4 8.57 8.34 8.94a48.5 48.5 0 0 0 2.49-10.91 16.39 16.39 0 0 0-2.56-10.69c-1.19-1.67-2.8-3-3.81-4.81-2.19-3.84-1.17-8.64-1.73-13a18 18 0 0 0-9.44-13.47c-4.22-2.18-9.27-2.63-13.13-5.39-2.85-2.05-4.81-5.19-7.78-7.05-5.79-3.64-13.36-1.44-19.64 1.25" style="fill:#263238"/><path d="M371.47 174.51c-2.48-1.9-7.51-6-8.05-9-1.2-6.56-5.54-12.42-11.54-14.4a15.17 15.17 0 0 0-17.11 6.18c-7.13-2.74-15.82-1-21.87 4.39a25.3 25.3 0 0 0-8 22.16 45.45 45.45 0 0 1 .17 6.3 36.87 36.87 0 0 0-6.47 2.8c-10.2 6.51-1.18 17.45-1.18 17.45-4 6.22 1.72 9.93 5.4 12.31s-.67 13.5 2.43 15l16.84-32.13a4.4 4.4 0 0 0 1.18 1.11c6.84 4.65 13.58-9.63 13.55-14.48a46.61 46.61 0 0 0 10.64-5c3.28-2.26 8.38-9.89 9.41-13.83 2.68 1.26 15.69 1.98 14.6 1.14z" style="fill:#263238"/><path d="M322.11 207.84c1.63-4.84-2.31-10.05-7.36-9.28-2.78.42-5.54 2.37-7.31 7.5-4.73 13.68 10 15.6 10.14 15.21.1-.27 2.62-7.75 4.53-13.43z" style="fill:#ffbe9d"/><path d="M315.19 214.65c-.05-.07-.3.08-.76.13a2.56 2.56 0 0 1-1.8-.58c-1.26-1-1.68-3.74-.9-6.23a8.37 8.37 0 0 1 1.85-3.18 2.87 2.87 0 0 1 2.42-1.21 1.27 1.27 0 0 1 1.18 1.14c.05.44-.13.68-.06.73s.37-.12.45-.73a1.58 1.58 0 0 0-.24-1 1.88 1.88 0 0 0-1.19-.8 3.54 3.54 0 0 0-3.23 1.26 8.54 8.54 0 0 0-2.14 3.52c-.86 2.79-.34 5.86 1.44 7.11a2.7 2.7 0 0 0 2.3.39c.54-.2.72-.51.68-.55z" style="fill:#eb996e"/><path d="M395.87 232.58c0-.13 1.6-.12 4.3-1a20.65 20.65 0 0 0 9.63-6.74 20 20 0 0 0 3.76-7.19 17.31 17.31 0 0 0 .06-9.21A20.48 20.48 0 0 0 399 194.23c-.66-.18-1.35-.24-2-.36s-1.33-.08-2-.12l-1-.07.52-.81a7.08 7.08 0 0 0 1-4.8 11.17 11.17 0 0 0-1.79-4.61 14.84 14.84 0 0 0-7.47-5.69c-5.78-2.15-11.56-2.64-15.9-4.81s-7-5.26-7.91-7.77a8.73 8.73 0 0 1-.6-3 4 4 0 0 1 .11-1.06 12.89 12.89 0 0 0 .88 3.89c1 2.35 3.63 5.29 7.85 7.23a38 38 0 0 0 7.31 2.25 66.28 66.28 0 0 1 8.65 2.31 19.15 19.15 0 0 1 4.39 2.28 15.07 15.07 0 0 1 3.62 3.76 12.18 12.18 0 0 1 2 5.07 8.13 8.13 0 0 1-1.19 5.57l-.47-.88c.68 0 1.39.06 2.1.13s1.44.19 2.15.39a21.41 21.41 0 0 1 15.4 15.06 18.22 18.22 0 0 1-.17 9.74 20.69 20.69 0 0 1-4.05 7.44A20.37 20.37 0 0 1 400.3 232a14 14 0 0 1-3.27.56 4.28 4.28 0 0 1-1.16.02zM420.43 189.75a15.94 15.94 0 0 0-2.94-3.77 11.89 11.89 0 0 0-4.76-2.53 10.56 10.56 0 0 0-6.82.35l-.87.35.2-.91a16.38 16.38 0 0 0-5.73-15.54c-3.72-3.08-8.55-3.66-12.73-3.9s-8.17-.27-11.35-1.15a15.93 15.93 0 0 1-6.92-3.43 9.88 9.88 0 0 1-1.4-1.59c-.27-.4-.39-.62-.36-.64s.66.77 2 1.89a16.72 16.72 0 0 0 6.82 3c3.11.75 6.93.74 11.22.89a33.94 33.94 0 0 1 6.75.84 16.6 16.6 0 0 1 6.64 3.22c5.33 4.38 7.25 11.38 6 16.63l-.66-.56a11.28 11.28 0 0 1 7.41-.21 12 12 0 0 1 4.93 2.88 10.33 10.33 0 0 1 2.15 3 3.68 3.68 0 0 1 .42 1.18z" style="fill:#455a64"/><path d="M354.48 237.41a4.7 4.7 0 0 0-2.6-3 5.59 5.59 0 0 0-4.54.24h-.09c-.06 0-.14.05-.2.09h.07a2.69 2.69 0 0 0-1.25 1.15 3.93 3.93 0 0 0 .3 3.71 5 5 0 0 0 5.23 2.4 4.08 4.08 0 0 0 3.08-4.59z" style="fill:#ff725e"/><path d="M348.15 231.6c.19.06 0 .84.1 2.05a7.63 7.63 0 0 0 5.17 7c1.13.42 1.92.49 1.93.68s-.82.42-2.17.18a7.2 7.2 0 0 1-5.83-7.87c.17-1.38.65-2.1.8-2.04z" style="fill:#263238"/><path d="M313.69 221.32c.13 0-.07 1.26-1.66 2.19a4.4 4.4 0 0 1-3.09.49 4.51 4.51 0 0 1-2.92-6.36 4.4 4.4 0 0 1 2.38-2c1.75-.6 2.83.07 2.75.16s-1.07-.1-2.43.57a3.93 3.93 0 0 0-1.77 1.77 3.65 3.65 0 0 0 2.23 4.87 4 4 0 0 0 2.49-.2c1.41-.61 1.86-1.59 2.02-1.49z" style="fill:#ff725e"/><path d="M294.94 343.65a26.77 26.77 0 0 1-.83-2.73 38.81 38.81 0 0 0-2.57-6.34 38.17 38.17 0 0 0-3.7-5.76 27.61 27.61 0 0 1-1.75-2.25 10.81 10.81 0 0 1 2 2 30.9 30.9 0 0 1 3.87 5.75 29.75 29.75 0 0 1 2.46 6.48 11 11 0 0 1 .52 2.85z" style="fill:#fafafa"/><path d="M285.49 323.74a12.32 12.32 0 0 1 2.18 4.58 12.74 12.74 0 0 1-2.18-4.58z" style="fill:#fafafa"/><path d="M284.36 324.79c.12-.09.77.55 1.58 1.33s1.47 1.41 1.39 1.53-.92-.35-1.75-1.16-1.33-1.62-1.22-1.7z" style="fill:#fafafa"/><path d="M283.58 326.3c.06-.14 1 .15 2.07.63s1.91 1 1.85 1.1-1-.15-2.07-.63-1.91-.97-1.85-1.1zM283.47 328.13c0-.15.85-.25 1.9-.23s1.9.15 1.89.3-.85.24-1.9.22-1.9-.15-1.89-.29zM285.6 334.1a2.38 2.38 0 0 1 1.27-.29 7.08 7.08 0 0 1 5.65 2.45c.52.62.71 1.09.65 1.13a12.36 12.36 0 0 0-3.4-2.53 12.67 12.67 0 0 0-4.17-.76z" style="fill:#fafafa"/><path d="M283.55 332.6c0-.13.87 0 1.78.49s1.52 1.06 1.44 1.17-.8-.26-1.67-.71-1.6-.81-1.55-.95z" style="fill:#fafafa"/><path d="M283 334.07c0-.13.75-.47 1.78-.41s1.78.49 1.73.62-.82 0-1.76-.1-1.75.03-1.75-.11z" style="fill:#fafafa"/><path d="M283.41 336.07c-.09-.12.44-.63 1.17-1.13s1.38-.82 1.46-.7-.44.62-1.17 1.13-1.38.82-1.46.7z" style="fill:#fafafa"/><path d="M285.49 336.47c-.14 0-.09-.67.1-1.41s.46-1.3.6-1.27.1.67-.1 1.41-.46 1.3-.6 1.27zM293.73 328.33a14.41 14.41 0 0 0-.64 8.22 8.12 8.12 0 0 1 .64-8.22z" style="fill:#fafafa"/><path d="M291.7 325.35c.12-.07.65.68 1.06 1.73s.55 2 .41 2-.49-.79-.89-1.81-.71-1.86-.58-1.92zM294.58 325.29c.14.06-.07.87-.35 1.86s-.55 1.8-.69 1.77-.11-.89.19-1.91.72-1.77.85-1.72zM296.86 327.48c0 .15-.67.42-1.47.84s-1.44.85-1.54.74.41-.74 1.29-1.2 1.7-.51 1.72-.38zM296.37 330.07c-.09.13-.68-.16-1.44-.25s-1.41 0-1.46-.13.62-.51 1.52-.39 1.47.7 1.38.77zM281.49 286.76c-.08 0-.31-1.05-.82-2.73a38.08 38.08 0 0 0-2.58-6.34 37.45 37.45 0 0 0-3.69-5.76c-1.08-1.39-1.82-2.2-1.76-2.25a10.57 10.57 0 0 1 2 2 30.57 30.57 0 0 1 6.36 12.25 10.68 10.68 0 0 1 .49 2.83z" style="fill:#fafafa"/><path d="M272.05 266.85a6.39 6.39 0 0 1 1.32 2.17 6.29 6.29 0 0 1 .86 2.41 6.62 6.62 0 0 1-1.33-2.18 6.36 6.36 0 0 1-.85-2.4z" style="fill:#fafafa"/><path d="M270.92 267.9c.11-.09.77.55 1.58 1.33s1.47 1.41 1.38 1.53-.91-.35-1.74-1.16-1.33-1.6-1.22-1.7z" style="fill:#fafafa"/><path d="M270.14 269.4a4.72 4.72 0 0 1 2.06.64c1.08.48 1.91 1 1.85 1.1a4.62 4.62 0 0 1-2.06-.63c-1.08-.51-1.91-.97-1.85-1.11zM270 271.24c0-.15.86-.25 1.91-.23s1.89.15 1.89.3-.86.24-1.9.22-1.9-.15-1.9-.29zM272.16 277.21c0-.06.46-.24 1.27-.29a7.07 7.07 0 0 1 5.64 2.45c.52.62.71 1.09.66 1.12a12.84 12.84 0 0 0-3.41-2.52 12.6 12.6 0 0 0-4.16-.76z" style="fill:#fafafa"/><path d="M270.1 275.71c0-.14.88 0 1.79.49s1.52 1.06 1.44 1.17-.8-.26-1.68-.71-1.59-.81-1.55-.95z" style="fill:#fafafa"/><path d="M269.51 277.18c-.05-.13.75-.47 1.78-.41s1.78.49 1.72.62-.81-.05-1.75-.1-1.72.03-1.75-.11z" style="fill:#fafafa"/><path d="M270 279.18c-.08-.12.44-.63 1.17-1.13s1.39-.82 1.47-.7-.44.62-1.17 1.13-1.47.82-1.47.7z" style="fill:#fafafa"/><path d="M272.05 279.58c-.14 0-.1-.67.1-1.41s.46-1.3.6-1.27.09.67-.1 1.4-.46 1.31-.6 1.28zM280.28 271.44a25.42 25.42 0 0 0-.92 4.06 24.9 24.9 0 0 0 .29 4.16 8.09 8.09 0 0 1 .63-8.22z" style="fill:#fafafa"/><path d="M278.26 268.45c.12-.06.65.69 1.06 1.74s.54 2 .4 2-.48-.79-.88-1.81-.71-1.86-.58-1.93zM281.14 268.4c.13.06-.07.87-.36 1.86s-.54 1.8-.68 1.77-.11-.89.18-1.91.72-1.77.86-1.72zM283.42 270.59c0 .15-.67.41-1.48.84s-1.43.84-1.53.74.41-.74 1.29-1.2 1.7-.52 1.72-.38zM282.92 273.18c-.08.13-.67-.16-1.44-.25s-1.41 0-1.46-.14.62-.5 1.53-.38 1.45.67 1.37.77zM194.11 327.2a27.65 27.65 0 0 1-.82-2.73 38.43 38.43 0 0 0-2.58-6.34 38 38 0 0 0-3.69-5.76 27.36 27.36 0 0 1-1.76-2.25 10.52 10.52 0 0 1 2 2 30.11 30.11 0 0 1 6.34 12.23 10.73 10.73 0 0 1 .51 2.85z" style="fill:#fafafa"/><path d="M184.67 307.29a6.38 6.38 0 0 1 1.32 2.18 6.28 6.28 0 0 1 .86 2.4 6.49 6.49 0 0 1-1.33-2.18 6.36 6.36 0 0 1-.85-2.4z" style="fill:#fafafa"/><path d="M183.54 308.34c.11-.09.77.55 1.58 1.33s1.47 1.42 1.38 1.53-.91-.35-1.74-1.16-1.33-1.61-1.22-1.7z" style="fill:#fafafa"/><path d="M182.76 309.85a4.62 4.62 0 0 1 2.06.63c1.08.48 1.91 1 1.85 1.11a4.75 4.75 0 0 1-2.06-.64c-1.08-.48-1.91-.95-1.85-1.1zM182.64 311.68c0-.14.86-.25 1.91-.23s1.89.15 1.89.3-.85.24-1.9.22-1.9-.15-1.9-.29zM184.78 317.65c0-.06.46-.24 1.27-.29a7 7 0 0 1 3.1.58 6.87 6.87 0 0 1 2.54 1.87c.52.63.71 1.1.66 1.13a12.41 12.41 0 0 0-3.4-2.52 12.54 12.54 0 0 0-4.17-.77z" style="fill:#fafafa"/><path d="M182.72 316.15c.05-.13.88 0 1.79.49s1.52 1.06 1.44 1.17-.8-.26-1.68-.71-1.59-.81-1.55-.95z" style="fill:#fafafa"/><path d="M182.13 317.62c0-.13.75-.47 1.78-.41s1.78.49 1.72.62-.81-.05-1.75-.1-1.72.03-1.75-.11z" style="fill:#fafafa"/><path d="M182.58 319.62c-.08-.12.44-.62 1.17-1.13s1.39-.82 1.47-.7-.44.62-1.17 1.13-1.39.82-1.47.7z" style="fill:#fafafa"/><path d="M184.67 320c-.14 0-.1-.67.1-1.4s.46-1.31.6-1.27.1.66-.1 1.4-.46 1.32-.6 1.27zM192.91 311.88a23.91 23.91 0 0 0-.93 4.06 24.77 24.77 0 0 0 .29 4.16 8.06 8.06 0 0 1 .64-8.22zM190.88 308.9c.12-.07.65.69 1.06 1.74a3.62 3.62 0 0 1 .41 2c-.15 0-.49-.79-.89-1.8s-.71-1.84-.58-1.94z" style="fill:#fafafa"/><path d="M193.76 308.84c.14.06-.07.88-.36 1.87s-.54 1.79-.68 1.76-.11-.89.18-1.91.73-1.77.86-1.72zM196 311c0 .15-.67.42-1.48.84s-1.43.85-1.53.74.41-.74 1.29-1.2 1.72-.48 1.72-.38zM195.54 313.63c-.08.12-.67-.16-1.44-.26s-1.4 0-1.45-.13.61-.51 1.52-.38 1.46.66 1.37.77zM145.74 380.56a24.63 24.63 0 0 1-.83-2.74 38 38 0 0 0-2.58-6.33 37.45 37.45 0 0 0-3.69-5.76 26.3 26.3 0 0 1-1.76-2.26 10.91 10.91 0 0 1 2 2 30.24 30.24 0 0 1 6.34 12.24 11.6 11.6 0 0 1 .52 2.85z" style="fill:#fafafa"/><path d="M136.29 360.65a6.5 6.5 0 0 1 1.33 2.17 6.41 6.41 0 0 1 .85 2.4 12.17 12.17 0 0 1-2.18-4.57z" style="fill:#fafafa"/><path d="M135.16 361.69c.11-.09.77.56 1.58 1.34s1.47 1.41 1.38 1.53-.91-.35-1.74-1.16-1.33-1.62-1.22-1.71z" style="fill:#fafafa"/><path d="M134.38 363.2a4.62 4.62 0 0 1 2.06.63c1.08.48 1.91 1 1.85 1.11a4.66 4.66 0 0 1-2.06-.63c-1.08-.48-1.91-.98-1.85-1.11z" style="fill:#fafafa"/><path d="M134.26 365c0-.15.86-.25 1.91-.23s1.89.15 1.89.29-.85.25-1.9.23-1.9-.11-1.9-.29zM136.4 371c0-.06.46-.25 1.27-.3a7.11 7.11 0 0 1 5.65 2.45c.51.63.7 1.1.65 1.13a12.41 12.41 0 0 0-3.4-2.52 12.08 12.08 0 0 0-4.17-.76z" style="fill:#fafafa"/><path d="M134.34 369.51c0-.14.88 0 1.79.49s1.52 1.05 1.44 1.17-.8-.26-1.68-.71-1.59-.81-1.55-.95z" style="fill:#fafafa"/><path d="M133.75 371c0-.14.75-.48 1.78-.41s1.78.49 1.72.61-.81 0-1.75-.09-1.71.01-1.75-.11z" style="fill:#fafafa"/><path d="M134.2 373c-.08-.12.44-.63 1.17-1.13s1.39-.82 1.47-.7-.44.62-1.17 1.12-1.39.8-1.47.71z" style="fill:#fafafa"/><path d="M136.29 373.37c-.14 0-.09-.66.1-1.4s.46-1.31.6-1.27.1.66-.1 1.4-.46 1.31-.6 1.27zM144.53 365.24a23.61 23.61 0 0 0-.93 4.06 24.58 24.58 0 0 0 .29 4.15 8 8 0 0 1 .64-8.21zM142.5 362.25c.12-.06.65.69 1.06 1.74a3.55 3.55 0 0 1 .41 2c-.14 0-.49-.79-.89-1.81s-.71-1.86-.58-1.93z" style="fill:#fafafa"/><path d="M145.38 362.2c.14.05-.07.87-.36 1.86s-.54 1.79-.68 1.77-.11-.89.18-1.91.73-1.78.86-1.72zM147.66 364.39c0 .14-.67.41-1.48.84s-1.43.84-1.53.73.41-.74 1.29-1.19 1.7-.52 1.72-.38zM147.16 367c-.08.12-.67-.16-1.44-.25s-1.4 0-1.45-.14.61-.5 1.52-.38 1.46.65 1.37.77zM236.43 440.52c-.08 0-.31-1-.82-2.73a38.08 38.08 0 0 0-2.58-6.34 37.45 37.45 0 0 0-3.69-5.76c-1.08-1.39-1.82-2.2-1.76-2.25a10.15 10.15 0 0 1 2 2 30.44 30.44 0 0 1 6.42 12.25 10.68 10.68 0 0 1 .43 2.83z" style="fill:#fafafa"/><path d="M227 420.61a6.38 6.38 0 0 1 1.32 2.18 6.22 6.22 0 0 1 .86 2.4 6.62 6.62 0 0 1-1.33-2.18 6.36 6.36 0 0 1-.85-2.4z" style="fill:#fafafa"/><path d="M225.86 421.66c.11-.09.77.55 1.58 1.33s1.47 1.41 1.38 1.53-.91-.35-1.74-1.16-1.33-1.62-1.22-1.7z" style="fill:#fafafa"/><path d="M225.08 423.16a4.72 4.72 0 0 1 2.06.64c1.08.48 1.91 1 1.85 1.1a4.66 4.66 0 0 1-2.06-.63c-1.08-.48-1.93-.97-1.85-1.11zM225 425c0-.15.86-.25 1.91-.23s1.89.15 1.89.3-.85.24-1.9.22-1.9-.15-1.9-.29zM227.1 431c0-.06.46-.24 1.27-.29a7.07 7.07 0 0 1 5.64 2.45c.52.62.71 1.09.66 1.12a12.84 12.84 0 0 0-3.41-2.52 12.6 12.6 0 0 0-4.16-.76z" style="fill:#fafafa"/><path d="M225 429.47c.05-.14.88 0 1.79.49s1.52 1.06 1.44 1.17-.8-.26-1.68-.71-1.55-.81-1.55-.95z" style="fill:#fafafa"/><path d="M224.45 430.94c0-.13.75-.47 1.78-.41s1.78.49 1.72.62-.81 0-1.75-.1-1.72.03-1.75-.11z" style="fill:#fafafa"/><path d="M224.9 432.94c-.08-.12.44-.63 1.17-1.13s1.39-.82 1.47-.7-.44.62-1.17 1.13-1.37.82-1.47.7z" style="fill:#fafafa"/><path d="M227 433.34c-.14 0-.1-.67.1-1.41s.46-1.3.6-1.27.09.67-.1 1.4-.47 1.31-.6 1.28zM235.23 425.2a23.61 23.61 0 0 0-.93 4.06 24.9 24.9 0 0 0 .29 4.16 6.66 6.66 0 0 1-.81-4.2 6.59 6.59 0 0 1 1.45-4.02zM233.2 422.21c.12-.06.65.69 1.06 1.74a3.65 3.65 0 0 1 .41 2c-.15 0-.49-.79-.89-1.81s-.71-1.86-.58-1.93z" style="fill:#fafafa"/><path d="M236.08 422.16c.14.06-.07.87-.36 1.86s-.54 1.8-.68 1.77-.11-.89.18-1.91.78-1.77.86-1.72zM238.36 424.35c0 .15-.67.41-1.48.84s-1.43.84-1.53.74.41-.74 1.29-1.2 1.7-.52 1.72-.38zM237.86 426.94c-.08.13-.67-.16-1.44-.25s-1.41 0-1.46-.14.62-.5 1.53-.38 1.51.67 1.37.77zM255.82 336.08a26.77 26.77 0 0 1-.83-2.73 36.87 36.87 0 0 0-6.27-12.1A24.71 24.71 0 0 1 247 319a11.68 11.68 0 0 1 2 2 30.57 30.57 0 0 1 6.34 12.24 11.22 11.22 0 0 1 .48 2.84z" style="fill:#fafafa"/><path d="M246.37 316.17a6.33 6.33 0 0 1 1.33 2.17 6.41 6.41 0 0 1 .85 2.4 6.27 6.27 0 0 1-1.32-2.17 6.55 6.55 0 0 1-.86-2.4z" style="fill:#fafafa"/><path d="M245.24 317.22c.12-.1.78.55 1.58 1.33s1.47 1.41 1.39 1.53-.91-.35-1.75-1.16-1.33-1.62-1.22-1.7zM244.46 318.72a4.81 4.81 0 0 1 2.07.63c1.08.49 1.91 1 1.85 1.11a4.62 4.62 0 0 1-2.06-.63c-1.09-.48-1.91-.97-1.86-1.11zM244.35 320.56c0-.15.85-.25 1.9-.23s1.9.15 1.89.3-.85.24-1.9.22-1.89-.15-1.89-.29zM246.48 326.53c0-.06.46-.25 1.28-.29a6.84 6.84 0 0 1 3.1.58 7 7 0 0 1 2.54 1.87c.52.62.71 1.09.66 1.12a13 13 0 0 0-3.41-2.52 12.37 12.37 0 0 0-4.17-.76z" style="fill:#fafafa"/><path d="M244.43 325c0-.14.87 0 1.79.49s1.52 1.06 1.43 1.17-.8-.26-1.67-.71-1.6-.78-1.55-.95z" style="fill:#fafafa"/><path d="M243.83 326.5c0-.14.75-.47 1.78-.41s1.78.49 1.73.62-.82 0-1.76-.1-1.71.03-1.75-.11z" style="fill:#fafafa"/><path d="M244.29 328.5c-.09-.12.44-.63 1.17-1.13s1.38-.82 1.46-.7-.44.62-1.17 1.13-1.38.82-1.46.7z" style="fill:#fafafa"/><path d="M246.37 328.89c-.13 0-.09-.66.1-1.4s.47-1.31.6-1.27.1.67-.09 1.4-.47 1.31-.61 1.27zM254.61 320.76a24.2 24.2 0 0 0-.92 4.06A25.26 25.26 0 0 0 254 329a6.63 6.63 0 0 1-.8-4.19 6.55 6.55 0 0 1 1.41-4.05z" style="fill:#fafafa"/><path d="M252.58 317.77c.13-.06.65.69 1.07 1.74s.54 2 .4 2-.49-.79-.89-1.81-.71-1.86-.58-1.93zM255.46 317.72c.14.06-.07.87-.35 1.86s-.55 1.8-.69 1.77-.11-.89.19-1.91.72-1.77.85-1.72zM257.75 319.91c0 .15-.68.41-1.48.84s-1.44.84-1.54.73.42-.74 1.3-1.19 1.69-.52 1.72-.38zM257.25 322.5c-.09.13-.68-.16-1.44-.25s-1.41 0-1.46-.14.62-.5 1.53-.38 1.46.67 1.37.77zM325.88 324.24c0-.08 1-.41 2.64-1.09a37.74 37.74 0 0 0 6.06-3.16 38.57 38.57 0 0 0 5.38-4.23 22.76 22.76 0 0 1 2.08-2 11.8 11.8 0 0 1-1.82 2.22 29.73 29.73 0 0 1-5.35 4.4 30.26 30.26 0 0 1-6.22 3.08 11 11 0 0 1-2.77.78z" style="fill:#fafafa"/><path d="M344.79 312.93c.08.13-.84.81-2 1.53a6.48 6.48 0 0 1-2.3 1.08c-.08-.12.84-.81 2-1.53a6.7 6.7 0 0 1 2.3-1.08z" style="fill:#fafafa"/><path d="M343.64 311.91c.1.11-.47.82-1.17 1.7s-1.27 1.6-1.4 1.52.27-.94 1-1.85 1.48-1.47 1.57-1.37z" style="fill:#fafafa"/><path d="M342.07 311.28a4.79 4.79 0 0 1-.43 2.11c-.38 1.12-.79 2-.93 1.95a4.61 4.61 0 0 1 .43-2.11c.38-1.13.79-2 .93-1.95zM340.23 311.34c.14 0 .33.83.41 1.87s0 1.9-.11 1.91-.33-.82-.41-1.87-.03-1.9.11-1.91zM334.49 314c.06 0 .29.44.41 1.24a7.08 7.08 0 0 1-1.89 5.85c-.58.58-1 .82-1.07.77a9.37 9.37 0 0 0 2.55-7.86z" style="fill:#fafafa"/><path d="M335.79 311.84c.14 0 .06.88-.32 1.83s-.91 1.62-1 1.54.19-.82.55-1.73.62-1.67.77-1.64z" style="fill:#fafafa"/><path d="M334.27 311.39c.13-.05.54.7.57 1.74s-.31 1.82-.44 1.77 0-.81-.08-1.75-.19-1.71-.05-1.76z" style="fill:#fafafa"/><path d="M332.32 312c.11-.1.66.38 1.24 1s.95 1.3.84 1.4-.67-.38-1.24-1.06-.95-1.21-.84-1.34z" style="fill:#fafafa"/><path d="M332.13 314.15c0-.14.65-.16 1.4 0s1.35.33 1.32.47-.65.16-1.4 0-1.35-.33-1.32-.47zM341 321.57a24.58 24.58 0 0 0-4.13-.53 25.81 25.81 0 0 0-4.11.68 8.11 8.11 0 0 1 8.24-.15z" style="fill:#fafafa"/><path d="M343.79 319.27c.08.11-.62.71-1.63 1.22s-1.9.73-2 .6.74-.56 1.71-1.06 1.84-.89 1.92-.76zM344.12 322.13c0 .14-.88 0-1.89-.18s-1.84-.36-1.83-.51.88-.19 1.93 0 1.83.56 1.79.69zM342.16 324.61c-.15.05-.48-.63-1-1.39s-1-1.35-.88-1.46.78.34 1.32 1.18.69 1.63.56 1.67zM339.53 324.36c-.13-.07.09-.68.11-1.45s-.14-1.4 0-1.47.56.57.52 1.48-.52 1.52-.63 1.44zM208.83 296.27a26.73 26.73 0 0 1 2.64-1.09 37.32 37.32 0 0 0 6.06-3.16 38.57 38.57 0 0 0 5.38-4.23 26.18 26.18 0 0 1 2.08-2 11.29 11.29 0 0 1-1.82 2.23 30.6 30.6 0 0 1-5.35 4.4 30.26 30.26 0 0 1-6.22 3.08 10.84 10.84 0 0 1-2.77.77z" style="fill:#fafafa"/><path d="M227.74 285c.08.13-.84.81-2 1.53a6.48 6.48 0 0 1-2.3 1.08c-.08-.12.84-.81 2-1.53a6.48 6.48 0 0 1 2.3-1.08z" style="fill:#fafafa"/><path d="M226.59 283.94c.1.1-.47.82-1.17 1.7s-1.27 1.6-1.4 1.52.27-.94 1-1.85 1.48-1.47 1.57-1.37z" style="fill:#fafafa"/><path d="M225 283.31a4.79 4.79 0 0 1-.43 2.11c-.38 1.12-.79 2-.93 1.95a4.77 4.77 0 0 1 .43-2.11c.4-1.13.81-2 .93-1.95zM223.18 283.37c.15 0 .33.82.41 1.87s0 1.9-.11 1.91-.33-.82-.41-1.87-.07-1.9.11-1.91zM217.44 286.06c.06 0 .29.44.41 1.24a7.11 7.11 0 0 1-1.89 5.85c-.58.58-1 .81-1.06.77a12.92 12.92 0 0 0 2.18-3.64 12.08 12.08 0 0 0 .36-4.22z" style="fill:#fafafa"/><path d="M218.74 283.87c.14 0 .07.88-.32 1.83s-.91 1.61-1 1.54.19-.82.55-1.73.63-1.67.77-1.64z" style="fill:#fafafa"/><path d="M217.22 283.42c.13-.05.54.7.57 1.74s-.31 1.82-.44 1.77 0-.81-.08-1.75-.19-1.71-.05-1.76z" style="fill:#fafafa"/><path d="M215.27 284.07c.11-.1.66.38 1.24 1.05s1 1.3.84 1.39-.67-.38-1.24-1.05-.95-1.3-.84-1.39z" style="fill:#fafafa"/><path d="M215.08 286.18c0-.14.65-.16 1.4 0s1.35.34 1.32.48-.65.16-1.4 0-1.35-.34-1.32-.48zM224 293.6a24.58 24.58 0 0 0-4.13-.53 26.08 26.08 0 0 0-4.11.68 8.11 8.11 0 0 1 8.24-.15z" style="fill:#fafafa"/><path d="M226.74 291.3c.08.11-.62.71-1.63 1.22s-1.9.73-2 .6.74-.56 1.72-1.06 1.83-.89 1.91-.76zM227.07 294.16c0 .14-.88 0-1.89-.18s-1.84-.37-1.82-.51.87-.19 1.92 0 1.83.53 1.79.69zM225.11 296.64c-.14.05-.48-.63-1-1.39s-1-1.35-.88-1.46.78.34 1.32 1.17.69 1.64.56 1.68zM222.48 296.39c-.13-.07.09-.68.11-1.46s-.14-1.4 0-1.46.56.57.52 1.48-.52 1.52-.63 1.44zM157.75 344.76a26.39 26.39 0 0 1 2.65-1.09 38.57 38.57 0 0 0 6.06-3.16 39.18 39.18 0 0 0 5.38-4.23c1.28-1.21 2-2 2.07-2a11 11 0 0 1-1.81 2.23 31.11 31.11 0 0 1-5.36 4.4 30.22 30.22 0 0 1-6.21 3.08 10.85 10.85 0 0 1-2.78.77z" style="fill:#fafafa"/><path d="M176.67 333.45c.07.13-.84.81-2 1.53a6.41 6.41 0 0 1-2.31 1.08 12.39 12.39 0 0 1 4.35-2.61z" style="fill:#fafafa"/><path d="M175.52 332.43c.1.1-.48.82-1.18 1.7s-1.26 1.6-1.39 1.52.26-.94 1-1.85 1.47-1.47 1.57-1.37z" style="fill:#fafafa"/><path d="M173.94 331.8a4.47 4.47 0 0 1-.43 2.11 4.75 4.75 0 0 1-.92 1.95 4.46 4.46 0 0 1 .43-2.11c.37-1.13.79-2 .92-1.95zM172.11 331.86c.14 0 .32.82.4 1.87s0 1.9-.11 1.91-.32-.83-.4-1.87 0-1.9.11-1.91zM166.37 334.55c.06 0 .28.44.41 1.24a7 7 0 0 1-.28 3.14 6.92 6.92 0 0 1-1.62 2.71c-.57.58-1 .81-1.06.77a12.41 12.41 0 0 0 2.18-3.64 12.54 12.54 0 0 0 .37-4.22z" style="fill:#fafafa"/><path d="M167.66 332.36c.14 0 .07.87-.31 1.83s-.91 1.61-1 1.54.18-.82.54-1.73.63-1.67.77-1.64z" style="fill:#fafafa"/><path d="M166.15 331.91c.12-.05.54.7.57 1.74s-.32 1.81-.45 1.77 0-.81-.07-1.75-.2-1.67-.05-1.76z" style="fill:#fafafa"/><path d="M164.2 332.55c.11-.09.66.38 1.23 1.06s.95 1.3.84 1.39-.66-.38-1.23-1.05-.95-1.3-.84-1.4z" style="fill:#fafafa"/><path d="M164 334.67c0-.14.65-.16 1.41 0s1.34.34 1.32.48-.65.16-1.41 0-1.32-.34-1.32-.48zM172.89 342.09a24.78 24.78 0 0 0-4.13-.53 25.81 25.81 0 0 0-4.11.68 8.11 8.11 0 0 1 8.24-.15z" style="fill:#fafafa"/><path d="M175.66 339.79c.08.11-.62.71-1.62 1.22s-1.9.73-1.95.59.74-.56 1.71-1.05 1.79-.89 1.86-.76zM176 342.65c0 .14-.87 0-1.88-.18s-1.84-.37-1.83-.51.88-.19 1.92 0 1.79.56 1.79.69zM174 345.13c-.14.05-.47-.63-1-1.39s-1-1.35-.88-1.46.77.34 1.31 1.17.74 1.64.57 1.68zM171.4 344.88c-.13-.07.1-.68.12-1.46s-.14-1.4 0-1.46.57.57.53 1.48-.53 1.56-.65 1.44zM287.88 424.24c0-.08 1-.41 2.64-1.08a38.74 38.74 0 0 0 6.06-3.17 37.84 37.84 0 0 0 5.38-4.23 24.7 24.7 0 0 1 2.08-2 11.1 11.1 0 0 1-1.82 2.22 30.16 30.16 0 0 1-5.35 4.41 30.68 30.68 0 0 1-6.22 3.07 11 11 0 0 1-2.77.78z" style="fill:#fafafa"/><path d="M306.79 412.94c.08.12-.84.8-2 1.52a6.28 6.28 0 0 1-2.3 1.08c-.08-.12.84-.8 2-1.52a6.28 6.28 0 0 1 2.3-1.08z" style="fill:#fafafa"/><path d="M305.64 411.91c.1.11-.47.82-1.17 1.7s-1.27 1.6-1.4 1.53.27-.95 1-1.85 1.48-1.48 1.57-1.38z" style="fill:#fafafa"/><path d="M304.07 411.28a4.77 4.77 0 0 1-.43 2.11c-.38 1.13-.79 2-.93 1.95a4.63 4.63 0 0 1 .43-2.11c.38-1.12.79-1.99.93-1.95zM302.23 411.34c.14 0 .33.83.41 1.87s0 1.9-.11 1.92-.33-.83-.41-1.88-.03-1.9.11-1.91zM296.49 414c.06 0 .29.43.41 1.23a7.12 7.12 0 0 1-1.89 5.86c-.58.57-1 .81-1.07.76a12.42 12.42 0 0 0 2.19-3.63 12.68 12.68 0 0 0 .36-4.22z" style="fill:#fafafa"/><path d="M297.79 411.85c.14 0 .06.87-.32 1.82s-.91 1.62-1 1.54.19-.82.55-1.73.62-1.67.77-1.63z" style="fill:#fafafa"/><path d="M296.27 411.39c.13-.05.54.7.57 1.74s-.31 1.82-.44 1.77 0-.81-.08-1.75-.19-1.7-.05-1.76z" style="fill:#fafafa"/><path d="M294.32 412c.11-.09.66.38 1.24 1.06s.95 1.3.84 1.39-.67-.38-1.24-1.06-.95-1.26-.84-1.39z" style="fill:#fafafa"/><path d="M294.13 414.15c0-.14.65-.15 1.4 0s1.35.33 1.32.48-.65.15-1.4 0-1.35-.33-1.32-.48zM303 421.57a24.58 24.58 0 0 0-4.13-.53 23.92 23.92 0 0 0-4.11.69 6.63 6.63 0 0 1 4.1-1.21 6.73 6.73 0 0 1 4.14 1.05z" style="fill:#fafafa"/><path d="M305.79 419.27c.08.12-.62.72-1.63 1.23s-1.9.72-2 .59.74-.56 1.71-1.06 1.84-.88 1.92-.76zM306.12 422.13c0 .14-.88 0-1.89-.17s-1.84-.37-1.83-.52.88-.19 1.93 0 1.83.56 1.79.69zM304.16 424.61c-.15.05-.48-.63-1-1.39s-1-1.34-.88-1.45.78.34 1.32 1.17.69 1.64.56 1.67zM301.53 424.37c-.13-.08.09-.69.11-1.46s-.14-1.4 0-1.46.56.56.52 1.48-.52 1.52-.63 1.44zM318 455.1a24.29 24.29 0 0 1 2.6-1.1 37.74 37.74 0 0 0 6.06-3.16 39.18 39.18 0 0 0 5.38-4.23c1.28-1.21 2-2 2.07-2a11 11 0 0 1-1.81 2.23 30.72 30.72 0 0 1-5.36 4.4 30.22 30.22 0 0 1-6.21 3.08 11 11 0 0 1-2.73.78z" style="fill:#fafafa"/><path d="M336.87 443.79c.07.13-.84.81-2 1.53a6.41 6.41 0 0 1-2.31 1.08 12.39 12.39 0 0 1 4.35-2.61z" style="fill:#fafafa"/><path d="M335.72 442.77c.1.1-.48.82-1.17 1.7s-1.27 1.6-1.4 1.52.26-.94 1-1.85 1.47-1.47 1.57-1.37z" style="fill:#fafafa"/><path d="M334.14 442.14a4.47 4.47 0 0 1-.43 2.11c-.37 1.12-.79 2-.92 1.95a4.46 4.46 0 0 1 .43-2.11c.37-1.09.78-2 .92-1.95zM332.31 442.2c.14 0 .32.82.41 1.87s0 1.9-.12 1.91-.32-.82-.4-1.87-.03-1.9.11-1.91zM326.57 444.89c.06 0 .28.44.41 1.24a7.07 7.07 0 0 1-1.9 5.85c-.57.58-1 .81-1.06.77a9.37 9.37 0 0 0 2.55-7.86z" style="fill:#fafafa"/><path d="M327.87 442.7c.13 0 .06.88-.32 1.83s-.91 1.61-1 1.54.18-.82.55-1.73.62-1.67.77-1.64z" style="fill:#fafafa"/><path d="M326.35 442.25c.12-.05.54.7.57 1.74s-.32 1.82-.45 1.77 0-.81-.07-1.75-.19-1.71-.05-1.76z" style="fill:#fafafa"/><path d="M324.4 442.9c.11-.1.66.38 1.23 1.05s.95 1.3.84 1.39-.66-.38-1.23-1-.95-1.34-.84-1.44z" style="fill:#fafafa"/><path d="M324.2 445c0-.14.66-.16 1.41 0s1.34.34 1.32.48-.65.16-1.4 0-1.35-.33-1.33-.48zM333.09 452.43a24.78 24.78 0 0 0-4.13-.53 25.81 25.81 0 0 0-4.11.68 8.11 8.11 0 0 1 8.24-.15z" style="fill:#fafafa"/><path d="M335.87 450.13c.07.11-.63.71-1.63 1.22s-1.9.73-1.95.6.74-.56 1.71-1.06 1.79-.89 1.87-.76zM336.2 453c-.05.14-.88 0-1.89-.18s-1.84-.37-1.83-.51.88-.19 1.92 0 1.84.55 1.8.69zM334.23 455.47c-.14 0-.47-.63-1-1.39s-1-1.35-.88-1.46.77.34 1.31 1.18.71 1.63.57 1.67zM331.61 455.22c-.13-.07.09-.68.11-1.46s-.14-1.4 0-1.46.56.57.52 1.48-.52 1.52-.63 1.44zM262.37 456.26a27.19 27.19 0 0 1 2.64-1.08 38.74 38.74 0 0 0 6.06-3.17 37.84 37.84 0 0 0 5.38-4.23 22.76 22.76 0 0 1 2.08-2 11.44 11.44 0 0 1-1.82 2.22 30.16 30.16 0 0 1-5.35 4.41 30.68 30.68 0 0 1-6.22 3.07 11 11 0 0 1-2.77.78z" style="fill:#fafafa"/><path d="M281.28 445c.08.12-.84.8-2 1.52a6.28 6.28 0 0 1-2.3 1.08c-.08-.12.83-.8 2-1.52a6.28 6.28 0 0 1 2.3-1.08z" style="fill:#fafafa"/><path d="M280.13 443.93c.1.11-.47.82-1.17 1.7s-1.27 1.6-1.4 1.53.27-1 1-1.85 1.44-1.48 1.57-1.38z" style="fill:#fafafa"/><path d="M278.56 443.3a4.77 4.77 0 0 1-.43 2.11c-.38 1.13-.79 2-.93 1.95a4.63 4.63 0 0 1 .43-2.11c.37-1.12.79-2 .93-1.95zM276.72 443.36c.14 0 .33.83.41 1.87s0 1.9-.11 1.92-.33-.83-.41-1.88-.03-1.9.11-1.91zM271 446.06c.06 0 .29.43.41 1.23a6.92 6.92 0 0 1-.28 3.15 6.81 6.81 0 0 1-1.62 2.71c-.57.57-1 .81-1.06.76a12.42 12.42 0 0 0 2.19-3.63 12.68 12.68 0 0 0 .36-4.22z" style="fill:#fafafa"/><path d="M272.28 443.87c.13 0 .06.87-.32 1.82s-.91 1.62-1 1.54.19-.82.55-1.73.62-1.67.77-1.63z" style="fill:#fafafa"/><path d="M270.76 443.41c.13-.05.54.7.57 1.74s-.31 1.82-.44 1.77 0-.81-.08-1.75-.19-1.7-.05-1.76z" style="fill:#fafafa"/><path d="M268.81 444.06c.11-.09.66.38 1.24 1.05s.94 1.31.83 1.4-.66-.38-1.23-1.06-.95-1.3-.84-1.39z" style="fill:#fafafa"/><path d="M268.61 446.17c0-.14.66-.15 1.41 0s1.35.33 1.32.48-.65.15-1.4 0-1.35-.33-1.33-.48zM277.5 453.59a24.58 24.58 0 0 0-4.13-.53 23.92 23.92 0 0 0-4.11.69 6.63 6.63 0 0 1 4.1-1.21 6.73 6.73 0 0 1 4.14 1.05z" style="fill:#fafafa"/><path d="M280.28 451.29c.08.12-.63.72-1.63 1.22s-1.9.73-1.95.6.74-.56 1.71-1.06 1.79-.88 1.87-.76zM280.61 454.15c0 .14-.88 0-1.89-.17s-1.84-.37-1.83-.52.88-.19 1.92 0 1.84.54 1.8.69zM278.65 456.63c-.15.05-.48-.63-1-1.39s-1-1.34-.88-1.45.78.34 1.32 1.17.69 1.64.56 1.67zM276 456.39c-.13-.08.09-.69.11-1.46s-.14-1.4 0-1.47.56.57.52 1.49-.5 1.52-.63 1.44zM315.48 377.18a26.73 26.73 0 0 1 2.64-1.09 37.05 37.05 0 0 0 11.45-7.4 28.31 28.31 0 0 1 2.07-2 10.78 10.78 0 0 1-1.81 2.22 30.65 30.65 0 0 1-5.36 4.41 30.11 30.11 0 0 1-6.21 3.07 11.79 11.79 0 0 1-2.78.79z" style="fill:#fafafa"/><path d="M334.4 365.87a6.5 6.5 0 0 1-2 1.53 6.41 6.41 0 0 1-2.31 1.08c-.07-.13.84-.81 2-1.53a6.41 6.41 0 0 1 2.31-1.08z" style="fill:#fafafa"/><path d="M333.25 364.84c.1.11-.48.83-1.18 1.7s-1.27 1.6-1.39 1.53.26-.94 1-1.85 1.47-1.48 1.57-1.38z" style="fill:#fafafa"/><path d="M331.67 364.21a4.66 4.66 0 0 1-.43 2.12 4.75 4.75 0 0 1-.92 1.95 4.49 4.49 0 0 1 .43-2.12c.37-1.16.78-1.99.92-1.95zM329.84 364.27c.14 0 .32.83.4 1.88s0 1.9-.11 1.91-.32-.83-.41-1.87-.03-1.91.12-1.92zM324.1 367c.06 0 .28.43.41 1.24a7.07 7.07 0 0 1-1.9 5.85c-.57.58-1 .81-1.06.76a12.35 12.35 0 0 0 2.18-3.63 12.54 12.54 0 0 0 .37-4.22z" style="fill:#fafafa"/><path d="M325.39 364.78c.14 0 .07.87-.31 1.83s-.91 1.61-1 1.54.18-.82.54-1.74.63-1.66.77-1.63z" style="fill:#fafafa"/><path d="M323.87 364.33c.13-.06.54.7.58 1.73s-.32 1.82-.45 1.78 0-.82-.07-1.76-.2-1.7-.06-1.75z" style="fill:#fafafa"/><path d="M321.93 365c.11-.09.66.38 1.23 1.06s.95 1.3.84 1.39-.66-.38-1.24-1.06-.94-1.33-.83-1.39z" style="fill:#fafafa"/><path d="M321.73 367.09c0-.14.65-.16 1.41 0s1.34.34 1.32.48-.65.16-1.41 0-1.34-.34-1.32-.48zM330.62 374.51a24.78 24.78 0 0 0-4.13-.53 24.29 24.29 0 0 0-4.11.68 6.66 6.66 0 0 1 4.1-1.2 6.58 6.58 0 0 1 4.14 1.05z" style="fill:#fafafa"/><path d="M333.39 372.2c.08.12-.62.72-1.62 1.23s-1.91.72-1.95.59.73-.56 1.71-1.06 1.78-.88 1.86-.76zM333.72 375.07c0 .14-.87 0-1.88-.18s-1.84-.37-1.83-.52.88-.19 1.92 0 1.83.56 1.79.7zM331.76 377.55c-.14 0-.47-.63-1-1.39s-1-1.35-.87-1.46.77.34 1.31 1.17.69 1.64.56 1.68zM329.13 377.3c-.13-.07.1-.69.12-1.46s-.14-1.4 0-1.46.57.56.53 1.48-.53 1.52-.65 1.44zM251.74 400.7a26.14 26.14 0 0 1 .8-2.74 38.07 38.07 0 0 0 1.33-6.71 38.61 38.61 0 0 0 .07-6.84 26.93 26.93 0 0 1-.23-2.85 11.24 11.24 0 0 1 .6 2.81 30.6 30.6 0 0 1 .08 6.94 29.87 29.87 0 0 1-1.5 6.77 11.39 11.39 0 0 1-1.15 2.62z" style="fill:#fafafa"/><path d="M254.77 378.88a12.63 12.63 0 0 1-.69 5 6.18 6.18 0 0 1 .08-2.55 6.1 6.1 0 0 1 .61-2.45z" style="fill:#fafafa"/><path d="M253.25 379.13a5.81 5.81 0 0 1 .59 2c.24 1.1.45 2 .31 2s-.57-.79-.82-1.93a3.5 3.5 0 0 1-.08-2.07z" style="fill:#fafafa"/><path d="M251.77 380c.12-.07.74.67 1.38 1.66s1.06 1.87.94 1.94-.74-.66-1.38-1.65-1.06-1.95-.94-1.95z" style="fill:#fafafa"/><path d="M250.66 381.43c.09-.12.85.27 1.72.86s1.5 1.16 1.42 1.28-.85-.26-1.71-.85-1.51-1.17-1.43-1.29zM249.17 387.59a2.45 2.45 0 0 1 1.23.46 7 7 0 0 1 2.27 2.19 6.93 6.93 0 0 1 1.1 2.95 2.4 2.4 0 0 1-.07 1.31 12.56 12.56 0 0 0-1.46-4 12.7 12.7 0 0 0-3.07-2.91z" style="fill:#fafafa"/><path d="M248.28 385.21c.11-.08.72.5 1.22 1.39s.69 1.72.56 1.77-.53-.66-1-1.51-.9-1.55-.78-1.65z" style="fill:#fafafa"/><path d="M247 386.11c0-.13.89 0 1.72.64s1.22 1.39 1.1 1.46-.66-.48-1.41-1-1.49-.95-1.41-1.1z" style="fill:#fafafa"/><path d="M246.26 388c0-.15.71-.28 1.59-.31s1.61.08 1.61.22-.71.28-1.59.31-1.61-.04-1.61-.22z" style="fill:#fafafa"/><path d="M247.78 389.51c-.09-.1.29-.6.85-1.11s1.11-.84 1.21-.74-.29.61-.86 1.12-1.1.84-1.2.73zM259.13 387.23a26.43 26.43 0 0 0-3 2.89 25.9 25.9 0 0 0-2 3.63 6.7 6.7 0 0 1 1.63-3.95 6.61 6.61 0 0 1 3.37-2.57z" style="fill:#fafafa"/><path d="M259.07 383.62c.15 0 .17.94-.06 2s-.62 1.94-.76 1.89 0-.92.25-2 .43-1.9.57-1.89zM261.51 385.16c.09.12-.54.69-1.32 1.36s-1.43 1.2-1.54 1.1.4-.8 1.2-1.49 1.58-1.13 1.66-.97zM262.22 388.24c-.05.14-.79 0-1.7-.11s-1.66-.08-1.68-.22.75-.4 1.73-.29 1.7.5 1.65.62zM260.38 390.14c-.14.05-.48-.51-1.06-1s-1.18-.76-1.15-.91.8-.08 1.49.52.85 1.35.72 1.39z" style="fill:#fafafa"/><path d="M283.16 407.87c-1.22-3.22-3.59-5.86-5.88-8.45q-10.71-12.14-20.34-25.18c-3.53-4.79-7.09-10.09-7.13-16 0-5.18 2.61-9.94 4.25-14.85 3.4-10.16 2.61-21.51 7-31.26 2.07-4.58 5.23-8.62 7.07-13.3 4.18-10.62 1-22.56-2.22-33.51l-6.48-14.69c-9.43 10.46-27.45 3.24-28.57 7.2-1 3.66 5.37 41.38 4.35 45.07-4 14.39-7 28.9-10.14 41-2.07 8.1-4.07 16.72-1.17 24.5 2.74 7.22 9.24 12.2 15.12 17.21a168.49 168.49 0 0 1 23.21 24.18c2.47 3.15 4.93 6.48 8.41 8.46s8.34 2.18 11.15-.67c2.41-2.47 2.59-6.48 1.37-9.71z" style="opacity:.30000000000000004"/><path d="M283.9 260.76s-13.52-12.53-15.41-15.52-12.06-10.06-12.06-10.06-8.43-9-23.44-7-21.81 22-21.81 22-1.36 30.88 1.79 31.12 6.05.86 6.19-1.34-.1-10.48-.1-10.48l5.87-7.14s3 28.38 6.55 28.86 6.25 1.74 6.49-1.4-3.25-26.48-2.85-27.5 7.32 25.3 7.32 25.3 2.29 6.3 5.3 6 5-2.31 4.15-4.92-3.71-31.63-3.71-31.63l7 16.71 3.48 14.69s3.95 2.55 5.38-.85-.46-17.82-.46-17.82l-4.14-19.19 5.08 3.54s6.48 7.15 9.85 8.6c3.87 1.65 9.53-1.97 9.53-1.97z" style="fill:#a86e63"/><path d="M618.69 312.7c-2.23-6.82-59.67-73.3-73.8-95.29-9.69-15.08-22.89-14.41-25.16-14.24l-50.73-.33-38.87 9.72a21.47 21.47 0 0 1-22.81 23.31 22.29 22.29 0 0 1-6.84 2.21c.33 12.36-9.51 24.2-21.73 26.13a24.46 24.46 0 0 1-10.11-.6l.07.25c-.37.33-2.68 2.3-7.94 4.43-5.76 2.35-13 1.47-13 1.47l-.23.37 5.8 2.36 20.29 16.67 4.86 14.22.82 3.33-31.9 158.52h168.06l13.39-164-1.75-23.85L591.72 350z" style="fill:#455a64"/><path d="m548.24 223.86-.54-.05-1.58-.19a53.34 53.34 0 0 0-27.91 4.38 52.18 52.18 0 0 0-13 8.39 114.31 114.31 0 0 0-12.34 12.85c-4.08 4.78-8.23 10-13.07 14.82a59.5 59.5 0 0 1-17.23 12.32 35.85 35.85 0 0 1-10.37 3 28.42 28.42 0 0 1-10.46-.65 40.65 40.65 0 0 1-9.31-4c-2.89-1.6-5.63-3.31-8.37-4.84a41.13 41.13 0 0 0-16.78-5.41 44.78 44.78 0 0 0-15.37 1.18 47.28 47.28 0 0 0-11.82 4.8l-2.3 1.54c-.74.47-1.38 1-2 1.48a37.28 37.28 0 0 0-3.38 2.84 14 14 0 0 0-1.41 1.28l-1.12 1.2a19.3 19.3 0 0 0-1.66 2c-.43.53-.75.95-1 1.25l-.35.42s.1-.16.31-.45l.94-1.29a19.78 19.78 0 0 1 1.63-2l1.11-1.23a15.22 15.22 0 0 1 1.33-1.34 37.09 37.09 0 0 1 3.37-2.88c.66-.48 1.3-1 2-1.51l2.32-1.47a47.44 47.44 0 0 1 11.88-4.91 44.92 44.92 0 0 1 15.5-1.25 41.45 41.45 0 0 1 17 5.42c2.76 1.53 5.5 3.24 8.38 4.83a40.12 40.12 0 0 0 9.2 3.89 27.61 27.61 0 0 0 10.27.63 35.41 35.41 0 0 0 10.22-2.95 59.11 59.11 0 0 0 17.08-12.2c4.82-4.84 9-10 13.07-14.77a114 114 0 0 1 12.41-12.87 52.68 52.68 0 0 1 35.07-13 49.56 49.56 0 0 1 6.12.42l1.58.25zM491.24 202.25s0 .09-.09.25-.19.43-.32.72c-.3.61-.67 1.56-1.3 2.7a63.62 63.62 0 0 1-5.91 9.35 67.36 67.36 0 0 1-11.38 11.8A66.37 66.37 0 0 1 435.48 242a71 71 0 0 1-8.78.2 71.84 71.84 0 0 1-7.61-.75 64.39 64.39 0 0 1-10.74-2.59c-1.25-.39-2.18-.81-2.82-1l-.73-.29a1 1 0 0 1-.24-.12l.26.07.74.24c.66.2 1.6.59 2.85.94a70.21 70.21 0 0 0 10.74 2.43 74.68 74.68 0 0 0 7.57.68 72.4 72.4 0 0 0 8.72-.25 66.68 66.68 0 0 0 36.5-14.79 69 69 0 0 0 11.39-11.65 69.77 69.77 0 0 0 6-9.22c.65-1.13 1.06-2.06 1.39-2.66l.36-.69a2 2 0 0 1 .16-.3zM528.08 309s-.09.1-.29.28l-.9.79c-.4.34-.87.79-1.48 1.26l-2.15 1.56a46.68 46.68 0 0 1-15.49 6.58 72 72 0 0 1-24.95 1c-9.39-1.14-19.4-4-29.77-7.26s-20.28-6.34-29.56-7.88a79.27 79.27 0 0 0-24.85-.53 50.43 50.43 0 0 0-15.94 5.1l-2.3 1.3c-.66.39-1.18.78-1.63 1.06l-1 .65-.35.21a1.86 1.86 0 0 1 .31-.25l1-.7c.44-.3 1-.7 1.6-1.1l2.29-1.35a49.27 49.27 0 0 1 16-5.28 78.89 78.89 0 0 1 25 .42c9.33 1.52 19.26 4.62 29.63 7.85s20.35 6.12 29.68 7.28a72.46 72.46 0 0 0 24.81-.87 47.39 47.39 0 0 0 15.46-6.39l2.17-1.52c.62-.45 1.1-.89 1.51-1.21s.7-.56.92-.75zM367.76 368l.34.25 1 .78c.43.34.92.8 1.57 1.26l2.27 1.57a45.48 45.48 0 0 0 16.29 6.2 69.93 69.93 0 0 0 25.86-.53c9.63-1.89 19.75-5.78 30.23-10.06s20.51-8.43 30.1-10.77a77.1 77.1 0 0 1 25.95-2.18 47.92 47.92 0 0 1 16.88 4.79l2.42 1.34c.69.4 1.24.81 1.7 1.11l1 .71a2.09 2.09 0 0 1 .34.25 2.17 2.17 0 0 1-.37-.21l-1.05-.66c-.47-.28-1-.68-1.71-1.07l-2.44-1.29a48.78 48.78 0 0 0-16.83-4.6 77.29 77.29 0 0 0-25.8 2.28c-9.53 2.35-19.53 6.49-30 10.78s-20.64 8.18-30.33 10.05a69.71 69.71 0 0 1-26 .42A44.8 44.8 0 0 1 372.8 372l-2.25-1.61c-.64-.48-1.13-1-1.55-1.31l-.94-.82c-.21-.16-.31-.26-.3-.26zM516.22 436.54a1.88 1.88 0 0 1-.38-.18l-1.09-.57c-.48-.26-1.07-.58-1.79-.91s-1.53-.76-2.48-1.14a71.47 71.47 0 0 0-16.69-4.85 125.21 125.21 0 0 0-25.79-1.35c-9.73.32-20.39 1.43-31.64 1.81a160.54 160.54 0 0 1-56.76-8.26 145.89 145.89 0 0 1-16.2-6.5c-1.88-.85-3.29-1.61-4.26-2.09l-1.1-.57a2.42 2.42 0 0 1-.37-.21 2.3 2.3 0 0 1 .39.16l1.12.52c1 .45 2.41 1.19 4.3 2a157.82 157.82 0 0 0 16.23 6.34 162.56 162.56 0 0 0 56.63 8.09c11.23-.38 21.9-1.47 31.65-1.77a123.15 123.15 0 0 1 25.83 1.47 69.37 69.37 0 0 1 16.71 5 45.47 45.47 0 0 1 5.69 3.01zM577.47 260.72a1.78 1.78 0 0 1-.46.2l-1.36.47c-.59.18-1.31.43-2.12.76s-1.77.65-2.77 1.13-2.12 1-3.26 1.57-2.36 1.29-3.62 2a57 57 0 0 0-14.29 12.45c-.91 1.15-1.79 2.22-2.51 3.3s-1.42 2.08-2 3-1.07 1.82-1.5 2.59a22.44 22.44 0 0 0-1.05 2l-.65 1.27c-.15.29-.24.44-.26.43a1.74 1.74 0 0 1 .16-.47c.15-.36.34-.79.56-1.32s.56-1.27 1-2 .85-1.69 1.44-2.64 1.2-2 2-3.07 1.59-2.2 2.5-3.37a54.54 54.54 0 0 1 14.41-12.55c1.28-.73 2.48-1.45 3.67-2s2.29-1.09 3.32-1.52 2-.76 2.81-1.06 1.56-.53 2.16-.69l1.39-.37a2.45 2.45 0 0 1 .43-.11zM604 293a1.65 1.65 0 0 1-.16.45l-.55 1.25a21 21 0 0 1-1 1.94c-.4.74-.82 1.6-1.39 2.5s-1.14 1.91-1.87 2.93-1.5 2.1-2.35 3.22a57.5 57.5 0 0 1-13.42 12.31c-1.19.75-2.31 1.48-3.41 2.07s-2.12 1.15-3.08 1.61-1.84.84-2.62 1.17-1.45.59-2 .78l-1.29.44a1.4 1.4 0 0 1-.46.12 1.79 1.79 0 0 1 .42-.21l1.26-.53c.55-.22 1.21-.5 2-.86s1.64-.73 2.57-1.24 2-1 3-1.65 2.19-1.34 3.36-2.1a59.75 59.75 0 0 0 13.38-12.2c.86-1.1 1.69-2.14 2.38-3.17s1.35-2 1.91-2.87 1-1.73 1.45-2.45.76-1.36 1-1.89l.64-1.21a1.89 1.89 0 0 1 .23-.41z" style="fill:#fafafa"/><path d="M366.31 147.65a41.69 41.69 0 0 1 21.26-52.4l1.95-.92c21.64-8.69 41.11 4.83 49.2 26.7l35.89 86.06a4.22 4.22 0 0 1-.65 4.31l-36.9 44.37-19.29-45s-21.73 6.39-31.51-13.73c-4.73-9.67-12.83-30.48-19.95-49.39z" style="fill:#a86e63"/><path d="M417.59 210.87s13.29-5.31 22.86-20.26c0 0 .63 17.51-20.43 25.2z" style="fill:#8c5249"/><path d="M378.15 161.48c.54.21 2-2.44 5.08-3.9s6.12-1 6.28-1.52c.09-.24-.6-.75-1.93-1a8.77 8.77 0 0 0-5.25.75 8.36 8.36 0 0 0-3.82 3.58c-.61 1.17-.62 2.01-.36 2.09zM409.78 148.49c.53.21 2-2.44 5.07-3.9s6.13-1 6.29-1.51c.09-.25-.6-.76-1.94-1a8.77 8.77 0 0 0-5.25.74 8.52 8.52 0 0 0-3.82 3.58c-.6 1.17-.61 2.01-.35 2.09zM405.76 170.06c-.07-.18-2.16.39-5.49 1.47-.83.29-1.65.49-2 0a4.45 4.45 0 0 1-.58-2.6c-.16-2.28-.33-4.66-.5-7.16-.8-10.15-1.77-18.34-2.18-18.31s-.1 8.29.7 18.44c.21 2.5.42 4.87.61 7.15.13 1 .09 2.31 1.06 3.31a2.18 2.18 0 0 0 1.85.54 5.71 5.71 0 0 0 1.44-.44c3.19-1.31 5.16-2.22 5.09-2.4zM415.92 167.9c-.52.21 1.07 3.59-.69 7.35s-5.53 5.08-5.34 5.56c.06.23 1.11.28 2.65-.4a9.22 9.22 0 0 0 4.54-4.45 8.09 8.09 0 0 0 .37-6.06c-.53-1.47-1.3-2.13-1.53-2zM399.63 129.86c.7.7 3.62-1.16 7.48-2.44s7.27-1.67 7.4-2.66c.05-.47-.84-1-2.42-1.28a13.7 13.7 0 0 0-11.33 3.89c-1.09 1.17-1.45 2.15-1.13 2.49zM372.23 146c.88.45 2.68-1.3 5.24-2.54s5-1.77 5.13-2.75c0-.46-.62-1-1.89-1.22a8 8 0 0 0-4.83.86 8.11 8.11 0 0 0-3.53 3.39c-.57 1.12-.52 1.99-.12 2.26z" style="fill:#263238"/><path d="M442.72 137.46c.27-.31 12-10.67 18 3.38s-9.28 17.25-9.48 16.86-8.52-20.24-8.52-20.24z" style="fill:#a86e63"/><path d="M452.06 151.09c0-.07.32.07.81.08a2.69 2.69 0 0 0 1.85-.76c1.25-1.18 1.48-4.08.45-6.64a8.77 8.77 0 0 0-2.2-3.21 3.1 3.1 0 0 0-2.66-1.08 1.35 1.35 0 0 0-1.15 1.29c0 .48.19.72.13.78s-.4-.11-.54-.74a1.75 1.75 0 0 1 .17-1.12 2 2 0 0 1 1.2-.94 3.77 3.77 0 0 1 3.5 1.07 9.15 9.15 0 0 1 2.54 3.55c1.13 2.87.83 6.15-1 7.61a2.85 2.85 0 0 1-2.39.6c-.54-.16-.77-.44-.71-.49z" style="fill:#8c5249"/><path d="M445.93 125.71c-1.78-8.13-3.26-16.62-7.63-23.71 0 0-5.84-7.69-13.73-10.33-9.87-3.3-25.84-5.87-41.66 2.07-20.51 10.3-23.53 26.32-19.63 36.11 1.79 4.49.35-22 21.81-11.41 3.94-12 9.44-15.87 21-17.71a14.92 14.92 0 0 1 6.71.41c5.66 1.76 6 5.45 6.66 7.18 4.7 16.56 17.62 19.33 17.62 19.33l4.6 11c1 3.38 3.88 5.65 5.42 5.3l.84-9.66s-1.09-4.38-2.01-8.58z" style="fill:#263238"/><path d="M422.74 150a.42.42 0 0 0-.2-.81.42.42 0 0 0-.27.5.41.41 0 0 0 .47.31zM416.16 151.48a.49.49 0 1 0-.48-.37.43.43 0 0 0 .48.37zM412.12 153.27c.19-.07.27-.38.16-.71s-.35-.54-.55-.47-.27.38-.17.71.36.53.56.47zM421.58 155.14c.19-.09.29-.26.24-.38s-.26-.15-.45-.06-.3.26-.24.38.26.15.45.06zM415.53 156.44a.44.44 0 1 0-.5-.27.4.4 0 0 0 .5.27zM385.57 166.42a.42.42 0 0 0 .27-.51.41.41 0 0 0-.48-.32.4.4 0 0 0-.26.5.41.41 0 0 0 .47.33zM381.35 168a.45.45 0 0 0 .19-.58c-.09-.25-.32-.4-.51-.32a.43.43 0 0 0-.2.57.44.44 0 0 0 .52.33zM389.2 164.83a.33.33 0 1 0-.45-.23.35.35 0 0 0 .45.23zM388.1 170.3a.44.44 0 1 0-.39-.43.42.42 0 0 0 .39.43zM384.32 171.24a.33.33 0 1 0-.5 0 .37.37 0 0 0 .5 0z" style="fill:#8c5249"/><path d="M234.66 248c-10.07-4.31-20.82-8.61-31.58-8.11l.21-.13a17.59 17.59 0 0 0 5.32-5.09 7.22 7.22 0 0 0 .47-7.07c-1.22-2.15-4.34-3.2-6.34-1.74a8.26 8.26 0 0 0 3.17-5.32 6 6 0 0 0-2.3-5.6 4.82 4.82 0 0 0-5.88.2c1.72-3.53 0-8-3.25-10.31s-7.42-2.62-11.29-2a9.55 9.55 0 0 0-4.89 1.95 4.3 4.3 0 0 0-1.34 4.8 12.15 12.15 0 0 0-22.35 8.28c-1.91-.62-3.91.73-5.15 2.31a12.49 12.49 0 0 0 4 18.76c-2.91 2.24-2.95 7.06-.53 9.83s6.6 3.54 10.14 2.58a6 6 0 0 0 8.72 7.31l.28-.18a46.15 46.15 0 0 0-5.07 13.44c-1.32 6.83-.61 13.86.1 20.78a30.44 30.44 0 0 0 1.49 7.78c1.5 4 6.5 13.33 9.48 16.35l69.35-51.33c.13-5.89-8.99-15.89-12.76-17.49z" style="fill:#263238"/><path d="m271 416-9.72-12.83-28.81 16.57c.87 1 22.71 33.3 30.72 32.79s71.34-40.64 71.34-40.64l2.47-25.43zM249.84 286c1.58-12.35-9.22-27.06-21.62-28.12l-40.86-.09-1.14 6.59L173 346.11s-1.43 20.51 21 23.28c20.13 2.48 22.85-12.37 22.85-12.38l2.76-16.53s17.38.2 23.28-17.4c3.3-9.89 5.2-23.37 6.95-37.08z" style="fill:#bc857a"/><path d="M242.64 297.91a2.65 2.65 0 0 1-3 2.15 2.53 2.53 0 0 1-2.23-2.87 2.65 2.65 0 0 1 3-2.15 2.54 2.54 0 0 1 2.23 2.87zM244.58 293.93c-.38.28-2.08-1.57-4.89-2.1s-5.13.48-5.37.07c-.12-.18.33-.73 1.35-1.21a7.32 7.32 0 0 1 4.38-.48 7 7 0 0 1 3.81 2.1c.74.83.91 1.5.72 1.62zM216 293.27a2.65 2.65 0 0 1-3 2.15 2.53 2.53 0 0 1-2.23-2.87 2.65 2.65 0 0 1 3-2.15 2.54 2.54 0 0 1 2.23 2.87zM216.9 289.14c-.39.28-2.09-1.56-4.89-2.1s-5.13.48-5.37.07c-.12-.18.32-.73 1.35-1.21a7.24 7.24 0 0 1 4.38-.47 7 7 0 0 1 3.81 2.09c.73.83.91 1.48.72 1.62z" style="fill:#263238"/><path d="M219.48 340.57a52.63 52.63 0 0 1-25.83-12.51s4.34 15.44 25.06 17.46z" style="fill:#8c5249"/><path d="M214.2 309.63c.46.06-.12 3.1 2.07 5.77s5.5 3 5.44 3.38c0 .2-.83.45-2.21.23a7.77 7.77 0 0 1-4.58-2.66 6.77 6.77 0 0 1-1.54-4.8c.13-1.29.62-1.98.82-1.92zM220.68 281.32c-.61 1.24-4.09-.08-8.46-.21s-8.09.74-8.42-.54c-.15-.61.69-1.72 2.31-2.72a11.93 11.93 0 0 1 6.64-1.66 10.8 10.8 0 0 1 6.22 2.23c1.4 1.14 2.03 2.31 1.71 2.9zM246.14 287.56c-.8 1-2.85-.59-5.57-1.17s-5.18-.24-5.49-1.49c-.13-.6.45-1.64 1.66-2.48a6.11 6.11 0 0 1 4.88-.93 6.49 6.49 0 0 1 4 3.07c.78 1.31.88 2.51.52 3z" style="fill:#263238"/><path d="M248.55 275.63s-3.19-10.38-8.41-8-10.68 3.48-13.82 1.21-9-6.33-17.63-5.09-12.77 8.44-14.53 20c-2.59 16.92-16.57 34.46-16.57 34.46s-8.16-7-6.34-17.38l.6-22.42s7.8-24.77 9.42-27.4 20.73-6.4 20.73-6.4 26.53-1.36 34.84 4.34c13.34 9.05 11.71 26.68 11.71 26.68z" style="fill:#263238"/><path d="M193 290.28c-.25-.23-10.66-7.68-14.42 4.28s9 13.28 9.15 12.94 5.27-17.22 5.27-17.22z" style="fill:#bc857a"/><path d="M185.51 301.82c0-.06-.25.08-.66.13a2.17 2.17 0 0 1-1.56-.46c-1.12-.86-1.56-3.2-.94-5.38a7.36 7.36 0 0 1 1.53-2.8 2.51 2.51 0 0 1 2.07-1.1 1.1 1.1 0 0 1 1.05 1c.05.39-.1.6 0 .64s.32-.11.38-.64a1.44 1.44 0 0 0-.24-.9 1.65 1.65 0 0 0-1-.66 3.05 3.05 0 0 0-2.76 1.17 7.3 7.3 0 0 0-1.78 3.1c-.68 2.44-.15 5.08 1.42 6.13a2.35 2.35 0 0 0 2 .28c.38-.23.53-.48.49-.51z" style="fill:#8c5249"/><path d="M223.24 310.78a14.17 14.17 0 0 1 2.76.22c.42 0 .91.12 1.36.15a1.42 1.42 0 0 0 1.18-.6 1.37 1.37 0 0 0 .25-.68 2.77 2.77 0 0 0-.09-.82 308.69 308.69 0 0 1-1.39-8.43 15.14 15.14 0 0 1-.29-2.75 14.24 14.24 0 0 1 .65 2.69c.34 1.66.77 4 1.22 6.53.1.64.21 1.26.31 1.87l.08.45a2.18 2.18 0 0 1 0 .51 1.88 1.88 0 0 1-.36.91 1.84 1.84 0 0 1-1.58.75c-.54-.06-1-.15-1.4-.22a15 15 0 0 1-2.7-.58z" style="fill:#263238"/><path d="M204.76 300.67c-.11.07-.27 0-.37-.14s-.11-.32 0-.39.27 0 .37.13.1.33 0 .4zM209.2 301.73c-.12 0-.15-.31-.07-.63s.24-.55.36-.52.15.31.07.63-.24.55-.36.52zM213.59 301.57c-.11 0-.16-.22-.1-.42s.2-.32.32-.29.16.23.1.42-.2.33-.32.29zM206.72 305.68c-.11.05-.29-.11-.4-.36s-.1-.5 0-.54.29.11.4.36.12.49 0 .54zM210.63 305.24c-.11-.05-.13-.25 0-.44s.25-.3.36-.25.13.24.05.43-.3.31-.41.26zM236.15 306.52c-.13 0-.24-.21-.36-.45s-.2-.47-.12-.56.37 0 .52.37.08.64-.04.64zM239.12 307c-.1-.07 0-.34.13-.62s.41-.45.51-.38.05.34-.13.62-.4.49-.51.38zM242 308.1c-.1-.06-.07-.3.07-.54s.35-.36.45-.3.07.31-.07.54-.34.36-.45.3zM236.14 311.44c-.11.05-.28-.07-.37-.26s-.08-.4 0-.45.27.06.37.26.11.39 0 .45zM239.24 311.15c-.11 0-.16-.21-.11-.38s.2-.27.31-.24.17.21.11.38-.19.28-.31.24zM223.65 305.83c-.11 0-.15-.29-.08-.58s.23-.51.35-.48.16.29.08.58-.23.51-.35.48zM231.24 305.3a.2.2 0 0 1-.23-.17.2.2 0 0 1 .2-.21.22.22 0 0 1 .24.17.21.21 0 0 1-.21.21zM222.88 301.14c-.12 0-.23-.15-.24-.36s.07-.38.19-.39.23.15.25.36-.08.38-.2.39zM217.08 303.94c-.12 0-.16-.24-.1-.46s.22-.37.33-.33.16.24.1.46-.21.39-.33.33zM223.72 294.13c-.12 0-.17-.24-.1-.45s.21-.38.33-.34.16.24.09.46-.21.37-.32.33z" style="fill:#8c5249"/><path d="M155.62 357.12 105.8 464.65h96.56l11-56.18 10.24 16.44 40.79-23.76s-34-54.63-39.93-58.87c-3.79-2.71-17.88-9.08-34.13-8.57a39.94 39.94 0 0 0-34.71 23.41z" style="fill:#455a64"/><path d="M205.57 448.28c0 .14-20.41.26-45.58.26s-45.59-.12-45.59-.26 20.41-.28 45.6-.28 45.57.13 45.57.28zM211.36 420.43a7.78 7.78 0 0 1-.85 0l-2.43-.13-8.93-.51c-7.54-.43-18-.95-29.49-1.33s-22-.53-29.52-.59l-8.95-.07h-2.43a4.29 4.29 0 0 1-.85-.05 6.23 6.23 0 0 1 .85-.06l2.43-.06c2.11 0 5.17-.09 8.95-.1 7.56 0 18 .07 29.54.44s21.95 1 29.49 1.48c3.77.26 6.82.49 8.93.68l2.42.22a4.38 4.38 0 0 1 .84.08zM205 392.15c0 .15-14.3-.37-31.93-1.15s-31.92-1.53-31.91-1.68 14.3.38 31.93 1.16S205 392 205 392.15zM258.21 388.78c.09.12-8.63 6.46-19.46 14.18s-19.68 13.87-19.75 13.75 8.63-6.46 19.47-14.18 19.66-13.87 19.74-13.75zM239.49 363c.07.12-8.37 4.85-18.84 10.56s-19 10.23-19.09 10.1 8.36-4.85 18.84-10.56 19.02-10.2 19.09-10.1zM226.91 344.85c0 .12-2.15-.2-5.59 0L220 345l-1.45.2c-1 .12-2.06.39-3.18.61a45.72 45.72 0 0 0-7 2.38 49.62 49.62 0 0 0-11.45 7.06c-.69.52-1.26 1.06-1.78 1.5s-1 .85-1.31 1.19a8.17 8.17 0 0 1-1.13 1 8 8 0 0 1 1-1.13c.33-.36.74-.79 1.25-1.26s1.06-1 1.74-1.58a46.61 46.61 0 0 1 11.48-7.25 43.56 43.56 0 0 1 7.11-2.37c1.13-.21 2.2-.47 3.23-.57.51-.06 1-.13 1.47-.17l1.37-.08a23.17 23.17 0 0 1 2.35 0 14.07 14.07 0 0 1 1.77.12 9.54 9.54 0 0 1 1.44.2zM194.06 365.57c0 .14-9.46-.15-21.12-.66s-21.11-1-21.11-1.18 9.47.15 21.13.66 21.11 1.03 21.1 1.18zM194.58 342.06c0 .14-6.1.3-13.63.35s-13.64 0-13.64-.17 6.1-.3 13.64-.35 13.63.03 13.63.17z" style="fill:#fafafa"/><path d="M205.22 337.23a20.9 20.9 0 0 0-3.1.95 15.08 15.08 0 0 0-6.51 5.76 20.22 20.22 0 0 0-3.05 12.47c.27 4.94 2 10.17 4.17 15.45 4.38 10.59 8.79 20 12.1 26.73 1.66 3.33 3 6 4 8l1.08 2.16a4.59 4.59 0 0 1 .35.77 7.12 7.12 0 0 1-.44-.72l-1.17-2.11c-1-1.85-2.43-4.54-4.13-7.89-3.4-6.71-7.87-16.09-12.26-26.7-2.18-5.3-3.91-10.6-4.16-15.63a20.36 20.36 0 0 1 3.23-12.69A14.88 14.88 0 0 1 202 338a9.08 9.08 0 0 1 1.33-.45 5.49 5.49 0 0 1 1-.22 5.27 5.27 0 0 1 .89-.1z" style="fill:#263238"/><path d="m235.37 421.56 82.76-19.13 55.44-113.27s26.36 15.24 23.17 39c-1.67 12.45-13.83 50.83-24.7 83.1a65.05 65.05 0 0 1-58.7 44.21l-90.74.29z" style="fill:#ff725e"/><path d="M352.58 440s-.59.72-1.83 2a35.49 35.49 0 0 1-6.17 4.69 60.3 60.3 0 0 1-11.13 5.2 64.66 64.66 0 0 1-16 3.28c-12.05 1.09-26.48 1.48-42.53 1.56s-33.75-.16-52.37-.71h-.36l.12-.34 1.86-5c3.77-10.08 7.44-19.9 10.93-29.22v-.13h.14l41.86-9.94 17.9-4.24c5.58-1.29 10.72-2.59 15.44-3.57a72.06 72.06 0 0 1 12.85-1.64A34.05 34.05 0 0 1 333 403c.63.2 1.25.34 1.79.56l1.53.6c.93.43 1.69.83 2.29 1.16s1 .65 1.33.85.43.3.43.3-.16-.08-.46-.26l-1.34-.82c-.61-.31-1.38-.7-2.3-1.11l-1.53-.57c-.54-.21-1.15-.34-1.78-.54a34.09 34.09 0 0 0-9.57-1 72 72 0 0 0-12.79 1.7c-4.7 1-9.85 2.32-15.42 3.63l-17.89 4.29-41.85 10 .18-.16-10.92 29.24-1.86 5-.23-.35c18.61.56 36.3.79 52.34.76s30.47-.4 42.5-1.45a64.68 64.68 0 0 0 15.9-3.19 60 60 0 0 0 11.13-5.1 36.71 36.71 0 0 0 6.2-4.6c.65-.59 1.09-1.11 1.41-1.43s.49-.51.49-.51z" style="fill:#263238"/><path d="M349.78 329.11a4.19 4.19 0 0 1-.31.76l-1 2.13c-.88 1.85-2.12 4.53-3.62 7.86-3 6.64-7 15.92-11.2 26.22s-8.09 19.63-11 26.33c-1.46 3.35-2.65 6.06-3.5 7.91q-.63 1.33-1 2.13a4.77 4.77 0 0 1-.38.73 4.69 4.69 0 0 1 .28-.77l.9-2.17 3.35-8c2.79-6.8 6.62-16.1 10.85-26.39s8.25-19.56 11.35-26.18c1.54-3.31 2.84-6 3.77-7.78.45-.88.81-1.57 1.07-2.09a6.84 6.84 0 0 1 .44-.69z" style="fill:#263238"/><path d="M365.5 329.2a26.73 26.73 0 0 1 2.64-1.09 38.18 38.18 0 0 0 6.07-3.16 39.81 39.81 0 0 0 5.38-4.23c1.28-1.21 2-2 2.07-2a11 11 0 0 1-1.81 2.23 31.11 31.11 0 0 1-5.36 4.4 30.22 30.22 0 0 1-6.21 3.08 10.85 10.85 0 0 1-2.78.77z" style="fill:#fafafa"/><path d="M384.42 317.89c.07.13-.84.81-2 1.53a6.41 6.41 0 0 1-2.31 1.08 12.39 12.39 0 0 1 4.35-2.61z" style="fill:#fafafa"/><path d="M383.27 316.87c.1.1-.48.82-1.18 1.7s-1.26 1.6-1.39 1.52.26-.94 1-1.85 1.47-1.47 1.57-1.37z" style="fill:#fafafa"/><path d="M381.69 316.24a4.47 4.47 0 0 1-.43 2.11 4.75 4.75 0 0 1-.92 1.95 4.46 4.46 0 0 1 .43-2.11c.37-1.13.79-2 .92-1.95zM379.86 316.3c.14 0 .32.82.4 1.87s0 1.9-.11 1.91-.32-.83-.41-1.87-.03-1.9.12-1.91zM374.12 319c.06 0 .28.44.41 1.24a7.07 7.07 0 0 1-1.9 5.85c-.57.58-1 .81-1.06.77a12.41 12.41 0 0 0 2.18-3.64 12.54 12.54 0 0 0 .37-4.22z" style="fill:#fafafa"/><path d="M375.41 316.8c.14 0 .07.87-.31 1.83s-.91 1.61-1 1.54.18-.82.54-1.73.63-1.67.77-1.64z" style="fill:#fafafa"/><path d="M373.89 316.35c.13-.05.54.7.58 1.74s-.32 1.81-.45 1.77 0-.81-.07-1.75-.2-1.71-.06-1.76z" style="fill:#fafafa"/><path d="M372 317c.11-.09.66.38 1.23 1.06s.95 1.3.84 1.39-.66-.38-1.23-1.05-1-1.31-.84-1.4z" style="fill:#fafafa"/><path d="M371.75 319.11c0-.14.65-.16 1.41 0s1.34.34 1.32.48-.65.16-1.41 0-1.34-.34-1.32-.48zM380.64 326.53a24.78 24.78 0 0 0-4.13-.53 25.55 25.55 0 0 0-4.11.68 8.11 8.11 0 0 1 8.24-.15z" style="fill:#fafafa"/><path d="M383.41 324.23c.08.11-.62.71-1.62 1.22s-1.9.73-2 .59.73-.56 1.71-1.05 1.83-.89 1.91-.76zM383.74 327.09c0 .14-.87 0-1.88-.18s-1.84-.37-1.83-.51.88-.19 1.92 0 1.84.6 1.79.69zM381.78 329.57c-.14.05-.47-.63-1-1.39s-1-1.35-.88-1.46.77.34 1.31 1.17.71 1.64.57 1.68zM379.15 329.32c-.13-.07.1-.68.12-1.46s-.14-1.4 0-1.46.57.57.53 1.48-.53 1.52-.65 1.44zM369.39 379.7a25.61 25.61 0 0 1-1.52-2.41 38.82 38.82 0 0 0-4.16-5.44 39.94 39.94 0 0 0-5.08-4.58 27.64 27.64 0 0 1-2.29-1.7 10.85 10.85 0 0 1 2.5 1.4 30.47 30.47 0 0 1 9.34 10.13 11.46 11.46 0 0 1 1.21 2.6z" style="fill:#fafafa"/><path d="M355 363c.11-.1.94.69 1.85 1.75s1.57 2 1.46 2.08-.94-.68-1.85-1.74A6.33 6.33 0 0 1 355 363z" style="fill:#fafafa"/><path d="M354.21 364.31c.08-.12.89.32 1.87.86s1.79 1 1.74 1.12-1-.1-2-.66-1.7-1.21-1.61-1.32z" style="fill:#fafafa"/><path d="M353.85 366a4.46 4.46 0 0 1 2.15 0 4.71 4.71 0 0 1 2.08.58 4.69 4.69 0 0 1-2.16-.07 4.63 4.63 0 0 1-2.07-.51zM354.23 367.76c0-.14.76-.46 1.77-.72s1.87-.35 1.9-.21-.75.46-1.77.72-1.87.35-1.9.21zM357.86 373c0-.06.38-.36 1.15-.62a7.08 7.08 0 0 1 6.09.87c.67.47 1 .87.93.92a12.34 12.34 0 0 0-3.95-1.53 12.53 12.53 0 0 0-4.22.36z" style="fill:#fafafa"/><path d="M355.48 372.06c0-.15.85-.22 1.86 0s1.74.61 1.69.75-.84 0-1.8-.25-1.75-.36-1.75-.5z" style="fill:#fafafa"/><path d="M355.3 373.63c-.08-.12.59-.65 1.61-.86s1.84 0 1.82.14-.79.17-1.71.37-1.65.48-1.72.35z" style="fill:#fafafa"/><path d="M356.26 375.44c-.11-.09.27-.72.83-1.4s1.12-1.16 1.23-1.06-.26.71-.83 1.39-1.12 1.16-1.23 1.07z" style="fill:#fafafa"/><path d="M358.38 375.27c-.14 0-.27-.62-.27-1.38s.1-1.38.24-1.38.27.61.28 1.38-.1 1.38-.25 1.38zM364.18 365.25a23.85 23.85 0 0 0 .18 4.16 26.13 26.13 0 0 0 1.37 3.93 6.68 6.68 0 0 1-1.88-3.83 6.55 6.55 0 0 1 .33-4.26z" style="fill:#fafafa"/><path d="M361.43 362.91c.1-.1.81.49 1.49 1.39s1 1.75.91 1.82-.67-.63-1.33-1.51-1.18-1.61-1.07-1.7zM364.2 362.09c.14 0 .16.86.14 1.89s0 1.87-.19 1.89-.34-.83-.33-1.89.24-1.91.38-1.89zM367 363.6c.07.13-.54.58-1.21 1.2s-1.16 1.19-1.28 1.12.2-.83.93-1.5 1.48-.94 1.56-.82zM367.18 366.23c-.05.14-.69 0-1.46.14s-1.35.38-1.44.25.47-.65 1.37-.77 1.59.26 1.53.38zM319.62 438.19a27.83 27.83 0 0 1-1.52-2.42 37.86 37.86 0 0 0-4.16-5.43 37.24 37.24 0 0 0-5.08-4.58 26.13 26.13 0 0 1-2.29-1.71 11 11 0 0 1 2.5 1.41 30.46 30.46 0 0 1 9.35 10.12 10.54 10.54 0 0 1 1.2 2.61z" style="fill:#fafafa"/><path d="M305.25 421.48c.11-.09.94.69 1.86 1.75a6.39 6.39 0 0 1 1.45 2.09c-.11.09-.93-.69-1.85-1.75s-1.57-1.99-1.46-2.09z" style="fill:#fafafa"/><path d="M304.44 422.79c.09-.12.89.33 1.87.87s1.8 1 1.74 1.11-1-.1-2-.66-1.7-1.21-1.61-1.32zM304.09 424.45a9.19 9.19 0 0 1 4.23.64 4.46 4.46 0 0 1-2.16-.06c-1.16-.18-2.1-.44-2.07-.58zM304.46 426.25c0-.14.76-.46 1.77-.72s1.87-.36 1.91-.22-.76.47-1.78.72-1.87.36-1.9.22zM308.09 431.44c0-.05.38-.35 1.15-.61a6.86 6.86 0 0 1 3.15-.26 7 7 0 0 1 2.95 1.13c.66.47 1 .87.93.91a12.59 12.59 0 0 0-3.95-1.53 12.93 12.93 0 0 0-4.23.36z" style="fill:#fafafa"/><path d="M305.72 430.54c0-.14.84-.21 1.85 0s1.75.62 1.69.75-.84 0-1.8-.24-1.75-.36-1.74-.51z" style="fill:#fafafa"/><path d="M305.53 432.12c-.08-.12.6-.66 1.61-.87s1.85 0 1.83.14-.8.17-1.72.37-1.65.49-1.72.36z" style="fill:#fafafa"/><path d="M306.5 433.93c-.11-.1.26-.72.83-1.4s1.12-1.16 1.23-1.07-.26.72-.83 1.4-1.12 1.14-1.23 1.07z" style="fill:#fafafa"/><path d="M308.62 433.76c-.15 0-.27-.62-.28-1.38s.1-1.38.24-1.39.27.62.28 1.38-.1 1.39-.24 1.39zM314.41 423.73a25.06 25.06 0 0 0 .18 4.16 24.21 24.21 0 0 0 1.38 3.94 8.09 8.09 0 0 1-1.56-8.1z" style="fill:#fafafa"/><path d="M311.66 421.39c.11-.1.82.49 1.49 1.4s1 1.75.92 1.82-.68-.64-1.34-1.51-1.17-1.61-1.07-1.71zM314.43 420.58c.15 0 .16.86.15 1.89s-.05 1.87-.2 1.88-.34-.83-.32-1.89.23-1.9.37-1.88zM317.21 422.09c.07.13-.54.57-1.21 1.2s-1.15 1.19-1.28 1.11.2-.82.93-1.49 1.5-.91 1.56-.82zM317.41 424.72c-.05.14-.69 0-1.45.13s-1.36.38-1.44.26.46-.65 1.37-.77 1.58.25 1.52.38zM344 421.87a25.14 25.14 0 0 1 1.93-2.11 36.92 36.92 0 0 0 7.21-11.56 25 25 0 0 1 1-2.65 10.74 10.74 0 0 1-.7 2.78 30.34 30.34 0 0 1-7.22 11.67 11.27 11.27 0 0 1-2.22 1.87z" style="fill:#fafafa"/><path d="M356.34 403.59a6.41 6.41 0 0 1-1.2 2.25c-.78 1.16-1.51 2-1.63 2a6.41 6.41 0 0 1 1.2-2.25c.78-1.2 1.51-2.08 1.63-2z" style="fill:#fafafa"/><path d="M354.86 403.15c.14.06-.08 1-.34 2s-.47 2-.61 2a3.56 3.56 0 0 1 .11-2.09c.26-1.12.71-1.96.84-1.91z" style="fill:#fafafa"/><path d="M353.17 403.25a8.92 8.92 0 0 1 .5 4.26 4.72 4.72 0 0 1-.51-2.1 4.5 4.5 0 0 1 .01-2.16zM351.53 404.09c.13-.07.65.61 1.17 1.52s.83 1.71.71 1.78-.65-.61-1.17-1.52-.83-1.71-.71-1.78zM347.48 409s.45.27.9.94a7 7 0 0 1 .77 6.11c-.27.76-.58 1.17-.63 1.14a12.61 12.61 0 0 0 .43-4.22 12.23 12.23 0 0 0-1.47-3.97z" style="fill:#fafafa"/><path d="M347.73 406.44c.13 0 .43.76.49 1.78s-.14 1.85-.28 1.84-.18-.83-.24-1.81-.12-1.78.03-1.81z" style="fill:#fafafa"/><path d="M346.16 406.67c.09-.1.79.41 1.26 1.33s.48 1.78.35 1.79-.38-.72-.82-1.55-.9-1.46-.79-1.57z" style="fill:#fafafa"/><path d="M344.67 408.08c.06-.13.76.07 1.57.43s1.41.78 1.35.91-.76-.06-1.57-.43-1.41-.78-1.35-.91z" style="fill:#fafafa"/><path d="M345.39 410.08c0-.14.53-.42 1.26-.63s1.36-.27 1.4-.13-.52.42-1.26.63-1.36.27-1.4.13zM356.59 413a24.3 24.3 0 0 0-4 1.27 25.19 25.19 0 0 0-3.43 2.37 8.1 8.1 0 0 1 7.39-3.64z" style="fill:#fafafa"/><path d="M358.12 409.75c.12.08-.26.92-.95 1.8s-1.41 1.47-1.51 1.37.43-.82 1.1-1.69 1.24-1.55 1.36-1.48zM359.64 412.21c0 .14-.79.38-1.78.64s-1.82.44-1.88.31.72-.55 1.74-.82 1.9-.27 1.92-.13zM358.92 415.28c-.11.11-.7-.36-1.48-.84s-1.45-.8-1.41-.95.84 0 1.69.51 1.28 1.19 1.2 1.28zM356.43 416.18c-.15 0-.2-.66-.51-1.37s-.72-1.21-.63-1.32.75.27 1.11 1.11.17 1.6.03 1.58zM255.78 441.83a26.25 26.25 0 0 1 1.93-2.1 39.14 39.14 0 0 0 4.14-5.45 38.58 38.58 0 0 0 3.07-6.11 25.89 25.89 0 0 1 1-2.66 10.64 10.64 0 0 1-.7 2.78A30.14 30.14 0 0 1 258 440a10.51 10.51 0 0 1-2.22 1.83z" style="fill:#fafafa"/><path d="M268.09 423.56a6.41 6.41 0 0 1-1.2 2.25c-.78 1.16-1.51 2-1.63 2a6.62 6.62 0 0 1 1.2-2.25c.78-1.2 1.54-2.08 1.63-2z" style="fill:#fafafa"/><path d="M266.61 423.12c.14.05-.08.94-.34 2s-.46 2-.61 2a3.56 3.56 0 0 1 .11-2.09c.23-1.12.71-1.96.84-1.91z" style="fill:#fafafa"/><path d="M264.92 423.22a8.86 8.86 0 0 1 .5 4.25 8.86 8.86 0 0 1-.5-4.25zM263.28 424.05c.13-.07.65.61 1.17 1.52s.83 1.71.71 1.78-.65-.61-1.17-1.52-.83-1.71-.71-1.78zM259.23 428.93s.45.27.9.95a7 7 0 0 1 .77 6.1c-.27.77-.58 1.17-.63 1.14a12.52 12.52 0 0 0 .43-4.21 12.35 12.35 0 0 0-1.47-3.98z" style="fill:#fafafa"/><path d="M259.48 426.4c.13 0 .43.76.49 1.79s-.14 1.85-.28 1.83-.18-.82-.24-1.8-.12-1.79.03-1.82z" style="fill:#fafafa"/><path d="M257.91 426.64c.09-.11.79.4 1.26 1.32s.48 1.78.35 1.8-.38-.72-.82-1.56-.9-1.46-.79-1.56z" style="fill:#fafafa"/><path d="M256.42 428.05c.06-.13.76.06 1.57.43s1.41.77 1.35.9-.76-.06-1.57-.43-1.41-.77-1.35-.9z" style="fill:#fafafa"/><path d="M257.14 430.05c0-.14.53-.42 1.26-.63s1.36-.27 1.4-.13-.52.42-1.26.63-1.36.26-1.4.13zM268.34 433a25 25 0 0 0-4 1.28 24.65 24.65 0 0 0-3.43 2.36 8.1 8.1 0 0 1 7.39-3.64zM269.87 429.72c.12.07-.26.91-.95 1.8s-1.41 1.46-1.51 1.36.43-.82 1.1-1.68 1.24-1.56 1.36-1.48z" style="fill:#fafafa"/><path d="M271.39 432.17c0 .14-.79.38-1.78.64s-1.82.45-1.88.31.72-.55 1.74-.81 1.9-.31 1.92-.14zM270.67 435.25c-.11.1-.7-.37-1.48-.85s-1.45-.8-1.41-.94.85 0 1.69.5 1.3 1.2 1.2 1.29zM268.18 436.14c-.14 0-.2-.66-.51-1.37s-.72-1.2-.63-1.32.75.27 1.11 1.12.17 1.6.03 1.57z" style="fill:#fafafa"/><path d="M138 375.13a10.84 10.84 0 0 0-3.77 11.1c1.67 7.21 11.38 29.42 11.38 29.42s9.72 13 13.33 13.87 12.48 1.11 12.48 1.11 1.11-2.22-1.94-2.77-8.32-4.72-8.32-4.72l-6.99-9.14s10.27 8.33 13.6 9.44 16.37 1.66 16.37 1.66l5.27-10-3-6.38-8.05-4.17-12.26-12.49v-4.72l9 6.38s7.15 5 11.53 1.11l-7.77-6.38s-10.83-11.94-13.6-13.32-13.53-3.89-13.53-3.89z" style="fill:#ffbe9d"/><path d="M186.19 420.37a5.67 5.67 0 0 1-1.22.23 12.32 12.32 0 0 1-1.44.14c-.57 0-1.22.08-1.93 0a27.76 27.76 0 0 1-5-.53 28.76 28.76 0 0 1-11.2-4.93 27.64 27.64 0 0 1-3.77-3.32c-.51-.5-.9-1-1.27-1.45a11.6 11.6 0 0 1-.87-1.16 5.44 5.44 0 0 1-.66-1.06c.09-.06 1.07 1.42 3.07 3.41a29 29 0 0 0 3.78 3.19 32.76 32.76 0 0 0 5.27 3 33.93 33.93 0 0 0 5.75 1.87 31 31 0 0 0 4.91.64c2.82.14 4.57-.14 4.58-.03zM187.59 417.33a6.13 6.13 0 0 1-1.24-.18c-.79-.15-1.93-.38-3.34-.72a32.26 32.26 0 0 1-10.44-4.25A23.19 23.19 0 0 1 168 408c-1.24-1.45-2.28-2.81-3.2-3.91s-1.7-2-2.26-2.54a8 8 0 0 1-.86-.91 5 5 0 0 1 1 .76 28.54 28.54 0 0 1 2.4 2.45l3.29 3.83a23.45 23.45 0 0 0 4.52 4.11 34.68 34.68 0 0 0 10.24 4.33l3.29.87a5.36 5.36 0 0 1 1.17.34z" style="fill:#eb996e"/><path d="M196.14 389.51a1.69 1.69 0 0 0-2.66 1.15 14.16 14.16 0 0 0 .14 4.87c.81 3.54 7.06 7.52 7.06 7.52l9.22 9.37-12.61.05-7.35 9.14 1.64 6.54 9.79 23 22.35 1.63 11.16-29.87s-16.64-21.29-18.54-22.11-10.61-4.35-10.61-4.35z" style="fill:#ffbe9d"/><path d="M210 410.4a2.74 2.74 0 0 1 0 1.45 7.48 7.48 0 0 1-1.38 3.2 7.6 7.6 0 0 1-2.68 2.25 2.76 2.76 0 0 1-1.38.4 12 12 0 0 0 3.64-3 11.79 11.79 0 0 0 1.8-4.3z" style="fill:#eb996e"/><path d="M531.35 191.69c0-3.08 3-7 5.49-8.84a20.51 20.51 0 0 1 8.46-3.44 43.44 43.44 0 0 1 42.27 15.89c2 2.63 3.74 5.65 3.88 9s-1.8 6.87-5 7.68a7.07 7.07 0 0 1-.68 12.46c1.52 4.45-.95 9.26-3.89 12.92-11.44 14.27-30.57 20.76-48.85 20.53-6.24-.08-12.76-1-17.86-4.55-7.41-5.21-10.14-14.82-11.57-23.77a4 4 0 0 1-5 2.35 5.4 5.4 0 0 1-3.32-4.82 8.78 8.78 0 0 1 2-5.73 10.07 10.07 0 0 1-4.07.72 3.43 3.43 0 0 1-3.09-2.39 3.79 3.79 0 0 1 1.67-3.55c1.08-.86 2.39-1.39 3.5-2.21 4.13-3 4.44-9 6.35-13.71a19.55 19.55 0 0 1 29.71-8.5" style="fill:#263238"/><path d="M580.14 215.57c-2.21-12-16.68-22.5-28.57-19.78l-38.16 12.11.91 6.48 12.06 80.22s6.47 25.57 28.2 21.46c19.53-3.69 15.95-24.36 15.95-24.37l-1.77-11.28s15.13-4.41 15.92-24.94c.39-10.21-2.08-26.57-4.54-39.9z" style="fill:#ffbe9d"/><path d="M573.72 232.38a2.6 2.6 0 0 1-2.18 2.9 2.48 2.48 0 0 1-2.94-2 2.6 2.6 0 0 1 2.17-2.9 2.49 2.49 0 0 1 2.95 2zM577.68 225.29c-.28.38-2.41-.84-5.19-.5s-4.65 2-5 1.67c-.16-.13.09-.78.9-1.53a7.16 7.16 0 0 1 4-1.75 6.87 6.87 0 0 1 4.18.81c.88.56 1.25 1.13 1.11 1.3zM548.38 235.69a2.61 2.61 0 0 1-2.18 2.91 2.5 2.5 0 0 1-2.94-2 2.6 2.6 0 0 1 2.17-2.91 2.49 2.49 0 0 1 2.95 2zM550.89 229.4c-.28.38-2.41-.84-5.19-.5s-4.65 2-5 1.67c-.17-.13.08-.77.9-1.53a7.09 7.09 0 0 1 3.94-1.75 6.85 6.85 0 0 1 4.18.81c.94.56 1.28 1.13 1.17 1.3zM562.9 247.78c0-.14 1.67-.61 4.44-1.27.7-.15 1.36-.35 1.43-.78s-.25-1.07-.67-1.72l-2.61-4.32c-3.64-6.16-6.35-11.26-6-11.4s3.49 4.75 7.13 10.9q1.33 2.28 2.53 4.36a3 3 0 0 1 .63 2.32 1.79 1.79 0 0 1-1.07 1 5.83 5.83 0 0 1-1.19.29 21.52 21.52 0 0 1-4.62.62z" style="fill:#263238"/><path d="M568.76 280.41a51.61 51.61 0 0 1-27.84-4s8.67 13.11 28.6 8.8z" style="fill:#eb996e"/><path d="M555.32 248c.44-.08.81 2.94 3.65 4.77s6 1.11 6.09 1.53c.06.19-.65.67-2 .87a7.54 7.54 0 0 1-5.06-1.11 6.53 6.53 0 0 1-2.87-4c-.27-1.24-.02-2.06.19-2.06zM550.91 223.68c-.26 1-3.06.59-6.34 1.19s-5.9 1.84-6.36.94c-.2-.43.24-1.39 1.29-2.39a9.14 9.14 0 0 1 4.68-2.3 8.23 8.23 0 0 1 5 .67c1.21.62 1.82 1.41 1.73 1.89zM576.66 218.54c-.35 1.08-3 .87-5.95 1.69s-5.17 2.19-6 1.42c-.39-.38-.27-1.39.55-2.56a7.85 7.85 0 0 1 4.38-2.9 7.94 7.94 0 0 1 5.26.4c1.29.61 1.9 1.41 1.76 1.95z" style="fill:#263238"/><path d="M545.34 245.39c-.07.1-.24.09-.38 0s-.2-.27-.12-.36.24-.09.38 0 .19.27.12.36zM549.81 245.06c-.12 0-.24-.24-.26-.57s.07-.59.18-.59.24.24.26.57-.07.59-.18.59zM553.86 243.6c-.12 0-.22-.16-.22-.36s.09-.36.21-.36.22.15.22.35-.07.37-.21.37zM548.68 249.49c-.09.08-.31 0-.49-.22s-.24-.43-.15-.51.3 0 .48.22.25.43.16.51zM552.19 247.9c-.12 0-.2-.18-.18-.39s.14-.35.26-.34.2.19.17.39-.13.36-.25.34zM576.38 241.49c-.11 0-.28-.13-.46-.32s-.33-.38-.28-.49.35-.06.6.2.25.57.14.61zM579.32 241.08c-.12 0-.15-.3-.07-.62s.25-.53.36-.5.15.3.06.61-.24.54-.35.51zM582.32 241.21c-.12 0-.16-.26-.09-.52s.21-.44.32-.42.16.27.1.53-.21.44-.33.41zM577.84 246.08c-.08.08-.27 0-.42-.14s-.19-.34-.11-.42.28 0 .43.13.19.35.1.43zM580.65 244.88c-.12 0-.21-.14-.21-.32s.1-.31.22-.31.21.14.21.32-.1.31-.22.31zM564.52 244.57c-.12 0-.23-.22-.25-.52s.06-.55.18-.55.23.22.25.52-.06.55-.18.55zM571.44 241.81a.21.21 0 0 1-.27-.09.22.22 0 0 1 .4-.16.2.2 0 0 1-.13.25zM562.4 240.42c-.11.05-.26-.07-.34-.26s0-.38.07-.42.26.07.34.26.04.38-.07.42zM557.82 244.77c-.12 0-.22-.17-.22-.4s.08-.41.2-.41.22.18.23.4-.09.41-.21.41zM561.09 233.64c-.12 0-.23-.18-.23-.4s.08-.41.2-.41.23.17.23.4-.08.41-.2.41z" style="fill:#eb996e"/><path d="M518.93 237.64c-.4-.1-15.92-2.12-13.07 13s17.39 9.1 17.33 8.66-4.26-21.66-4.26-21.66z" style="fill:#ffbe9d"/><path d="M518.84 254.2c-.07 0-.22.23-.63.52a2.63 2.63 0 0 1-2 .41c-1.71-.28-3.52-2.55-4.11-5.26a8.78 8.78 0 0 1 0-3.89 3.07 3.07 0 0 1 1.6-2.39 1.34 1.34 0 0 1 1.68.42c.28.39.24.71.33.72s.27-.32 0-.92a1.74 1.74 0 0 0-.71-.81 2.06 2.06 0 0 0-1.52-.11 3.75 3.75 0 0 0-2.3 2.86 9.14 9.14 0 0 0-.12 4.37c.67 3 2.77 5.57 5.06 5.78a2.86 2.86 0 0 0 2.33-.85c.44-.48.45-.83.39-.85z" style="fill:#eb996e"/><path d="M578.08 200c-2.92-3.94-7.84-6-12.71-6.59s-9.81.2-14.66 1l-40.87 9.42 3.31 33 4.31 4.84 3.65 2.89c3.95-1.94 7.58-7.84 7-14.3a14.25 14.25 0 0 0 9.11-8.67 18.77 18.77 0 0 0-.09-12.76 14 14 0 0 0 8.67 6.73 9 9 0 0 0 4.44.14c4.13-1.05 6.26-6.7 3.84-10.21a29.25 29.25 0 0 0 14.58 7.6c3.32.64 7.16.54 9.55-1.84 2.93-2.88 2.3-7.95-.13-11.25z" style="fill:#263238"/><path d="M641.07 379.07c4.54 1.61 9.72-1.24 12.22-5.36s2.9-9.15 2.92-14c0-2.51.45-5.74 2.89-6.35 1.58-.4 3.16.62 4.36 1.73a21.21 21.21 0 1 1-29.18 30.77" style="fill:#455a64"/><path d="m604.43 292.42-34.31-4.1c-12.14 8.88-27.31 5.55-44.13.13l-34.91 13.95 25 104-5.18 58.83 122.05-.57-11.43-131.9z" style="fill:#ff725e"/><path d="M533.9 312.24c4.55 5.84 11.92 10 17.29 15.42 2.69 2.71 9.06 5.65 12.39 7.5a29.66 29.66 0 0 0 7.79 2.55q9.87 2.31 19.55 5.27c2.7.82 5.47 1.72 7.63 3.53a19.43 19.43 0 0 1 3.56 4.26c4.55 6.78 13.06 14 10.91 21.85-.39 1.43-3.57 14.4-3.57 14.4l-66.83 21-32.06-64.32-2.17-29.21z" style="fill:#455a64"/><path d="M494.07 299.84s-16.44 7.81-17.46 22.71c-.88 12.93 3.53 44.57 6.19 58.79 3.31 17.72 13.57 32.26 21.22 33.89s64.34-19.88 64.34-19.88l27.14-10.08-13.5-26.59s-54.87 17.61-57 16.13-31-75-31-75z" style="fill:#ff725e"/><path d="M542.62 408c-.74-.12-.51 20.48.67 26s88.38-13.48 96.79-22.52 5.1-22.7 5.1-22.7l-12.1-62.85c-4.05-16.21-9.65-28.57-24.31-32.38l-4.34-1.13 3.35 42.22 3.86 51.18z" style="fill:#ff725e"/><path d="M623.66 393.17a13.74 13.74 0 0 0-2.27-2.49 15.06 15.06 0 0 0-8.44-3.17 23.6 23.6 0 0 0-6.3.48 63.11 63.11 0 0 0-7 1.94l-16 5.21-29.06 9.36-8.83 2.78-2.41.73a4 4 0 0 1-.85.22s.28-.12.82-.32l2.38-.82 8.77-2.94 29-9.5 16-5.17a60.53 60.53 0 0 1 7.1-1.92 24.34 24.34 0 0 1 6.42-.42 14.9 14.9 0 0 1 8.54 3.39 10.72 10.72 0 0 1 1.7 1.88c.13.22.25.4.34.56s.1.19.09.2z" style="fill:#263238"/><path d="M607.89 358.28c.71-2.78-1.52-6.62-3-5.44-.22.18 4.28-8.21-1.84-8.62a4.69 4.69 0 0 0-1.43.22 14.65 14.65 0 0 0-5.19 2.63c-1 .79-2.2 1.32-2-.82a10.38 10.38 0 0 0-2.65-8.22c-.81-.81-2.83.75-2.58 4.43a16.06 16.06 0 0 1-3 10.38c-1.22 1.93-2.72 8.87-2.72 8.87l10.5 21s12.66-7.54 14-17c.69-5.06-.76-4.83-.09-7.43z" style="fill:#ffbe9d"/><path d="M675.91 373c-.09 0 0-1.23-.06-3.21a34 34 0 0 0-1.13-7.6 34.51 34.51 0 0 0-2.84-7.14c-.94-1.74-1.63-2.76-1.56-2.81s.23.21.57.66a22.12 22.12 0 0 1 1.31 2 29 29 0 0 1 4 14.92 20.68 20.68 0 0 1-.15 2.36 2.61 2.61 0 0 1-.14.82zM683.15 371.13c-.09 0 .28-1.39.53-3.65a31.74 31.74 0 0 0 .17-4 33.23 33.23 0 0 0-.51-4.84A34.48 34.48 0 0 0 682 354a32.29 32.29 0 0 0-1.61-3.63c-1.06-2-1.91-3.15-1.83-3.2a3.39 3.39 0 0 1 .65.75 20.19 20.19 0 0 1 1.5 2.27 27.15 27.15 0 0 1 1.74 3.64 30.05 30.05 0 0 1 1.36 4.76 30.5 30.5 0 0 1 .48 4.93 26.23 26.23 0 0 1-.29 4 19.42 19.42 0 0 1-.56 2.66 3.52 3.52 0 0 1-.29.95zM656.24 344.9a39.65 39.65 0 0 0-5.64 4.87 39.2 39.2 0 0 0-4.17 6.17 6.77 6.77 0 0 1 .78-2.07 20.26 20.26 0 0 1 3-4.44 20.6 20.6 0 0 1 4.06-3.51 7.14 7.14 0 0 1 1.97-1.02zM656.24 339.89a24.94 24.94 0 0 0-5.53 1.79 24.13 24.13 0 0 0-4.64 3.49 11.87 11.87 0 0 1 10.17-5.28z" style="fill:#263238"/><path d="M663.44 356.22a19.38 19.38 0 0 0 2.21 24.5c.34.35.79.72 1.26.59a1.43 1.43 0 0 0 .78-.8 20.93 20.93 0 0 0-3.69-24.73M586.53 341.67c1 2.83.52 5-.73 7.71a11.91 11.91 0 0 1-6.37 6 6.84 6.84 0 0 1-4.75.31 3.75 3.75 0 0 1-2.57-3.72c.18-1.49 1.48-2.92.93-4.32-.46-1.17-1.92-1.51-2.89-2.31a4.71 4.71 0 0 1-1.51-3.85 13.9 13.9 0 0 1 1-4.14z" style="fill:#ebebeb"/><path d="M606.67 320.6a3.37 3.37 0 0 1 .08.66c0 .49.07 1.12.12 1.9.13 1.71.3 4.09.51 7 .46 5.9 1.22 14 2 23s1.52 17.15 1.89 23.06c.19 3 .3 5.35.34 7v1.91a2.82 2.82 0 0 1 0 .66 3.55 3.55 0 0 1-.08-.66c0-.49-.07-1.12-.12-1.9-.12-1.72-.3-4.09-.51-7-.46-5.9-1.22-14-2-23s-1.52-17.14-1.89-23.05c-.19-3-.29-5.35-.34-7v-1.91a2.82 2.82 0 0 1 0-.67z" style="fill:#263238"/><path d="M490.37 321.6a6.86 6.86 0 0 0 .78 8.8c1 .94 2.3 1.59 3 2.74 1.53 2.41-.13 5.58.24 8.41.79 6 9.56 7.49 11.83 13.08 1.61 4-.65 8.33-2.56 12.16-2.64 5.29-4.77 11.09-4.34 17s4 11.88 9.6 13.67a13 13 0 0 0 10.6-1.46 16.38 16.38 0 0 0 6.73-8.41c2.09 2.54 4.53 4.94 7.6 6.11s6.9.84 9.19-1.52c2.65-2.74 2.51-7.16 4.47-10.43 2.17-3.62 6.46-5.23 10.16-7.27s7.42-5.57 6.78-9.75a95.77 95.77 0 0 0-22 5.58c-4.64 1.78-9.84 3.94-14.38 1.9-3.87-1.75-5.86-6-7.54-9.86q-5-11.58-10-23.14c-4-9.29-8.59-19.23-17.45-24.13" style="opacity:.30000000000000004"/><path d="M514.65 350.3c.45 2.54 3.32 8.31 3.67 10.47.47 2.85-1.55 4.65-3.58 6.72-4.06 4.14-7.86 8.81-9.46 14.39s-.55 12.24 3.86 16a8 8 0 0 0 6.56 2.1 7.64 7.64 0 0 0 5.5-5.4c.8-2.58.23-4.81-.37-7.44a9.12 9.12 0 0 1 .12-4.81c.6-1.54 2.23-2.35 3.66-3.16a30 30 0 0 0 10.79-10.4l-2.83 1.1a8.52 8.52 0 0 0 1.48-4.71c-.29.78-.58 1.56-.88 2.33a27.33 27.33 0 0 0-7-14.76" style="fill:#455a64"/><path d="m525.92 352.84.18.19.51.61c.43.54 1.06 1.36 1.78 2.47a32.09 32.09 0 0 1 4.34 10.48h-.31l1.35-2.14.33-.52v.62a11.85 11.85 0 0 1-1.63 6.09l-.26-.29 2.52-1.14.54-.25-.26.53a19.61 19.61 0 0 1-4.9 6.26 29 29 0 0 1-3.42 2.52c-1.21.8-2.56 1.44-3.75 2.26a5.3 5.3 0 0 0-1.52 1.5 4.1 4.1 0 0 0-.61 2 18 18 0 0 0 .55 4.56 13.69 13.69 0 0 1 .26 4.83 8.7 8.7 0 0 1-1.92 4.58 7 7 0 0 1-5.94 2.34 8.6 8.6 0 0 1-5.51-2.93 16.76 16.76 0 0 1-4-11 18.7 18.7 0 0 1 3-10.14c.93-1.41 1.95-2.62 2.85-3.88A36.67 36.67 0 0 1 513 369c1.94-2.05 4.1-3.59 4.92-5.67a4.4 4.4 0 0 0 .15-3 17.83 17.83 0 0 0-.83-2.47c-.59-1.46-1-2.6-1.29-3.4a6.71 6.71 0 0 1-.29-1.24s.11.42.39 1.21.76 1.9 1.38 3.35a18.85 18.85 0 0 1 .88 2.49 4.58 4.58 0 0 1-.12 3.15 9.24 9.24 0 0 1-2.07 3c-.89.93-1.91 1.81-2.86 2.84a36.08 36.08 0 0 0-2.79 3.41c-.89 1.25-1.93 2.51-2.82 3.87a18.39 18.39 0 0 0-2.92 9.91 16.28 16.28 0 0 0 3.87 10.61 8.05 8.05 0 0 0 5.17 2.76 6.58 6.58 0 0 0 5.51-2.16 8.42 8.42 0 0 0 1.81-4.31 13 13 0 0 0-.26-4.66 19 19 0 0 1-.55-4.69 4.65 4.65 0 0 1 .7-2.28 5.85 5.85 0 0 1 1.65-1.64c1.27-.85 2.58-1.47 3.78-2.25a30.64 30.64 0 0 0 3.38-2.48 19.2 19.2 0 0 0 4.82-6.08l.28.29-2.53 1.13-.59.26.33-.56a11.63 11.63 0 0 0 1.61-5.88l.34.1c-.48.74-1 1.46-1.37 2.12l-.23.35-.08-.41a33.07 33.07 0 0 0-4.17-10.45c-.69-1.12-1.29-1.95-1.7-2.51-.19-.26-.34-.47-.47-.63s-.12-.23-.11-.24z" style="fill:#263238"/><path d="M511.88 399.74a4.11 4.11 0 0 1-2.73-4.6 16.37 16.37 0 0 0 1 2.54c.71 1.32 1.85 1.92 1.73 2.06zM516.07 399.92a4.69 4.69 0 0 1-2.75-2.13 5.64 5.64 0 0 1-1.09-3.31c.17-.05.52 1.48 1.52 3s2.41 2.29 2.32 2.44zM520.49 396.52a5.49 5.49 0 0 1-4.34-3.64c.13-.08.8 1 2 2s2.38 1.5 2.34 1.64z" style="fill:#263238"/><path d="M543.66 344.77c1.39 1.68 2.85 3.6 2.73 5.78-.16 2.89-2.94 4.81-5.36 6.39-4.87 3.16-9.59 6.91-12.35 12s-3.18 11.83.31 16.47a8.05 8.05 0 0 0 6 3.47 7.63 7.63 0 0 0 6.53-4.08c1.34-2.35 1.27-4.65 1.25-7.35a9.17 9.17 0 0 1 1.15-4.67c.93-1.37 2.69-1.82 4.27-2.3a30 30 0 0 0 12.78-7.82l-3 .47a8.64 8.64 0 0 0 2.47-4.28L559 361a27.41 27.41 0 0 0-3.6-16" style="fill:#455a64"/><path d="M531.26 387.81a4.12 4.12 0 0 1-1.67-5.08 16.93 16.93 0 0 0 .4 2.68 17.69 17.69 0 0 0 1.27 2.4zM535.32 388.89a4.67 4.67 0 0 1-2.23-2.67 5.61 5.61 0 0 1-.34-3.47c.17 0 .18 1.56.83 3.28a19.09 19.09 0 0 0 1.74 2.86zM540.36 386.53a5.54 5.54 0 0 1-3.45-4.5c.15 0 .57 1.18 1.52 2.41s2.01 1.96 1.93 2.09z" style="fill:#263238"/><path d="M546 355.84c-1.47-1-2.84 0-4.38.83a57.35 57.35 0 0 0-5.94 4.25c-1.32.95-3.33 2.54-3.28 3.13l-.05.29a4.17 4.17 0 0 0 6.5 1.53c1.28-1.06 2.07-2.94 3.72-3.13 1-.11 1.9.42 2.83.23 1.35-.29 1.95-1.89 2-3.27s-.25-3.07-1.4-3.86z" style="fill:#ebebeb"/><path d="M555.1 345.05a1.05 1.05 0 0 1 .14.23l.37.7c.3.62.74 1.56 1.2 2.8a32.08 32.08 0 0 1 2 11.17l-.29-.12 1.78-1.79.44-.44-.13.6a11.87 11.87 0 0 1-2.9 5.6l-.19-.34 2.7-.57.58-.13-.36.47a19.52 19.52 0 0 1-6 5 28.37 28.37 0 0 1-3.8 1.71c-1.32.52-2.74.87-4.08 1.36a4.59 4.59 0 0 0-3 2.73 14.61 14.61 0 0 0-.56 4.42 15.4 15.4 0 0 1-.58 4.69 9.51 9.51 0 0 1-2.49 4.17 7 7 0 0 1-6.07 1.72 8.15 8.15 0 0 1-5.09-3.49 16.34 16.34 0 0 1-2.19-11.29 18.67 18.67 0 0 1 4.53-9.43 33.49 33.49 0 0 1 3.51-3.22c1.15-1 2.27-2 3.4-2.79 2.24-1.7 4.63-2.68 6.22-4.19a5.57 5.57 0 0 0 1.59-2.52 6.68 6.68 0 0 0 .13-2.53 9.22 9.22 0 0 0-1.13-3.35c-.41-.71-.71-1-.69-1a4.73 4.73 0 0 1 .78 1 8.81 8.81 0 0 1 1.24 3.38 6.7 6.7 0 0 1-.09 2.62 5.82 5.82 0 0 1-1.63 2.67c-1.64 1.58-4 2.58-6.2 4.28-1.12.82-2.21 1.78-3.35 2.79a33.41 33.41 0 0 0-3.46 3.21 18.36 18.36 0 0 0-4.43 9.13 16.5 16.5 0 0 0 .07 5.56 17.45 17.45 0 0 0 .76 2.77 10.24 10.24 0 0 0 1.31 2.6 7.64 7.64 0 0 0 4.76 3.27 6.52 6.52 0 0 0 5.63-1.59 9 9 0 0 0 2.34-3.94 14.84 14.84 0 0 0 .57-4.55 14.83 14.83 0 0 1 .6-4.58 4.29 4.29 0 0 1 1.32-1.92 6.53 6.53 0 0 1 2-1.11c1.4-.5 2.77-.83 4.08-1.34a27.56 27.56 0 0 0 3.74-1.67 19.21 19.21 0 0 0 5.9-4.84l.21.35-2.71.55-.64.14.45-.48a11.54 11.54 0 0 0 2.84-5.39l.31.17-1.8 1.77-.29.29V360a32.68 32.68 0 0 0-1.81-11.1c-.43-1.25-.83-2.19-1.11-2.83-.13-.3-.24-.53-.32-.72a1 1 0 0 1-.11-.3z" style="fill:#263238"/><path d="m526.07 293.93 9.4 19.46-5.41 13.41s-3.86 10.95-10.18 13.91-12.34 3.21-16.91 1-5.28-8.84-5-11.16.46-12 .46-12-2.5-4.05-2.63-7.14.77-15.72 6.57-17.53 23.7.05 23.7.05z" style="fill:#455a64"/><path d="m539.31 295.71 3.24 2.64a11.76 11.76 0 0 1 4.15 7.07c1 5.65 2.82 10.83.2 16.05-1.59 3.18-3.34 2.81-5.67 2.57s-5.76-10.65-5.76-10.65l-8.1-11.84-1.3-7.62 1.6-.49a12.54 12.54 0 0 1 11.64 2.27zM503 293.76l-2.52-.2a11.33 11.33 0 0 0-8.89 3.22 11.33 11.33 0 0 0-3.39 8.37l.48 19.43s2.4 2 4.81 1.14 5.65-7.12 5.65-7.12l.48-13.92z" style="fill:#455a64"/><path d="M519 317a3.19 3.19 0 0 1 .35-1.65 6.33 6.33 0 0 1 2.65-3.12 3.44 3.44 0 0 1 2.33 0 6.11 6.11 0 0 1 1.67.77c.87.61 1.21 1.18 1.17 1.22s-.5-.42-1.37-.91a6.75 6.75 0 0 0-1.61-.64 3.15 3.15 0 0 0-2 0 5.36 5.36 0 0 0-1.56 1.35 7.58 7.58 0 0 0-1 1.46c-.4.88-.55 1.52-.63 1.52z" style="fill:#263238"/><path d="M521.91 313a1.51 1.51 0 0 1 1.34.59 2.8 2.8 0 0 1 1 1.87 2.44 2.44 0 0 1-1 1.8 2.17 2.17 0 0 1-.67.4 1.79 1.79 0 0 1-1.82-.51 3.22 3.22 0 0 1-.8-1.8 2.9 2.9 0 0 1 .12-1.49 1.48 1.48 0 0 1 1.09-.93M514.07 333.85a3.47 3.47 0 0 0-1.67-2 8.17 8.17 0 0 0-6.82-.54l.11-.05-.16.07a9.75 9.75 0 0 0-1.75.76 4 4 0 0 0-.86.53 2.7 2.7 0 0 0-.95 2.16.94.94 0 0 0 .26.62c.32.28.82.14 1.24.06s1 .07 1 .5a1.24 1.24 0 0 1-.25.58 2 2 0 0 0 .89 2.56 4.63 4.63 0 0 0 2.92.43 4.57 4.57 0 0 0 3.38-1.56 1 1 0 0 0 .16-1c-.39-.65-1.65-.1-2-.76-.24-.4.14-.94.59-1a2 2 0 0 1 1.34.3 2.7 2.7 0 0 0 1.33.39 1.63 1.63 0 0 0 1.24-2.05zM533.9 317.3a6.9 6.9 0 0 1 0 1.38 25.5 25.5 0 0 1-.58 3.72 23.62 23.62 0 0 1-1.89 5.26A30.56 30.56 0 0 1 517.88 341a25.86 25.86 0 0 1-3.49 1.42 6.18 6.18 0 0 1-1.33.35 7.35 7.35 0 0 1 1.27-.54c.81-.33 2-.83 3.38-1.56a31.64 31.64 0 0 0 9.49-7.67 31 31 0 0 0 3.77-5.58 24.55 24.55 0 0 0 2-5.13c.74-3.03.82-5 .93-4.99z" style="fill:#263238"/><path d="M512.73 342.4c0 .06-.31.22-.89.24a3.55 3.55 0 0 1-2.12-.68 3.46 3.46 0 0 1-1.26-1.83c-.16-.56-.1-.92 0-.92a4.36 4.36 0 0 0 4.3 3.19zM546.31 303.9a2.28 2.28 0 0 1 .15.55c.09.42.21.94.35 1.58.3 1.38.88 3.34 1.35 5.83a23.71 23.71 0 0 1 .4 4.13 16.86 16.86 0 0 1-.09 2.33 10.93 10.93 0 0 1-.64 2.4 14.41 14.41 0 0 1-1.14 2.34 5.69 5.69 0 0 1-1.87 2.05 4.19 4.19 0 0 1-2.87.26 9.92 9.92 0 0 1-2.72-1.06 13.5 13.5 0 0 1-2.39-1.64 9.87 9.87 0 0 1-1.8-2.19 16.22 16.22 0 0 1-1.87-5c-.67-3.3-.83-6.31-1.51-8.72a12.78 12.78 0 0 0-2.65-5.22 13.62 13.62 0 0 0-1.61-1.46 1.76 1.76 0 0 1 .5.27 8.06 8.06 0 0 1 1.26 1.05 12.43 12.43 0 0 1 2.85 5.26c.75 2.45.94 5.48 1.63 8.71a15.56 15.56 0 0 0 1.84 4.79 8.86 8.86 0 0 0 1.7 2.07 12.78 12.78 0 0 0 2.3 1.57 9.44 9.44 0 0 0 2.58 1 3.73 3.73 0 0 0 2.52-.21 5.33 5.33 0 0 0 1.69-1.86 13.41 13.41 0 0 0 1.11-2.25 10.33 10.33 0 0 0 .64-2.29 19.31 19.31 0 0 0 .11-2.26 24.43 24.43 0 0 0-.33-4.08c-.42-2.47-.95-4.45-1.18-5.85-.13-.69-.22-1.23-.26-1.6a2.23 2.23 0 0 1-.05-.5zM501.73 300.59s-.4.25-1 .82a7.16 7.16 0 0 0-1.82 2.95 12.7 12.7 0 0 0-.46 5.16c.14 2 .57 4.14.57 6.48.06 4.75-2.9 8.78-5.89 9.73a4.46 4.46 0 0 1-3.58-.32 3.16 3.16 0 0 1-.76-.63c-.15-.18-.21-.28-.2-.29a7.7 7.7 0 0 0 1.06.74 4.34 4.34 0 0 0 3.36.15c2.76-1 5.56-4.83 5.49-9.38 0-2.27-.41-4.44-.53-6.45a12.71 12.71 0 0 1 .59-5.32 6.87 6.87 0 0 1 2-3 4.63 4.63 0 0 1 .82-.55c.23-.07.34-.11.35-.09z" style="fill:#263238"/><path d="M498.29 322.19a8.58 8.58 0 0 0 10.81-10.27 7.56 7.56 0 0 1-.46-2.56c.12-1.12.93-2.07 1.09-3.18a3.66 3.66 0 0 0-1.45-3.19 8.1 8.1 0 0 0-3.34-1.42 6.32 6.32 0 0 0-3.37 0 5.19 5.19 0 0 0-3.1 4.28 22.49 22.49 0 0 0 .21 5.55 63.35 63.35 0 0 1-.31 11.18" style="fill:#ebebeb"/><path d="M505.58 315.54c-.06 0-.3-.3-.65-.83a6 6 0 0 0-1.61-1.77 2.48 2.48 0 0 0-2.19-.34c-.57.2-.81.54-.87.49s.08-.49.72-.83a2.44 2.44 0 0 1 1.21-.25 3 3 0 0 1 1.41.5 4.81 4.81 0 0 1 1.65 2c.28.61.39 1 .33 1.03z" style="fill:#263238"/><path d="M502.69 312.76a1.36 1.36 0 0 1 1.22.55 2.53 2.53 0 0 1 .91 1.7 2.23 2.23 0 0 1-.92 1.64 2.26 2.26 0 0 1-.61.37 1.65 1.65 0 0 1-1.67-.47 2.9 2.9 0 0 1-.73-1.64 2.72 2.72 0 0 1 .11-1.36 1.35 1.35 0 0 1 1-.85" style="fill:#263238"/><path d="M545.82 302.59s-.29-.53-1-1.45a21.51 21.51 0 0 0-10-7.33 12.11 12.11 0 0 0-4.64-.49 10.81 10.81 0 0 0-4.94 1.4.2.2 0 0 1-.11 0h-6.78a.25.25 0 0 1-.23-.18 9.93 9.93 0 0 0-3-5.23 9.64 9.64 0 0 0-6-2.26l.12-.48a10.43 10.43 0 0 1 3.12 2.63 10.74 10.74 0 0 1 1.84 3.8.26.26 0 0 1-.18.32.27.27 0 0 1-.27-.08 7 7 0 0 0-2.79-1.77 11.4 11.4 0 0 0-1.25-.41l.17-.49a2.46 2.46 0 0 1 .92.92 7.69 7.69 0 0 1 .56 1.06 15 15 0 0 1 .77 2.22.26.26 0 0 1-.18.31H507.64a.24.24 0 0 1-.15 0 11.94 11.94 0 0 0-16 2.3 14.1 14.1 0 0 0-3.07 6.92 26.58 26.58 0 0 0-.11 6.64 86.7 86.7 0 0 1 .59 9.6 16.56 16.56 0 0 1-.38 3.46.58.58 0 0 1 0-.23l.06-.66c.05-.59.13-1.45.13-2.57 0-2.25-.34-5.5-.74-9.57a26.76 26.76 0 0 1 .05-6.74 14.38 14.38 0 0 1 3.12-7.14 12.4 12.4 0 0 1 16.64-2.44h-.14l4.25-.05-.25.32a16.79 16.79 0 0 0-.74-2.13 3.72 3.72 0 0 0-1.23-1.71.27.27 0 0 1-.1-.36.26.26 0 0 1 .29-.12 11.31 11.31 0 0 1 1.32.43 7.6 7.6 0 0 1 3 1.91l-.45.24a10.15 10.15 0 0 0-1.75-3.62 9.86 9.86 0 0 0-3-2.51.26.26 0 0 1-.1-.34.24.24 0 0 1 .23-.13 10.14 10.14 0 0 1 6.36 2.39 10.49 10.49 0 0 1 3.17 5.5l-.23-.18h6.78-.13a11 11 0 0 1 5.18-1.44 12.41 12.41 0 0 1 4.77.55 20 20 0 0 1 6.66 3.92 18.54 18.54 0 0 1 3.32 3.67 7.75 7.75 0 0 1 .83 1.6z" style="fill:#263238"/><path d="M545.53 302.4a5.37 5.37 0 0 0-4.66 4.89c-.09 1.64.59 3.3.18 4.89-.47 1.82-2.26 3.06-2.76 4.88-.56 2 .68 4.15 2.13 5.69a4.57 4.57 0 0 0 2.76 1.65c1.87.14 3.24-1.73 4-3.46a20.92 20.92 0 0 0-1.18-18.25" style="fill:#ebebeb"/><path d="M543.29 434c-10.63 5.89-18.29 5.21-23-1.88 3.73 17.55 41.07 15.49 58.37 16.34 20.83 1 41.68-11.63 50.4-30.57-28.22 6.23-57.58 9.88-85.77 16.11z" style="opacity:.30000000000000004"/><path d="m542.74 409.68-8.58-2.12-11.58 3.71s5.83 4.85 3.23 5-8-3.78-8-3.78l-5.61 1.67s2.34 9.3 5.73 12c0 0 .42 4.25 2.73 6 0 0 4.87 6.76 9.38 7s13.63-5.89 13.63-5.89z" style="fill:#ffbe9d"/><path d="m594.06 385.48-.21.12c-.18.07-.39.17-.65.29l-2.5 1.11c-2.17.93-5.34 2.23-9.27 3.8-7.85 3.15-18.78 7.3-31 11.47s-23.41 7.58-31.54 9.9a416.23 416.23 0 0 1-9.66 2.65l-2.64.68-.69.16a.62.62 0 0 1-.24 0l.23-.09.67-.21 2.62-.77 9.6-2.82c8.11-2.4 19.27-5.86 31.48-10s23.15-8.26 31-11.32l9.32-3.65 2.54-1 .67-.24c.21-.07.27-.09.27-.08z" style="fill:#263238"/><path d="M578.71 317c-.14-.06 1-2.93 2-6.63s1.23-6.79 1.39-6.77a6.63 6.63 0 0 1 0 2 33.46 33.46 0 0 1-.85 4.85 35.48 35.48 0 0 1-1.53 4.69 7 7 0 0 1-1.01 1.86zM597.9 331.59c-.14.05-1-2.16-2.37-4.76s-2.63-4.6-2.5-4.68a24 24 0 0 1 4.87 9.44zM615.28 304.54a29.06 29.06 0 0 1-5.12 1.59 27.86 27.86 0 0 1-5.26 1.09 27.59 27.59 0 0 1 5.13-1.6 27.16 27.16 0 0 1 5.25-1.08zM618.67 339.54a53.82 53.82 0 0 1 3.1-6.83 54.72 54.72 0 0 1 3.56-6.59 52.41 52.41 0 0 1-3.1 6.82 54.68 54.68 0 0 1-3.56 6.6zM628.2 370.74a43.75 43.75 0 0 1-4.93-4.67 45.22 45.22 0 0 1-4.56-5 43.75 43.75 0 0 1 4.93 4.67 45.22 45.22 0 0 1 4.56 5zM628.93 401a46.13 46.13 0 0 1 4.06-5.5 47.39 47.39 0 0 1 4.47-5.17 46.13 46.13 0 0 1-4.06 5.5 43.94 43.94 0 0 1-4.47 5.17zM607.28 408c-.14 0 .67-2.49 1.28-5.59s.81-5.66 1-5.66a24.41 24.41 0 0 1-2.28 11.25zM581.73 419.64a31.53 31.53 0 0 1-3.42-4.58 30.66 30.66 0 0 1-3-4.86 32.34 32.34 0 0 1 3.41 4.57 31.55 31.55 0 0 1 3.01 4.87zM552.47 416.86a20.19 20.19 0 0 1-1 4.49 20.74 20.74 0 0 1-1.47 4.35 20.19 20.19 0 0 1 1-4.49 21.73 21.73 0 0 1 1.47-4.35zM561.56 387a21.17 21.17 0 0 1 5.37-11.16c.13.09-1.57 2.31-3 5.4s-2.22 5.76-2.37 5.76zM531.52 403.76c-.11.1-1.64-1.59-3.92-3.17s-4.39-2.43-4.33-2.58a11.74 11.74 0 0 1 4.63 2.15 11.46 11.46 0 0 1 3.62 3.6zM498 391.3a18.57 18.57 0 0 1-.53 4.3 18.26 18.26 0 0 1-1 4.22 18 18 0 0 1 .53-4.31 17.5 17.5 0 0 1 1-4.21zM498.57 365.46a74.65 74.65 0 0 1-7.9-4 78.1 78.1 0 0 1-7.64-4.49 74.65 74.65 0 0 1 7.9 4 79.61 79.61 0 0 1 7.64 4.49zM488.22 341.93c-.12-.11 2-2.47 3.82-5.84s2.81-6.36 3-6.31a6.68 6.68 0 0 1-.48 2 27.08 27.08 0 0 1-4.84 8.67 6.9 6.9 0 0 1-1.5 1.48zM565.26 332.22a58.6 58.6 0 0 1-3.37-10.66 60.75 60.75 0 0 1 3.37 10.66zM565.29 299.27a35.68 35.68 0 0 1-5.37 2.82 35 35 0 0 1-5.59 2.36 36.23 36.23 0 0 1 5.37-2.83 35.47 35.47 0 0 1 5.59-2.35zM612.78 442.48a53.69 53.69 0 0 1 2.38-7.15 55.26 55.26 0 0 1 2.87-7 53.54 53.54 0 0 1-2.38 7.16 55.48 55.48 0 0 1-2.87 6.99zM529.73 456.75a26.71 26.71 0 0 1-7.58-9.09c.13-.08 1.59 2.13 3.68 4.63s4.01 4.35 3.9 4.46zM549.36 445.81c.11.11-1.9 2-4.16 4.55s-3.94 4.73-4.07 4.65a22.73 22.73 0 0 1 3.68-5 23.34 23.34 0 0 1 4.55-4.2zM575.7 459.28c-.14.06-1.27-2.12-2.87-4.69s-3.05-4.57-2.93-4.66a19.13 19.13 0 0 1 3.37 4.38 18.65 18.65 0 0 1 2.43 4.97zM591.8 435.85a16.73 16.73 0 0 1-3.15-2.78 17.12 17.12 0 0 1-2.79-3.15 17.91 17.91 0 0 1 3.14 2.78 17.19 17.19 0 0 1 2.8 3.15zM614.85 456.54a12.63 12.63 0 0 1-2.37-.07c-1.46-.1-3.48-.21-5.71-.27s-4.24 0-5.71 0a11.32 11.32 0 0 1-2.37-.05 10 10 0 0 1 2.36-.32c1.46-.12 3.49-.19 5.74-.14s4.27.23 5.72.42a9.71 9.71 0 0 1 2.34.43z" style="fill:#fafafa"/><path d="M579.46 299.74s13.45-7.4 15.57-9.44 11.78-5.7 11.78-5.7 4.77-3.36 16.51 1.29 13.26 22.17 13.26 22.17-1.9 25.05-4.49 24.62a3.47 3.47 0 0 1-3.17-4.16c.32-1.81 1.18-8.64 1.18-8.64l-3.3-6.95s-8.5 22.26-11.24 22.92-5.27-.76-4.84-3.35 8-20.75 7.85-21.65-11 19-11 19-3.12 4.63-5.48 3.75-3.56-2.87-2.37-4.81 9.37-24.83 9.37-24.83L600 316l-5 9.77a2.92 2.92 0 0 1-3.3 1.55 2.14 2.14 0 0 1-1.6-1.92c-.47-3 3.95-14.31 3.95-14.31l7.22-14.67-4.82 1.83s-7 3.58-10 4.07c-3.45.59-6.99-2.58-6.99-2.58z" style="fill:#a86e63"/><path d="M608.86 285.89a28.09 28.09 0 0 0-7.92 10.67 5.58 5.58 0 0 1 .55-1.91 18.63 18.63 0 0 1 2.35-4.21 19 19 0 0 1 3.34-3.47 5.94 5.94 0 0 1 1.68-1.08z" style="fill:#8c5249"/></g><g><path d="M714.23 464.65c0 .14-153.24.26-342.23.26s-342.26-.12-342.26-.26 153.2-.26 342.26-.26 342.23.11 342.23.26z" style="fill:#263238"/></g></svg>