<svg xmlns="http://www.w3.org/2000/svg" viewBox="0 0 500 500"><path style="fill:#ebebeb" d="M0 382.4h500v.25H0zM416.78 398.49h33.12v.25h-33.12zM322.53 401.21h8.69v.25h-8.69zM396.59 389.21h19.19v.25h-19.19zM52.46 390.89h43.19v.25H52.46zM104.56 390.89h6.33v.25h-6.33zM131.47 395.11h93.68v.25h-93.68zM237 337.8H43.91a5.71 5.71 0 0 1-5.7-5.71V60.66a5.71 5.71 0 0 1 5.7-5.66H237a5.71 5.71 0 0 1 5.71 5.71v271.38a5.71 5.71 0 0 1-5.71 5.71zM43.91 55.2a5.46 5.46 0 0 0-5.45 5.46v271.43a5.46 5.46 0 0 0 5.45 5.46H237a5.47 5.47 0 0 0 5.46-5.46V60.66A5.47 5.47 0 0 0 237 55.2zM453.31 337.8h-193.1a5.72 5.72 0 0 1-5.71-5.71V60.66a5.72 5.72 0 0 1 5.71-5.66h193.1a5.71 5.71 0 0 1 5.69 5.66v271.43a5.71 5.71 0 0 1-5.69 5.71zM260.21 55.2a5.47 5.47 0 0 0-5.46 5.46v271.43a5.47 5.47 0 0 0 5.46 5.46h193.1a5.47 5.47 0 0 0 5.46-5.46V60.66a5.47 5.47 0 0 0-5.46-5.46z"/><path d="M217.54 181.68a7.64 7.64 0 0 0-4.32-1.31c-.88-1.19 0-2.87.93-4s2.15-2.39 1.87-3.85c-.41-2.2-3.44-2.42-5.66-2.11-.75-1.35-.65-3-1-4.5s-1.43-3.13-3-3-2.41 1.69-3.85 2c-1.66.31-3-1.21-4.25-2.36a3.88 3.88 0 0 0-.49-.4c.48-4.49 4.75-3.57 8.43-4 2.89-.34-4.33-7.93 1.54-10a5.13 5.13 0 0 0 2.88-1.81 3.27 3.27 0 0 0-1.06-4 7.69 7.69 0 0 0-4.32-1.31c-.89-1.19 0-2.87.93-4s2.14-2.39 1.87-3.85c-.42-2.2-3.45-2.42-5.67-2.11-.74-1.35-.65-3-1-4.5s-1.43-3.13-3-3-2.41 1.69-3.84 2c-1.66.31-3-1.21-4.25-2.36s-3.46-1.94-4.42-.55c-.57.83-.31 2.05-.9 2.86-1 1.43-3.26.4-4.62-.7s-3.56-2.16-4.62-.77a6.26 6.26 0 0 0-.62 1.48 3.94 3.94 0 0 1-.61 1c-.23-1-.26-2.1-.48-3.13-.32-1.51-1.43-3.14-3-3s-2.41 1.7-3.85 2c-1.66.31-3-1.21-4.25-2.37s-3.45-1.94-4.41-.55c-.57.84-.31 2-.91 2.87a1.7 1.7 0 0 1-.48.45 14.32 14.32 0 0 0-1.45-.17c-.89-1.19 0-2.87.93-4s2.14-2.4 1.87-3.85c-.42-2.2-3.45-2.43-5.66-2.11-.75-1.35-.66-3-1-4.5s-1.43-3.14-3-3-2.41 1.7-3.84 2c-1.66.31-3-1.21-4.25-2.37s-3.46-1.94-4.42-.55c-.57.84-.31 2.05-.9 2.87-1 1.42-3.26.4-4.62-.71s-3.55-2.16-4.62-.76a6.23 6.23 0 0 0-.61 1.48c-.76 1.89-2.89 2.75-4.57 3.9s-3.08 3.55-1.78 5.12c.64.78 1.81 1.14 2.1 2.1.36 1.2-.9 2.2-1.89 3a5 5 0 0 0-1.2 5.1 4.2 4.2 0 0 1-1.71.89c-1.67.31-3-1.21-4.25-2.36s-3.46-2-4.42-.55c-.57.83-.31 2-.91 2.86-1 1.42-3.25.4-4.61-.7S99 124 97.89 125.4a6.26 6.26 0 0 0-.62 1.48c-.76 1.89-2.88 2.75-4.56 3.91s-3.09 3.54-1.79 5.12c.62.74 1.72 1.11 2.06 2-1.11-.51-2.35-.58-3 .37s-.31 2-.91 2.87c-1 1.42-3.25.4-4.61-.71s-3.56-2.16-4.62-.77a5.87 5.87 0 0 0-.62 1.48c-.76 1.89-2.89 2.75-4.57 3.91s-3.08 3.54-1.78 5.12c.64.77 1.81 1.13 2.1 2.09.37 1.21-.89 2.21-1.89 3-1.66 1.27-2.14 5.31-.09 6.52.86.51 2.15.72 2.32 1.7s-.77 1.52-1.39 2.16a4.19 4.19 0 0 0 1 6.29c.49.27 1.1.5 1.27 1a2 2 0 0 1-.18 1.18 6.08 6.08 0 0 0-.31 2.24 1 1 0 0 0 .24.72 1.06 1.06 0 0 0 .65.22c3 .29 4.56-.72 6.28 2a2.26 2.26 0 0 0 .6.7 2 2 0 0 0 .83.25c2.08.27 3.51-1 5.43-1.12 2.67-.21 3.17 1.19 5.45 2.4 3.59 1.9 5.42.93 6.23-1.54a11.46 11.46 0 0 0 .43-2.16 3.78 3.78 0 0 1 1.42-2.82h.06c1.94.25 3.32-.8 5-1.06l1.08-.06c2.07.07 2.68 1.3 4.74 2.4a7.4 7.4 0 0 0 3.1 1c.25 1.15-1 2.11-1.91 2.85-1.66 1.28-2.14 5.32-.09 6.53.86.51 2.15.71 2.32 1.7s-.77 1.51-1.39 2.16a4.19 4.19 0 0 0 1 6.29c.49.26 1.1.49 1.27 1a2 2 0 0 1-.18 1.17 6.13 6.13 0 0 0-.31 2.25 1 1 0 0 0 .24.72 1.06 1.06 0 0 0 .65.22c3 .28 4.56-.72 6.28 2a2.29 2.29 0 0 0 .6.71 2 2 0 0 0 .83.24c2.08.28 3.51-1 5.43-1.11 2.67-.21 3.17 1.18 5.45 2.39 3.59 1.91 5.42.93 6.23-1.54a11.19 11.19 0 0 0 .43-2.15c.49-4.49 4.75-3.57 8.44-4a.71.71 0 0 0 .62-.39h.23c2.08.27 3.51-1 5.43-1.12 2.67-.21 3.16 1.19 5.44 2.4 3.59 1.9 5.42.92 6.23-1.54a10.69 10.69 0 0 0 .44-2.16c.38-3.49 3-3.71 5.94-3.84a4 4 0 0 0 2 3.38c.5.27 1.11.5 1.27 1a2 2 0 0 1-.18 1.17 6.16 6.16 0 0 0-.31 2.25 1 1 0 0 0 .24.72 1.07 1.07 0 0 0 .66.22c3 .28 4.55-.72 6.28 2a2.13 2.13 0 0 0 .6.7 2 2 0 0 0 .82.25c2.09.27 3.52-1 5.44-1.12 2.66-.21 3.16 1.19 5.44 2.4 3.59 1.9 5.42.93 6.23-1.54a10.07 10.07 0 0 0 .43-2.16c.49-4.49 4.75-3.57 8.44-4 2.88-.34-4.33-7.93 1.54-10a5.16 5.16 0 0 0 2.88-1.81 3.26 3.26 0 0 0-1.1-3.85zM108 221.49a6.11 6.11 0 0 0-3.41-1c-.69-.94 0-2.26.74-3.15s1.69-1.88 1.47-3c-.33-1.73-2.72-1.91-4.46-1.66-.59-1.06-.51-2.36-.76-3.55s-1.13-2.46-2.34-2.37-1.9 1.33-3 1.54c-1.31.24-2.37-1-3.35-1.87s-2.72-1.53-3.47-.43c-.45.66-.25 1.61-.72 2.26-.81 1.12-2.56.31-3.63-.56s-2.8-1.7-3.64-.6a4.58 4.58 0 0 0-.48 1.16c-.6 1.49-2.28 2.17-3.6 3.08s-2.43 2.79-1.4 4c.5.61 1.42.89 1.65 1.65.29.95-.7 1.74-1.49 2.34-1.3 1-1.69 4.19-.07 5.14.68.4 1.69.56 1.83 1.34s-.61 1.19-1.1 1.7a3.3 3.3 0 0 0 .77 5c.39.21.87.39 1 .81a1.6 1.6 0 0 1-.14.93 4.78 4.78 0 0 0-.24 1.76.81.81 0 0 0 .19.57.77.77 0 0 0 .51.17c2.39.23 3.59-.56 5 1.59a1.68 1.68 0 0 0 .47.55 1.5 1.5 0 0 0 .65.2c1.64.22 2.77-.76 4.28-.88 2.1-.16 2.49.94 4.29 1.89 2.82 1.5 4.26.73 4.9-1.21a8.81 8.81 0 0 0 .34-1.7c.39-3.54 3.74-2.81 6.65-3.15 2.27-.27-3.42-6.24 1.21-7.86a4 4 0 0 0 2.26-1.42 2.57 2.57 0 0 0-.91-3.27z" style="fill:#ebebeb"/><path d="M137.12 378.93h18c1-18 4.62-98.29 1-133.89.24-1.12.49-2.4.75-3.89 2.47-14 16.61-34.57 19.4-37.86s10.92-13.66 10.92-13.66l-1.46-2.44-13 13 5.45-14.72 9.75-11.36-1.51-1.38-9.12 9-.81-15-3.49-.13s3.72 17.31.43 23.68c0 0-13.69 27.41-20.54 33a6.07 6.07 0 0 0-1 1.12 68.89 68.89 0 0 0-6.89-14.63c2.91-6.49 9.17-20.81 11.43-28.47a152.1 152.1 0 0 0 4.22-18.2l-2.51-1.53s-7.11 29.66-17.82 42.26a40 40 0 0 0-9.7-7.2c-.62-4.08-.63-11.13 2.58-22l-1.89-1.93s-4.73 10.42-4.92 21.55a37.4 37.4 0 0 1-4.24-2.8c-9.37-7.29-15.59-19.95-15.59-19.95l-3.68-.18s9 20.59 20.24 27.23 18 21.79 18.4 25.7c.12 1.11-.19 12.82-.7 29-12.24-8.26-42.32-28.59-43.87-30l-.23 3.75 43.75 35.72c-1.16 35.9-2.93 102.96-3.35 116.21z" style="fill:#f0f0f0"/><path d="M136 94.71a3.79 3.79 0 0 0-3.79-3.8 3.88 3.88 0 0 0-1.09.16 8.92 8.92 0 0 0 .08-1.16 8 8 0 0 0-9.51-7.9 7 7 0 0 0-13 3.55h-.12a6.48 6.48 0 0 0 0 13h23.73a3.79 3.79 0 0 0 3.7-3.85zM350.09 112.13h19.18a12.83 12.83 0 0 1-.09-1.4 12.63 12.63 0 0 1 12.63-12.62h.46a11.16 11.16 0 0 1 21.62 3.9A10.66 10.66 0 0 1 414 112.13h.51a5.61 5.61 0 1 1 0 11.22h-64.42a5.61 5.61 0 1 1 0-11.22zM240.94 121.73a23.33 23.33 0 0 1 39.8.33 12.5 12.5 0 0 1 15.89 12.05h6.6a6.25 6.25 0 0 1 0 12.5h-22.78a23.33 23.33 0 0 1-36.4 3.82 11.9 11.9 0 0 1-1.2.06 14.45 14.45 0 0 1-1.91-28.78z" style="fill:#fafafa"/><path d="m343 254.57 3.72 10.74 17.74 5.41-10.9 108.21h39.11c-.94-10.66-5.38-61-6.28-75.74l18-34.2h-3.59l-.75 1.19a55.54 55.54 0 0 1-10.07 11.92 24.32 24.32 0 0 1-4.73 3.42c-1.68-4.77-4.67-67.87-4.67-67.87s-3.71 9-15.28 3.6l-1.05 40.3-11.53-2.36L341.46 237H337l4 9.56-9.43-2-8.08-10.39-2.83.69 7.34 11.23z" style="fill:#f0f0f0"/><path d="M430.84 196.39a15 15 0 0 1 9.55 14.28 16.42 16.42 0 0 1-10 14.23 18.14 18.14 0 0 1-17.39-2.29c-.25 5.87-4.27 12.27-9.88 14a14.85 14.85 0 0 1-15.81-5c-15.11 9.49-68 13-77.32-27.42-1.92-8.35 2.73-17.19 9.55-22.38s15.48-7.31 24-8.35c8.06-12.85 26-19.87 41-17.86a40.77 40.77 0 0 1 32.81 27.92c15.31.13 13.71 13.9 13.49 12.87zM412.17 275.93a8.1 8.1 0 0 1-14.48-2.27c-3.58 2.52-9.11 1.89-12.74-.56a10.88 10.88 0 0 1 4.69-19.79 13 13 0 0 1 6.09-9.88 14.15 14.15 0 0 1 12.09-1.28 14.8 14.8 0 0 1 12.85 4.13 11.62 11.62 0 0 1 3.76 9.06c-.28 3.37-2.74 6.61-6.06 7.25a9.94 9.94 0 0 1 .35 7.87c-1.08 2.54-3.97 4.54-6.55 5.47z" style="fill:#ebebeb"/><path d="M336 214.8a8.09 8.09 0 0 1 10.2 10.51c4.38.14 8.43 4 9.86 8.1a10.88 10.88 0 0 1-15.63 13 13 13 0 0 1-10.81 4.24 14.11 14.11 0 0 1-10.42-6.23 14.8 14.8 0 0 1-7.81-11 11.65 11.65 0 0 1 2.44-9.5c2.25-2.53 6.16-3.64 9.19-2.16a9.94 9.94 0 0 1 4.46-6.51c2.38-1.39 5.88-1.25 8.52-.45zM69.75 292.25h358.42v12.15H69.75z" style="fill:#ebebeb"/><path style="fill:#e6e6e6" d="M78.19 367.7H61.31V261.14l8.44-6 8.44 6V367.7zM108.06 367.7H91.18V261.14l8.44-6 8.44 6V367.7zM137.93 367.7h-16.88V261.14l8.44-6 8.44 6V367.7zM167.8 367.7h-16.88V261.14l8.44-6 8.44 6V367.7zM197.66 367.7h-16.88V261.14l8.44-6 8.44 6V367.7zM227.53 367.7h-16.88V261.14l8.44-6 8.44 6V367.7zM257.4 367.7h-16.88V261.14l8.44-6 8.44 6V367.7zM287.27 367.7h-16.88V261.14l8.44-6 8.44 6V367.7zM317.14 367.7h-16.88V261.14l8.44-6 8.44 6V367.7zM347 367.7h-16.87V261.14l8.43-6 8.44 6V367.7zM376.87 367.7h-16.88V261.14l8.44-6 8.44 6V367.7zM406.74 367.7h-16.88V261.14l8.44-6 8.44 6V367.7zM436.61 367.7h-16.88V261.14l8.44-6 8.44 6V367.7z"/><path d="M423.77 368.86s2.8-9.36-2.86-11.22-9-6.24-8.81-11.19-5.76-9.77-10.22-5.13-3.87-3.57-9.82-5.56-11 2.84-9.36 7.26-4.25 7.19-11.28 3.43-14.76 3.08-13.27 8.43.27 5.95-4.18 4.17-12.4 3.27-9.62 9.81 79.42 0 79.42 0zM123.44 367.52s2.17-7.26-2.22-8.71-7-4.85-6.84-8.69-4.47-7.58-7.94-4-3-2.77-7.62-4.32-8.53 2.21-7.26 5.64-3.3 5.58-8.75 2.66-11.47 2.39-10.31 6.55.21 4.62-3.25 3.23-9.62 2.54-7.46 7.62 61.65.02 61.65.02zM232 368.38c5-5 .5-13.5-4.5-14.5s-10-9.79-10.26-15.4S208 315.66 194 326.29s-9.75 1.57-19.87-1.42-16.52 5.61-12.08 12.06c0 0-10.17-2.55-14.36 6.95s0 15.4 0 15.4-19.13-.56-17.41 11.27S232 368.38 232 368.38z" style="fill:#e0e0e0"/><path d="M54.17 368.68v13.7h386v-13.7a4.08 4.08 0 0 0-4-4.3H58.21a4.08 4.08 0 0 0-4.04 4.3z" style="fill:#ebebeb"/><path style="fill:#f5f5f5" d="M394.17 364.38h24v18h-24zM349.17 364.38h23v18h-23zM303.17 364.38h24v18h-24zM258.17 364.38h23v18h-23zM213.17 364.38h23v18h-23zM167.17 364.38h24v18h-24zM122.17 364.38h23v18h-23zM76.17 364.38h24v18h-24z"/><g><ellipse cx="250" cy="416.24" rx="193.89" ry="11.32" style="fill:#f5f5f5"/></g><g><path d="M392.77 372.81s-7.75-9.23-12.71-4.92-2.45 13.43 3.27 13.72a14.33 14.33 0 0 0 9.44-2.88z" style="fill:#a8d0e6"/><path d="M392.77 372.81s-7.75-9.23-12.71-4.92-2.45 13.43 3.27 13.72a14.33 14.33 0 0 0 9.44-2.88z" style="fill:#fff;isolation:isolate;opacity:.2"/><path d="M424.41 349.41s6.51-6.83 10.54-5.67 3.61 17.46-8.89 10.86z" style="fill:#a8d0e6"/><path d="M424.41 349.41s6.51-6.83 10.54-5.67 3.61 17.46-8.89 10.86z" style="fill:#fff;isolation:isolate;opacity:.30000000000000004"/><path d="M401.15 400.3s-21.4-29.28-4-35.21 20.46 23.56 15.5 31.76-11.5 3.45-11.5 3.45zM411.07 340.36s13.27-30.82-6.39-31.75-21.8 30.56.82 35.13z" style="fill:#a8d0e6"/><path d="M401.15 400.3s-21.4-29.28-4-35.21 20.46 23.56 15.5 31.76-11.5 3.45-11.5 3.45zM411.07 340.36s13.27-30.82-6.39-31.75-21.8 30.56.82 35.13z" style="fill:#fff;isolation:isolate;opacity:.30000000000000004"/><path d="M406.36 365.6s-6.45-27.21 5.95-29.39 24.65 22.42-1 34.78c-.01.01-4.41-2.73-4.95-5.39z" style="fill:#a8d0e6"/><path d="M406.36 365.6s-6.45-27.21 5.95-29.39 24.65 22.42-1 34.78c-.01.01-4.41-2.73-4.95-5.39z" style="fill:#fff;isolation:isolate;opacity:.2"/><path style="fill:#263238" d="M385.74 396.15h35.93l-3 22.98h-29.93l-3-22.98z"/><path d="M404.43 338.16c-7.4-5.41-12.53-15.86-8.17-24.67-.17.82-.39 1.71-.59 2.52-1.46 8.36 3.11 16.32 8.76 22.15zM399.72 311.71c8.53 1.73 12.3 10.78 11.31 18.76-.19 1.12-.35 2.24-.58 3.34a53.48 53.48 0 0 0-.08-6.7c-.53-6.57-4.15-13-10.65-15.4zM414.76 338.16c4.78 1.7 7.78 7 7.8 11.94 0 4.33-2.4 8.28-5.08 11.51a38.75 38.75 0 0 1-6.65 6.28 57.84 57.84 0 0 0 6.05-6.76c2.22-3 4.19-6.25 4.68-9.94.41-5.14-2.09-10.63-6.8-13zM411.07 340.36c1.28 4 2.42 8.75.33 12.67-1.73 2.54-1.91 5.87-1.95 8.9 0 1.05 0 2.1.07 3.16a24 24 0 0 1-.69-6.34 11.43 11.43 0 0 1 1.73-6.25c1.91-3.66 1-8.19.51-12.14zM402.34 367.89c5 2.57 7 19.82 6.82 25.26-.16-1.1-.33-2.2-.53-3.29-1-5.44-1.94-10.9-3.38-16.23-.68-2-1.11-4.45-2.91-5.74zM396.26 368.83a24.07 24.07 0 0 0 4.89 22.91 25.62 25.62 0 0 1-2.25-2.17 19 19 0 0 1-2.64-20.74zM429.46 352.73c2.27-.61 4.21-1.17 5.88-2.84-.41 2.55-3.65 3.74-5.88 2.84zM428.13 348.23c1.07-2.18 4.72-3.54 6.28-1.16-2.19-.95-4.32.24-6.28 1.16zM389.23 374.19c-2.49-1.77-5.08-4.76-8.32-3.2 2.63-3.11 7.06.37 8.32 3.2zM389.23 378.73c-3.26 1.19-9.79 1.29-10.2-3.28 1.88 3.72 6.65 2.9 10.2 3.28z" style="fill:#a8d0e6"/></g><g><path d="M150 272.59s8.61-.43 9.77-.55 10.08.1 9.67-8-7.95-8-10.09-8l-13.28.07a2.1 2.1 0 0 1-2.1-1.85 2.1 2.1 0 0 1 1.93-2.36l1.13-.08s10.81 0 13.85.22 13.14-.5 13.09 11.85-10.28 12-12.22 12l-11.55.11z" style="fill:#263238"/><path d="M150 272.59s8.61-.43 9.77-.55 10.08.1 9.67-8-7.95-8-10.09-8l-13.28.07a2.1 2.1 0 0 1-2.1-1.85 2.1 2.1 0 0 1 1.93-2.36l1.13-.08s10.81 0 13.85.22 13.14-.5 13.09 11.85-10.28 12-12.22 12l-11.55.11z" style="fill:#fff;opacity:.30000000000000004"/><path transform="rotate(180 196.315 361.825)" style="fill:#263238" d="M190.69 359.55h11.25v4.54h-11.25z"/><path transform="rotate(-138.56 205.886 371.873)" style="fill:#263238" d="M191.95 369.99h27.87v3.77h-27.87z"/><path transform="rotate(-138.56 205.886 371.873)" style="fill:#fff;opacity:.05" d="M191.95 369.99h27.87v3.77h-27.87z"/><path d="M281.55 367.42a5.69 5.69 0 1 0 5.69-5.69 5.68 5.68 0 0 0-5.69 5.69z" style="fill:#a8d0e6"/><path d="M281.55 367.42a5.69 5.69 0 1 0 5.69-5.69 5.68 5.68 0 0 0-5.69 5.69z" style="fill:#fff;opacity:.5"/><path d="M117.79 367.42a5.69 5.69 0 1 0 5.69-5.69 5.68 5.68 0 0 0-5.69 5.69z" style="fill:#a8d0e6"/><path d="M117.79 367.42a5.69 5.69 0 1 0 5.69-5.69 5.68 5.68 0 0 0-5.69 5.69z" style="fill:#fff;opacity:.5"/><path d="M237.52 365.25a50 50 0 1 0 50-50 50 50 0 0 0-50 50zm6.06 0a44 44 0 1 1 44 44 44 44 0 0 1-44-44z" style="fill:#263238"/><path d="M237.52 365.25a50 50 0 1 0 50-50 50 50 0 0 0-50 50zm6.06 0a44 44 0 1 1 44 44 44 44 0 0 1-44-44z" style="fill:#fff;opacity:.5"/><path d="M233.67 365.25a53.89 53.89 0 1 0 53.89-53.89 53.88 53.88 0 0 0-53.89 53.89zm6.53 0a47.36 47.36 0 1 1 47.36 47.35 47.36 47.36 0 0 1-47.36-47.35zM73.44 365.25a50 50 0 1 0 50-50 50 50 0 0 0-50 50zm6.07 0a44 44 0 1 1 44 44 44 44 0 0 1-44-44z" style="fill:#263238"/><path d="M73.44 365.25a50 50 0 1 0 50-50 50 50 0 0 0-50 50zm6.07 0a44 44 0 1 1 44 44 44 44 0 0 1-44-44z" style="fill:#fff;opacity:.5"/><path d="M69.59 365.25a53.89 53.89 0 1 0 53.89-53.89 53.88 53.88 0 0 0-53.89 53.89zm6.54 0a47.35 47.35 0 1 1 47.35 47.35 47.36 47.36 0 0 1-47.35-47.35zM169.69 256.33l-10.63 34.15-4.41-1.43 10.11-33.84 4.93 1.12z" style="fill:#263238"/><path d="m119.68 367.69 2.16 1.62 16.82-22.19 12.2-31.43 2.77-8.53 62.44 75.1 68.68-14.68-.43-2 .54-.33-.93-1.52-41.69-67.63 1.17-4-3.77-1.1-.7 2.42h-80.85l1-3-4.44-1.42-8.19 25.21-10.4 32zm161-3.21-61.93 13.23 22.31-77.51zm-125.61-61.73 1.51-4.66h81l-22.19 77.21z" style="fill:#a8d0e6"/><path d="m119.68 367.69 2.16 1.62 16.82-22.19 12.2-31.43 2.77-8.53 62.44 75.1 68.68-14.68-.43-2 .54-.33-.93-1.52-41.69-67.63 1.17-4-3.77-1.1-.7 2.42h-80.85l1-3-4.44-1.42-8.19 25.21-10.4 32zm161-3.21-61.93 13.23 22.31-77.51zm-125.61-61.73 1.51-4.66h81l-22.19 77.21z" style="fill:#fff;opacity:.5"/><path style="fill:#263238" d="m254.65 280.08-5.68 4.28-2.58-.62-2.98 8.36-3.77-1.08 5-10.94 1.75-1.68 8.26 1.68z"/><path style="fill:#fff;opacity:.4" d="m254.65 280.08-5.68 4.28-2.58-.62-2.98 8.36-3.77-1.08 5-10.94 1.75-1.68 8.26 1.68z"/><path d="M226.79 275c7.26-1.7 14.75.2 22.44 5.11H257s9.29-4.95 11.15-7 .61-2.47.61-2.47c-11.78 1.72-35-.78-38.07-.78s-5.01 3.42-3.9 5.14z" style="fill:#263238"/><path d="M226.79 275c7.26-1.7 14.75.2 22.44 5.11H257s9.29-4.95 11.15-7 .61-2.47.61-2.47c-11.78 1.72-35-.78-38.07-.78s-5.01 3.42-3.9 5.14z" style="fill:#fff;opacity:.1"/><path d="M202 380.5a13.73 13.73 0 1 0 13.73-13.73A13.73 13.73 0 0 0 202 380.5zm12.06-9.22V378l-6.22-2a9.06 9.06 0 0 1 6.26-4.72zm9.61 4.75-6.13 2v-6.73a9.08 9.08 0 0 1 6.17 4.7zm1.09 4.47a9.57 9.57 0 0 1-2.25 6.2l-3.9-5.37 6.08-2a10.9 10.9 0 0 1 .11 1.17zm-9 9.4a8.63 8.63 0 0 1-4-1l4-5.55 4 5.51a8.76 8.76 0 0 1-3.99 1.04zm-9-9.4a10.19 10.19 0 0 1 .09-1.24l6.23 2-4 5.5a9.63 9.63 0 0 1-2.34-6.26z" style="fill:#263238"/><path d="M202 380.5a13.73 13.73 0 1 0 13.73-13.73A13.73 13.73 0 0 0 202 380.5zm12.06-9.22V378l-6.22-2a9.06 9.06 0 0 1 6.26-4.72zm9.61 4.75-6.13 2v-6.73a9.08 9.08 0 0 1 6.17 4.7zm1.09 4.47a9.57 9.57 0 0 1-2.25 6.2l-3.9-5.37 6.08-2a10.9 10.9 0 0 1 .11 1.17zm-9 9.4a8.63 8.63 0 0 1-4-1l4-5.55 4 5.51a8.76 8.76 0 0 1-3.99 1.04zm-9-9.4a10.19 10.19 0 0 1 .09-1.24l6.23 2-4 5.5a9.63 9.63 0 0 1-2.34-6.26z" style="fill:#fff;opacity:.4"/><path transform="rotate(-138.56 223.717 387.613)" style="fill:#263238" d="M209.78 385.73h27.87v3.77h-27.87z"/><path transform="rotate(-138.56 223.717 387.613)" style="fill:#fff;opacity:.05" d="M209.78 385.73h27.87v3.77h-27.87z"/><path transform="rotate(180 233.67 395.975)" style="fill:#263238" d="M228.05 393.7h11.25v4.54h-11.25z"/><path style="fill:#263238" d="m153.8 253.38 10.96 2.1-1.61 5.14-3.47-.52-.97 1.56-6.08-1.27 1.17-7.01z"/><path d="M167.55 274.92s8.61-.43 9.77-.55 10.08.1 9.66-8-7.94-8-10.08-8l-13.28.08a2.12 2.12 0 0 1-2.11-1.86 2.11 2.11 0 0 1 1.94-2.35l1.13-.09s10.81 0 13.85.23 13.13-.51 13.09 11.85-10.29 12-12.22 12l-11.59.07z" style="fill:#263238"/><path d="M167.55 274.92s8.61-.43 9.77-.55 10.08.1 9.66-8-7.94-8-10.08-8l-13.28.08a2.12 2.12 0 0 1-2.11-1.86 2.11 2.11 0 0 1 1.94-2.35l1.13-.09s10.81 0 13.85.23 13.13-.51 13.09 11.85-10.29 12-12.22 12l-11.59.07z" style="fill:#fff;opacity:.5"/></g><g><path d="M328.43 401.12a54.19 54.19 0 0 1-7.75-9.67c-1.43-2.09-1.71-1.58-3.24-3.64a2.46 2.46 0 0 1 1.45-3.68 22.55 22.55 0 0 0 4-1.13l5.27 4c-1 2.5.19 9.6 2.89 12.54 1.95 2.1-1.05 3.03-2.62 1.58z" style="fill:#263238"/><path d="M327.74 388.18c-.2.15-.53 0-.92-.22-1.45-1-3.8-4.14-4-5.12a162.57 162.57 0 0 0 7.08-15.68c6.14-15.27 11.37-31.13 18.42-35.91-22.31-34-25.19-55.62-25.19-55.62L348 272s14.76 44.05 16.53 60.12c1.76 15.75-36.79 56.06-36.79 56.06z" style="fill:#a8d0e6"/><path d="M337 287.31s1 16.14 1.21 27.11c-2.92-5.39-5.3-10.3-7.22-14.69zM329.94 367.16c-.17 4.95-.81 13.67-3.12 20.8-1.45-1-3.8-4.14-4-5.12a162.57 162.57 0 0 0 7.12-15.68z" style="opacity:.2"/><path d="M333 419.13c-5.34-.07-6-.16-9-.3-2.56-.12-3.18.19-5.25.12-1.72-.06-1.63-1.71-1.08-3.6.28-1 .72-3 1.11-4.5l7.82-.47c1.07 2.12 3.52 5.15 6.52 5.59s1.99 3.19-.12 3.16z" style="fill:#263238"/><path d="M330.73 338.39c-3.73 22.28-4.63 58.08-4 72.68-.88.5-3.35.37-5.6 0l-1.11-.22c-.56-.13-1.07-.26-1.52-.41 0 0-14.19-48.07-3-70-6.35-51.73 4-64.24 4-64.24l.45-.07 1-.15 19.57-2.83s-6.24 44.04-9.79 65.24z" style="fill:#a8d0e6"/><path d="M344.07 236.9a96.23 96.23 0 0 0 13.59 12.54c-.21-.14-1-.19-1.06 0 2.34-1.24 4.13-4.42 5.73-6.71 1.93-3.07 3.78-6.36 5.52-9.62a2.17 2.17 0 0 1 4 1.59c-2 6.86-8 26.38-18 21.66a62.22 62.22 0 0 1-16.63-14 4.36 4.36 0 0 1 6.85-5.4z" style="fill:#e9b376"/><path d="M308.92 241.7c7.74 17.33 10 26.34 10.59 34.46L348 272c-.53-9.41-.94-15-1.55-20.74a87.91 87.91 0 0 0-1.72-11.62c-.72-4.06-3.87-8.28-7.78-9.71a7.54 7.54 0 0 0-2.82-.52c-1.42 0-2.9 0-4.33.12a93.56 93.56 0 0 0-12.95 1.87c-1.22.25-2.41.51-3.52.8a4.07 4.07 0 0 0-.7.22 6.71 6.71 0 0 0-3.71 9.28z" style="fill:#a8d0e6"/><path d="M308.92 241.7c.86 1.93 1.66 3.76 2.38 5.49 2.1 5 3.68 9.2 4.87 12.88a65.91 65.91 0 0 1 3.34 16.09L348 272c-.53-9.41-.94-15-1.55-20.74a87.91 87.91 0 0 0-1.72-11.62c-.72-4.06-3.87-8.28-7.78-9.71a7.54 7.54 0 0 0-2.82-.52c-1.42 0-2.9 0-4.33.12a93.56 93.56 0 0 0-12.95 1.87c-1.22.25-2.41.51-3.52.8a4.07 4.07 0 0 0-.7.22 6.71 6.71 0 0 0-3.71 9.28z" style="fill:#fff;opacity:.6000000000000001"/><path d="M311.3 247.19c2.1 5 3.68 9.2 4.87 12.88 10.47-6.29 2-17.22 2-17.22a16.58 16.58 0 0 0-6.87 4.34z" style="opacity:.1"/><path d="M315.67 216.74c1.73 4 4.22 11.43 1.91 14.6 0 0 3.86-1.16 13 2.81 1.92-3.83 0-4.68 0-4.68-4.89-.43-5.52-3.85-5.42-7.17z" style="fill:#ebb376"/><path d="m319.52 219 5.58 3.28a12.12 12.12 0 0 0 .11 2.34c-1.83 0-4.7-1.57-5.3-3.39a6.3 6.3 0 0 1-.39-2.23z" style="opacity:.2"/><path d="M306.9 205.23s-3-1.69-7.64 0-5.67 6.54-3.16 11.51-.79 8.35-.26 10.61a5.32 5.32 0 0 0 6.19 4.08s-2.11-.17-2.11-2 4.35-2.9 4.09-7.63-2.64-6.87-1.19-10.09a6.51 6.51 0 0 1 4.67-3.67z" style="fill:#263238"/><path d="M306.9 208.78s.12 9.63 8.77 8.7-1.27-14.48-8.77-8.7z" style="fill:#263238"/><path d="M333.85 197c2.12.64-8.43 4.49-8.43 4.49l-5.11-2.77a17.73 17.73 0 0 1 13.54-1.72z" style="fill:#a8d0e6"/><path d="M310.9 208.89c2.24 6.54 3.05 9.35 7.35 12 6.48 4 14 .3 13.8-6.66-.21-6.28-3.83-15.92-11.09-17.14a8.86 8.86 0 0 0-10.06 11.8z" style="fill:#ebb376"/><path d="M312.67 205a4.74 4.74 0 0 0 2.52-.07 1.35 1.35 0 0 1 .56-1.72q.28-.13.57-.3a2.57 2.57 0 0 1 2-2.23 12.88 12.88 0 0 1 2.48-2.12 12.28 12.28 0 0 1 5.7-1.42h.16c-1.42-1.56-6.58-4.93-9.44-5-5.4-.08-11.54 2.85-12.11 11.39s5.11 8.43 7.51 8.06 2.07-5.53.05-6.59zM319.65 208.77c.17.55.59.94 1 .86s.52-.59.36-1.15-.59-.95-.95-.87-.57.6-.41 1.16zM326.63 207c.16.56.59.94.95.87s.52-.6.35-1.16-.59-.94-.95-.86-.52.59-.35 1.15z" style="fill:#263238"/><path d="m326.83 205.91 1.21-.68s-.37 1.2-1.21.68z" style="fill:#263238"/><path d="M324.84 208.7a17.23 17.23 0 0 0 3 3.12 2.32 2.32 0 0 1-1.86.81z" style="fill:#d58745"/><path d="M323.44 215.39a4.61 4.61 0 0 0 .94-.13.16.16 0 0 0 .12-.2.18.18 0 0 0-.21-.12 4.85 4.85 0 0 1-4.07-.94.16.16 0 0 0-.24 0 .17.17 0 0 0 0 .24 5.13 5.13 0 0 0 3.46 1.15z" style="fill:#263238"/><path d="M310.2 214.84a5.55 5.55 0 0 0 3.87 1.74c1.88 0 2.2-1.92 1.17-3.55-.93-1.47-3-3.24-4.68-2.47s-1.64 2.93-.36 4.28z" style="fill:#ebb376"/><path d="M317.59 205.5a.29.29 0 0 0 .22-.13 2.47 2.47 0 0 1 2.05-1.15.32.32 0 0 0 .34-.32.38.38 0 0 0-.35-.35 3.14 3.14 0 0 0-2.62 1.42.35.35 0 0 0 .11.47.39.39 0 0 0 .25.06zM328.42 202.7a.29.29 0 0 0 .23-.1.34.34 0 0 0 0-.47 3.53 3.53 0 0 0-3-1.06.31.31 0 0 0-.24.39.37.37 0 0 0 .41.27 2.81 2.81 0 0 1 2.34.86.38.38 0 0 0 .26.11zM319.86 207.68l1.21-.68s-.37 1.2-1.21.68z" style="fill:#263238"/><path d="M311.74 206.86a14.14 14.14 0 0 0-4.84 3.9l-.67-1.12a34.22 34.22 0 0 1 4.37-4.82c1.8-1.39 1.14 2.04 1.14 2.04z" style="fill:#a8d0e6"/><path d="M324.84 195.77s-2.5-3.51-3.42-3.61-9.53.77-11.05 3.07-3 5.74.93 11.77z" style="fill:#a8d0e6"/><path d="M311.3 207s1.87-10 8.9-11.38a26.63 26.63 0 0 1 13.65 1.38s-4.71-1.05-8.44 1.62-7.28 6.21-14.11 8.38z" style="fill:#a8d0e6"/><path d="M311.3 207s1.87-10 8.9-11.38a26.63 26.63 0 0 1 13.65 1.38s-4.71-1.05-8.44 1.62-7.28 6.21-14.11 8.38z" style="fill:#fff;opacity:.2"/><path d="M387.17 266.28a16.38 16.38 0 0 0 1.75-.3l.44-.1c.45-.11.88-.24 1.3-.38.23-.08.47-.16.69-.25s.29-.1.42-.16l.37-.17a16 16 0 0 0 2.05-1.08l.34-.21a15.56 15.56 0 0 0 1.75-1.34l.27-.25a12.83 12.83 0 0 0 1.47-1.57c.09-.1.16-.2.23-.29a13.32 13.32 0 0 0 1.19-1.83 3.41 3.41 0 0 0 .17-.33 12.41 12.41 0 0 0 .85-2.11c0-.12.07-.25.11-.38a10.33 10.33 0 0 0 .29-1.47c0-.22.06-.44.08-.67s0-.24 0-.36a3.69 3.69 0 0 0 0-.47 11.23 11.23 0 0 0 0-1.16 11 11 0 0 0-.15-1.15c0-.16-.06-.31-.09-.47s-.06-.24-.08-.35-.12-.43-.19-.64a11.16 11.16 0 0 0-.52-1.4c-.06-.13-.11-.25-.18-.37a12.14 12.14 0 0 0-1.17-2l-.23-.3a12.26 12.26 0 0 0-1.46-1.6 2.26 2.26 0 0 0-.28-.25 12.19 12.19 0 0 0-1.7-1.31l-.32-.21a17.06 17.06 0 0 0-1.94-1l-.36-.14a14.58 14.58 0 0 0-2.2-.74l-.39-.11-.43-.09-.73-.13c-.44-.08-.89-.13-1.34-.17h-2.88l-.46.05c-.19 0-.37 0-.55.06-.57.08-1.14.19-1.68.32l-.44.11c-.5.13-1 .29-1.46.46l-.74.29-.17.07-.37.17a17.21 17.21 0 0 0-2 1.11l-.31.21a16.72 16.72 0 0 0-1.73 1.36l-.27.25a14.74 14.74 0 0 0-1.45 1.61 3.15 3.15 0 0 0-.22.29 12.57 12.57 0 0 0-1.15 1.84c-.07.12-.12.23-.18.34a12.52 12.52 0 0 0-.8 2.14 3.34 3.34 0 0 0-.1.4 7 7 0 0 0-.16.74 5.46 5.46 0 0 0-.1.69 8.29 8.29 0 0 0-.08 1.11 4 4 0 0 0 0 .49 7.86 7.86 0 0 0 0 .84 8.15 8.15 0 0 0 .1.83c0 .16 0 .32.08.47a9.45 9.45 0 0 0 .26 1.08c.06.23.13.45.21.67s.18.48.28.71.1.25.16.37a13 13 0 0 0 1.14 2 2.26 2.26 0 0 0 .23.31 13.11 13.11 0 0 0 1.44 1.64l.26.25a12.92 12.92 0 0 0 1.69 1.34l.3.21a14.38 14.38 0 0 0 1.93 1.06l.35.17a16.46 16.46 0 0 0 2.18.76l.39.1.2.06.75.16a15.23 15.23 0 0 0 1.51.21h.45c.56 0 1.14.06 1.72 0a5.07 5.07 0 0 0 .55 0 3.55 3.55 0 0 0 .46 0h.12zm.31-1.53c-.35.05-.71.1-1.08.13a13 13 0 0 1-1.39 0l1.12-1.31 1.35 1.14zm-14.65-6.29a12.55 12.55 0 0 1-.8-1.65l.93-1.08 1.64 1.39-1.4 1.64-.36-.3zm-1.49-4.73 1.33-1.56 1.64 1.4-1.39 1.64-1.57-1.32zm.72-4.75.31-.36L374 250l-1.39 1.64-1.09-.92a11.39 11.39 0 0 1 .54-1.72zm8-7.56a14 14 0 0 1 1.7-.53l-1 1.15-.72-.62zm4.35-1h1.08l-1.15 1.35-1.34-1.14q.72-.12 1.42-.18zm13.89 7c.14.27.26.53.37.8l-1.16 1.37-1.64-1.4 1.4-1.64zm-.5 5.72-1.64-1.39 1.4-1.64 1.64 1.39zm1.17 2.53-.88 1-1.64-1.39 1.4-1.65 1.36 1.16c-.06.36-.14.64-.21.92zm-10.33 8.82 1-1.21.81.68a13.91 13.91 0 0 1-1.8.57zm-4.31.38-1.53-1.3 1.4-1.57 1.64 1.39-1.32 1.56zm-2-24.16h.19l1.55 1.31-1.4 1.65-1.64-1.4 1.3-1.52zm3.73-.35 1.57 1.34-1.4 1.64-1.64-1.4 1.41-1.54zm-1.17 8.45-1.64-1.39 1.39-1.64 1.65 1.39zm1.67-1.39 1.65 1.39-1.4 1.64-1.64-1.39zm-1.91 1.68-1.4 1.64-1.64-1.39 1.4-1.64zm.28.24 1.64 1.39-1.39 1.64-1.6-1.37zm1.92 1.63 1.64 1.4-1.39 1.64-1.64-1.39zM385 252.7l-1.4 1.64-1.64-1.4 1.39-1.64zm.28.23 1.64 1.4-1.41 1.67-1.64-1.39zm1.92 1.64 1.64 1.4-1.39 1.64-1.64-1.4zm-1.91 1.69-1.4 1.64-1.64-1.4 1.39-1.64zm.28.23 1.64 1.4-1.39 1.64-1.64-1.4zm1.92 1.63 1.64 1.4-1.39 1.65-1.64-1.41zm.24-.28 1.39-1.64 1.65 1.4-1.4 1.64zm1.63-1.92 1.4-1.64 1.64 1.4-1.4 1.64zm-.28-.24-1.64-1.39 1.4-1.65 1.64 1.4zm0-3.31 1.39-1.65 1.64 1.4-1.39 1.64zm-.28-.25-1.65-1.39 1.39-1.64 1.65 1.39zm0-3.31 1.39-1.64 1.64 1.39-1.39 1.64zm-.29-.24-1.64-1.4 1.39-1.64 1.65 1.39zm-1.92-1.63-1.64-1.4 1.39-1.64 1.65 1.39zm-1.92-1.64-1.67-1.39 1.39-1.65 1.65 1.4zm-.24.28-1.4 1.64-1.64-1.39 1.4-1.64zm-1.63 1.92-1.4 1.64-1.64-1.39 1.4-1.64zm-1.64 1.93-1.4 1.64-1.64-1.39 1.4-1.65zm.28.23 1.65 1.4-1.4 1.64-1.69-1.39zm0 3.33-1.4 1.64-1.64-1.4 1.4-1.64zm.28.23 1.65 1.4-1.4 1.64-1.64-1.4zm0 3.33-1.4 1.64-1.64-1.4 1.4-1.64zm.28.23 1.64 1.4-1.39 1.64-1.64-1.4zm1.92 1.63 1.64 1.4-1.39 1.65-1.64-1.41zm1.93 1.64 1.64 1.39-1.39 1.65-1.65-1.4zm3.55-.29 1.65 1.39-1.4 1.65-1.65-1.4zm.24-.29 1.4-1.64 1.64 1.4-1.39 1.65zm1.63-1.91 1.4-1.65 1.64 1.4-1.4 1.69zm1.64-1.92 1.4-1.65 1.64 1.4-1.4 1.64zm-.28-.25L391 254l1.4-1.64 1.64 1.39zm0-3.31 1.4-1.64 1.64 1.39-1.39 1.64zm-.28-.25-1.64-1.39 1.39-1.64 1.64 1.39zm0-3.31 1.4-1.64 1.64 1.39-1.39 1.64zm-.28-.24-1.64-1.4 1.39-1.64 1.64 1.39zm-1.92-1.63-1.64-1.4 1.39-1.64 1.64 1.39zm-1.96-1.65-1.64-1.4 1.39-1.65 1.65 1.4zm-5.71-1-1.4 1.64-1.64-1.39 1.4-1.65zm-1.64 1.92-1.39 1.64-1.65-1.39 1.4-1.64zm-1.63 1.92-1.4 1.65-1.64-1.4 1.4-1.64zm-1.63 1.93-1.4 1.64-1.65-1.41 1.4-1.65zm.28.23 1.64 1.4-1.4 1.6-1.64-1.39zm0 3.33-1.4 1.64-1.65-1.4 1.4-1.64zm.28.23 1.64 1.4-1.4 1.64-1.64-1.4zm0 3.32-1.4 1.65-1.65-1.4 1.4-1.64zm.28.24 1.64 1.39-1.4 1.65-1.64-1.4zm1.91 1.63 1.65 1.4-1.4 1.64-1.58-1.44zm1.93 1.64 1.64 1.39-1.39 1.65-1.64-1.4zm5.48 1.34 1.64 1.4-1.34 1.57h-.11l-1.59-1.35zm3.13 2.17-1-.82 1.4-1.64 1.64 1.4-.13.15a15 15 0 0 1-1.89.86zm.66-2.74 1.4-1.64 1.64 1.4-1.39 1.64zm1.64-1.92 1.4-1.65 1.64 1.4-1.4 1.65zm1.63-1.92 1.4-1.65 1.64 1.4-1.4 1.64zm1.35-2.17-1.64-1.39 1.4-1.64 1.64 1.39zm-.28-3.55-1.65-1.4 1.4-1.64 1.64 1.39zm-.27-3.6-1.65-1.4 1.4-1.64 1.64 1.4zm-1.92-1.63L392 245l1.4-1.64 1.64 1.39zm-1.93-1.63-1.64-1.4 1.39-1.65 1.64 1.4zm-.53-3.28-1.39 1.64-1.64-1.4.81-1a14.36 14.36 0 0 1 2.09.6zm-3.32 0-1.21-1a13.15 13.15 0 0 1 1.9.23zm-8.22.11.87.74-1.39 1.69-1.57-1.34a15.11 15.11 0 0 1 2.09-1.09zm-.76 2.67-1.39 1.64-1.65-1.39 1.4-1.65zm-1.63 1.92-1.4 1.64-1.64-1.39 1.39-1.64zm-1.64 1.92-1.39 1.65-1.65-1.4 1.4-1.64zm-1.35 2.16 1.64 1.4-1.39 1.64-1.65-1.39zm.29 3.56 1.64 1.4-1.4 1.64-1.64-1.4zm.29 3.56 1.64 1.39-1.4 1.65-1.64-1.4zm1.92 1.64 1.65 1.4L377 262l-1.64-1.4zm1.92 1.64 1.65 1.39-1.4 1.64-1.64-1.39zm1.92 1.63 1.65 1.39-.75.88a15.78 15.78 0 0 1-2.24-.69zm1.32 2.36.61-.72 1.15 1a12.86 12.86 0 0 1-1.72-.29zm11.89-2.31 1-1.21.27.23a12.63 12.63 0 0 1-1.27.97zm3.06-2.78a12.88 12.88 0 0 1-1.49 1.56l-.31-.27 1.4-1.64.4.35zm.23-.3-.39-.33 1.39-1.65.15.13a12.35 12.35 0 0 1-1.15 1.84zm1.24-2.25.22-.26a3.09 3.09 0 0 1-.14.32zm.92-2.53-1.21-1 1.4-1.64a9.9 9.9 0 0 1-.19 2.63zm.14-3.19-1.64-1.4 1-1.21a10.35 10.35 0 0 1 .64 2.6zm-1.67-4.74-.26-.22.06-.07a3 3 0 0 1 .2.28zm-1.85-2.24a13.11 13.11 0 0 1 1.44 1.64l-.13.15-1.64-1.4.33-.39zm-.27-.25-.34.41-1.64-1.4.26-.31a13.85 13.85 0 0 1 1.72 1.26zm-2.26-1.23-1.19-1a11.86 11.86 0 0 1 1.41.75zm-17.26.83-.53.61-.1-.08a5.35 5.35 0 0 1 .63-.54zm-2.37 2.36a14.55 14.55 0 0 1 1.45-1.6l.15.13-1.36 1.64-.21-.17zm-.22.29.19.16-1.09 1.28a10.81 10.81 0 0 1 .9-1.44zm-2.08 4.86.92.78-1.07 1.26a11.47 11.47 0 0 1 .15-2.04zm0 3.26 1.26 1.08-.78.92a11 11 0 0 1-.53-2zm2.18 5.16 1.3 1.1-.17.2a11.56 11.56 0 0 1-1.18-1.3zm3.09 2.89a13.1 13.1 0 0 1-1.69-1.34l.18-.2 1.64 1.39-.13.15zm.41.09.65.54a6.93 6.93 0 0 1-.75-.43z" style="fill:#a8d0e6"/><path d="M386.64 267.81c9.37-.76 16.45-8.18 15.77-16.53s-8.86-14.53-18.23-13.76a18.85 18.85 0 0 0-5.26 1.19h-.11a16.15 16.15 0 0 0-1.75.79 21.69 21.69 0 0 0-8.09 7c-2 2.52-3.62 5.42-8.09 6.72l-4.86.39.23 2.84 4.86-.39c4.62.55 6.71 3.16 9.07 5.32a21.64 21.64 0 0 0 9.11 5.56 15.87 15.87 0 0 0 1.86.5h.11a18.78 18.78 0 0 0 5.38.37zM362 254.7v-.26c3.61-1.17 5.45-3.68 7.08-5.63a13.88 13.88 0 0 0-.6 5.23 13.61 13.61 0 0 0 1.44 5.07c-2-1.66-4.22-3.84-7.92-4.41zm18.91 11.16c-.27-.06-.53-.14-.78-.21-5.58-1.7-9.75-6.17-10.2-11.72s2.94-10.64 8.17-13.22l.73-.34a17.24 17.24 0 0 1 5.47-1.37c8.56-.69 16 4.88 16.64 12.42s-5.85 14.25-14.42 14.94a17.08 17.08 0 0 1-5.66-.5z" style="fill:#263238"/><rect x="345.36" y="245.82" width="3.8" height="19.9" rx=".68" transform="rotate(85.35 347.265 255.789)" style="fill:#a8d0e6"/><path d="m348.37 252.47-2.09-.5a2.49 2.49 0 0 0-2.22.56l-2.85 2.47a4.7 4.7 0 0 0-1.56 4l.09.93c3.42 1.05 7.89-.32 7.89-.32l1.31-.25a2.08 2.08 0 0 0 1.72-2.41l-.46-2.61a2.39 2.39 0 0 0-1.83-1.87z" style="fill:#ebb376"/><path d="M316.93 244.92a86.54 86.54 0 0 0 5.46 15.24 46.43 46.43 0 0 0 2.55 4.55l-.56-.62a1 1 0 0 0-.61-.27c2.35.14 5.23-1.5 7.58-2.59 3.49-1.77 7-3.89 10.34-6a2.18 2.18 0 0 1 2.7 3.37c-5 4.87-18.79 17.85-25.69 10.87a57.12 57.12 0 0 1-9.51-19.64c-.3-1-.53-1.93-.77-3a4.36 4.36 0 0 1 8.51-1.91z" style="fill:#e9b376"/><path d="M311.14 233.22c-4.9 3.37-5.2 8.49-2.7 18.36 3.48 1.8 12-.31 12-.31s-2.44-15.27-9.3-18.05z" style="fill:#a8d0e6"/><path d="M311.14 233.22c-4.9 3.37-5.2 8.49-2.7 18.36 3.48 1.8 12-.31 12-.31s-2.44-15.27-9.3-18.05z" style="fill:#fff;opacity:.6000000000000001"/><path style="fill:#ebb376" d="m377.99 227.35 2.26 6.02-4.56 2.13-3.11-7.13 5.41-1.02zM368 233.08l4.57-4.71 3.11 7.13s-4.81 3.24-6.81 1.12z"/><path d="M375.77 239.75a4.79 4.79 0 1 1 6.46-2 4.78 4.78 0 0 1-6.46 2z" style="fill:#a8d0e6"/><path d="M375.77 239.75a4.81 4.81 0 0 1-2.56-3.83 4.13 4.13 0 0 1 0-.93 4.88 4.88 0 0 1 .51-1.71 4.74 4.74 0 0 1 2.69-2.3 3 3 0 0 1 .46-.14 4.79 4.79 0 0 1 3.32.42 4.91 4.91 0 0 1 .93.63 3.57 3.57 0 0 1 .43.44 4.8 4.8 0 0 1-1.49 7.48 3 3 0 0 1-.36.15 4.78 4.78 0 0 1-3.93-.21z" style="fill:#fff;opacity:.7000000000000001"/><g style="opacity:.2"><path d="M375.74 233.65a3.27 3.27 0 0 1 2.26 1 3.18 3.18 0 0 1 .85 2.42 4.44 4.44 0 0 0 .86 2.9 3 3 0 0 0 .36-.15 4 4 0 0 1-.85-2.74 3.67 3.67 0 0 0-1-2.69 3.75 3.75 0 0 0-2.52-1.1 2.72 2.72 0 0 0-2.53 1.71 4.13 4.13 0 0 0 0 .93c.62-1.55 1.45-2.3 2.57-2.28zm4.52-1.43a6.63 6.63 0 0 1 1.3.11 3.57 3.57 0 0 0-.43-.44h-.86a7 7 0 0 1-2-.26 6.11 6.11 0 0 1-1.41-.75 3 3 0 0 0-.46.14 6.88 6.88 0 0 0 1.76 1 7.24 7.24 0 0 0 2.1.2z" style="fill:#263238"/></g><g style="opacity:.6000000000000001"><path d="m321.16 411.05-1.11-.22c-2.69-9.17-10-38.75-2.18-67.17-.43-1.93-5.22-25 2.09-67.57l1-.15c-7.65 44.24-2.19 67.38-2.13 67.62v.25c-7.93 28.76-.2 58.79 2.33 67.24z" style="fill:#fff"/></g><path d="M337.49 281.86a.23.23 0 0 1-.14 0 .25.25 0 0 1-.06-.35c.8-1.18 1.31-4.14 1.51-5.53-.78.76-2.15 1.94-2.95 1.75a.76.76 0 0 1-.55-.57 1.34 1.34 0 0 1 .12-1.22c.52-.72 1.86-.84 3.71-.92 2.08-.1 4.16-.11 4.74.82a1.33 1.33 0 0 1-.1 1.4 1.26 1.26 0 0 1-1 .71c-1.14.12-2.63-1.24-3.38-2a7 7 0 0 0 2.87 4.65.25.25 0 0 1 .07.35.25.25 0 0 1-.35.06 7.72 7.72 0 0 1-2.87-3.87 14.34 14.34 0 0 1-1.43 4.67.24.24 0 0 1-.19.05zm2.2-6.41c.77.81 2.18 2.05 3.05 2a.78.78 0 0 0 .6-.46.91.91 0 0 0 .12-.9c-.46-.69-2.39-.69-3.77-.64zm-1.17.06c-1.14.06-2.34.19-2.69.68a.87.87 0 0 0-.05.79c.06.19.15.21.19.22.49.11 1.66-.81 2.55-1.69z" style="fill:#fff"/></g><g><path d="M259.17 316.7c-4.7-3.89-9.19-8-12.09-13.47-2.07-4.37-1.41-9.28-.61-13.73a55 55 0 0 1 2.78-9.52l3.7 1c-.57 5.73-1.59 12-.25 17.58a8.27 8.27 0 0 0 1.72 2.88 60 60 0 0 0 6.21 6.24c1.1 1 2.31 2 3.4 3l-4.86 6z" style="fill:#dc897c"/><path d="M239.31 361.14s-10.61 18.05-10.56 27.62 4.31 29.35 4.31 29.35l5.26.09s-1.3-24.05-1-28.28 11.44-20.73 11.44-20.73zM260.83 361.14s-1.92 19.64 0 29 9.93 28 9.93 28l5.18-.94s-6-23.33-6.47-27.54 3.62-26.84 3.62-26.84z" style="fill:#e4897b"/><path d="M247.16 375.82a47.73 47.73 0 0 1 10.51-10.6 97.28 97.28 0 0 0 .65 13l16.45 1.39a197.35 197.35 0 0 1 5.23-30.16l-30.36-9.78-2.31 5.16s-7.55 8.22-16.81 25.23z" style="fill:#263238"/><path d="M261.57 419.27a15.26 15.26 0 0 0 6.62-3c-.79-3.83-.33-4 .62-3.83 1.15.22 2.65 2.54 2.65 2.54 3.94-1.88 5.51.66 5.51.66 1.82 5.92 1.46 5.37-1.06 5.85-2.17.1-3.22 0-6 .19a51 51 0 0 1-7.33.23c-2.3-.24-2.01-2.53-1.01-2.64zM224.47 419.27a15.26 15.26 0 0 0 6.62-3c-.79-3.83-.33-4 .62-3.83 1.14.22 2.65 2.54 2.65 2.54 3.94-1.88 5.51.66 5.51.66 1.82 5.92 1.46 5.37-1.06 5.85-2.18.1-3.22 0-6 .19a51 51 0 0 1-7.33.23c-2.3-.24-2.01-2.53-1.01-2.64zM248.76 341.7l31.24 7.75s1.84-7.22 3.53-18c.55-3.5 1.1-7.38 1.55-11.51.15-1.37 2-6.83 2.15-8.25 0 0-16.58.71-26.74-4.19.01.02-5.96 21.18-11.73 34.2z" style="fill:#a8d0e6"/><path d="M269.49 307.29a4.54 4.54 0 0 1-1.22 3.29 5 5 0 0 1-.47.44 5.9 5.9 0 0 1-.82.57s-.62 3 1.85 3.67a11.82 11.82 0 0 0 8.94-1.4 8.46 8.46 0 0 1 .18-6.92 11.29 11.29 0 0 1 2-3l-7.77.18-3.53.09a7.36 7.36 0 0 1 .84 3.08z" style="fill:#e4897b"/><path d="M269.49 307.29a4.54 4.54 0 0 1-1.22 3.29 5 5 0 0 1-.47.44c4.13.65 8-2.17 10.15-4.08a11.29 11.29 0 0 1 2-3l-7.77.18-3.53.09a7.36 7.36 0 0 1 .84 3.08z" style="isolation:isolate;opacity:.2"/><path d="M273.87 282s-9.94 2.5-5 12.64c5.56 11.45 5-12.64 5-12.64z" style="fill:#263238"/><path d="M286.59 300c-3 5.33-9 10-14 8.63-9.12-2.47-11.64-5.64-9.61-12.3 1.8-6 8-14 15.71-12.29s12.08 8.53 7.9 15.96z" style="fill:#e4897b"/><path d="M271.29 285.28s2.17.32 8.87 3.35a5.79 5.79 0 0 1-.39 6.58c-2.52 3.44.9 7.57-1.31 12.66 0 0 5.52 1.85 11.53-8.74 4.38-7.71-1.09-14.1-8.28-17.34-6.02-2.71-12.27-.41-10.42 3.49zM273.23 295.58c-.36.68-1 1.06-1.47.81s-.52-1-.16-1.67 1-1.05 1.47-.82.52.99.16 1.68zM267.87 292.42c-.35.66-1 1-1.41.79s-.49-.95-.15-1.61 1-1 1.41-.78.49.95.15 1.6z" style="fill:#263238"/><path d="M273.06 291.08a.39.39 0 0 1 0-.21.35.35 0 0 1 .44-.23 3.44 3.44 0 0 1 2.34 2.17.36.36 0 0 1-.24.44.37.37 0 0 1-.43-.24 2.77 2.77 0 0 0-1.9-1.7.38.38 0 0 1-.21-.23zM267.57 288.57a.36.36 0 0 1-.12-.18.34.34 0 0 1 .27-.41 3.42 3.42 0 0 1 3.09.8.34.34 0 0 1 0 .49.36.36 0 0 1-.49 0 2.76 2.76 0 0 0-2.48-.59.39.39 0 0 1-.27-.11z" style="fill:#263238"/><path d="m268.53 293.79-.81 3.29a4.13 4.13 0 0 1-2.13-1.26 10.13 10.13 0 0 0 2.94-2.03z" style="fill:#de5753"/><path d="M278.78 300.36s3.12-2.65 4.33-.73-1.92 7.37-4.5 6.09-1.89-4.13.17-5.36z" style="fill:#e4897b"/><path d="M266.48 299a19.88 19.88 0 0 1 .1 2.82l.49.1c2.21.42 3.38-.12 4-.84a2.92 2.92 0 0 0 .59-1.24 2.86 2.86 0 0 0 .09-.78 10.44 10.44 0 0 1-4.51.07c-.47-.03-.76-.13-.76-.13z" style="fill:#263238"/><path d="m267.24 299.16.05.83c2.08.39 3.6.39 4.37-.12a2.86 2.86 0 0 0 .09-.78 10.44 10.44 0 0 1-4.51.07z" style="fill:#fff"/><path d="M267.07 302c2.21.42 3.38-.12 4-.84a7.06 7.06 0 0 0-2.55 0 2.66 2.66 0 0 0-1.45.84z" style="fill:#de5753"/><path d="M271 285.2s-1.91-1.33-.1-4.43 5.68-3.9 4.69-1.62c0 0 5.16-.91 5.68.71s-1.49 1.42-1.49 1.42 5.12.49 5.52 2.5-3.42 2.39-3.42 2.39z" style="fill:#263238"/><path d="M282.7 312.75c3.79-.92 7.84-1.66 10.95-3.72.83-.79 1.09-2.12 1.4-3.78a50.17 50.17 0 0 0 .2-9.47c-.19-3.26-.53-6.61-.95-9.87l3.7-.91c2.42 7.8 7.09 24.19-.64 30.2-4 3-8.58 4.29-13.34 5.18l-1.35-7.62z" style="fill:#dc897c"/><path d="M267.8 310c-6.47-2.46-12.53-7.89-12.53-7.89l-4.64 9.27 7.89 8.3zM278.86 311.54a92.5 92.5 0 0 0 12.05-1.77l2 8.43-9.56 5.94s-7.21-5.81-4.49-12.6z" style="fill:#a8d0e6"/><path style="fill:#e4897b" d="m248.22 272.24 6.29.76-.12 4.55-7.63-.58 1.46-4.73zM248.9 282.63l-2.14-5.63 7.63.58s.75 5.21-2 5.89zM299.22 276.4l-6.29.77.12 4.54 7.63-.57-1.46-4.74zM298.54 286.79l2.14-5.65-7.63.57s-.75 5.21 2 5.9z"/><path d="M262.38 352.73a.23.23 0 0 1-.2-.1 7.75 7.75 0 0 1-1.5-4.58 14.11 14.11 0 0 1-2.84 4 .25.25 0 1 1-.3-.4c1.14-.86 2.56-3.51 3.19-4.77-1 .48-2.65 1.16-3.35.73a.73.73 0 0 1-.34-.71 1.32 1.32 0 0 1 .5-1.12c.71-.53 2-.21 3.81.3 2 .57 4 1.21 4.24 2.28a1.33 1.33 0 0 1-.54 1.3 1.3 1.3 0 0 1-1.16.36c-1.12-.25-2.1-2-2.56-3a7 7 0 0 0 1.25 5.32.25.25 0 0 1-.05.35.27.27 0 0 1-.15.04zm-.65-6.05c.47 1 1.4 2.64 2.27 2.83a.76.76 0 0 0 .71-.24c.32-.3.46-.57.4-.82-.19-.76-2.06-1.38-3.38-1.77zm-3.18-.69a1.26 1.26 0 0 0-.72.17.87.87 0 0 0-.29.73c0 .21.07.26.1.28.43.25 1.84-.25 3-.8a8.55 8.55 0 0 0-2.09-.37z" style="fill:#fff"/><path d="M277.55 247.34a12.35 12.35 0 0 1-4 9.17 12.13 12.13 0 0 1-2.74 1.91l-.52.26a11.74 11.74 0 0 1-2 .72 12.19 12.19 0 0 1-3.1.39 12.41 12.41 0 0 1-8.93-3.78c-.13-.14-.27-.28-.4-.43a12.39 12.39 0 0 1-3.12-8.24 11.32 11.32 0 0 1 .1-1.55c0-.18 0-.36.07-.54a12.45 12.45 0 0 1 8.8-9.87 13.58 13.58 0 0 1 1.56-.36l.89-.1h1.03a12.51 12.51 0 0 1 11.61 8l.18.49a12.36 12.36 0 0 1 .65 3.76 2.26 2.26 0 0 1-.08.17z" style="fill:#a8d0e6"/><g style="opacity:.7000000000000001"><path d="M277.55 247.34a12.35 12.35 0 0 1-4 9.17 12.13 12.13 0 0 1-2.74 1.91l-.52.26a11.74 11.74 0 0 1-2 .72 12.19 12.19 0 0 1-3.1.39 12.41 12.41 0 0 1-8.93-3.78c-.13-.14-.27-.28-.4-.43a12.38 12.38 0 0 1-3-6.49 12.36 12.36 0 0 1-.12-1.73 11.32 11.32 0 0 1 .1-1.55c0-.18 0-.36.07-.54a12.45 12.45 0 0 1 8.8-9.87 13.58 13.58 0 0 1 1.56-.36l.89-.1h1.03a12.15 12.15 0 0 1 2 .17 12.51 12.51 0 0 1 9.59 7.78l.18.49a12.36 12.36 0 0 1 .65 3.76 2.26 2.26 0 0 1-.06.2z" style="fill:#fff"/></g><path style="fill:#263238" d="m260.2 243.33-4.89 3.56 1.87 5.76h6.05l1.87-5.76-4.9-3.56zM277.54 247.08l-1.19.78-4.43-3.56-.29-.23.09-.25 2-5.41a12.28 12.28 0 0 1 2.94 4.42l.18.49a12.36 12.36 0 0 1 .7 3.76zM273.51 256.51a12.13 12.13 0 0 1-2.74 1.91l-.52.26a11.74 11.74 0 0 1-2 .72l.37-1.89.08-.42h.15zM265 234.88l-1.84.92-.73.36-.12-.13-.65-.65a13.58 13.58 0 0 1 1.56-.36l.89-.1c.25-.02.55-.04.89-.04z"/><path d="M264.07 234.92a6.65 6.65 0 0 0-.95.88c-1.92 2.14-2.54 5.3-2.7 7.69a22.4 22.4 0 0 0 0 3.33l-.49.06a19.88 19.88 0 0 1-.06-3.33 14 14 0 0 1 2.37-7.52 7.91 7.91 0 0 1 .91-1zM276.89 243.32a23.35 23.35 0 0 0-5 1 49.43 49.43 0 0 0-6.86 2.72c-1.4.67-2.3 1.17-2.33 1.19l-.24-.44c.11-.06.95-.53 2.24-1.15a48.34 48.34 0 0 1 7-2.8 24.62 24.62 0 0 1 5-1zM270.77 258.42l-.52.26c-.57-.37-1.13-.76-1.67-1.17a55.5 55.5 0 0 1-5.66-4.87c-1.31-1.3-2.13-2.21-2.15-2.23l.38-.33s.85.95 2.18 2.25a53.74 53.74 0 0 0 5.48 4.74c.64.48 1.29.93 1.96 1.35zM259.49 249.56a14.08 14.08 0 0 0-2 3.08 18.16 18.16 0 0 0-1.29 3.37c-.13-.14-.27-.28-.4-.43a18.24 18.24 0 0 1 1.3-3.27 14.5 14.5 0 0 1 2.06-3.1zM257.75 247.76l-.18.46c-.11-.05-1-.4-2.15-1-.79-.39-1.72-.87-2.67-1.45 0-.18 0-.36.07-.54 1 .58 1.9 1.09 2.71 1.48 1.28.66 2.19 1.04 2.22 1.05z" style="fill:#263238"/><path d="M273.69 245a10.85 10.85 0 0 1-20.92 4.06 12.36 12.36 0 0 1-.12-1.73 11.32 11.32 0 0 1 .1-1.55c0-.18 0-.36.07-.54a12.45 12.45 0 0 1 8.8-9.87 13.58 13.58 0 0 1 1.56-.36l.89-.1h1.03a12.15 12.15 0 0 1 2 .17 10.86 10.86 0 0 1 6.59 9.92z" style="fill:#fff;opacity:.2"/></g><g><path style="fill:#b55b52" d="m172.49 414.1.9-5.43.98-5.83-6.99-2.08-1.3 7.81-.93 5.53h7.34zM213.91 414.1l.1-4.73.13-6.5-7.23-1.05-.15 7.46-.09 4.82h7.24z"/><path style="opacity:.2" d="m206.91 401.82-.15 7.46 7.25.09.13-6.5-7.23-1.05zM166.08 408.57l7.31.1.98-5.83-6.99-2.08-1.3 7.81z"/><path d="m165.57 410.47 8-.11a.64.64 0 0 1 .63.49l1.59 6.44a1 1 0 0 1-1 1.31c-2.88 0-7-.12-10.65-.07-4.23.06-6.91-.18-11.87-.12-3 0-3.9-3-2.65-3.25 5.68-1.32 9.38-1 14.25-4.1a3.45 3.45 0 0 1 1.7-.59z" style="fill:#263238"/><path d="M164.87 411.49c-1.17.25-3.26.57-4.08-.13a1 1 0 0 1-.34-.83.56.56 0 0 1 .27-.46c.88-.51 3.85.93 4.19 1.1a.17.17 0 0 1 .09.18.19.19 0 0 1-.13.14zm-3.93-1.15h-.06a.18.18 0 0 0-.1.18.61.61 0 0 0 .22.55c.46.39 1.66.45 3.26.16-1.17-.51-2.77-1.09-3.32-.89z" style="fill:#a8d0e6"/><path d="M164.87 411.49a.2.2 0 0 1-.13 0c-.89-.38-2.67-1.93-2.56-2.75 0-.19.16-.43.64-.49a1.25 1.25 0 0 1 1 .28 4.93 4.93 0 0 1 1.2 2.79.15.15 0 0 1-.07.15zm-2.18-2.87c-.15.05-.16.13-.16.16-.07.49 1.14 1.71 2.06 2.24a4.12 4.12 0 0 0-1-2.23.94.94 0 0 0-.71-.21.61.61 0 0 0-.19.04z" style="fill:#a8d0e6"/><path d="m206.13 411 8-.11a.65.65 0 0 1 .64.48l1.59 6.45a1.05 1.05 0 0 1-1 1.3c-2.87 0-7-.12-10.65-.07-4.23.06-6.91-.18-11.87-.11-3 0-3.9-3-2.65-3.26 5.68-1.32 9.38-1 14.25-4.09a3.36 3.36 0 0 1 1.69-.59z" style="fill:#263238"/><path d="M205.43 412c-1.17.25-3.26.56-4.07-.13a1 1 0 0 1-.35-.84.55.55 0 0 1 .28-.46c.88-.51 3.84.94 4.18 1.1a.19.19 0 0 1 .09.18.15.15 0 0 1-.13.15zm-3.93-1.15h-.06a.2.2 0 0 0-.1.19.65.65 0 0 0 .22.55c.46.39 1.66.44 3.27.15-1.17-.48-2.78-1.07-3.33-.87z" style="fill:#a8d0e6"/><path d="M205.43 412a.19.19 0 0 1-.13 0c-.89-.38-2.67-1.93-2.55-2.76 0-.19.16-.43.63-.49a1.29 1.29 0 0 1 1 .29c.94.74 1.18 2.7 1.19 2.78a.19.19 0 0 1-.06.16zm-2.18-2.87c-.15.05-.16.13-.16.16-.07.5 1.15 1.72 2.06 2.24a4.12 4.12 0 0 0-1-2.23.92.92 0 0 0-.71-.2.65.65 0 0 0-.19.05z" style="fill:#a8d0e6"/><path d="M222.84 253.74c3.19 14.71-2.89 118-4.37 142.27a16.78 16.78 0 0 1-3.38 9.12l-.35.47-7.9-.34-.6-1.85a19.23 19.23 0 0 1-.9-5.1l-3.9-106.43-20.38 103.24a23.07 23.07 0 0 1-4.54 9.83l-.72.91-9-1.48-.31-4.14a8.28 8.28 0 0 1 0-1.65c9.95-83.8 18.41-133.76 18.41-133.76l1-6.37z" style="fill:#263238"/><path d="M222.84 253.74c3.19 14.71-2.89 118-4.37 142.27a16.78 16.78 0 0 1-3.38 9.12l-.35.47-7.9-.34-.6-1.85a19.23 19.23 0 0 1-.9-5.1l-3.9-106.43-20.38 103.24a23.07 23.07 0 0 1-4.54 9.83l-.72.91-9-1.48-.31-4.14a8.28 8.28 0 0 1 0-1.65c9.95-83.8 18.41-133.76 18.41-133.76l1-6.37z" style="fill:#fff;opacity:.2"/><path d="m157.78 248.86-7.21-.94 2.51 7.66s6.48.45 6.57-2.9z" style="fill:#b55b52"/><path style="fill:#b55b52" d="m143.99 250.84 4.39 5.85 4.7-1.11-2.51-7.66-6.58 2.92zM195.56 205.79c-1.43 4.81-3 9.58-4.59 14.35-1.79 5.15-3.11 10.66-6.56 15-3.27 4.49-8.21 7.15-12.7 10.2-4.21 2.76-8.47 5.45-12.81 8l-2.9-3.8q5.55-5.14 11.31-10c4.15-3.68 9.23-6.78 11.39-12.12a22.75 22.75 0 0 0 1-2.91c2.08-7.24 4.23-14.46 6.59-21.61l9.23 2.91z"/><path d="M190.45 197.42c-4.07 1-13.92 18.52-13.92 18.52l13.11 7.81s4.15-14.15 4.08-18.82a11 11 0 0 0-3.27-7.51z" style="fill:#a8d0e6"/><path d="M230.32 200.1a159.34 159.34 0 0 0-4.44 23.42c-.66 5.52-1 10.79-1.28 15.56-.55 11.21-.28 19.75-.6 22.64l-38-2.89c-5.32-40.59 4.5-61.42 4.5-61.42a73.62 73.62 0 0 1 8.52-1h.58c.65 0 1.3-.06 2-.07a142.05 142.05 0 0 1 16.17 1.23l1.82.26 1.23.2c5.02.8 9.5 2.07 9.5 2.07z" style="fill:#a8d0e6"/><path d="M200.37 197.51s1.82 3.56 3.6 4c2.51.67 12.62-3.81 12.62-3.81-2-1.88-2.55-5.5-2.53-9.24a49.15 49.15 0 0 1 1-9l-10 8.35c.76 3.12 1 6.39-1.53 8.32a8 8 0 0 1-3.16 1.38z" style="fill:#b55b52"/><path d="M203.54 196.14a25.11 25.11 0 0 0 10.52-7.65 49.15 49.15 0 0 1 1-9l-10 8.35c.77 3.1 1.03 6.37-1.52 8.3z" style="opacity:.2"/><path d="M197.3 168.45c-1.1 2.65-1.12 8.31 2.86 6.82s-.96-11.39-2.86-6.82z" style="fill:#263238"/><path d="M216.67 173.87c-.2 7.06.05 11.21-3.4 14.91a9.19 9.19 0 0 1-3.5 2.37c-5 1.82-10.89-1.24-12.42-6.82-1.73-6.3-1.12-16.79 5.71-19.76a9.74 9.74 0 0 1 13.61 9.3z" style="fill:#b55b52"/><path d="M211.77 186.56s3.59-2.11 4.53-3.82c0 0 .28 2.63-4.86 4.41z" style="fill:#263238"/><path d="m212.08 169.62.7-7.85s6.4 2.55 5.65 6.79c4.42 2.7 3.71 12.1-2.82 15.08-3.16-3-2.29-14.38-2.29-14.38-.39.13-.8.25-1.24.36z" style="fill:#263238"/><path d="M219.59 179.66a6.62 6.62 0 0 1-3.19 4c-2.06 1.11-3.64-.62-3.51-2.85.11-2 1.33-5 3.62-5.2a3 3 0 0 1 3.08 4.05z" style="fill:#b55b52"/><path d="M206 176.1c0 .57-.27 1-.64 1.05s-.7-.45-.72-1 .27-1 .65-1.06.71.43.71 1.01zM214.43 176.11l-.56-.51c-.6 2.58-6.52 5.15-8.07 5.09a2.77 2.77 0 0 0-2.35 1.51c-2.29-1-6.11 2.13-6.11 2.13 1.53 5.58 7.45 8.64 12.42 6.82.93-.61 1.71-1.22 2.31-1.63 2.4-1.65 2.36-13.41 2.36-13.41zm-5.18 8.83c-.46 1.14-1.26 1.68-2.27.4l-1.09.39s1.13 1-.09 1.42-2.78-.92-3-2.41.71-2 1.1-2h.72a8 8 0 0 1 3.08-1.4c1.23-.06 2.02 2.47 1.55 3.6z" style="fill:#263238"/><path d="m214.43 176.11-.56-.51c-.6 2.58-6.52 5.15-8.07 5.09a2.77 2.77 0 0 0-2.35 1.51c-2.29-1-6.11 2.13-6.11 2.13 1.53 5.58 7.45 8.64 12.42 6.82.93-.61 1.71-1.22 2.31-1.63 2.4-1.65 2.36-13.41 2.36-13.41zm-5.18 8.83c-.46 1.14-1.26 1.68-2.27.4l-1.09.39s1.13 1-.09 1.42-2.78-.92-3-2.41.71-2 1.1-2h.72a8 8 0 0 1 3.08-1.4c1.23-.06 2.02 2.47 1.55 3.6z" style="fill:#fff;opacity:.2"/><path d="M199.52 176.25c0 .57-.27 1.05-.65 1.05s-.69-.45-.71-1 .27-1.05.65-1.06.69.43.71 1.01z" style="fill:#263238"/><path d="M201.6 176.49a19.89 19.89 0 0 1-2.64 4.8 3.43 3.43 0 0 0 2.75.4z" style="fill:#a02724"/><path d="M204.87 183.81a6 6 0 0 1-.75.07.18.18 0 0 1-.18-.17.18.18 0 0 1 .17-.17 4.52 4.52 0 0 0 3.65-1.86.18.18 0 0 1 .24-.06.16.16 0 0 1 .05.23 4.62 4.62 0 0 1-3.18 1.96zM208 174a.33.33 0 0 1-.32-.12 2.73 2.73 0 0 0-2.2-1.08.33.33 0 0 1-.37-.3.34.34 0 0 1 .3-.37 3.41 3.41 0 0 1 2.79 1.33.32.32 0 0 1 0 .47.3.3 0 0 1-.2.07zM196.64 174.08a.41.41 0 0 1-.19 0 .34.34 0 0 1-.17-.45 3.35 3.35 0 0 1 2.36-2 .35.35 0 0 1 .39.29.33.33 0 0 1-.28.38 2.59 2.59 0 0 0-1.85 1.57.34.34 0 0 1-.26.21z" style="fill:#263238"/><path d="M224 173s-2.18 3.07-3.17 2.5-4.24-1.65-5.74-1-4.25-5.15-4.25-5.15-9.71-2.53-13.51-.87a3.8 3.8 0 0 1-1-2.49 1.56 1.56 0 0 1 .38-.89 17.66 17.66 0 0 1 5.1-4.7 14.93 14.93 0 0 1 4-1.57 17.31 17.31 0 0 1 2.06-.35c.46-.05.93-.08 1.42-.1s.82 0 1.21 0a15 15 0 0 1 2.28.2 12.24 12.24 0 0 1 1.64.37c5.08 1.46 8.1 5.95 9.58 14.05z" style="fill:#a8d0e6"/><path d="M224 173s-2.18 3.07-3.17 2.5-4.24-1.65-5.74-1-4.25-5.15-4.25-5.15-9.71-2.53-13.51-.87a3.8 3.8 0 0 1-1-2.49.74.74 0 0 0 .38.1 24.11 24.11 0 0 1 11 0c6.83 1.34 14.02 7.3 16.29 6.91z" style="fill:#263238"/><path d="M224 173s-2.18 3.07-3.17 2.5-4.24-1.65-5.74-1-4.25-5.15-4.25-5.15-9.71-2.53-13.51-.87a3.8 3.8 0 0 1-1-2.49.74.74 0 0 0 .38.1 24.11 24.11 0 0 1 11 0c6.83 1.34 14.02 7.3 16.29 6.91z" style="fill:#fff;opacity:.2"/><g style="opacity:.2"><path d="M209.3 158.34h1.21a13.46 13.46 0 0 0-6.15 4.63.52.52 0 0 1-.42.22.46.46 0 0 1-.27-.09.5.5 0 0 1-.14-.69 14.66 14.66 0 0 1 4.35-4c.46-.02.93-.05 1.42-.07zM212.79 158.54a12.24 12.24 0 0 1 1.64.37 13.31 13.31 0 0 0-5.77 4.5.52.52 0 0 1-.42.22.49.49 0 0 1-.28-.09.5.5 0 0 1-.14-.69 14.56 14.56 0 0 1 4.97-4.31zM205.8 158.79a13.91 13.91 0 0 0-5 4.18.52.52 0 0 1-.42.22.51.51 0 0 1-.28-.09.5.5 0 0 1-.13-.69 14 14 0 0 1 1.81-2 14.93 14.93 0 0 1 4.02-1.62z"/></g><path d="M213.68 172.08s.12 11.3-3.17 15.73-7.06 3.25-7.06 3.25.33 1 3.15.61 8.58-5.57 8.46-18z" style="fill:#263238"/><path d="m196.87 315 4.56-23.13-.66-12.28s-6.12 21.21-3.9 35.41z" style="opacity:.2"/><path d="M198.91 268.07a.21.21 0 0 1-.15-.05.25.25 0 0 1 0-.35c.86-1.14 1.5-4.08 1.76-5.46-.81.73-2.23 1.84-3 1.62a.75.75 0 0 1-.53-.59 1.38 1.38 0 0 1 .18-1.22c.54-.7 1.9-.75 3.75-.75 2.08 0 4.16.08 4.7 1a1.34 1.34 0 0 1-.16 1.4 1.25 1.25 0 0 1-1 .66c-1.14.09-2.57-1.36-3.29-2.17a7 7 0 0 0 2.66 4.77.25.25 0 0 1-.3.41 7.86 7.86 0 0 1-2.69-4 14.28 14.28 0 0 1-1.64 4.61.25.25 0 0 1-.29.12zm2.47-6.3c.72.82 2 2.1 2.9 2.1h.06a.74.74 0 0 0 .62-.42c.23-.38.28-.68.16-.89-.39-.7-2.36-.78-3.74-.79zm-1.17 0c-1.31 0-2.37.11-2.72.56a.87.87 0 0 0-.08.78c.05.2.14.23.18.24.48.14 1.69-.74 2.62-1.58z" style="fill:#fff"/><path d="M230.32 200.1a159.34 159.34 0 0 0-4.44 23.42c-.66 5.52-1 10.79-1.28 15.56-.55 11.21-.28 19.75-.6 22.64l-38-2.89c-5.32-40.59 4.5-61.42 4.5-61.42a73.62 73.62 0 0 1 8.52-1l-.13.58s.36 4.8 4 6c2.86.95 12.69-3.34 16.7-5.19l1.23.2c5.02.83 9.5 2.1 9.5 2.1z" style="fill:#fff;opacity:.7000000000000001"/><path d="M233.31 204.89c3.32 3.76 6.37 7.58 9.31 11.62 3.13 4.38 5.93 8.22 8.09 13.45 1.93 4.3.17 7.94-2.43 10.86-5.34 5.85-11.79 9.79-18.56 13.48l-2.66-4c3.58-3.12 7.19-6.34 10.45-9.62 2-2.14 4.49-4.54 5.39-7 0-.18-.07-.14 0 .37 0 .2 0 .07 0 0a33.79 33.79 0 0 0-3.68-6.18c-4.07-5.72-8.69-11.26-13.16-16.68l7.31-6.33z" style="fill:#b55b52"/><path d="M230.32 200.1c5.22 1.88 15.54 18 15.54 18l-11.21 9.31-9.36-5.63s-4-9.2-1.72-15.08 6.75-6.6 6.75-6.6z" style="fill:#a8d0e6"/><path style="fill:#b55b52" d="m215.87 250.5 2.12 7.26 5.34-1.02-2.16-8.89-5.3 2.65z"/><path d="m228.25 249.28-7.08-1.43 2.16 8.89s6.29-.13 6.56-3.49z" style="fill:#b55b52"/><path style="fill:#a8d0e6" d="M206.5 404.21v2.77h8.57l.32-2.27-8.89-.5zM166.7 403.42l9.82 1.53-.72 3.01-9.72-.99.62-3.55z"/></g></svg>