<svg xmlns="http://www.w3.org/2000/svg" viewBox="0 0 500 500"><defs><clipPath id="a"><path d="M233.6 293.16a11.07 11.07 0 0 0-.13 3.92.52.52 0 0 0 .25.36c.9.57 5.14 2.78 17 3.43 12.16.68 19-.67 20.77-1.09a.54.54 0 0 0 .42-.58l-.31-3.59a.54.54 0 0 0-.52-.5l-36.91-2.39a.55.55 0 0 0-.57.44z" style="fill:none"/></clipPath><clipPath id="b"><path d="M248.28 228.3c-.63.63.13 2.92-.77 4.63s.81 4.07 4.51 4.63 10.63 1.1 13.18-1.6.91-7.12-.3-8.13-1.89.3-4.89.34-9.53-2.05-11.73.13z" style="fill:none"/></clipPath><clipPath id="c"><path d="M274.39 295.72c.44 0 1.06-1.34 2-1.74s1.27-2.11.31-3.8-3-4.64-4.81-4.45-3 2.78-3 3.7.71.61 1.69 1.76 2.29 4.63 3.81 4.53z" style="fill:none"/></clipPath><clipPath id="d"><path d="M203.49 256.47c.17.4 1.62.54 2.31 1.28s2.42.48 3.68-1 3.35-4.38 2.54-6-3.63-1.84-4.49-1.53-.33.88-1.08 2.2-3.58 3.65-2.96 5.05z" style="fill:none"/></clipPath><clipPath id="e"><path d="M270.12 233.91c-3.5-1.17-5.48-1.25-6.66 2.05-2.7 7.51-4.16 29.12-4.16 35.9 0 4.51 12.68 6 14.49 4.51 2-1.68.23-33.25 1.77-38.45a1.75 1.75 0 0 0-.32-1.65c-.91-1.06-2.65-1.54-5.12-2.36z" style="fill:none"/></clipPath><clipPath id="f"><path d="M240.61 233.25c-2.41 1.11-4.32 2.3-5.17 5.45-2.41 8.87-4 25.79-4.7 32.5s9.2 2.76 10.46 1 .56-20.32 5.66-38.77a1.88 1.88 0 0 0-.05-1.51c-.55-.7-3.99.3-6.2 1.33z" style="fill:none"/></clipPath></defs><path style="fill:#ebebeb" d="M0 409.4h500v.25H0zM47.68 418.92h42.43v.25H47.68zM116.89 416.21h78.77v.25h-78.77zM91.11 428.21H101v.25h-9.89zM408.72 426.53h36.4v.25h-36.4zM386.69 426.53h13.13v.25h-13.13zM178.56 422.31h54.56v.25h-54.56zM322.53 428.21h8.69v.25h-8.69zM237 364.8H43.91a5.71 5.71 0 0 1-5.7-5.71V87.66a5.71 5.71 0 0 1 5.7-5.66H237a5.71 5.71 0 0 1 5.71 5.71v271.38a5.71 5.71 0 0 1-5.71 5.71zM43.91 82.2a5.46 5.46 0 0 0-5.45 5.46v271.43a5.46 5.46 0 0 0 5.45 5.46H237a5.47 5.47 0 0 0 5.46-5.46V87.66A5.47 5.47 0 0 0 237 82.2zM453.31 364.8h-193.1a5.72 5.72 0 0 1-5.71-5.71V87.66a5.72 5.72 0 0 1 5.71-5.66h193.1a5.71 5.71 0 0 1 5.69 5.66v271.43a5.71 5.71 0 0 1-5.69 5.71zM260.21 82.2a5.47 5.47 0 0 0-5.46 5.46v271.43a5.47 5.47 0 0 0 5.46 5.46h193.1a5.47 5.47 0 0 0 5.46-5.46V87.66a5.47 5.47 0 0 0-5.46-5.46z"/><circle cx="386.69" cy="277.09" r="36.22" style="fill:#ebebeb"/><path d="M378.34 351.44c-31.37 27.2-62.73 15.31-85.3-9.69s-29.26-40.12-67.52-5.5-117.81 73.15-117.81 73.15h368.65C479.33 370 455 285 378.34 351.44z" style="fill:#fafafa"/><path d="M23.78 409.4h394.67s12.66-5.58-33.67-35.4-101-21-128.33.5-62.57-14.36-130.25-38.84C42 305.2 18.78 390.38 23.78 409.4z" style="fill:#e6e6e6"/><path d="M467.16 185.59c-5.09-4.35-11.76-7.44-16.69-7.44-3.1 0-4.94 1.22-5.43 3.2a15.33 15.33 0 0 0-6.48-1.81c-3.37 0-4.58 2.1-3.38 5.05a20.67 20.67 0 0 0-5.64-1.13c-3.44-.13-5.37 1.07-5.56 3a7.57 7.57 0 0 0-2.41-.57c-2-.07-2.51 1.14-1.18 2.71a3.58 3.58 0 0 0 .26.29h54.48c-.8-1.51-5.51-3.22-7.97-3.3zM241.31 166.19c-7.86-6.7-18.13-11.46-25.74-11.46-4.77 0-7.6 1.87-8.36 4.93a23.64 23.64 0 0 0-10-2.79c-5.18 0-7.05 3.23-5.21 7.78a31.37 31.37 0 0 0-8.68-1.74c-5.3-.2-8.28 1.65-8.57 4.66a12 12 0 0 0-3.72-.87c-3-.11-3.86 1.76-1.82 4.18.13.15.26.3.4.44h84c-1.26-2.32-8.52-5.01-12.3-5.13zM120.63 210.47a6.46 6.46 0 0 0-.74 0c-3.67-2.37-7.39-3.89-10-3.89-1.9 0-2.94.79-3.13 2.13-6.85-4.6-13.93-7.59-18.87-7.59-4 0-5.82 1.94-5.6 5.12-3.4-1.81-6.63-2.89-9.1-2.89-4.32 0-5 3.34-2.2 8.06a26 26 0 0 0-7.73-1.8c-4.47-.22-6.44 1.7-5.85 4.83a9.92 9.92 0 0 0-3.34-.89c-2.44-.12-2.72 1.61-.74 3.92h82.35c-3.82-3.55-10.38-6.61-15.05-7z" style="fill:#f0f0f0"/><g><ellipse cx="250" cy="443.24" rx="193.89" ry="11.32" style="fill:#f5f5f5"/></g><g><path d="M253.6 421.56c-13.86 13.33-.8-13.92 24.43-35.12s.4-35.12-28.85-13.92-8.41-6.44 13-26.08 2.85-36.36-27.81-16 31.83-43.08-14.16-48.3c-36.55-4.15 7.91 65.07-24.46 47.65s-43.11-3-22.78 16.69 39.61 47.26 11.55 26.08-53.68-7.27-29.64 13.92 24.93 38.54 11.8 25.21-24.48-13.41-21.53 5.07c.72 4.59 3.28 9.24 7.35 13.65a11.81 11.81 0 0 0 8.78 3.38h116.59a41.23 41.23 0 0 0 8.19-17c3.94-18.55-18.59-8.55-32.46 4.77z" style="fill:#926dfc"/><path d="M253.6 421.56c-13.86 13.33-.8-13.92 24.43-35.12s.4-35.12-28.85-13.92-8.41-6.44 13-26.08 2.85-36.36-27.81-16 31.83-43.08-14.16-48.3c-36.55-4.15 7.91 65.07-24.46 47.65s-43.11-3-22.78 16.69 39.61 47.26 11.55 26.08-53.68-7.27-29.64 13.92 24.93 38.54 11.8 25.21-24.48-13.41-21.53 5.07c.72 4.59 3.28 9.24 7.35 13.65a11.81 11.81 0 0 0 8.78 3.38h116.59a41.23 41.23 0 0 0 8.19-17c3.94-18.55-18.59-8.55-32.46 4.77z" style="fill:#fff;opacity:.8"/><path d="M460.48 425.86c-.65-12.2-15.13-5.6-22.65 3.19s-3.25-9.19 11-23.18-6.45-23.18-23.63-9.19-7.35-4.25 4.45-17.21-4.91-24-23.28-10.58 14.85-28.44-19.56-31.89c-27.35-2.74 18.24 42.95-8.62 31.46s-31.89-2-13.34 11 37.83 31.19 13.39 17.21-40.39-4.79-18.86 9.19 25.5 25.44 13.41 16.64-20.35-8.85-14.67 3.35c1.41 3 4.16 6.09 8 9a11.68 11.68 0 0 0 7 2.24h84.68a19.9 19.9 0 0 0 2.68-11.23z" style="fill:#926dfc"/><path d="M460.48 425.86c-.65-12.2-15.13-5.6-22.65 3.19s-3.25-9.19 11-23.18-6.45-23.18-23.63-9.19-7.35-4.25 4.45-17.21-4.91-24-23.28-10.58 14.85-28.44-19.56-31.89c-27.35-2.74 18.24 42.95-8.62 31.46s-31.89-2-13.34 11 37.83 31.19 13.39 17.21-40.39-4.79-18.86 9.19 25.5 25.44 13.41 16.64-20.35-8.85-14.67 3.35c1.41 3 4.16 6.09 8 9a11.68 11.68 0 0 0 7 2.24h84.68a19.9 19.9 0 0 0 2.68-11.23z" style="fill:#fff;opacity:.7000000000000001"/><path style="fill:#926dfc" d="m321.94 443.24 14.17-152.23h16.81l3.17 152.23h-34.15z"/><path d="M349.7 351.86c12.41-2.56 28.07-27.78 28.07-27.78s2.07-.4 4.44 2c-3.15 10.83-33.69 51.61-33.69 51.61zM336.67 314.6c-9.67 0-18.59-14.57-18.59-14.57a3.87 3.87 0 0 0-3.34 1c1.31 8 20.55 32.08 20.55 32.08z" style="fill:#926dfc"/><path d="M314.74 301.05c1.89-1.48 2.37-1.06 2.37-1.06s6.45 16 16.37 16.56l2.63-25.55 9.65 5 2 106.4 3.36 40.85h-14.8l2-49.68-4.12 5.28-7 44.4h-5.19l10.24-114.09c-5.56-7.16-16.53-22.16-17.51-28.11z" style="opacity:.1"/><path d="M353.47 304.09c1-4.51 6.78-7.07 12.89-5.71a14.59 14.59 0 0 1 3.61 1.31 15.06 15.06 0 0 1 11.67-1.81 15.82 15.82 0 0 1 8.82 5.17 19.43 19.43 0 0 1 6.44.36c8 1.79 13.48 8.06 12.16 14s-8.91 9.31-16.95 7.52c-.61-.13-1.2-.3-1.78-.48-3.11 4.9-10.56 7.36-18.37 5.62-9.33-2.07-15.64-9.34-14.11-16.24a9.67 9.67 0 0 1 .27-1c-3.42-2.11-5.37-5.48-4.65-8.74z" style="fill:#926dfc"/><path d="M353.47 304.09c1-4.51 6.78-7.07 12.89-5.71a14.59 14.59 0 0 1 3.61 1.31 15.06 15.06 0 0 1 11.67-1.81 15.82 15.82 0 0 1 8.82 5.17 19.43 19.43 0 0 1 6.44.36c8 1.79 13.48 8.06 12.16 14s-8.91 9.31-16.95 7.52c-.61-.13-1.2-.3-1.78-.48-3.11 4.9-10.56 7.36-18.37 5.62-9.33-2.07-15.64-9.34-14.11-16.24a9.67 9.67 0 0 1 .27-1c-3.42-2.11-5.37-5.48-4.65-8.74z" style="opacity:.4"/><path d="M306.88 294.24c.33 0 .64 0 1 .05 1-2.81 4.47-4.88 8.59-4.88 4.91 0 8.9 2.94 8.9 6.58a4.38 4.38 0 0 1 0 .51c2 .7 3.32 2.17 3.32 3.89 0 2.38-2.61 4.31-5.83 4.31a7.74 7.74 0 0 1-2-.25 7.76 7.76 0 0 1-5.66 2.2 8.11 8.11 0 0 1-5-1.61 10.1 10.1 0 0 1-3.27.54c-4.24 0-7.67-2.53-7.67-5.67s3.38-5.67 7.62-5.67z" style="fill:#926dfc"/><path d="M306.88 294.24c.33 0 .64 0 1 .05 1-2.81 4.47-4.88 8.59-4.88 4.91 0 8.9 2.94 8.9 6.58a4.38 4.38 0 0 1 0 .51c2 .7 3.32 2.17 3.32 3.89 0 2.38-2.61 4.31-5.83 4.31a7.74 7.74 0 0 1-2-.25 7.76 7.76 0 0 1-5.66 2.2 8.11 8.11 0 0 1-5-1.61 10.1 10.1 0 0 1-3.27.54c-4.24 0-7.67-2.53-7.67-5.67s3.38-5.67 7.62-5.67z" style="opacity:.4"/><path d="M413.93 295c1-11.23-11.49-21.94-27.8-23.94-1.24-.15-2.46-.24-3.67-.28-3-10.54-15.75-19.59-31.6-21.52a45.9 45.9 0 0 0-17.67 1.14c-1-.78-2.06-1.54-3.17-2.26-13.36-8.58-29.29-8.3-35.57.63-5.54 7.86-1.74 19.82 8.36 28.42a11.16 11.16 0 0 0-2.2 5.69c-.72 8.54 8.74 16.68 21.14 18.2a32 32 0 0 0 7.64 0c4.34 5.35 12.05 9.46 21.09 10.56 7.61.93 14.65-.46 19.77-3.42a41.91 41.91 0 0 0 12.42 3.48c16.33 2.05 30.33-5.44 31.26-16.7z" style="fill:#926dfc"/><path d="M413.93 295c1-11.23-11.49-21.94-27.8-23.94-1.24-.15-2.46-.24-3.67-.28-3-10.54-15.75-19.59-31.6-21.52a45.9 45.9 0 0 0-17.67 1.14c-1-.78-2.06-1.54-3.17-2.26-13.36-8.58-29.29-8.3-35.57.63-5.54 7.86-1.74 19.82 8.36 28.42a11.16 11.16 0 0 0-2.2 5.69c-.72 8.54 8.74 16.68 21.14 18.2a32 32 0 0 0 7.64 0c4.34 5.35 12.05 9.46 21.09 10.56 7.61.93 14.65-.46 19.77-3.42a41.91 41.91 0 0 0 12.42 3.48c16.33 2.05 30.33-5.44 31.26-16.7z" style="opacity:.2"/><path d="M314 250.57s-3.58 5.74 1 8.71c3.49-3-1-8.71-1-8.71zM290 262.87s3.74 5.64 8.33 2.73c-1.33-4.41-8.33-2.73-8.33-2.73zM375.23 254.84s4.29 5.25.15 8.77c-3.83-2.53-.15-8.77-.15-8.77zM341.7 251.91s-1.39 5.55 3.05 6.75c2.01-3.31-3.05-6.75-3.05-6.75zM392.54 283.61s-3.88-4.21-7.32-1.16c1.67 3.55 7.32 1.16 7.32 1.16zM333.85 267.63s-1.61 5.5 2.77 6.88c2.15-3.24-2.77-6.88-2.77-6.88zM341.58 288.9s-2.15 5.31 2.08 7.12c2.45-3.02-2.08-7.12-2.08-7.12zM360.05 271.51s-5.37-2-7.05 2.29c3.08 2.37 7.05-2.29 7.05-2.29zM416.48 288.91s-4.53-3.5-7.41.08c2.23 3.17 7.41-.08 7.41-.08zM393.77 307.58s-.09-5.72-4.69-5.73c-1.08 3.72 4.69 5.73 4.69 5.73zM370.39 289.24s-5.73.17-5.68 4.76c3.73 1.05 5.68-4.76 5.68-4.76zM317.53 281.8s.34 5.72 4.93 5.53c.93-3.77-4.93-5.53-4.93-5.53z" style="fill:#926dfc"/><path d="M416.48 288.91a8.06 8.06 0 0 0-3.94-1.52c-3.66-8.09-13.89-14.76-26.41-16.29-1.24-.15-2.46-.24-3.67-.28a23.24 23.24 0 0 0-5.55-9.34c1.14-3.19-1.68-6.64-1.68-6.64a13.9 13.9 0 0 0-1.43 3.75 45.16 45.16 0 0 0-22.94-9.29 45.9 45.9 0 0 0-17.67 1.14c-1-.78-2.06-1.54-3.17-2.26-13.36-8.58-29.29-8.3-35.57.63-2.74 3.88-3.19 8.77-1.74 13.75a14 14 0 0 0-2.73.31 9.31 9.31 0 0 0 4.12 3.31 33.79 33.79 0 0 0 8.71 11.05 11.16 11.16 0 0 0-2.2 5.69c-.35 4.12 1.68 8.14 5.25 11.37-3.75.37-6.65 2.74-6.65 5.62 0 3.13 3.43 5.67 7.67 5.67a10.1 10.1 0 0 0 3.27-.54 8.11 8.11 0 0 0 5 1.61 9.54 9.54 0 0 0 1.71-.15l.25.48v.07c.18.34.37.68.56 1l.18.32.49.86.18.3c.22.39.45.77.69 1.16l.08.12c.21.36.44.72.66 1.08l.21.33.6.94c.07.1.13.2.19.3l.8 1.22.1.14.72 1.09.24.35.64.94.21.31.84 1.21.12.17.73 1 .24.34.66.93.19.26.83 1.15.15.21c.23.31.45.62.68.92l.24.33.59.8.21.29.75 1 .17.23.57.76.22.29.51.68c.07.08.13.17.19.25.2.26.4.51.58.76l-10.19 114.15h34.15l-1.54-73.78c7.75-10.67 20.79-29.12 25.83-39.11 4.37-.73 8-2.84 9.95-5.9.58.18 1.17.35 1.78.48 8 1.79 15.63-1.57 16.95-7.52.77-3.46-.77-7-3.77-9.76 5-3 8.2-7.42 8.64-12.61a14.58 14.58 0 0 0-.42-4.88 11.43 11.43 0 0 0 2.97-1.25zm-81.9 17-.86 8.31c-5-1.41-9.5-6-12.39-9.63a7.5 7.5 0 0 0 1.45.15c2.84 0 5.2-1.5 5.72-3.48l.89-.08a24.73 24.73 0 0 0 5.19 4.69zm19.57 44.23-.8-38.16c1.19.06 2.35.05 3.48 0a15.11 15.11 0 0 0 1.29.93 9.67 9.67 0 0 0-.27 1c-1.53 6.9 4.78 14.17 14.11 16.24.52.12 1 .21 1.55.29-4.57 6.25-12.13 15.63-19.36 19.66z" style="fill:#fff;opacity:.5"/><path style="fill:#926dfc" d="m134.47 436.77-17.61-93.61h-11.74l5.49 93.61h23.86z"/><path d="M110.45 380.58c-8.8-1.58-21-17.08-21-17.08a3.76 3.76 0 0 0-3 1.21c2.75 6.66 26.15 31.74 26.15 31.74zM117.67 357.67c6.75 0 12.25-9 12.25-9a3.12 3.12 0 0 1 2.38.63c-.51 4.92-12.73 19.72-12.73 19.72z" style="fill:#926dfc"/><path d="M132.3 349.34c-1.39-.92-1.71-.66-1.71-.66s-3.69 9.87-10.59 10.19l-3.13-15.71-6.5 3.06 4 65.43-.28 25.12h10.34l-3.9-30.55 3.15 3.25 7.17 27.3h3.62l-12.93-70.16c3.46-4.41 10.38-13.61 10.76-17.27z" style="opacity:.1"/><path d="M105.39 351.21c-.93-2.78-5.09-4.36-9.29-3.52a10.6 10.6 0 0 0-2.46.81 12.1 12.1 0 0 0-8.24-1.11 10.33 10.33 0 0 0-5.91 3.18 14.75 14.75 0 0 0-4.47.22c-5.53 1.1-9 4.95-7.79 8.61s6.7 5.72 12.22 4.62a11.44 11.44 0 0 0 1.22-.3c2.43 3 7.75 4.53 13.12 3.46 6.42-1.27 10.46-5.74 9-10a6.25 6.25 0 0 0-.24-.6c2.32-1.3 3.51-3.37 2.84-5.37z" style="fill:#926dfc"/><path d="M105.39 351.21c-.93-2.78-5.09-4.36-9.29-3.52a10.6 10.6 0 0 0-2.46.81 12.1 12.1 0 0 0-8.24-1.11 10.33 10.33 0 0 0-5.91 3.18 14.75 14.75 0 0 0-4.47.22c-5.53 1.1-9 4.95-7.79 8.61s6.7 5.72 12.22 4.62a11.44 11.44 0 0 0 1.22-.3c2.43 3 7.75 4.53 13.12 3.46 6.42-1.27 10.46-5.74 9-10a6.25 6.25 0 0 0-.24-.6c2.32-1.3 3.51-3.37 2.84-5.37z" style="opacity:.4"/><path d="M137.45 345.15h-.67c-.85-1.73-3.37-3-6.25-3-3.43 0-6.06 1.81-5.88 4v.32c-1.34.42-2.21 1.33-2.12 2.39.12 1.46 2 2.65 4.29 2.65a5.89 5.89 0 0 0 1.36-.16 6.25 6.25 0 0 0 4.06 1.36 5.78 5.78 0 0 0 3.42-1 8.21 8.21 0 0 0 2.31.33c3 0 5.24-1.56 5.08-3.48s-2.64-3.41-5.6-3.41z" style="fill:#926dfc"/><path d="M137.45 345.15h-.67c-.85-1.73-3.37-3-6.25-3-3.43 0-6.06 1.81-5.88 4v.32c-1.34.42-2.21 1.33-2.12 2.39.12 1.46 2 2.65 4.29 2.65a5.89 5.89 0 0 0 1.36-.16 6.25 6.25 0 0 0 4.06 1.36 5.78 5.78 0 0 0 3.42-1 8.21 8.21 0 0 0 2.31.33c3 0 5.24-1.56 5.08-3.48s-2.64-3.41-5.6-3.41z" style="opacity:.4"/><path d="M62.69 345.64c-1.24-6.91 6.92-13.5 18.21-14.72q1.29-.14 2.55-.18c1.6-6.48 10-12 21-13.23a36.91 36.91 0 0 1 12.41.7q1-.72 2.1-1.38c8.9-5.28 20-5.11 24.89.38 4.26 4.84 2.22 12.19-4.41 17.48a6.92 6.92 0 0 1 1.83 3.5c.94 5.25-5.26 10.25-13.85 11.19a25.09 25.09 0 0 1-5.34 0c-2.76 3.29-7.94 5.81-14.2 6.49a26 26 0 0 1-14-2.1 30.77 30.77 0 0 1-8.51 2.14c-11.29 1.24-21.44-3.37-22.68-10.27z" style="fill:#926dfc"/><path d="M62.69 345.64c-1.24-6.91 6.92-13.5 18.21-14.72q1.29-.14 2.55-.18c1.6-6.48 10-12 21-13.23a36.91 36.91 0 0 1 12.41.7q1-.72 2.1-1.38c8.9-5.28 20-5.11 24.89.38 4.26 4.84 2.22 12.19-4.41 17.48a6.92 6.92 0 0 1 1.83 3.5c.94 5.25-5.26 10.25-13.85 11.19a25.09 25.09 0 0 1-5.34 0c-2.76 3.29-7.94 5.81-14.2 6.49a26 26 0 0 1-14-2.1 30.77 30.77 0 0 1-8.51 2.14c-11.29 1.24-21.44-3.37-22.68-10.27z" style="opacity:.2"/><path d="M130.24 318.29s2.79 3.54-.24 5.36c-2.58-1.84.24-5.36.24-5.36zM147.67 325.85s-2.33 3.48-5.68 1.69c.67-2.71 5.68-1.69 5.68-1.69zM87.7 320.92s-2.73 3.23.34 5.39c2.55-1.56-.34-5.39-.34-5.39zM111 319.11s1.25 3.42-1.79 4.16c-1.6-2.04 1.79-4.16 1.79-4.16zM77.06 338.61s2.5-2.59 5-.71c-.94 2.15-5 .71-5 .71zM117.26 328.79s1.4 3.38-1.59 4.22c-1.67-2.01 1.59-4.22 1.59-4.22zM112.94 341.86s1.76 3.27-1.1 4.38c-1.84-1.85 1.1-4.38 1.1-4.38zM99.15 331.17s3.65-1.22 5 1.41c-1.99 1.42-5-1.41-5-1.41zM60.6 341.87s3-2.15 5.18.05c-1.39 1.95-5.18-.05-5.18-.05zM77.41 353.35s-.22-3.52 3-3.53c.94 2.3-3 3.53-3 3.53zM92.82 342.07s4 .11 4.21 2.93c-2.55.64-4.21-2.93-4.21-2.93zM129.38 337.5s.05 3.51-3.17 3.4c-.83-2.32 3.17-3.4 3.17-3.4z" style="fill:#926dfc"/><path d="M60.6 341.87a5.55 5.55 0 0 1 2.68-.94c2.14-5 9-9.07 17.62-10q1.29-.14 2.55-.18a12.71 12.71 0 0 1 3.41-5.75c-1-2 .84-4.08.84-4.08a8.84 8.84 0 0 1 1.19 2.31 31.4 31.4 0 0 1 15.55-5.72 36.91 36.91 0 0 1 12.41.7q1-.72 2.1-1.38c8.9-5.28 20-5.11 24.89.38a9.08 9.08 0 0 1 1.91 8.46 11.77 11.77 0 0 1 1.92.18 5.6 5.6 0 0 1-2.71 2 19 19 0 0 1-5.53 6.8 6.92 6.92 0 0 1 1.83 3.5c.45 2.53-.76 5-3.1 7 2.65.23 4.79 1.69 4.94 3.46.16 1.92-2.11 3.48-5.08 3.48a8.21 8.21 0 0 1-2.31-.33 5.78 5.78 0 0 1-3.42 1 6.78 6.78 0 0 1-1.2-.1l-.15.3-.34.62-.11.2-.3.53-.11.18c-.14.24-.28.48-.43.72v.07l-.41.66a2.39 2.39 0 0 0-.13.21c-.13.19-.25.38-.37.57l-.12.19-.5.75-.06.09-.45.67-.15.21-.4.58-.13.19-.52.74-.08.11-.46.64-.15.21-.41.57-.12.16-.53.71-.09.12-.42.57-.16.21-.37.49-.13.17-.47.62a1.34 1.34 0 0 0-.11.14l-.36.47-.14.18-.41.49-.12.16-.37.46 12.93 70.16h-23.83L108 391.4c-6-6.56-16-17.9-20-24a11.36 11.36 0 0 1-7.25-3.63 11.44 11.44 0 0 1-1.22.3c-5.52 1.1-11-1-12.22-4.62-.72-2.13.18-4.33 2.13-6-3.62-1.86-6.1-4.56-6.67-7.75a7.76 7.76 0 0 1 .05-3 9.57 9.57 0 0 1-2.22-.83zm58.09 10.43 1 5.11c3.41-.87 6.34-3.72 8.18-5.93a5.49 5.49 0 0 1-1 .1c-2 0-3.71-.92-4.17-2.14l-.63-.05a15 15 0 0 1-3.38 2.91zm-11.44 27.2-1.38-23.5h-2.43a9 9 0 0 1-.85.57 6.25 6.25 0 0 1 .24.6c1.42 4.24-2.62 8.71-9 10-.35.07-.71.13-1.06.18 3.47 3.9 9.23 9.65 14.48 12.15z" style="fill:#fff;opacity:.5"/><path d="M259 356c-8.65 32.38 34.55 87.21 34.55 87.21h5.83c24.4-8.08-6.6-51.43-40.38-87.21z" style="fill:#926dfc"/><path d="M259 356c-8.65 32.38 34.55 87.21 34.55 87.21h5.83c24.4-8.08-6.6-51.43-40.38-87.21z" style="opacity:.2"/><path d="M286.53 356c-23.78 32.38 10.83 87.21 10.83 87.21h7.54c34.8-8.08 11.51-51.43-18.37-87.21z" style="fill:#926dfc"/><path d="M286.53 356c-23.78 32.38 10.83 87.21 10.83 87.21h7.54c34.8-8.08 11.51-51.43-18.37-87.21z" style="opacity:.4"/><path style="fill:#926dfc" d="m303.07 443.24 25.88-277.13h45.28l20.8 277.13h-91.96z"/><path d="M333.82 200.27c-26 0-52.15-21.1-52.15-21.1a16.92 16.92 0 0 0-8.84 1.48c4.68 11.6 59.88 46.44 59.88 46.44zM375.38 256.89c17.14-4.3 36.6-43 36.6-43a126.54 126.54 0 0 1 5.58 15.69c-9.24 20.88-41.31 82.74-41.31 82.74z" style="fill:#926dfc"/><path d="M272.83 180.65c4.89-2.15 6.24-1.54 6.24-1.54s19.65 23.22 46.43 24l3.45-37h26.33l-2.73 143.46 29.08 133.67H341.8l2.35-107.51-10.33 7.66L317 443.24h-14l20.72-221.92c-15.72-10.4-47.4-32.01-50.89-40.67z" style="opacity:.1"/><path d="M478.2 113.75c-.62-17.1-25-28.59-56.54-28a25.22 25.22 0 0 0-2.66-8.22C409.51 60 380.74 56.16 354.69 69A74.75 74.75 0 0 0 343 76.09c-13-11.09-32.86-13.61-50.07-4.9-14 7.1-23 20-25.06 33.7-6.16 1.11-14.17 9.11-19.52 20.21-3.55 7.37-5.19 14.55-4.92 19.93-8.88 9.21-12.49 19.89-8.35 28.54 6.68 14 31 17.34 54.4 7.53 1.54-.64 3-1.33 4.47-2 14 12.65 41 13.91 65.7 1.75A80.2 80.2 0 0 0 381 165.69c6.36 7.47 17.53 13 30.48 14.15 18.35 1.63 34.07-6.11 37.88-17.81 8.58.91 16.1-1.77 19.73-7.92 3.34-5.67 2.66-13.07-1.1-20.11 6.68-6.26 10.46-13.24 10.21-20.25z" style="fill:#926dfc"/><path d="M478.2 113.75c-.62-17.1-25-28.59-56.54-28a25.22 25.22 0 0 0-2.66-8.22C409.51 60 380.74 56.16 354.69 69A74.75 74.75 0 0 0 343 76.09c-13-11.09-32.86-13.61-50.07-4.9-14 7.1-23 20-25.06 33.7-6.16 1.11-14.17 9.11-19.52 20.21-3.55 7.37-5.19 14.55-4.92 19.93-8.88 9.21-12.49 19.89-8.35 28.54 6.68 14 31 17.34 54.4 7.53 1.54-.64 3-1.33 4.47-2 14 12.65 41 13.91 65.7 1.75A80.2 80.2 0 0 0 381 165.69c6.36 7.47 17.53 13 30.48 14.15 18.35 1.63 34.07-6.11 37.88-17.81 8.58.91 16.1-1.77 19.73-7.92 3.34-5.67 2.66-13.07-1.1-20.11 6.68-6.26 10.46-13.24 10.21-20.25z" style="opacity:.2"/><path d="M284.64 124.75s-.3 11 8.52 11.42c2.41-7.07-8.52-11.42-8.52-11.42zM261 161.77s9.89 4.84 13.93-3c-5.41-5.14-13.93 3-13.93 3zM387.2 86.25s-10.77 2.3-9.1 11c7.43.65 9.1-11 9.1-11zM324.52 103.88s2.62 8.93 9.83 7c.09-6.34-9.83-7-9.83-7zM270.73 87.08s2.62 8.93 9.82 7c.1-6.34-9.82-7-9.82-7zM421.86 106.52s-8.91-2.7-11.22 4.4c5.23 3.54 11.22-4.4 11.22-4.4zM427.67 170.63s-1.19-9.23-8.61-8.42c-1.06 6.21 8.61 8.42 8.61 8.42zM326.44 132.39s2.27 9 9.54 7.35c.35-6.3-9.54-7.35-9.54-7.35zM354.77 155.85s1.35 9.2 8.76 8.26c.97-6.23-8.76-8.26-8.76-8.26zM366.37 116.28s-9.17 1.62-8 9c6.25.79 8-9 8-9zM465 89.44s-9.23-1.19-10.33 6.2c5.68 2.62 10.33-6.2 10.33-6.2zM443.3 139.12s-4.85-7.94-11.3-4.18c1.54 6.11 11.3 4.18 11.3 4.18zM395.43 132.64s-7.89 4.94-4.05 11.34c6.1-1.61 4.05-11.34 4.05-11.34zM313.78 63s-7.88 4.94-4 11.34c6.05-1.61 4-11.34 4-11.34zM315.21 165.67s5.18 7.73 11.46 3.69c-1.8-6.04-11.46-3.69-11.46-3.69zM435 208.2a30.5 30.5 0 0 0-9.91-1.38c.2-3.76-1.46-8.24-4.77-12-4.68-5.28-11.09-7.25-15.23-5-2.15-2.51-4.94-3.75-7.57-3-2.42.7-4.18 3-5 5.9-3.5 0-6.39.93-8.16 2.95-4.33 4.92-.56 14.53 8.4 22.66a9.69 9.69 0 0 0-1.42 3c-2 7.36 5 16 15.65 19.27 8 2.45 15.67 1.21 19.89-2.65h.08c11.89 3.67 23.31 0 25.53-8.27S446.9 211.87 435 208.2z" style="fill:#926dfc"/><path d="M435 208.2a30.5 30.5 0 0 0-9.91-1.38c.2-3.76-1.46-8.24-4.77-12-4.68-5.28-11.09-7.25-15.23-5-2.15-2.51-4.94-3.75-7.57-3-2.42.7-4.18 3-5 5.9-3.5 0-6.39.93-8.16 2.95-4.33 4.92-.56 14.53 8.4 22.66a9.69 9.69 0 0 0-1.42 3c-2 7.36 5 16 15.65 19.27 8 2.45 15.67 1.21 19.89-2.65h.08c11.89 3.67 23.31 0 25.53-8.27S446.9 211.87 435 208.2z" style="opacity:.4"/><path style="fill:#926dfc" d="m160.11 439.3 19.78-212.57h23.48l4.42 212.57h-47.68z"/><path d="M198.87 311.7c17.33-3.58 39.2-38.79 39.2-38.79s2.89-.55 6.19 2.75c-4.4 15.13-47 72.07-47 72.07zM180.68 259.68c-13.5.05-26-20.35-26-20.35s-2-.64-4.65 1.43c1.83 11.18 28.68 44.79 28.68 44.79z" style="fill:#926dfc"/><path d="M150.06 240.76c2.64-2.07 3.31-1.49 3.31-1.49s9 22.4 22.85 23.12l3.67-35.66 13.49 7 2.76 148.57 4.7 57.05h-20.65l2.75-69.38-5.75 7.39-9.84 62h-7.24L174.41 280c-7.67-10-22.98-30.89-24.35-39.24z" style="opacity:.1"/><path d="M204.14 245c1.41-6.31 9.46-9.89 18-8a21.09 21.09 0 0 1 5 1.83c4.06-2.8 10.06-3.9 16.29-2.52a22 22 0 0 1 12.32 7.22 27.1 27.1 0 0 1 9 .5c11.22 2.5 18.83 11.25 17 19.55s-12.45 13-23.67 10.5a25.3 25.3 0 0 1-2.49-.67c-4.34 6.84-14.74 10.28-25.65 7.85-13-2.9-21.84-13-19.7-22.68.1-.46.24-.91.38-1.35-4.77-2.97-7.49-7.68-6.48-12.23z" style="fill:#926dfc"/><path d="M204.14 245c1.41-6.31 9.46-9.89 18-8a21.09 21.09 0 0 1 5 1.83c4.06-2.8 10.06-3.9 16.29-2.52a22 22 0 0 1 12.32 7.22 27.1 27.1 0 0 1 9 .5c11.22 2.5 18.83 11.25 17 19.55s-12.45 13-23.67 10.5a25.3 25.3 0 0 1-2.49-.67c-4.34 6.84-14.74 10.28-25.65 7.85-13-2.9-21.84-13-19.7-22.68.1-.46.24-.91.38-1.35-4.77-2.97-7.49-7.68-6.48-12.23z" style="opacity:.4"/><path d="M139.08 231.24c.46 0 .9 0 1.34.07 1.42-3.92 6.24-6.81 12-6.81 6.87 0 12.43 4.11 12.43 9.18a5.68 5.68 0 0 1-.05.72c2.74 1 4.64 3 4.64 5.43 0 3.33-3.65 6-8.15 6a10.6 10.6 0 0 1-2.74-.36 10.75 10.75 0 0 1-7.89 3.09 11.3 11.3 0 0 1-7-2.26 13.73 13.73 0 0 1-4.57.77c-5.91 0-10.71-3.55-10.71-7.93s4.79-7.9 10.7-7.9z" style="fill:#926dfc"/><path d="M139.08 231.24c.46 0 .9 0 1.34.07 1.42-3.92 6.24-6.81 12-6.81 6.87 0 12.43 4.11 12.43 9.18a5.68 5.68 0 0 1-.05.72c2.74 1 4.64 3 4.64 5.43 0 3.33-3.65 6-8.15 6a10.6 10.6 0 0 1-2.74-.36 10.75 10.75 0 0 1-7.89 3.09 11.3 11.3 0 0 1-7-2.26 13.73 13.73 0 0 1-4.57.77c-5.91 0-10.71-3.55-10.71-7.93s4.79-7.9 10.7-7.9z" style="opacity:.4"/><path d="M288.56 232.36c1.34-15.68-16-30.64-38.82-33.42-1.73-.21-3.43-.34-5.12-.4-4.26-14.72-22-27.34-44.13-30a64.14 64.14 0 0 0-24.67 1.6 60.59 60.59 0 0 0-4.43-3.15c-18.66-12-40.89-11.61-49.67.87-7.72 11-2.43 27.67 11.68 39.69a15.44 15.44 0 0 0-3.07 7.94c-1 11.92 12.2 23.29 29.51 25.41a44.31 44.31 0 0 0 10.67 0c6.07 7.47 16.83 13.2 29.45 14.74 10.62 1.3 20.46-.63 27.6-4.77a58.59 58.59 0 0 0 17.35 4.86c22.78 2.76 42.32-7.73 43.65-23.37z" style="fill:#926dfc"/><path d="M288.56 232.36c1.34-15.68-16-30.64-38.82-33.42-1.73-.21-3.43-.34-5.12-.4-4.26-14.72-22-27.34-44.13-30a64.14 64.14 0 0 0-24.67 1.6 60.59 60.59 0 0 0-4.43-3.15c-18.66-12-40.89-11.61-49.67.87-7.72 11-2.43 27.67 11.68 39.69a15.44 15.44 0 0 0-3.07 7.94c-1 11.92 12.2 23.29 29.51 25.41a44.31 44.31 0 0 0 10.67 0c6.07 7.47 16.83 13.2 29.45 14.74 10.62 1.3 20.46-.63 27.6-4.77a58.59 58.59 0 0 0 17.35 4.86c22.78 2.76 42.32-7.73 43.65-23.37z" style="opacity:.2"/><path d="M149.08 170.26s-5 8 1.35 12.17c4.86-4.19-1.35-12.17-1.35-12.17zM115.49 187.44s5.22 7.88 11.63 3.81c-1.8-6.15-11.63-3.81-11.63-3.81zM234.52 176.23s6 7.33.21 12.25c-5.35-3.54-.21-12.25-.21-12.25zM187.7 172.13s-1.93 7.76 4.26 9.44c2.81-4.63-4.26-9.44-4.26-9.44zM258.7 216.4s-5.43-5.88-10.23-1.62c2.33 4.89 10.23 1.62 10.23 1.62zM176.74 194.1s-2.25 7.67 3.87 9.59c3-4.51-3.87-9.59-3.87-9.59zM187.53 223.79s-3 7.41 2.91 9.94c3.43-4.2-2.91-9.94-2.91-9.94zM213.33 199.51s-7.5-2.78-9.85 3.19c4.3 3.3 9.85-3.19 9.85-3.19zM292.12 223.81s-6.32-4.9-10.35.1c3.11 4.44 10.35-.1 10.35-.1zM260.41 249.88s-.13-8-6.55-8c-1.52 5.19 6.55 8 6.55 8zM227.76 224.27s-8 .23-7.94 6.64c5.18 1.46 7.94-6.64 7.94-6.64zM154 213.87s.48 8 6.89 7.73c1.24-5.27-6.89-7.73-6.89-7.73z" style="fill:#926dfc"/><path d="M292.12 223.81a11.16 11.16 0 0 0-5.51-2.13c-5.1-11.3-19.39-20.61-36.87-22.74-1.73-.21-3.43-.34-5.12-.4a32.33 32.33 0 0 0-7.76-13c1.6-4.45-2.34-9.27-2.34-9.27a19.26 19.26 0 0 0-2 5.24c-8.08-6.61-19.33-11.43-32-13a64.14 64.14 0 0 0-24.67 1.6 60.59 60.59 0 0 0-4.43-3.15c-18.66-12-40.89-11.6-49.67.87-3.81 5.42-4.45 12.24-2.42 19.2a19.75 19.75 0 0 0-3.81.43 12.92 12.92 0 0 0 5.75 4.62 47.22 47.22 0 0 0 12.13 15.42 15.44 15.44 0 0 0-3.07 7.94c-.49 5.75 2.34 11.36 7.33 15.88-5.24.52-9.29 3.83-9.29 7.84 0 4.38 4.8 7.93 10.71 7.93a13.73 13.73 0 0 0 4.57-.77 11.29 11.29 0 0 0 7 2.26 13.19 13.19 0 0 0 2.39-.22l.35.67.06.11c.24.46.51.94.77 1.42l.26.45c.22.39.45.79.69 1.19l.24.43 1 1.61.1.17.94 1.51.29.46c.27.44.55.87.83 1.31l.27.42 1.12 1.7.13.2c.33.51.67 1 1 1.52l.33.49.9 1.32.29.42 1.17 1.69.17.24 1 1.46c.12.15.23.31.34.47l.92 1.29.27.37c.39.54.77 1.08 1.16 1.61l.2.28c.32.44.63.87.95 1.29l.34.47.82 1.12.3.4 1 1.39.24.32.8 1.07.31.41.71.94c.09.11.18.23.26.35l.81 1.06-14.27 159.31h47.68l-2.14-103c10.81-14.89 29-40.65 36.07-54.6 6.09-1 11.16-4 13.88-8.24.81.26 1.64.48 2.49.67 11.22 2.5 21.82-2.2 23.67-10.5 1.08-4.84-1.07-9.82-5.26-13.64 6.93-4.22 11.45-10.35 12.06-17.6a20.55 20.55 0 0 0-.58-6.81 16.65 16.65 0 0 0 4.14-1.77zm-114.36 23.67-1.2 11.6c-6.94-2-13.27-8.43-17.31-13.45a10.43 10.43 0 0 0 2 .22c4 0 7.26-2.09 8-4.86.41 0 .83-.06 1.24-.11a35.06 35.06 0 0 0 7.27 6.6zm27.32 61.77L204 256c1.65.08 3.27.07 4.86 0a17.16 17.16 0 0 0 1.8 1.29c-.14.44-.28.89-.38 1.35-2.14 9.63 6.68 19.78 19.7 22.68.72.16 1.44.29 2.16.4-6.4 8.8-16.95 21.89-27.06 27.53z" style="fill:#fff;opacity:.30000000000000004"/><path d="M111.5 354.1c47.12 32.37 28.5 87.2 28.5 87.2h-10c-49.7-8.11-40.3-51.45-18.5-87.2z" style="fill:#926dfc"/><path d="M111.5 354.1c47.12 32.37 28.5 87.2 28.5 87.2h-10c-49.7-8.11-40.3-51.45-18.5-87.2z" style="opacity:.2"/><path d="M64.57 354.1c72.88 32.37 68.83 87.2 68.83 87.2h-12.84c-67.35-8.11-71.08-51.45-55.99-87.2z" style="fill:#926dfc"/><path d="M64.57 354.1c72.88 32.37 68.83 87.2 68.83 87.2h-12.84c-67.35-8.11-71.08-51.45-55.99-87.2z" style="opacity:.4"/><path style="fill:#926dfc" d="m173.68 441.6-31.5-306.1H115.3l3.78 306.1h54.6z"/><path d="M120.44 232.79c-19.85-4.09-44.89-44.42-44.89-44.42s-3.31-.63-7.09 3.15c5 17.33 53.87 82.54 53.87 82.54zM141.27 173.22c15.46.07 29.74-23.3 29.74-23.3s2.31-.73 5.33 1.64c-2.1 12.81-32.85 51.3-32.85 51.3z" style="fill:#926dfc"/><path d="M176.34 151.56c-3-2.37-3.79-1.71-3.79-1.71s-10.32 25.66-26.17 26.48l-4.2-40.83-15.45 8 5.68 232.82L127 441.6h23.64l-3.15-79.44 6.58 8.45 11.27 71h8.3l-25.19-245.13c8.79-11.48 26.32-35.36 27.89-44.92z" style="opacity:.1"/><path d="M114.41 156.42c-1.61-7.22-10.84-11.32-20.61-9.14a24 24 0 0 0-5.8 2.09c-4.64-3.21-11.52-4.47-18.65-2.88a25.26 25.26 0 0 0-14.11 8.27 30.94 30.94 0 0 0-10.29.56c-12.85 2.86-21.56 12.89-19.44 22.39s14.25 14.89 27.1 12c1-.21 1.93-.48 2.85-.77 5 7.83 16.88 11.77 29.37 9 14.92-3.32 25-14.94 22.56-26a16 16 0 0 0-.44-1.54c5.5-3.4 8.61-8.78 7.46-13.98z" style="fill:#926dfc"/><path d="M114.41 156.42c-1.61-7.22-10.84-11.32-20.61-9.14a24 24 0 0 0-5.8 2.09c-4.64-3.21-11.52-4.47-18.65-2.88a25.26 25.26 0 0 0-14.11 8.27 30.94 30.94 0 0 0-10.29.56c-12.85 2.86-21.56 12.89-19.44 22.39s14.25 14.89 27.1 12c1-.21 1.93-.48 2.85-.77 5 7.83 16.88 11.77 29.37 9 14.92-3.32 25-14.94 22.56-26a16 16 0 0 0-.44-1.54c5.5-3.4 8.61-8.78 7.46-13.98z" style="opacity:.4"/><path d="M188.91 140.66c-.52 0-1 0-1.53.08-1.63-4.49-7.15-7.8-13.74-7.8-7.86 0-14.23 4.71-14.23 10.52a7.54 7.54 0 0 0 .06.82c-3.14 1.11-5.31 3.47-5.31 6.21 0 3.81 4.18 6.9 9.33 6.9a12.2 12.2 0 0 0 3.13-.41 12.4 12.4 0 0 0 9 3.53 12.94 12.94 0 0 0 8-2.58 15.93 15.93 0 0 0 5.23.87c6.77 0 12.27-4.06 12.27-9.07s-5.44-9.07-12.21-9.07z" style="fill:#926dfc"/><path d="M188.91 140.66c-.52 0-1 0-1.53.08-1.63-4.49-7.15-7.8-13.74-7.8-7.86 0-14.23 4.71-14.23 10.52a7.54 7.54 0 0 0 .06.82c-3.14 1.11-5.31 3.47-5.31 6.21 0 3.81 4.18 6.9 9.33 6.9a12.2 12.2 0 0 0 3.13-.41 12.4 12.4 0 0 0 9 3.53 12.94 12.94 0 0 0 8-2.58 15.93 15.93 0 0 0 5.23.87c6.77 0 12.27-4.06 12.27-9.07s-5.44-9.07-12.21-9.07z" style="opacity:.4"/><path d="M231 102.41c-4.37-17.48-28.76-27.23-54.46-21.79q-2.92.63-5.7 1.47c-10.08-14.36-34-21.45-59-16.16a73.42 73.42 0 0 0-26.13 10.89c-1.93-.66-3.92-1.26-6-1.77C55.08 69 31.13 77.67 26.26 94.44 22 109.21 33.9 125.32 53.65 133.1a17.64 17.64 0 0 0-.37 9.74c3.33 13.29 21.86 20.7 41.4 16.56a50.39 50.39 0 0 0 11.56-3.92c9.35 5.84 23.14 8.05 37.38 5 12-2.54 21.93-8.28 28.13-15.41a67.56 67.56 0 0 0 20.6-1.19c25.7-5.41 42.99-24 38.65-41.47z" style="fill:#926dfc"/><path d="M231 102.41c-4.37-17.48-28.76-27.23-54.46-21.79q-2.92.63-5.7 1.47c-10.08-14.36-34-21.45-59-16.16a73.42 73.42 0 0 0-26.13 10.89c-1.93-.66-3.92-1.26-6-1.77C55.08 69 31.13 77.67 26.26 94.44 22 109.21 33.9 125.32 53.65 133.1a17.64 17.64 0 0 0-.37 9.74c3.33 13.29 21.86 20.7 41.4 16.56a50.39 50.39 0 0 0 11.56-3.92c9.35 5.84 23.14 8.05 37.38 5 12-2.54 21.93-8.28 28.13-15.41a67.56 67.56 0 0 0 20.6-1.19c25.7-5.41 42.99-24 38.65-41.47z" style="opacity:.2"/><path d="M56.81 86.94s-2.44 10.55 6 12.68c3.68-6.34-6-12.68-6-12.68zM26.79 118s8.59 6.6 14-.19c-4.21-5.97-14 .19-14 .19zM163.23 69.89s-10.84.1-10.92 8.79c7.03 2.11 10.92-8.79 10.92-8.79zM99.34 74.62s.78 9.13 8.11 8.64c1.33-6.06-8.11-8.64-8.11-8.64zM192.68 96.21s-8.06-4.35-11.67 2.05c4.34 4.43 11.67-2.05 11.67-2.05zM95.62 102.49s.42 9.14 7.76 9c1.62-6.05-7.76-9-7.76-9zM118.34 130.64s-.49 9.15 6.83 9.69c2.16-5.82-6.83-9.69-6.83-9.69zM137.27 94.77s-9.16-.23-9.48 7.11c5.88 1.98 9.48-7.11 9.48-7.11zM231.64 91.82s-8.67-2.95-11.17 4c5.01 3.61 11.17-4 11.17-4zM207 131.84s-3.12-8.61-10.08-6.25c.27 6.2 10.08 6.25 10.08 6.25zM162.09 116.22s-8.57 3.22-6.13 10.15c6.2-.37 6.13-10.15 6.13-10.15zM78.28 132.38s3.48 8.46 10.33 5.8c-.55-6.18-10.33-5.8-10.33-5.8z" style="fill:#926dfc"/><path d="M129.41 325.62a5.66 5.66 0 0 1-5.86-5.44l-1.25-33.93a5.68 5.68 0 0 1 5.45-5.86 5.68 5.68 0 0 1 5.86 5.45l1.25 33.92a5.68 5.68 0 0 1-5.45 5.86z" style="fill:#263238"/><path d="M133.8 290.86c-5.42-3.86-10.8-11.17-10.8-11.17s-1.57 1.43-.69 4.79c-3.81 1.09-8.68 7.75-9.66 10.25a10.33 10.33 0 0 0-5.44 0c2 4.45 16.17 22.37 27.63 23.32z" style="fill:#926dfc"/><path d="M133.8 290.86c-5.42-3.86-10.8-11.17-10.8-11.17s-1.57 1.43-.69 4.79c-3.81 1.09-8.68 7.75-9.66 10.25a10.33 10.33 0 0 0-5.44 0c2 4.45 16.17 22.37 27.63 23.32z" style="fill:#fff;opacity:.4"/><path d="M124.68 288.85a5.3 5.3 0 0 0-4 3.91l-.06.25a4.13 4.13 0 0 1-2.92 3.14h-.06a5.35 5.35 0 1 0 6.83 6.37 1.89 1.89 0 0 0 0-.23 4.16 4.16 0 0 1 2.93-3.15h.06a5.35 5.35 0 0 0-2.88-10.29z" style="fill:#926dfc;opacity:.4"/><path d="M134.17 301a6.42 6.42 0 0 0-5 4.51c-1.4 5 .75 9.34 5.59 10.63z" style="fill:#fff;opacity:.4"/><path d="M123.69 301.24a4.37 4.37 0 1 1-4.37-4.35 4.37 4.37 0 0 1 4.37 4.35z" style="fill:#fff"/><path d="M122.33 300.46a2.87 2.87 0 1 1-2.88-2.86 2.88 2.88 0 0 1 2.88 2.86z" style="fill:#263238"/><path d="M119.25 301.63a1.71 1.71 0 1 1-1.72-1.7 1.71 1.71 0 0 1 1.72 1.7z" style="fill:#fff"/><circle cx="125.92" cy="294.05" r="4.37" style="fill:#fff"/><path d="M128.4 293.5a2.87 2.87 0 1 1-2.87-2.86 2.86 2.86 0 0 1 2.87 2.86z" style="fill:#263238"/><path d="M125.32 294.68a1.71 1.71 0 1 1-1.71-1.71 1.71 1.71 0 0 1 1.71 1.71z" style="fill:#fff"/><path d="M125.9 299.1a2.72 2.72 0 0 0-1.45 2.52 4 4 0 0 0 1.93 1.56 4.22 4.22 0 0 0-.48-4.08zM354.75 436.79c.41-9.2 9.54-4.22 14.28 2.41s2.06-6.93-6.94-17.49 4.07-17.48 14.9-6.93 4.64-3.2-2.8-13 3.1-18.11 14.68-8-9.37-21.45 12.33-24.05c17.25-2.07-11.5 32.4 5.44 23.73s20.11-1.48 8.41 8.31-23.86 23.53-8.44 13 25.47-3.62 11.9 6.93-16.09 19.2-8.47 12.56 12.84-6.68 9.26 2.52a18.92 18.92 0 0 1-5 6.8 6.58 6.58 0 0 1-4.43 1.68h-53.43a17.44 17.44 0 0 1-1.69-8.47z" style="fill:#926dfc"/><path d="M354.75 436.79c.41-9.2 9.54-4.22 14.28 2.41s2.06-6.93-6.94-17.49 4.07-17.48 14.9-6.93 4.64-3.2-2.8-13 3.1-18.11 14.68-8-9.37-21.45 12.33-24.05c17.25-2.07-11.5 32.4 5.44 23.73s20.11-1.48 8.41 8.31-23.86 23.53-8.44 13 25.47-3.62 11.9 6.93-16.09 19.2-8.47 12.56 12.84-6.68 9.26 2.52a18.92 18.92 0 0 1-5 6.8 6.58 6.58 0 0 1-4.43 1.68h-53.43a17.44 17.44 0 0 1-1.69-8.47z" style="opacity:.4"/></g><g><path style="fill:#926dfc" d="m230.27 423.91-4.4 17.19-8.23-2.02 4.39-17.2 8.24 2.03z"/><path d="m217.47 435.57 9.3 2a.59.59 0 0 1 .47.64l-.64 6.83a1.25 1.25 0 0 1-1.5 1.06c-2.92-.69-3.8-1.12-7.49-1.93-4.32-.94-5.85-.69-10.92-1.8-3.06-.67-2.92-3.88-1.55-3.89a20.69 20.69 0 0 0 10.35-2.75 2.66 2.66 0 0 1 1.98-.16z" style="fill:#263238"/><path style="opacity:.2" d="m230.27 423.91-2.27 8.86-8.24-2.02 2.27-8.86 8.24 2.02z"/><path d="M245 357.67c9.81-28.86 17.58-62.91 17.58-62.91l-28-1.76s-4.12 44.19-6.27 64.57c-2.24 21.18-9.19 69-9.19 69l12.63 2.56s11.8-45.05 13.25-71.46z" style="fill:#263238"/><path d="m249.62 310.8 6.79 8.4c-1.73 6.48-3.75 13.77-6 21.22a146.51 146.51 0 0 1-.79-29.62z" style="opacity:.2"/><path d="m219.27 428.35 11.57 2.53a1 1 0 0 0 1.12-.62l1.28-3.74a1 1 0 0 0-.69-1.24l-12.57-3a1 1 0 0 0-1.17.87l-.3 4.15a1 1 0 0 0 .76 1.05z" style="fill:#263238"/><path d="m219.27 428.35 11.57 2.53a1 1 0 0 0 1.12-.62l1.28-3.74a1 1 0 0 0-.69-1.24l-12.57-3a1 1 0 0 0-1.17.87l-.3 4.15a1 1 0 0 0 .76 1.05z" style="fill:#fff;opacity:.1"/><path style="fill:#926dfc" d="m279.94 423.31.52 17.74-8.49-.12-.52-17.74 8.49.12z"/><path d="m271.77 437.29 9 .14a.58.58 0 0 1 .59.53l.73 6.82a1.24 1.24 0 0 1-1.26 1.34c-3-.1-3.94-.34-7.72-.4-4.42-.07-5.38.48-10.57.4-3.13-.05-3.63-3.22-2.29-3.5a20.57 20.57 0 0 0 9.59-4.76 2.71 2.71 0 0 1 1.93-.57z" style="fill:#263238"/><path style="opacity:.2" d="m279.94 423.31.27 9.15-8.49-.12-.27-9.15 8.49.12z"/><path d="M274.32 357.09c-2.4-30.37-.37-46.75-3.9-61.83L245 293.68s7.9 44.63 12.27 64.82 12.57 69.22 12.57 69.22l12.52.16s-2.03-47.1-8.04-70.79z" style="fill:#263238"/><path d="m269.82 430 11.85.18a1 1 0 0 0 1-.89l.26-3.91a1 1 0 0 0-.93-1l-12.9-.4a1 1 0 0 0-1 1.14l.8 4.12a1 1 0 0 0 .92.76z" style="fill:#263238"/><path d="m269.82 430 11.85.18a1 1 0 0 0 1-.89l.26-3.91a1 1 0 0 0-.93-1l-12.9-.4a1 1 0 0 0-1 1.14l.8 4.12a1 1 0 0 0 .92.76z" style="fill:#fff;opacity:.1"/><path d="M244.41 247.52c-1.08 2-2.19 3.68-3.36 5.48s-2.42 3.5-3.77 5.19a56.07 56.07 0 0 1-4.41 4.95 28.27 28.27 0 0 1-5.82 4.57l-.31.18a4.56 4.56 0 0 1-3.61.4 27.26 27.26 0 0 1-5.87-2.69 38.82 38.82 0 0 1-4.85-3.47 47.9 47.9 0 0 1-4.21-3.95 43.48 43.48 0 0 1-3.7-4.42 2.8 2.8 0 0 1 3.8-4l.15.1c1.38.89 2.87 1.89 4.32 2.77s2.92 1.76 4.39 2.54a44.2 44.2 0 0 0 4.37 2.08 22.27 22.27 0 0 0 4.15 1.26l-3.92.58a24.14 24.14 0 0 0 3.34-3.28c1.13-1.34 2.25-2.81 3.34-4.33s2.16-3.1 3.2-4.7 2.09-3.29 3-4.8l.07-.11a5.6 5.6 0 0 1 9.67 5.64zM233.6 293.16a11.07 11.07 0 0 0-.13 3.92.52.52 0 0 0 .25.36c.9.57 5.14 2.78 17 3.43 12.16.68 19-.67 20.77-1.09a.54.54 0 0 0 .42-.58l-.31-3.59a.54.54 0 0 0-.52-.5l-36.91-2.39a.55.55 0 0 0-.57.44z" style="fill:#926dfc"/><path d="M233.6 293.16a11.07 11.07 0 0 0-.13 3.92.52.52 0 0 0 .25.36c.9.57 5.14 2.78 17 3.43 12.16.68 19-.67 20.77-1.09a.54.54 0 0 0 .42-.58l-.31-3.59a.54.54 0 0 0-.52-.5l-36.91-2.39a.55.55 0 0 0-.57.44z" style="opacity:.2"/><g style="clip-path:url(#a)"><path d="M253.18 304.65a.85.85 0 0 1-.34-.08c-1.77-.69-2.51-2.84-2.46-4.66a17.82 17.82 0 0 1 .35-2.64 16.23 16.23 0 0 0 .34-2.6c0-1.23-.38-2.81-1.62-3.24a.46.46 0 0 0-.19 0c-.17 0-.22.39-.18.72a45.6 45.6 0 0 1 .36 7.2 7.9 7.9 0 0 1-.93 4.07 1.18 1.18 0 0 1-1.27.67 1 1 0 0 1-.47-.3 5 5 0 0 1-1-4.69c.13-.59.3-1.18.47-1.75a13 13 0 0 0 .61-2.81c.09-1.4-.46-3.14-1.87-3.64h-.13a.7.7 0 0 0-.06.25 27.18 27.18 0 0 0 0 4.42 27 27 0 0 1 0 5 3.47 3.47 0 0 1-.59 1.66 1.55 1.55 0 0 1-1.78.53c-.87-.41-.89-1.63-.89-2v-1.78a20.19 20.19 0 0 0-.45-5.65c0-.22-.22-.71-.52-.73s-.36.18-.42.36a2 2 0 0 0 0 .81 51.54 51.54 0 0 1 .08 5.56 2.19 2.19 0 0 1-.84 1.94 1.56 1.56 0 0 1-1.9-.49 3.37 3.37 0 0 1-.63-1.77c-.11-.8-.15-1.63-.2-2.43a12.85 12.85 0 0 0-.81-4.75 18.7 18.7 0 0 0-.4 8.15.26.26 0 0 1-.21.31.25.25 0 0 1-.31-.21 19.14 19.14 0 0 1 .6-9.05.26.26 0 0 1 .22-.18.26.26 0 0 1 .26.13 12 12 0 0 1 1.19 5.57c0 .79.08 1.61.19 2.39a3 3 0 0 0 .51 1.5 1.05 1.05 0 0 0 1.23.36c.45-.25.54-.93.56-1.5a50.28 50.28 0 0 0-.07-5.49 2.47 2.47 0 0 1 .07-1 1 1 0 0 1 1-.7c.46 0 .82.42 1 1.11a21.08 21.08 0 0 1 .47 5.81v1.76c0 .87.2 1.37.59 1.55a1 1 0 0 0 1.13-.37 2.93 2.93 0 0 0 .48-1.41 25.77 25.77 0 0 0 0-4.89 28.27 28.27 0 0 1 0-4.51c0-.38.19-.62.44-.7a.73.73 0 0 1 .47 0c1.68.6 2.33 2.59 2.22 4.18a13.07 13.07 0 0 1-.63 2.93c-.16.56-.33 1.14-.45 1.71-.18.85-.45 3 .83 4.2a.63.63 0 0 0 .24.17c.24.07.51-.2.67-.45a7.5 7.5 0 0 0 .85-3.79 47.05 47.05 0 0 0-.36-7.12c-.09-.73.14-1.24.62-1.32a1 1 0 0 1 .45.06c1.52.53 2 2.35 2 3.76a17.05 17.05 0 0 1-.34 2.69 16.93 16.93 0 0 0-.34 2.56c0 1.63.58 3.54 2.11 4.14.12.05.15 0 .16 0a.41.41 0 0 0 .09-.14 8.42 8.42 0 0 0 .51-3.12c0-1.6 0-3.22-.07-4.82v-.51a17.52 17.52 0 0 1 0-3.69.76.76 0 0 1 .38-.6.7.7 0 0 1 .56.06 5 5 0 0 1 2.57 3.71 17.38 17.38 0 0 1 .26 2.95c0 .5 0 1 .07 1.5a6.32 6.32 0 0 0 1.4 3.92c.21.23.53.45.75.34a.75.75 0 0 0 .26-.27 7.81 7.81 0 0 0 1.16-4.75 26.6 26.6 0 0 0-.4-3.45c-.08-.54-.17-1.08-.24-1.63-.13-1 .16-1.73.79-1.9a1.32 1.32 0 0 1 1.21.4 4.73 4.73 0 0 1 1.22 3.79c0 .52-.05 1.05-.09 1.57-.11 1.67-.24 3.39.52 4.81.25.47.71.87 1.09.72s.44-.56.4-1.29l-.33-5.74a3.91 3.91 0 0 1 .14-1.65 1.57 1.57 0 0 1 1.37-1.08 1.66 1.66 0 0 1 .9.33 5 5 0 0 1 1.93 3.88c.05.41.08.83.11 1.25a10.85 10.85 0 0 0 .46 2.89 1.22 1.22 0 0 0 .53.66.22.22 0 0 0 .21 0 .27.27 0 0 1 .36.12.26.26 0 0 1-.12.36.78.78 0 0 1-.65 0 1.64 1.64 0 0 1-.83-1 11.29 11.29 0 0 1-.49-3c0-.4-.06-.81-.11-1.22a4.61 4.61 0 0 0-1.69-3.5 1.22 1.22 0 0 0-.62-.23 1 1 0 0 0-.88.73 3.81 3.81 0 0 0-.11 1.43l.33 5.7c.06 1-.19 1.63-.73 1.86-.71.29-1.41-.3-1.76-1a9.31 9.31 0 0 1-.58-5.1c0-.52.07-1 .09-1.55a4.25 4.25 0 0 0-1.05-3.38.91.91 0 0 0-.71-.28c-.41.1-.47.77-.4 1.31s.16 1.08.24 1.62a29 29 0 0 1 .41 3.51 8.31 8.31 0 0 1-1.26 5.07 1 1 0 0 1-1.84 0 6.77 6.77 0 0 1-1.54-4.25c0-.51-.06-1-.07-1.52a16.1 16.1 0 0 0-.26-2.86 4.54 4.54 0 0 0-2.26-3.34.39.39 0 0 0-.14 0 .65.65 0 0 0-.05.18 17 17 0 0 0 0 3.57v.52c.09 1.62.11 3.25.07 4.86a8.78 8.78 0 0 1-.55 3.32.8.8 0 0 1-.37.42.47.47 0 0 1-.3-.02z" style="fill:#926dfc;opacity:.9"/></g><path d="M270.2 234.56a105.17 105.17 0 0 0-21.2-2.34 15.13 15.13 0 0 0-15 13.3c-1.34 11.45-1.37 28.67-1.19 48.16 8.71 3.6 24.34 4.46 39.19 2.48 2.22-11-.69-29.57 4.56-51.56a8.31 8.31 0 0 0-6.36-10.04z" style="fill:#926dfc"/><path d="M270.13 247.07a22.06 22.06 0 0 0 3.48 16.74 127.37 127.37 0 0 1 1.62-13z" style="opacity:.2"/><path d="M263.89 216.79c-1.12 4.3-2.43 11.86-.38 16a2 2 0 0 1-.51 2.44c-2.63 2-4.83 2.45-9.55 1.91-2.76-.32-6.18-1.7-4.87-3.77.28-.44.88-.47 1.22-.86 2.22-2.52 2.6-5.62 1.9-9.35z" style="fill:#ffc3bd"/><path d="M251.7 223.15a16 16 0 0 1 .31 3.35c2.1.11 4.95-.81 5.92-2.38a12.86 12.86 0 0 0 1.42-5z" style="opacity:.2"/><path d="M265.68 209.49c-1 6.59-1.23 10.5-4.88 13.58-5.49 4.63-13.41.8-14.42-6-.9-6.09.87-15.85 7.6-17.86a9.18 9.18 0 0 1 11.7 10.28z" style="fill:#ffc3bd"/><path d="M265.36 215.13c-5.12.1-3.24-3.71-3.32-6.25-1.09.57-4.79-1.33-3.8-3.73a12 12 0 0 1-6.33 1.2c-3.12-.39-3.67-1.44-4-2.86s-.13-2.6 4-4.29 9.62.17 9.62.17 7-2.94 8.7 4.44c2.42 2.37.47 11.28-4.87 11.32z" style="fill:#263238"/><path d="M267.4 216.07a5.5 5.5 0 0 1-3.65 1.71c-1.75.06-2-1.73-1-3.27.91-1.39 2.91-3.08 4.42-2.41s1.46 2.68.23 3.97z" style="fill:#ffc3bd"/><path d="M255.8 210c0 .54-.37.95-.72.91s-.6-.5-.55-1 .37-1 .72-.91.6.46.55 1zM249.41 209.57c0 .54-.37 1-.72.92s-.6-.5-.55-1 .37-.95.72-.92.6.43.55 1z" style="fill:#263238"/><path d="M251.76 209.67a19.4 19.4 0 0 1-3 4.37 3.13 3.13 0 0 0 2.53.73z" style="fill:#ed847e"/><path d="M252.6 217.33a4.44 4.44 0 0 0 3.33-1.14.16.16 0 1 0-.23-.23 4.24 4.24 0 0 1-3.75 1 .15.15 0 0 0-.18.12.16.16 0 0 0 .12.19 4.6 4.6 0 0 0 .71.06zM257.35 208.92a.3.3 0 0 0 .16 0 .32.32 0 0 0 .16-.42 3.23 3.23 0 0 0-2.22-1.9.32.32 0 1 0-.1.63 2.58 2.58 0 0 1 1.74 1.52.32.32 0 0 0 .26.17zM246.82 207.67a.32.32 0 0 0 .27-.11 2.51 2.51 0 0 1 2.07-1 .32.32 0 0 0 .35-.28.33.33 0 0 0-.29-.35 3.11 3.11 0 0 0-2.62 1.23.31.31 0 0 0 .05.44.28.28 0 0 0 .17.07z" style="fill:#263238"/><path d="M275.3 237.72a116.22 116.22 0 0 1 7.37 12.54c1.1 2.19 2.15 4.43 3.07 6.79a37.17 37.17 0 0 1 2.26 7.82c.06.37.11.76.14 1.17l.06.62V268.55c0 .37-.05.75-.1 1.11a24.51 24.51 0 0 1-.87 4.16 36.35 36.35 0 0 1-3 7.26 53.25 53.25 0 0 1-8.98 11.92 2.79 2.79 0 0 1-4.46-3.24l.1-.19 1.53-2.94c.51-1 1-2 1.44-3 .92-2 1.78-4 2.47-6.06a35.74 35.74 0 0 0 1.57-5.93 17.64 17.64 0 0 0 .23-2.73 4.53 4.53 0 0 0 0-.64V268a1.18 1.18 0 0 0 0-.21v-.21l-.05-.25a5.31 5.31 0 0 0-.13-.55 33.37 33.37 0 0 0-2.06-5.46c-.92-1.92-1.91-3.88-3-5.82-2.13-3.87-4.51-7.82-6.84-11.54l-.06-.09a5.6 5.6 0 0 1 9.38-6.1z" style="fill:#926dfc"/><path d="m272.12 288.34-6.2 2.81 5.32 6.19s5.3-3.23 4-6.32zM263.38 297.74l2.23 1.86a2.36 2.36 0 0 0 3.05 0l2.58-2.23-5.32-6.19-2.81 3.23a2.35 2.35 0 0 0 .27 3.33zM197.82 252.26l.32-3.63a1.56 1.56 0 0 1 1.47-1.42 7.56 7.56 0 0 1 3.32.6l4.66 2 .15 4.15c-1.44 3-7.39 1.27-7.39 1.27l-.49-.12a2.7 2.7 0 0 1-2.04-2.85z" style="fill:#ffc3bd"/><path d="M248.28 228.3c-.63.63.13 2.92-.77 4.63s.81 4.07 4.51 4.63 10.63 1.1 13.18-1.6.91-7.12-.3-8.13-1.89.3-4.89.34-9.53-2.05-11.73.13z" style="fill:#926dfc"/><path d="M248.28 228.3c-.63.63.13 2.92-.77 4.63s.81 4.07 4.51 4.63 10.63 1.1 13.18-1.6.91-7.12-.3-8.13-1.89.3-4.89.34-9.53-2.05-11.73.13z" style="opacity:.2"/><g style="clip-path:url(#b)"><path d="M252.77 240.89h-.18a1 1 0 0 1-.49-.4c-.78-1.16-.54-2.71-.25-4.07l1.3-6.22a5.66 5.66 0 0 0 .08-3.2c-.11-.28-.27-.47-.41-.47s-.26.08-.47.47a17.62 17.62 0 0 0-1.64 6.05 28.65 28.65 0 0 1-.84 4.18 2.8 2.8 0 0 1-1.34 1.89.28.28 0 0 1-.22 0 .29.29 0 0 1-.14-.17 6.44 6.44 0 0 1-.06-2.43 37.28 37.28 0 0 1 2.08-10.29.27.27 0 0 1 .35-.14.26.26 0 0 1 .15.35 36.63 36.63 0 0 0-2.05 10.14 7.33 7.33 0 0 0 0 1.87 3 3 0 0 0 .75-1.38 29.46 29.46 0 0 0 .82-4.1 18.42 18.42 0 0 1 1.7-6.23c.1-.19.39-.76 1-.74.38 0 .71.3.9.81a6.15 6.15 0 0 1 0 3.5l-1.31 6.22c-.26 1.25-.49 2.67.17 3.66a.48.48 0 0 0 .2.19c.12 0 .29-.17.43-.48a27.89 27.89 0 0 0 1.83-7.51c.15-1 .31-2.11.51-3.16.26-1.37.78-3.27 2.23-4a.26.26 0 0 1 .21 0 .26.26 0 0 1 .16.13 6.41 6.41 0 0 1 .57 2.68 24.56 24.56 0 0 1-.6 5.28 19.71 19.71 0 0 0-.51 6.16c.05.36.17.81.44.91a.59.59 0 0 0 .39 0 2.14 2.14 0 0 0 1.23-1.44 6.29 6.29 0 0 0 .22-2.19c0-1-.12-2-.2-3a21.18 21.18 0 0 1 .31-7.86c.17-.59.45-.91.83-.95s.78.29 1 .9a11.71 11.71 0 0 1 .55 2.86c.07.87.12 1.76.16 2.62.14 2.74.28 5.58 1.45 8 .13.26.33.61.59.66s.63-.34.72-.47a4.72 4.72 0 0 0 .55-3.47 15.28 15.28 0 0 0-1-3l-.24-.6a33.62 33.62 0 0 1-1.81-6.37 4.48 4.48 0 0 1 0-2.24 1.63 1.63 0 0 1 1.84-1.2.26.26 0 0 1 .18.33.26.26 0 0 1-.33.18c-.48-.14-1 .33-1.19.86a4.1 4.1 0 0 0 0 2 33.39 33.39 0 0 0 1.78 6.28l.24.59a16.58 16.58 0 0 1 1 3.06 5.25 5.25 0 0 1-.64 3.88 1.33 1.33 0 0 1-1.27.69 1.54 1.54 0 0 1-1-.95c-1.22-2.5-1.37-5.39-1.51-8.18 0-.86-.08-1.75-.16-2.6a10.42 10.42 0 0 0-.52-2.73c-.1-.27-.27-.54-.43-.54-.14 0-.28.22-.38.57a20.65 20.65 0 0 0-.29 7.65c.09 1 .17 2.06.21 3.08a7 7 0 0 1-.25 2.37 2.67 2.67 0 0 1-1.57 1.79 1.14 1.14 0 0 1-.75 0c-.42-.16-.68-.61-.78-1.34a20.09 20.09 0 0 1 .51-6.33 23.69 23.69 0 0 0 .59-5.17 6.16 6.16 0 0 0-.39-2.18c-1.07.73-1.49 2.33-1.72 3.51-.19 1-.35 2.1-.5 3.13a28.25 28.25 0 0 1-1.87 7.66c-.26.36-.58.64-.92.64z" style="fill:#926dfc;opacity:.9"/></g><path d="M274.39 295.72c.44 0 1.06-1.34 2-1.74s1.27-2.11.31-3.8-3-4.64-4.81-4.45-3 2.78-3 3.7.71.61 1.69 1.76 2.29 4.63 3.81 4.53z" style="fill:#926dfc"/><path d="M274.39 295.72c.44 0 1.06-1.34 2-1.74s1.27-2.11.31-3.8-3-4.64-4.81-4.45-3 2.78-3 3.7.71.61 1.69 1.76 2.29 4.63 3.81 4.53z" style="opacity:.2"/><g style="clip-path:url(#c)"><path d="M274.18 297.38a.27.27 0 0 1-.25-.16.26.26 0 0 1 .14-.35 15.4 15.4 0 0 0 4.51-3.55 3.86 3.86 0 0 0 .63-.76 1.09 1.09 0 0 0-.67.22 11.6 11.6 0 0 0-1.81 1.43 7.79 7.79 0 0 1-3.08 2 .74.74 0 0 1-.82-.2 1.05 1.05 0 0 1-.12-.9 3.21 3.21 0 0 1 1.32-1.67l2.81-2.16a2.41 2.41 0 0 0 1.17-1.72.33.33 0 0 0 0-.19c0-.07-.2 0-.24 0a11.63 11.63 0 0 0-3.47 2.45c-.44.4-.9.81-1.36 1.19a2.49 2.49 0 0 1-2.63.66.26.26 0 0 1-.15-.28 4.07 4.07 0 0 1 .71-1.61 11.08 11.08 0 0 1 2.18-2.15 8.77 8.77 0 0 0 2.39-2.54.72.72 0 0 0 .11-.62.48.48 0 0 0-.18-.2.88.88 0 0 0-.94 0 3 3 0 0 0-.83.86c-.34.48-.67 1-1 1.52a10 10 0 0 1-3 3.53c-.47.28-.75.11-.88 0a1 1 0 0 1-.15-1 6.72 6.72 0 0 1 .77-1.66c.28-.45.57-.88.86-1.32a11.39 11.39 0 0 0 2.14-4.47.91.91 0 0 0 0-.61.41.41 0 0 0-.41-.15 2 2 0 0 0-1.38 1.23 9.83 9.83 0 0 0-.59 1.88l-.11.41a21 21 0 0 1-1.43 4 2.33 2.33 0 0 1-.87 1.09 1.08 1.08 0 0 1-.79.07 1.06 1.06 0 0 1-.64-.55.27.27 0 0 1 .11-.36.26.26 0 0 1 .36.12.54.54 0 0 0 .33.27.5.5 0 0 0 .38 0 1.9 1.9 0 0 0 .64-.85 19.82 19.82 0 0 0 1.39-3.88l.11-.41a9.8 9.8 0 0 1 .63-2 2.47 2.47 0 0 1 1.79-1.53.93.93 0 0 1 .93.41 1.39 1.39 0 0 1 .11 1 12 12 0 0 1-2.22 4.67c-.29.43-.58.86-.85 1.3a6.28 6.28 0 0 0-.72 1.52.56.56 0 0 0 0 .48s.17 0 .22-.06a9.84 9.84 0 0 0 2.81-3.35c.32-.52.65-1 1-1.55a3.25 3.25 0 0 1 1-1 1.4 1.4 0 0 1 1.51 0 1.07 1.07 0 0 1 .36.41 1.2 1.2 0 0 1-.13 1.1 9.37 9.37 0 0 1-2.52 2.71 10.61 10.61 0 0 0-2.09 2 3.67 3.67 0 0 0-.56 1.17c.52.16 1.1-.06 1.86-.67.46-.36.91-.77 1.35-1.17a11.78 11.78 0 0 1 3.63-2.55.69.69 0 0 1 .91.25.92.92 0 0 1 .08.47 2.87 2.87 0 0 1-1.38 2.11l-2.82 2.17a2.62 2.62 0 0 0-1.12 1.38.52.52 0 0 0 0 .42s.06.08.27 0a7.24 7.24 0 0 0 2.85-1.87 13.05 13.05 0 0 1 1.9-1.5 1.41 1.41 0 0 1 1.44-.14.26.26 0 0 1 .11.32 3.38 3.38 0 0 1-.86 1.21 16 16 0 0 1-4.68 3.66.18.18 0 0 1-.07.02z" style="fill:#926dfc;opacity:.9"/></g><path d="M203.49 256.47c.17.4 1.62.54 2.31 1.28s2.42.48 3.68-1 3.35-4.38 2.54-6-3.63-1.84-4.49-1.53-.33.88-1.08 2.2-3.58 3.65-2.96 5.05z" style="fill:#926dfc"/><path d="M203.49 256.47c.17.4 1.62.54 2.31 1.28s2.42.48 3.68-1 3.35-4.38 2.54-6-3.63-1.84-4.49-1.53-.33.88-1.08 2.2-3.58 3.65-2.96 5.05z" style="opacity:.2"/><g style="clip-path:url(#d)"><path d="M208.38 260.47a3.32 3.32 0 0 1-1.43-.4 15.94 15.94 0 0 1-5-3.14.27.27 0 0 1 .39-.37 15.51 15.51 0 0 0 4.87 3 3.39 3.39 0 0 0 .94.33 1.2 1.2 0 0 0-.44-.55 11.41 11.41 0 0 0-2-1.21 7.84 7.84 0 0 1-2.92-2.21.74.74 0 0 1-.09-.84 1 1 0 0 1 .8-.42 3.17 3.17 0 0 1 2 .66l3 1.91a2.41 2.41 0 0 0 2 .51.33.33 0 0 0 .17-.08c.06-.07-.05-.2-.08-.23a11.34 11.34 0 0 0-3.49-2.42c-.53-.28-1.07-.57-1.58-.88a2.48 2.48 0 0 1-1.52-2.24.28.28 0 0 1 .21-.24 3.94 3.94 0 0 1 1.75.12 10.87 10.87 0 0 1 2.77 1.31 8.82 8.82 0 0 0 3.21 1.38.72.72 0 0 0 .62-.11.42.42 0 0 0 .12-.23.89.89 0 0 0-.31-.9 2.81 2.81 0 0 0-1.08-.48c-.57-.16-1.18-.29-1.77-.41a10.08 10.08 0 0 1-4.34-1.6c-.42-.34-.36-.67-.28-.83a1 1 0 0 1 .89-.48 6.48 6.48 0 0 1 1.82.15c.52.11 1 .24 1.54.36a11.41 11.41 0 0 0 4.93.48 1 1 0 0 0 .56-.24.41.41 0 0 0 0-.44 1.94 1.94 0 0 0-1.62-.87 9.51 9.51 0 0 0-2 .09h-.41a20.76 20.76 0 0 1-4.24 0 2.31 2.31 0 0 1-1.32-.45 1 1 0 0 1-.34-.72 1.12 1.12 0 0 1 .29-.79.27.27 0 0 1 .38 0 .26.26 0 0 1 0 .37.51.51 0 0 0-.15.41.47.47 0 0 0 .15.34 2 2 0 0 0 1 .31 20.27 20.27 0 0 0 4.12 0h.42a10.38 10.38 0 0 1 2.08-.08 2.44 2.44 0 0 1 2 1.16.92.92 0 0 1-.06 1 1.4 1.4 0 0 1-.89.44 11.88 11.88 0 0 1-5.15-.49c-.51-.12-1-.25-1.51-.35a6 6 0 0 0-1.68-.15c-.22 0-.4.09-.44.18s.08.15.13.18a9.59 9.59 0 0 0 4.11 1.5c.59.12 1.21.25 1.8.41a3.32 3.32 0 0 1 1.29.6 1.37 1.37 0 0 1 .48 1.43 1.06 1.06 0 0 1-.26.48 1.22 1.22 0 0 1-1.08.26 9.13 9.13 0 0 1-3.4-1.45 10.7 10.7 0 0 0-2.64-1.26 3.5 3.5 0 0 0-1.29-.13c0 .54.43 1 1.26 1.52.5.31 1 .59 1.56.87a11.9 11.9 0 0 1 3.77 2.56.69.69 0 0 1 .07.94 1 1 0 0 1-.41.23 2.9 2.9 0 0 1-2.46-.57l-3-1.91a2.64 2.64 0 0 0-1.68-.58.53.53 0 0 0-.39.17s-.05.08.07.26a7.28 7.28 0 0 0 2.74 2 12.78 12.78 0 0 1 2 1.28 1.4 1.4 0 0 1 .63 1.3.26.26 0 0 1-.26.22z" style="fill:#926dfc;opacity:.9"/></g><path d="M270.12 233.91c-3.5-1.17-5.48-1.25-6.66 2.05-2.7 7.51-4.16 29.12-4.16 35.9 0 4.51 12.68 6 14.49 4.51 2-1.68.23-33.25 1.77-38.45a1.75 1.75 0 0 0-.32-1.65c-.91-1.06-2.65-1.54-5.12-2.36z" style="fill:#263238"/><g style="clip-path:url(#e)"><path d="M276.2 243.55a.22.22 0 0 1-.15-.06c-2.47-1.94-9.28-3.94-15.42-3.82a.26.26 0 0 1-.25-.25.24.24 0 0 1 .24-.25c5.67-.11 12.89 1.69 15.74 3.93a.26.26 0 0 1 0 .35.25.25 0 0 1-.16.1zM280 256.8a.25.25 0 0 1-.16-.06c-2.38-1.89-4.53-3-10.37-4.37a39.18 39.18 0 0 0-12-1 .24.24 0 0 1-.27-.23.25.25 0 0 1 .23-.27 40.16 40.16 0 0 1 12.13 1c5.93 1.37 8.13 2.54 10.57 4.47a.24.24 0 0 1 0 .35.26.26 0 0 1-.13.11zM278.56 267.65a.27.27 0 0 1-.15 0c-1.78-1.31-10.09-4-23.23-3.62a.25.25 0 0 1-.25-.25.24.24 0 0 1 .24-.25c13.24-.41 21.71 2.38 23.53 3.72a.24.24 0 0 1 .06.34.26.26 0 0 1-.2.06z" style="opacity:.7000000000000001"/></g><path d="M270.45 248.74c-.13.16-.47.12-.62.25s-.14.49-.3.6-.48-.05-.67 0-.28.42-.48.46-.43-.2-.63-.19-.42.29-.61.26-.34-.34-.53-.41-.48.12-.66 0-.18-.44-.34-.57-.5-.08-.63-.24 0-.48-.11-.66-.44-.25-.51-.45.17-.46.13-.66-.32-.39-.32-.59.31-.38.34-.58-.18-.47-.11-.67.41-.26.51-.44 0-.5.1-.67.47-.11.62-.25.13-.48.3-.59.48 0 .66 0 .29-.41.48-.45.44.2.64.19.41-.29.61-.26.33.34.53.41.48-.12.66 0 .18.44.34.57.5.08.63.23 0 .49.11.67.44.25.5.45-.16.45-.13.66.33.38.33.59-.31.38-.34.58.18.47.11.66-.41.27-.51.45.03.49-.1.65z" style="fill:#fff"/><path d="M240.61 233.25c-2.41 1.11-4.32 2.3-5.17 5.45-2.41 8.87-4 25.79-4.7 32.5s9.2 2.76 10.46 1 .56-20.32 5.66-38.77a1.88 1.88 0 0 0-.05-1.51c-.55-.7-3.99.3-6.2 1.33z" style="fill:#263238"/><g style="clip-path:url(#f)"><path d="M231.31 244a.27.27 0 0 1-.19-.08.25.25 0 0 1 0-.35c2.9-2.64 10.15-5.45 15.82-6.13a.24.24 0 0 1 .27.22.25.25 0 0 1-.21.28c-6.16.74-13 3.7-15.54 6a.27.27 0 0 1-.15.06zM227.13 257.8a.24.24 0 0 1-.19-.08.25.25 0 0 1 0-.35c2.48-2.28 4.72-3.75 10.67-5.94a42.75 42.75 0 0 1 12.15-2.66.26.26 0 0 1 .27.24.25.25 0 0 1-.24.26 42.36 42.36 0 0 0-12 2.62c-5.88 2.17-8.08 3.62-10.51 5.85a.27.27 0 0 1-.15.06zM228.27 268.5a.25.25 0 0 1-.19-.09.24.24 0 0 1 0-.35c1.85-1.59 10.38-5.56 23.61-7a.24.24 0 0 1 .27.22.23.23 0 0 1-.22.27c-13.11 1.42-21.52 5.32-23.34 6.88a.23.23 0 0 1-.13.07z" style="opacity:.7000000000000001"/></g><path d="M249 201.73a11.51 11.51 0 0 1 8.92-6.46c8.12-1.13 13.88 4 14.43 10.65.44 5.46-2.55 5.35-2.55 5.35-6.29-5.18-13.12-9.52-20.8-9.54z" style="fill:#926dfc"/><path d="M248.27 200.92c-1.69 2.2-2.2 4-1.06 4.6s7.13-1.56 12.24 1.19c5.91 3.17 8.44 8.84 9.24 8.46a4.71 4.71 0 0 0 2.89-4.43c-.34-2.41-5.92-7.34-10.15-9.34s-11.87-2.16-13.16-.48z" style="fill:#926dfc"/><path d="M248.27 200.92c-1.69 2.2-2.2 4-1.06 4.6s7.13-1.56 12.24 1.19c5.91 3.17 8.44 8.84 9.24 8.46a4.71 4.71 0 0 0 2.89-4.43c-.34-2.41-5.92-7.34-10.15-9.34s-11.87-2.16-13.16-.48z" style="opacity:.2"/><path style="fill:#926dfc" d="m182.04 445.35 10.4-115.97 1.59-.55 9.12-97.84 2.86-1.18-5.19 52.42.06 11-.93 11.26-1.03 1.19-6.42 62.99.93 2.69-9.49 74.35-1.9-.36z"/><path style="opacity:.4" d="m182.04 445.35 10.4-115.97 1.59-.55 9.12-97.84 2.86-1.18-5.19 52.42.06 11-.93 11.26-1.03 1.19-6.42 62.99.93 2.69-9.49 74.35-1.9-.36z"/><path d="M207 249.58c0-2.62-1.8-2.66-3.8-4.76-.23-.24-1 .16-.9.73a2.67 2.67 0 0 0 1 1.82c-.32.76-.61 3.69 1.16 5.34a3.39 3.39 0 0 0 2.54-3.13z" style="fill:#ffc3bd"/></g></svg>