<svg xmlns="http://www.w3.org/2000/svg" viewBox="0 0 500 500"><path d="M440.27 257.17c-4-3.9-9.13-8.62-15.21-6.94-5.73 1.59-7.92 7.84-8.95 13-1.32 6.71-2.35 13.49-3.41 20.25s-2.09 13.65-3.07 20.49q-.84 5.79-1.64 11.58l-.81 5.79c-.26 1.89-.58 3.78-.68 5.69a.54.54 0 0 0 1.05.12c.74-3.22 1.05-6.57 1.52-9.84s.95-6.57 1.43-9.85q1.44-9.79 2.93-19.58t3-19.56c.88-5.52 1.3-12.39 6.2-16a9.49 9.49 0 0 1 9.16-.86c3.22 1.23 5.8 3.54 8.32 5.83.12.07.23-.05.16-.12z" style="fill:#a6a6a6"/><path d="M434.82 253.18s-8.14-2.93-12.15 3 .78 21 37.83 29.56a104.5 104.5 0 0 0-8.92-33.49c-7.94-17.31-22.09-10.75-16.76.93z" style="fill:#ebebeb"/><path d="M458.37 283.28a28.84 28.84 0 0 0-1.86-3c-.62-1-1.25-1.91-1.88-2.86l-1.45-2.12c0-.17 0-.35.07-.53l.12-1c.09-.69.2-1.39.3-2.08s.21-1.38.35-2.07a10.74 10.74 0 0 1 .48-2.18c.05-.11-.15-.16-.16 0a8.44 8.44 0 0 1-.33 1.22c-.09.32-.17.63-.25.94-.18.7-.35 1.41-.51 2.12s-.27 1.3-.38 2c-.05.32-.1.64-.14.95-.66-.94-1.34-1.87-2-2.79-2-2.59-4.05-5.08-6.2-7.52v-.06c.19-3.9.1-7.75 1-11.58 0-.1-.13-.16-.16-.05a39.82 39.82 0 0 0-1.37 11.04c-.77-.86-1.55-1.72-2.34-2.57a212.82 212.82 0 0 0-5.52-5.72c-.08-.07-.2 0-.12.12 3.12 3.36 6.08 6.86 9 10.42a66.39 66.39 0 0 0-6.77.25c-2.51.19-5 .51-7.5.85a.09.09 0 0 0 0 .17 69.45 69.45 0 0 1 7.49-.67c2.42-.1 4.82 0 7.23 0 1.56 1.93 3.11 3.88 4.63 5.85h-2.05c-1.12 0-2.25.1-3.37.19a50.85 50.85 0 0 0-6.84 1 .08.08 0 1 0 0 .16c2.27-.25 4.56-.47 6.85-.55h4.98a2.18 2.18 0 0 0 .93-.09c1 1.29 2 2.59 3 3.89.79 1 1.56 2.08 2.33 3.13s1.48 2.25 2.34 3.26a.09.09 0 0 0 .1-.12z" style="fill:#a6a6a6"/><path d="M438.36 261.6a23.84 23.84 0 0 0-4-.2c-1.32 0-2.65 0-4 .09a.08.08 0 1 0 0 .16c1.34-.09 2.68-.12 4-.1s2.59.15 3.89.11l.11-.06zM450 264.58c.15-1.26.31-2.54.58-3.78a.08.08 0 1 0-.16 0c-.19 1.25-.43 2.49-.62 3.73-.09.63-.18 1.25-.25 1.88a8.05 8.05 0 0 0-.15 1.76c0 .11.19.12.21 0a10.41 10.41 0 0 0 .19-1.76c.05-.63.12-1.23.2-1.83zM447.55 250.56c-.32 1.23-.64 2.48-.87 3.73-.12.64-.21 1.28-.3 1.92a7.81 7.81 0 0 0-.12 1.87c0 .05.08.05.09 0a10.79 10.79 0 0 0 .3-1.79c.08-.61.17-1.23.28-1.84.22-1.29.45-2.57.78-3.84.03-.09-.13-.15-.16-.05zM399.31 325.7q-.3-3.49-.68-7c-.48-4.62-1.05-9.22-1.67-13.82s-1.2-9.18-1.94-13.75a35 35 0 0 0-1.41-6.24 6 6 0 0 0-3.46-3.9c-4.36-1.51-7.3 3-9.06 6.21a.09.09 0 0 0 .15.08c1.05-1.51 4-5.77 7.27-5.57 2.22.13 4 1.71 5.07 7.26 2.66 13.82 5.06 41.87 5.34 43.71.15 1 .84.93.84-.11.02-2.29-.25-4.57-.45-6.87z" style="fill:#a6a6a6"/><path d="M382.27 285.49s3.8-13.45-4.62-6.73c-14 11.2-14.52 35.56-14.52 35.56s24.93-14.48 28-24c4.64-14.25-8.86-4.83-8.86-4.83z" style="fill:#ebebeb"/><path d="M387 292.09c-2 .4-3.94.66-5.91.94l-2.81.4-1.9.22c1.85-2.55 3.73-5.1 5.51-7.71a.11.11 0 0 0-.17-.12 58.06 58.06 0 0 0-4.17 4.8c-.36-1-.73-2.08-1.1-3.12-.42-1.2-.88-2.4-1.19-3.64 0-.11-.19-.06-.16 0 .34 1.24.59 2.5.91 3.73s.69 2.38 1.11 3.54c-.91 1.18-1.79 2.4-2.64 3.62-.43-1.21-1-2.39-1.34-3.62a.08.08 0 0 0-.16 0c.45 1.37.69 2.79 1.11 4.16-.57.84-1.15 1.67-1.69 2.52-1 1.55-2 3.14-2.88 4.73a.36.36 0 0 0-.22.38c-1.58 2.72-3.07 5.48-4.55 8.27-.05.1.09.18.14.08 1.48-2.75 3.13-5.43 4.84-8.07a4 4 0 0 1 .81-.16c.29-.05.58-.12.86-.18.65-.14 1.29-.31 1.93-.47 1.26-.31 2.51-.61 3.8-.83.1 0 .05-.18-.05-.16-1.51.29-3 .46-4.55.63-.72.09-1.44.18-2.15.29h-.11c.9-1.36 1.81-2.72 2.73-4.05s1.83-2.61 2.77-3.91c.86-.12 1.72-.34 2.58-.51l2.89-.56c1.93-.38 3.85-.81 5.79-1.14.11.09.06-.08-.03-.06z" style="fill:#a6a6a6"/><path d="m372 293.42-.33-1.07a19.16 19.16 0 0 1-.57-2.26c0-.1-.19 0-.16.05.16.76.34 1.52.51 2.28a14.25 14.25 0 0 0 .65 2.23.15.15 0 0 0 .29-.08c-.11-.39-.26-.77-.39-1.15zM389.53 289c-1.13.17-2.28.25-3.43.35s-2.28.26-3.42.43c-.06 0-.06.11 0 .1 1.15-.08 2.29-.17 3.43-.32s2.28-.32 3.43-.39c.11-.03.1-.17-.01-.17zM417.65 308.67c-.44-9.91-1.07-19.79-2.07-29.66-.49-4.91-1.05-9.82-1.74-14.71a104.61 104.61 0 0 0-2.84-14.24 27.16 27.16 0 0 0-4.74-10 10.73 10.73 0 0 0-9.57-4.18c-4.34.53-7.83 3.27-10.85 6.23-3.39 3.33-6.49 7-9.62 10.53-.8.9-1.58 1.8-2.37 2.72-.07.08 0 .19.13.11 3.06-3.52 6.25-7 9.58-10.22 3.09-3 6.26-6.33 10.53-7.58a10.77 10.77 0 0 1 6.11-.14 9.76 9.76 0 0 1 4.18 2.64c2.4 2.5 3.75 5.89 4.71 9.16 2.67 9.11 3.62 18.65 4.61 28 1 9.56 1.68 19.14 2.16 28.73s.86 19.3 1.79 28.91c.11 1.19.27 2.37.42 3.55.1.8 1.34.8 1.27 0-.79-9.95-1.24-19.9-1.69-29.85z" style="fill:#a6a6a6"/><path d="M385.3 243.15s5.65-10.47-1-13.83-29 21.61-35.59 58.12c0 0 36.13-16 48.4-31.91s-1.67-19.44-11.81-12.38z" style="fill:#ebebeb"/><path d="M390.61 251.66c-4.06 0-8.11-.31-12.17-.28.76-.87 1.52-1.75 2.29-2.61a38.32 38.32 0 0 0 3.17-3.69c.06-.09-.07-.2-.15-.14a29.76 29.76 0 0 0-3.07 3.08q-1.53 1.62-3 3.26c-1.55 1.67-3.07 3.38-4.59 5.09v-6.75c0-2.8 0-5.6.22-8.39 0-.11-.16-.1-.17 0-.19 2.8-.48 5.58-.62 8.39-.07 1.38-.1 2.75-.12 4.13v3.33c-.24.27-.49.53-.72.8-3.24 3.7-6.32 7.53-9.32 11.43 0-.22 0-.44-.06-.65 0-.43-.09-.86-.14-1.29-.1-.93-.23-1.86-.37-2.78s-.27-1.74-.41-2.61-.41-2-.48-2.95a.09.09 0 1 0-.17 0 24.7 24.7 0 0 1 .34 3c.09.89.17 1.78.25 2.68s.16 1.78.25 2.68c.05.43.09.86.13 1.29 0 .21.05.43.08.64a1.13 1.13 0 0 0 .18.51c-.52.67-1 1.34-1.55 2-2.05 2.71-4.06 5.45-6.07 8.19-.06.09.06.2.12.12 1.91-2.49 3.87-4.93 5.85-7.34 1.49.06 3-.05 4.49-.08h4.7a.09.09 0 0 0 0-.17c-1.57 0-3.13.05-4.7.06s-2.89-.07-4.32 0c1.75-2.13 3.52-4.23 5.29-6.34.64-.77 1.29-1.53 1.94-2.3a9.11 9.11 0 0 0 1.81.06h2.14l4-.06c2.76 0 5.52-.13 8.27-.14a.09.09 0 0 0 0-.17c-2.76 0-5.52-.15-8.28-.22-1.34 0-2.67-.08-4-.09h-3.37l4.55-5.39a.14.14 0 0 0 .08-.1c1.49-1.74 3-3.49 4.46-5.22.21-.24.42-.47.62-.71 4.21.13 8.41-.15 12.62-.06a.09.09 0 0 0 0-.21zM388.53 258.84h-1c-.1 0-.09.15 0 .15h1c.11.01.11-.15 0-.15z" style="fill:#a6a6a6"/><path d="m386.35 258.85-3.91-.08-1.95-.06a7.3 7.3 0 0 0-1.81 0c-.07 0-.05.1 0 .12a6.89 6.89 0 0 0 1.82.13h5.85c.11.04.1-.11 0-.11zM375 271a55 55 0 0 0-8-.72v.06c2.65.25 5.31.4 7.95.82.1.06.14-.1.05-.16zM364.13 259.42c0-.23-.05-.47-.09-.7-.06-.52-.15-1-.23-1.56-.15-1-.33-2-.52-3 0-.09-.17-.07-.16 0q.19 1.53.33 3.06c.05.51.08 1 .13 1.51a4.23 4.23 0 0 0 .2 1.43.19.19 0 0 0 .35-.05 1.89 1.89 0 0 0-.01-.69zM417.29 229.7c-1.29-2.4-2.93-5.58-6.16-5.38-2.67.16-3.87 2.88-4.44 5.13-1.76 7-1.88 14.29-2.22 21.41-.73 15.06-1.38 30.14-1.47 45.21v12.54c0 4.26 0 8.55.3 12.8a.32.32 0 0 0 .63 0c0-3.65-.11-7.29-.12-10.94s0-7.12.07-10.67q.17-10.82.58-21.62c.26-7.16.58-14.31.88-21.47.15-3.58.3-7.15.46-10.73s.31-6.93.7-10.38c.23-1.93.51-3.86.92-5.76a8.05 8.05 0 0 1 1.68-3.84 3.65 3.65 0 0 1 4.71-.34 10 10 0 0 1 3.34 4.17c.05.06.2-.03.14-.13z" style="fill:#a6a6a6"/><path d="M416.42 228.55s-2.65-9.37 3.21-4.68c9.77 7.8 10.12 24.76 10.12 24.76s-17.36-10.08-19.52-16.73c-3.23-9.9 6.19-3.35 6.19-3.35z" style="fill:#ebebeb"/><path d="m426.09 241.68-.49-.77a5.34 5.34 0 0 0 0-.8v-1.21q0-1.18.09-2.37c0-.11-.16-.11-.17 0 0 .78-.07 1.55-.09 2.33v1.67c-.69-1.06-1.39-2.11-2.11-3.14-.21-.3-.43-.59-.64-.88a18.42 18.42 0 0 1-.06-3.06c0-1.09 0-2.18.07-3.27 0-.11-.16-.1-.17 0 0 1.14-.08 2.27-.14 3.4a21.73 21.73 0 0 0-.07 2.42c-1.68-2.28-3.45-4.47-5.25-6.66-.06-.07-.19 0-.13.11 1.11 1.41 2.18 2.85 3.23 4.32-2-.48-4.12-.75-6.2-1.05-.1 0-.14.14 0 .16 2.2.33 4.36.88 6.53 1.36l2.47 3.53 1 1.45h-.09l-.68-.09c-.47-.06-1-.1-1.44-.13-1-.08-2-.14-3-.19-.1 0-.1.16 0 .17 1 0 2 .09 2.95.2l1.55.19.68.08h.2l1.67 2.46c1 1.45 1.85 3 2.9 4.4a.08.08 0 0 0 .13-.08 43.26 43.26 0 0 0-2.74-4.55z" style="fill:#a6a6a6"/><path d="M421.77 231.09V230a17.69 17.69 0 0 1 .09-2.3.08.08 0 1 0-.16 0c0 .75-.09 1.51-.12 2.27v1.66a1.45 1.45 0 0 0 0 .55.07.07 0 0 0 .14 0 1.64 1.64 0 0 0 0-.5c.05-.21.05-.4.05-.59zM419.62 235c-.64-.11-1.3-.14-1.95-.19s-1.43-.13-2.15-.22a.08.08 0 1 0 0 .16c1.37.09 2.74.34 4.11.39a.07.07 0 0 0-.01-.14zM425.08 235c.05.07 0 .28 0 .36V237a1.22 1.22 0 0 0 0 .57h.06a.51.51 0 0 0 0-.27V235.02c0-.07-.14-.15-.06-.02zM417.7 279.7c-3.65-2.74-6.93-6.68-11.84-6.87-4.06-.16-6.9 2.89-8.52 6.29a35.85 35.85 0 0 0-2 5.6q-1.1 3.84-2.07 7.73-1.9 7.64-3.25 15.4c-.49 2.89-.95 5.78-1.32 8.68a76 76 0 0 0-.85 8.89.46.46 0 0 0 .91.1c.49-2.43.7-4.94 1.06-7.39s.73-4.93 1.15-7.39q1.25-7.38 2.91-14.68c1-4.59 2.07-9.26 3.55-13.73 1.07-3.21 2.77-6.95 6.23-8.1 5.27-1.76 10.06 2.7 13.91 5.6.1.06.21-.06.13-.13z" style="fill:#a6a6a6"/><path d="M413.92 277.08s-3.37-9.61 1.5-11.49c7.3-2.83 26.39 18.68 22.65 51.63 0 0-14.75-8.13-25.64-17.27s-13.68-21.08-8.89-24.17 10.38 1.3 10.38 1.3z" style="fill:#ebebeb"/><path d="M435.87 310.16a26.54 26.54 0 0 0-1.77-3.33c-.63-1.12-1.26-2.25-1.91-3.36-1.27-2.17-2.53-4.34-3.83-6.49l-.64-1c0-.13 0-.26.08-.39.08-.32.15-.63.22-.95.16-.72.29-1.44.42-2.16.27-1.41.51-2.84.89-4.22 0-.1-.14-.14-.16 0-.3 1.41-.75 2.8-1.17 4.17-.2.68-.42 1.36-.6 2.05l-.18.7c-1.57-2.57-3.17-5.13-4.89-7.6a3.32 3.32 0 0 0 .17-1.06c.05-.48.11-1 .17-1.44.13-1.09.25-2.17.41-3.25.32-2.12.63-4.23 1.16-6.31a.09.09 0 0 0-.17 0c-.52 2.07-1.09 4.15-1.49 6.25-.19 1-.37 2.07-.51 3.11q-.1.78-.18 1.56l-.06.48c-.53-.75-1.06-1.5-1.61-2.23-1.69-2.21-3.43-4.38-5.2-6.53-.06-.09-.2 0-.13.09a116.31 116.31 0 0 1 8.29 12.12c.49.77 1 1.55 1.44 2.33l-.48-.06c-.61-.08-1.24-.12-1.86-.18l-3.72-.32c-2.49-.2-5-.35-7.46-.61-.1 0-.13.15 0 .16 2.52.29 5 .69 7.52 1.05 1.23.17 2.46.34 3.69.49a14.64 14.64 0 0 0 2.85.3l2.93 4.75a4.85 4.85 0 0 0-.66 0h-8.35c-.11 0-.09.16 0 .16 1.62 0 3.24.1 4.86.19.77 0 1.54.08 2.3.14l1.16.08a2.29 2.29 0 0 0 1 0l2.49 4c.76 1.24 1.54 2.49 2.32 3.72a30.63 30.63 0 0 0 2.51 3.75c.05 0 .19-.06.15-.16z" style="fill:#a6a6a6"/><path d="M428.84 283.53a24.2 24.2 0 0 1-.66 3.13c-.27 1.07-.58 2.12-.93 3.17a.1.1 0 1 0 .2.06c.33-1 .62-2.08.88-3.14s.42-2.14.67-3.2c0-.1-.15-.13-.16-.02zM418 290a1.27 1.27 0 0 0-.8-.3l-1.4-.19c-.86-.12-1.73-.21-2.59-.31-1.8-.21-3.6-.39-5.39-.61-.11 0-.14.15 0 .16 1.69.21 3.38.46 5.07.69l2.49.32 1.2.13a4.2 4.2 0 0 1 1.37.24c.05 0 .11-.13.05-.13zM428.81 304.45c-.84-.07-1.7-.1-2.55-.12H424.35a3.55 3.55 0 0 1-.8 0c-.12 0-.13.19 0 .17a3.88 3.88 0 0 1 .76 0h.66l1.29.08c.85.05 1.71.1 2.56.1.09-.04.1-.22-.01-.23zM434 300.77c.1-.49.19-1 .28-1.45.18-.95.35-1.9.53-2.85a.09.09 0 0 0-.17 0l-.63 2.77-.3 1.39c0 .22-.09.43-.13.65a1.74 1.74 0 0 0-.08.68c0 .07.13.14.19.05a3.28 3.28 0 0 0 .31-1.24z" style="fill:#a6a6a6"/><path style="fill:#dbdbdb" d="m432.05 329.17-.82 13.61-2.42 40.21h-49.72l-2.42-40.21-.82-13.61h56.2z"/><path style="fill:#c7c7c7" d="m432.05 329.17-.82 13.61h-54.56l-.82-13.61h56.2z"/><path style="fill:#dbdbdb" d="M372.04 319.53h63.81v13.63h-63.81z"/><path style="fill:#ebebeb" d="M279.81 120.02h166.63v7.31H279.81zM289.15 127.33h7.31v24.17h-7.31z"/><path style="fill:#dbdbdb" d="M289.15 127.33h7.31v7.47h-7.31z"/><path style="fill:#ebebeb" d="M429.8 127.33h7.31v24.17h-7.31z"/><path style="fill:#dbdbdb" d="M429.8 127.33h7.31v7.47h-7.31z"/><path transform="rotate(90 320.78 96.74)" style="fill:#c7c7c7" d="M297.5 90.87h46.57v11.73H297.5z"/><path transform="rotate(90 320.78 73.52)" style="fill:#dbdbdb" d="M318.22 67.66h5.12v11.73h-5.12z"/><path transform="rotate(90 320.78 83.59)" style="fill:#dbdbdb" d="M319.83 77.72h1.9v11.73h-1.9z"/><path transform="rotate(90 321.515 111.355)" style="fill:#dbdbdb" d="M318.95 104.76h5.12v13.19h-5.12z"/><path transform="rotate(90 330.74 92.86)" style="fill:#dbdbdb" d="M303.58 88.76h54.33v8.2h-54.33z"/><path transform="rotate(90 330.705 81.255)" style="fill:#ebebeb" d="M320.26 78.79h20.89v4.92h-20.89z"/><path transform="rotate(44.67 370.92 98)" style="fill:#c7c7c7" d="M343.79 93.93h54.33v8.2h-54.33z"/><path transform="rotate(44.67 373.766 100.771)" style="fill:#dbdbdb" d="M363.35 98.33h20.89v4.92h-20.89z"/><path transform="rotate(90 341.795 99.405)" style="fill:#a6a6a6" d="M321.16 92.44h41.26v13.92h-41.26z"/><path transform="rotate(90 341.795 113.735)" style="fill:#c7c7c7" d="M339.87 106.78h3.85v13.92h-3.85z"/><path transform="rotate(90 341.795 108.545)" style="fill:#c7c7c7" d="M341.05 101.58h1.49v13.92h-1.49z"/><path transform="rotate(90 310.11 100.64)" style="fill:#a6a6a6" d="M290.72 95.84h38.78v9.61h-38.78z"/><path transform="rotate(90 310.11 114.11)" style="fill:#c7c7c7" d="M308.3 109.31h3.61v9.61h-3.61z"/><path transform="rotate(90 310.11 91.05)" style="fill:#c7c7c7" d="M308.3 86.25h3.61v9.61h-3.61z"/><path transform="rotate(90 310.11 96.04)" style="fill:#c7c7c7" d="M309.41 91.23h1.4v9.61h-1.4z"/><path d="M416.75 70.35c-8.2 8-9.58 20.45-7.85 31.33.05.25.43.18.43-.05 0-2.48-.08-4.93-.07-7.38.05-.11.08-.22.13-.33a16.5 16.5 0 0 0 5.33-5.72c1.37-2.7 1.9-5.74 2.95-8.55.1-.27-.19-.19-.38-.05-5 3.68-6.58 7.64-8 12.93a44.35 44.35 0 0 1 .87-8.24A28.12 28.12 0 0 1 417 70.56c.1-.14-.11-.36-.25-.21z" style="fill:#a6a6a6"/><path d="M418.29 71.28c1.41 0 2.3 2.31 3.4 3a1.06 1.06 0 0 0 1.56-.24c1.09-1.52-.41-3.4-1.82-4.45a16.17 16.17 0 0 0 2.93 1.35 1 1 0 0 0 1.32-.79c.48-2.08-2.12-3-3.91-3 .87-.6 3.35-2.24 2-3s-4.25 1.53-5.2 2.3c-1.39 1.13-3.05 2.82-3.12 4.59-.05 1.96 1.76.68 2.84.24z" style="fill:#dbdbdb"/><path d="M417.89 71.63c1.8-.82 5.27.36 5.56-.32.6-1.39-2.17-2.35-3.67-2.53 1.38-.37 4-1 3.94-2.3-.1-1.62-4.05-.22-6.05 1.31-2.51 1.93-2.5 3.79-2.08 4.16.57.52 2-.18 2.3-.32z" style="fill:#ebebeb"/><path d="M398.07 69.55c8.5 7.71 10.35 20.08 9 31 0 .24-.42.19-.43 0-.09-2.48-.11-4.93-.21-7.38l-.14-.32a16.55 16.55 0 0 1-5.55-5.52c-1.47-2.64-2.12-5.66-3.28-8.43-.1-.26.19-.2.38-.06 5.13 3.48 6.87 7.38 8.5 12.61a44.3 44.3 0 0 0-1.18-8.2 28.06 28.06 0 0 0-7.34-13.45c-.1-.16.1-.39.25-.25z" style="fill:#a6a6a6"/><path d="M396.57 70.55c-1.41.1-2.21 2.38-3.28 3.08a1.05 1.05 0 0 1-1.57-.18c-1.15-1.48.28-3.41 1.64-4.51a15.77 15.77 0 0 1-2.87 1.45 1 1 0 0 1-1.35-.74c-.55-2.05 2-3.07 3.79-3.18-.89-.57-3.43-2.11-2.14-3s4.3 1.37 5.28 2.11c1.43 1.07 3.16 2.7 3.29 4.47.16 2.09-1.69.89-2.79.5z" style="fill:#dbdbdb"/><path d="M397 70.88c-1.84-.75-5.26.56-5.58-.11-.65-1.37 2.09-2.43 3.57-2.67-1.39-.32-4.05-.81-4-2.14 0-1.63 4-.38 6.09 1.07 2.59 1.83 2.65 3.7 2.25 4.08-.59.54-2.04-.11-2.33-.23z" style="fill:#ebebeb"/><path d="M406.77 89.92a81.83 81.83 0 0 0 2.64 12.2.3.3 0 0 0 .59-.12c-.56-3.76-1.58-7.45-2.14-11.21a56.77 56.77 0 0 1-.65-11.5c.36-6.34 2.08-13.07 6.21-18 .09-.11-.1-.28-.19-.17-8.28 9.65-7 21.47-7 22.53-1.17-4-2.38-8.57-6.81-12.64-.19-.17-.34-.09-.31.21.79 7.41 2.85 11.28 7.15 15.23.17 1.15.32 2.32.51 3.47z" style="fill:#a6a6a6"/><path d="M413.5 62.37c1.48-.66 3.54 1.24 5 1.37a1.22 1.22 0 0 0 1.49-1c.37-2.13-2.13-3.32-4.12-3.7 1.26-.08 2.49.25 3.71-.08a1.17 1.17 0 0 0 1-1.48c-.55-2.4-3.71-2-5.59-1.19.6-1.06 2.35-4 .58-4.18s-3.64 3.73-4.24 5c-.87 1.87-1.75 4.46-.92 6.33.94 2.16 2.18-.07 3.09-1.07z" style="fill:#dbdbdb"/><path d="M413.25 62.94c1.46-1.76 5.65-2.28 5.61-3.14-.08-1.74-3.43-1.33-5.08-.77 1.24-1.08 3.68-3 2.93-4.36-.92-1.64-4.31 1.8-5.62 4.39-1.64 3.27-.68 5.2-.06 5.37.85.25 1.97-1.2 2.22-1.49z" style="fill:#ebebeb"/><path d="M401.32 92.15 397.67 120h22.21c-.46-2.47-4.59-27.91-4.59-27.91z" style="fill:#dbdbdb"/><g><path style="fill:#263238" d="m27.91 382.99 55.53-.25 55.52-.09 111.04-.16 111.04.16 55.52.09 55.53.25-55.53.24-55.52.09-111.04.17-111.04-.17-55.52-.09-55.53-.24z"/></g><g><ellipse cx="250" cy="429.64" rx="210.5" ry="24.31" style="fill:#ebebeb"/></g><g><path style="fill:#dbdbdb" d="M97.89 380.32h212.36L299.28 113.9H86.91l10.98 266.42zM65.38 86.28h207.73a26.16 26.16 0 0 1 26.16 26.16v1.46H65.38a13.08 13.08 0 0 1-13.08-13.08v-1.46a13.08 13.08 0 0 1 13.08-13.08z"/><path d="M277 113.9v-4.75a7.68 7.68 0 0 1 7.68-7.68 7.67 7.67 0 0 1 7.67 7.68v4.75z" style="fill:#a6a6a6"/><path style="fill:#ecb9d8" d="M89.3 414.3h212.37l-9.32-300.4H79.98l9.32 300.4z"/><path style="fill:#c7c7c7" d="M266.5 414.3h15.36l10.49-300.4h-15.36L266.5 414.3z"/><path style="fill:#ebebeb" d="M54.13 414.3H266.5l10.49-300.4H64.62L54.13 414.3z"/><path style="fill:#dbdbdb" d="m266.18 159.62-24.05-.22-24.07-.13-48.12-.11-48.14.11-24.07.13-24.07.22 24.05.23 24.06.13 48.13.1 48.14-.1 24.07-.13 24.07-.23zM265.64 174.37l-24.06-.23-24.06-.13-48.13-.1-48.14.1-24.06.13-24.08.23 24.06.22 24.06.13 48.13.11 48.13-.11 24.07-.13 24.08-.22zM265.09 189.11l-24.05-.22-24.07-.13-48.12-.11-48.14.1-24.07.13-24.08.23 24.06.23 24.06.13 48.13.1 48.14-.11 24.07-.12 24.07-.23zM264.55 203.85l-24.06-.22-24.06-.13-48.13-.11-48.13.11-24.08.13-24.07.22 24.06.23 24.06.13 48.13.1 48.13-.1 24.07-.13 24.08-.23zM264 218.6l-24.06-.23-24.06-.13-48.12-.1-48.14.1-24.07.13-24.08.23 24.06.22 24.06.13 48.13.11 48.14-.11 24.07-.13 24.07-.22zM263.46 233.34l-24.06-.22-24.06-.13-48.13-.11-48.13.11-24.08.13-24.07.22 24.06.23 24.06.13 48.13.1 48.13-.11 24.07-.12 24.08-.23zM262.91 248.09l-24.06-.23-24.06-.13-48.12-.11-48.14.11-24.07.13-24.08.23 24.06.22 24.06.13 48.13.11 48.14-.11 24.07-.13 24.07-.22zM262.37 262.83l-24.06-.22-24.06-.13-48.13-.11-48.14.11-24.07.12-24.07.23 24.06.23 24.06.13 48.13.1 48.13-.11 24.07-.13 24.08-.22zM261.82 277.57l-24.06-.22-24.06-.13-48.13-.11-48.13.11-24.07.13-24.08.22 24.06.23 24.06.13 48.13.11 48.14-.11 24.07-.13 24.07-.23zM261.28 292.32l-24.06-.23-24.06-.13-48.13-.1-48.14.1-24.07.13-24.07.23 24.06.22 24.06.13 48.13.11 48.13-.11 24.07-.13 24.08-.22zM260.73 307.06l-24.05-.22-24.07-.13-48.12-.11-48.14.11-24.07.12-24.08.23 24.06.23 24.06.13 48.13.1 48.14-.1 24.07-.13 24.07-.23zM260.19 321.81l-24.06-.23-24.06-.13-48.13-.11-48.14.11-24.07.13-24.07.23 24.06.22 24.06.13 48.13.11 48.13-.11 24.07-.13 24.08-.22zM259.64 336.55l-24.06-.23-24.06-.12-48.12-.11-48.14.1-24.07.13-24.08.23 24.06.22 24.06.13 48.13.11 48.14-.11 24.07-.13 24.07-.22zM259.1 351.29l-24.06-.22-24.06-.13-48.13-.11-48.14.11-24.07.13-24.07.22 24.06.23 24.06.13 48.12.1 48.14-.1 24.07-.13 24.08-.23zM258.55 366.04l-24.06-.23-24.06-.13-48.13-.1-48.13.1-24.07.13-24.08.23 24.06.22 24.06.13 48.13.11 48.14-.11 24.07-.13 24.07-.22zM258.01 380.78l-24.06-.22-24.06-.13-48.13-.11-48.14.11-24.07.13-24.07.22 24.06.23 24.06.13 48.12.1 48.14-.11 24.07-.12 24.08-.23zM257.46 395.52l-24.06-.22-24.06-.13-48.13-.11-48.13.11-24.07.13-24.08.22 24.06.23 24.06.13 48.13.11 48.14-.11 24.07-.13 24.07-.23z"/><path style="fill:#ecb9d8" d="m100.13 113.9-1.07 37.56-1.22 37.55-2.45 75.11-2.79 75.09-1.4 37.55-1.56 37.54 1.07-37.56 1.22-37.55 2.46-75.11 2.79-75.09 1.4-37.55 1.55-37.54z"/><path style="fill:#a6a6a6" d="m280.77 113.9-.77 27.05-.87 27.05-1.77 54.09-2.01 54.09-1.01 27.04-1.13 27.04.76-27.05.88-27.05 1.76-54.1 2.02-54.08 1.01-27.04 1.13-27.04zM283.59 113.9l-1.05 35.15-1.16 35.15-2.33 70.29-2.58 70.29-1.29 35.14-1.41 35.14 1.04-35.15 1.17-35.15 2.33-70.29 2.57-70.29 1.3-35.14 1.41-35.14zM286.41 113.9l-.9 30.92-1.01 30.92-2.03 61.83-2.29 61.83-1.14 30.91-1.27 30.91.9-30.92 1.01-30.92 2.04-61.83 2.28-61.83 1.15-30.91 1.26-30.91zM289.23 113.9l-.81 28.64-.94 28.65-1.87 57.29-2.13 57.28-1.06 28.64-1.19 28.63.82-28.64.93-28.65 1.88-57.29 2.13-57.28 1.06-28.64 1.18-28.63zM105.2 180.49a28.27 28.27 0 0 0 5.77 1.9 10.41 10.41 0 0 0 3 .21c1-.1 2-.29 3-.48 4-.76 8-1.68 12-2.45a55.71 55.71 0 0 1 6.08-.93 21.45 21.45 0 0 1 6.19.52 58.12 58.12 0 0 1 5.88 1.78 6.21 6.21 0 0 0 1.38.32 12 12 0 0 0 1.47 0c1 0 2-.12 3-.19l6.08-.53a31.3 31.3 0 0 1 6.2 0c4.12.72 7.84 2.44 11.79 3.24a14.83 14.83 0 0 0 3 .33 20.65 20.65 0 0 0 3-.31l5.96-.9c2-.27 4-.55 6-.79a49.79 49.79 0 0 1 6.09-.47 58.71 58.71 0 0 0-6 .72c-2 .31-4 .65-6 1l-6 1a21.82 21.82 0 0 1-3.07.39 16.06 16.06 0 0 1-3.11-.27 51.46 51.46 0 0 1-6-1.56 42.73 42.73 0 0 0-5.83-1.51 30.81 30.81 0 0 0-6 .07l-6.08.58c-1 .09-2 .16-3.08.19h-1.58a6.9 6.9 0 0 1-1.58-.38 58.37 58.37 0 0 0-5.79-1.8 20.47 20.47 0 0 0-5.93-.54c-2 .15-4 .49-6 .82-4 .68-8 1.51-12 2.18-1 .15-2 .31-3 .37a10.23 10.23 0 0 1-3.07-.33 25.73 25.73 0 0 1-5.77-2.18zM210.94 182.36a83.35 83.35 0 0 1 10.13.61c1.68.13 3.37.33 5 .3a46.1 46.1 0 0 0 4.95-.66 65.57 65.57 0 0 1 10.12-1.12 26.33 26.33 0 0 1 5.1.51 14.59 14.59 0 0 1 4.76 1.75 15.88 15.88 0 0 0-4.84-1.32 27.89 27.89 0 0 0-5-.24c-3.33.23-6.65.84-10 1.4a42 42 0 0 1-5.1.64 42.93 42.93 0 0 1-5.11-.47l-5-.75c-1.65-.27-3.32-.53-5.01-.65zM105.2 199.05a79.32 79.32 0 0 0 8 .4c2.68.06 5.36.09 8 .06s5.34-.06 8-.36 5.34-.53 8-.74 5.38-.31 8.08-.27a34.77 34.77 0 0 1 4.07.27c1.37.19 2.64.49 4 .68 2.64.4 5.3.68 8 .93s5.34.48 8 .7a149.59 149.59 0 0 1-16.1-.87c-1.34-.14-2.69-.41-4-.59a37.43 37.43 0 0 0-4-.21c-2.66 0-5.33.14-8 .35s-5.34.43-8 .66a68.14 68.14 0 0 1-8.08.22q-4-.1-8-.34c-1.34-.1-2.68-.2-4-.33a28 28 0 0 1-3.97-.56zM183 200.72c5.4-.62 10.81-1.08 16.25-1.31 2.72-.12 5.45-.14 8.18 0 1.38.06 2.75.27 4.08.41s2.69.27 4 .37c5.39.49 10.81.77 16.23 1 1.35 0 2.7.1 4.05.05l4.06-.22c2.71-.11 5.42-.26 8.14-.34-2.7.31-5.41.55-8.11.83l-4.07.36c-1.36.1-2.73.09-4.09.09-5.44 0-10.87-.33-16.3-.74-1.35-.12-2.71-.26-4.06-.42s-2.69-.38-4-.46c-2.68-.19-5.39-.15-8.1-.14s-5.42.11-8.13.22zM105.2 214.58a67.84 67.84 0 0 0 8.17-.68l8.17-1c1.37-.14 2.73-.29 4.13-.31s2.77.08 4.14.19c2.74.22 5.47.52 8.2.83s5.44.7 8.15 1.09a67.07 67.07 0 0 0 8.13.72c5.46.24 10.94.14 16.42 0a130.74 130.74 0 0 1-16.44.87 64.88 64.88 0 0 1-8.24-.64l-8.14-1c-2.72-.34-5.43-.66-8.15-.9-1.36-.12-2.73-.23-4.06-.23s-2.71.12-4.07.22l-8.19.67c-1.37.09-2.74.19-4.11.24a26.84 26.84 0 0 1-4.11-.07zM106 241c3.1.51 6.2.93 9.32 1.24s6.24.58 9.36.71a123.09 123.09 0 0 0 18.72-.45l4.67-.56a42.17 42.17 0 0 1 4.75-.18q4.74.07 9.43.5c3.13.26 6.25.57 9.37.87s6.24.66 9.37.87c-6.28 0-12.54-.65-18.8-1-3.12-.15-6.25-.34-9.37-.35a44.51 44.51 0 0 0-4.64.22l-4.67.61a115.46 115.46 0 0 1-18.87.21A121.9 121.9 0 0 1 106 241zM196.62 244.8c4-.65 8.08-1.13 12.14-1.52A71.76 71.76 0 0 1 221 243c4.08.33 8.12 1 12.14 1.4 2 .14 4.06.11 6.08.18s4.08.14 6.11.25c-4.08.18-8.12.36-12.24.33-2.06-.09-4.08-.38-6.1-.59S223 244.1 221 244a79.25 79.25 0 0 0-12.13.08zM140.25 152.05c6.15-.87 12.34-1.41 18.54-1.77a136.58 136.58 0 0 1 18.65.07c6.2.51 12.35 1.37 18.53 1.55s12.39.15 18.6.15c-6.2.38-12.4.61-18.62.58-1.55 0-3.11 0-4.67-.13s-3.1-.23-4.65-.36c-3.09-.27-6.18-.58-9.26-.8s-6.17-.42-9.26-.43-6.19.08-9.29.16-6.19.22-9.29.4-6.19.36-9.28.58zM105.2 256.3c9.65.27 19.16-1.79 28.9-1.41 4.83.42 9.6 1.14 14.38 1.76l3.58.47 1.78.2c.58 0 1.16.05 1.76 0 2.38-.05 4.79-.24 7.19-.41 4.81-.31 9.6-.74 14.45-.92 2.44-.08 4.85.08 7.26.21s4.82.37 7.22.61 4.8.5 7.19.65c1.19.09 2.37 0 3.59 0h3.62c4.83.08 9.65.16 14.47.32l-14.46.17-3.62.07c-.6 0-1.18 0-1.8.07s-1.22 0-1.83 0c-2.42-.1-4.82-.33-7.23-.51-4.79-.35-9.61-.8-14.38-.68s-9.6.67-14.41 1c-2.41.16-4.82.32-7.25.36-.61 0-1.24 0-1.86-.05l-1.81-.22-3.59-.49c-4.77-.67-9.54-1.36-14.32-1.89a40.75 40.75 0 0 0-7.16 0l-7.22.42c-2.41.13-4.81.27-7.23.36a44.62 44.62 0 0 1-7.22-.09zM163.38 286.4a71.38 71.38 0 0 0 9.13-.43l9.13-.89a79.3 79.3 0 0 1 18.35.65 31.06 31.06 0 0 0 4.5.27c1.51-.05 3-.13 4.57-.21 3.05-.14 6.1-.33 9.16-.39h4.59a32.42 32.42 0 0 1 4.61.28c3 .46 6.05.73 9.1 1q-4.59-.07-9.16-.52a31.23 31.23 0 0 0-4.54-.14c-1.53 0-3 .1-4.57.18l-9.14.53c-1.53.09-3.05.19-4.59.26a31.09 31.09 0 0 1-4.64-.24c-3-.39-6-.81-9.08-1a79.11 79.11 0 0 0-9.11.08c-6.07.34-12.2 1.17-18.31.57z"/></g><g><path d="M297.64 429.29c1.88.62 55.63.46 57.68-.84.77-.48 1.21-8.32 1.46-17.79.06-2.05.1-4.15.14-6.31 0-2.54.07-5.11.09-7.61.06-11.23-.09-21.12-.09-21.12h-35v28.73l.18 6.31s-20.55 9.27-22.64 10.94-3.7 7.07-1.82 7.69z" style="fill:#dd6a57"/><path d="M297.64 429.29c1.88.62 55.63.46 57.68-.84.77-.48 1.21-8.32 1.46-17.79.06-2.05.1-4.15.14-6.31 0-2.54.07-5.11.09-7.61h-35.07v7.61l.18 6.31s-20.55 9.27-22.64 10.94-3.72 7.07-1.84 7.69z" style="fill:#fff"/><path d="M297.48 429.37c1.22.4 24.12.48 40.79.14 3.85-.09 7.38-.19 10.23-.32 3.92-.18 6.55-.39 7-.66.95-.61 1.4-12.11 1.61-24.24h-35.18l.18 6.34s-20.67 9.32-22.77 11-3.75 7.1-1.86 7.74z" style="fill:#ecb9d8"/><path d="M298.25 427.2c9.06-.25 45.62-.39 54.6.05.07 0 .07.05 0 .05-9 .45-45.54.3-54.6.05-.19 0-.19-.14 0-.15zM320.82 408.62c3.56-.67 7.93-.14 10.66 2.4.1.09 0 .24-.15.21a50.65 50.65 0 0 0-10.49-2.16.23.23 0 0 1-.02-.45zM318.25 410.18c3.57-.67 7.93-.14 10.66 2.39.11.1 0 .25-.15.22a50 50 0 0 0-10.49-2.16.23.23 0 0 1-.02-.45zM315.68 411.74c3.57-.67 7.93-.14 10.66 2.39.11.1 0 .25-.15.21a50.63 50.63 0 0 0-10.49-2.15.23.23 0 0 1-.02-.45zM313.11 413.3c3.57-.68 7.93-.14 10.66 2.39.11.1 0 .25-.15.21a50 50 0 0 0-10.49-2.15.23.23 0 0 1-.02-.45z" style="fill:#263238"/><path d="M315.82 405.47c2.53 2 5.82 2.75 8.76 3.83a.45.45 0 0 0 .56-.45.1.1 0 0 0 .09-.13 19 19 0 0 0-5.52-8.15c-1.49-1.25-4.1-2.11-5.5-.17s.14 3.93 1.61 5.07zm-.91-2.86c-.64-3.91 3.57-1.87 4.63-.91a20.29 20.29 0 0 1 1.89 2 55.2 55.2 0 0 1 3.33 4.69c-1.42-.63-2.87-1.12-4.31-1.69-1.71-.63-5.19-1.94-5.54-4.09z" style="fill:#263238"/><path d="M337.11 403.26c-.87-2.23-3.61-2-5.36-1.21a19 19 0 0 0-7.38 6.52.09.09 0 0 0 .05.14.43.43 0 0 0 .43.57c3.12-.31 6.5-.25 9.44-1.51 1.71-.77 3.64-2.41 2.82-4.51zm-7.62 4.58c-1.54.19-3.07.31-4.59.56 1.44-1.27 2.82-2.59 4.39-3.72a20.54 20.54 0 0 1 2.34-1.49c1.27-.67 5.85-1.6 4.26 2-.89 2.03-4.58 2.43-6.4 2.65z" style="fill:#263238"/><path d="M368.59 226.5s-9.46 93.54-9.68 94.73c0 .15-.1 1.95-.19 4.89-.51 16.1-1.77 66.31-1.77 66.31h-38.59s2.52-59.47 4-73.34c1.84-17.7 13.45-92.59 13.45-92.59z" style="fill:#37474f"/><path d="M354.31 324.52q1.79-30.39 5.36-60.65c1.36-11.37 3-22.69 4.61-34 0-.1.17-.1.16 0-3 20.16-5.11 40.48-6.93 60.78s-3.09 40.59-3.92 60.93c-.47 11.53-.83 23.05-1.2 34.58a.21.21 0 1 1-.42 0c.54-20.57 1.13-41.16 2.34-61.64z" style="fill:#263238"/><path d="M320.8 386.21c1-.13 2.11-.09 3.13-.13l3.48-.09c2.24-.09 4.47-.14 6.71-.18 4.5-.07 9-.05 13.52.1 1.24 0 2.47.08 3.71.13s2.65.17 4 .16c.1 0 .09.12 0 .12-2.26 0-4.56.2-6.83.28s-4.47.12-6.7.15c-4.5.06-9 0-13.52-.14-1.24-.05-2.48-.07-3.72-.1l-2-.09a17.15 17.15 0 0 1-1.76-.06.08.08 0 1 1-.02-.15zM368.59 226.5s-9.46 93.54-9.68 94.73c0 .15-.1 1.95-.19 4.89l-18.19-99.62z" style="fill:#263238"/><path d="M397.79 427.62c2-.21 50.87-22.53 52.2-24.56.5-.76-2.34-8.08-6-16.81-.79-1.89-1.54-3.88-2.48-5.8-1.18-2.43-2.39-4.84-3.59-7.15C432.75 363.25 428 355 428 355l-31 14 9 18.36 3.67 7.51 2.76 5.67s-14.9 16.93-16.11 19.3-.49 7.99 1.47 7.78z" style="fill:#dd6a57"/><path d="M397.79 427.62c2-.21 50.87-22.53 52.2-24.56.5-.76-2.34-8.08-6-16.81-.79-1.89-1.54-3.88-2.48-5.8-1.18-2.43-2.39-4.84-3.59-7.15-9.56 4.28-23.35 10.32-31.93 14.06l3.67 7.51 2.76 5.67s-14.9 16.93-16.11 19.3-.48 7.99 1.48 7.78z" style="fill:#fff"/><path d="M397.67 427.76c2-.21 51.16-22.66 52.49-24.7.62-.94-3.72-11.6-8.53-22.74l-32 14.51 2.78 5.7s-15 17-16.21 19.41-.51 8.06 1.47 7.82z" style="fill:#ecb9d8"/><path d="M397.48 425.47c8.15-4 41.4-19.19 49.76-22.49.06 0 .08 0 0 0-8 4.11-41.36 19.06-49.72 22.57-.15.13-.21 0-.04-.08zM410.38 399.23c3-2.09 7.16-3.4 10.69-2.22.14.05.08.24-.05.26a49.94 49.94 0 0 0-10.44 2.36.23.23 0 0 1-.2-.4zM408.68 401.71c3-2.09 7.16-3.4 10.7-2.22.13.05.07.24-.05.26a50 50 0 0 0-10.45 2.36.23.23 0 0 1-.2-.4zM407 404.19c3-2.09 7.16-3.4 10.69-2.22.14 0 .07.24-.05.25a50.6 50.6 0 0 0-10.44 2.37.23.23 0 0 1-.2-.4zM405.29 406.67c3-2.09 7.16-3.4 10.69-2.22.14.05.07.24-.05.25a50.6 50.6 0 0 0-10.44 2.37.23.23 0 0 1-.2-.4z" style="fill:#263238"/><path d="M404.53 398.42c3.11.74 6.43.1 9.56-.13.32 0 .42-.39.32-.64a.09.09 0 0 0 0-.15 19.07 19.07 0 0 0-8.38-5.15c-1.88-.52-4.61-.22-5.08 2.11s1.76 3.54 3.58 3.96zm-2-2.23c-2.19-3.3 2.48-3.18 3.84-2.74a21.41 21.41 0 0 1 2.57 1.07c1.74.84 3.33 1.9 5 2.9-1.55 0-3.08.17-4.62.25-1.89.09-5.6.33-6.81-1.48z" style="fill:#263238"/><path d="M423 387.62c-1.71-1.67-4.14-.37-5.39 1.11a19.06 19.06 0 0 0-4 9 .1.1 0 0 0 .1.12.45.45 0 0 0 .63.34c2.72-1.57 5.82-2.92 8-5.28 1.21-1.4 2.28-3.72.66-5.29zm-5 7.32c-1.32.81-2.66 1.55-3.95 2.4a56 56 0 0 1 2.47-5.19 20.19 20.19 0 0 1 1.51-2.33c.88-1.14 4.68-3.87 4.72.09-.03 2.19-3.23 4.09-4.75 5.03z" style="fill:#263238"/><path d="M335.78 226.5s2.55 13.51 12 20.39c0 0 20.79 69.55 23.49 77.53 4.65 13.74 29.67 60.3 29.67 60.3l38.61-16.57s-29.45-51.87-32.63-55.87c-2.12-2.65-18-59-17.78-60.49 2.32-17.28-5.88-25.37-5.88-25.37z" style="fill:#37474f"/><path d="M367 231.4a12.94 12.94 0 0 0 4.72 6.78 16 16 0 0 0 8.58 2.94.42.42 0 0 1 0 .83c-6.29 0-12.64-4-13.57-10.51.01-.15.27-.18.27-.04zM341.72 242.61a34.23 34.23 0 0 1 6.49 3.45c2.16 1.33 4.16 2.9 6.24 4.34.08.06 0 .19-.07.14-2.19-1.26-4.46-2.35-6.63-3.65a41.51 41.51 0 0 1-6.13-4.11c-.07-.07 0-.21.1-.17z" style="fill:#263238"/><path d="M340.83 229.49c.34 1.44.75 2.86 1.13 4.3s.64 2.71 1.06 4a6.94 6.94 0 0 0 2.06 3.34c.55.47 1.16.88 1.74 1.3.32.23.66.45 1 .69-.05-.19-.09-.39-.14-.58-.12-.55-.24-1.1-.35-1.65-.27-1.21-.52-2.43-.76-3.65-.48-2.39-.93-4.81-1.54-7.18 0-.09.12-.14.15 0 .7 2.34 1.47 4.65 2.11 7 .31 1.16 1.49 6.89 1.55 7.3s.11.84.15 1.27a5.58 5.58 0 0 1 .06 1.29.11.11 0 0 1-.2 0 5.1 5.1 0 0 1-.42-1.23c-.13-.41-.24-.83-.33-1.24l-.1-.45c-.59-.32-1.14-.75-1.69-1.11s-1.19-.77-1.75-1.2a6.56 6.56 0 0 1-2.23-3.15 24.16 24.16 0 0 1-.87-4.12c-.26-1.63-.47-3.28-.77-4.9-.03-.08.12-.13.14-.03zM400.8 376.92c.87-.52 10-4.78 12-5.71 4.09-1.87 18.24-7.67 19.57-8.16.44-.16.47.08.13.25-2.09 1-10.27 4.77-12.31 5.69-4.1 1.87-18.8 7.91-19.37 8.08-.06.03-.1-.07-.02-.15zM380.73 228.09a32 32 0 0 1 5.34 17.2 26.89 26.89 0 0 1-.33 4.57c-.06.38-.11.76-.2 1.13l-.11.56a1.43 1.43 0 0 0-.07.48c.09.7.28 1.46.44 2.19.7 2.94 1.47 5.87 2.25 8.8 3.15 11.71 6.33 23.41 9.68 35.07l2.52 8.73c.43 1.45.87 2.9 1.33 4.34.23.71.46 1.44.73 2.1s.64 1.34 1 2c2.85 5.33 5.94 10.56 8.93 15.83 0 0 15.21 25.57 18.35 31.46.14.27.07.45-.21.08-2.72-3.54-12.64-20.71-18.81-31.15-3.1-5.22-6.15-10.45-9.07-15.79-.37-.66-.7-1.37-1.05-2.06s-.53-1.46-.77-2.18c-.48-1.45-.92-2.9-1.36-4.36-.87-2.9-1.73-5.81-2.55-8.73-3.27-11.69-6.49-23.38-9.45-35.15-.73-2.95-1.46-5.89-2.11-8.86a22.49 22.49 0 0 1-.42-2.28 2.22 2.22 0 0 1 .08-.64l.13-.55c.08-.36.14-.73.2-1.1a29.28 29.28 0 0 0 .41-4.49 32.11 32.11 0 0 0-4.88-17.2zM340.83 137.21c2.59-4.18 8-6 13.52-5.89s12.42 1.59 14.53 10.05c1.72 6.86.67 14 2.08 21.76s13.92 25.05.85 36.78c-11.74 10.55-39.87 7.55-43.72-9.34-3-13.39 11.51-28.76 12.33-34.41s-2.42-14.37.41-18.95z" style="fill:#263238"/><path d="M339.77 145.25a29.11 29.11 0 0 1-.34 11.82 10.82 10.82 0 0 1-1.21 2.85c-.51.9-1.07 1.75-1.63 2.6-1.13 1.68-2.25 3.36-3.29 5.07a39.83 39.83 0 0 0-4.74 10.82A29.58 29.58 0 0 0 328 190a24.53 24.53 0 0 1-.85-5.85 27.72 27.72 0 0 1 .55-5.94 35.24 35.24 0 0 1 4.59-11.18c1.06-1.74 2.22-3.42 3.37-5.09a19.94 19.94 0 0 0 2.9-5.13 24.06 24.06 0 0 0 1.07-5.73 44.23 44.23 0 0 0 .14-5.83zM369.54 147.27c.6 3.95 1 7.93 1.85 11.83a46.51 46.51 0 0 0 1.54 5.73c.64 1.85 1.58 3.64 2.41 5.48s1.63 3.71 2.31 5.62a32.41 32.41 0 0 1 1.46 5.9 20.65 20.65 0 0 1-.11 6.08 15 15 0 0 1-2.56 5.59 15.64 15.64 0 0 0 2-5.66 19.91 19.91 0 0 0-.21-5.87 49 49 0 0 0-3.95-11.22 56.91 56.91 0 0 1-2.39-5.59 38.07 38.07 0 0 1-1.38-5.91 92.68 92.68 0 0 1-.97-11.98z" style="fill:#263238"/><path d="M351.48 177.16c-4.17 5.73-29.83 26.7-45.08 24.52-8.26-1.18-13.42-18.48-15.16-24.46l1.45-41.22c6.27 6.91 20.3 41.53 22.59 41.53 6.87 0 17.08-4.87 31.35-7.61 7.37-1.38 8.07 2.83 4.85 7.24z" style="fill:#dd6a57"/><path d="M352 179.07c-5.14 7.42-22.09 19.44-22.09 19.44l-2.26-5.19-7.51-17.17s15.48-4.68 25.66-6.73a23.75 23.75 0 0 1 3.64-.47c6.56-.27 7.02 3.74 2.56 10.12z" style="fill:#ecb9d8"/><path d="M320.6 176.44a.32.32 0 0 1-.17.29l-.26-.58h.15a.33.33 0 0 1 .28.29zM326.74 176.44a.35.35 0 0 1-.35.35.34.34 0 0 1-.35-.35.35.35 0 0 1 .35-.35.35.35 0 0 1 .35.35zM332.88 176.44a.35.35 0 0 1-.35.35.34.34 0 0 1-.35-.35.35.35 0 0 1 .35-.35.35.35 0 0 1 .35.35zM339 176.44a.35.35 0 0 1-.7 0 .35.35 0 0 1 .7 0zM345.16 176.44a.35.35 0 0 1-.7 0 .35.35 0 1 1 .7 0zM351.3 176.44a.35.35 0 1 1-.7 0 .35.35 0 1 1 .7 0zM336 172a.35.35 0 0 1-.35.35.35.35 0 0 1-.35-.35.13.13 0 0 1 0-.06l.61-.16a.33.33 0 0 1 .09.22zM342.09 172a.35.35 0 0 1-.7 0 .35.35 0 0 1 .7 0zM348.23 172a.35.35 0 1 1-.7 0 .35.35 0 1 1 .7 0zM354.37 172a.35.35 0 0 1-.7 0 .35.35 0 1 1 .7 0zM326.74 185.39a.35.35 0 0 1-.35.35.36.36 0 0 1 0-.71.36.36 0 0 1 .35.36zM332.88 185.39a.35.35 0 0 1-.35.35.36.36 0 0 1 0-.71.36.36 0 0 1 .35.36zM339 185.39a.35.35 0 1 1-.35-.36.35.35 0 0 1 .35.36zM345.16 185.39a.35.35 0 1 1-.35-.36.35.35 0 0 1 .35.36zM323.67 180.92a.35.35 0 0 1-.35.35.35.35 0 0 1 0-.7.35.35 0 0 1 .35.35zM329.81 180.92a.35.35 0 0 1-.35.35.35.35 0 0 1 0-.7.35.35 0 0 1 .35.35zM336 180.92a.35.35 0 0 1-.35.35.35.35 0 1 1 0-.7.35.35 0 0 1 .35.35zM342.09 180.92a.35.35 0 1 1-.35-.35.35.35 0 0 1 .35.35zM348.23 180.92a.35.35 0 1 1-.35-.35.35.35 0 0 1 .35.35zM332.88 194.33a.35.35 0 0 1-.35.35.35.35 0 0 1 0-.7.35.35 0 0 1 .35.35zM329.81 189.86a.36.36 0 0 1-.35.36.36.36 0 0 1 0-.71.35.35 0 0 1 .35.35zM336 189.86a.36.36 0 0 1-.35.36.36.36 0 0 1 0-.71.35.35 0 0 1 .35.35z" style="fill:#fff"/><path d="M352 179.07c-5.14 7.42-22.09 19.44-22.09 19.44l-2.26-5.19c6.35-7.2 16.15-18.1 21.79-24.37 6.56-.27 7.02 3.74 2.56 10.12z" style="fill:#263238"/><path d="M333 195.1c-1.24-3.16-6.79-15.89-8.17-18.56-.1-.19-.24-.17-.16 0a184.47 184.47 0 0 0 8.21 18.57c.04.1.17.07.12-.01z" style="fill:#263238"/><path d="M276.79 138.26c-1.51 2.91 2.78 3 2.78 3s-6.22 1.32-6.61 4.92 4.81 3.43 5.18 3.43c-.32.08-6 1.44-6 5.1s5.18 2.86 5.51 2.8c-.28.17-4.06 2.43-3.45 5.21 1.06 4.79 10.87-.73 14.64.5l-1.33 6.2v.63l3.14.83a40.71 40.71 0 0 1 4-5.23c1.75-2.11 3.37-4.16 3.71-5.84a3.58 3.58 0 0 0-1.67-3.94s3.22-1.3 3.33-4.18c.06-1.48-2.26-2.88-2.26-2.88a4.28 4.28 0 0 0 2.48-3.71c0-2.05-2.36-3.13-2.36-3.13s1.93-2.23 1.2-4.31c-1.54-4.18-19.08-5.66-22.29.6z" style="fill:#dd6a57"/><path d="m289 164.1-1.5 5.34v.63c0 7.09 7 12.81 8.52 7.94 1.13-3.7-3.12-8.71-1.42-12.34z" style="fill:#dd6a57"/><path d="M297.45 141.76v-.09a30.47 30.47 0 0 0-18.13-.42c-.19.06-.17.39.05.36a62.11 62.11 0 0 1 18.08.15zM297.76 148.81c.07 0 .09-.11 0-.13a28.64 28.64 0 0 0-19.81.77c-.22.1-.32.41-.06.31 4.38-1.57 14.27-1.9 19.87-.95zM277.25 157.88c6.18-2.49 12.54-2.76 19.11-2.09.09 0 .09-.11 0-.14-3.12-1.2-7.36-1.19-10.65-.9a17.51 17.51 0 0 0-8.57 2.92c-.08.06-.02.27.11.21z" style="fill:#263238"/><path d="M287.88 166.23c.34-1.07.62-2.09.95-3.16 0-.1.19 0 .18.05-.19 1.56-.56 3.06-.8 4.62a14.33 14.33 0 0 0 .08 4.8 11 11 0 0 0 1.56 3.89c.78 1.2 1.94 2.58 3.44 2.83s2.56-.95 2.69-2.41-.61-2.86-1.13-4.17a15.52 15.52 0 0 1-1.17-4.43 5.93 5.93 0 0 1 1.24-3.74c.51-.77 1-1.53 1.56-2.29a9.56 9.56 0 0 0 1.22-2 3.68 3.68 0 0 0-1.27-4.3c-.11-.07 0-.24.1-.16a5.06 5.06 0 0 1 2.27 3.1 4.88 4.88 0 0 1-1.18 3.91l-1.6 2.3a5.14 5.14 0 0 0-1.2 2.65c-.09 1.86.81 3.79 1.47 5.48a7.23 7.23 0 0 1 .62 4.52 3.32 3.32 0 0 1-2.65 2.57c-3.19.45-5.53-3.25-6.41-5.82a12.51 12.51 0 0 1-.57-5.5 15.24 15.24 0 0 1 .6-2.74z" style="fill:#263238"/><path d="M283.47 163.61a8.57 8.57 0 0 1 2.22-.7 9.61 9.61 0 0 1 2.33-.18 5.74 5.74 0 0 1 2.13.43 3.93 3.93 0 0 1 1.55 1.28.09.09 0 0 1-.11.14 16.51 16.51 0 0 0-1.8-.6 11 11 0 0 0-2-.41 11.76 11.76 0 0 0-2.14 0c-.73.05-1.45.21-2.18.21a.08.08 0 0 1 0-.17zM296.77 155.66l.34-.17a5.58 5.58 0 0 0 .64-.44c.21-.17.42-.34.62-.53a2.69 2.69 0 0 1 .32-.27l.16-.14a1 1 0 0 0 .17-.19c.07-.1.22 0 .14.11l-.16.2c0 .06-.07.14-.11.2a2.45 2.45 0 0 1-.24.38 3.35 3.35 0 0 1-.62.68 2.16 2.16 0 0 1-.76.41 1.35 1.35 0 0 1-.41.07.65.65 0 0 1-.36-.07.06.06 0 0 1 0-.08 2.54 2.54 0 0 1 .27-.16z" style="fill:#263238"/><path d="m336.53 206.23-2.41 25.08s42.33-1.46 52.37-2.66c0 0-12.19-46.08-23.6-57.32-5.7-5.62-12-4.87-15.9-.56-1 1.09-12.43 17.87-13.42 24.11-.86 5.51 2.96 11.35 2.96 11.35z" style="fill:#ecb9d8"/><path d="M357.28 167.79a.31.31 0 0 1-.19.06.33.33 0 0 1-.31-.2zM345.16 176.44a.35.35 0 0 1-.7 0 .35.35 0 1 1 .7 0zM351.3 176.44a.35.35 0 1 1-.7 0 .35.35 0 1 1 .7 0zM357.44 176.44a.34.34 0 0 1-.35.35.35.35 0 0 1-.35-.35.35.35 0 0 1 .35-.35.35.35 0 0 1 .35.35zM363.58 176.44a.34.34 0 0 1-.35.35.35.35 0 0 1-.35-.35.35.35 0 0 1 .35-.35.35.35 0 0 1 .35.35zM348.23 172a.35.35 0 1 1-.7 0 .35.35 0 1 1 .7 0zM354.37 172a.35.35 0 0 1-.7 0 .35.35 0 1 1 .7 0zM360.51 172a.35.35 0 0 1-.35.35.35.35 0 0 1-.35-.35.35.35 0 0 1 .35-.35.34.34 0 0 1 .35.35zM339 185.39a.35.35 0 1 1-.35-.36.35.35 0 0 1 .35.36zM345.16 185.39a.35.35 0 1 1-.35-.36.35.35 0 0 1 .35.36zM351.3 185.39a.35.35 0 1 1-.3-.39.35.35 0 0 1 .3.39zM357.44 185.39a.35.35 0 0 1-.35.35.36.36 0 0 1 0-.71.35.35 0 0 1 .35.36zM363.58 185.39a.35.35 0 0 1-.35.35.36.36 0 0 1 0-.71.35.35 0 0 1 .35.36zM369.72 185.39a.35.35 0 0 1-.35.35.36.36 0 0 1 0-.71.35.35 0 0 1 .35.36zM342.09 180.92a.35.35 0 1 1-.35-.35.35.35 0 0 1 .35.35zM348.23 180.92a.35.35 0 1 1-.35-.35.35.35 0 0 1 .35.35zM354.37 180.92a.35.35 0 1 1-.35-.35.35.35 0 0 1 .35.35zM360.51 180.92a.35.35 0 0 1-.35.35.35.35 0 1 1 0-.7.35.35 0 0 1 .35.35zM366.65 180.92a.35.35 0 0 1-.35.35.35.35 0 1 1 0-.7.35.35 0 0 1 .35.35zM339 194.33a.35.35 0 1 1-.35-.35.35.35 0 0 1 .35.35zM345.16 194.33a.35.35 0 1 1-.35-.35.35.35 0 0 1 .35.35zM351.3 194.33a.35.35 0 1 1-.3-.33.35.35 0 0 1 .3.33zM357.44 194.33a.35.35 0 0 1-.35.35.35.35 0 0 1 0-.7.35.35 0 0 1 .35.35zM363.58 194.33a.35.35 0 0 1-.35.35.35.35 0 1 1 0-.7.35.35 0 0 1 .35.35zM369.72 194.33a.35.35 0 0 1-.35.35.35.35 0 1 1 0-.7.35.35 0 0 1 .35.35zM375.48 194.67a.34.34 0 0 1-.32-.34.39.39 0 0 1 .09-.24c.08.2.15.39.23.58zM336 189.86a.36.36 0 0 1-.35.36.34.34 0 0 1-.32-.21c.08-.16.15-.31.22-.47h.1a.35.35 0 0 1 .35.32zM342.09 189.86a.35.35 0 1 1-.35-.35.36.36 0 0 1 .35.35zM348.23 189.86a.35.35 0 1 1-.35-.35.36.36 0 0 1 .35.35zM354.37 189.86a.35.35 0 1 1-.35-.35.36.36 0 0 1 .35.35zM360.51 189.86a.35.35 0 0 1-.35.36.36.36 0 0 1 0-.71.35.35 0 0 1 .35.35zM366.65 189.86a.35.35 0 0 1-.35.36.36.36 0 0 1 0-.71.35.35 0 0 1 .35.35zM372.79 189.86a.35.35 0 0 1-.35.36.36.36 0 0 1 0-.71.35.35 0 0 1 .35.35zM339 203.27a.35.35 0 0 1-.7 0 .35.35 0 1 1 .7 0zM345.16 203.27a.35.35 0 0 1-.7 0 .35.35 0 0 1 .7 0zM351.3 203.27a.35.35 0 1 1-.7 0 .35.35 0 1 1 .7 0zM357.44 203.27a.34.34 0 0 1-.35.35.35.35 0 0 1-.35-.35.35.35 0 0 1 .35-.35.35.35 0 0 1 .35.35zM363.58 203.27a.34.34 0 0 1-.35.35.35.35 0 0 1-.35-.35.35.35 0 0 1 .35-.35.35.35 0 0 1 .35.35zM369.72 203.27a.34.34 0 0 1-.35.35.35.35 0 0 1-.35-.35.35.35 0 0 1 .35-.35.35.35 0 0 1 .35.35zM375.87 203.27a.36.36 0 0 1-.71 0 .36.36 0 0 1 .71 0zM336 198.81a.35.35 0 0 1-.35.35.35.35 0 0 1-.35-.35.34.34 0 0 1 .35-.35.35.35 0 0 1 .35.35zM342.09 198.81a.35.35 0 0 1-.7 0 .35.35 0 0 1 .7 0zM348.23 198.81a.35.35 0 0 1-.7 0 .35.35 0 1 1 .7 0zM354.37 198.81a.35.35 0 1 1-.7 0 .35.35 0 1 1 .7 0zM360.51 198.81a.35.35 0 0 1-.35.35.35.35 0 0 1-.35-.35.35.35 0 0 1 .35-.35.34.34 0 0 1 .35.35zM366.65 198.81a.35.35 0 0 1-.35.35.35.35 0 0 1-.35-.35.35.35 0 0 1 .35-.35.34.34 0 0 1 .35.35zM372.79 198.81a.35.35 0 0 1-.35.35.35.35 0 0 1-.35-.35.35.35 0 0 1 .35-.35.34.34 0 0 1 .35.35zM339 212.22a.35.35 0 0 1-.7 0 .35.35 0 0 1 .7 0zM345.16 212.22a.35.35 0 0 1-.7 0 .35.35 0 1 1 .7 0zM351.3 212.22a.35.35 0 1 1-.7 0 .35.35 0 1 1 .7 0zM357.44 212.22a.35.35 0 0 1-.35.35.35.35 0 0 1-.35-.35.35.35 0 0 1 .35-.35.34.34 0 0 1 .35.35zM363.58 212.22a.35.35 0 0 1-.35.35.35.35 0 0 1-.35-.35.35.35 0 0 1 .35-.35.34.34 0 0 1 .35.35zM369.72 212.22a.35.35 0 0 1-.35.35.35.35 0 0 1-.35-.35.35.35 0 0 1 .35-.35.34.34 0 0 1 .35.35zM375.87 212.22a.36.36 0 0 1-.71 0 .36.36 0 0 1 .71 0zM381.73 212.55a.11.11 0 0 1-.08 0 .35.35 0 0 1-.35-.35.34.34 0 0 1 .22-.32c.08.24.15.45.21.67zM342.09 207.75a.35.35 0 0 1-.7 0 .35.35 0 0 1 .7 0zM348.23 207.75a.35.35 0 0 1-.7 0 .35.35 0 1 1 .7 0zM354.37 207.75a.35.35 0 1 1-.7 0 .35.35 0 1 1 .7 0zM360.51 207.75a.34.34 0 0 1-.35.35.35.35 0 0 1-.35-.35.35.35 0 0 1 .35-.35.35.35 0 0 1 .35.35zM366.65 207.75a.34.34 0 0 1-.35.35.35.35 0 0 1-.35-.35.35.35 0 0 1 .35-.35.35.35 0 0 1 .35.35zM372.79 207.75a.34.34 0 0 1-.35.35.35.35 0 0 1-.35-.35.35.35 0 0 1 .35-.35.35.35 0 0 1 .35.35zM378.94 207.75a.36.36 0 0 1-.71 0 .36.36 0 0 1 .71 0z" style="fill:#fff"/><circle cx="338.67" cy="221.16" r=".35" style="fill:#fff"/><circle cx="344.81" cy="221.16" r=".35" style="fill:#fff"/><path d="M351.3 221.16a.35.35 0 1 1-.35-.35.35.35 0 0 1 .35.35zM357.44 221.16a.35.35 0 0 1-.35.35.35.35 0 0 1 0-.7.35.35 0 0 1 .35.35zM363.58 221.16a.35.35 0 0 1-.35.35.35.35 0 1 1 0-.7.35.35 0 0 1 .35.35zM369.72 221.16a.35.35 0 0 1-.35.35.35.35 0 1 1 0-.7.35.35 0 0 1 .35.35z" style="fill:#fff"/><circle cx="375.51" cy="221.16" r=".35" style="fill:#fff"/><path d="M382 221.16a.36.36 0 1 1-.35-.35.35.35 0 0 1 .35.35zM336 216.7a.35.35 0 0 1-.35.35h-.11l.07-.68a.36.36 0 0 1 .39.33zM342.09 216.7a.35.35 0 1 1-.35-.36.35.35 0 0 1 .35.36zM348.23 216.7a.35.35 0 1 1-.35-.36.35.35 0 0 1 .35.36z" style="fill:#fff"/><circle cx="354.02" cy="216.7" r=".35" style="fill:#fff"/><circle cx="360.16" cy="216.7" r=".35" style="fill:#fff"/><path d="M366.65 216.7a.35.35 0 0 1-.35.35.36.36 0 0 1 0-.71.35.35 0 0 1 .35.36zM372.79 216.7a.35.35 0 0 1-.35.35.36.36 0 0 1 0-.71.35.35 0 0 1 .35.36zM378.94 216.7a.36.36 0 1 1-.36-.36.36.36 0 0 1 .36.36z" style="fill:#fff"/><circle cx="338.67" cy="230.1" r=".35" style="fill:#fff"/><circle cx="344.81" cy="230.1" r=".35" style="fill:#fff"/><path d="M351.3 230.1a.35.35 0 1 1-.35-.35.36.36 0 0 1 .35.35zM357.44 230.1a.34.34 0 0 1-.16.3h-.35a.34.34 0 0 1-.19-.31.35.35 0 0 1 .35-.35.35.35 0 0 1 .35.36zM363.58 230.1h-.69a.07.07 0 0 1 0-.05.35.35 0 0 1 .35-.35.35.35 0 0 1 .34.4zM369.57 229.82h-.43a.32.32 0 0 1 .23-.09.27.27 0 0 1 .2.09zM336 225.64a.35.35 0 0 1-.35.35.35.35 0 1 1 0-.7.35.35 0 0 1 .35.35zM342.09 225.64a.35.35 0 1 1-.35-.35.35.35 0 0 1 .35.35zM348.23 225.64a.35.35 0 1 1-.35-.35.35.35 0 0 1 .35.35z" style="fill:#fff"/><circle cx="354.02" cy="225.64" r=".35" style="fill:#fff"/><circle cx="360.16" cy="225.64" r=".35" style="fill:#fff"/><path d="M366.65 225.64a.35.35 0 0 1-.35.35.35.35 0 1 1 0-.7.35.35 0 0 1 .35.35zM372.79 225.64a.35.35 0 0 1-.35.35.35.35 0 1 1 0-.7.35.35 0 0 1 .35.35zM378.94 225.64a.36.36 0 1 1-.36-.35.36.36 0 0 1 .36.35zM385.08 225.64a.36.36 0 1 1-.35-.35.35.35 0 0 1 .35.35z" style="fill:#fff"/><path d="M358 169.77c-.28.83-4.85 6-8.73 5.46-1.26-.18-.6-7.12-.6-7.12l-.07-.52-.95-7.33 8.92-4.64 1.29-.6s.13 2 .26 4.54v.76c0 .38.05.76.06 1.15s0 .57 0 .88v.91a47.69 47.69 0 0 1-.18 6.51z" style="fill:#dd6a57"/><path d="M358.08 159.56a14.82 14.82 0 0 1-9.52 8l-.95-7.33 8.92-4.64 1.29-.6s.18 2.01.26 4.57z" style="fill:#263238"/><path d="M338.88 147.9c-2.34 12.75 5 15.59 7.78 16.1 2.5.45 11 1.69 14.7-10.75s-1.54-17.57-7.19-18.91-12.95.81-15.29 13.56z" style="fill:#dd6a57"/><path d="M341.15 145.9a6.54 6.54 0 0 0 .89-.09 1.42 1.42 0 0 0 .9-.26.47.47 0 0 0 .06-.55 1.14 1.14 0 0 0-1.09-.39 1.72 1.72 0 0 0-1.12.47.5.5 0 0 0 .36.82zM349.71 147.16a7.69 7.69 0 0 1-.85-.28 1.48 1.48 0 0 1-.82-.45.47.47 0 0 1 .07-.56 1.13 1.13 0 0 1 1.15-.14 1.63 1.63 0 0 1 1 .7.5.5 0 0 1-.55.73zM347.49 149.84s.06 0 .05.09c-.14.87-.17 1.89.59 2.29v.05c-.96-.27-.92-1.63-.64-2.43z" style="fill:#263238"/><path d="M348.39 149c1.42.09 1.15 2.92-.17 2.85s-1.02-2.85.17-2.85z" style="fill:#263238"/><path d="M348.93 149.24c.24.18.45.49.75.55s.63-.21.88-.47h.05c-.05.55-.31 1.09-.9 1.11s-.87-.49-1-1.05c.03-.08.13-.22.22-.14zM342.63 149s-.07 0-.07.07c-.05.88-.26 1.89-1.08 2.11v.05c.98-.01 1.24-1.35 1.15-2.23z" style="fill:#263238"/><path d="M341.93 148.05c-1.41-.23-1.77 2.6-.47 2.81s1.64-2.61.47-2.81z" style="fill:#263238"/><path d="M341.31 148.16c-.24.12-.5.37-.76.35s-.51-.35-.67-.67c-.09.54 0 1.13.52 1.3s.87-.27 1.07-.79c0-.07-.06-.24-.16-.19zM347 156.67c-.22.2-.44.47-.76.48a2.37 2.37 0 0 1-.94-.27s-.06 0 0 0a1.19 1.19 0 0 0 1.09.54.94.94 0 0 0 .74-.74.06.06 0 0 0-.13-.01zM343.69 153.1a18.32 18.32 0 0 0-.39 1.91c0 .06.14.1.35.14a3 3 0 0 0 3-.79c.05-.05 0-.13-.08-.09a4.53 4.53 0 0 1-2.77.48c0-.18.63-2.2.53-2.22a5.79 5.79 0 0 0-1.43.17c.59-2.71 1.62-5.3 2.17-8a.08.08 0 0 0-.16-.05 44.88 44.88 0 0 0-2.71 8.52c-.09.34 1.23.01 1.49-.07z" style="fill:#263238"/><path d="M343.75 154.68a3.56 3.56 0 0 0 1.16 1.41 1.63 1.63 0 0 0 .95.28c.74 0 .91-.66.9-1.24a3.92 3.92 0 0 0-.12-.91 4.67 4.67 0 0 1-2.89.46z" style="fill:#263238"/><path d="M344.91 156.09a1.63 1.63 0 0 0 .95.28c.74 0 .91-.66.9-1.24a1.69 1.69 0 0 0-1.85.96z" style="fill:#ff9abb"/><path d="M345.83 133.91s10.5-4.7 16.4 1.45 0 15.19 0 15.19 2.58-11.43-3-14.63-13.4-2.01-13.4-2.01z" style="fill:#ecb9d8"/><path d="M361.24 153.35a5.3 5.3 0 0 1-2.81-4.4 13.83 13.83 0 0 1-5.46-4.72c.08.27.63 2.2.95 3.17-8.08-1.79-10.39-8.1-10.39-8.1a14 14 0 0 0-3.72 5s.11-5 2.79-8.24c3.28-4 13.92-4.73 18.64.77 5.09 5.97 0 16.52 0 16.52z" style="fill:#263238"/><path d="M347.78 145.85a15.05 15.05 0 0 0 4.12 1.67 12.7 12.7 0 0 1-5.84-3.81 12.32 12.32 0 0 1-1.67-2.51 8.34 8.34 0 0 1-1-3.14c0-.08-.13-.07-.13 0a9.8 9.8 0 0 0 .54 3.22 8.9 8.9 0 0 0 1.72 2.76 10.38 10.38 0 0 0 2.24 1.82" style="fill:#263238"/><path d="M359.16 152.74s3.2-3.76 4.93-2.58-.94 6.81-3.17 7.41a2.19 2.19 0 0 1-2.81-1.45z" style="fill:#dd6a57"/><path d="M363.28 151.75v.06a5.56 5.56 0 0 0-3.18 3.18 1.21 1.21 0 0 1 1.83-.16s0 .09-.05.08a1.34 1.34 0 0 0-1.52.33 6.16 6.16 0 0 0-.82 1.13c-.08.12-.32 0-.25-.12.17-1.96 1.91-4.5 3.99-4.5z" style="fill:#263238"/><path d="M366.49 178.57c.42 10.56-15.32 43.88-23.36 49.43-11.95 8.25-40.45 13-47.88 14.14-3.23.48-3.43-27 0-27.57 7.55-1.28 31.3-3 33.5-4.45S345.31 193 352 183.65c9-12.47 14.28-10.42 14.49-5.08z" style="fill:#dd6a57"/><path d="M277.6 240.05c-1.72-2.77 2.53-3.21 2.53-3.21s-6.28-.84-6.95-4.39 4.52-3.78 4.89-3.81c-.33 0-6.08-1-6.39-4.6s4.92-3.24 5.26-3.21c-.3-.14-4.23-2.1-3.83-4.91.68-4.84 12-.18 15.68-1.69l.2-6c1.08 1.58 2.67 2.23 4.26 3.87 1.9 2 3.56 3.25 4 4.9a3.58 3.58 0 0 1-1.36 4.05s3.3 1 3.64 3.89c.16 1.47-2 3-2 3a4.28 4.28 0 0 1 2.75 3.5c.12 2-2.1 3.29-2.1 3.29s2.08 2.07 1.53 4.2c-1.11 4.27-18.41 7.07-22.11 1.12z" style="fill:#dd6a57"/><path d="M297.87 235c.05 0 .08.06 0 .08a30.34 30.34 0 0 1-18 1.82c-.2 0-.21-.37 0-.36a62.31 62.31 0 0 0 18-1.54zM297.63 228c.07 0 .1.09 0 .12a28.4 28.4 0 0 1-19.75.76c-.23-.08-.35-.37-.08-.3 4.48 1.18 14.34.74 19.83-.58zM276.54 220.51c6.34 2 12.68 1.77 19.16.6.09 0 .1.11 0 .14-3 1.44-7.22 1.75-10.52 1.72a17.56 17.56 0 0 1-8.74-2.24c-.07-.06-.03-.26.1-.22z" style="fill:#263238"/><path d="M354 180c9.88-10.67 15.58-6.26 12.22 6.3a224.67 224.67 0 0 1-8.24 24l-19.68-12.93s9.36-10.56 15.7-17.37z" style="fill:#ecb9d8"/><path d="M363.58 176.44a.34.34 0 0 1-.35.35.35.35 0 0 1-.35-.35.35.35 0 0 1 .35-.35.35.35 0 0 1 .35.35zM351.3 185.39a.35.35 0 1 1-.3-.39.35.35 0 0 1 .3.39zM357.44 185.39a.35.35 0 0 1-.35.35.36.36 0 0 1 0-.71.35.35 0 0 1 .35.36zM363.58 185.39a.35.35 0 0 1-.35.35.36.36 0 0 1 0-.71.35.35 0 0 1 .35.36zM354.37 180.92a.35.35 0 1 1-.35-.35.35.35 0 0 1 .35.35zM360.51 180.92a.35.35 0 0 1-.35.35.35.35 0 1 1 0-.7.35.35 0 0 1 .35.35zM366.65 180.92a.35.35 0 0 1-.35.35.35.35 0 1 1 0-.7.35.35 0 0 1 .35.35zM345.16 194.33a.35.35 0 1 1-.35-.35.35.35 0 0 1 .35.35zM351.3 194.33a.35.35 0 1 1-.3-.33.35.35 0 0 1 .3.33zM357.44 194.33a.35.35 0 0 1-.35.35.35.35 0 0 1 0-.7.35.35 0 0 1 .35.35zM363.58 194.33a.35.35 0 0 1-.35.35.35.35 0 1 1 0-.7.35.35 0 0 1 .35.35zM348.23 189.86a.35.35 0 1 1-.35-.35.36.36 0 0 1 .35.35zM354.37 189.86a.35.35 0 1 1-.35-.35.36.36 0 0 1 .35.35zM360.51 189.86a.35.35 0 0 1-.35.36.36.36 0 0 1 0-.71.35.35 0 0 1 .35.35zM351.3 203.27a.35.35 0 1 1-.7 0 .35.35 0 1 1 .7 0zM357.44 203.27a.34.34 0 0 1-.35.35.35.35 0 0 1-.35-.35.35.35 0 0 1 .35-.35.35.35 0 0 1 .35.35zM342.09 198.81a.35.35 0 0 1-.7 0 .35.35 0 0 1 .7 0zM348.23 198.81a.35.35 0 0 1-.7 0 .35.35 0 1 1 .7 0zM354.37 198.81a.35.35 0 1 1-.7 0 .35.35 0 1 1 .7 0zM360.51 198.81a.35.35 0 0 1-.35.35.35.35 0 0 1-.35-.35.35.35 0 0 1 .35-.35.34.34 0 0 1 .35.35zM354.37 207.75a.34.34 0 0 1-.05.17l-.58-.38a.35.35 0 0 1 .28-.14.35.35 0 0 1 .35.35z" style="fill:#fff"/><path d="M353 181.16c-1.32 1.39-2.68 2.75-4 4.1q.59-1.08 1.08-2.22h-.06c-.31.57-.65 1.13-1 1.71l-.45.83-.09.18c-1.06 1.06-2.11 2.12-3.13 3.21-1.22 1.3-2.41 2.63-3.6 4s-2.45 3-3.73 4.33c-.11.11 1.74 1.16 1.9 1.29s.33 0 .14-.13-1.6-1.23-1.62-1.25c1.2-1.34 2.54-2.54 3.77-3.84s2.47-2.58 3.67-3.9c2.44-2.68 4.73-5.5 7.15-8.19.05-.11-.03-.15-.03-.12zM365.53 193.28c-.4.58-.82 1.15-1.19 1.75l-.45.74 2.31-6.64c-1.45 3.56-2.91 7.12-4.29 10.71a110.47 110.47 0 0 0-3.79 10.4 12.85 12.85 0 0 0-1.88-.93 9.64 9.64 0 0 0 2 1.34 114.76 114.76 0 0 0 4.21-10.79c.36-1 .71-2 1.06-3 .32-.59.68-1.14 1-1.7s.71-1.23 1-1.84l.02-.04z" style="fill:#263238"/><path d="M358.09 206.76c-2.7-2-14.06-9.95-16.63-11.5-.18-.11-.29 0-.12.11A186.48 186.48 0 0 0 358 206.86c.07.05.16-.05.09-.1z" style="fill:#263238"/></g><g><path d="M265.29 432.64s23.37 1 22.79-14.95-23.82-13.25-23.82-13.25z" style="fill:#dd6a57"/><path transform="rotate(-92.09 183.48 421.491)" style="fill:#ecb9d8" d="M169.39 339.25h28.22v164.5h-28.22z"/><path transform="rotate(-92.3 262.175 418.072)" style="fill:#455a64" d="M246.84 415.32h32.95v6.54h-32.95z"/><path transform="rotate(-92.09 256.069 418.846)" style="fill:#455a64" d="M239.61 415.59h32.95v6.54h-32.95z"/><path d="m100.8 410.38-19.91 11.35-6.57 3.72 6.83 3.29 20.68 9.87 4-3s-4.13-2.58-4.2-2.64l4-3s-4.13-2.58-4.19-2.64l4-2.94s-4.14-2.65-4.2-2.71l4-2.94s-4.13-2.64-4.19-2.7l4-2.95s-4.19-2.65-4.25-2.71z" style="fill:#fff"/><path style="fill:#37474f" d="m80.89 421.73-6.57 3.72 6.83 3.29-.26-7.01z"/><path d="M111.18 417.79c11.31-.62 22.63-1.13 33.94-1.62l34-1.36 34-1.12 17-.48 17-.37-17 .86-17 .76-33.95 1.35-34 1.12c-11.34.34-22.66.65-33.99.86zM111.85 430.46c11.32-.62 22.63-1.13 34-1.62l34-1.36 34-1.12 17-.48 17-.37-17 .86-17 .76-34 1.35-34 1.12c-11.35.34-22.67.65-34 .86z" style="opacity:.1"/></g></svg>