<svg xmlns="http://www.w3.org/2000/svg" viewBox="0 0 500 500"><path style="fill:#ebebeb" d="M416.78 398.49h33.12v.25h-33.12zM322.53 401.21h8.69v.25h-8.69zM396.59 389.21h19.19v.25h-19.19zM52.46 390.89h43.19v.25H52.46zM104.56 390.89h6.33v.25h-6.33zM131.47 395.11h93.68v.25h-93.68zM237 337.8H43.92a5.71 5.71 0 0 1-5.71-5.71V60.66A5.71 5.71 0 0 1 43.92 55H237a5.71 5.71 0 0 1 5.71 5.71v271.38a5.71 5.71 0 0 1-5.71 5.71zM43.92 55.2a5.47 5.47 0 0 0-5.46 5.46v271.43a5.47 5.47 0 0 0 5.46 5.46H237a5.47 5.47 0 0 0 5.46-5.46V60.66A5.47 5.47 0 0 0 237 55.2zM453.31 337.8h-193.1a5.72 5.72 0 0 1-5.71-5.71V60.66a5.72 5.72 0 0 1 5.71-5.66h193.1a5.71 5.71 0 0 1 5.69 5.66v271.43a5.71 5.71 0 0 1-5.69 5.71zM260.21 55.2a5.47 5.47 0 0 0-5.46 5.46v271.43a5.47 5.47 0 0 0 5.46 5.46h193.1a5.47 5.47 0 0 0 5.46-5.46V60.66a5.47 5.47 0 0 0-5.46-5.46zM0 382.4h500v.25H0z"/><path style="fill:#e0e0e0" d="m178.81 109.76 50.56-29.42h38.97l51.4 28.02v191.31H178.81V109.76z"/><path d="M196.27 163c-.75 2.05-.62 3.72.28 3.72s2.24-1.67 3-3.72.62-3.71-.28-3.71-2.27 1.71-3 3.71zM178.89 240.86c-1.31 3.6-1.09 6.52.5 6.52s3.93-2.92 5.24-6.52 1.09-6.52-.5-6.52-3.93 2.92-5.24 6.52zM174.86 210.18c-.38 1-.31 1.86.14 1.86s1.12-.83 1.49-1.86.31-1.86-.14-1.86-1.12.84-1.49 1.86zM205.09 124.87c-.37 1-.31 1.85.14 1.85s1.12-.83 1.49-1.85.31-1.86-.14-1.86-1.12.83-1.49 1.86zM235.14 181.08c.75-2.06.62-3.72-.28-3.72s-2.24 1.66-3 3.72-.62 3.71.29 3.71 2.24-1.66 2.99-3.71zM291.58 146.92c.75-2 .62-3.71-.28-3.71s-2.24 1.66-3 3.71-.62 3.71.28 3.71 2.26-1.63 3-3.71zM257 109.35c1-2.87.86-5.2-.4-5.2s-3.13 2.33-4.17 5.2-.87 5.19.39 5.19 3.12-2.32 4.18-5.19zM277 195.93c.75-2.06.62-3.72-.28-3.72s-2.24 1.66-3 3.72-.62 3.71.28 3.71 2.27-1.64 3-3.71zM318.71 152.29c.74-2 .62-3.71-.29-3.71s-2.23 1.66-3 3.71-.62 3.72.28 3.72 2.3-1.67 3.01-3.72zM243.27 264.75c-1.49 4.1-1.24 7.43.57 7.43s4.48-3.33 6-7.43 1.24-7.42-.57-7.42-4.5 3.32-6 7.42zM205.15 253.62c-.74 2-.62 3.71.29 3.71s2.24-1.66 3-3.71.62-3.72-.28-3.72-2.26 1.67-3.01 3.72zM301.66 171.28c-1 2.87-.87 5.2.4 5.2s3.13-2.33 4.17-5.2.87-5.19-.39-5.19-3.13 2.33-4.18 5.19zM312 234.37c-.75 2-.62 3.71.28 3.71s2.24-1.66 3-3.71.62-3.71-.28-3.71-2.29 1.66-3 3.71zM278.15 234.34c-.37 1-.31 1.86.14 1.86s1.12-.83 1.5-1.86.31-1.86-.15-1.86-1.12.83-1.49 1.86zM249.47 226.93c-.38 1-.31 1.86.14 1.86s1.12-.83 1.49-1.86.31-1.86-.14-1.86-1.12.83-1.49 1.86zM207.46 185.15c.75-2.06.62-3.72-.28-3.72s-2.24 1.66-3 3.72-.62 3.71.28 3.71 2.26-1.66 3-3.71zM232.11 160.5c-1 2.87-.87 5.2.4 5.2s3.13-2.33 4.17-5.2.87-5.19-.39-5.19-3.14 2.33-4.18 5.19zM208.6 223.56c-.37 1-.31 1.86.14 1.86s1.12-.83 1.49-1.86.31-1.86-.14-1.86-1.09.83-1.49 1.86zM285.42 282.8c1.49-4.1 1.24-7.43-.57-7.43s-4.48 3.33-6 7.43-1.24 7.42.57 7.42 4.5-3.32 6-7.42zM299.65 249.9c.75-2.05.62-3.71-.28-3.71s-2.24 1.66-3 3.71-.62 3.72.28 3.72 2.25-1.62 3-3.72zM260.79 141.35c.37-1 .31-1.85-.14-1.85s-1.12.83-1.49 1.85-.31 1.86.14 1.86 1.12-.83 1.49-1.86z" style="fill:#fff"/><path d="M321.19 299.67H178.81V109.76l1.45-1.39a100.11 100.11 0 0 1 69.74-28 100.11 100.11 0 0 1 69.74 28l1.45 1.39zm-132.94-9.45h123.5V113.81a91.38 91.38 0 0 0-123.5 0z" style="fill:#fafafa"/><path style="fill:#f0f0f0" d="M313.54 155.64v-7.08h-60v-60h-7.08v60h-60v7.08h60v64.72h-60v7.08h60v64.72h7.08v-64.72h60v-7.08h-60v-64.72h60z"/><path d="M325.92 304.39H174.08V107.83l1.39-1.38a105.51 105.51 0 0 1 149.06 0l1.39 1.38zm-142.39-9.45h132.94V111.77a96.07 96.07 0 0 0-132.94 0z" style="fill:#f0f0f0"/><rect x="77.84" y="146.92" width="26.71" height="12.4" rx="3.85" style="fill:#f0f0f0"/><rect x="107.72" y="146.92" width="26.71" height="12.4" rx="3.85" style="fill:#f5f5f5"/><rect x="94.37" y="161.77" width="26.71" height="12.4" rx="3.85" style="fill:#ebebeb"/><rect x="404.42" y="248.61" width="26.71" height="12.4" rx="3.85" transform="rotate(180 417.78 254.805)" style="fill:#f0f0f0"/><rect x="374.54" y="248.61" width="26.71" height="12.4" rx="3.85" transform="rotate(180 387.9 254.805)" style="fill:#f5f5f5"/><rect x="387.9" y="233.76" width="26.71" height="12.4" rx="3.85" transform="rotate(180 401.26 239.955)" style="fill:#ebebeb"/><rect x="72.44" y="213.86" width="22.34" height="10.37" rx="3.85" style="fill:#f0f0f0"/><rect x="97.43" y="213.86" width="22.34" height="10.37" rx="3.85" style="fill:#f5f5f5"/><rect x="86.26" y="226.27" width="22.34" height="10.37" rx="3.85" style="fill:#ebebeb"/><path transform="rotate(180 414.03 144.32)" style="fill:#f5f5f5" d="M392.66 118.01h42.75v52.62h-42.75z"/><path transform="rotate(180 414.03 144.32)" style="fill:#ebebeb" d="M398.76 125.53h30.54v37.59h-30.54z"/><path transform="rotate(180 366.3 155.82)" style="fill:#f5f5f5" d="M344.93 140.64h42.73v30.35h-42.73z"/><path transform="rotate(180 366.3 155.82)" style="fill:#fafafa" d="M348.19 143.79h36.22v24.05h-36.22z"/><path style="fill:#f5f5f5" d="M358.4 174.85h36.98v26.27H358.4z"/><path style="fill:#fafafa" d="M365.12 180.17h23.54v15.63h-23.54z"/><g><ellipse cx="245.18" cy="412.39" rx="193.89" ry="11.32" style="fill:#f5f5f5"/></g><g><path d="M400.44 350.73a53.69 53.69 0 0 1-.2 17.92l2.21.12a127.18 127.18 0 0 0-6.1-49.43s7.13 9.4 8.1 31.61c0 0 10.44-13.76 2.81-25s-13.26-33.66-24.43-31.4a43.4 43.4 0 0 1 6.7 24.23c-.39 14.22 1.04 31.8 10.91 31.95z" style="fill:#263238"/><path d="M393.31 355.64a38.32 38.32 0 0 1 2.69 12.54l1.56-.25a91.14 91.14 0 0 0-11.92-33.58s6.43 5.46 10.56 20.82c0 0 5.16-11.22-1.92-17.92s-14.48-21.42-21.93-18.12a31.07 31.07 0 0 1 8.39 15.87c1.93 10 5.66 22.07 12.57 20.64z" style="fill:#263238"/><path d="M393.31 355.64a38.32 38.32 0 0 1 2.69 12.54l1.56-.25a91.14 91.14 0 0 0-11.92-33.58s6.43 5.46 10.56 20.82c0 0 5.16-11.22-1.92-17.92s-14.48-21.42-21.93-18.12a31.07 31.07 0 0 1 8.39 15.87c1.93 10 5.66 22.07 12.57 20.64z" style="fill:#fff;opacity:.2"/><path d="M411.25 355a42.66 42.66 0 0 0-1.44 14.23l-1.77-.09a101.72 101.72 0 0 1 9.24-38.68s-6.49 6.83-9.24 24.36c0 0-7.06-11.84 0-20.12s13.52-25.48 22.17-22.7a34.58 34.58 0 0 0-7.47 18.62c-.95 11.38-3.66 25.18-11.49 24.38z" style="fill:#263238"/><path d="M411.25 355a42.66 42.66 0 0 0-1.44 14.23l-1.77-.09a101.72 101.72 0 0 1 9.24-38.68s-6.49 6.83-9.24 24.36c0 0-7.06-11.84 0-20.12s13.52-25.48 22.17-22.7a34.58 34.58 0 0 0-7.47 18.62c-.95 11.38-3.66 25.18-11.49 24.38z" style="fill:#fff;opacity:.4"/><path style="fill:#6942d9" d="M416.48 411.37h-28.96l-2.41-45.16h33.79l-2.42 45.16z"/><path style="fill:#fff;opacity:.5" d="M416.48 411.37h-28.96l-2.41-45.16h33.79l-2.42 45.16z"/><path style="fill:#fff;opacity:.6000000000000001" d="M409.05 411.37h3.56l2.42-45.16h-3.57l-2.41 45.16z"/></g><g><path d="M280.43 365.33h26.3l-13.82-112.59a10 10 0 0 0-9.69-8.63H75l16.83 121.22z" style="fill:#6942d9"/><path d="M280.43 365.33h26.3l-13.82-112.59a10 10 0 0 0-9.69-8.63H75l16.83 121.22z" style="fill:#fff;opacity:.1"/><path d="M103.57 365.33h-26.3L63.45 252.74a7.47 7.47 0 0 1 7.55-8.63h9a10 10 0 0 1 9.69 8.63z" style="fill:#6942d9"/><path d="M103.57 365.33h-26.3L63.45 252.74a7.47 7.47 0 0 1 7.55-8.63h9a10 10 0 0 1 9.69 8.63z" style="opacity:.2"/><path d="m119.23 380.38-5.1-54.38a5.18 5.18 0 0 0-4.54-4.67l-2-.24a7 7 0 0 1-6.1-6.26l-.93-9.93a7 7 0 0 1 6.89-7.61l-43.95.27a7 7 0 0 0-6.89 7.61l.93 9.93a7 7 0 0 0 6.1 6.26l2 .24a5.19 5.19 0 0 1 4.54 4.67l5.1 54.43a7.71 7.71 0 0 0 7.7 7l44-.28a7.68 7.68 0 0 1-7.75-7.04z" style="fill:#6942d9"/><path d="m119.23 380.38-5.1-54.38a5.18 5.18 0 0 0-4.54-4.67l-2-.24a7 7 0 0 1-6.1-6.26l-.93-9.93a7 7 0 0 1 6.89-7.61l-43.95.27a7 7 0 0 0-6.89 7.61l.93 9.93a7 7 0 0 0 6.1 6.26l2 .24a5.19 5.19 0 0 1 4.54 4.67l5.1 54.43a7.71 7.71 0 0 0 7.7 7l44-.28a7.68 7.68 0 0 1-7.75-7.04z" style="opacity:.3"/><path d="M333.48 312.46A16.56 16.56 0 0 1 350 297.35h-38.29a16.54 16.54 0 0 0-16.49 15.11l-3.78 43.17h38.26z" style="fill:#6942d9"/><path d="M333.48 312.46A16.56 16.56 0 0 1 350 297.35h-38.29a16.54 16.54 0 0 0-16.49 15.11l-3.78 43.17h38.26z" style="opacity:.30000000000000004"/><path d="M129.85 387.57h9v23.07a1.73 1.73 0 0 1-1.73 1.73h-4.51a2.73 2.73 0 0 1-2.73-2.73v-22.07h-.03zM336.69 387.57h9v23.07a1.73 1.73 0 0 1-1.73 1.73h-4.51a2.73 2.73 0 0 1-2.73-2.73v-22.07h-.03z" style="fill:#6942d9"/><path d="M85.31 387.58h9v23.07a1.73 1.73 0 0 1-1.73 1.73H88a2.73 2.73 0 0 1-2.73-2.73v-22.07z" transform="rotate(-.35 90.438 404.623)" style="fill:#6942d9"/><path d="M85.31 387.58h9v23.07a1.73 1.73 0 0 1-1.73 1.73H88a2.73 2.73 0 0 1-2.73-2.73v-22.07z" transform="rotate(-.35 90.438 404.623)" style="opacity:.2"/><path d="M291.87 387.57h9v23.07a1.73 1.73 0 0 1-1.73 1.73h-4.54a2.73 2.73 0 0 1-2.73-2.73v-22.07z" style="fill:#6942d9"/><path d="M291.87 387.57h9v23.07a1.73 1.73 0 0 1-1.73 1.73h-4.54a2.73 2.73 0 0 1-2.73-2.73v-22.07z" style="opacity:.2"/><path d="M152.62 333.26h-15.81c-3.84 0-7 2.69-7 6v10.35c0 3.32 3.12 6 7 6h15.81z" style="fill:#6942d9"/><path d="M152.62 333.26h-15.81c-3.84 0-7 2.69-7 6v10.35c0 3.32 3.12 6 7 6h15.81z" style="opacity:.30000000000000004"/><rect x="146.21" y="333.26" width="183.49" height="22.37" rx="5.42" style="fill:#6942d9"/><path d="M367 297.35h-17a16.56 16.56 0 0 0-16.49 15.11l-3.78 43.17H145.11l-3.77-43.17a16.56 16.56 0 0 0-16.5-15.11h-17a7 7 0 0 0-6.94 7.57l.87 9.93a7 7 0 0 0 6.06 6.3l2 .25a5.18 5.18 0 0 1 4.52 4.69l4.76 54.46a7.7 7.7 0 0 0 7.66 7h221.31a7.69 7.69 0 0 0 7.66-7l4.77-54.46a5.18 5.18 0 0 1 4.49-4.69l2-.25a7 7 0 0 0 6.06-6.3l.86-9.93a7 7 0 0 0-6.92-7.57z" style="fill:#6942d9"/><path d="M367 297.35h-17a16.56 16.56 0 0 0-16.49 15.11l-3.78 43.17H145.11l-3.77-43.17a16.56 16.56 0 0 0-16.5-15.11h-17a7 7 0 0 0-6.94 7.57l.87 9.93a7 7 0 0 0 6.06 6.3l2 .25a5.18 5.18 0 0 1 4.52 4.69l4.76 54.46a7.7 7.7 0 0 0 7.66 7h221.31a7.69 7.69 0 0 0 7.66-7l4.77-54.46a5.18 5.18 0 0 1 4.49-4.69l2-.25a7 7 0 0 0 6.06-6.3l.86-9.93a7 7 0 0 0-6.92-7.57z" style="opacity:.1"/></g><g><path style="fill:#ffb573" d="m333.39 395 2.55 15.01 6.7-.63-.77-15.49-8.48 1.11z"/><path d="m343.39 408.44-8.1.56a.52.52 0 0 0-.5.53v6.43a1.28 1.28 0 0 0 1.35 1.19c2.82-.24 4.16-.5 7.72-.77a67 67 0 0 0 9.47-1c3-.69 2.2-3.59.88-3.56a19.71 19.71 0 0 1-9.59-3.09 2.06 2.06 0 0 0-1.23-.29z" style="fill:#263238"/><path d="M346 409.49a9 9 0 0 1-1.94-.12.17.17 0 0 1-.14-.12.24.24 0 0 1 .05-.18c.22-.18 2.17-1.71 3.08-1.43a.63.63 0 0 1 .42.45.89.89 0 0 1-.14 1 2 2 0 0 1-1.33.4zm1-1.5c-.48-.15-1.64.54-2.44 1.13 1.31.16 2.25.06 2.57-.3a.64.64 0 0 0 .08-.61.35.35 0 0 0-.21-.21z" style="fill:#263238"/><path d="M344.12 409.37h-.07a.17.17 0 0 1-.1-.12c0-.07-.31-2.15.36-2.91a.89.89 0 0 1 .7-.28.67.67 0 0 1 .65.46c.21.78-.76 2.36-1.44 2.83a.12.12 0 0 1-.1.02zm.8-2.94a.47.47 0 0 0-.35.18 3.69 3.69 0 0 0-.31 2.31 3.56 3.56 0 0 0 1.07-2.27c0-.1-.09-.21-.33-.22z" style="fill:#263238"/><path style="opacity:.1" d="m341.87 393.89-8.48 1.11 1.29 7.58 7.6-.47-.41-8.22z"/><path d="M273 288.86s2.92 19 6.92 19.69 55.91 10.08 59.58 22.08 3.68 68.84 3.68 68.84l-10.18.92s-11-50.76-10.34-64.26c0 0-47.5 0-62.33-8.17s-7.71-37.31-7.71-37.31z" style="fill:#263238"/><path d="M314.49 324.13c-4.12-8.25-48.62-10.58-48.62-10.58l30.61 21.51c8.71.67 16.73.92 21.54 1-1.02-3.62-2.18-9.23-3.53-11.93z" style="opacity:.6000000000000001"/><path style="fill:#ffb573" d="m316.3 398.9 4.93 14.63 6.57-1.48-3.24-15.33-8.26 2.18z"/><path d="m328.14 410.05-7.9 1.85a.5.5 0 0 0-.41.59l1.08 6.35a1.26 1.26 0 0 0 1.49 1c2.75-.69 4-1.16 7.5-2a66.67 66.67 0 0 0 9.2-2.44c2.81-1.15 1.6-3.89.31-3.65-3.06.55-7.64-.45-10-1.54a2 2 0 0 0-1.27-.16z" style="fill:#263238"/><path d="M330.92 410.67a9 9 0 0 1-1.94.18.15.15 0 0 1-.16-.09.19.19 0 0 1 0-.18c.19-.21 1.86-2 2.81-1.91a.66.66 0 0 1 .48.38.91.91 0 0 1 0 1 2 2 0 0 1-1.19.62zm.7-1.63c-.51-.08-1.54.79-2.24 1.5 1.32-.05 2.24-.3 2.49-.7a.62.62 0 0 0 0-.62.28.28 0 0 0-.23-.18z" style="fill:#263238"/><path d="M329 410.85a.19.19 0 0 1-.12-.11c0-.06-.66-2.08-.11-2.93a.88.88 0 0 1 .64-.39.66.66 0 0 1 .72.36c.33.73-.37 2.45-1 3a.1.1 0 0 1-.13.07zm.32-3a.54.54 0 0 0-.32.23 3.74 3.74 0 0 0 .06 2.34 3.59 3.59 0 0 0 .71-2.41c0-.1-.13-.2-.37-.17z" style="fill:#263238"/><path style="opacity:.1" d="m318.6 405.72 7.52-1.63-1.56-7.37-8.26 2.18 2.3 6.82z"/><path d="M261.22 216.13s6.43-9-2.41-17.08c-9.56-8.74-18.35 2.07-18.35 2.07s-9.91 3.27-6.91 14.17S248 227.5 248 227.5z" style="fill:#263238"/><path d="M257.23 241.66c8-1.06 1.78-3.74 1.78-3.74-5.44-1-5.78-4.94-5.29-8.66l-10-7.3c1.5 4.69 3.47 13.32.53 16.62 0 0-2 4.27 10.48 3.32z" style="fill:#ffb573"/><path d="m247.8 224.94 5.91 4.32a14.6 14.6 0 0 0-.14 2.63c-2.06-.2-5.1-2.29-5.57-4.39a7.27 7.27 0 0 1-.2-2.56z" style="opacity:.2"/><path d="M239.25 212.61c1.79 7.6 2.38 10.85 6.92 14.33 6.83 5.23 15.74 1.9 16.25-5.95.46-7.07-2.54-18.31-10.55-20.49a10 10 0 0 0-12.62 12.11z" style="fill:#ffb573"/><path d="M245.59 206.78c-4 5.65 5 11.53-3.71 11.56s-5.73-12.4-.7-15.42 4.41 3.86 4.41 3.86z" style="fill:#263238"/><path d="M241.21 203c1.33 5.18 2.23 6.5 6.81 4.87a5.46 5.46 0 0 1-1-3.52 5.22 5.22 0 0 0 2.74 2.76 18.36 18.36 0 0 1 3.82-1.36 5 5 0 0 1-.33-2.25 4.84 4.84 0 0 0 1.85 2.05 13.42 13.42 0 0 1 4.23.55c-.33-5.5-9.9-11.01-18.12-3.1zM251.45 213.34c.12.65.56 1.13 1 1.08s.65-.61.53-1.25-.56-1.13-1-1.08-.65.61-.53 1.25zM258.74 211.94c.12.65.55 1.13 1 1.08s.65-.61.52-1.26-.55-1.12-1-1.07-.65.61-.52 1.25z" style="fill:#263238"/><path d="m259.09 210.74 1.43-.62s-.52 1.3-1.43.62z" style="fill:#263238"/><path d="M257.78 213.85a19.25 19.25 0 0 0 3 3.84 2.63 2.63 0 0 1-2.18.7z" style="fill:#ed893e"/><path d="M258 221.2a6.21 6.21 0 0 0 1.08-.15.17.17 0 0 0 .12-.22.21.21 0 0 0-.24-.15 5.48 5.48 0 0 1-4.6-1 .17.17 0 0 0-.26 0 .19.19 0 0 0 0 .27 5.76 5.76 0 0 0 3.9 1.25zM249.28 210.49a.41.41 0 0 0 .25-.15 2.8 2.8 0 0 1 2.33-1.29.35.35 0 0 0 .38-.35.42.42 0 0 0-.39-.4 3.46 3.46 0 0 0-3 1.59.38.38 0 0 0 .11.52.43.43 0 0 0 .32.08zM260.86 208.18a.3.3 0 0 0 .25-.12.37.37 0 0 0-.06-.53 4 4 0 0 0-3.41-1 .36.36 0 0 0-.25.46.42.42 0 0 0 .49.27 3.19 3.19 0 0 1 2.69.81.41.41 0 0 0 .29.11zM251.8 212.14l1.44-.62s-.55 1.3-1.44.62z" style="fill:#263238"/><path style="fill:#6942d9" d="m257.21 213.3 2.25 2.17 4.34-.86.08-3.48-.93-3.02-14.91 3.4-9.47 6.57.66 1.27 9.61-4.73 2.87 2.54 5.48-1.19.02-2.67z"/><path style="fill:#fff;opacity:.6000000000000001" d="m248.04 211.51-9.47 6.57.66 1.27 9.61-4.73-.8-3.11z"/><path style="fill:#fff;opacity:.8" d="m257.21 213.3 2.25 2.17 4.34-.86.08-3.48-.93-3.02-14.91 3.4.8 3.11 2.87 2.54 5.48-1.19.02-2.67z"/><path d="m251.25 211.66 3.06-.71a1.35 1.35 0 0 1 1.62 1l.3 1.25a1.35 1.35 0 0 1-1 1.64l-2.91.65a1.33 1.33 0 0 1-1.55-.83l-.47-1.19a1.34 1.34 0 0 1 .95-1.81z" style="fill:#263238"/><path d="m258.27 210.06 2.94-.68a1.3 1.3 0 0 1 1.55 1l.29 1.19a1.29 1.29 0 0 1-1 1.57l-2.79.63a1.3 1.3 0 0 1-1.49-.79l-.44-1.15a1.29 1.29 0 0 1 .94-1.77z" style="fill:#6942d9"/><path d="m296.55 278.7-.37-.08c-.73-.16-1.68-.33-2.5-.55s-1.66-.48-2.44-.78a15.19 15.19 0 0 1-4.09-2.16 8.88 8.88 0 0 1-1.43-1.36 7.45 7.45 0 0 1-.55-.74 3 3 0 0 1-.24-.38l-.27-.47-1.44-2.41-1.39-2.44c-1.81-3.26-3.5-6.61-5.07-10-.79-1.7-1.54-3.41-2.27-5.12-.37-.85-.72-1.71-1.05-2.57s-.69-1.75-1-2.48v-.13a5 5 0 0 0-9.44 3.27c.37 1.12.68 2 1.07 3s.75 1.9 1.15 2.83c.78 1.88 1.63 3.71 2.53 5.52a110.4 110.4 0 0 0 6 10.55 102.6 102.6 0 0 0 3.43 5c.12.18.34.45.55.72a9.88 9.88 0 0 0 .66.77 12.64 12.64 0 0 0 1.46 1.38 16.3 16.3 0 0 0 3.25 2.09 19.47 19.47 0 0 0 6.83 1.82 20.6 20.6 0 0 0 3.33 0 21.39 21.39 0 0 0 3.34-.46 2.49 2.49 0 0 0 0-4.86z" style="fill:#ffb573"/><path d="M270.35 242.31s2.17 0 10.39 14.68c0 0-3.37 8.59-12.12 9 0 .01-17.12-24.67 1.73-23.68z" style="fill:#6942d9"/><path d="M270.35 242.31s2.17 0 10.39 14.68c0 0-3.37 8.59-12.12 9 0 .01-17.12-24.67 1.73-23.68z" style="fill:#fff;opacity:.5"/><path d="m272.74 246.93-4.54-1.13-5.33 2.93-1.06 2.78c1.37 6.67 6.81 14.51 6.81 14.51a12.92 12.92 0 0 0 8.93-4.25 98.75 98.75 0 0 1-4.81-14.84z" style="fill:#263238;opacity:.1"/><path d="m304.29 278.26-2.1-1.6a3.07 3.07 0 0 0-2.76-.49l-4.43 1.38a5.72 5.72 0 0 0-3.75 3.68l-.36 1.09c3.3 2.89 9 3.58 9 3.58l1.6.38a2.56 2.56 0 0 0 3.13-1.84l.79-3.17a2.94 2.94 0 0 0-1.12-3.01z" style="fill:#ffb573"/><path d="M263.94 288.86s-2.08 24 1.93 24.69 41.9 3.08 45.57 15.08 15.69 71.84 15.69 71.84l-11.19 2.92s-23-53.76-22.33-67.26c0 0-38.5 5-53.34-3.17s-1.7-42.31-1.7-42.31z" style="fill:#263238"/><path d="M257.47 237.44c.28.17 6.72 4.36-1.68 4.36s-11.07-3.65-11.14-3.74c-3 .44-6.37 1.09-10.11 2l2.74 52.34s23.61 3.13 36.81-2.82c0 0 1.68-38.46-2.24-45 0-.01-1.95-6.17-14.38-7.14z" style="fill:#6942d9"/><path d="M257.47 237.44c.28.17 6.72 4.36-1.68 4.36s-11.07-3.65-11.14-3.74c-3 .44-6.37 1.09-10.11 2l2.74 52.34s23.61 3.13 36.81-2.82c0 0 1.68-38.46-2.24-45 0-.01-1.95-6.17-14.38-7.14z" style="fill:#fff;opacity:.5"/><path d="m235.09 250.47 1.14 21.91c4.7-15.59 4.56-23.65 4.56-23.65l-1.25-2.93z" style="fill:#263238;opacity:.1"/><path style="fill:#6942d9" d="m282.02 313.56-11.93-3.52-.41-33.12 14.44 6.38-2.1 30.26z"/><path style="fill:#6942d9" d="m280.32 313.06 1.73-30.67 2.07.91-2.1 30.26-1.7-.5zM276.91 312.05l1.02-31.48 2.06.91-1.38 31.08-1.7-.51zM273.5 311.05l.31-32.31 2.06.91-.67 31.9-1.7-.5zM270.09 310.04l-.41-33.12 2.06.91.05 32.72-1.7-.51z"/><path style="fill:#fff;opacity:.8" d="m280.32 313.06 1.73-30.67 2.07.91-2.1 30.26-1.7-.5zM276.91 312.05l1.02-31.48 2.06.91-1.38 31.08-1.7-.51zM273.5 311.05l.31-32.31 2.06.91-.67 31.9-1.7-.5zM270.09 310.04l-.41-33.12 2.06.91.05 32.72-1.7-.51z"/><path style="fill:#6942d9" d="m294.32 311.71-12.3 1.85 2.1-30.26 15.18-4.35-4.98 32.76z"/><path style="fill:#fff;opacity:.4" d="m294.32 311.71-12.3 1.85 2.1-30.26 15.18-4.35-4.98 32.76z"/><path style="fill:#6942d9" d="m299.3 278.95-14.44-6.38-15.18 4.35 14.44 6.38 15.18-4.35z"/><path style="fill:#fff;opacity:.30000000000000004" d="m299.3 278.95-14.44-6.38-15.18 4.35 14.44 6.38 15.18-4.35z"/><path style="fill:#6942d9" d="m283.78 313.3 2.51-30.62-2.17.62-2.1 30.26 1.76-.26zM287.29 312.77l3.33-31.33-2.17.62-2.91 30.97 1.75-.26zM290.81 312.24l4.15-32.04-2.17.62-3.74 31.68 1.76-.26zM294.32 311.71l4.98-32.76-2.17.63-4.57 32.4 1.76-.27z"/><path d="M291.91 278.58h-.11a1.1 1.1 0 0 0 .07-.44c-.07-.75-1-1.28-2.11-1.19a2.09 2.09 0 0 0-1.79 1.08 2.82 2.82 0 0 0-1.14-.14c-1.1.1-1.94.79-1.88 1.55s1 1.28 2.12 1.19a.16.16 0 0 0 0 .07c0 .52.7.9 1.47.83s1.35-.55 1.3-1.08a.68.68 0 0 0-.19-.41.79.79 0 0 0 .29-.35h.06a3 3 0 0 0 .61-.13v.07c0 .53.71.9 1.48.83s1.35-.55 1.3-1.07-.72-.88-1.48-.81z" style="fill:#fff"/><path d="M292.35 271.8c-.78.07-1.37.57-1.32 1.11v.1a2.94 2.94 0 0 0-.79 0 2.78 2.78 0 0 0-.78.17.4.4 0 0 0 0-.11c0-.54-.71-.92-1.49-.85s-1.36.56-1.32 1.1.72.93 1.5.86h.15a1.24 1.24 0 0 0-.11.57c.07.69.79 1.21 1.72 1.31a.55.55 0 0 0 0 .22c0 .54.71.93 1.49.86s1.37-.56 1.32-1.1a.89.89 0 0 0-.55-.69 1.27 1.27 0 0 0 .4-1 1.15 1.15 0 0 0-.2-.53h.15c.78-.06 1.37-.56 1.32-1.1s-.72-.98-1.49-.92zM286.14 276.58a1.13 1.13 0 0 0 .27-.8c-.07-.85-1.25-1.44-2.63-1.32s-2.43.91-2.35 1.76v.1a3.82 3.82 0 0 0-.9 0c-1.38.12-2.43.9-2.36 1.76s1.25 1.44 2.63 1.32a3.52 3.52 0 0 0 1.58-.52 2.58 2.58 0 0 0 1.81.46c1.15-.1 2-.76 2-1.47.57-.05 1-.37 1-.73s-.52-.58-1.05-.56zM270.91 275.59a.84.84 0 0 1-.17-.6c.09-.62 1-1 2-.85s1.75.78 1.65 1.4a.24.24 0 0 1 0 .08 2.53 2.53 0 0 1 .67 0c1 .15 1.74.78 1.65 1.4s-1 1-2 .85a2.51 2.51 0 0 1-1.14-.45 1.82 1.82 0 0 1-1.35.25c-.84-.12-1.46-.64-1.38-1.16-.42-.06-.72-.32-.68-.58s.35-.38.75-.34zM293.23 278.42a.59.59 0 0 0-.08.44c.11.44.77.65 1.49.47s1.19-.67 1.08-1.11v-.06a2 2 0 0 0 .47-.06c.72-.17 1.2-.67 1.09-1.11s-.78-.65-1.49-.48a1.88 1.88 0 0 0-.78.41 1.29 1.29 0 0 0-1-.09c-.59.14-1 .56-.9.92-.29.08-.5.29-.45.47s.34.26.57.2z" style="fill:#fff"/><path d="M275.71 272.41a.78.78 0 0 1 .12-.57c.35-.47 1.25-.39 2 .17s1.09 1.39.74 1.86l-.06.05a2.43 2.43 0 0 1 .54.31c.76.56 1.09 1.39.74 1.86s-1.24.4-2-.16a2.35 2.35 0 0 1-.73-.87 1.66 1.66 0 0 1-1.22-.38c-.63-.46-.91-1.15-.62-1.54-.32-.24-.45-.58-.31-.78s.49-.16.8.05zM279.27 280.4a.72.72 0 0 1-.22-.53c0-.58.8-1 1.74-1s1.69.52 1.67 1.11v.07a2.48 2.48 0 0 1 .62-.05c.94 0 1.69.52 1.67 1.11s-.8 1-1.74 1a2.54 2.54 0 0 1-1.1-.29 1.78 1.78 0 0 1-1.22.38c-.78 0-1.4-.44-1.39-.93-.39 0-.7-.21-.69-.46s.29-.4.66-.41zM280.35 273.52a1 1 0 0 0-.09.71c.21.68 1.29 1 2.4.63s1.84-1.18 1.63-1.87v-.08a3.4 3.4 0 0 0 .75-.14c1.12-.34 1.85-1.17 1.63-1.86s-1.28-1-2.4-.63a3 3 0 0 0-1.27.72 2.07 2.07 0 0 0-1.57-.06c-.93.28-1.53 1-1.36 1.54-.46.15-.76.49-.68.78s.52.37.96.26zM253.33 267.45a1 1 0 0 0-.08.7c.21.69 1.28 1 2.4.63s1.84-1.17 1.63-1.86v-.08a3.52 3.52 0 0 0 .75-.14c1.11-.34 1.84-1.17 1.63-1.86s-1.28-1-2.4-.63a3 3 0 0 0-1.21.7 2.17 2.17 0 0 0-1.57-.06c-.93.29-1.54 1-1.36 1.55-.46.14-.77.49-.68.77s.46.39.89.28z" style="fill:#fff"/><path d="M250.45 274.09a2.49 2.49 0 0 0-3.08-1.71h-.07c-2 .57-4.05 1.2-6.07 1.72s-4 1.06-6 1.46a32.45 32.45 0 0 1-5.44.77c.8-3.44 1.8-6.9 2.89-10.34.7-2.13 1.41-4.26 2.16-6.38s1.56-4.27 2.31-6.26v-.11a5 5 0 0 0-9.27-3.74c-1 2.31-1.78 4.51-2.59 6.78s-1.5 4.56-2.14 6.88-1.21 4.67-1.7 7-.88 4.81-1.18 7.26v.3a3.53 3.53 0 0 0 0 .65 7.1 7.1 0 0 0 .51 2.15 6.33 6.33 0 0 0 1.38 2.1 7.14 7.14 0 0 0 3.47 1.92 13 13 0 0 0 4.74.1 34.47 34.47 0 0 0 7-1.9c2.14-.8 4.19-1.7 6.19-2.68s3.93-2 5.86-3.22a2.49 2.49 0 0 0 1.03-2.75z" style="fill:#ffb573"/><path d="M219.79 260.94a22 22 0 0 0 15.45 6.33s11.09-24.89 2.3-27.37c-8.34-2.35-17.75 21.04-17.75 21.04z" style="fill:#6942d9"/><path d="M219.79 260.94a22 22 0 0 0 15.45 6.33s11.09-24.89 2.3-27.37c-8.34-2.35-17.75 21.04-17.75 21.04z" style="fill:#fff;opacity:.5"/><path d="m253.39 266.5-2.63.14a3 3 0 0 0-2.43 1.41l-2.49 3.95a5.7 5.7 0 0 0-.48 5.23l.43 1.06c4.39.08 9.18-3.08 9.18-3.08l1.46-.74a2.56 2.56 0 0 0 1.21-3.43l-1.45-2.93a2.94 2.94 0 0 0-2.8-1.61zM238.84 220a5.4 5.4 0 0 0 3.39 2.71c1.8.39 2.49-1.69 1.8-3.71-.62-1.81-2.3-4.2-4-3.68s-2.17 2.96-1.19 4.68z" style="fill:#ffb573"/></g><g><path d="m184.15 237.17 2.33 1.49 2.46 1.53c1.66 1 3.33 2 5 3 3.36 2 6.79 3.87 10.26 5.72l1 .55a4.65 4.65 0 0 0 .76.31 6 6 0 0 0 1.78.36 13.41 13.41 0 0 0 4.49-.54 40.08 40.08 0 0 0 9.82-4.57l3.74 4a32.28 32.28 0 0 1-4.75 4.68 30.11 30.11 0 0 1-5.75 3.7 20.46 20.46 0 0 1-7.28 2.07 15.9 15.9 0 0 1-4.22-.2 16.08 16.08 0 0 1-2.14-.57l-1-.38-.65-.32q-5.78-2.35-11.32-5.25-2.78-1.45-5.47-3.07c-.9-.54-1.79-1.1-2.68-1.67s-1.74-1.14-2.72-1.84z" style="fill:#ce7a63"/><path d="m199.42 243.86-5.58 13.55s-.64-.19-1.72-.55c-.79-.26-1.82-.62-3-1.05-6.77-2.42-17.7-7.7-20.3-11.94-3.87-6.31 2.17-11.2 13.46-9.13 4.88.89 9.33 4.55 12.68 6.46 1.11.63 2.06 1.2 2.8 1.63z" style="fill:#263238"/><path d="m221.53 246.56 2.3-8.25 6.78 4.65s-3.39 7.39-5.87 6.81z" style="fill:#ce7a63"/><path style="fill:#ce7a63" d="m230.72 234.96 3.87 4.46-3.98 3.54-6.79-4.65 6.9-3.35z"/><path d="m192.59 257 1.25.4 5.58-13.55-1-.63z" style="fill:#6942d9"/><path d="m182.09 239.9-4.29-.9-2.8 4.23 2.46 7.33a85.36 85.36 0 0 0 10.94 5 60.72 60.72 0 0 0-6.31-15.66z" style="opacity:.30000000000000004"/><path style="fill:#ce7a63" d="m242.89 396.72 2.59 15.01 6.79-.63-.78-15.49-8.6 1.11z"/><path style="opacity:.2" d="m244.78 407.7 7.29-.56-.58-11.53-8.6 1.11 1.89 10.98z"/><path d="m252.57 410.16-8.22.56a.52.52 0 0 0-.5.53l.05 6.43a1.29 1.29 0 0 0 1.37 1.19c2.86-.24 4.22-.5 7.83-.77a69 69 0 0 0 9.61-1c3-.69 2.23-3.59.89-3.56a20.34 20.34 0 0 1-9.73-3.09 2 2 0 0 0-1.3-.29z" style="fill:#263238"/><path d="M255.25 411.21a9.28 9.28 0 0 1-2-.12.19.19 0 0 1-.14-.12.23.23 0 0 1 .05-.18c.22-.18 2.2-1.71 3.13-1.43a.63.63 0 0 1 .42.45.87.87 0 0 1-.14.95 2.11 2.11 0 0 1-1.32.45zm1-1.5c-.48-.15-1.66.54-2.47 1.13 1.33.16 2.28.06 2.61-.3a.64.64 0 0 0 .08-.61.37.37 0 0 0-.22-.22z" style="fill:#263238"/><path d="M253.31 411.09a.09.09 0 0 1-.07 0 .23.23 0 0 1-.1-.12c0-.07-.31-2.15.37-2.91a.89.89 0 0 1 .71-.28.68.68 0 0 1 .66.46c.21.78-.78 2.36-1.47 2.83a.11.11 0 0 1-.1.02zm.81-2.94a.47.47 0 0 0-.35.18 3.62 3.62 0 0 0-.32 2.31 3.49 3.49 0 0 0 1.09-2.27c0-.1-.09-.21-.33-.22z" style="fill:#263238"/><path d="M184.22 290.58s-1.09 18 3 18.69 56.72 10.08 60.44 22.08 5.77 69.84 5.77 69.84l-11.35.92s-11.63-55.77-9.47-64.26c0 0-48.19 0-63.24-8.17s-7.81-37.32-7.81-37.32z" style="fill:#6942d9"/><path d="M184.22 290.58s-1.09 18 3 18.69 56.72 10.08 60.44 22.08 5.77 69.84 5.77 69.84l-11.35.92s-11.63-55.77-9.47-64.26c0 0-48.19 0-63.24-8.17s-7.81-37.32-7.81-37.32z" style="fill:#fff;opacity:.6000000000000001"/><path d="M224.27 327.85c-6.13-11.17-47.43-12.34-47.43-12.34L206 336.78c8.83.67 17 .92 21.85 1a48.65 48.65 0 0 0-3.58-9.93z" style="opacity:.2"/><path style="fill:#ce7a63" d="m226.1 400.62 5.01 14.63 6.66-1.48-3.28-15.33-8.39 2.18z"/><path style="opacity:.2" d="m236.68 408.68-2.19-10.24-8.39 2.18 3.36 9.83 7.22-1.77z"/><path d="M173 290.58s-2.11 22 1.95 22.69 42.52 5.08 46.24 17.08 15.91 71.84 15.91 71.84l-11.35 2.92s-23.33-53.76-22.66-67.26c0 0-39 3-54-5.17s-1.81-40.32-1.81-40.32z" style="fill:#6942d9"/><path d="M173 290.58s-2.11 22 1.95 22.69 42.52 5.08 46.24 17.08 15.91 71.84 15.91 71.84l-11.35 2.92s-23.33-53.76-22.66-67.26c0 0-39 3-54-5.17s-1.81-40.32-1.81-40.32z" style="fill:#fff;opacity:.6000000000000001"/><path style="fill:#6942d9" d="m224.19 404.73 1.83 4.28 12.76-3.18-.71-4.63-13.88 3.53z"/><path style="fill:#fff;opacity:.7000000000000001" d="m224.19 404.73 1.83 4.28 12.76-3.18-.71-4.63-13.88 3.53z"/><path style="fill:#6942d9" d="m240.45 401.2 1.14 4.51 13.1-1.2.02-4.67-14.26 1.36z"/><path style="fill:#fff;opacity:.7000000000000001" d="m240.45 401.2 1.14 4.51 13.1-1.2.02-4.67-14.26 1.36z"/><path d="m238.12 411.77-8 1.85a.5.5 0 0 0-.41.59l1.09 6.35a1.28 1.28 0 0 0 1.51 1c2.79-.69 4.06-1.16 7.61-2a67.69 67.69 0 0 0 9.33-2.44c2.86-1.15 1.63-3.89.32-3.65-3.1.55-7.75-.45-10.15-1.54a2 2 0 0 0-1.3-.16z" style="fill:#263238"/><path d="M240.94 412.39a9.32 9.32 0 0 1-2 .18.15.15 0 0 1-.16-.09.15.15 0 0 1 0-.18c.19-.21 1.88-2 2.85-1.91a.64.64 0 0 1 .48.38.87.87 0 0 1 0 1 2 2 0 0 1-1.17.62zm.71-1.63c-.52-.08-1.57.79-2.28 1.5 1.34-.05 2.28-.3 2.53-.7a.58.58 0 0 0 0-.62.28.28 0 0 0-.23-.18z" style="fill:#263238"/><path d="M239 412.57h-.06a.19.19 0 0 1-.12-.11c0-.06-.67-2.08-.12-2.93a.91.91 0 0 1 .65-.39.66.66 0 0 1 .73.36c.34.73-.37 2.45-1 3a.12.12 0 0 1-.08.07zm.32-3a.5.5 0 0 0-.32.23 3.75 3.75 0 0 0 .06 2.34 3.55 3.55 0 0 0 .72-2.41c0-.1-.13-.2-.38-.17zM143.79 269.88c.48 11.64.52 20.23.65 25.07l40.74.1c3.06-39.28-4.49-59.63-4.49-59.63s-1.53-.44-4.11-1c-2-.39-4.56-.82-7.16-1.06a144.1 144.1 0 0 0-16.89 0c-2.94.14-5.95.5-8.34.85-2.89.42-4.9.83-4.9.83.19.8.37 1.59.55 2.39a190.31 190.31 0 0 1 3.95 32.45z" style="fill:#263238"/><path d="m146.64 293.82 7.24-2-2.95 8.89s-6.72.61-6.75-2.88zM159.79 295.57l-2.79 7.22-6.07-2.08 2.95-8.89 5.91 3.75z" style="fill:#ce7a63"/><path d="M143.79 269.89a190.19 190.19 0 0 0-3.95-32.41c2.65-.23 7.19 0 7.94 4.32.82 4.61-.21 15.45-3.99 28.09z" style="opacity:.30000000000000004"/><path d="M146.06 245.78c-.94 2-2 4.31-2.89 6.52s-1.82 4.46-2.66 6.7-1.58 4.5-2.25 6.75a67.63 67.63 0 0 0-1.61 6.73l-.08.41v.21c0 .07 0 0 0 0a.56.56 0 0 0 0 .2 4.17 4.17 0 0 0 .1.95 13.76 13.76 0 0 0 .87 2.74 49.33 49.33 0 0 0 3.16 6.09c2.44 4.08 5.28 8.21 8.12 12.18l-3.95 3.75a84.56 84.56 0 0 1-11-11.15 47.85 47.85 0 0 1-4.67-6.8 23.55 23.55 0 0 1-1.88-4.28 14.58 14.58 0 0 1-.57-2.76 13.09 13.09 0 0 1 0-1.68v-1.2a74.13 74.13 0 0 1 3.46-15.76q1.23-3.77 2.73-7.39c.5-1.21 1-2.41 1.57-3.61s1.09-2.35 1.75-3.63z" style="fill:#ce7a63"/><path d="M147.65 247.76a130.92 130.92 0 0 1-6 14.14c-.5 1-1 2-1.34 2.7-.65 1.31-1.07 2.1-1.07 2.1l-14.12-7.82s.18-.59.5-1.59c.25-.75.57-1.74 1-2.88 2.35-6.7 7.15-18.65 11.86-19.34 6.96-1.02 12.03 4.24 9.17 12.69z" style="fill:#263238"/><path d="M139.94 265.27c-3.07-1.7-11.68-6.46-14.4-7.84l-.46 1.45 14.12 7.82s.28-.53.74-1.43zM152.53 233.4a137.43 137.43 0 0 1 17.51.06l.56.29a2.91 2.91 0 0 1 .87 2.59c-.43 1.68-2.72 2.24-4.74 2.47a10.87 10.87 0 0 1-.16 1.19 1.43 1.43 0 0 1-1.22 1.12 1.41 1.41 0 0 1-1.27-.51 10.38 10.38 0 0 0-1.82-1.63c-9.81-.27-11.28-5.06-11.34-5.27l-.06-.21z" style="fill:#6942d9"/><path d="M165.8 237.89c8.64-.7 2.82-4.56 2.82-4.56-4.91-1.16-5.77-4.19-5.44-7.53a20.37 20.37 0 0 1 .39-2.49l-6.15-5.11-4.52-3.75c1.25 5.45 2.66 15.36-1 19 0 0 1.25 4.38 10.7 4.54z" style="fill:#ce7a63"/><path d="M163.57 223.31a20.37 20.37 0 0 0-.39 2.49c-2.3-.46-5.36-2.91-5.68-5.25a10.15 10.15 0 0 1-.08-2.35z" style="opacity:.2"/><path d="M167.74 195.47c3.67 1.65 5.71 12 1 14.19s-7.93-17.33-1-14.19z" style="fill:#263238"/><path d="M151 206.63c1.57 7.22 2.12 11.52 6.39 14.81a9.61 9.61 0 0 0 15.61-6.91c.56-6.73-2.1-17.42-9.7-19.46a9.73 9.73 0 0 0-12.3 11.56z" style="fill:#ce7a63"/><path d="M142.64 198.66c-3.5 1.56-1.51 6.37.88 9.43 3.31 4.24 6.82 6.23 9.21 4.27 2.15-1.08 3.56-7.39 1.69-11.3 3.3-2.16 14.59 1.55 18.21-7.41 1.62-4-3.07-15-8.35-10.45-3.33 2.87-7.15 9.23-12 8.14-7.47-1.68-13.15 3.16-9.64 7.32z" style="fill:#263238"/><path d="M165.93 199.41a10.34 10.34 0 0 0 7.84-9.8c.75 5.25-3.34 10.5-7.84 9.8zM140.44 192.5a10.37 10.37 0 0 0 7.31 10.21c-5.26-.71-9.2-6.07-7.31-10.21zM162.43 206.54c.09.6.48 1 .87 1s.63-.56.54-1.15-.48-1-.87-1-.63.61-.54 1.15zM169.16 205.74c.09.6.48 1 .87 1s.63-.56.54-1.15-.48-1-.87-1-.63.56-.54 1.15z" style="fill:#263238"/><path d="M167.26 206.89a22.24 22.24 0 0 0 3.63 4.73 3.38 3.38 0 0 1-2.76.87z" style="fill:#ba4d3c"/><path d="M166.74 214.78a5.16 5.16 0 0 1-3.74-1.54.18.18 0 0 1 0-.25.18.18 0 0 1 .25 0 5 5 0 0 0 4.13 1.38.16.16 0 0 1 .19.15.17.17 0 0 1-.15.2 5.58 5.58 0 0 1-.68.06zM160 204.63a.36.36 0 0 1-.31-.52 3.39 3.39 0 0 1 2.63-1.79.36.36 0 0 1 0 .71 2.66 2.66 0 0 0-2 1.42.38.38 0 0 1-.32.18zM171.69 203.1a.36.36 0 0 1-.29-.16 2.94 2.94 0 0 0-2.22-1.34.35.35 0 0 1-.35-.36.35.35 0 0 1 .35-.35 3.62 3.62 0 0 1 2.8 1.66.35.35 0 0 1-.09.49.36.36 0 0 1-.2.06z" style="fill:#263238"/><path style="fill:#6942d9" d="m167.23 206.89 2.09 2.33 4.4-.57.31-3.47-.72-3.07-15.1 2.36-9.91 5.89.57 1.31 9.92-4.04 2.68 2.73 5.56-.81.2-2.66z"/><path style="fill:#fff;opacity:.6000000000000001" d="m158.21 204.47-9.91 5.89.57 1.31 9.92-4.04-.58-3.16z"/><path style="fill:#fff;opacity:.8" d="m167.23 206.89 2.09 2.33 4.4-.57.31-3.47-.72-3.07-15.1 2.36.58 3.16 2.68 2.73 5.56-.81.2-2.66z"/><path d="m161.39 204.84 3.11-.5a1.35 1.35 0 0 1 1.54 1.11l.22 1.26a1.36 1.36 0 0 1-1.12 1.57l-2.95.45a1.35 1.35 0 0 1-1.49-.94l-.38-1.22a1.34 1.34 0 0 1 1.07-1.73z" style="fill:#263238"/><path d="m168.51 203.73 3-.47a1.3 1.3 0 0 1 1.48 1.06l.21 1.21a1.29 1.29 0 0 1-1.08 1.5l-2.83.43a1.29 1.29 0 0 1-1.43-.89l-.36-1.17a1.3 1.3 0 0 1 1.01-1.67z" style="fill:#6942d9"/><path d="M149.37 214.17a7.89 7.89 0 0 0 4.58 2.72c2.28.39 2.79-1.72 1.64-3.76-1.05-1.83-3.49-4.25-5.52-3.71s-2.18 2.97-.7 4.75z" style="fill:#ce7a63"/><path style="fill:#6942d9" d="m174.36 311.57 12.11-2.87 2.2-33.05-14.77 5.59.46 30.33z"/><path style="fill:#6942d9" d="m176.09 311.16-.08-30.72-2.11.8.46 30.33 1.73-.41zM179.55 310.34l.68-31.49-2.11.79-.3 31.11 1.73-.41zM183.01 309.52l1.44-32.27-2.11.8-1.06 31.88 1.73-.41zM186.47 308.7l2.2-33.05-2.11.8-1.82 32.66 1.73-.41z"/><path style="fill:#fff;opacity:.8" d="m176.09 311.16-.08-30.72-2.11.8.46 30.33 1.73-.41zM179.55 310.34l.68-31.49-2.11.79-.3 31.11 1.73-.41zM183.01 309.52l1.44-32.27-2.11.8-1.06 31.88 1.73-.41zM186.47 308.7l2.2-33.05-2.11.8-1.82 32.66 1.73-.41z"/><path style="fill:#6942d9" d="m162.18 309.06 12.18 2.51-.46-30.33-14.92-5.16 3.2 32.98z"/><path style="fill:#fff;opacity:.4" d="m162.18 309.06 12.18 2.51-.46-30.33-14.92-5.16 3.2 32.98z"/><path style="fill:#6942d9" d="m158.98 276.08 14.76-5.59 14.93 5.16-14.77 5.59-14.92-5.16z"/><path style="fill:#fff;opacity:.30000000000000004" d="m158.98 276.08 14.76-5.59 14.93 5.16-14.77 5.59-14.92-5.16z"/><path style="fill:#6942d9" d="m172.62 311.21-.85-30.7 2.13.73.46 30.33-1.74-.36zM169.14 310.49l-1.63-31.46 2.13.74 1.24 31.08-1.74-.36zM165.66 309.78l-2.41-32.22 2.13.73 2.02 31.84-1.74-.35zM162.18 309.06l-3.2-32.98 2.13.74 2.81 32.6-1.74-.36z"/><path d="M166.38 276.11h.11a.94.94 0 0 1-.05-.44c.11-.75 1.08-1.23 2.18-1.07a2.1 2.1 0 0 1 1.73 1.17 2.67 2.67 0 0 1 1.14-.07c1.09.15 1.89.89 1.79 1.64s-1.09 1.23-2.18 1.07v.07c-.08.53-.75.86-1.52.75s-1.31-.62-1.24-1.14a.71.71 0 0 1 .21-.4.79.79 0 0 1-.27-.37 2.38 2.38 0 0 1-.61-.16.22.22 0 0 1 0 .08c-.07.52-.75.86-1.51.75s-1.32-.62-1.24-1.15.7-.84 1.46-.73z" style="fill:#fff"/><path d="M166.31 269.32c.77.11 1.33.63 1.25 1.17a.29.29 0 0 1 0 .1 3.07 3.07 0 0 1 .8 0 3 3 0 0 1 .77.22.41.41 0 0 1 0-.11c.08-.54.76-.88 1.54-.77s1.33.63 1.25 1.17-.76.88-1.53.77a.66.66 0 0 1-.15 0 1.13 1.13 0 0 1 .07.57 1.73 1.73 0 0 1-1.78 1.22.54.54 0 0 1 0 .22c-.07.54-.76.89-1.53.78s-1.34-.64-1.26-1.18a.91.91 0 0 1 .58-.66 1.28 1.28 0 0 1-.34-1 1.11 1.11 0 0 1 .23-.52H166c-.77-.11-1.34-.64-1.26-1.18s.8-.91 1.57-.8zM172.25 274.42a1.13 1.13 0 0 1-.23-.81c.12-.85 1.33-1.38 2.69-1.18s2.38 1 2.26 1.88a.45.45 0 0 1 0 .11 3.49 3.49 0 0 1 .91 0c1.36.19 2.38 1 2.25 1.88s-1.32 1.38-2.69 1.18a3.5 3.5 0 0 1-1.55-.6 2.59 2.59 0 0 1-1.84.36c-1.13-.16-2-.87-1.87-1.57-.57-.08-1-.43-.94-.78s.48-.52 1.01-.47zM187.51 274.26a.83.83 0 0 0 .2-.59c-.06-.63-.93-1.06-1.94-1s-1.77.72-1.77 1.33v.08a3 3 0 0 0-.67 0c-1 .1-1.78.68-1.72 1.31s.93 1.06 1.94 1a2.49 2.49 0 0 0 1.16-.39 1.91 1.91 0 0 0 1.34.33c.84-.08 1.49-.57 1.44-1.09.42 0 .74-.28.71-.54s-.29-.46-.69-.44zM165.07 275.88a.62.62 0 0 1 .06.44c-.14.43-.81.61-1.51.39s-1.16-.74-1-1.17v-.05a2 2 0 0 1-.47-.09c-.7-.22-1.16-.74-1-1.17s.81-.61 1.51-.4a1.77 1.77 0 0 1 .76.45 1.37 1.37 0 0 1 1 0c.58.18 1 .62.85 1 .29.09.48.31.43.49s-.35.23-.63.11z" style="fill:#fff"/><path d="M182.89 270.82a.79.79 0 0 0-.09-.57c-.33-.49-1.23-.46-2 .06s-1.17 1.33-.85 1.82l.06.05a2.66 2.66 0 0 0-.56.28c-.79.52-1.16 1.33-.84 1.82s1.22.46 2-.06a2.41 2.41 0 0 0 .78-.82 1.75 1.75 0 0 0 1.24-.31c.65-.44 1-1.11.7-1.52.33-.21.48-.55.35-.75s-.47-.19-.79 0zM178.91 278.61a.79.79 0 0 0 .24-.52c0-.58-.74-1.07-1.68-1.09s-1.72.43-1.73 1a.11.11 0 0 0 0 .08 2.44 2.44 0 0 0-.62-.09c-.94 0-1.72.43-1.73 1s.74 1.07 1.69 1.09a2.39 2.39 0 0 0 1.11-.23 1.73 1.73 0 0 0 1.19.45c.79 0 1.43-.37 1.44-.85.39 0 .72-.18.72-.42s-.27-.39-.63-.42zM178.2 271.68a1 1 0 0 1 .05.71c-.25.68-1.34.9-2.43.5s-1.78-1.28-1.53-1.95v-.08a3 3 0 0 1-.74-.18c-1.09-.4-1.78-1.27-1.53-1.95s1.34-.89 2.43-.49a2.94 2.94 0 0 1 1.17.76 2.16 2.16 0 0 1 1.58 0c.91.33 1.47 1.06 1.27 1.62.45.16.74.53.63.81s-.47.38-.9.25z" style="fill:#fff"/></g></svg>