<svg xmlns="http://www.w3.org/2000/svg" viewBox="0 0 500 500"><path d="M478.52 236.34c6.13-53.85-12.08-107.93-50.3-146.36-18.8-18.89-44.5-36.69-78.65-45.29-95.78-24.12-157.85-2-188.88 56.66S40.61 149.92 26.44 251.11 81.09 463.6 197.79 469.67s101.68-52 165.51-76.94c48.83-19.06 106.08-76.02 115.22-156.39z" style="fill:#ecb9d8"/><path d="M478.52 236.34c6.13-53.85-12.08-107.93-50.3-146.36-18.8-18.89-44.5-36.69-78.65-45.29-95.78-24.12-157.85-2-188.88 56.66S40.61 149.92 26.44 251.11 81.09 463.6 197.79 469.67s101.68-52 165.51-76.94c48.83-19.06 106.08-76.02 115.22-156.39z" style="fill:#fff;opacity:.7000000000000001"/><path d="M95.32 245.9a.15.15 0 0 0-.08-.18.13.13 0 0 0-.17.07 179.41 179.41 0 0 0-9.43 29.54 275.09 275.09 0 0 0-5.19 30.61l-.74 7.74c-.11 1.29-.25 2.58-.35 3.87l-.21 3.89c-.11 2.58-.27 5.17-.34 7.77l.07 7.77.09 3.89c0 1.29.15 2.59.23 3.88.2 2.59.36 5.17.59 7.75.5 5.15 1.27 10.28 2.07 15.39a.14.14 0 0 0 .14.11.13.13 0 0 0 .13-.13c0-2.59-.12-5.17-.18-7.75s-.3-5.14-.26-7.72-.06-5.15-.09-7.72l-.07-3.86.07-3.85v-7.71l.21-7.7.08-3.85c0-1.29.14-2.57.21-3.85l.47-7.7A275.61 275.61 0 0 1 87 275.62a179.16 179.16 0 0 1 8.32-29.72zM96.43 286.2a.14.14 0 0 0-.09-.17.13.13 0 0 0-.17.08 183.94 183.94 0 0 0-5.49 19.58 181.45 181.45 0 0 0-3.23 20.11c-.69 6.74-1.44 13.49-1.54 20.28a168.49 168.49 0 0 0 .73 20.33.13.13 0 0 0 .12.12.14.14 0 0 0 .15-.12c.78-6.75 1.26-13.49 1.73-20.22s.54-13.48 1-20.21a201.26 201.26 0 0 1 6.81-39.78zM118.77 300.38a.14.14 0 0 0-.19-.05 68.19 68.19 0 0 0-14.94 13 60.36 60.36 0 0 0-5.84 8.12l-1.2 2.26-.94 2.36a23.08 23.08 0 0 0-.82 2.38c-.24.8-.51 1.6-.73 2.41A97.22 97.22 0 0 0 91 350.6a113.42 113.42 0 0 0 .75 19.84.12.12 0 0 0 .12.12.14.14 0 0 0 .15-.12l1.7-19.65c.68-6.5 1.09-13 2.49-19.37.18-.79.4-1.57.6-2.35a22 22 0 0 1 .69-2.31l.8-2.27 1-2.15a57.48 57.48 0 0 1 5.35-8.12 67.51 67.51 0 0 1 14-13.66.13.13 0 0 0 .12-.18z" style="fill:#263238"/><path d="M108 325.62c-3 2-5.09 5.05-6.8 8.16a48.45 48.45 0 0 0-3.8 10c-.27.85-.48 1.72-.67 2.59l-.65 2.63a43.27 43.27 0 0 0-.66 5.31c0 1.78-.08 3.56 0 5.34a47.46 47.46 0 0 0 .7 5.3.17.17 0 0 0 .11.11.13.13 0 0 0 .16-.11 46.25 46.25 0 0 0 .95-5.22c.27-1.73.54-3.45.75-5.17s.48-3.42.61-5.15.37-3.44.74-5.12a46.61 46.61 0 0 1 2.91-9.91 22 22 0 0 1 5.7-8.52.12.12 0 0 0 0-.17.12.12 0 0 0-.05-.07zM76.63 345.3c-.74-8.73-2.18-17.36-3.54-26s-2.86-17.24-4.44-25.83-3.35-17.14-5.2-25.67a.13.13 0 1 0-.26.05c1.49 8.6 2.84 17.22 4.11 25.85s2.55 17.26 3.64 25.91 1.89 17.32 3 26l3.19 26a.13.13 0 0 0 .13.12.13.13 0 0 0 .14-.13c.1-2.18.1-4.37.16-6.56s-.09-4.38-.13-6.57c-.1-4.47-.43-8.81-.8-13.17zM71.4 345.17c-.47-3.45-1.11-6.89-1.76-10.31l-1.23-5.09c-.4-1.7-.78-3.4-1.28-5.08a143.88 143.88 0 0 0-6.66-19.83l-1-2.4-1.16-2.35c-.74-1.58-1.63-3.09-2.48-4.61a39.14 39.14 0 0 0-6.3-8.35.13.13 0 0 0-.18 0 .14.14 0 0 0 0 .2 38.19 38.19 0 0 1 5.75 8.54c.76 1.55 1.56 3.07 2.21 4.67l1 2.38.91 2.42A143.62 143.62 0 0 1 65 325.21c.79 3.35 1.32 6.77 2 10.16l.81 5.11c.3 1.7.66 3.39.9 5.1.55 3.41 1.17 6.81 1.77 10.22s1.15 6.84 1.87 10.25a.15.15 0 0 0 .14.12.14.14 0 0 0 .14-.14c0-3.48-.07-7-.25-10.45s-.62-6.94-.98-10.41zM64.18 345.61c-1.62-4.57-3.49-9.05-5.52-13.44a121.61 121.61 0 0 0-6.95-12.74.15.15 0 0 0-.19 0 .14.14 0 0 0 0 .19 119 119 0 0 1 5.93 13.13c1.77 4.46 3.36 9 4.7 13.58s2.34 9.28 3.56 13.89 2.33 9.27 3.74 13.94a.14.14 0 0 0 .13.1.13.13 0 0 0 .14-.13 69.94 69.94 0 0 0-1.35-14.51 91.85 91.85 0 0 0-4.19-14.01zM63.88 360.86a31.36 31.36 0 0 0-3.88-8.05 33.44 33.44 0 0 0-5.59-6.95 27.08 27.08 0 0 0-3.55-2.68 14.64 14.64 0 0 0-4-1.82.12.12 0 0 0-.16.08.13.13 0 0 0 .07.17 20 20 0 0 1 6.69 5.2 31.81 31.81 0 0 1 4.66 7.05c1.32 2.51 2 5.28 3.16 7.86.51 1.32 1 2.65 1.6 4a33.65 33.65 0 0 0 1.75 4 .12.12 0 0 0 .11.07.13.13 0 0 0 .15-.13 33.2 33.2 0 0 0-.17-4.46c-.18-1.44-.49-2.9-.84-4.34z" style="fill:#263238"/><path d="M64.42 280.29S50.13 277 46.83 261.61s7.33-8.8-2.2-33-7.33-29.69-4-36.65 5.13-4.76 8.06 4.4 13.56 23.45 17.59 50.2-1.86 33.73-1.86 33.73zM92.63 254.28S83.11 251 82.74 233s7-14.29 8.06-36.64 2.57-38.11 6.6-38.48 14.66 11 18.32 35.91-4.76 41.41-12.09 48.74-11 11.75-11 11.75zM59.29 301.91s-2.2-13.19-6.6-19.42-13.92-11.72-20.15-23.82-13.19-18-12.83-.73 8.06 26 17.59 31.88 21.99 12.09 21.99 12.09zM55.26 324.63s-8.8-16.85-21.62-29.31-23.09-18.69-19.42-12.46 8.06 5.86 14.29 16.86 4.39 19 13.19 25.28 13.56-.37 13.56-.37zM54.16 346.25c-.37-1.1-.73-9.16-13.19-15.75s-24.19-4-22.72-.74 9.16 8.8 16.85 12.1 19.06 4.39 19.06 4.39zM91.9 302.65s-5.5-7-2.56-21.62 9.52-11 16.85-18.69 5.87-8.8 13.19-16.86 13.93-12.46 16.86-9.16-1.46 13.56-5.86 19.42-11.36 8.8-14.66 16.13-1.83 19.05-10.26 24.55-13.56 6.23-13.56 6.23zM110.22 306.68s13.2-15 22.72-26 13.19-19.42 13.56-12.09 3.3 13.19-4.4 22.72-31.88 15.37-31.88 15.37zM103.26 330.86s-.37-5.86 20.52-19.42 29.68-16.12 27.49-10.62-11.36 11-21.26 20.88-26.75 9.16-26.75 9.16z" style="fill:#ecb9d8"/><path d="M65.29 278.73s-4.9-26.28-10-45-8.43-30-8.43-30M91.79 254.55s8.91-28.49 11.84-45.71-.37-30.05-1.83-37.74M58.13 301.36a137.92 137.92 0 0 0-13.5-19.23c-8.06-9.53-14.29-14.66-18-23.82M91.9 302.65s2.93-17.59 9.9-26.75 20.88-23.45 26.38-32.62M53.3 345.85s-12.33-8-21.13-12.42" style="fill:none;stroke:#263238;stroke-linecap:round;stroke-linejoin:round"/><path d="M109 374.23c.57-6.2 0-11.41-2.44-14.42-8.08-9.84-42.86-9.84-50.94 0-2.46 3-3 8.22-2.43 14.42z" style="fill:#263238;stroke:#263238;stroke-linecap:round;stroke-linejoin:round"/><g><path style="fill:none;stroke:#263238;stroke-linecap:round;stroke-linejoin:round" d="M16.05 374.45h466.29"/></g><g><path d="M448 189.34c0 3.45 2.49 6.23 5.58 6.23a5.16 5.16 0 0 0 2.9-.9 4.44 4.44 0 0 1 3.9-.66 4 4 0 0 1 2.14 1.54l.76 1.16v14.8h-14.83l-1.16-.77a4 4 0 0 1-1.55-2.13 4.41 4.41 0 0 1 .67-3.9 5.18 5.18 0 0 0 .9-2.9c0-3.1-2.78-5.59-6.23-5.59s-6.26 2.49-6.26 5.59a5.19 5.19 0 0 0 .91 2.9 4.52 4.52 0 0 1 .66 3.88 4.07 4.07 0 0 1-1.57 2.15l-1.15.77h-14.8v-14.8l-.76-1.16A4 4 0 0 0 416 194a4.44 4.44 0 0 0-3.9.66 5.16 5.16 0 0 1-2.9.9c-3.1 0-5.59-2.78-5.59-6.23s2.49-6.25 5.59-6.25a5.16 5.16 0 0 1 2.9.9 4.53 4.53 0 0 0 3.88.67 4.2 4.2 0 0 0 2.16-1.57l.76-1.16v-14.8h14.78l1.17-.76a4.16 4.16 0 0 0 1.57-2.16 4.58 4.58 0 0 0-.66-3.9 5.05 5.05 0 0 1-.91-2.88c0-3.09 2.79-5.6 6.24-5.6s6.25 2.51 6.25 5.6a5 5 0 0 1-.9 2.9 4.36 4.36 0 0 0-.67 3.9 4.05 4.05 0 0 0 1.55 2.14l1.16.76h14.79v14.8l-.76 1.16a4.16 4.16 0 0 1-2.16 1.57 4.53 4.53 0 0 1-3.88-.67 5.16 5.16 0 0 0-2.9-.9c-3.12.01-5.57 2.79-5.57 6.26zM101 124.53c0 3.45-2.49 6.23-5.59 6.23a5.16 5.16 0 0 1-2.9-.9 4.44 4.44 0 0 0-3.9-.66 3.91 3.91 0 0 0-2.13 1.55l-.77 1.15v14.8H70.94l-1.15-.76a4.09 4.09 0 0 1-1.57-2.16 4.52 4.52 0 0 1 .66-3.88 5.16 5.16 0 0 0 .91-2.9c0-3.1-2.79-5.59-6.24-5.59S57.3 133.9 57.3 137a5.16 5.16 0 0 0 .9 2.9 4.48 4.48 0 0 1 .69 3.9 4.11 4.11 0 0 1-1.57 2.14l-1.16.76H41.37v-14.8l-.77-1.15a3.91 3.91 0 0 0-2.13-1.55 4.43 4.43 0 0 0-3.9.66 5.21 5.21 0 0 1-2.91.9c-3.09 0-5.58-2.78-5.58-6.23s2.49-6.25 5.58-6.25a5.21 5.21 0 0 1 2.91.9 4.48 4.48 0 0 0 3.88.67 4.17 4.17 0 0 0 2.15-1.57l.77-1.16v-14.79h14.79l1.16-.77a4 4 0 0 0 1.57-2.14 4.56 4.56 0 0 0-.69-3.9 5.16 5.16 0 0 1-.9-2.9c0-3.09 2.78-5.6 6.23-5.6s6.26 2.51 6.26 5.6a4.91 4.91 0 0 1-.91 2.88 4.44 4.44 0 0 0-.66 3.9 4.05 4.05 0 0 0 1.57 2.16l1.15.77h14.8v14.79l.77 1.16a4.17 4.17 0 0 0 2.15 1.57 4.49 4.49 0 0 0 3.88-.67 5.16 5.16 0 0 1 2.9-.9c3.1 0 5.56 2.78 5.56 6.25zM167.31 86.63c0 3.45-2.51 6.24-5.59 6.24a5.18 5.18 0 0 1-2.9-.9 4.41 4.41 0 0 0-3.9-.67 3.91 3.91 0 0 0-2.13 1.55L152 94v14.8h-14.8l-1.17-.76a4.14 4.14 0 0 1-1.55-2.14 4.45 4.45 0 0 1 .68-3.9 5.16 5.16 0 0 0 .91-2.9c0-3.1-2.81-5.59-6.26-5.59s-6.25 2.49-6.25 5.59a5.16 5.16 0 0 0 .9 2.9 4.44 4.44 0 0 1 .69 3.88 4.2 4.2 0 0 1-1.55 2.12l-1.18.76h-14.77V94l-.79-1.15a3.94 3.94 0 0 0-2.11-1.55 4.39 4.39 0 0 0-3.9.67 5.34 5.34 0 0 1-2.91.9c-3.09 0-5.6-2.79-5.6-6.24s2.51-6.25 5.6-6.25a5.23 5.23 0 0 1 2.89.9 4.49 4.49 0 0 0 3.88.67 3.92 3.92 0 0 0 2.15-1.57l.79-1.15v-14.8h14.77l1.18-.77a4.17 4.17 0 0 0 1.57-2.15 4.48 4.48 0 0 0-.69-3.9 5.09 5.09 0 0 1-.9-2.88c0-3.1 2.8-5.61 6.25-5.61s6.26 2.51 6.26 5.61a5.21 5.21 0 0 1-.91 2.9 4.44 4.44 0 0 0-.68 3.9 4 4 0 0 0 1.57 2.13l1.15.77H152v14.8l.77 1.15a4 4 0 0 0 2.17 1.62 4.49 4.49 0 0 0 3.88-.67 5.23 5.23 0 0 1 2.9-.9c3.08-.05 5.59 2.74 5.59 6.2zM142.08 204.9c0 3.45 2.51 6.23 5.61 6.23a5.14 5.14 0 0 0 2.88-.9 4.52 4.52 0 0 1 3.9-.67 4.07 4.07 0 0 1 2.15 1.57l.77 1.16v14.79h-14.8l-1.16-.76a4.17 4.17 0 0 1-1.57-2.14 4.46 4.46 0 0 1 .69-3.9 5.16 5.16 0 0 0 .9-2.9c0-3.1-2.8-5.6-6.25-5.6s-6.23 2.5-6.23 5.6a5.05 5.05 0 0 0 .9 2.9 4.49 4.49 0 0 1 .66 3.88 4.24 4.24 0 0 1-1.56 2.16l-1.16.76H113v-14.79l.77-1.16a4.07 4.07 0 0 1 2.15-1.57 4.48 4.48 0 0 1 3.88.67 5.2 5.2 0 0 0 2.9.9c3.1 0 5.59-2.78 5.59-6.23s-2.49-6.26-5.59-6.26a5.21 5.21 0 0 0-2.9.91 4.51 4.51 0 0 1-3.9.68 4 4 0 0 1-2.13-1.57l-.77-1.15v-14.8h14.8l1.16-.77a4.21 4.21 0 0 0 1.56-2.15 4.48 4.48 0 0 0-.66-3.88 5 5 0 0 1-.9-2.9c0-3.1 2.78-5.59 6.23-5.59s6.25 2.49 6.25 5.59a5.18 5.18 0 0 1-.9 2.9 4.45 4.45 0 0 0-.69 3.9 4.15 4.15 0 0 0 1.57 2.13l1.16.77h14.8v14.8l-.77 1.15a4.2 4.2 0 0 1-2.13 1.57 4.48 4.48 0 0 1-3.9-.68 5.21 5.21 0 0 0-2.9-.91c-3.09 0-5.6 2.79-5.6 6.26zM392.92 65.46c0 3.45-2.51 6.24-5.59 6.24a5.16 5.16 0 0 1-2.9-.91 4.52 4.52 0 0 0-3.88-.66 4 4 0 0 0-2.16 1.57l-.76 1.15v14.8h-14.8l-1.17-.76a4.14 4.14 0 0 1-1.55-2.14 4.45 4.45 0 0 1 .68-3.9 5.16 5.16 0 0 0 .91-2.9c0-3.1-2.81-5.61-6.26-5.61s-6.25 2.51-6.25 5.61a5.2 5.2 0 0 0 .9 2.9 4.44 4.44 0 0 1 .69 3.88 4.26 4.26 0 0 1-1.57 2.16l-1.18.76h-14.77V43.28H348l1.18-.77a4.23 4.23 0 0 0 1.57-2.15 4.45 4.45 0 0 0-.69-3.89 5.16 5.16 0 0 1-.9-2.9c0-3.09 2.8-5.58 6.25-5.58s6.26 2.49 6.26 5.58a5.16 5.16 0 0 1-.91 2.9 4.47 4.47 0 0 0-.68 3.91 4.12 4.12 0 0 0 1.55 2.13l1.17.77h14.8v14.79l.76 1.16a4.12 4.12 0 0 0 2.14 1.57 4.49 4.49 0 0 0 3.9-.69 5.11 5.11 0 0 1 2.9-.9c3.11 0 5.62 2.79 5.62 6.25zM362.84 165.42c0 3.45 2.49 6.25 5.59 6.25a5.16 5.16 0 0 0 2.9-.9 4.43 4.43 0 0 1 3.9-.69 4.07 4.07 0 0 1 2.14 1.57l.76 1.16v14.79h-14.8l-1.15-.76a4.09 4.09 0 0 1-1.55-2.14 4.43 4.43 0 0 1 .66-3.9 5.16 5.16 0 0 0 .91-2.9c0-3.1-2.79-5.6-6.24-5.6s-6.25 2.5-6.25 5.6a5.09 5.09 0 0 0 .9 2.88 4.55 4.55 0 0 1 .67 3.9 4.09 4.09 0 0 1-1.57 2.16l-1.16.76h-14.79v-14.79l-.77-1.16a4 4 0 0 0-2.13-1.57 4.41 4.41 0 0 0-3.9.69 5.21 5.21 0 0 1-2.91.9c-3.09 0-5.58-2.8-5.58-6.25s2.49-6.24 5.58-6.24a5.13 5.13 0 0 1 2.91.9 4.48 4.48 0 0 0 3.88.67 4.17 4.17 0 0 0 2.15-1.57l.77-1.15v-14.8h14.79l1.16-.77a4.07 4.07 0 0 0 1.57-2.15 4.49 4.49 0 0 0-.67-3.88 5.2 5.2 0 0 1-.9-2.9c0-3.1 2.78-5.61 6.25-5.61s6.24 2.51 6.24 5.61a5.19 5.19 0 0 1-.91 2.9 4.43 4.43 0 0 0-.66 3.9 3.91 3.91 0 0 0 1.55 2.13l1.15.77h14.8V158l-.76 1.15a4.2 4.2 0 0 1-2.16 1.57 4.49 4.49 0 0 1-3.88-.67 5.08 5.08 0 0 0-2.9-.9c-3.1.03-5.59 2.85-5.59 6.27zM453.89 64.61c0 3.45-2.51 6.25-5.59 6.25a5.16 5.16 0 0 1-2.9-.9 4.43 4.43 0 0 0-3.88-.67 4.07 4.07 0 0 0-2.16 1.57L438.6 72v14.81h-14.8l-1.16-.81a3.94 3.94 0 0 1-1.56-2.16 4.47 4.47 0 0 1 .66-3.88 5.09 5.09 0 0 0 .9-2.88c0-3.09-2.8-5.6-6.25-5.6s-6.23 2.51-6.23 5.6a5.05 5.05 0 0 0 .9 2.9 4.43 4.43 0 0 1 .67 3.9 4 4 0 0 1-1.55 2.12l-1.16.78h-14.8V72l.77-1.16a4.12 4.12 0 0 1 2.15-1.57A4.44 4.44 0 0 1 401 70a5.16 5.16 0 0 0 2.9.9c3.07 0 5.58-2.8 5.58-6.25s-2.51-6.24-5.58-6.24a5 5 0 0 0-2.9.91 4.46 4.46 0 0 1-3.91.66 3.91 3.91 0 0 1-2.09-1.59l-.77-1.15v-14.8H409l1.16-.76a4.2 4.2 0 0 0 1.55-2.14 4.44 4.44 0 0 0-.67-3.9 5 5 0 0 1-.9-2.9c0-3.1 2.78-5.61 6.23-5.61s6.25 2.51 6.25 5.61a5.09 5.09 0 0 1-.9 2.88 4.51 4.51 0 0 0-.66 3.9 4.13 4.13 0 0 0 1.56 2.16l1.16.76h14.8v14.8l.76 1.15a3.94 3.94 0 0 0 2.14 1.55 4.44 4.44 0 0 0 3.9-.66 5 5 0 0 1 2.9-.91c3.1 0 5.61 2.79 5.61 6.24zM438.76 338.4c-3.45 0-6.25-2.51-6.25-5.61a5.2 5.2 0 0 1 .9-2.9 4.42 4.42 0 0 0 .66-3.88 4.13 4.13 0 0 0-1.56-2.16l-1.16-.76h-14.8v-14.8l.79-1.16a4 4 0 0 1 2.11-1.54 4.41 4.41 0 0 1 3.9.66 5.25 5.25 0 0 0 2.9.9c3.1 0 5.61-2.78 5.61-6.23s-2.51-6.25-5.61-6.25a5.14 5.14 0 0 0-2.88.9 4.53 4.53 0 0 1-3.88.67 4 4 0 0 1-2.15-1.57l-.79-1.16v-14.8h14.8l1.16-.76a4.2 4.2 0 0 0 1.56-2.16 4.42 4.42 0 0 0-.66-3.88 5.16 5.16 0 0 1-.9-2.9c0-3.09 2.78-5.58 6.23-5.58S445 265.92 445 269a5 5 0 0 1-.92 2.9 4.45 4.45 0 0 0-.67 3.9A4.27 4.27 0 0 0 445 278l1.16.76h14.8v14.8l.76 1.16a4.2 4.2 0 0 0 2.16 1.57 4.58 4.58 0 0 0 3.9-.67 5.09 5.09 0 0 1 2.88-.9c3.1 0 5.6 2.78 5.6 6.25s-2.5 6.23-5.6 6.23a5.16 5.16 0 0 1-2.9-.9 4.43 4.43 0 0 0-3.9-.66 4.12 4.12 0 0 0-2.14 1.54l-.76 1.16v14.8h-14.8l-1.16.76a4 4 0 0 0-1.55 2.14 4.45 4.45 0 0 0 .67 3.9 5 5 0 0 1 .9 2.9c-.02 3.05-2.81 5.56-6.26 5.56z" style="fill:none;stroke:#000;stroke-linecap:round;stroke-linejoin:round;opacity:.30000000000000004"/></g><g><path d="M190.44 386.86a.55.55 0 0 0 0 .17.59.59 0 0 0 0 .14.43.43 0 0 0 0 .05.52.52 0 0 0 .06.13.47.47 0 0 0 .09.12 1.3 1.3 0 0 0 .36.27l.22.1.26.09.36.08h1.55c.12 0 .24 0 .35-.06l.33-.07.3-.07.3-.05h.38a3.53 3.53 0 0 1 .8 0 2 2 0 0 1 .9.3l.29.23-.85 2.94h-20.7l3.45-8.54h19.71l-.79 2.75-.41.22a3.35 3.35 0 0 1-1.06.3 4.18 4.18 0 0 1-1.72-.13 4.27 4.27 0 0 0-1.26-.17c-1.36.01-2.7.54-2.92 1.2z" style="fill:#ecb9d8;stroke:#263238;stroke-linecap:round;stroke-linejoin:round"/><path d="M190.58 394.52a4.23 4.23 0 0 1 1.32.19 4.22 4.22 0 0 0 1.81.14 3.46 3.46 0 0 0 1.12-.33l.43-.24.88-3h-6.9l-.49-.16a.9.9 0 0 1-.59-.43c-.12-.26.14-.55.57-.78a1.11 1.11 0 0 0 .61-.57c.2-.61-.92-1.1-2.5-1.1s-3 .49-3.26 1.1a.48.48 0 0 0 .2.57c.29.23.35.52 0 .78a2 2 0 0 1-.87.43l-.61.16h-6.9l-3.81 9.44h7.26l.64-.18a2.2 2.2 0 0 0 .93-.47.51.51 0 0 0 0-.86.58.58 0 0 1-.21-.64c.24-.68 1.79-1.22 3.46-1.22s2.82.54 2.6 1.22a1.24 1.24 0 0 1-.65.63c-.46.26-.73.57-.61.86a.94.94 0 0 0 .61.48l.51.18h7.26l.94-3.26-.29-.25a1.89 1.89 0 0 0-.93-.33 4.63 4.63 0 0 0-1.92.14 5.72 5.72 0 0 1-1.46.19c-1.49 0-2.5-.59-2.25-1.33s1.63-1.36 3.1-1.36z" style="fill:#ecb9d8;stroke:#263238;stroke-linecap:round;stroke-linejoin:round"/><path d="M208.73 395.84c-.16.74.91 1.33 2.4 1.33a5.45 5.45 0 0 0 1.44-.19 4.52 4.52 0 0 1 1.9-.14 2.11 2.11 0 0 1 1 .33l.33.25-.57 3.26h-7.26l-.53-.18a1 1 0 0 1-.66-.47c-.16-.29.08-.61.51-.86a1.12 1.12 0 0 0 .58-.64c.14-.68-1.08-1.22-2.75-1.22s-3.14.54-3.31 1.22a.63.63 0 0 0 .28.64c.31.25.4.56.12.85a2 2 0 0 1-.89.48l-.61.18h-7.27l.94-3.26-.29-.25a1.89 1.89 0 0 0-.93-.33 4.63 4.63 0 0 0-1.92.14 5.72 5.72 0 0 1-1.46.19c-1.49 0-2.5-.59-2.25-1.33s1.61-1.32 3.08-1.32a4.23 4.23 0 0 1 1.32.19 4.22 4.22 0 0 0 1.81.14 3.46 3.46 0 0 0 1.12-.33l.43-.24.88-3H203l.59-.16a1.86 1.86 0 0 0 .83-.43c.27-.26.18-.55-.11-.78a.54.54 0 0 1-.28-.57c.15-.61 1.55-1.1 3.13-1.1s2.76.49 2.63 1.1a1 1 0 0 1-.54.57c-.41.23-.64.52-.48.78a1 1 0 0 0 .63.43l.5.16h6.91l-.53 3-.41.24a3.06 3.06 0 0 1-1.08.33 4.32 4.32 0 0 1-1.82-.14 4.51 4.51 0 0 0-1.34-.19c-1.44 0-2.75.59-2.9 1.32zM230.83 386.86c-.07.67 1 1.22 2.44 1.22a5 5 0 0 0 1.34-.18 4.44 4.44 0 0 1 1.79-.13 2.47 2.47 0 0 1 1 .3l.34.23-.17 2.94h-6.9l-.52-.16a1.19 1.19 0 0 1-.69-.43c-.18-.26 0-.55.39-.78a.79.79 0 0 0 .47-.57c.06-.61-1.17-1.1-2.75-1.1s-2.93.49-3 1.1a.62.62 0 0 0 .35.57c.32.23.45.52.21.78a1.54 1.54 0 0 1-.78.43l-.56.16h-6.9l.51-2.94.38-.23a3.07 3.07 0 0 1 1-.3 4.28 4.28 0 0 1 1.77.13 4.51 4.51 0 0 0 1.29.18c1.41 0 2.64-.55 2.73-1.22s-1-1.19-2.38-1.19a5.1 5.1 0 0 0-1.33.17 4.68 4.68 0 0 1-1.79.13 2.2 2.2 0 0 1-.92-.3l-.3-.22.47-2.75H238l-.16 2.75-.37.22a2.64 2.64 0 0 1-1 .3 4.39 4.39 0 0 1-1.75-.13 4.66 4.66 0 0 0-1.3-.17c-1.35 0-2.53.53-2.59 1.19z" style="fill:#ecb9d8;stroke:#263238;stroke-linecap:round;stroke-linejoin:round"/><path d="M244.58 395.84c0 .74-1.22 1.33-2.71 1.33a4.92 4.92 0 0 1-1.39-.19 4.31 4.31 0 0 0-1.87-.14 2.55 2.55 0 0 0-1.05.33l-.38.25-.19 3.26h-7.27l-.55-.18a1.27 1.27 0 0 1-.72-.48c-.18-.29 0-.6.42-.85a1 1 0 0 0 .5-.64c.07-.68-1.22-1.22-2.89-1.22s-3.08.54-3.17 1.22a.71.71 0 0 0 .35.64c.35.25.48.57.23.86a1.7 1.7 0 0 1-.83.47l-.59.18h-7.27l.57-3.26-.33-.25a2.11 2.11 0 0 0-1-.33 4.52 4.52 0 0 0-1.9.14 5.45 5.45 0 0 1-1.44.19c-1.49 0-2.56-.59-2.4-1.33s1.46-1.32 2.93-1.32a4.51 4.51 0 0 1 1.34.19 4.32 4.32 0 0 0 1.82.14 3.06 3.06 0 0 0 1.08-.33l.41-.24.53-3h6.9l.56-.16a1.54 1.54 0 0 0 .78-.43c.24-.26.11-.55-.21-.78a.62.62 0 0 1-.35-.57c.08-.61 1.42-1.1 3-1.1s2.81.49 2.75 1.1a.79.79 0 0 1-.47.57c-.39.23-.57.52-.39.78a1.19 1.19 0 0 0 .69.43l.52.16h6.9l-.17 3 .35.24a2.49 2.49 0 0 0 1 .33 4.59 4.59 0 0 0 1.86-.14 4.9 4.9 0 0 1 1.38-.19c1.51 0 2.69.59 2.67 1.32zM224.56 386.86c-.09.67-1.32 1.22-2.73 1.22a4.51 4.51 0 0 1-1.29-.18 4.28 4.28 0 0 0-1.77-.13 3.07 3.07 0 0 0-1 .3l-.38.23-.51 2.94h-6.91l-.5-.16a1 1 0 0 1-.63-.43c-.16-.26.07-.55.48-.78a1 1 0 0 0 .54-.57c.13-.61-1-1.1-2.63-1.1s-3 .49-3.13 1.1a.54.54 0 0 0 .28.57c.29.23.38.52.11.78a1.86 1.86 0 0 1-.83.43l-.59.16h-6.89l.85-2.94-.29-.23a2 2 0 0 0-.9-.3 3.53 3.53 0 0 0-.8 0h-.41l-.3.05-.3.07-.33.07c-.11 0-.23 0-.35.06h-1.52l-.36-.08-.26-.09-.22-.1a1.3 1.3 0 0 1-.36-.27.47.47 0 0 1-.09-.12.52.52 0 0 1-.06-.13.43.43 0 0 1 0-.05.59.59 0 0 1 0-.14.55.55 0 0 1 0-.17c.22-.66 1.52-1.19 2.92-1.19a4.27 4.27 0 0 1 1.26.17 4.18 4.18 0 0 0 1.72.13 3.35 3.35 0 0 0 1.06-.3l.41-.22.79-2.75h19.71l-.47 2.75.3.22a2.2 2.2 0 0 0 .92.3 4.68 4.68 0 0 0 1.79-.13 5.1 5.1 0 0 1 1.33-.17c1.36-.01 2.43.52 2.34 1.18z" style="fill:#ecb9d8;stroke:#263238;stroke-linecap:round;stroke-linejoin:round"/><path d="M192.61 388.07h.39-.36a4.41 4.41 0 0 1-.52 0zM194 387.9l.3-.07-.3.07-.33.07zM251.17 395.84c0 .74 1.24 1.33 2.73 1.33a4.92 4.92 0 0 0 1.39-.19 4.27 4.27 0 0 1 1.87-.14 2.71 2.71 0 0 1 1 .33l.38.25.19 3.26h-7.27l-.57-.18a1.49 1.49 0 0 1-.78-.47c-.22-.29 0-.61.33-.86a.84.84 0 0 0 .43-.64c0-.68-1.37-1.22-3-1.22s-3 .54-3 1.22a.77.77 0 0 0 .43.64c.37.25.52.56.31.85a1.49 1.49 0 0 1-.78.48l-.57.18H237l.19-3.26.38-.25a2.55 2.55 0 0 1 1.05-.33 4.31 4.31 0 0 1 1.87.14 4.92 4.92 0 0 0 1.39.19c1.49 0 2.7-.59 2.71-1.33s-1.16-1.32-2.63-1.32a4.9 4.9 0 0 0-1.38.19 4.59 4.59 0 0 1-1.86.14 2.49 2.49 0 0 1-1-.33l-.35-.24.17-3h6.91l.54-.16a1.35 1.35 0 0 0 .73-.43c.21-.26.06-.55-.3-.78a.7.7 0 0 1-.41-.57c0-.61 1.3-1.1 2.88-1.1s2.88.49 2.89 1.1a.72.72 0 0 1-.41.57c-.36.23-.52.52-.3.78a1.3 1.3 0 0 0 .73.43l.54.16h6.9l.18 3-.35.24a2.54 2.54 0 0 1-1 .33 4.6 4.6 0 0 1-1.86-.14 4.9 4.9 0 0 0-1.38-.19c-1.49 0-2.67.59-2.66 1.32zM271.21 386.86c.08.67 1.31 1.22 2.73 1.22a4.64 4.64 0 0 0 1.3-.18 4.13 4.13 0 0 1 1.74-.13 3 3 0 0 1 1 .3l.4.23.51 2.94H272l-.56-.16a1.56 1.56 0 0 1-.79-.43c-.24-.26-.12-.55.21-.78a.6.6 0 0 0 .34-.57c-.08-.61-1.43-1.1-3-1.1s-2.81.49-2.75 1.1a.83.83 0 0 0 .48.57c.37.23.57.52.39.78a1.12 1.12 0 0 1-.68.43l-.53.16h-6.9l-.17-2.94.34-.23a2.52 2.52 0 0 1 1-.3 4.46 4.46 0 0 1 1.79.13 5 5 0 0 0 1.33.18c1.41 0 2.52-.55 2.45-1.22s-1.25-1.19-2.65-1.19a4.63 4.63 0 0 0-1.29.17 4.45 4.45 0 0 1-1.76.13 2.64 2.64 0 0 1-1-.3l-.36-.22-.16-2.75h19.71l.48 2.75-.32.22a2.2 2.2 0 0 1-.91.3 4.6 4.6 0 0 1-1.78-.13 5.12 5.12 0 0 0-1.34-.17c-1.39 0-2.45.53-2.36 1.19z" style="fill:#ecb9d8;stroke:#263238;stroke-linecap:round;stroke-linejoin:round"/><path d="M264.94 386.86c.07.67-1 1.22-2.45 1.22a5 5 0 0 1-1.33-.18 4.46 4.46 0 0 0-1.79-.13 2.52 2.52 0 0 0-1 .3l-.34.23.17 2.94h-6.9l-.54-.16a1.3 1.3 0 0 1-.73-.43c-.22-.26-.06-.55.3-.78a.72.72 0 0 0 .41-.57c0-.61-1.31-1.1-2.89-1.1s-2.87.49-2.88 1.1a.7.7 0 0 0 .41.57c.36.23.51.52.3.78a1.35 1.35 0 0 1-.73.43l-.54.16h-6.91l.17-2.94-.34-.23a2.47 2.47 0 0 0-1-.3 4.44 4.44 0 0 0-1.79.13 5 5 0 0 1-1.34.18c-1.42 0-2.51-.55-2.44-1.22s1.24-1.19 2.64-1.19a4.66 4.66 0 0 1 1.3.17 4.39 4.39 0 0 0 1.75.13 2.64 2.64 0 0 0 1-.3l.37-.22.16-2.75h19.71l.16 2.75.36.22a2.64 2.64 0 0 0 1 .3 4.45 4.45 0 0 0 1.76-.13 4.63 4.63 0 0 1 1.29-.17c1.43 0 2.62.53 2.68 1.19zM305.33 386.86c.22.67-.76 1.22-2.17 1.22a5.48 5.48 0 0 1-1.38-.18 4.67 4.67 0 0 0-1.82-.13 2.1 2.1 0 0 0-.9.3l-.28.23.85 2.94h-6.91l-.57-.16a1.8 1.8 0 0 1-.84-.43c-.27-.26-.18-.55.13-.78a.53.53 0 0 0 .27-.57c-.15-.61-1.55-1.1-3.13-1.1s-2.77.49-2.63 1.1a1 1 0 0 0 .54.57c.41.23.63.52.48.78a1 1 0 0 1-.63.43l-.52.16h-6.89l-.51-2.94-.4-.23a3 3 0 0 0-1-.3 4.13 4.13 0 0 0-1.74.13 4.64 4.64 0 0 1-1.3.18c-1.42 0-2.65-.55-2.73-1.22s1-1.19 2.37-1.19a5.12 5.12 0 0 1 1.34.17 4.6 4.6 0 0 0 1.78.13 2.2 2.2 0 0 0 .91-.3l.32-.22-.48-2.75h19.71l.8 2.75.41.22a3.14 3.14 0 0 0 1.05.3 4.22 4.22 0 0 0 1.73-.13 4.2 4.2 0 0 1 1.25-.17c1.36 0 2.67.53 2.89 1.19z" style="fill:#ecb9d8;stroke:#263238;stroke-linecap:round;stroke-linejoin:round"/><path d="M308.27 395.84c.24.74-.77 1.33-2.26 1.33a5.59 5.59 0 0 1-1.45-.19 4.65 4.65 0 0 0-1.92-.14 1.85 1.85 0 0 0-.93.33l-.3.25.94 3.26h-7.27l-.62-.18a2 2 0 0 1-.87-.47c-.29-.29-.2-.61.12-.86a.65.65 0 0 0 .29-.64c-.17-.68-1.66-1.22-3.32-1.22s-2.9.54-2.75 1.22a1.1 1.1 0 0 0 .57.64c.44.25.67.56.52.85a1.08 1.08 0 0 1-.66.48l-.54.18h-7.26l-.56-3.26-.42-.25a2.81 2.81 0 0 0-1.08-.33 4.16 4.16 0 0 0-1.85.14 4.77 4.77 0 0 1-1.37.19c-1.49 0-2.78-.59-2.88-1.33s1-1.32 2.49-1.32a5.15 5.15 0 0 1 1.4.19 4.69 4.69 0 0 0 1.87.14 2.14 2.14 0 0 0 1-.33l.34-.24-.53-3h6.89l.52-.16a1 1 0 0 0 .63-.43c.15-.26-.07-.55-.48-.78a1 1 0 0 1-.54-.57c-.14-.61 1-1.1 2.63-1.1s3 .49 3.13 1.1a.53.53 0 0 1-.27.57c-.31.23-.4.52-.13.78a1.8 1.8 0 0 0 .84.43l.57.16h6.91l.87 3 .44.24a3.24 3.24 0 0 0 1.12.33 4.19 4.19 0 0 0 1.8-.14 4.33 4.33 0 0 1 1.32-.19c1.42 0 2.78.59 3.05 1.32zM316.87 382.7l3.45 8.54h-6.9l-.59-.16a2.1 2.1 0 0 1-.9-.43.46.46 0 0 1 0-.78.49.49 0 0 0 .21-.57c-.22-.61-1.68-1.1-3.27-1.1s-2.7.49-2.5 1.1a1.18 1.18 0 0 0 .61.57c.44.23.7.52.58.78a.85.85 0 0 1-.58.43l-.5.16h-6.89l-.85-2.94.28-.23a2.1 2.1 0 0 1 .9-.3 4.67 4.67 0 0 1 1.82.13 5.48 5.48 0 0 0 1.38.18c1.41 0 2.39-.55 2.17-1.22s-1.53-1.19-2.93-1.19a4.2 4.2 0 0 0-1.25.17 4.22 4.22 0 0 1-1.73.13 3.14 3.14 0 0 1-1.05-.3l-.41-.22-.8-2.75zM215.2 400.68l-1.81 10.48h-7.67l-.56-.19a1.15 1.15 0 0 1-.69-.53c-.16-.32.09-.68.56-1a1.22 1.22 0 0 0 .61-.71c.16-.75-1.12-1.35-2.88-1.35s-3.33.6-3.51 1.35a.7.7 0 0 0 .29.71.62.62 0 0 1 .11 1 2.15 2.15 0 0 1-1 .53l-.64.19h-7.67l3-10.48h7.27l.61-.18a2 2 0 0 0 .89-.48c.28-.29.19-.6-.12-.85a.63.63 0 0 1-.28-.64c.17-.68 1.64-1.22 3.31-1.22s2.89.54 2.75 1.22a1.12 1.12 0 0 1-.58.64c-.43.25-.67.57-.51.86a1 1 0 0 0 .66.47l.53.18zM251.35 405.78c0 .82 1.3 1.48 2.88 1.48a4.65 4.65 0 0 0 1.45-.22 4.58 4.58 0 0 1 2-.16 3.12 3.12 0 0 1 1.12.38l.4.28.21 3.62h-7.67l-.6-.19a1.63 1.63 0 0 1-.82-.53c-.24-.32-.06-.68.34-1a.88.88 0 0 0 .45-.71c0-.75-1.44-1.35-3.2-1.35s-3.18.6-3.19 1.35a.88.88 0 0 0 .45.71c.39.28.56.63.33 1a1.6 1.6 0 0 1-.81.53l-.61.19h-7.67l.21-3.62.41-.28a3.06 3.06 0 0 1 1.11-.38 4.54 4.54 0 0 1 2 .16 4.78 4.78 0 0 0 1.47.22c1.57 0 2.85-.66 2.86-1.48s-1.22-1.47-2.77-1.47a5.09 5.09 0 0 0-1.46.21 4.57 4.57 0 0 1-2 .16 2.47 2.47 0 0 1-1.05-.36l-.37-.27.2-3.37h7.26l.57-.18a1.49 1.49 0 0 0 .78-.48c.21-.29.06-.6-.31-.85a.77.77 0 0 1-.43-.64c0-.68 1.36-1.22 3-1.22s3 .54 3 1.22a.84.84 0 0 1-.43.64c-.38.25-.55.57-.33.86a1.49 1.49 0 0 0 .78.47l.57.18h7.27l.19 3.37-.37.27a2.52 2.52 0 0 1-1.05.36 4.57 4.57 0 0 1-2-.16 5.09 5.09 0 0 0-1.46-.21c-1.48 0-2.72.69-2.71 1.47z" style="fill:#ecb9d8;stroke:#263238;stroke-linecap:round;stroke-linejoin:round"/><path d="M272.4 395.84c.1.74 1.39 1.33 2.88 1.33a4.77 4.77 0 0 0 1.37-.19 4.16 4.16 0 0 1 1.85-.14 2.81 2.81 0 0 1 1.08.33l.42.25.56 3.26h-7.26l-.59-.18a1.66 1.66 0 0 1-.83-.48c-.26-.29-.13-.6.21-.85a.72.72 0 0 0 .36-.64c-.09-.68-1.51-1.22-3.18-1.22s-2.95.54-2.88 1.22a.9.9 0 0 0 .5.64c.41.25.6.57.41.86a1.17 1.17 0 0 1-.71.47l-.55.18h-7.26l-.19-3.26-.38-.25a2.71 2.71 0 0 0-1-.33 4.27 4.27 0 0 0-1.87.14 4.92 4.92 0 0 1-1.39.19c-1.49 0-2.71-.59-2.73-1.33s1.17-1.32 2.64-1.32a4.9 4.9 0 0 1 1.38.19 4.6 4.6 0 0 0 1.86.14 2.54 2.54 0 0 0 1-.33l.35-.24-.18-3h6.9l.53-.16a1.12 1.12 0 0 0 .68-.43c.18-.26 0-.55-.39-.78a.83.83 0 0 1-.48-.57c-.06-.61 1.17-1.1 2.75-1.1s2.93.49 3 1.1a.6.6 0 0 1-.34.57c-.33.23-.45.52-.21.78a1.56 1.56 0 0 0 .79.43l.56.16h6.9l.53 3-.34.24a2.14 2.14 0 0 1-1 .33 4.69 4.69 0 0 1-1.87-.14 5.15 5.15 0 0 0-1.4-.19c-1.46 0-2.58.59-2.48 1.32z" style="fill:#ecb9d8;stroke:#263238;stroke-linecap:round;stroke-linejoin:round"/><path d="M311.53 405.78c.27.82-.79 1.48-2.35 1.48a5.46 5.46 0 0 1-1.54-.22 4.94 4.94 0 0 0-2-.16 2.15 2.15 0 0 0-1 .38l-.31.28 1.05 3.62h-7.67l-.66-.19a2.25 2.25 0 0 1-.93-.53.6.6 0 0 1 .12-1 .71.71 0 0 0 .29-.71c-.19-.75-1.76-1.35-3.52-1.35s-3.05.6-2.89 1.35a1.25 1.25 0 0 0 .62.71c.46.28.71.63.56 1a1.15 1.15 0 0 1-.69.53l-.57.19h-7.66l-1.82-10.48h7.26l.54-.18a1.08 1.08 0 0 0 .64-.5c.15-.29-.08-.6-.52-.85a1.1 1.1 0 0 1-.57-.64c-.15-.68 1.09-1.22 2.75-1.22s3.15.54 3.32 1.22a.65.65 0 0 1-.29.64c-.32.25-.41.57-.12.86a2 2 0 0 0 .87.47l.62.18h7.27l1 3.37.46.27a3.43 3.43 0 0 0 1.18.36 4.23 4.23 0 0 0 1.91-.16 4.31 4.31 0 0 1 1.38-.21c1.53.02 3 .71 3.27 1.49z" style="fill:#ecb9d8;stroke:#263238;stroke-linecap:round;stroke-linejoin:round"/><path d="m320.32 391.24 3.82 9.44h-7.27l-.64-.18a2.27 2.27 0 0 1-.93-.48.5.5 0 0 1 0-.85.58.58 0 0 0 .21-.64c-.25-.68-1.8-1.22-3.46-1.22s-2.84.54-2.61 1.22a1.29 1.29 0 0 0 .65.64c.46.25.74.57.62.86a.91.91 0 0 1-.6.47l-.52.18h-7.26l-.94-3.26.3-.25a1.85 1.85 0 0 1 .93-.33 4.65 4.65 0 0 1 1.92.14 5.59 5.59 0 0 0 1.45.19c1.49 0 2.5-.59 2.26-1.33s-1.63-1.32-3.09-1.32a4.33 4.33 0 0 0-1.32.19 4.19 4.19 0 0 1-1.8.14 3.24 3.24 0 0 1-1.12-.33l-.44-.24-.87-3h6.89l.5-.16a.85.85 0 0 0 .58-.43c.12-.26-.14-.55-.58-.78a1.18 1.18 0 0 1-.61-.57c-.2-.61.92-1.1 2.5-1.1s3 .49 3.27 1.1a.49.49 0 0 1-.21.57.46.46 0 0 0 0 .78 2.1 2.1 0 0 0 .9.43l.59.16z" style="fill:#ecb9d8;stroke:#263238;stroke-linecap:round;stroke-linejoin:round"/><path d="m324.14 400.68 4.23 10.48h-7.67l-.7-.16a2.49 2.49 0 0 1-1-.53.59.59 0 0 1 0-1 .64.64 0 0 0 .21-.71c-.27-.75-1.92-1.35-3.67-1.35s-3 .6-2.73 1.35a1.4 1.4 0 0 0 .7.71c.49.28.79.64.67 1a1 1 0 0 1-.63.53l-.55.19h-7.65l-1.05-3.62.31-.28a2.15 2.15 0 0 1 1-.38 4.94 4.94 0 0 1 2 .16 5.46 5.46 0 0 0 1.54.22c1.56 0 2.62-.66 2.35-1.48s-1.74-1.47-3.28-1.47a4.31 4.31 0 0 0-1.38.21 4.23 4.23 0 0 1-1.91.16 3.43 3.43 0 0 1-1.18-.36l-.46-.27-1-3.37h7.26l.52-.18a.91.91 0 0 0 .6-.47c.12-.29-.16-.61-.62-.86a1.29 1.29 0 0 1-.65-.64c-.23-.68 1-1.22 2.61-1.22s3.21.54 3.46 1.22a.58.58 0 0 1-.21.64.5.5 0 0 0 0 .85 2.27 2.27 0 0 0 .93.48l.64.18zM184.23 405.78c-.26.82.78 1.48 2.36 1.48a5.51 5.51 0 0 0 1.54-.22 4.91 4.91 0 0 1 2-.16 2.2 2.2 0 0 1 1 .38l.3.28-1 3.62h-7.67l-.54-.19a1 1 0 0 1-.63-.53c-.12-.33.18-.68.66-1a1.39 1.39 0 0 0 .7-.7c.25-.75-1-1.35-2.72-1.35s-3.4.6-3.67 1.35a.64.64 0 0 0 .2.71.59.59 0 0 1 0 1 2.52 2.52 0 0 1-1 .53l-.68.19h-7.67l4.24-10.48h7.26l.64-.18a2.2 2.2 0 0 0 .93-.47.51.51 0 0 0 0-.86.58.58 0 0 1-.21-.64c.24-.68 1.79-1.22 3.46-1.22s2.82.54 2.6 1.22a1.24 1.24 0 0 1-.65.63c-.46.26-.73.57-.61.86a.94.94 0 0 0 .61.48l.51.18h7.26l-1 3.37-.46.27a3.44 3.44 0 0 1-1.17.36 4.22 4.22 0 0 1-1.91-.16 4.37 4.37 0 0 0-1.39-.21c-1.52-.01-3.02.68-3.29 1.46z" style="fill:#ecb9d8;stroke:#263238;stroke-linecap:round;stroke-linejoin:round"/><path d="m182.18 411 .54.19h-7.66l.68-.19a2.52 2.52 0 0 0 1-.53.59.59 0 0 0 0-1 .64.64 0 0 1-.2-.71c.27-.75 1.91-1.35 3.67-1.35s3 .6 2.72 1.35a1.39 1.39 0 0 1-.7.7c-.48.29-.78.64-.66 1a1 1 0 0 0 .61.54zM192.44 404.05l-1 3.49-.3-.28a2.2 2.2 0 0 0-1-.38 4.91 4.91 0 0 0-2 .16 5.51 5.51 0 0 1-1.54.22c-1.58 0-2.62-.66-2.36-1.48s1.73-1.47 3.28-1.47a4.37 4.37 0 0 1 1.39.21 4.22 4.22 0 0 0 1.91.16 3.44 3.44 0 0 0 1.17-.36z" style="fill:#ecb9d8;stroke:#263238;stroke-linecap:round;stroke-linejoin:round"/><path d="m192.44 404.05-1 3.49-.3-.28a2.2 2.2 0 0 0-1-.38 4.91 4.91 0 0 0-2 .16 5.51 5.51 0 0 1-1.54.22c-1.58 0-2.62-.66-2.36-1.48s1.73-1.47 3.28-1.47a4.37 4.37 0 0 1 1.39.21 4.22 4.22 0 0 0 1.91.16 3.44 3.44 0 0 0 1.17-.36zM145.84 421.76c-.2.92 1 1.67 2.64 1.67a5.17 5.17 0 0 0 1.61-.25 4.8 4.8 0 0 1 2.13-.18 2.44 2.44 0 0 1 1.07.42l.36.31-.71 4.06h-8.12l-.59-.21a1.18 1.18 0 0 1-.71-.6c-.17-.36.1-.76.59-1.07a1.4 1.4 0 0 0 .66-.8c.18-.84-1.17-1.52-3-1.52s-3.53.68-3.74 1.52a.79.79 0 0 0 .29.79.72.72 0 0 1 .11 1.08 2.36 2.36 0 0 1-1 .6l-.69.21h-8.12l1.17-4.06-.32-.31a2.07 2.07 0 0 0-1-.42 5 5 0 0 0-2.15.18 5.4 5.4 0 0 1-1.63.25c-1.67 0-2.76-.75-2.46-1.67s1.85-1.63 3.49-1.63a4 4 0 0 1 1.46.24 4.23 4.23 0 0 0 2 .17 3.66 3.66 0 0 0 1.26-.41l.49-.3 1.08-3.76h7.67l.65-.19a2 2 0 0 0 .94-.54.6.6 0 0 0-.11-.95.71.71 0 0 1-.29-.71c.19-.75 1.75-1.36 3.52-1.36s3 .61 2.88 1.36a1.25 1.25 0 0 1-.62.71c-.46.28-.71.63-.55 1a1.1 1.1 0 0 0 .68.53l.56.19H155l-.65 3.76-.46.3a3.24 3.24 0 0 1-1.21.41 4.3 4.3 0 0 1-2-.17 4.23 4.23 0 0 0-1.49-.24c-1.69-.04-3.19.69-3.35 1.59zM244.2 416.85c0 .92-1.36 1.67-3 1.67a4.94 4.94 0 0 1-1.55-.24 4.37 4.37 0 0 0-2.08-.19 3 3 0 0 0-1.17.42l-.43.31-.23 4.06h-8.12l-.62-.21a1.41 1.41 0 0 1-.79-.6c-.2-.37 0-.76.47-1.08a1.18 1.18 0 0 0 .57-.79c.08-.84-1.35-1.51-3.2-1.51s-3.46.67-3.57 1.51a.92.92 0 0 0 .39.8c.39.31.52.71.24 1.07a2 2 0 0 1-.94.6l-.66.21h-8.12l.7-4.06-.36-.31a2.38 2.38 0 0 0-1.07-.42 4.67 4.67 0 0 0-2.13.19 5.42 5.42 0 0 1-1.6.24c-1.67 0-2.84-.75-2.65-1.67s1.66-1.63 3.3-1.63a4.19 4.19 0 0 1 1.49.24 4.32 4.32 0 0 0 2 .17 3.23 3.23 0 0 0 1.22-.41l.46-.3.65-3.76h7.67l.62-.19a1.88 1.88 0 0 0 .88-.53c.26-.32.14-.68-.23-1a.79.79 0 0 1-.37-.71c.1-.75 1.59-1.35 3.36-1.35s3.11.6 3 1.35a1 1 0 0 1-.53.71c-.42.28-.63.63-.44 1a1.34 1.34 0 0 0 .75.53l.58.19h7.67l-.21 3.76.38.3a2.65 2.65 0 0 0 1.12.41 4.61 4.61 0 0 0 2.07-.17 4.65 4.65 0 0 1 1.54-.24c1.66 0 2.96.78 2.94 1.63z" style="fill:#ecb9d8;stroke:#263238;stroke-linecap:round;stroke-linejoin:round"/><path d="M251.55 416.85c0 .92 1.38 1.67 3 1.67a4.94 4.94 0 0 0 1.55-.24 4.38 4.38 0 0 1 2.09-.19 3.13 3.13 0 0 1 1.16.42l.43.31.24 4.06h-8.12l-.64-.21a1.76 1.76 0 0 1-.87-.6c-.25-.36-.06-.76.36-1.07a1 1 0 0 0 .48-.8c0-.84-1.53-1.51-3.39-1.51s-3.36.67-3.37 1.51a1 1 0 0 0 .47.79c.42.32.59.71.35 1.08a1.68 1.68 0 0 1-.86.6l-.64.21h-8.12l.23-4.06.43-.31a3 3 0 0 1 1.17-.42 4.37 4.37 0 0 1 2.08.19 4.94 4.94 0 0 0 1.55.24c1.67 0 3-.75 3-1.67s-1.28-1.63-2.92-1.63a4.65 4.65 0 0 0-1.54.24 4.61 4.61 0 0 1-2.07.17 2.65 2.65 0 0 1-1.12-.41l-.38-.3.21-3.76h7.67l.61-.19a1.6 1.6 0 0 0 .81-.53c.23-.33.06-.68-.33-1a.88.88 0 0 1-.45-.71c0-.75 1.44-1.35 3.19-1.35s3.19.6 3.2 1.35a.88.88 0 0 1-.45.71c-.4.28-.58.64-.34 1a1.63 1.63 0 0 0 .82.53l.6.19h7.67l.22 3.76-.39.3a2.6 2.6 0 0 1-1.12.41 4.61 4.61 0 0 1-2.07-.17 4.65 4.65 0 0 0-1.54-.24c-1.56 0-2.88.78-2.86 1.63zM163.41 403.32c0 .82-1.29 1.49-2.87 1.49a4.71 4.71 0 0 1-1.46-.22 4.54 4.54 0 0 0-2-.16 2.77 2.77 0 0 0-1.12.38l-.4.27-.21 3.63h-7.67l-.58-.19a1.33 1.33 0 0 1-.76-.54c-.19-.32 0-.68.44-1a1.1 1.1 0 0 0 .54-.71c.07-.75-1.28-1.36-3-1.36s-3.26.61-3.35 1.36a.78.78 0 0 0 .37.71c.36.28.49.63.22 1a1.85 1.85 0 0 1-.87.53l-.63.19h-7.67l1.82-10.49h7.26l.59-.17a1.71 1.71 0 0 0 .83-.48c.25-.29.13-.6-.22-.86a.7.7 0 0 1-.36-.64c.09-.67 1.51-1.21 3.18-1.21s2.95.54 2.88 1.21a.89.89 0 0 1-.5.64c-.4.25-.59.57-.41.86a1.25 1.25 0 0 0 .72.48l.55.17H156l-.19 3.37.37.27a2.55 2.55 0 0 0 1.05.37 4.59 4.59 0 0 0 2-.16 4.77 4.77 0 0 1 1.46-.21c1.5.01 2.73.66 2.72 1.47zM280.56 400.68l1.82 10.48h-7.67l-.63-.19a1.88 1.88 0 0 1-.88-.53c-.27-.33-.13-.68.23-1a.81.81 0 0 0 .37-.71c-.1-.75-1.61-1.35-3.36-1.35s-3.11.6-3 1.35a1 1 0 0 0 .54.71c.43.28.64.64.44 1a1.34 1.34 0 0 1-.75.53l-.58.19h-7.67l-.21-3.62-.4-.28a3.12 3.12 0 0 0-1.12-.38 4.58 4.58 0 0 0-2 .16 4.65 4.65 0 0 1-1.45.22c-1.58 0-2.86-.66-2.88-1.48s1.23-1.47 2.78-1.47a5.09 5.09 0 0 1 1.46.21 4.57 4.57 0 0 0 2 .16 2.52 2.52 0 0 0 1.05-.36l.37-.27-.19-3.37H266l.55-.18a1.17 1.17 0 0 0 .71-.47c.19-.29 0-.61-.41-.86a.9.9 0 0 1-.5-.64c-.07-.68 1.22-1.22 2.88-1.22s3.09.54 3.18 1.22a.72.72 0 0 1-.36.64c-.34.25-.47.56-.21.85a1.66 1.66 0 0 0 .83.48l.59.18zM298.86 416.85c.23.92 1.76 1.67 3.42 1.67a4.39 4.39 0 0 0 1.49-.24 4.13 4.13 0 0 1 2.05-.19 3.8 3.8 0 0 1 1.26.42l.51.31 1.17 4.06h-8.12l-.7-.21a2.35 2.35 0 0 1-1-.6.69.69 0 0 1 .11-1.07.81.81 0 0 0 .29-.8c-.21-.84-1.88-1.51-3.74-1.51s-3.21.67-3 1.51a1.35 1.35 0 0 0 .66.79c.49.32.76.71.61 1.08a1.29 1.29 0 0 1-.73.6l-.6.21h-8.11l-.71-4.06.36-.31a2.44 2.44 0 0 1 1.07-.42 4.66 4.66 0 0 1 2.13.19 5.49 5.49 0 0 0 1.61.24c1.65 0 2.84-.75 2.64-1.67s-1.67-1.63-3.3-1.63a4.23 4.23 0 0 0-1.49.24 4.3 4.3 0 0 1-2 .17 3.17 3.17 0 0 1-1.21-.41l-.46-.3-.65-3.76H290l.57-.19a1.15 1.15 0 0 0 .69-.53c.15-.33-.1-.68-.56-1a1.25 1.25 0 0 1-.62-.71c-.16-.75 1.14-1.35 2.89-1.35s3.33.6 3.52 1.35a.71.71 0 0 1-.29.71.6.6 0 0 0-.12 1 2.25 2.25 0 0 0 .93.53l.66.19h7.67l1.08 3.76-.33.3a2 2 0 0 1-1 .41 4.89 4.89 0 0 1-2.11-.17 5 5 0 0 0-1.58-.24c-1.62 0-2.77.78-2.54 1.63zM180.6 416.85c-.3.92.79 1.67 2.45 1.67a5.8 5.8 0 0 0 1.64-.24 4.75 4.75 0 0 1 2.14-.19 2.16 2.16 0 0 1 1 .42l.32.31-1.15 4.06h-24.34l4.73-11.72h7.67l.68-.19a2.52 2.52 0 0 0 1-.53.59.59 0 0 0 0-1 .64.64 0 0 1-.2-.71c.27-.75 1.91-1.35 3.67-1.35s3 .6 2.72 1.35a1.39 1.39 0 0 1-.7.7c-.48.29-.78.64-.66 1a1 1 0 0 0 .63.53l.54.19h7.67l-1.09 3.76-.49.3a3.59 3.59 0 0 1-1.26.41 4.18 4.18 0 0 1-2-.17 4 4 0 0 0-1.46-.24c-1.66.01-3.22.79-3.51 1.64z" style="fill:#ecb9d8;stroke:#263238;stroke-linecap:round;stroke-linejoin:round"/><path d="M176.52 429.27c-.34 1 .81 1.87 2.57 1.87a5.81 5.81 0 0 0 1.74-.27 4.78 4.78 0 0 1 2.27-.2 2.13 2.13 0 0 1 1.09.47l.33.35-1.32 4.58h-25.87l5.33-13.19h8.12l.72-.21a2.66 2.66 0 0 0 1.06-.6.68.68 0 0 0 0-1.07.76.76 0 0 1-.2-.8c.31-.84 2.06-1.51 3.91-1.51s3.13.67 2.86 1.51a1.6 1.6 0 0 1-.75.79c-.53.32-.85.71-.73 1.08a1.07 1.07 0 0 0 .66.6l.57.21H187l-1.22 4.22-.53.34a3.59 3.59 0 0 1-1.33.45 4.11 4.11 0 0 1-2.13-.19 4.16 4.16 0 0 0-1.54-.27c-1.73 0-3.4.83-3.73 1.84zM226.68 429.27c-.1 1 1.25 1.87 3 1.87a5.11 5.11 0 0 0 1.66-.27 4.58 4.58 0 0 1 2.24-.2 2.62 2.62 0 0 1 1.19.47l.42.35-.26 4.58h-8.63l-.65-.25a1.44 1.44 0 0 1-.84-.68c-.21-.41 0-.85.51-1.21a1.31 1.31 0 0 0 .6-.89c.1-.94-1.41-1.7-3.38-1.7s-3.67.76-3.8 1.7a1 1 0 0 0 .41.9.86.86 0 0 1 .24 1.21 2.13 2.13 0 0 1-1 .67l-.71.25h-8.63l.8-4.58.49-.35a3.35 3.35 0 0 1 1.31-.47 4.23 4.23 0 0 1 2.18.2 4.68 4.68 0 0 0 1.61.27c1.77 0 3.31-.84 3.45-1.87s-1.17-1.84-2.9-1.84a5.22 5.22 0 0 0-1.67.27 4.64 4.64 0 0 1-2.22.19 2.2 2.2 0 0 1-1.12-.45l-.37-.34.73-4.22h8.12l.66-.21a2 2 0 0 0 .94-.6c.28-.36.15-.76-.24-1.07a.92.92 0 0 1-.39-.8c.11-.84 1.7-1.51 3.57-1.51s3.28.67 3.2 1.51a1.18 1.18 0 0 1-.57.79c-.45.32-.67.71-.47 1.08a1.41 1.41 0 0 0 .79.6l.62.21h8.12l-.25 4.22-.44.34a2.85 2.85 0 0 1-1.23.45 4.39 4.39 0 0 1-2.18-.19 4.66 4.66 0 0 0-1.6-.27c-1.72 0-3.21.82-3.31 1.84zM294.16 429.27c.22 1-1 1.87-2.79 1.87a5.57 5.57 0 0 1-1.71-.27 4.61 4.61 0 0 0-2.24-.2 2.32 2.32 0 0 0-1.15.47l-.37.35.79 4.58h-8.63l-.7-.25a1.94 1.94 0 0 1-1-.68c-.32-.41-.17-.85.23-1.21a1 1 0 0 0 .4-.89c-.12-.94-1.82-1.7-3.79-1.7s-3.48.76-3.39 1.7a1.3 1.3 0 0 0 .61.9c.49.35.73.8.51 1.21a1.47 1.47 0 0 1-.83.67l-.65.25h-8.63l-.27-4.58.42-.35a2.67 2.67 0 0 1 1.2-.47 4.48 4.48 0 0 1 2.22.2 5.24 5.24 0 0 0 1.68.27c1.75 0 3.1-.84 3-1.87s-1.59-1.84-3.31-1.84a4.72 4.72 0 0 0-1.61.27 4.36 4.36 0 0 1-2.17.19 2.8 2.8 0 0 1-1.23-.45l-.45-.34-.24-4.22h8.12l.61-.21a1.44 1.44 0 0 0 .79-.6c.21-.36 0-.76-.48-1.07a1.12 1.12 0 0 1-.56-.8c-.09-.84 1.34-1.51 3.2-1.51s3.45.67 3.56 1.51a.88.88 0 0 1-.39.79c-.37.32-.51.71-.22 1.08a2 2 0 0 0 .93.6l.67.21h8.12l.73 4.22.49.34a3.1 3.1 0 0 0 1.27.45 4.27 4.27 0 0 0 2.16-.19 4.41 4.41 0 0 1 1.57-.27c1.73 0 3.31.82 3.53 1.84z" style="fill:#ecb9d8;stroke:#263238;stroke-linecap:round;stroke-linejoin:round"/><path d="M302 429.27c.25 1 1.89 1.87 3.66 1.87a4.37 4.37 0 0 0 1.57-.27 4.09 4.09 0 0 1 2.15-.2 3.55 3.55 0 0 1 1.36.47l.55.35 1.32 4.58h-8.63l-.74-.25a2.49 2.49 0 0 1-1.07-.67.81.81 0 0 1 .11-1.21.94.94 0 0 0 .3-.9c-.24-.94-2-1.7-4-1.7s-3.4.76-3.2 1.7a1.55 1.55 0 0 0 .71.89c.54.36.82.8.66 1.21a1.24 1.24 0 0 1-.76.68l-.63.25h-8.62l-.79-4.58.37-.35a2.32 2.32 0 0 1 1.15-.47 4.61 4.61 0 0 1 2.24.2 5.57 5.57 0 0 0 1.71.27c1.75 0 3-.84 2.79-1.87s-1.8-1.84-3.53-1.84a4.41 4.41 0 0 0-1.57.27 4.27 4.27 0 0 1-2.16.19 3.1 3.1 0 0 1-1.27-.45l-.49-.34-.73-4.22h8.11l.6-.21a1.29 1.29 0 0 0 .73-.6c.15-.37-.12-.76-.61-1.08a1.35 1.35 0 0 1-.66-.79c-.18-.84 1.18-1.51 3-1.51s3.53.67 3.74 1.51a.81.81 0 0 1-.29.8.69.69 0 0 0-.11 1.07 2.35 2.35 0 0 0 1 .6l.7.21h8.12l1.21 4.22-.35.34a1.94 1.94 0 0 1-1.06.45 4.8 4.8 0 0 1-2.25-.19 5.44 5.44 0 0 0-1.69-.27c-1.75 0-2.96.82-2.65 1.84zM375.45 411.45c.2.92-1 1.67-2.64 1.67a5.49 5.49 0 0 1-1.61-.24 4.66 4.66 0 0 0-2.13-.19 2.44 2.44 0 0 0-1.07.42l-.36.31.71 4.06h-8.12l-.67-.21a2 2 0 0 1-.93-.6c-.29-.37-.15-.76.22-1.08a.88.88 0 0 0 .39-.79c-.11-.84-1.71-1.51-3.56-1.51s-3.29.67-3.2 1.51a1.12 1.12 0 0 0 .56.8c.46.31.69.71.48 1.07a1.44 1.44 0 0 1-.79.6l-.61.21H344l-.24-4.06-.43-.31a3.13 3.13 0 0 0-1.16-.42 4.37 4.37 0 0 0-2.09.19 4.94 4.94 0 0 1-1.55.24c-1.66 0-3-.75-3-1.67s1.3-1.63 2.93-1.63a4.65 4.65 0 0 1 1.54.24 4.61 4.61 0 0 0 2.07.17 2.65 2.65 0 0 0 1.12-.41l.39-.3-.22-3.76H351l.58-.19a1.34 1.34 0 0 0 .75-.53c.2-.32 0-.68-.44-1a1 1 0 0 1-.54-.71c-.07-.75 1.28-1.35 3-1.35s3.26.6 3.35 1.35a.77.77 0 0 1-.37.71c-.35.28-.49.63-.22 1a1.88 1.88 0 0 0 .88.53l.63.19h7.67l.65 3.76.46.3a3.17 3.17 0 0 0 1.21.41 4.3 4.3 0 0 0 2-.17 4.23 4.23 0 0 1 1.49-.24c1.68 0 3.16.73 3.35 1.63z" style="fill:#ecb9d8;stroke:#263238;stroke-linecap:round;stroke-linejoin:round"/><path d="m328.37 411.16 4.74 11.72H325l-.72-.21a2.68 2.68 0 0 1-1.07-.6.69.69 0 0 1 0-1.08.72.72 0 0 0 .2-.79c-.3-.84-2.06-1.51-3.91-1.51s-3.14.67-2.86 1.51a1.56 1.56 0 0 0 .76.8c.52.31.85.71.72 1.07a1.05 1.05 0 0 1-.65.6l-.57.21h-8.11l-1.17-4.06-.51-.31a3.8 3.8 0 0 0-1.26-.42 4.13 4.13 0 0 0-2.05.19 4.39 4.39 0 0 1-1.49.24c-1.66 0-3.19-.75-3.42-1.67s.92-1.63 2.56-1.63a5 5 0 0 1 1.58.24 4.89 4.89 0 0 0 2.11.17 2 2 0 0 0 1-.41l.33-.3-1.08-3.76H313l.55-.19a1 1 0 0 0 .63-.53c.12-.32-.18-.68-.67-1a1.4 1.4 0 0 1-.7-.71c-.25-.75 1-1.35 2.73-1.35s3.4.6 3.67 1.35a.64.64 0 0 1-.21.71.59.59 0 0 0 0 1 2.49 2.49 0 0 0 1 .53l.67.19zM380.23 435.15l5.33 13.19h-8.63l-.77-.25a2.77 2.77 0 0 1-1.15-.68.8.8 0 0 1-.05-1.2.83.83 0 0 0 .2-.89c-.34-.95-2.22-1.71-4.19-1.71s-3.31.76-3 1.71a1.87 1.87 0 0 0 .83.89c.56.35.91.8.79 1.22a1.11 1.11 0 0 1-.68.66l-.61.25h-8.61l-1.32-4.58-.55-.35a3.55 3.55 0 0 0-1.36-.47 4.13 4.13 0 0 0-2.16.2 4.29 4.29 0 0 1-1.57.27c-1.76 0-3.4-.84-3.66-1.87s.95-1.83 2.69-1.83a5.42 5.42 0 0 1 1.68.26 4.73 4.73 0 0 0 2.26.19 2 2 0 0 0 1.06-.45l.34-.34-1.22-4.22H364l.58-.21a1.07 1.07 0 0 0 .65-.59c.12-.37-.21-.77-.73-1.08a1.64 1.64 0 0 1-.76-.8c-.28-.84 1-1.51 2.86-1.51s3.61.67 3.92 1.51a.73.73 0 0 1-.21.79.69.69 0 0 0 0 1.08 2.64 2.64 0 0 0 1.06.6l.72.21zM183.2 436.07 178.89 451h-27.6l6-14.94H166l.77-.24a2.73 2.73 0 0 0 1.14-.68.8.8 0 0 0 0-1.21.86.86 0 0 1-.19-.9c.34-.94 2.22-1.7 4.18-1.7s3.31.76 3 1.7a1.76 1.76 0 0 1-.82.89c-.56.36-.91.8-.79 1.21a1.14 1.14 0 0 0 .69.69l.59.24z" style="fill:#ecb9d8;stroke:#263238;stroke-linecap:round;stroke-linejoin:round"/><path d="M198.62 443.3c-.25 1.16 1.06 2.12 2.94 2.12a5.39 5.39 0 0 0 1.82-.31 4.62 4.62 0 0 1 2.41-.23 2.27 2.27 0 0 1 1.2.53l.4.4-.9 5.2h-27.6l4.31-14.94h8.63l.74-.25a2.36 2.36 0 0 0 1.07-.68.82.82 0 0 0-.09-1.21.92.92 0 0 1-.3-.89c.23-.94 2-1.7 4-1.7s3.4.76 3.19 1.7a1.6 1.6 0 0 1-.71.9c-.53.35-.82.8-.65 1.21a1.25 1.25 0 0 0 .76.67l.62.25h8.62l-.82 4.76-.52.39a3.72 3.72 0 0 1-1.38.52 4.27 4.27 0 0 1-2.28-.23 4.48 4.48 0 0 0-1.67-.3c-1.86 0-3.54.93-3.79 2.09z" style="fill:#ecb9d8;stroke:#263238;stroke-linecap:round;stroke-linejoin:round"/><path d="M225.32 443.3c-.12 1.16 1.31 2.12 3.19 2.12a5.09 5.09 0 0 0 1.79-.31 4.46 4.46 0 0 1 2.38-.23 2.58 2.58 0 0 1 1.26.53l.44.4-.3 5.2h-27.59l.9-5.2-.4-.4a2.27 2.27 0 0 0-1.2-.53 4.62 4.62 0 0 0-2.41.23 5.39 5.39 0 0 1-1.82.31c-1.88 0-3.19-1-2.94-2.12s1.93-2.09 3.78-2.09a4.48 4.48 0 0 1 1.67.3 4.27 4.27 0 0 0 2.28.23 3.72 3.72 0 0 0 1.38-.52l.52-.39.82-4.76h8.63l.71-.25a2.13 2.13 0 0 0 1-.67.86.86 0 0 0-.24-1.21 1 1 0 0 1-.41-.9c.13-.94 1.82-1.7 3.8-1.7s3.48.76 3.38 1.7a1.31 1.31 0 0 1-.6.89c-.48.36-.72.8-.51 1.21a1.44 1.44 0 0 0 .84.68l.65.25H235l-.28 4.76-.48.39a3.17 3.17 0 0 1-1.32.52 4.46 4.46 0 0 1-2.31-.23 4.73 4.73 0 0 0-1.7-.3c-1.91 0-3.48.93-3.59 2.09zM218.91 429.27c-.14 1-1.68 1.87-3.45 1.87a4.68 4.68 0 0 1-1.61-.27 4.23 4.23 0 0 0-2.18-.2 3.35 3.35 0 0 0-1.31.47l-.49.35-.8 4.58h-8.62l-.62-.25a1.25 1.25 0 0 1-.76-.67c-.17-.41.12-.86.65-1.21a1.6 1.6 0 0 0 .71-.9c.21-.94-1.22-1.7-3.19-1.7s-3.76.76-4 1.7a.92.92 0 0 0 .3.89.82.82 0 0 1 .09 1.21 2.36 2.36 0 0 1-1.07.68l-.74.25h-8.62l1.32-4.58-.33-.35a2.13 2.13 0 0 0-1.09-.47 4.78 4.78 0 0 0-2.27.2 5.81 5.81 0 0 1-1.74.27c-1.76 0-2.91-.84-2.57-1.87s2-1.84 3.74-1.84a4.16 4.16 0 0 1 1.54.27 4.11 4.11 0 0 0 2.13.19 3.59 3.59 0 0 0 1.33-.45l.53-.34 1.22-4.22h8.12l.68-.21a2.25 2.25 0 0 0 1-.6.72.72 0 0 0-.1-1.08.8.8 0 0 1-.3-.79c.21-.84 1.88-1.51 3.74-1.51s3.21.67 3 1.51a1.37 1.37 0 0 1-.66.8c-.5.31-.77.71-.6 1.07a1.2 1.2 0 0 0 .72.6l.59.21h8.12l-.73 4.22.37.34a2.2 2.2 0 0 0 1.12.45 4.64 4.64 0 0 0 2.22-.19 5.22 5.22 0 0 1 1.67-.27c1.77 0 3.03.82 2.94 1.84zM269.07 429.27c.1 1-1.25 1.87-3 1.87a5.24 5.24 0 0 1-1.68-.27 4.48 4.48 0 0 0-2.22-.2 2.67 2.67 0 0 0-1.2.47l-.42.35.27 4.58h-8.63l-.68-.25a1.83 1.83 0 0 1-.92-.67c-.27-.41-.07-.86.38-1.21a1.18 1.18 0 0 0 .51-.9c0-.94-1.63-1.7-3.6-1.7s-3.57.76-3.58 1.7a1.11 1.11 0 0 0 .5.89c.44.36.63.8.37 1.21a1.71 1.71 0 0 1-.92.68l-.68.25H235l.26-4.58-.42-.35a2.62 2.62 0 0 0-1.19-.47 4.58 4.58 0 0 0-2.24.2 5.11 5.11 0 0 1-1.66.27c-1.77 0-3.12-.84-3-1.87s1.59-1.84 3.33-1.84a4.66 4.66 0 0 1 1.6.27 4.39 4.39 0 0 0 2.18.19 2.85 2.85 0 0 0 1.23-.45l.44-.34.25-4.22h8.12l.64-.21a1.68 1.68 0 0 0 .86-.6c.24-.37.07-.76-.35-1.08a1 1 0 0 1-.47-.79c0-.84 1.52-1.51 3.37-1.51s3.38.67 3.39 1.51a1 1 0 0 1-.48.8c-.42.31-.61.71-.36 1.07a1.76 1.76 0 0 0 .87.6l.64.21h8.12l.24 4.22.45.34a2.8 2.8 0 0 0 1.23.45 4.36 4.36 0 0 0 2.17-.19 4.72 4.72 0 0 1 1.61-.27c1.65 0 3.17.82 3.24 1.84z" style="fill:#ecb9d8;stroke:#263238;stroke-linecap:round;stroke-linejoin:round"/><path d="M270.44 443.3c.11 1.16-1.32 2.12-3.19 2.12a5 5 0 0 1-1.78-.31 4.5 4.5 0 0 0-2.39-.23 2.63 2.63 0 0 0-1.26.53l-.44.4.3 5.2h-27.6l.3-5.2-.44-.4a2.58 2.58 0 0 0-1.26-.53 4.46 4.46 0 0 0-2.38.23 5.09 5.09 0 0 1-1.79.31c-1.88 0-3.31-1-3.19-2.12s1.7-2.09 3.54-2.09a4.73 4.73 0 0 1 1.7.3 4.46 4.46 0 0 0 2.31.23 3.17 3.17 0 0 0 1.32-.52l.48-.39.28-4.76h8.62l.68-.25a1.71 1.71 0 0 0 .92-.68c.26-.41.07-.85-.37-1.21a1.11 1.11 0 0 1-.5-.89c0-.94 1.61-1.7 3.58-1.7s3.58.76 3.6 1.7a1.18 1.18 0 0 1-.51.9c-.45.35-.65.8-.38 1.21a1.83 1.83 0 0 0 .92.67l.68.25h8.63l.27 4.76.48.39a3.28 3.28 0 0 0 1.32.52 4.4 4.4 0 0 0 2.3-.23 4.78 4.78 0 0 1 1.71-.3c1.84 0 3.42.93 3.54 2.09zM270.88 466.86c.15 1.17 1.8 2.12 3.68 2.12a4.59 4.59 0 0 0 1.72-.31 4.32 4.32 0 0 1 2.32-.23 3.59 3.59 0 0 1 1.4.56l.54.4.9 5.2h-27.61l-.3-5.2.44-.4a2.78 2.78 0 0 1 1.26-.53 4.67 4.67 0 0 1 2.38.23 5.09 5.09 0 0 0 1.79.31c1.87 0 3.3-1 3.18-2.12s-1.7-2.09-3.53-2.09a4.78 4.78 0 0 0-1.71.3 4.41 4.41 0 0 1-2.3.23 3 3 0 0 1-1.32-.52l-.48-.39-.28-4.76h8.63l.65-.25a1.53 1.53 0 0 0 .84-.66c.21-.42 0-.87-.52-1.22a1.3 1.3 0 0 1-.6-.89c-.1-.95 1.41-1.71 3.38-1.71s3.67.76 3.8 1.71a1 1 0 0 1-.41.89.84.84 0 0 0-.23 1.2 2 2 0 0 0 1 .68l.71.25h8.63l.82 4.76-.4.39a2.35 2.35 0 0 1-1.2.52 4.71 4.71 0 0 1-2.35-.23 5.34 5.34 0 0 0-1.77-.3c-1.85-.03-3.22.9-3.06 2.06zM181.26 441.22l.57-.38-1.44 5-.35-.4a2.1 2.1 0 0 0-1.14-.53 4.75 4.75 0 0 0-2.43.23 5.71 5.71 0 0 1-1.86.31c-1.88 0-3.08-1-2.7-2.12s2.17-2.08 4-2.08a4.07 4.07 0 0 1 1.64.3 4.21 4.21 0 0 0 2.25.22 4 4 0 0 0 1.46-.55zM305.44 443.3c.29 1.16 2.05 2.12 3.93 2.12a4.22 4.22 0 0 0 1.67-.31 4.06 4.06 0 0 1 2.31-.23 3.65 3.65 0 0 1 1.43.53l.59.4 1.5 5.2h-27.59l-.9-5.2-.55-.4a3.3 3.3 0 0 0-1.37-.53 4.18 4.18 0 0 0-2.33.23 4.54 4.54 0 0 1-1.71.31c-1.88 0-3.53-1-3.69-2.12s1.22-2.09 3.07-2.09a5.24 5.24 0 0 1 1.76.3 4.74 4.74 0 0 0 2.36.23 2.36 2.36 0 0 0 1.19-.52l.41-.39-.83-4.76h8.62l.63-.25a1.24 1.24 0 0 0 .76-.68c.16-.41-.12-.85-.66-1.21a1.55 1.55 0 0 1-.71-.89c-.2-.94 1.24-1.7 3.2-1.7s3.76.76 4 1.7a.94.94 0 0 1-.3.9.81.81 0 0 0-.11 1.21 2.49 2.49 0 0 0 1.07.67l.74.25h8.63l1.38 4.76-.36.39a2.13 2.13 0 0 1-1.14.52 4.88 4.88 0 0 1-2.38-.23 5.57 5.57 0 0 0-1.8-.3c-1.85 0-3.11.93-2.82 2.09z" style="fill:#ecb9d8;stroke:#263238;stroke-linecap:round;stroke-linejoin:round"/><path d="m338.43 436.07 6 14.94h-27.6l-1.5-5.2-.59-.4a3.65 3.65 0 0 0-1.43-.53 4.06 4.06 0 0 0-2.31.23 4.22 4.22 0 0 1-1.67.31c-1.88 0-3.64-1-3.93-2.12s1-2.09 2.82-2.09a5.57 5.57 0 0 1 1.8.3 4.88 4.88 0 0 0 2.38.23 2.13 2.13 0 0 0 1.14-.52l.36-.39-1.38-4.76h8.62l.6-.25a1.1 1.1 0 0 0 .68-.67c.12-.41-.23-.86-.79-1.21a1.84 1.84 0 0 1-.83-.9c-.31-.94 1-1.7 3-1.7s3.84.76 4.19 1.7a.84.84 0 0 1-.2.89.8.8 0 0 0 .05 1.21 2.73 2.73 0 0 0 1.14.68l.78.25z" style="fill:#ecb9d8;stroke:#263238;stroke-linecap:round;stroke-linejoin:round"/></g><g><path d="M458.86 408.21 389 409.58c-3.79.07-7.55-1.56-8.39-3.66l-5.38-13.31c-.84-2.09-.73-6.33 3.07-6.4l72.14 1.11c2.54-.05 5.06 1.05 5.63 2.45l6.61 13.09c.55 1.4-1.27 5.31-3.82 5.35z" style="fill:#263238;stroke:#263238;stroke-linecap:round;stroke-linejoin:round"/><path d="m459.09 405.49-69.87 1.36c-3.8.07-7.56-1.56-8.4-3.66l-5.38-13.31c-.84-2.09 1.55-3.85 5.34-3.92l69.87-1.37c2.54 0 5.07 1.05 5.63 2.45l6.39 15.82c.56 1.4-1.04 2.58-3.58 2.63z" style="fill:#c2c2c2;stroke:#263238;stroke-linecap:round;stroke-linejoin:round"/><path style="fill:#fff;stroke:#263238;stroke-linecap:round;stroke-linejoin:round" d="m458.28 402.87-72.63 1.41-6.32-15.66 72.62-1.42 6.33 15.67z"/></g><g><path d="M216.43 84.71a24.84 24.84 0 0 0-8.29 6.19c-5.43 6.15-15.49 18.84-16.19 29.18-1 14.24-2.69 43.47-3.07 58.86s-9 11.34-5.2 21.54 14.62 18.46 49.24 18.46 38.66 1.92 56.54-13.85c13.63-12 22.31-25.38 16.93-30.58s-11.16-17.5-14.23-36.35S280.81 93.35 267 86.43c-12.81-6.43-31.32-10.49-50.57-1.72z" style="fill:#263238;stroke:#263238;stroke-linecap:round;stroke-linejoin:round"/><path d="M252 107s-9.84 21.95-44.65 30.27M241.38 91.46s-30.28 12.48-40.49 40.86M260.29 105.83s4.55 15.9 19.3 21.57" style="fill:none;stroke:#7d7d7d;stroke-linecap:round;stroke-linejoin:round"/><path d="M248.56 84.64s7.95 25 7.57 29.9-8.7 24.21-49.57 29.13" style="fill:none;stroke:#7d7d7d;stroke-linecap:round;stroke-linejoin:round"/><path d="M228.74 202.8s-45.5 24-50.36 27.19-6.3 4.58-6.3 7.73-20.32 82.12-21.18 88.13.86 7.73.86 7.73-3.76 4.86-2.86 9.42 3.15 7.44 5.44 10 35.48 31.19 38.63 33.19c0 0 5.15-10.3 8.3-12.87a42 42 0 0 1 5.15-3.72s-9.16-9.16-11.16-15.17-2.29-6.58-3.72-11.73a105.09 105.09 0 0 0-4-11.16s5.73-4 5.73-14.31-1.15-10.59 0-14 3.14-14.6 3.14-14.6 4.3 26 6.3 33.2 4 15.16 3.43 18.6-4.86 13.16-3.72 17.17 6.3 16.88 6.3 16.88h121.9s-4.29-36.34-6.86-44.93a104.88 104.88 0 0 1-4-24.89c0-5.15 4.86-28.91 4.86-28.91l24.45 27.61s24.2-1.56 27.06-9.58 12.82-6.37 11.1-11.23-14.33-16-22-26.4c-15.5-21-30.87-26.12-36-37.85s-17.74-10-17.74-10l-40.9-8.37z" style="fill:#c2c2c2;stroke:#263238;stroke-linecap:round;stroke-linejoin:round"/><path d="M260.3 263.92c2.74-2.73 20.52-49.7 21-54.72.23-2.51-1.72-5.48-3.72-7.82l-7-1.44-41.78 2.86-7.95 4.2c-1 3.66-2 8.78-.68 12.71 2.28 6.82 37.39 46.95 40.13 44.21z" style="fill:#fff;stroke:#263238;stroke-linecap:round;stroke-linejoin:round"/><path d="M229.29 290.37s21.89 22.34 48.34 29.64M280.34 328.6c1.27.52 2.5 1 3.67 1.44M245.71 312.26s17.13 8.9 31.23 14.92M324.6 275.77s-11.4-3.18-16.87-12.76M296.33 264.38s10 9.12 22.8 10.94M196.4 288.65l-10.43-15.15M175.42 326.67c-8-1.26-15.9 1.55-15.9 1.55M183.24 329.59a16.79 16.79 0 0 0-2.76-1.49" style="fill:none;stroke:#263238;stroke-linecap:round;stroke-linejoin:round"/><path d="M227.16 183.84s1.58 19-.2 29.52c-1.25 7.37 28.68 37.8 28.68 37.8l18-41.52h0a58.85 58.85 0 0 1-7.26-20L264.57 179s-10.88 13-19.34 11.67-18.07-6.83-18.07-6.83z" style="fill:#fff;stroke:#263238;stroke-linecap:round;stroke-linejoin:round"/><path d="m257.54 197.21.55-5.91-5.23-2.41a12.5 12.5 0 0 1-7.63 1.78c-8.46-1.35-18.07-6.83-18.07-6.83s1.24 14.9.28 25.64z" style="fill:#263238;stroke:#263238;stroke-linecap:round;stroke-linejoin:round"/><path d="M258.11 119.7s-10.57 16.35-25.77 23.66-22.11 7.69-22.11 7.69 5.19 26.54 7.5 29.42 19.23 19.62 26.73 20.78 11.35-1.93 13.08-4 14.42-13.27 16.54-20.39 2.11-38.46 2.11-38.46-16.19-8.31-18.08-18.7z" style="fill:#fff;stroke:#263238;stroke-linecap:round;stroke-linejoin:round"/><path d="M234.65 148.09s-9.62-4.43-13.46 1.54" style="fill:none;stroke:#263238;stroke-linecap:round;stroke-linejoin:round;stroke-width:2px"/><path d="M276.39 139.7s2.88-8.85 5.77-3.65-.77 16-3.08 19.23l-3.27 4.62zM210.23 151.05s-7.12-9.23-8.47.19 11.73 15.39 11.73 15.39z" style="fill:#fff;stroke:#263238;stroke-linecap:round;stroke-linejoin:round"/><path d="M238.5 173.55s3.07 2.31 5.57 1.73a7.31 7.31 0 0 0 3.85-2.31M235.23 181.05a14.69 14.69 0 0 0 9.81 2.12c5.77-.77 9.8-5.58 9.8-5.58" style="fill:none;stroke:#263238;stroke-linecap:round;stroke-linejoin:round"/><ellipse cx="255.42" cy="158.55" rx="2.98" ry="4.33" style="fill:#263238"/><path d="M233.21 160.09c0 2.39-1.34 4.33-3 4.33s-3-1.94-3-4.33 1.33-4.33 3-4.33 3 1.94 3 4.33z" style="fill:#263238"/><path d="M250 145.09s9.61-4.43 13.46 1.54" style="fill:none;stroke:#263238;stroke-linecap:round;stroke-linejoin:round;stroke-width:2px"/><path d="M362 290.1c-3.94.64-8.26 1.85-9.69 4.15-2.86 4.58-33.77 35.2-36.92 38.06s-4.58 4-4.58 4 13.17 6 16 10.3 4 5.44 4.29 6.58 1.72-2.29 5.44-6.3 6-6 6-6 25.18-13.74 29.47-15.74 12.88-8 14.88-13.45 4.3-13.74 2.86-23.18-16.59-18-17.74-18.89" style="fill:#c2c2c2;stroke:#263238;stroke-linecap:round;stroke-linejoin:round"/><path d="M369.49 289.39s-1.76 0-4.17.27" style="fill:#c2c2c2;stroke:#263238;stroke-linecap:round;stroke-linejoin:round"/><path d="M310.82 336.32c-1.89-.28-15.16 12.3-18.6 14.59s-8 5.72-8 8.3-5.44 19.74-5.15 24.61-1.13 8.77 2.29 10.3c1.52.68 3.43-2 3.43-2s3.15 2 5.15 1.43 2.87-3.15 2.87-3.15 2-7.44 2.86-8.3a34.57 34.57 0 0 0 2.86-4.58s-5.15 15.17-2.86 16.6 3.72.57 5.15-1.43 3.15-4.86 3.15-4.86-.34 5 3.09 3.61 7.23-13.3 7.23-13.3 2.27-4.05 3.7-5.19a20.8 20.8 0 0 0 6-6.3 141.63 141.63 0 0 0 7.15-13.45s-4.86-14.59-20.32-16.88z" style="fill:#fff;stroke:#263238;stroke-linecap:round;stroke-linejoin:round"/><path d="M284.78 392.12s2.9-12.84 3.58-16.28 8.14-16.51 8.14-16.51M298.52 377.52l6.01-14.52M304 387.83l4.59-12s4.35-9.51 4.58-9.86" style="fill:none;stroke:#263238;stroke-linecap:round;stroke-linejoin:round"/><path d="M206.42 369.64s17.8-5.37 21.64-6.38 6.25 1 7.86 3.63 10.69 16.54 10.9 17.55-.81 1.61-1.82 2.22-5.24 2.21-5.24 2.21-12.31 3.43-13.72 3.64-6.86-2.22-6.86-2.22a36.64 36.64 0 0 1-11.7.8c-6.45-.6-13.92-7.26-13.92-7.26s6.75-11.83 12.86-14.19z" style="fill:#fff;stroke:#263238;stroke-linecap:round;stroke-linejoin:round"/><path style="fill:none;stroke:#263238;stroke-linecap:round;stroke-linejoin:round" d="m227.45 368.91 14.32 19.36M220.59 371.53l15.74 18.35M216 376.17s14.12 13.91 13.72 15.13M219.18 390.29l.81-2.63 2.62.81"/></g></svg>