<svg xmlns="http://www.w3.org/2000/svg" viewBox="0 0 750 500"><path d="M692.76 364.88c17.27-32 19.82-68.47 15.77-103.71-3.59-31.26-9-67.12-24.17-95.33C646 94.36 548.89 60.81 470.07 82.3c-32.88 9-55.94 29.75-82.33 49.53-19.52 14.62-40.93 28.89-66.15 31.81-60.39 7-129.12-50-186.39-45s-102 56-104.13 100 41.65 89 37.49 119-31.24 110 76 113 163.48-57 205.14-44 133.28 51 210.33 41c50.27-6.53 99.42-31.21 127-73.15q3.1-4.71 5.73-9.61z" style="fill:#6942d9"/><path d="M692.76 364.88c17.27-32 19.82-68.47 15.77-103.71-3.59-31.26-9-67.12-24.17-95.33C646 94.36 548.89 60.81 470.07 82.3c-32.88 9-55.94 29.75-82.33 49.53-19.52 14.62-40.93 28.89-66.15 31.81-60.39 7-129.12-50-186.39-45s-102 56-104.13 100 41.65 89 37.49 119-31.24 110 76 113 163.48-57 205.14-44 133.28 51 210.33 41c50.27-6.53 99.42-31.21 127-73.15q3.1-4.71 5.73-9.61z" style="fill:#fff;opacity:.8"/><path d="M394 75.93h-86.48l2.23-3c1.17-1.55 2.94-1.54 4.23-1.53a3.17 3.17 0 0 0 1.59-.2 5.69 5.69 0 0 0 .92-1.29 15.13 15.13 0 0 1 5.65-5.81c2.55-1.5 5.28-1 7.27-.6s2.86.45 3.11-.46c1-3.69 3.54-7.43 7.62-6.89a25.53 25.53 0 0 1 3.52.82c3.45 1 5.61 1.41 6.56-.8 1.65-3.86 4.78-8.81 12.8-7.09 7.69 1.65 11 10.06 11.23 10.63 1.64 3.52 4.76 3.2 8.38 2.84 3.14-.32 6.39-.64 8.9 1.61 5.38 4.8 2.6 11.38 2.57 11.45zm-84.45-1h83.75a9.1 9.1 0 0 0-2.44-10c-2.18-2-5.2-1.65-8.13-1.36-3.67.37-7.46.75-9.39-3.43 0-.08-3.26-8.47-10.51-10s-10 2.67-11.67 6.51c-1.36 3.16-4.61 2.25-7.75 1.36a24.32 24.32 0 0 0-3.39-.79c-4.32-.58-6.08 4.57-6.52 6.16-.52 1.89-2.33 1.55-4.25 1.18s-4.36-.83-6.58.48a14.32 14.32 0 0 0-5.31 5.47 5.45 5.45 0 0 1-1.2 1.49 3.66 3.66 0 0 1-2.19.4c-1.26 0-2.56 0-3.42 1.13zM171.76 147.16H85.31l2.23-3c1.16-1.55 2.93-1.54 4.23-1.53a3.24 3.24 0 0 0 1.58-.2 5.33 5.33 0 0 0 .92-1.29 15.28 15.28 0 0 1 5.65-5.81c2.56-1.5 5.29-1 7.28-.6s2.85.45 3.1-.46c1-3.69 3.54-7.44 7.62-6.9a26.75 26.75 0 0 1 3.52.83c3.45 1 5.62 1.4 6.56-.8 1.66-3.87 4.79-8.81 12.8-7.09 7.7 1.65 11 10.06 11.24 10.63 1.63 3.52 4.76 3.2 8.38 2.84 3.14-.32 6.38-.65 8.9 1.6 5.37 4.81 2.6 11.39 2.57 11.45zm-84.45-1h83.78a9.14 9.14 0 0 0-2.44-10c-2.19-2-5.21-1.65-8.13-1.36-3.67.37-7.47.75-9.4-3.43 0-.08-3.26-8.47-10.52-10s-10 2.66-11.67 6.5c-1.36 3.17-4.61 2.25-7.75 1.37a24.53 24.53 0 0 0-3.38-.79c-4.33-.57-6.09 4.57-6.52 6.16-.52 1.89-2.34 1.54-4.26 1.18s-4.35-.83-6.58.48a14.21 14.21 0 0 0-5.3 5.47 5.84 5.84 0 0 1-1.14 1.51 3.68 3.68 0 0 1-2.19.4c-1.25 0-2.56 0-3.42 1.13zM678 125.59H527.3l3.46-4.62c1.93-2.56 4.81-2.54 7.11-2.53a5.52 5.52 0 0 0 3-.43 9.43 9.43 0 0 0 1.71-2.36 26.37 26.37 0 0 1 9.79-10.07c4.35-2.56 8.87-1.7 12.5-1s5.33.92 5.87-1.08c1.73-6.32 6-12.73 13-11.81a45 45 0 0 1 6.12 1.43c5.39 1.52 10 2.84 12-1.61 2.85-6.66 8.24-15.17 22-12.22 13.21 2.83 19.14 17.78 19.4 18.41 3 6.43 8.85 5.83 15.08 5.21 5.43-.55 11-1.11 15.32 2.73 9.23 8.25 4.47 19.54 4.42 19.65zm-148.65-1h148c.69-1.81 3.68-11.08-4.29-18.21-4-3.54-9.34-3-14.55-2.47-6.31.63-12.83 1.28-16.1-5.8-.06-.15-5.79-15-18.72-17.81s-18 4.76-20.9 11.63c-2.26 5.26-7.8 3.69-13.15 2.18a45.71 45.71 0 0 0-6-1.4c-7.9-1-11.07 8.22-11.85 11.08s-3.69 2.44-7 1.8-7.78-1.48-11.81.89a25.55 25.55 0 0 0-9.43 9.72 9.73 9.73 0 0 1-2 2.65c-.86.65-2.13.64-3.61.63-2.2 0-4.68 0-6.31 2.13z" style="fill:#263238"/><path d="M738.15 237.83c0 45.11-25.3 48.52-56.5 48.52s-56.5-3.41-56.5-48.52 25.3-139.4 56.5-139.4 56.5 94.29 56.5 139.4z" style="fill:#6942d9"/><path d="M738.15 237.83c0 45.11-25.3 48.52-56.5 48.52s-56.5-3.41-56.5-48.52 25.3-139.4 56.5-139.4 56.5 94.29 56.5 139.4z" style="fill:#fff;opacity:.5"/><path style="fill:#8f8f8f" d="m700.75 258.3-9.34.64 24.34-16.41-17.38 8.79 2.38-6.86-7.95 9.67-9.32 4.71-.74-32.39 4.94-11.99-5.06 6.74-.43-18.78 15.49-20.64-15.59 15.96-.95-41.34-.83 26.46-9.93-11.08 9.77 16.16-1.32 41.91-8.65-5.65-7.88-13.97 3.16 10.88L650 211l28.64 24.71-4.34 137.56h11.8l-2.49-109.07 2.72-1.83 14.42-4.07z"/><path d="M535.27 237.83c0 45.11-25.29 48.52-56.5 48.52s-56.5-3.41-56.5-48.52 25.3-139.4 56.5-139.4 56.5 94.29 56.5 139.4z" style="fill:#6942d9"/><path d="M535.27 237.83c0 45.11-25.29 48.52-56.5 48.52s-56.5-3.41-56.5-48.52 25.3-139.4 56.5-139.4 56.5 94.29 56.5 139.4z" style="fill:#fff;opacity:.5"/><path style="fill:#8f8f8f" d="m497.88 258.3-9.35.64 24.34-16.41-17.38 8.79 2.39-6.86-7.95 9.67-9.32 4.71-.74-32.39 4.93-11.99-5.05 6.74-.43-18.78 15.48-20.64-15.59 15.96-.95-41.34-.83 26.46-9.93-11.08 9.77 16.16-1.32 41.91-8.65-5.65-7.88-13.97 3.16 10.88L447.12 211l28.64 24.71-4.33 137.56h11.79l-2.49-109.07 2.72-1.83 14.43-4.07z"/><path d="M332.39 237.83c0 45.11-25.29 48.52-56.49 48.52s-56.5-3.41-56.5-48.52 25.29-139.4 56.5-139.4 56.49 94.29 56.49 139.4z" style="fill:#6942d9"/><path d="M332.39 237.83c0 45.11-25.29 48.52-56.49 48.52s-56.5-3.41-56.5-48.52 25.29-139.4 56.5-139.4 56.49 94.29 56.49 139.4z" style="fill:#fff;opacity:.5"/><path style="fill:#8f8f8f" d="m295 258.3-9.35.64L310 242.53l-17.39 8.79 2.39-6.86-7.95 9.67-9.32 4.71-.74-32.39 4.94-11.99-5.06 6.74-.43-18.78 15.48-20.64-15.59 15.96-.94-41.34-.84 26.46-9.93-11.08 9.77 16.16-1.32 41.91-8.65-5.65-7.87-13.97 3.15 10.88L244.24 211l28.65 24.71-4.34 137.56h11.79l-2.49-109.07 2.73-1.83L295 258.3z"/><path d="M129.52 237.83c0 45.11-25.3 48.52-56.5 48.52s-56.5-3.41-56.5-48.52S41.82 98.43 73 98.43s56.52 94.29 56.52 139.4z" style="fill:#6942d9"/><path d="M129.52 237.83c0 45.11-25.3 48.52-56.5 48.52s-56.5-3.41-56.5-48.52S41.82 98.43 73 98.43s56.52 94.29 56.52 139.4z" style="fill:#fff;opacity:.5"/><path style="fill:#8f8f8f" d="m92.12 258.3-9.34.64 24.34-16.41-17.39 8.79 2.39-6.86-7.95 9.67-9.32 4.71-.74-32.39 4.94-11.99-5.06 6.74-.43-18.78 15.49-20.64-15.59 15.96-.95-41.34-.83 26.46-9.94-11.08 9.78 16.16-1.33 41.91-8.64-5.65-7.88-13.97 3.16 10.88L41.37 211l28.64 24.71-4.34 137.56h11.8l-2.5-109.07 2.73-1.83 14.42-4.07z"/><g><path d="M736.2 446.46H11.34a.51.51 0 0 1-.5-.5.5.5 0 0 1 .5-.5H736.2a.5.5 0 0 1 .5.5.5.5 0 0 1-.5.5zM736.2 373.33H11.34a.5.5 0 1 1 0-1H736.2a.5.5 0 0 1 0 1z" style="fill:#263238"/></g><g><path d="M550.77 298.17s7.28 5.39 20.21 12.93 17.78 8.62 19.13 8.89 52-15.35 52-15.35 1.34 3.23 3 6.73 3.23 10.51 3 12.93 5.12 0 5.66-1.07 2.16-9.16 1.62-11.86-3.24-10.24-3.24-11.85 2.7-7-3.5-7.28-11.31 6.47-12.12 7-14 3.5-22.9 1.08-22.9-1.62-22.9-1.62a136.28 136.28 0 0 0-13.74-18.32c-7.28-7.82-10-9.7-10-9.7z" style="fill:#fff"/><path d="M649.1 325.84a2.09 2.09 0 0 1-.63-.08 1.28 1.28 0 0 1-.93-1.51c.26-2.34-1.33-9.21-2.92-12.67-1.27-2.74-2.38-5.34-2.8-6.33-12.39 3.82-50.49 15.5-51.81 15.23-5-1-13.22-5.41-19.28-9-12.81-7.47-20.18-12.9-20.26-13a.5.5 0 0 1-.13-.65l16.17-27.49a.48.48 0 0 1 .32-.23.49.49 0 0 1 .39.08c.12.08 2.82 2 10 9.77a135.27 135.27 0 0 1 13.64 18.15c2.09-.11 14.62-.58 22.77 1.64 8.84 2.41 21.73-.57 22.5-1 .09-.06.4-.39.71-.71 1.9-2 6.39-6.57 11.7-6.38a4.88 4.88 0 0 1 3.85 1.56c1.13 1.47.67 3.53.34 5a7.66 7.66 0 0 0-.2 1.19 42.57 42.57 0 0 0 1.69 6.36c.66 2.16 1.29 4.2 1.53 5.39.57 2.87-1.09 11-1.66 12.18-.41 1.03-3.24 2.5-4.99 2.5zm-7-21.7a.5.5 0 0 1 .46.3s1.36 3.27 2.95 6.72c1.69 3.65 3.29 10.68 3 13.2 0 .36.1.41.23.44 1.17.35 4.19-1.22 4.48-1.8.48-.95 2.1-8.92 1.58-11.53-.23-1.14-.88-3.26-1.51-5.3a39.57 39.57 0 0 1-1.73-6.65 6.9 6.9 0 0 1 .23-1.41c.29-1.31.68-3.1-.16-4.2a4 4 0 0 0-3.1-1.17c-4.9-.24-9.13 4.19-10.94 6.07a7.93 7.93 0 0 1-.88.85c-1 .64-14.41 3.58-23.31 1.15-8.71-2.38-22.61-1.61-22.75-1.6a.5.5 0 0 1-.45-.24 135.69 135.69 0 0 0-13.68-18.24 103.39 103.39 0 0 0-9.46-9.3L551.43 298c1.63 1.17 8.64 6.13 19.8 12.64 8.6 5 15.16 8.07 19 8.83 1.52 0 31.79-9.18 51.75-15.34a.39.39 0 0 1 .13.01z" style="fill:#263238"/><path d="M576.91 280.39c-7.28-7.82-10-9.7-10-9.7l-16.17 27.48s7.28 5.39 20.21 12.93l1.92 1.11c3-4.53 9.17-13.19 14.76-18.06a122.31 122.31 0 0 0-10.72-13.76z" style="fill:#263238"/><path d="M572.9 312.71a.55.55 0 0 1-.25-.07l-1.92-1.11c-12.81-7.47-20.18-12.9-20.26-13a.5.5 0 0 1-.13-.65l16.17-27.49a.48.48 0 0 1 .32-.23.49.49 0 0 1 .39.08c.12.08 2.82 2 10 9.77a122.73 122.73 0 0 1 10.81 13.82.51.51 0 0 1-.09.66c-5.51 4.79-11.56 13.3-14.68 18a.48.48 0 0 1-.36.22zM551.43 298c1.63 1.17 8.64 6.13 19.8 12.64l1.51.87c3.15-4.66 8.91-12.69 14.26-17.47a120.67 120.67 0 0 0-10.46-13.34 103.39 103.39 0 0 0-9.46-9.3z" style="fill:#263238"/><path d="M652.07 299.52c0-1.62 2.7-7-3.5-7.28s-11.31 6.47-12.12 7a23.48 23.48 0 0 1-4.58 1.1 27.53 27.53 0 0 1 1.53 7l8.71-2.67s1.34 3.23 3 6.73 3.23 10.51 3 12.93 5.12 0 5.66-1.07 2.16-9.16 1.62-11.86-3.32-10.27-3.32-11.88z" style="fill:#fff"/><path d="M649.1 325.84a2.09 2.09 0 0 1-.63-.08 1.28 1.28 0 0 1-.93-1.51c.26-2.34-1.33-9.21-2.92-12.67-1.27-2.74-2.38-5.34-2.8-6.33l-8.27 2.54a.51.51 0 0 1-.43-.07.49.49 0 0 1-.21-.37 27.25 27.25 0 0 0-1.51-6.83.51.51 0 0 1 0-.42.49.49 0 0 1 .35-.24 25.19 25.19 0 0 0 4.4-1c.09-.06.4-.39.71-.71 1.9-2 6.39-6.57 11.7-6.38a4.88 4.88 0 0 1 3.85 1.56c1.13 1.47.67 3.53.34 5a7.66 7.66 0 0 0-.2 1.19 42.57 42.57 0 0 0 1.69 6.36c.66 2.16 1.29 4.2 1.53 5.39.57 2.87-1.09 11-1.66 12.18-.43.92-3.26 2.39-5.01 2.39zm-7-21.7a.5.5 0 0 1 .46.3s1.36 3.27 2.95 6.72c1.69 3.65 3.29 10.68 3 13.2 0 .36.1.41.23.44 1.17.35 4.19-1.22 4.48-1.8.48-.95 2.1-8.92 1.58-11.53-.23-1.14-.88-3.26-1.51-5.3a39.57 39.57 0 0 1-1.73-6.65 6.9 6.9 0 0 1 .23-1.41c.29-1.31.68-3.1-.16-4.2a4 4 0 0 0-3.1-1.17c-4.9-.24-9.13 4.19-10.94 6.07a7.93 7.93 0 0 1-.88.85 19.25 19.25 0 0 1-4.2 1.08 27.22 27.22 0 0 1 1.31 5.91l8.12-2.49a.39.39 0 0 1 .17-.02z" style="fill:#263238"/><path d="M642.11 304.64s1.34 3.23 3 6.73 3.23 10.51 3 12.93 5.12 0 5.66-1.07 2.16-9.16 1.62-11.86-3.24-10.24-3.24-11.85 2.7-7-3.5-7.28-11.31 6.47-12.12 7c0 0 5.66.54 6.73.81s-1.15 4.59-1.15 4.59z" style="fill:#fff"/><path d="M649.1 325.84a2.09 2.09 0 0 1-.63-.08 1.28 1.28 0 0 1-.93-1.51c.26-2.34-1.33-9.21-2.92-12.67s-3-6.72-3-6.75a.51.51 0 0 1 0-.42 10.63 10.63 0 0 0 1.32-3.89c-1-.22-5.06-.63-6.58-.77a.5.5 0 0 1-.44-.38.52.52 0 0 1 .21-.54 8.51 8.51 0 0 0 .72-.71c1.9-2 6.39-6.57 11.7-6.38a4.88 4.88 0 0 1 3.85 1.56c1.13 1.47.67 3.53.34 5a7.66 7.66 0 0 0-.2 1.19 42.57 42.57 0 0 0 1.69 6.36c.66 2.16 1.29 4.2 1.53 5.39.57 2.87-1.09 11-1.66 12.18-.42.95-3.25 2.42-5 2.42zm-6.44-21.19c.32.77 1.5 3.56 2.86 6.51 1.69 3.65 3.29 10.68 3 13.2 0 .36.1.41.23.44 1.17.35 4.19-1.22 4.48-1.8.48-.95 2.1-8.92 1.58-11.53-.23-1.14-.88-3.26-1.51-5.3a39.57 39.57 0 0 1-1.73-6.65 6.9 6.9 0 0 1 .23-1.41c.29-1.31.68-3.1-.16-4.2a4 4 0 0 0-3.1-1.17c-4.9-.24-9.13 4.19-10.94 6.07v.05c1.71.17 4.92.51 5.73.71a.81.81 0 0 1 .57.48c.42.95-.66 3.4-1.24 4.6z" style="fill:#263238"/><path d="M529.51 287.88s-23.27 23.49-26.22 33.92L484 384.18l4.54 7.49s7.93-13.38 21.77-32.21c9.55-13 9.76-29.94 9.76-29.94s30.16-23.59 37-28.13 17.47-12.93 16.33-21.55-11.7-19.54-15.15-20.09-28.74 28.13-28.74 28.13z" style="fill:#fff"/><path d="M488.55 392.17a.5.5 0 0 1-.43-.24l-4.54-7.49a.51.51 0 0 1-.05-.4l19.28-62.38c2.94-10.4 25.24-33 26.34-34.12 4.22-4.79 25.13-28.29 29-28.29h.13c3.81.61 14.44 11.93 15.57 20.53 1.1 8.35-8.4 16.59-16.55 22-6.44 4.29-34.21 26-36.76 28-.08 2.13-.93 17.85-9.85 30-13.66 18.59-21.66 32-21.74 32.17a.5.5 0 0 1-.43.25zm-4-8.05 4 6.58c1.83-3 9.46-15.33 21.37-31.54 9.35-12.72 9.65-29.48 9.66-29.65a.51.51 0 0 1 .19-.39c.3-.23 30.26-23.65 37-28.15 7.92-5.28 17.15-13.22 16.11-21.06-1.11-8.5-11.62-19.17-14.73-19.67-2.09-.36-16.1 14.17-28.26 28-.24.24-23.22 23.52-26.1 33.71zm45-96.24z" style="fill:#263238"/><path d="M573.38 279.84c-1.13-8.62-11.7-19.54-15.15-20.09s-28.72 28.13-28.72 28.13a262.43 262.43 0 0 0-18.13 20.52c5.49.59 15.45 2.75 22.25 10.59 9-6.91 19.69-15.11 23.42-17.6 6.8-4.54 17.47-12.93 16.33-21.55z" style="fill:#263238"/><path d="M533.63 319.49a.52.52 0 0 1-.38-.17c-6.72-7.75-16.62-9.86-21.92-10.42a.48.48 0 0 1-.41-.3.5.5 0 0 1 .06-.5 264.08 264.08 0 0 1 18.18-20.57c4.18-4.75 25.11-28.28 29-28.28h.13c3.81.61 14.44 11.93 15.57 20.53 1.1 8.35-8.4 16.59-16.55 22-3.77 2.51-14.8 10.94-23.4 17.58a.47.47 0 0 1-.28.13zM512.32 308c5.52.7 14.8 3 21.37 10.3 8.55-6.6 19.35-14.85 23.08-17.34 7.92-5.28 17.15-13.22 16.11-21.06-1.11-8.5-11.62-19.17-14.73-19.67-2.09-.36-16.1 14.17-28.26 28-.12.11-9.97 10.08-17.57 19.77z" style="fill:#263238"/><path d="m484 384.18 4.54 7.49a59.11 59.11 0 0 0 6.12-10 38.44 38.44 0 0 0-8.11-5.75z" style="fill:#fff"/><path d="M488.55 392.17a.49.49 0 0 1-.4-.24l-4.54-7.49a.51.51 0 0 1-.05-.4l2.55-8.25a.53.53 0 0 1 .3-.32.54.54 0 0 1 .43 0l.61.35a37.64 37.64 0 0 1 7.59 5.47.5.5 0 0 1 .11.58 60.53 60.53 0 0 1-6.21 10.13.51.51 0 0 1-.39.17zm-4-8.05 4 6.66a60.06 60.06 0 0 0 5.47-9 36.56 36.56 0 0 0-7.14-5.09h-.07zM352.34 259.63a.25.25 0 0 1-.19-.09l-12.8-15.61a.25.25 0 0 1 0-.35.24.24 0 0 1 .35 0l12.8 15.6a.24.24 0 0 1 0 .35.23.23 0 0 1-.16.1zM356.46 261.47a.25.25 0 0 1-.19-.09l-17.74-21.63a.26.26 0 0 1 0-.36.25.25 0 0 1 .35 0l17.74 21.63a.24.24 0 0 1 0 .35.25.25 0 0 1-.16.1zM360.5 263.21a.25.25 0 0 1-.2-.09l-21.32-26a.25.25 0 1 1 .38-.31l21.33 26a.24.24 0 0 1 0 .35.22.22 0 0 1-.19.05zM363.25 263.38a.25.25 0 0 1-.19-.09l-23.63-28.81a.25.25 0 0 1 0-.35.26.26 0 0 1 .36 0L363.44 263a.25.25 0 0 1 0 .35.27.27 0 0 1-.19.03zM366 263.56a.23.23 0 0 1-.19-.1L341 233.2a.25.25 0 0 1 0-.35.26.26 0 0 1 .36 0l24.82 30.26a.25.25 0 0 1 0 .35.25.25 0 0 1-.18.1zM367.56 262.28a.25.25 0 0 1-.19-.09L341.75 231a.25.25 0 0 1 0-.35.24.24 0 0 1 .35 0l25.62 31.24a.24.24 0 0 1 0 .35.25.25 0 0 1-.16.04zM369.52 261.48a.26.26 0 0 1-.2-.1l-26.2-31.95a.25.25 0 0 1 0-.35.26.26 0 0 1 .36 0l26.2 31.95a.24.24 0 0 1 0 .35.22.22 0 0 1-.16.1zM371.17 260.31a.25.25 0 0 1-.19-.09l-26.49-32.3a.24.24 0 0 1 0-.35.25.25 0 0 1 .35 0l26.49 32.31a.24.24 0 0 1 0 .35.3.3 0 0 1-.16.08zM372.63 258.92a.25.25 0 0 1-.19-.09l-26.25-32a.25.25 0 0 1 0-.35.25.25 0 0 1 .36 0l26.25 32a.25.25 0 0 1 0 .35.23.23 0 0 1-.17.09zM373.8 257.16a.25.25 0 0 1-.19-.09L348 225.83a.25.25 0 0 1 .39-.32L374 256.75a.25.25 0 0 1 0 .35.23.23 0 0 1-.2.06zM375.36 255.88a.25.25 0 0 1-.19-.09L349.93 225a.25.25 0 0 1 0-.35.24.24 0 0 1 .35 0l25.24 30.77a.25.25 0 0 1 0 .35.25.25 0 0 1-.16.11zM376.92 254.6a.25.25 0 0 1-.19-.09l-24.82-30.26a.25.25 0 0 1 0-.35.25.25 0 0 1 .36 0l24.82 30.26a.25.25 0 0 1 0 .35.25.25 0 0 1-.17.09zM376.1 250.41a.27.27 0 0 1-.2-.09l-21.79-26.58a.25.25 0 0 1 0-.35.24.24 0 0 1 .35 0L376.29 250a.25.25 0 0 1 0 .35.27.27 0 0 1-.19.06zM376.46 247.68a.26.26 0 0 1-.19-.1l-19-23.19a.25.25 0 1 1 .38-.32l19 23.2a.25.25 0 0 1 0 .35.25.25 0 0 1-.19.06zM375.46 243.28a.26.26 0 0 1-.19-.1l-15.36-18.72a.25.25 0 0 1 0-.35.24.24 0 0 1 .35 0l15.35 18.72a.25.25 0 0 1-.19.41z" style="fill:#263238"/><path d="M339.83 241.19a.25.25 0 0 1-.16-.45l18.72-15.35a.25.25 0 0 1 .35 0 .26.26 0 0 1 0 .36L340 241.13a.27.27 0 0 1-.17.06zM338.72 239.84a.25.25 0 0 1-.19-.09.26.26 0 0 1 0-.36L357.28 224a.25.25 0 0 1 .35 0 .25.25 0 0 1 0 .36l-18.72 15.35a.25.25 0 0 1-.19.13zM339.17 237.2a.23.23 0 0 1-.19-.09.24.24 0 0 1 0-.35l15.6-12.8a.26.26 0 0 1 .36 0 .25.25 0 0 1 0 .35l-15.6 12.8a.25.25 0 0 1-.17.09zM339.62 234.57a.25.25 0 0 1-.19-.09.25.25 0 0 1 0-.35l13.27-10.88a.25.25 0 0 1 .35 0 .24.24 0 0 1 0 .35l-13.26 10.88a.28.28 0 0 1-.17.09zM339.55 244a.27.27 0 0 1-.2-.09.25.25 0 0 1 0-.35l21.84-17.91a.25.25 0 1 1 .31.39L339.71 244a.25.25 0 0 1-.16 0zM340.83 245.59a.23.23 0 0 1-.19-.09.25.25 0 0 1 0-.36l21.84-17.91a.25.25 0 0 1 .32.39L341 245.53a.27.27 0 0 1-.17.06zM342.11 247.15a.28.28 0 0 1-.2-.1.25.25 0 0 1 0-.35l22.83-18.7a.25.25 0 0 1 .35 0 .24.24 0 0 1 0 .35l-22.78 18.69a.27.27 0 0 1-.2.11zM342.69 249.27a.25.25 0 0 1-.19-.09.24.24 0 0 1 0-.35l23.65-19.4a.25.25 0 0 1 .32.38l-23.66 19.41a.28.28 0 0 1-.12.05zM343.8 251a.25.25 0 0 1-.19-.09.24.24 0 0 1 0-.35l24-19.69a.25.25 0 1 1 .31.38l-24 19.69a.25.25 0 0 1-.12.06zM345 252.63a.25.25 0 0 1-.19-.09.24.24 0 0 1 0-.35l24.31-19.94a.25.25 0 0 1 .35 0 .24.24 0 0 1 0 .35l-24.31 19.94a.24.24 0 0 1-.16.09zM346.36 254.1a.23.23 0 0 1-.2-.1.25.25 0 0 1 0-.35L370.15 234a.25.25 0 1 1 .31.39L346.52 254a.27.27 0 0 1-.16.1zM347.81 255.52a.26.26 0 0 1-.19-.1.25.25 0 0 1 0-.35l23.66-19.4a.24.24 0 0 1 .35 0 .25.25 0 0 1 0 .35L348 255.46a.23.23 0 0 1-.19.06zM349.78 256.51a.25.25 0 0 1-.19-.09.26.26 0 0 1 0-.36l22.73-18.64a.25.25 0 1 1 .31.39l-22.73 18.64a.23.23 0 0 1-.12.06zM351.06 258.07a.26.26 0 0 1-.19-.1.25.25 0 0 1 0-.35l22.33-18.31a.25.25 0 0 1 .35 0 .24.24 0 0 1 0 .35L351.22 258a.25.25 0 0 1-.16.07zM352.34 259.63a.25.25 0 0 1-.19-.09.26.26 0 0 1 0-.36L374 241.27a.26.26 0 0 1 .36 0 .25.25 0 0 1 0 .35l-21.86 17.95a.23.23 0 0 1-.16.06zM355.18 259.91a.25.25 0 0 1-.19-.09.26.26 0 0 1 0-.36l20.28-16.63a.25.25 0 0 1 .35 0 .24.24 0 0 1 0 .35l-20.28 16.63a.25.25 0 0 1-.16.1zM356.46 261.47a.25.25 0 0 1-.19-.09.26.26 0 0 1 0-.36L375 245.67a.25.25 0 0 1 .35 0 .25.25 0 0 1 0 .36l-18.72 15.35a.25.25 0 0 1-.17.09zM359.3 261.75a.25.25 0 0 1-.19-.09.25.25 0 0 1 0-.35l17.16-14.08a.26.26 0 0 1 .36 0 .25.25 0 0 1 0 .35l-17.16 14.07a.25.25 0 0 1-.17.1zM360.5 263.21a.25.25 0 0 1-.2-.09.26.26 0 0 1 0-.36L375.94 250a.24.24 0 0 1 .35 0 .25.25 0 0 1 0 .35l-15.61 12.8a.22.22 0 0 1-.18.06zM363.25 263.38a.25.25 0 0 1-.19-.09.24.24 0 0 1 0-.35l12.48-10.24a.24.24 0 0 1 .35 0 .25.25 0 0 1 0 .35l-12.48 10.23a.25.25 0 0 1-.16.1zM366 263.56a.23.23 0 0 1-.19-.1.25.25 0 0 1 0-.35l10.92-9a.26.26 0 0 1 .36 0 .25.25 0 0 1 0 .35l-10.92 9a.25.25 0 0 1-.17.1z" style="fill:#263238"/><path d="m375.87 256.33.21-.22s-1.49 5.38.72 9.21l-.55.45-.56.46c-3.32-2.92-8.86-2.53-8.86-2.53l.23-.15a15.61 15.61 0 0 1-3.08.18l-.24.16s8.35 0 12.95 4l.79-.65.78-.65c-3-5.29-1.38-13.51-1.38-13.51l-.23.24a15.5 15.5 0 0 1-.78 3.01z" style="fill:#263238"/><path d="M376.69 268.42a.46.46 0 0 1-.33-.13c-4.4-3.82-12.54-3.9-12.62-3.9a.51.51 0 0 1-.27-.93l.25-.15a.51.51 0 0 1 .28-.08 15.23 15.23 0 0 0 3-.17.47.47 0 0 1 .41.12c1.5 0 5.49.17 8.3 2.4l.48-.39c-1.61-3.16-1-7.07-.72-8.58a.51.51 0 0 1-.05-.45 15.3 15.3 0 0 0 .76-2.89.43.43 0 0 1 .13-.26l.22-.24a.52.52 0 0 1 .6-.1.51.51 0 0 1 .26.54c0 .08-1.56 8.1 1.33 13.17a.5.5 0 0 1-.12.63l-1.6 1.29a.47.47 0 0 1-.31.12zm-.79-1.74c.27.19.54.38.79.59l.94-.77c-.15-.29-.29-.59-.42-.89l-.09.09-1.11.91a.34.34 0 0 1-.11.07z" style="fill:#263238"/><path d="M343.83 226.22c-7.23 5.93-7.17 18 .13 26.86s21.32 14 28.55 8.11 4.95-20.68-2.36-29.59-19.09-11.31-26.32-5.38zm27.65 33.71c-6.71 5.51-19.72.75-26.5-7.52s-6.83-19.43-.12-24.94 17.65-3.27 24.43 5 8.91 21.96 2.19 27.46z" style="fill:#fff"/><path d="M364.65 264.24c-7.32 0-15.94-4.58-21.08-10.84-7.46-9.1-7.49-21.47-.06-27.57a15.88 15.88 0 0 1 13.55-3 23.86 23.86 0 0 1 13.48 8.43 31.73 31.73 0 0 1 6.74 16.17c.65 6.21-.93 11.23-4.45 14.12a12.66 12.66 0 0 1-8.18 2.69zm-11.38-40.78a14.16 14.16 0 0 0-9.12 3.14c-7 5.75-6.92 17.49.2 26.17 7 8.53 20.69 13.9 27.84 8 3.26-2.67 4.71-7.37 4.1-13.24a30.66 30.66 0 0 0-6.53-15.64 22.83 22.83 0 0 0-12.9-8.08 17.89 17.89 0 0 0-3.59-.35zm-9.44 2.76zm20.34 36.59a20.4 20.4 0 0 1-6.06-1 29.5 29.5 0 0 1-13.52-9.08c-6.94-8.47-7-20 0-25.64s18.19-3.4 25.14 5.07a29.37 29.37 0 0 1 6.26 15c.61 5.78-.86 10.44-4.14 13.13a11.8 11.8 0 0 1-7.68 2.52zM353.63 225a13.14 13.14 0 0 0-8.45 2.9c-6.49 5.32-6.41 16.19.19 24.23a28.47 28.47 0 0 0 13 8.77c5.21 1.62 9.74 1.16 12.76-1.31 3-2.47 4.35-6.83 3.78-12.26a28.47 28.47 0 0 0-6.05-14.5c-4.12-5.12-9.86-7.83-15.23-7.83zM378.27 266.62l-.79.65-.8.65a28.23 28.23 0 0 0 1.93 4.37l16 19.56 1.79-1.46 1.78-1.47-16-19.56a28.82 28.82 0 0 0-3.91-2.74z" style="fill:#263238"/><path d="M394.65 292.35a.51.51 0 0 1-.39-.18l-16-19.56a27.45 27.45 0 0 1-2-4.52.5.5 0 0 1 .15-.55l1.6-1.31a.5.5 0 0 1 .57 0 27.36 27.36 0 0 1 4 2.86l16 19.55a.56.56 0 0 1 .11.37.52.52 0 0 1-.18.34l-3.51 2.89a.56.56 0 0 1-.35.11zm-17.38-24.27A24.33 24.33 0 0 0 379 272l15.73 19.17 2.8-2.3-15.73-19.17a23.31 23.31 0 0 0-3.48-2.45z" style="fill:#263238"/><path d="M394.57 292.42h-.05a.54.54 0 0 1-.34-.18l-.75-.92a.46.46 0 0 1-.11-.37.48.48 0 0 1 .18-.34l3.73-3.06a.51.51 0 0 1 .71.07l.75.92a.44.44 0 0 1 .11.36.5.5 0 0 1-.18.34l-3.74 3.07a.51.51 0 0 1-.31.11zm-.05-1.35.12.15 3-2.44-.12-.14z" style="fill:#263238"/><path d="M474.41 234.54s-14.21 9.24-14.65 10.12S446.13 270 446.13 270s-32.67 10.56-35.13 11.29-7.62 1.9-7.62 1.9l1.61 7.48s44-4.69 45.42-5.13 1.62-.29 2.64-1.47 21.25-23.44 21.25-23.44 15.53 9.38 28.57 14.65 19.34 7.18 19.34 7.18a16.58 16.58 0 0 1 3.08 2.93c.73 1.17 3.81 2.35 4.25 2.49s12-3.66 20.08-14.36 8.64-13.77 8.64-13.77l-11.72-6.6c-2.34-1.31-16.85-16.85-22-24.76s-5.28-8.65-7.91-8.5-22.72 2.93-27.41 4-14.81 10.65-14.81 10.65z" style="fill:#fff"/><path d="M405 291.17a.5.5 0 0 1-.49-.4l-1.61-7.47a.49.49 0 0 1 .37-.59c.06 0 5.15-1.18 7.59-1.9s32.27-10.35 35-11.22c1.19-2.22 13.11-24.33 13.52-25.16s10.46-7.47 14.79-10.28c.76-.72 10.33-9.77 15-10.79s24.77-3.82 27.48-4 3.13.6 6.89 6.44l1.47 2.29c5.09 7.86 19.6 23.36 21.81 24.6l11.72 6.59a.5.5 0 0 1 .24.53c0 .13-.7 3.32-8.73 14s-19.92 14.79-20.64 14.54c0 0-3.61-1.26-4.51-2.7a15.21 15.21 0 0 0-2.89-2.75c-.8-.25-7.19-2.27-19.29-7.16-11.85-4.8-25.9-13.06-28.3-14.48-2.42 2.67-20 22.05-21 23.13a3.48 3.48 0 0 1-2.23 1.43l-.64.19c-1.47.44-41 4.66-45.52 5.14zm-1-7.6 1.41 6.55c12.51-1.33 43.67-4.71 44.89-5.06l.67-.19a2.55 2.55 0 0 0 1.73-1.13c1-1.16 20.43-22.54 21.26-23.45a.5.5 0 0 1 .63-.09c.15.09 15.65 9.42 28.5 14.62s19.24 7.14 19.3 7.16l.15.08a17.08 17.08 0 0 1 3.21 3.07c.55.88 3 1.94 3.9 2.25 1.13-.18 12-4.07 19.6-14.16 6.42-8.52 8.06-12.18 8.44-13.23l-11.37-6.4c-2.39-1.35-16.94-16.88-22.15-24.93l-1.48-2.28c-3.77-5.88-4-6.1-6-6-2.61.15-22.72 2.94-27.32 4s-14.46 10.47-14.56 10.57l-.07.05c-5.31 3.45-13.94 9.2-14.5 9.95s-13.08 24.33-13.62 25.33a.47.47 0 0 1-.28.24c-.33.11-32.71 10.56-35.18 11.29-2.08.56-5.88 1.45-7.22 1.76zm70.48-49z" style="fill:#263238"/><path d="M524.53 228.39c-5.13-7.91-5.28-8.65-7.91-8.5s-22.72 2.93-27.41 4-14.8 10.69-14.8 10.69-14.21 9.24-14.65 10.12c-.24.48-4.3 8-7.92 14.76a32.15 32.15 0 0 0 16.91 7.29l5.52-6.08s15.53 9.38 28.57 14.65 19.35 7.18 19.35 7.18a16.63 16.63 0 0 1 3.07 2.93c.73 1.17 3.81 2.35 4.25 2.49s12-3.66 20.08-14.36 8.64-13.77 8.64-13.77l-11.72-6.6c-2.34-1.35-16.85-16.89-21.98-24.8z" style="fill:#6942d9"/><path d="M529.44 288.37h-.09s-3.61-1.26-4.51-2.7a14.92 14.92 0 0 0-2.89-2.75c-.8-.25-7.19-2.27-19.29-7.16-11.85-4.8-25.9-13.06-28.3-14.48l-5.24 5.78a.52.52 0 0 1-.44.16 32.48 32.48 0 0 1-17.17-7.41.5.5 0 0 1-.11-.62c4.84-9 7.72-14.37 7.91-14.75.46-.9 10.53-7.51 14.83-10.3.35-.35 10.2-9.73 15-10.77s24.77-3.82 27.48-4 3.13.6 6.89 6.44l1.47 2.29c5.09 7.86 19.6 23.36 21.81 24.6l11.72 6.59a.5.5 0 0 1 .24.53c0 .13-.7 3.32-8.73 14-7.93 10.49-19.31 14.55-20.58 14.55zm-55.17-28.24a.48.48 0 0 1 .26.07c.15.09 15.65 9.42 28.5 14.62s19.24 7.14 19.3 7.16l.15.08a16.74 16.74 0 0 1 3.21 3.07c.55.88 3 1.94 3.9 2.25 1.13-.18 12-4.08 19.6-14.16 6.42-8.52 8.06-12.18 8.44-13.23l-11.37-6.4c-2.39-1.35-16.94-16.88-22.15-24.93l-1.48-2.28c-3.77-5.88-4-6.1-6-6-2.61.15-22.72 2.94-27.32 4s-14.46 10.47-14.56 10.57c-5.38 3.5-14 9.25-14.57 10-.24.49-4.85 9.06-7.72 14.39a31.92 31.92 0 0 0 16.08 6.88l5.35-5.89a.49.49 0 0 1 .38-.2z" style="fill:#263238"/><path d="M521.67 251.75a.5.5 0 0 1-.49-.46.49.49 0 0 1 .46-.53c.94-.08 1.89-.18 2.82-.3a.51.51 0 0 1 .57.43.5.5 0 0 1-.44.56q-1.43.2-2.88.3zM517.43 251.92c-12.6 0-19.69-4.45-20-4.65a.5.5 0 1 1 .54-.84c.08 0 7.37 4.65 20.12 4.49a.47.47 0 0 1 .5.49.5.5 0 0 1-.49.51zM505 254h-.13a49.21 49.21 0 0 1-14.08-6.67.5.5 0 0 1-.12-.7.51.51 0 0 1 .7-.11 48.68 48.68 0 0 0 13.8 6.48.49.49 0 0 1 .35.61.5.5 0 0 1-.52.39zM463 254.84a.51.51 0 0 1-.31-.11 15.93 15.93 0 0 1-2.34-2.27.51.51 0 0 1 .08-.71.5.5 0 0 1 .7.08 14.89 14.89 0 0 0 2.19 2.12.5.5 0 0 1 .07.7.48.48 0 0 1-.39.19zM474.27 261.13a.43.43 0 0 1-.19 0 58.27 58.27 0 0 1-9.36-4.91.5.5 0 0 1 .55-.83 56.86 56.86 0 0 0 9.19 4.81.5.5 0 0 1 .27.65.49.49 0 0 1-.46.28z" style="fill:#263238"/><path style="fill:#fff" d="m403.35 283.19 1.61 7.48 4.66-.42-1.79-8.35-4.48 1.29z"/><path d="M405 291.17a.5.5 0 0 1-.49-.4l-1.61-7.47a.5.5 0 0 1 .35-.59l4.48-1.29a.56.56 0 0 1 .4.06.5.5 0 0 1 .23.32l1.79 8.35a.5.5 0 0 1-.45.6l-4.66.42zm-1-7.62 1.42 6.58 3.66-.33-1.56-7.27z" style="fill:#263238"/><path d="M391.78 280.33s-5.93 1.44-5.93 2.4 4.81 10.25 6.41 10.41 12.7-2.47 12.7-2.47l-1.61-7.48z" style="fill:#fff"/><path d="M392.4 293.64h-.19c-1.95-.19-6.86-9.79-6.86-10.9 0-.33 0-1.35 6.31-2.89h.24l11.57 2.87a.48.48 0 0 1 .36.38l1.62 7.47a.5.5 0 0 1-.38.59c-1.07.26-10.56 2.48-12.67 2.48zm-6-10.85c.24 1.38 4.77 9.65 5.95 9.85s7.62-1.31 12.06-2.35l-1.45-6.69-11.14-2.76c-2.4.59-5.05 1.48-5.46 1.95z" style="fill:#263238"/><path d="M403.35 283.19s-9.43-4.27-10.82-4.66-2.39 2.18-2.39 3.18-.19 5.76 1 6.16a8 8 0 0 0 3.18 0l-.2-3.18a4.83 4.83 0 0 0 4.77 3" style="fill:#fff"/><path d="M392.5 288.54a5 5 0 0 1-1.52-.2c-1.18-.39-1.39-2.78-1.34-6.25v-.38a5.07 5.07 0 0 1 1.58-3.36 1.61 1.61 0 0 1 1.45-.3c1.41.4 10.5 4.51 10.88 4.69a.49.49 0 0 1 .25.66.5.5 0 0 1-.66.25c-3.25-1.47-9.68-4.34-10.75-4.64a.58.58 0 0 0-.57.14 4.15 4.15 0 0 0-1.18 2.56v.4c-.07 4.8.53 5.24.66 5.28a6.52 6.52 0 0 0 2.49.06l-.17-2.73a.5.5 0 0 1 1-.19 4.35 4.35 0 0 0 4.3 2.64.5.5 0 0 1 .5.5.51.51 0 0 1-.5.5 5.55 5.55 0 0 1-4.16-1.66l.09 1.32a.52.52 0 0 1-.4.53 11.47 11.47 0 0 1-1.95.18z" style="fill:#263238"/><path d="M491.27 388.49s-3.4-2.49-4.09-3.63a26.65 26.65 0 0 1-1.58-4.53c-.23-.68-6.35 1.81-6.35 1.81s-7.49.46-11.8-1.13-7.49-2-7.49-.68 13.61 14.51 18.38 16.78 5.67 4.09 7 2.95 4.76-7.71 4.76-7.71 3.86-2.27 3.63-3.18-2.46-.68-2.46-.68z" style="fill:#fff"/><path d="M484.54 400.91a5.29 5.29 0 0 1-2.46-1.11 33.24 33.24 0 0 0-4-2.24c-4.36-2.07-18.66-15.28-18.66-17.23a1.15 1.15 0 0 1 .51-1c1.27-.89 4.87.15 7.65 1.18 3.93 1.44 10.7 1.15 11.52 1.11 2.59-1.06 5.8-2.22 6.59-1.86a.64.64 0 0 1 .34.38l.23.76a20.1 20.1 0 0 0 1.31 3.68 22.11 22.11 0 0 0 3.8 3.37c.71 0 2.55-.06 2.84 1.07s-1.86 2.54-3.74 3.66c-.57 1.1-3.49 6.62-4.82 7.74a1.79 1.79 0 0 1-1.11.49zM461.39 380a1.61 1.61 0 0 0-.85.16.16.16 0 0 0-.08.15c.36 1.33 13.35 14.07 18.09 16.33a36.76 36.76 0 0 1 4.07 2.29c1.59 1 1.91 1.16 2.43.73 1.05-.88 3.71-5.76 4.64-7.56a.52.52 0 0 1 .19-.2c1.73-1 3.32-2.27 3.39-2.68 0-.18-1.06-.34-1.95-.25a.53.53 0 0 1-.35-.09c-.35-.27-3.5-2.59-4.21-3.78a19.91 19.91 0 0 1-1.42-3.91c-.06-.19-.11-.36-.15-.5a31.36 31.36 0 0 0-5.76 1.9h-.15c-.31 0-7.65.44-12-1.16a19 19 0 0 0-5.89-1.43z" style="fill:#263238"/><path d="M476.76 235.28s1.46 3.07 6 6.59 6.15 4 6.15 4 3.37-8.65 3.23-13.78a25.44 25.44 0 0 0-1.18-7.76l-5.42-5.42s-6.44 14.46-8.78 16.37z" style="fill:#fff"/><path d="M488.92 246.33h-.13c-.07 0-1.76-.51-6.33-4s-6.09-6.65-6.15-6.78a.5.5 0 0 1 .13-.6c1.85-1.5 6.87-12.22 8.65-16.23a.52.52 0 0 1 .37-.29.56.56 0 0 1 .45.14l5.42 5.42a.54.54 0 0 1 .11.18 25.84 25.84 0 0 1 1.21 7.93c.14 5.17-3.12 13.61-3.26 14a.51.51 0 0 1-.47.23zm-11.54-11a22.6 22.6 0 0 0 5.69 6.11 32.77 32.77 0 0 0 5.56 3.69c.7-1.87 3.14-8.81 3-13.1a26.42 26.42 0 0 0-1.11-7.51l-4.83-4.83c-1.23 2.82-6.02 13.24-8.31 15.68z" style="fill:#263238"/><path style="fill:#263238" d="m483.65 223.26-.88 18.61-5.28-4.54-.73-2.05 6.89-12.02z"/><path d="M482.77 242.37a.5.5 0 0 1-.33-.12l-5.27-4.54a.51.51 0 0 1-.15-.21l-.73-2.05a.48.48 0 0 1 0-.42l6.88-12a.52.52 0 0 1 .58-.23.51.51 0 0 1 .36.51l-.88 18.61a.49.49 0 0 1-.31.43.43.43 0 0 1-.15.02zm-4.85-5.37 4.4 3.78.73-15.51-5.74 10z" style="fill:#263238"/><path d="M461.23 197.47s-1-2.34-2.49-1.17-4.25 4.69-3.67 5.86-2.05-1.17-2.2.88a4 4 0 0 0 1.76 4 18.17 18.17 0 0 0 3.52 1.75s2.05 9.24 2.78 10.85 3.67 8.5 7.77 12.6 6.15 5.72 7.47 5.42l1.32-.29s8.5-9.23 9.38-11.14 1.47-3.37 1-5.71-.74-3.37-.74-3.37 1.91-2.49 1.62-4.69-1-3.08-2.2-3.37-2.35-10.55-3.52-13.19-1.61-3.52-10.11-2.64-11.69 4.21-11.69 4.21z" style="fill:#fff"/><path d="M475.84 238.16c-1.44 0-3.35-1.46-7.49-5.61-3.91-3.9-6.77-10.28-7.71-12.38l-.16-.36c-.68-1.51-2.41-9.14-2.76-10.69a17.15 17.15 0 0 1-3.39-1.72 4.47 4.47 0 0 1-1.95-4.4 1.39 1.39 0 0 1 .56-1.15 1.88 1.88 0 0 1 1.59 0c0-1.87 2.74-5 3.89-5.92a1.7 1.7 0 0 1 1.51-.39 2.56 2.56 0 0 1 1.43 1.17c1.21-1 4.7-3.26 11.54-4 8.52-.88 9.29-.05 10.62 2.94a40.05 40.05 0 0 1 1.56 6.39c.48 2.44 1.2 6.13 1.69 6.55 1.41.33 2.2 1.5 2.5 3.75.27 2-1.1 4.19-1.56 4.86.11.42.35 1.44.68 3.18.46 2.45-.12 4-1.07 6s-9.11 10.89-9.46 11.27a.61.61 0 0 1-.26.15l-1.32.29a2.12 2.12 0 0 1-.44.07zm-22.21-35.5a.32.32 0 0 0-.14 0 .62.62 0 0 0-.12.39 3.53 3.53 0 0 0 1.56 3.52 18 18 0 0 0 3.4 1.69.51.51 0 0 1 .31.36c.7 3.17 2.19 9.5 2.75 10.74l.17.37c.92 2.06 3.72 8.31 7.49 12.09 3.46 3.45 5.82 5.55 7 5.28l1.17-.25c2.43-2.64 8.5-9.42 9.19-10.9.88-1.92 1.39-3.24 1-5.41s-.71-3.32-.72-3.33a.5.5 0 0 1 .09-.44s1.77-2.35 1.51-4.32c-.3-2.26-1.06-2.75-1.82-2.95s-1.36-2.17-2.37-7.28a39.65 39.65 0 0 0-1.49-6.19c-1.09-2.45-1.41-3.19-9.6-2.34s-11.38 4.07-11.41 4.1a.51.51 0 0 1-.45.14.5.5 0 0 1-.37-.29c-.12-.27-.57-1.06-1.08-1.18a.69.69 0 0 0-.64.2c-1.59 1.27-3.9 4.52-3.53 5.25a.76.76 0 0 1 0 .87c-.28.33-.7.18-1.09 0a3.38 3.38 0 0 0-.81-.12z" style="fill:#263238"/><path d="M464.74 210.51c1.47-.58 5.13-3.07 7.92-4.83s4.69-1 4.39.29-1.17 2.49 0 3.81 3.23.73 3.23.73.73 2.35 1.32 2.49.87.44 1.31-1 3.67-2.93 3.67-2.93c-1.18-.3-2.35-10.55-3.52-13.19s-1.61-3.52-10.11-2.64-11.72 4.25-11.72 4.25-1-2.34-2.49-1.17-4.25 4.69-3.67 5.86-2.05-1.17-2.2.88a4 4 0 0 0 1.76 4 18.17 18.17 0 0 0 3.52 1.75s5.13 2.29 6.59 1.7z" style="fill:#263238"/><path d="M482.14 213.62a2 2 0 0 1-.5-.08h-.17c-.62-.16-1.16-1.31-1.53-2.4a3.62 3.62 0 0 1-3.26-1c-1.09-1.23-.71-2.38-.37-3.4a6.36 6.36 0 0 0 .25-.85.45.45 0 0 0-.18-.53c-.51-.36-1.81-.27-3.46.77l-2.23 1.43a51.18 51.18 0 0 1-5.76 3.45c-1.58.63-6.1-1.36-7-1.77a18.38 18.38 0 0 1-3.61-1.81 4.47 4.47 0 0 1-1.95-4.4 1.39 1.39 0 0 1 .56-1.15 1.88 1.88 0 0 1 1.59 0c0-1.87 2.74-5 3.89-5.92a1.7 1.7 0 0 1 1.51-.39 2.56 2.56 0 0 1 1.43 1.17c1.21-1 4.7-3.26 11.54-4 8.52-.88 9.29-.05 10.62 2.94a40.05 40.05 0 0 1 1.56 6.39c.48 2.44 1.2 6.13 1.69 6.55a.44.44 0 0 1 .34.42.49.49 0 0 1-.33.48c-1.16.53-3.11 1.71-3.39 2.62-.3 1.04-.65 1.48-1.24 1.48zm-1.86-3.62a.49.49 0 0 1 .47.35 6.58 6.58 0 0 0 1 2.18h.38a8.42 8.42 0 0 0 .3-.8c.38-1.26 2.32-2.42 3.34-3-.52-.94-1-3-1.69-6.63a39.65 39.65 0 0 0-1.49-6.19c-1.09-2.45-1.41-3.19-9.6-2.34s-11.38 4.07-11.41 4.1a.51.51 0 0 1-.45.14.5.5 0 0 1-.37-.29c-.12-.27-.57-1.06-1.08-1.18a.69.69 0 0 0-.64.2c-1.59 1.27-3.9 4.52-3.53 5.25a.76.76 0 0 1 0 .87c-.28.33-.7.18-1.09 0s-.77-.27-.93-.16a.62.62 0 0 0-.12.39 3.53 3.53 0 0 0 1.56 3.52 18 18 0 0 0 3.4 1.69c2.08 1 5.35 2.11 6.23 1.76a50 50 0 0 0 5.59-3.36l2.24-1.44c2.18-1.37 3.79-1.28 4.56-.74a1.46 1.46 0 0 1 .59 1.57c-.07.32-.18.64-.28.95-.35 1-.51 1.66.17 2.42a2.91 2.91 0 0 0 2.71.58zM473.78 218.18a1.37 1.37 0 0 1-.6 1.79c-.58.18-1.25-.34-1.5-1.15a1.37 1.37 0 0 1 .6-1.79c.58-.18 1.25.33 1.5 1.15zM465.53 220.22c.24.77.06 1.51-.4 1.65s-1-.37-1.27-1.14-.05-1.51.41-1.65 1.03.37 1.26 1.14zM469.58 217.31a.49.49 0 0 1-.4-.8 7.77 7.77 0 0 1 5.67-2.83.5.5 0 0 1 .5.5.5.5 0 0 1-.5.5 6.88 6.88 0 0 0-4.88 2.44.48.48 0 0 1-.39.19zM461.81 218.19a.5.5 0 0 1-.19-1c2.31-1 3.54 0 3.6.08a.5.5 0 0 1-.65.77s-.87-.65-2.56.07a.45.45 0 0 1-.2.08zM468.49 227.89a1.22 1.22 0 0 1-.41-.06c-.28-.11-1-.41-1.48-6.92l-.83-1.51a.5.5 0 0 1 .88-.48l.88 1.61a.65.65 0 0 1 .06.21c.18 2.57.57 5.58.92 6.17a12.83 12.83 0 0 0 3.35-1.17.5.5 0 0 1 .43.9 12.05 12.05 0 0 1-3.8 1.25zm.05-.93zM471.78 230.94a.49.49 0 0 1-.44-.26.51.51 0 0 1 .2-.68l1.91-1a.49.49 0 0 1 .67.2.51.51 0 0 1-.2.68l-1.91 1a.46.46 0 0 1-.23.06z" style="fill:#263238"/><path d="M506.51 222.68s8.79-2.35 11.57-2.06 40.92 13.92 41.62 15.24 1.61 3.23 1.61 3.23l8.79 42.79-5.86.87s-4.4-10.25-6-13.48-6.3-11.13-7.76-15.09-2.93-7.18-2.93-7.18l-32.39-4.1" style="fill:#6942d9"/><path d="M564.24 283.25a.49.49 0 0 1-.46-.3c0-.1-4.41-10.28-6-13.45-.52-1-1.35-2.53-2.3-4.27a103 103 0 0 1-5.48-10.88c-1.21-3.26-2.43-6-2.81-6.89l-32.1-4.07a.49.49 0 0 1-.43-.56.51.51 0 0 1 .55-.43l32.39 4.1a.53.53 0 0 1 .39.29s1.49 3.29 2.94 7.22a105.84 105.84 0 0 0 5.44 10.74c1 1.74 1.79 3.25 2.31 4.3 1.43 2.86 5.08 11.31 5.87 13.15l5-.74-8.68-42.21c-.14-.32-.92-2-1.57-3.14-1.35-1.29-38-14.65-41.23-15-2.65-.27-11.31 2-11.4 2a.5.5 0 1 1-.25-1c.36-.09 8.92-2.36 11.75-2.06 2.57.27 41 13.77 42 15.49.74 1.32 1.6 3.18 1.63 3.26a.36.36 0 0 1 0 .11l8.79 42.78a.49.49 0 0 1-.08.39.52.52 0 0 1-.33.21l-5.87.88z" style="fill:#263238"/><path d="M561.31 239.09s-.88-1.91-1.61-3.23c-.29-.52-6.52-3-14.08-5.81.28 4.71 0 11.07-2.61 16.38l4.53.57s1.46 3.22 2.93 7.18 6.15 11.87 7.76 15.09 6 13.48 6 13.48l5.86-.87z" style="fill:#fff"/><path d="M564.24 283.25a.49.49 0 0 1-.46-.3c0-.1-4.41-10.28-6-13.45-.52-1-1.35-2.53-2.3-4.27a103 103 0 0 1-5.48-10.88c-1.21-3.26-2.43-6-2.81-6.89l-4.24-.54a.49.49 0 0 1-.38-.26.48.48 0 0 1 0-.45c2.59-5.3 2.82-11.7 2.56-16.13a.48.48 0 0 1 .2-.43.49.49 0 0 1 .47-.07c13.84 5.15 14.19 5.77 14.33 6 .74 1.32 1.6 3.18 1.63 3.26a.36.36 0 0 1 0 .11l8.79 42.78a.49.49 0 0 1-.08.39.52.52 0 0 1-.33.21l-5.87.88zM543.76 246l3.84.48a.53.53 0 0 1 .39.29s1.49 3.29 2.94 7.22a105.84 105.84 0 0 0 5.44 10.74c1 1.74 1.79 3.25 2.31 4.3 1.43 2.86 5.08 11.31 5.87 13.15l5-.74-8.68-42.21c-.14-.32-.92-2-1.57-3.14-.35-.33-4-1.94-13.1-5.33.15 4.35-.2 10.24-2.44 15.24z" style="fill:#263238"/><path style="fill:#fff" d="m562.19 278.07 6.74-1.18 1.17 4.99-5.86.87-2.05-4.68z"/><path d="M564.24 283.25a.5.5 0 0 1-.46-.29l-2-4.69a.52.52 0 0 1 0-.44.49.49 0 0 1 .35-.26l6.74-1.17a.5.5 0 0 1 .58.38l1.17 5a.56.56 0 0 1-.07.4.54.54 0 0 1-.34.21l-5.87.88zm-1.34-4.8 1.65 3.75 4.94-.74-.94-4z" style="fill:#263238"/><path d="M564.24 282.75s-3.66 3.67-3.81 4.69a36.81 36.81 0 0 1-2.2 6.89c-.73 1.32-1.32 2.35.74 1.91s3.07-3.37 3.07-3.37.44-2.2 1.61-2.2 4.69 8.94 5.13 9.67 1.61 4.39 2.64 4 .15-4.69.15-4.69.58-9.09.14-11.43-1.61-6.3-1.61-6.3z" style="fill:#fff"/><path d="M571.25 304.83a1 1 0 0 1-.38-.07c-.79-.32-1.42-1.67-2.11-3.26a8.8 8.8 0 0 0-.41-.9c-.11-.2-.34-.73-.81-1.8-.79-1.8-3.17-7.27-4-7.65-.49 0-.93 1.25-1.05 1.81-.06.2-1.16 3.27-3.46 3.76-.7.15-1.47.24-1.85-.27s0-1.34.56-2.33a37.17 37.17 0 0 0 2.16-6.75c.15-1.1 3.06-4.08 3.95-5a.53.53 0 0 1 .28-.14l5.86-.88a.49.49 0 0 1 .55.35c0 .17 1.19 4 1.62 6.35s-.07 10.59-.13 11.49c.36 1.75.75 4.67-.45 5.18a.83.83 0 0 1-.33.11zm-7.6-14.66c.94 0 2.06 1.92 4.8 8.23.35.79.67 1.53.76 1.68a8.92 8.92 0 0 1 .47 1c.28.66 1.13 2.64 1.57 2.73.29-.25.22-2.21-.17-4.12a.33.33 0 0 1 0-.14c0-.09.58-9.05.15-11.3-.34-1.85-1.17-4.76-1.48-5.84l-5.26.79c-1.68 1.69-3.48 3.78-3.55 4.29a37.28 37.28 0 0 1-2.26 7.06 7.33 7.33 0 0 0-.61 1.26 2.58 2.58 0 0 0 .8-.08c1.75-.38 2.7-3 2.71-3.05.02-.18.54-2.51 2.07-2.51zm-5.6 5.75z" style="fill:#263238"/></g><g><path d="M346.75 269.45a7.41 7.41 0 0 1-7.41 7.4 7.26 7.26 0 0 1-3.76-1 7.4 7.4 0 0 1 0-12.75 7.26 7.26 0 0 1 3.76-1 7.41 7.41 0 0 1 7.41 7.41z" style="fill:#6942d9"/><path d="M339.34 277.35a7.82 7.82 0 0 1-4-1.11 7.86 7.86 0 1 1 4 1.11zm0-14.81a6.9 6.9 0 0 0-3.51 12.84 6.91 6.91 0 0 0 10.42-5.93 7 7 0 0 0-2.2-5.06 6.85 6.85 0 0 0-4.71-1.85z" style="fill:#263238"/><path d="M346.75 269.45a7.35 7.35 0 0 1-2.36 5.41 7.37 7.37 0 0 1 0-10.83 7.39 7.39 0 0 1 2.36 5.42z" style="fill:#6942d9"/><path d="M344.39 275.36a.55.55 0 0 1-.34-.13 7.88 7.88 0 0 1 0-11.57.5.5 0 0 1 .68 0 7.89 7.89 0 0 1 0 11.56.51.51 0 0 1-.34.14zm0-10.63a6.91 6.91 0 0 0 0 9.43 6.88 6.88 0 0 0 0-9.43z" style="fill:#263238"/><path d="M339.23 269.45a7.38 7.38 0 0 1-3.65 6.37 7.4 7.4 0 0 1 0-12.75 7.39 7.39 0 0 1 3.65 6.38z" style="fill:#6942d9"/><path d="M335.58 276.32a.59.59 0 0 1-.26-.07 7.92 7.92 0 0 1 0-13.62.52.52 0 0 1 .51 0 7.9 7.9 0 0 1 0 13.62.59.59 0 0 1-.25.07zm0-12.67a6.91 6.91 0 0 0 0 11.58 6.9 6.9 0 0 0 0-11.58z" style="fill:#263238"/></g><g><path style="fill:#fff" d="M54.62 317.21h634.44v9.37H54.62z"/><path d="M689.06 327.08H54.62a.5.5 0 0 1-.5-.5v-9.37a.5.5 0 0 1 .5-.5h634.44a.51.51 0 0 1 .5.5v9.37a.5.5 0 0 1-.5.5zm-633.94-1h633.44v-8.37H55.12z" style="fill:#263238"/><path style="fill:#6942d9" d="M38.05 315.51h8.7v130.45h-8.7z"/><path d="M46.75 446.46h-8.7a.51.51 0 0 1-.5-.5V315.51a.5.5 0 0 1 .5-.5h8.7a.5.5 0 0 1 .5.5V446a.5.5 0 0 1-.5.46zm-8.2-1h7.7V316h-7.7z" style="fill:#263238"/><path style="fill:#6942d9" d="M700.86 315.51h8.7v130.45h-8.7z"/><path d="M709.55 446.46h-8.69a.5.5 0 0 1-.5-.5V315.51a.5.5 0 0 1 .5-.5h8.69a.5.5 0 0 1 .5.5V446a.5.5 0 0 1-.5.46zm-8.19-1h7.69V316h-7.69zM54.62 317.71H38a.5.5 0 0 1-.5-.5.5.5 0 0 1 .5-.5h16.6a.51.51 0 0 1 .5.5.5.5 0 0 1-.48.5z" style="fill:#263238"/><path d="M709.14 317.71h-20.08a.5.5 0 0 1-.5-.5.5.5 0 0 1 .5-.5h20.08a.5.5 0 0 1 .5.5.5.5 0 0 1-.5.5zM54.62 430.42H38a.5.5 0 1 1 0-1h16.6a.5.5 0 1 1 0 1zM709.14 430.42h-20.08a.5.5 0 0 1 0-1h20.08a.5.5 0 0 1 0 1z" style="fill:#263238"/><path d="M54.62 430.85a.5.5 0 0 1-.5-.5V326.58a.5.5 0 0 1 .5-.5.5.5 0 0 1 .5.5v103.77a.5.5 0 0 1-.5.5zM64.92 430.85a.5.5 0 0 1-.5-.5V326.58a.5.5 0 0 1 .5-.5.5.5 0 0 1 .5.5v103.77a.5.5 0 0 1-.5.5zM75.23 430.85a.5.5 0 0 1-.5-.5V326.58a.5.5 0 0 1 .5-.5.5.5 0 0 1 .5.5v103.77a.5.5 0 0 1-.5.5zM85.54 430.85a.5.5 0 0 1-.5-.5V326.58a.5.5 0 0 1 1 0v103.77a.5.5 0 0 1-.5.5zM95.85 430.85a.5.5 0 0 1-.5-.5V326.58a.5.5 0 0 1 1 0v103.77a.5.5 0 0 1-.5.5zM106.16 430.85a.5.5 0 0 1-.5-.5V326.58a.5.5 0 0 1 .5-.5.5.5 0 0 1 .5.5v103.77a.5.5 0 0 1-.5.5zM116.47 430.85a.5.5 0 0 1-.5-.5V326.58a.5.5 0 0 1 .5-.5.5.5 0 0 1 .5.5v103.77a.5.5 0 0 1-.5.5zM126.78 430.85a.5.5 0 0 1-.5-.5V326.58a.5.5 0 0 1 .5-.5.5.5 0 0 1 .5.5v103.77a.5.5 0 0 1-.5.5zM137.08 430.85a.5.5 0 0 1-.5-.5V326.58a.5.5 0 0 1 .5-.5.5.5 0 0 1 .5.5v103.77a.5.5 0 0 1-.5.5zM147.39 430.85a.5.5 0 0 1-.5-.5V326.58a.5.5 0 0 1 .5-.5.5.5 0 0 1 .5.5v103.77a.5.5 0 0 1-.5.5zM157.7 430.85a.5.5 0 0 1-.5-.5V326.58a.5.5 0 0 1 1 0v103.77a.5.5 0 0 1-.5.5zM168 430.85a.5.5 0 0 1-.5-.5V326.58a.5.5 0 0 1 1 0v103.77a.5.5 0 0 1-.5.5zM178.32 430.85a.5.5 0 0 1-.5-.5V326.58a.5.5 0 0 1 .5-.5.5.5 0 0 1 .5.5v103.77a.5.5 0 0 1-.5.5zM188.63 430.85a.5.5 0 0 1-.5-.5V326.58a.5.5 0 0 1 .5-.5.5.5 0 0 1 .5.5v103.77a.5.5 0 0 1-.5.5zM198.94 430.85a.5.5 0 0 1-.5-.5V326.58a.5.5 0 0 1 .5-.5.5.5 0 0 1 .5.5v103.77a.5.5 0 0 1-.5.5zM209.24 430.85a.5.5 0 0 1-.5-.5V326.58a.5.5 0 0 1 .5-.5.5.5 0 0 1 .5.5v103.77a.5.5 0 0 1-.5.5zM219.55 430.85a.5.5 0 0 1-.5-.5V326.58a.5.5 0 0 1 .5-.5.5.5 0 0 1 .5.5v103.77a.5.5 0 0 1-.5.5zM229.86 430.85a.5.5 0 0 1-.5-.5V326.58a.5.5 0 0 1 .5-.5.5.5 0 0 1 .5.5v103.77a.5.5 0 0 1-.5.5zM240.17 430.85a.5.5 0 0 1-.5-.5V326.58a.5.5 0 0 1 1 0v103.77a.5.5 0 0 1-.5.5zM250.48 430.85a.5.5 0 0 1-.5-.5V326.58a.5.5 0 0 1 1 0v103.77a.5.5 0 0 1-.5.5zM260.79 430.85a.5.5 0 0 1-.5-.5V326.58a.5.5 0 0 1 .5-.5.5.5 0 0 1 .5.5v103.77a.5.5 0 0 1-.5.5zM271.1 430.85a.5.5 0 0 1-.5-.5V326.58a.5.5 0 0 1 .5-.5.5.5 0 0 1 .5.5v103.77a.5.5 0 0 1-.5.5zM281.4 430.85a.5.5 0 0 1-.5-.5V326.58a.5.5 0 0 1 .5-.5.5.5 0 0 1 .5.5v103.77a.5.5 0 0 1-.5.5zM291.71 430.85a.5.5 0 0 1-.5-.5V326.58a.5.5 0 0 1 .5-.5.5.5 0 0 1 .5.5v103.77a.5.5 0 0 1-.5.5zM302 430.85a.5.5 0 0 1-.5-.5V326.58a.5.5 0 0 1 .5-.5.5.5 0 0 1 .5.5v103.77a.5.5 0 0 1-.5.5zM312.33 430.85a.5.5 0 0 1-.5-.5V326.58a.5.5 0 0 1 1 0v103.77a.5.5 0 0 1-.5.5zM322.64 430.85a.5.5 0 0 1-.5-.5V326.58a.5.5 0 0 1 1 0v103.77a.5.5 0 0 1-.5.5zM333 430.85a.5.5 0 0 1-.5-.5V326.58a.5.5 0 0 1 .5-.5.5.5 0 0 1 .5.5v103.77a.5.5 0 0 1-.5.5zM343.26 430.85a.5.5 0 0 1-.5-.5V326.58a.5.5 0 0 1 .5-.5.5.5 0 0 1 .5.5v103.77a.5.5 0 0 1-.5.5zM353.56 430.85a.5.5 0 0 1-.5-.5V326.58a.5.5 0 0 1 .5-.5.5.5 0 0 1 .5.5v103.77a.5.5 0 0 1-.5.5zM363.87 430.85a.5.5 0 0 1-.5-.5V326.58a.5.5 0 0 1 .5-.5.5.5 0 0 1 .5.5v103.77a.5.5 0 0 1-.5.5zM374.18 430.85a.5.5 0 0 1-.5-.5V326.58a.5.5 0 0 1 .5-.5.5.5 0 0 1 .5.5v103.77a.5.5 0 0 1-.5.5zM384.49 430.85a.5.5 0 0 1-.5-.5V326.58a.5.5 0 1 1 1 0v103.77a.5.5 0 0 1-.5.5zM394.8 430.85a.5.5 0 0 1-.5-.5V326.58a.5.5 0 0 1 1 0v103.77a.5.5 0 0 1-.5.5zM405.11 430.85a.5.5 0 0 1-.5-.5V326.58a.5.5 0 0 1 .5-.5.5.5 0 0 1 .5.5v103.77a.5.5 0 0 1-.5.5zM415.42 430.85a.5.5 0 0 1-.5-.5V326.58a.5.5 0 0 1 .5-.5.5.5 0 0 1 .5.5v103.77a.5.5 0 0 1-.5.5zM425.73 430.85a.5.5 0 0 1-.5-.5V326.58a.5.5 0 0 1 .5-.5.5.5 0 0 1 .5.5v103.77a.5.5 0 0 1-.5.5zM436 430.85a.5.5 0 0 1-.5-.5V326.58a.5.5 0 0 1 .5-.5.5.5 0 0 1 .5.5v103.77a.5.5 0 0 1-.5.5zM446.34 430.85a.5.5 0 0 1-.5-.5V326.58a.5.5 0 0 1 .5-.5.5.5 0 0 1 .5.5v103.77a.5.5 0 0 1-.5.5zM456.65 430.85a.5.5 0 0 1-.5-.5V326.58a.5.5 0 0 1 1 0v103.77a.5.5 0 0 1-.5.5zM467 430.85a.5.5 0 0 1-.5-.5V326.58a.5.5 0 0 1 1 0v103.77a.5.5 0 0 1-.5.5zM477.27 430.85a.5.5 0 0 1-.5-.5V326.58a.5.5 0 0 1 .5-.5.5.5 0 0 1 .5.5v103.77a.5.5 0 0 1-.5.5zM487.58 430.85a.5.5 0 0 1-.5-.5V326.58a.5.5 0 0 1 .5-.5.5.5 0 0 1 .5.5v103.77a.5.5 0 0 1-.5.5zM497.88 430.85a.5.5 0 0 1-.5-.5V326.58a.5.5 0 0 1 .5-.5.5.5 0 0 1 .5.5v103.77a.5.5 0 0 1-.5.5zM508.19 430.85a.5.5 0 0 1-.5-.5V326.58a.5.5 0 0 1 .5-.5.5.5 0 0 1 .5.5v103.77a.5.5 0 0 1-.5.5zM518.5 430.85a.5.5 0 0 1-.5-.5V326.58a.5.5 0 0 1 .5-.5.5.5 0 0 1 .5.5v103.77a.5.5 0 0 1-.5.5zM528.81 430.85a.5.5 0 0 1-.5-.5V326.58a.5.5 0 1 1 1 0v103.77a.5.5 0 0 1-.5.5zM539.12 430.85a.5.5 0 0 1-.5-.5V326.58a.5.5 0 0 1 1 0v103.77a.5.5 0 0 1-.5.5zM549.43 430.85a.5.5 0 0 1-.5-.5V326.58a.5.5 0 0 1 .5-.5.5.5 0 0 1 .5.5v103.77a.5.5 0 0 1-.5.5zM559.74 430.85a.5.5 0 0 1-.5-.5V326.58a.5.5 0 0 1 .5-.5.5.5 0 0 1 .5.5v103.77a.5.5 0 0 1-.5.5zM570.05 430.85a.5.5 0 0 1-.5-.5V326.58a.5.5 0 0 1 .5-.5.5.5 0 0 1 .5.5v103.77a.5.5 0 0 1-.5.5zM580.35 430.85a.5.5 0 0 1-.5-.5V326.58a.5.5 0 0 1 .5-.5.5.5 0 0 1 .5.5v103.77a.5.5 0 0 1-.5.5zM590.66 430.85a.5.5 0 0 1-.5-.5V326.58a.5.5 0 0 1 .5-.5.5.5 0 0 1 .5.5v103.77a.5.5 0 0 1-.5.5zM601 430.85a.5.5 0 0 1-.5-.5V326.58a.5.5 0 1 1 1 0v103.77a.5.5 0 0 1-.5.5zM611.28 430.85a.5.5 0 0 1-.5-.5V326.58a.5.5 0 1 1 1 0v103.77a.5.5 0 0 1-.5.5zM621.59 430.85a.5.5 0 0 1-.5-.5V326.58a.5.5 0 0 1 .5-.5.5.5 0 0 1 .5.5v103.77a.5.5 0 0 1-.5.5zM631.9 430.85a.5.5 0 0 1-.5-.5V326.58a.5.5 0 0 1 .5-.5.5.5 0 0 1 .5.5v103.77a.5.5 0 0 1-.5.5zM642.21 430.85a.5.5 0 0 1-.5-.5V326.58a.5.5 0 0 1 .5-.5.5.5 0 0 1 .5.5v103.77a.5.5 0 0 1-.5.5zM652.51 430.85a.5.5 0 0 1-.5-.5V326.58a.5.5 0 0 1 .5-.5.5.5 0 0 1 .5.5v103.77a.5.5 0 0 1-.5.5zM662.82 430.85a.5.5 0 0 1-.5-.5V326.58a.5.5 0 0 1 .5-.5.5.5 0 0 1 .5.5v103.77a.5.5 0 0 1-.5.5zM673.13 430.85a.5.5 0 0 1-.5-.5V326.58a.5.5 0 0 1 1 0v103.77a.5.5 0 0 1-.5.5zM683.44 430.85a.5.5 0 0 1-.5-.5V326.58a.5.5 0 1 1 1 0v103.77a.5.5 0 0 1-.5.5z" style="fill:#263238"/><path d="M683.42 338.61H55.28a.5.5 0 0 1-.5-.5.5.5 0 0 1 .5-.5h628.14a.5.5 0 0 1 .5.5.51.51 0 0 1-.5.5zM683.42 350.14H55.28a.5.5 0 1 1 0-1h628.14a.5.5 0 0 1 0 1zM683.42 361.67H55.28a.5.5 0 0 1 0-1h628.14a.5.5 0 0 1 0 1zM683.42 373.2H55.28a.5.5 0 0 1 0-1h628.14a.5.5 0 0 1 0 1zM683.42 384.73H55.28a.5.5 0 1 1 0-1h628.14a.5.5 0 1 1 0 1zM683.42 396.26H55.28a.5.5 0 1 1 0-1h628.14a.5.5 0 0 1 0 1zM683.42 407.79H55.28a.5.5 0 0 1 0-1h628.14a.5.5 0 0 1 0 1zM683.42 419.32H55.28a.5.5 0 0 1 0-1h628.14a.5.5 0 0 1 0 1zM683.42 430.85H55.28a.5.5 0 0 1-.5-.5.5.5 0 0 1 .5-.5h628.14a.51.51 0 0 1 .5.5.5.5 0 0 1-.5.5z" style="fill:#263238"/><path style="fill:#263238" d="M54.62 429.92h634.44v9.37H54.62z"/><path d="M689.06 439.79H54.62a.5.5 0 0 1-.5-.5v-9.37a.5.5 0 0 1 .5-.5h634.44a.5.5 0 0 1 .5.5v9.37a.5.5 0 0 1-.5.5zm-633.94-1h633.44v-8.37H55.12z" style="fill:#263238"/></g><g><path d="M218.93 192.79s-4 6.39-5.05 7.58-2.68 1.63-3 3.12 1 3.72.15 4.61-4.75 1.19-4.75 1.19a14.46 14.46 0 0 1-3.12 3c-1.94 1.34-4.76 2.52-5.8 2.52s-3.27-1.93-3.27-1.93-.15-2.08-5.35-5.94-7.13-4-7.13-4l3.71-12.64s2.08-4.16 11.89-6.53 15-.15 17.24 1.78 4.48 7.24 4.48 7.24z" style="fill:#fff"/><path d="M197.38 215.28c-1.17 0-3.2-1.71-3.6-2.05a.51.51 0 0 1-.17-.34s-.3-2-5.15-5.58-6.86-3.91-6.88-3.92a.45.45 0 0 1-.36-.22.48.48 0 0 1-.07-.42l3.71-12.63c.12-.26 2.33-4.48 12.25-6.88 10.94-2.65 16 .44 17.69 1.89 2.29 2 4.5 7.25 4.59 7.47a.5.5 0 0 1 0 .46c-.16.26-4 6.43-5.1 7.64a8.39 8.39 0 0 1-1.38 1.18c-.71.51-1.33 1-1.48 1.71a5.48 5.48 0 0 0 .22 2c.24 1.07.5 2.19-.2 2.89-.9.89-3.84 1.23-4.85 1.32a15.29 15.29 0 0 1-3.1 2.9c-2.02 1.3-4.91 2.58-6.12 2.58zm-2.81-2.69a7.56 7.56 0 0 0 2.81 1.69 14.87 14.87 0 0 0 5.51-2.43 13.86 13.86 0 0 0 3-2.86.49.49 0 0 1 .37-.2c1.53-.12 3.91-.52 4.44-1 .31-.31.12-1.15-.07-2a6 6 0 0 1-.22-2.39 3.88 3.88 0 0 1 1.88-2.32 7.41 7.41 0 0 0 1.21-1c.89-1 4.15-6.16 4.87-7.29-.46-1.05-2.37-5.26-4.23-6.86-1.55-1.35-6.31-4.22-16.79-1.68-9.4 2.28-11.54 6.24-11.56 6.28l-3.53 12c.93.28 3 1.17 6.8 4 4.46 3.29 5.34 5.37 5.51 6.06z" style="fill:#263238"/><path d="M202.28 197.25s1.34.74 2.23.15 2.23-2.38 2.83-2.83 4-.59 4.31-2.37-1-3.72 0-4 2.67.75 2.67.75 1.34 8.47 8 5.2 5.05-11.74 2.23-16.2-11.45-4.16-11.45-4.16a29.51 29.51 0 0 0-8.17-6c-4.76-2.22-13.52-.29-16.64 4.31s-1.34 5.65-1.34 5.65l-1 3.72s-1.34-.3-1.79 2.37-1.18 10.7-.14 12.34 6.68 3.86 8.91 4.16a4.34 4.34 0 0 0 3.72-1.49c.43-.26 5.63-1.6 5.63-1.6z" style="fill:#263238"/><path d="M193.49 200.91a4.7 4.7 0 0 1-.63 0c-2.27-.3-8.12-2.57-9.28-4.38s-.28-10.54.08-12.69a3.66 3.66 0 0 1 1.27-2.52 1.76 1.76 0 0 1 .62-.26l.87-3.07a1.75 1.75 0 0 1-.38-.81c-.29-1.25.34-3 1.86-5.28 3.42-5 12.51-6.71 17.27-4.48a29.94 29.94 0 0 1 8.17 5.89c1.44 0 8.94.12 11.66 4.4 1.85 2.93 3.24 7.63 2.14 11.52a8.36 8.36 0 0 1-4.57 5.4 5.54 5.54 0 0 1-5.17.29c-2.5-1.3-3.34-4.7-3.53-5.63a3.49 3.49 0 0 0-2.09-.58 2.71 2.71 0 0 0 .13 1.11 6.39 6.39 0 0 1 .23 2.51c-.26 1.58-2.26 2.08-3.58 2.41a5.88 5.88 0 0 0-.92.28 11.33 11.33 0 0 0-1 1 11.12 11.12 0 0 1-1.85 1.81 2.76 2.76 0 0 1-2.56 0c-2.4.62-5 1.35-5.33 1.53a2.4 2.4 0 0 0-.23.2 4.5 4.5 0 0 1-3.18 1.35zm-7.7-18.91c-.29 0-.88.4-1.14 2-.5 3-1.1 10.6-.22 12s6.31 3.63 8.56 3.93a3.43 3.43 0 0 0 3-1.09 2.61 2.61 0 0 1 .37-.31 54.21 54.21 0 0 1 5.8-1.71.54.54 0 0 1 .37.05c.3.16 1.19.52 1.71.17a12.59 12.59 0 0 0 1.66-1.64 9.93 9.93 0 0 1 1.14-1.17 3.9 3.9 0 0 1 1.28-.45c1.07-.26 2.68-.67 2.83-1.61a5.57 5.57 0 0 0-.21-2.11c-.21-.89-.47-2 .57-2.3 1.22-.34 2.89.69 3.08.8a.56.56 0 0 1 .23.35s.64 3.89 3.05 5.14a4.65 4.65 0 0 0 4.26-.31 7.38 7.38 0 0 0 4-4.77c1-3.59-.28-8-2-10.71-2.63-4.17-10.91-3.93-11-3.93a.51.51 0 0 1-.39-.16 29.09 29.09 0 0 0-8-5.83c-4.38-2.05-12.94-.42-16 4.13-2.25 3.32-1.83 4.7-1.48 5a.53.53 0 0 1 .21.56l-1 3.71a.49.49 0 0 1-.59.35z" style="fill:#263238"/><path d="M202.43 199.33s.75-8-.29-9.07-3.87 1.19-5.5 5.06-1.19 5.79-.15 6.24l1 .44a27 27 0 0 0-2.23 3.72" style="fill:#fff"/><path d="M195.3 206.25a.52.52 0 0 1-.5-.53c0-.14 0-.55 2-3.49l-.49-.21c-.6-.26-2.39-1.52-.11-6.9 1.23-2.91 3.31-5.26 4.94-5.57a1.43 1.43 0 0 1 1.37.36c1.12 1.12.62 7.53.44 9.47a.49.49 0 0 1-.54.45.51.51 0 0 1-.46-.55c.35-3.74.39-8.12-.15-8.66 0 0-.15-.16-.47-.09-1.13.22-3 2.14-4.21 5-1.42 3.35-1.21 5.25-.41 5.59l1 .44a.52.52 0 0 1 .28.32.51.51 0 0 1-.07.43 28 28 0 0 0-2.15 3.49.47.47 0 0 1-.47.45z" style="fill:#263238"/><path d="M185.94 181.5s14.26-1.64 28.83 16.94l2.23-3s-7.43-10.56-18.28-14.87-11.72-2.79-11.72-2.79z" style="fill:#fff"/><path d="M214.77 198.94a.51.51 0 0 1-.4-.19C200.18 180.64 186.13 182 186 182a.47.47 0 0 1-.43-.17.48.48 0 0 1-.1-.46l1-3.71a.5.5 0 0 1 .05-.13c.33-.55 2.2-1.41 12.35 2.62 10.86 4.31 18.43 14.93 18.5 15a.49.49 0 0 1 0 .59l-2.23 3a.52.52 0 0 1-.4.2zM187 181c3.6 0 15.49 1.28 27.8 16.67l1.61-2.16c-1.28-1.72-8.26-10.59-17.84-14.39-8.56-3.4-10.71-3.11-11.12-3l-.8 2.86zm.36-2.82z" style="fill:#263238"/><path d="M165 202.45s12.19 3.57 16.35 5.35 14.86 10.85 14.86 10.85.45-5.35.3-6.39a17.86 17.86 0 0 0-6.84-8.62c-4-2.38-14.41-5.65-16.05-5.2A77.63 77.63 0 0 0 166 202z" style="fill:#6942d9"/><path d="M196.19 219.15a.49.49 0 0 1-.32-.12c-.11-.09-10.69-9-14.74-10.77S165 203 164.84 202.93a.52.52 0 0 1-.36-.45.5.5 0 0 1 .31-.49l1-.45a74.91 74.91 0 0 1 7.64-3.58c1.85-.5 12.44 2.88 16.44 5.25s6.89 7.68 7.07 9a60.53 60.53 0 0 1-.29 6.5.49.49 0 0 1-.31.42.41.41 0 0 1-.15.02zm-29.76-16.79c3.27 1 11.72 3.53 15.1 5 3.58 1.54 11.72 8.2 14.24 10.3a47.56 47.56 0 0 0 .22-5.31 17.57 17.57 0 0 0-6.59-8.26c-4.21-2.49-14.31-5.51-15.67-5.15a71 71 0 0 0-7.3 3.42z" style="fill:#263238"/><path d="M107.89 244.1s-4.08 4.31-1.2 11 17.5 26.9 17.5 26.9l8.64 10.55 1.68 2.4 3.83-12-7.67-5.76a73.16 73.16 0 0 1-6.48-15.59c-2.39-8.63-3.83-12.23-6-15.82a16.13 16.13 0 0 0-6.48-5.52" style="fill:#fff"/><path d="M134.51 295.44a.51.51 0 0 1-.41-.21l-1.68-2.4-8.61-10.52c-.62-.85-14.72-20.29-17.58-27-3-6.94 1.25-11.53 1.29-11.58a.5.5 0 1 1 .73.69c-.16.17-3.81 4.18-1.1 10.49 2.82 6.59 17.3 26.57 17.45 26.77l8.62 10.53 1.12 1.6 3.42-10.69-7.39-5.55a.57.57 0 0 1-.13-.14 74.58 74.58 0 0 1-6.53-15.71c-2.27-8.18-3.71-12-5.94-15.71a15.57 15.57 0 0 0-6.25-5.31.5.5 0 0 1-.25-.66.5.5 0 0 1 .66-.26 16.53 16.53 0 0 1 6.7 5.72c2.28 3.8 3.75 7.68 6.05 16a73.61 73.61 0 0 0 6.37 15.38l7.59 5.7a.48.48 0 0 1 .18.55l-3.84 12a.47.47 0 0 1-.4.34zM329.53 363.79h-.07l-26.59-7.44a.24.24 0 0 1-.18-.3.26.26 0 0 1 .31-.18l26.59 7.44a.26.26 0 0 1 .18.31.26.26 0 0 1-.24.17zM335.23 362.52h-.07L298.3 352.2a.25.25 0 0 1-.18-.31.26.26 0 0 1 .31-.17L335.29 362a.26.26 0 0 1 .18.31.25.25 0 0 1-.24.21zM338.28 360.51h-.07l-44.31-12.4a.26.26 0 0 1-.18-.31.27.27 0 0 1 .31-.18L338.34 360a.26.26 0 0 1 .18.31.25.25 0 0 1-.24.2zM341.32 358.49h-.06l-49.1-13.73a.25.25 0 0 1-.17-.31.26.26 0 0 1 .31-.17L341.39 358a.25.25 0 0 1 .17.31.25.25 0 0 1-.24.18zM342.07 355.83H342l-51.57-14.43a.26.26 0 0 1-.18-.31.25.25 0 0 1 .31-.17l51.57 14.42a.26.26 0 0 1 .18.31.25.25 0 0 1-.24.18zM344.47 353.64h-.07l-53.23-14.89a.25.25 0 0 1 .13-.48l53.24 14.89a.25.25 0 0 1 .17.31.25.25 0 0 1-.24.17zM345.61 351.09h-.06l-54.45-15.24a.26.26 0 0 1-.18-.31.25.25 0 0 1 .31-.17l54.45 15.23a.26.26 0 0 1 .18.31.27.27 0 0 1-.25.18zM346.76 348.55h-.07l-55.05-15.4a.25.25 0 0 1-.17-.31.25.25 0 0 1 .31-.17l55 15.4a.24.24 0 0 1 .18.3.26.26 0 0 1-.2.18zM347.2 345.81h-.07l-54.54-15.26a.25.25 0 1 1 .13-.48l54.55 15.26a.24.24 0 0 1 .17.3.26.26 0 0 1-.24.18zM347.45 343h-.07l-53.23-14.9a.24.24 0 0 1-.18-.3.26.26 0 0 1 .31-.18l53.24 14.89a.25.25 0 0 1 .17.31.25.25 0 0 1-.24.18zM347.39 340.13h-.06l-52.44-14.67a.27.27 0 0 1-.18-.31.25.25 0 0 1 .29-.15l52.44 14.66a.27.27 0 0 1 .18.31.28.28 0 0 1-.23.16zM347.27 337.23h-.07l-51.57-14.43a.25.25 0 1 1 .14-.48l51.57 14.43a.24.24 0 0 1 .17.3.26.26 0 0 1-.24.18zM346.69 334.19h-.06l-45.3-12.66a.25.25 0 0 1-.17-.31.27.27 0 0 1 .31-.18l45.29 12.67a.25.25 0 0 1 .17.31.25.25 0 0 1-.24.17zM344.15 330.62h-.07l-39.52-11.06a.25.25 0 0 1-.17-.31.25.25 0 0 1 .3-.17l39.53 11.06a.25.25 0 0 1-.07.49zM342.59 327.32h-.06l-31.91-8.93a.24.24 0 0 1-.17-.3.26.26 0 0 1 .31-.18l31.9 8.93a.25.25 0 0 1-.07.49z" style="fill:#263238"/><path d="M332.93 361.88h-.07a.27.27 0 0 1-.18-.31l8.93-31.9a.25.25 0 1 1 .48.13l-8.92 31.91a.26.26 0 0 1-.24.17zM335.23 362.52h-.07a.24.24 0 0 1-.17-.3l8.92-31.91a.25.25 0 0 1 .31-.17.25.25 0 0 1 .17.31l-8.92 31.9a.25.25 0 0 1-.24.17zM338.28 360.51h-.07a.25.25 0 0 1-.17-.31l7.43-26.59a.25.25 0 0 1 .49.14l-7.44 26.59a.25.25 0 0 1-.24.17zM341.32 358.49h-.06a.25.25 0 0 1-.18-.31l6.32-22.59a.26.26 0 0 1 .31-.18.27.27 0 0 1 .18.31l-6.33 22.6a.25.25 0 0 1-.24.17zM329.53 363.79h-.07a.26.26 0 0 1-.18-.31l10.42-37.21a.24.24 0 0 1 .3-.18.26.26 0 0 1 .18.31l-10.41 37.22a.26.26 0 0 1-.24.17zM326.86 363.05h-.06a.26.26 0 0 1-.18-.31L337 325.51a.26.26 0 0 1 .31-.17.25.25 0 0 1 .17.31l-10.38 37.21a.26.26 0 0 1-.24.19zM324.21 362.3h-.07a.24.24 0 0 1-.17-.3l10.86-38.84a.25.25 0 0 1 .31-.17.24.24 0 0 1 .17.31l-10.86 38.83a.25.25 0 0 1-.24.17zM321.22 362.74h-.07a.25.25 0 0 1-.17-.31l11.28-40.31a.25.25 0 1 1 .48.13l-11.28 40.32a.25.25 0 0 1-.24.17zM318.47 362.29h-.06a.26.26 0 0 1-.18-.31l11.45-40.91a.25.25 0 0 1 .31-.18.25.25 0 0 1 .17.31l-11.45 40.91a.25.25 0 0 1-.24.18zM315.76 361.75h-.07a.24.24 0 0 1-.17-.31L327.11 320a.25.25 0 1 1 .48.13L316 361.57a.25.25 0 0 1-.24.18zM313.16 360.81h-.07a.25.25 0 0 1-.17-.31l11.42-40.81a.24.24 0 0 1 .3-.18.26.26 0 0 1 .18.31l-11.42 40.8a.24.24 0 0 1-.24.19zM310.58 359.76h-.07a.24.24 0 0 1-.17-.3l11.28-40.32a.25.25 0 0 1 .31-.17.25.25 0 0 1 .17.31l-11.28 40.31a.25.25 0 0 1-.24.17zM308.25 357.84h-.06a.25.25 0 0 1-.18-.31l10.84-38.73a.26.26 0 0 1 .31-.18.25.25 0 0 1 .17.31l-10.83 38.73a.27.27 0 0 1-.25.18zM305.6 357.1h-.07a.25.25 0 0 1-.17-.31l10.64-38a.25.25 0 1 1 .48.14l-10.64 38a.25.25 0 0 1-.24.17zM302.94 356.35h-.07a.24.24 0 0 1-.18-.3l10.42-37.22a.24.24 0 0 1 .3-.17.24.24 0 0 1 .18.3l-10.41 37.22a.26.26 0 0 1-.24.17zM301 353a.25.25 0 0 1-.17-.31l9.67-34.56a.26.26 0 0 1 .31-.18.25.25 0 0 1 .17.31l-9.67 34.56a.25.25 0 0 1-.31.18zM298.36 352.21h-.06a.25.25 0 0 1-.18-.31l8.93-31.9a.25.25 0 0 1 .31-.17.24.24 0 0 1 .17.3L298.61 352a.27.27 0 0 1-.25.21zM296.45 348.81h-.07a.27.27 0 0 1-.18-.31l8.19-29.25a.25.25 0 0 1 .3-.17.26.26 0 0 1 .18.31l-8.18 29.25a.26.26 0 0 1-.24.17zM294 348.11h-.06a.26.26 0 0 1-.18-.31l7.44-26.59a.27.27 0 0 1 .31-.18.25.25 0 0 1 .17.31l-7.44 26.59a.25.25 0 0 1-.24.18zM292.23 344.76h-.07a.25.25 0 0 1-.17-.31l5.95-21.26a.26.26 0 0 1 .31-.18.25.25 0 0 1 .17.31l-5.95 21.27a.25.25 0 0 1-.24.17zM290.49 341.41h-.06a.26.26 0 0 1-.18-.31l5.21-18.61a.25.25 0 1 1 .48.14l-5.21 18.61a.25.25 0 0 1-.24.17z" style="fill:#263238"/><path d="m293.79 325 .17-.39S288 329.4 282 328.74l-.26.94-.27.95c5.48 2.55 8.05 9.71 8.05 9.71l.05-.37a21.75 21.75 0 0 0 1.47 3.95l-.06.39s-4.64-10.44-12.17-14l.37-1.34.38-1.35c8.28.87 17.68-5.69 17.68-5.69l-.17.41a22.06 22.06 0 0 0-3.28 2.66z" style="fill:#263238"/><path d="M291 344.81a.49.49 0 0 1-.45-.29c-.05-.11-4.66-10.32-11.94-13.76a.5.5 0 0 1-.27-.58l.76-2.69a.49.49 0 0 1 .53-.36c8 .84 17.26-5.55 17.35-5.61a.5.5 0 0 1 .6 0 .51.51 0 0 1 .15.58l-.18.41a.47.47 0 0 1-.19.23 21.41 21.41 0 0 0-3.23 2.56.51.51 0 0 1-.5.12c-1.67 1.2-6.33 4.17-11.24 3.83l-.31 1.09c4.43 2.28 6.89 7.31 7.66 9.14a.52.52 0 0 1 .34.35 21.35 21.35 0 0 0 1.43 3.86.49.49 0 0 1 .05.29l-.06.39a.51.51 0 0 1-.43.42zm-11.58-14.76a24.59 24.59 0 0 1 8.42 7.85c-1.23-2.25-3.41-5.35-6.56-6.82a.49.49 0 0 1-.27-.58l.53-1.9a.5.5 0 0 1 .53-.36c3.44.38 6.88-1.14 9.11-2.42a24.55 24.55 0 0 1-11.18 2.34z" style="fill:#263238"/><path d="M349.16 348.51c-3.45 12.33-18.55 18.87-33.73 14.63s-29.31-19-25.87-31.3 23.18-17.58 38.36-13.33 24.69 17.67 21.24 30zm-57.46-16.07c-3.2 11.44 9.93 25.11 24 29.05s28.1-2.14 31.3-13.58-5.63-23.91-19.71-27.85-32.39.94-35.59 12.38z" style="fill:#fff"/><path d="M324.75 364.94a35.15 35.15 0 0 1-9.45-1.32c-15.07-4.22-29.81-19.08-26.22-31.92 1.66-5.94 7-10.63 15.11-13.22a43.34 43.34 0 0 1 23.87-.46 32.47 32.47 0 0 1 17.87 12.17c4.1 5.79 5.42 12.35 3.71 18.45-1.71 6.11-6.23 11-12.74 13.86a30.56 30.56 0 0 1-12.15 2.44zM317 317.56a41.51 41.51 0 0 0-12.47 1.87c-7.76 2.48-12.89 6.94-14.46 12.54-3.44 12.3 10.9 26.59 25.53 30.69a31.49 31.49 0 0 0 20.93-1.08c6.23-2.7 10.55-7.39 12.18-13.2 1.63-5.82.36-12.07-3.56-17.61A31.45 31.45 0 0 0 327.79 319a40.59 40.59 0 0 0-10.79-1.44zm7.39 45.64a32.63 32.63 0 0 1-8.78-1.23c-14-3.92-27.7-17.73-24.36-29.67 3.34-11.93 22.21-16.64 36.22-12.72a30.24 30.24 0 0 1 16.62 11.3c3.81 5.39 5 11.49 3.44 17.17s-5.8 10.25-11.85 12.88a28.32 28.32 0 0 1-11.32 2.27zm-32.18-30.63C289 344 302.29 357.21 315.85 361a29.21 29.21 0 0 0 19.4-1c5.78-2.5 9.78-6.85 11.29-12.23s.33-11.18-3.3-16.32a29.23 29.23 0 0 0-16.07-10.92c-13.56-3.78-31.8.65-34.99 12.04zM279.59 327.61l-.38 1.36-.38 1.35s-5.24.36-6.53 0L239 321l.86-3 .85-3.05 33.29 9.28c1.29.36 5.59 3.38 5.59 3.38z" style="fill:#263238"/><path d="M274.66 331a12 12 0 0 1-2.5-.18l-33.33-9.33a.47.47 0 0 1-.3-.23.51.51 0 0 1-.05-.38l1.71-6.09a.5.5 0 0 1 .61-.35l33.33 9.33c1.34.37 5.3 3.14 5.75 3.45a.51.51 0 0 1 .19.55l-.76 2.71a.48.48 0 0 1-.44.36c-.35.01-2.41.16-4.21.16zm-35.08-10.33 32.85 9.18a33.13 33.13 0 0 0 6 0l.56-2a33.33 33.33 0 0 0-5.15-3.11L241 315.52z" style="fill:#263238"/><path d="M240.49 322.07a.3.3 0 0 1-.13 0l-1.57-.44a.5.5 0 0 1-.35-.61l1.79-6.37a.5.5 0 0 1 .61-.35l1.57.44a.5.5 0 0 1 .3.24.5.5 0 0 1 0 .38l-1.71 6.35a.52.52 0 0 1-.23.3.54.54 0 0 1-.28.06zm-1-1.28.6.17 1.52-5.41-.61-.17z" style="fill:#263238"/><path d="M105.49 249.13c-.24-7.67 36.45-48 36.45-48l23 1.28s18.69 5.91 21.33 7.59 17.51 14.15 17.51 14.15 11 7.44 12.71 12.95 5.52 42 5.52 42l19.42 30.94 10.32 6.48a77.81 77.81 0 0 1 3.11 7.19c1.2 3.36 1 3.6-.72 3.6s-4.31-2.88-4.31-2.88a38.08 38.08 0 0 1-5.76 1.2 7.42 7.42 0 0 1-5.52-2.88 59.29 59.29 0 0 1-3.35-6.71c-.48-1.2-27.34-28.78-27.34-28.78l-11.28-30.7s-6.23 14.63-7 16.07-8.4 29.5-8.4 29.5-5.75 6.23-26.38.48-22.06-10.08-22.06-10.08l6-27.58 5-36.21s-25.9 24.94-28.3 25.66-5-1.92-5-1.92" style="fill:#fff"/><path d="M254.18 327.82c-1.61 0-3.76-2.08-4.47-2.82a34.22 34.22 0 0 1-5.6 1.14 7.9 7.9 0 0 1-5.94-3.11 58.34 58.34 0 0 1-3.4-6.8c-.61-1.1-16.62-17.72-27.23-28.61a.49.49 0 0 1-.11-.18l-10.84-29.52c-1.5 3.51-5.87 13.73-6.47 14.94-.52 1-5.28 18.15-8.36 29.41a.41.41 0 0 1-.12.2c-.24.27-6.2 6.4-26.88.63-20.3-5.67-22.25-9.93-22.41-10.4a.57.57 0 0 1 0-.26l6-27.58 4.83-34.75c-5.3 5.08-25.22 24.1-27.47 24.78-2.65.8-5.41-1.93-5.53-2a.5.5 0 0 1 0-.7.5.5 0 0 1 .71 0s2.45 2.41 4.54 1.79c1.67-.5 17.72-15.55 28.09-25.54a.52.52 0 0 1 .58-.09.51.51 0 0 1 .27.52l-5 36.21-6 27.45c.41.64 3.53 4.59 21.68 9.65 18.74 5.23 25 .41 25.8-.26.94-3.45 7.68-28 8.39-29.46s6.88-15.89 6.94-16a.51.51 0 0 1 .48-.3.48.48 0 0 1 .45.33L208.33 287c4.66 4.79 26.88 27.65 27.37 28.87a57.19 57.19 0 0 0 3.3 6.63 6.85 6.85 0 0 0 5.09 2.64 35.44 35.44 0 0 0 5.62-1.18.51.51 0 0 1 .51.14c1 1 2.88 2.72 3.94 2.72.71 0 .9-.06.94-.12.21-.3-.47-2.19-.69-2.81a74.49 74.49 0 0 0-3-7l-10.19-6.4a.46.46 0 0 1-.16-.15l-19.43-30.94a.58.58 0 0 1-.07-.21c0-.37-3.85-36.48-5.5-41.88s-12.4-12.61-12.51-12.69-14.92-12.5-17.5-14.14-20-7.14-21.15-7.51l-22.74-1.27c-12.68 13.94-36.35 41.55-36.16 47.44a.5.5 0 0 1-.49.51.49.49 0 0 1-.51-.48c-.25-7.79 35.08-46.67 36.58-48.32a.54.54 0 0 1 .4-.16L165 202h.12c.77.25 18.79 5.95 21.45 7.65s16.95 13.68 17.56 14.19c.41.27 11.16 7.56 12.87 13.19 1.64 5.39 5.24 39.29 5.52 41.94l19.31 30.75 10.21 6.41a.49.49 0 0 1 .18.2 77.9 77.9 0 0 1 3.14 7.25c.76 2.12 1 3.11.57 3.73s-.99.51-1.75.51z" style="fill:#263238"/><path d="M202.15 271.63c4-1.25 11.88-4 18.18-7.89-1.24-10.67-2.86-23.5-3.8-26.6-1.68-5.51-12.71-12.95-12.71-12.95S189 211.72 186.31 210 165 202.45 165 202.45l-23-1.28s-9 9.83-18 20.69c.67 4.53 3 12 11.15 15.22 4.88-4.61 8.75-8.33 8.75-8.33l-5 36.21-6 27.58s1.44 4.32 22.06 10.08 26.38-.48 26.38-.48 7.68-28.06 8.4-29.5 7-16.07 7-16.07z" style="fill:#6942d9"/><path d="M170.31 305.56a58.6 58.6 0 0 1-15.55-2.46c-20.3-5.67-22.25-9.93-22.41-10.4a.57.57 0 0 1 0-.26l6-27.58 4.83-34.75c-1.47 1.4-4.35 4.16-7.71 7.33a.51.51 0 0 1-.53.1c-8.47-3.33-10.82-11.2-11.46-15.6a.49.49 0 0 1 .11-.39c8.93-10.76 17.9-20.62 18-20.72a.54.54 0 0 1 .4-.16L165 202h.12c.77.25 18.79 5.95 21.45 7.65s16.95 13.68 17.56 14.19c.41.27 11.16 7.56 12.87 13.19 1 3.15 2.61 16.25 3.82 26.68a.51.51 0 0 1-.23.48 83.58 83.58 0 0 1-18.3 7.94.5.5 0 0 1-.62-.3l-5.09-13.88c-1.5 3.51-5.87 13.73-6.47 14.94-.52 1-5.28 18.15-8.36 29.41a.41.41 0 0 1-.12.2c-.15.16-2.98 3.06-11.32 3.06zm-37-13.08c.41.64 3.53 4.59 21.68 9.65 18.74 5.23 25 .41 25.8-.26.94-3.45 7.68-28 8.39-29.46s6.88-15.89 6.94-16a.51.51 0 0 1 .48-.3.48.48 0 0 1 .45.33l5.41 14.56a82.49 82.49 0 0 0 17.34-7.53c-1.71-14.71-3-23.77-3.75-26.19-1.61-5.29-12.4-12.61-12.51-12.69s-14.92-12.5-17.5-14.14-20-7.14-21.15-7.51l-22.74-1.27c-1.23 1.36-9.44 10.45-17.66 20.33.65 4.17 2.88 11.33 10.51 14.49 4.77-4.51 8.51-8.11 8.51-8.11a.52.52 0 0 1 .58-.09.5.5 0 0 1 .27.52l-5 36.21z" style="fill:#263238"/><path d="M196.62 257.07a.56.56 0 0 1-.27-.08l-3.35-2.16a.5.5 0 0 1 .54-.84l2.17 1.4-1.35-4.15a.5.5 0 0 1 .95-.31l1.79 5.48a.49.49 0 0 1-.17.55.51.51 0 0 1-.31.11zM193.83 248.51a.5.5 0 0 1-.47-.35l-.81-2.47a.5.5 0 0 1 .95-.31l.81 2.47a.5.5 0 0 1-.32.63.45.45 0 0 1-.16.03zM143.86 229.25a.51.51 0 0 1-.48-.36l-4.79-16.07a.5.5 0 0 1 .33-.62.49.49 0 0 1 .62.34l3.54 11.86-.68-10.73a.5.5 0 0 1 .47-.53.5.5 0 0 1 .53.47l1 15.11a.5.5 0 0 1-.41.52zM145.3 258a.47.47 0 0 1-.35-.15.5.5 0 0 1 0-.71s.77-.77 2.82-2.6a.5.5 0 1 1 .67.75c-2 1.81-2.78 2.55-2.79 2.56a.47.47 0 0 1-.35.15zM150.46 253.37a.52.52 0 0 1-.38-.17.49.49 0 0 1 0-.7c2.92-2.54 6.51-5.58 10.68-9a77.71 77.71 0 0 1 26.58-14 .49.49 0 0 1 .6.36.5.5 0 0 1-.35.61 76.44 76.44 0 0 0-26.19 13.81c-4.17 3.45-7.75 6.48-10.66 9a.54.54 0 0 1-.28.09zM151.54 247.23a.5.5 0 0 1-.34-.86c2.87-2.64 11.22-8 11.58-8.21a.5.5 0 0 1 .54.84c-.09.06-8.63 5.52-11.45 8.1a.46.46 0 0 1-.33.13z" style="fill:#263238"/><path d="M168.08 429s-3.59.24-3.35 2.16-1.2 12.95-.72 14.39 4.79 1.67 7.91 1.43 7-1 7-1 7.19 1.2 9.11 1.2 5.28-1 5-2.87-2.88-2.88-4.8-4.32a18.2 18.2 0 0 1-5.52-5.76c-1.44-2.63-5.75-7.19-7.91-6.71s-6.72 1.48-6.72 1.48z" style="fill:#fff"/><path d="M188 447.73c-1.84 0-8.25-1-9.11-1.19-.59.11-4.07.73-6.92.95-.78.06-7.66.52-8.43-1.78-.27-.83-.06-3.63.33-8.16a58.07 58.07 0 0 0 .37-6.32 1.84 1.84 0 0 1 .4-1.39c.91-1.09 3-1.3 3.38-1.33s4.63-1 6.68-1.43c2.54-.55 7 4.25 8.46 7a18 18 0 0 0 5.38 5.6c.51.38 1.08.74 1.64 1.08 1.55 1 3.15 1.95 3.35 3.57A2 2 0 0 1 193 446c-1.17 1.25-3.69 1.73-5 1.73zm-9.11-2.19h.11c.07 0 7.17 1.19 9 1.19 1.43 0 3.45-.54 4.23-1.43a1.07 1.07 0 0 0 .31-.88c-.14-1.16-1.47-2-2.88-2.85a19.59 19.59 0 0 1-1.72-1.13 18.46 18.46 0 0 1-5.66-5.92c-1.48-2.72-5.61-6.86-7.36-6.46-2.16.48-6.72 1.44-6.72 1.44h-.07a4.57 4.57 0 0 0-2.72 1 .78.78 0 0 0-.18.62 52.82 52.82 0 0 1-.36 6.53c-.26 3-.61 7.07-.38 7.77.3.88 3.69 1.38 7.4 1.1 3.06-.24 6.87-.95 6.9-1zM168.08 429z" style="fill:#263238"/><path d="M177.68 326.12s3.12 6 6.95 20.38 5.76 20.39 5.52 22.79-11.27 50.12-12 55.16 0 4.8-1 7-3.12 3.83-5 2.87a8.08 8.08 0 0 1-4.08-5.27c-.24-1.92 1-24.23 1-24.23s-1-23-.72-25.66-11.51-38.85-11.51-38.85z" style="fill:#fff"/><path d="M173.32 435.06a3 3 0 0 1-1.38-.33 8.49 8.49 0 0 1-4.35-5.66c-.25-1.94.9-23.4.95-24.31s-.95-23-.71-25.68c.16-1.86-6.78-24.14-11.49-38.66a.49.49 0 0 1 .19-.56l20.87-14.15a.48.48 0 0 1 .4-.08.49.49 0 0 1 .32.26c.13.25 3.19 6.21 7 20.49.92 3.45 1.73 6.42 2.42 9 2.26 8.29 3.3 12.07 3.11 14-.12 1.13-2.45 11.55-5.15 23.62-3 13.53-6.46 28.86-6.85 31.56a33 33 0 0 0-.37 4.2 6.14 6.14 0 0 1-.63 2.89 6 6 0 0 1-3.19 3.24 3.32 3.32 0 0 1-1.14.17zm-15.92-94.59c1.65 5.08 11.66 36.1 11.42 38.7s.71 25.36.72 25.59c-.41 7.75-1.15 22.7-1 24.18a7.65 7.65 0 0 0 3.8 4.9 2.15 2.15 0 0 0 1.74.07 5 5 0 0 0 2.62-2.71 5.17 5.17 0 0 0 .54-2.51 34.06 34.06 0 0 1 .38-4.31c.39-2.74 3.83-18.09 6.86-31.64 2.59-11.53 5-22.43 5.13-23.5.17-1.73-.91-5.71-3.07-13.63-.7-2.55-1.51-5.52-2.43-9-3.17-11.86-5.86-18.05-6.67-19.77z" style="fill:#263238"/><path d="M172.16 434.28c1.92 1 4.08-.72 5-2.87s.24-1.92 1-7c.09-.65.35-2 .74-3.86h-10.62c-.18 4.16-.29 7.7-.2 8.42a8.08 8.08 0 0 0 4.08 5.31z" style="fill:#fff"/><path d="M173.32 435.06a3 3 0 0 1-1.38-.33 8.49 8.49 0 0 1-4.35-5.66c0-.24-.12-1 .19-8.5a.5.5 0 0 1 .5-.48h10.62a.51.51 0 0 1 .39.19.49.49 0 0 1 .1.41c-.41 1.94-.65 3.23-.74 3.83a33 33 0 0 0-.37 4.2 6.14 6.14 0 0 1-.63 2.89 6 6 0 0 1-3.19 3.24 3.32 3.32 0 0 1-1.14.21zm-4.56-14c-.24 5.76-.23 7.46-.18 7.85a7.65 7.65 0 0 0 3.8 4.9 2.15 2.15 0 0 0 1.74.07 5 5 0 0 0 2.62-2.71 5.17 5.17 0 0 0 .54-2.51 34.06 34.06 0 0 1 .38-4.31c.08-.56.29-1.64.62-3.29zM184.63 346.5c-3.83-14.39-6.95-20.38-6.95-20.38l-20.87 14.15s6.87 21.16 10 32.31a45.87 45.87 0 0 0 22.2-9.84c-.93-3.62-2.39-8.8-4.38-16.24z" style="fill:#263238"/><path d="M166.81 373.08a.51.51 0 0 1-.49-.37c-3.08-11-9.92-32.07-10-32.29a.49.49 0 0 1 .19-.56l20.87-14.15a.48.48 0 0 1 .4-.08.49.49 0 0 1 .32.26c.13.25 3.19 6.21 7 20.49.91 3.43 1.72 6.39 2.41 8.93.81 3 1.46 5.36 2 7.3a.52.52 0 0 1-.17.52 46.2 46.2 0 0 1-22.45 9.95zm-9.41-32.61c.91 2.8 6.85 21.23 9.77 31.55a45.2 45.2 0 0 0 21.27-9.47c-.49-1.89-1.11-4.18-1.87-7-.7-2.54-1.5-5.5-2.42-8.94-3.17-11.86-5.86-18.05-6.67-19.77z" style="fill:#263238"/><path d="M133.79 290.14s-3.36 16.07-1 21.83 13.67 20.14 13.67 20.14l5.76 42s-12.48 10.55-16.79 15.34-22.31 21.35-22.31 21.35-4.07 2.4-4.31 4.8 2.39 6.95 5.75 7.43a9.44 9.44 0 0 0 5.76-1s20.62-15.11 30.22-20.14 22.3-17.75 22.3-17.75 2.88-2.88 2.88-4.08 3.36-50.6 3.6-54.92 2.19-26.14 2.19-26.14z" style="fill:#fff"/><path d="M116 423.61a10.61 10.61 0 0 1-1.45-.1c-3.66-.53-6.45-5.35-6.18-8s4-4.86 4.51-5.15c.93-.86 18.08-16.66 22.24-21.28 4-4.42 15-13.81 16.62-15.22L146 332.32c-1.11-1.43-11.34-14.6-13.65-20.16-2.43-5.83.79-21.46.93-22.12a.5.5 0 0 1 .58-.39l47.73 8.88a.49.49 0 0 1 .4.53c0 .22-1.92 21.87-2.15 26.13-.11 1.89-.82 12.49-1.57 23.71-.95 14.31-2 30.52-2 31.18 0 1.34-2.52 3.93-3 4.43-.12.13-12.87 12.82-22.42 17.84s-29.95 19.95-30.16 20.11a9.65 9.65 0 0 1-4.69 1.15zm18.2-132.88c-.53 2.7-3 16-.89 21 2.35 5.62 13.49 19.88 13.6 20a.43.43 0 0 1 .1.24l5.76 42a.51.51 0 0 1-.17.45c-.13.1-12.5 10.58-16.74 15.3S113.68 411 113.5 411.15l-.08.06c-1.08.63-3.9 2.66-4.08 4.42-.22 2.21 2.33 6.46 5.33 6.89a8.86 8.86 0 0 0 5.43-.9c.17-.12 20.73-15.16 30.24-20.16s22.06-17.53 22.19-17.66c1.31-1.31 2.73-3.11 2.73-3.72s1-16.23 2-31.25c.75-11.22 1.45-21.81 1.56-23.7.22-3.93 1.84-22.55 2.12-25.7z" style="fill:#263238"/><path d="M114.6 423a9.44 9.44 0 0 0 5.76-1s3.76-2.75 8.81-6.3l-10-10.56c-3.44 3.21-6 5.59-6 5.59s-4.07 2.4-4.31 4.8 2.38 7 5.74 7.47z" style="fill:#fff"/><path d="M116 423.61a10.61 10.61 0 0 1-1.45-.1c-3.66-.53-6.45-5.35-6.18-8s4-4.86 4.51-5.15c.33-.31 2.79-2.57 6-5.56a.5.5 0 0 1 .71 0l10 10.57a.51.51 0 0 1 .14.39.5.5 0 0 1-.21.36c-5 3.5-8.77 6.27-8.81 6.3a9.65 9.65 0 0 1-4.71 1.19zm3.19-17.72c-3.26 3-5.67 5.26-5.67 5.26l-.08.06c-1.08.63-3.9 2.66-4.08 4.42-.22 2.21 2.33 6.46 5.33 6.89a9 9 0 0 0 5.43-.9s3.55-2.6 8.31-5.95zM179.36 325.16c.24-4.32 2.15-26.14 2.15-26.14l-47.72-8.88s-3.36 16.07-1 21.83 13.67 20.14 13.67 20.14l4.54 32.52a43.38 43.38 0 0 0 25.66 1.85c.98-15.32 2.54-38.43 2.7-41.32z" style="fill:#263238"/><path d="M167 368.13a46 46 0 0 1-16.17-3 .52.52 0 0 1-.32-.4L146 332.32c-1.11-1.43-11.34-14.6-13.65-20.16-2.43-5.83.79-21.46.93-22.12a.5.5 0 0 1 .58-.39l47.73 8.88a.49.49 0 0 1 .4.53c0 .22-1.92 21.87-2.15 26.13-.11 1.88-.81 12.43-1.56 23.6-.4 6.06-.82 12.37-1.18 17.72a.49.49 0 0 1-.38.45 41.32 41.32 0 0 1-9.72 1.17zm-15.54-3.87a43 43 0 0 0 24.74 1.82c.35-5.28.76-11.43 1.15-17.36.75-11.16 1.45-21.71 1.56-23.59.22-3.93 1.84-22.55 2.12-25.7l-46.8-8.7c-.53 2.7-3 16-.89 21 2.35 5.62 13.49 19.88 13.6 20a.43.43 0 0 1 .1.24zm28-39.1z" style="fill:#263238"/><path d="M114.36 408.38s.72-1.92-1.2 2.4 0 9.11 1.68 10.31 8.88-1.44 7.2-.24-1.68 10.56-1.68 10.56 1.68 9.35 2.88 10.79 2.87 2.88 1.91 3.6-3.59 1.91-8.63.95-8.63-2.15-10.31-5-3.36-10.79-6.24-16.07-4.08-10.07-1.44-12 9.6-3.6 9.6-3.6 6.23-4.08 6.23-1.7z" style="fill:#fff"/><path d="M120 447.61a19.94 19.94 0 0 1-3.58-.36c-5.12-1-8.89-2.25-10.65-5.28a37.29 37.29 0 0 1-2.39-6.25 61.42 61.42 0 0 0-3.86-9.83c-3.47-6.36-3.91-10.73-1.29-12.64s8.84-3.45 9.68-3.66c1.23-.79 5-3.06 6.35-2.3a1 1 0 0 1 .2.13l.21.07c.48.2.29.68.15 1.07a.53.53 0 0 1-.23.26c-.18.39-.49 1.05-1 2.16-1.8 4.06-.05 8.59 1.51 9.71.79.56 3.68 0 5.23-.36 1.71-.36 2.16-.45 2.38.05s-.25.76-.41.88c-1 .72-1.47 6.37-1.47 10.15.63 3.47 2 9.49 2.76 10.47l.72.82c.9 1 1.67 1.86 1.59 2.68a1.14 1.14 0 0 1-.48.82 9 9 0 0 1-5.42 1.41zm-6.48-39.49c-.92 0-3.25 1.13-5.13 2.36l-.16.07c-.07 0-6.89 1.67-9.41 3.51-2.87 2.09-.24 8 1.58 11.35a62.22 62.22 0 0 1 3.93 10 38.35 38.35 0 0 0 2.3 6.06c1.58 2.7 5.13 3.87 10 4.79 5.24 1 7.64-.41 8.24-.87.08-.05.09-.09.09-.11 0-.38-.76-1.27-1.35-1.92-.25-.27-.5-.56-.74-.84-1.25-1.5-2.81-10.06-3-11 0-1.49.06-7.91 1.3-10.31l-.6.13c-2.67.55-5 .94-6 .19-2-1.45-3.79-6.54-1.84-10.92.52-1.18.85-1.93 1.09-2.41a.54.54 0 0 0-.29-.08zm1.33.26z" style="fill:#263238"/><path style="fill:#fff" d="m241.47 310.05-6.23 6-3.47-4.45 6.42-6.94 3.28 5.39z"/><path d="M235.24 316.55a.52.52 0 0 1-.36-.19l-3.47-4.44a.5.5 0 0 1 0-.65l6.42-6.94a.48.48 0 0 1 .42-.16.52.52 0 0 1 .38.24l3.28 5.39a.5.5 0 0 1-.08.62l-6.24 6a.48.48 0 0 1-.35.13zm-2.82-4.92 2.87 3.67 5.55-5.33-2.73-4.48z" style="fill:#263238"/></g></svg>