<svg xmlns="http://www.w3.org/2000/svg" viewBox="0 0 500 500"><path style="fill:#ebebeb" d="M0 382.4h500v.25H0zM237 337.8H43.91a5.71 5.71 0 0 1-5.7-5.71V60.66a5.71 5.71 0 0 1 5.7-5.66H237a5.71 5.71 0 0 1 5.71 5.71v271.38a5.71 5.71 0 0 1-5.71 5.71zM43.91 55.2a5.46 5.46 0 0 0-5.45 5.46v271.43a5.46 5.46 0 0 0 5.45 5.46H237a5.47 5.47 0 0 0 5.46-5.46V60.66A5.47 5.47 0 0 0 237 55.2zM453.31 337.8h-193.1a5.72 5.72 0 0 1-5.71-5.71V60.66a5.72 5.72 0 0 1 5.71-5.66h193.1a5.71 5.71 0 0 1 5.69 5.66v271.43a5.71 5.71 0 0 1-5.69 5.71zM260.21 55.2a5.47 5.47 0 0 0-5.46 5.46v271.43a5.47 5.47 0 0 0 5.46 5.46h193.1a5.47 5.47 0 0 0 5.46-5.46V60.66a5.47 5.47 0 0 0-5.46-5.46zM174.44 391.92h26v.25h-26zM52.46 389.21h54.1v.25h-54.1zM147.12 401.21h26.32v.25h-26.32zM258.23 399.53h38.83v.25h-38.83zM305.96 399.53h10.69v.25h-10.69zM395.35 395.31h54.56v.25h-54.56z"/><path transform="rotate(180 403.885 310.79)" style="fill:#f0f0f0" d="M381.06 248.05h45.65v125.47h-45.65z"/><path transform="rotate(180 299.84 377.96)" style="fill:#f0f0f0" d="M181.74 373.53h236.21v8.87H181.74z"/><path style="fill:#f5f5f5" d="M172.97 248.05h208.09v125.47H172.97z"/><path style="fill:#f0f0f0" d="M172.97 256.55h208.89v45.93H172.97zM172.97 310.85h208.89v45.93H172.97z"/><path transform="rotate(180 385.01 279.51)" style="fill:#e6e6e6" d="M381.06 256.55h7.9v45.93h-7.9z"/><path transform="rotate(180 385.01 333.81)" style="fill:#e6e6e6" d="M381.06 310.85h7.9v45.93h-7.9z"/><path transform="rotate(180 273.975 244.19)" style="fill:#f0f0f0" d="M166.89 240.33h214.17v7.72H166.89z"/><path style="fill:#e6e6e6" d="M381.06 240.33h52.03v7.72h-52.03z"/><path transform="rotate(180 381.86 149.205)" style="fill:#f0f0f0" d="M328.14 81.68h107.43v135.04H328.14z"/><path transform="rotate(180 367.945 149.205)" style="fill:#f5f5f5" d="M304.43 81.68h127.03v135.04H304.43z"/><path transform="rotate(-90 367.945 149.205)" style="fill:#fff" d="M311.06 96.33h113.76v105.75H311.06z"/><path d="m379.65 161.52 20.21-9.37v-5.89l-20.21-9.39v7.06l12.28 5.29-12.28 5.29zM366.47 134.15h-3.69l6.54 30.11H373zM356.23 154.51 344 149.22l12.28-5.29v-7.06L336 146.26v5.89l20.21 9.37z" style="fill:#e6e6e6"/><path transform="rotate(180 120.735 267.81)" style="fill:#f0f0f0" d="M117.21 153.22h7.04V382.4h-7.04z"/><path d="m115.75 380.8-.19-1a5.58 5.58 0 0 0 3.33-2.91c1.83-3.24 2.94-10.15-2.15-24.63-7.84-22.32-3.16-40.32 6.17-76.2 1.62-6.25 3.46-13.33 5.37-21 7.17-28.67.54-46.45-4.79-60.74-4.13-11.09-7.4-19.85-3.22-30l.93.38c-4 9.78-.83 18.38 3.23 29.27 5.38 14.41 12.07 32.36 4.82 61.32-1.91 7.66-3.75 14.74-5.37 21-9.28 35.71-13.94 53.63-6.19 75.71 5.23 14.89 4 22.09 2 25.5a6.48 6.48 0 0 1-3.94 3.3z" style="fill:#f0f0f0"/><path style="fill:#f0f0f0" d="M107.99 382.4h25.49l-7.09-4.18h-11.31l-7.09 4.18z"/><path style="fill:#f5f5f5" d="M70.31 182.41h100.85l-11.1-84.74H81.41l-11.1 84.74z"/><path style="fill:#f0f0f0" d="M219.88 196.38h53.84l-7.09 43.95h-39.66l-7.09-43.95z"/><path d="M241.51 210.68c14.68-5.31 25.92-13.29 13.34-29.44s-32.07-16.07-45.21-8.92c-16.74 9.1-13.38 35.45-13.38 35.45s30.57 8.23 45.25 2.91z" style="fill:#e0e0e0"/><path d="M255.78 196c-11.23-7.65-19.19-16.5-6.16-25.84s29.1-4.55 38.76 4.12c12.31 11.06 5.2 30.47 5.2 30.47s-26.58-1.14-37.8-8.75z" style="fill:#e6e6e6"/><path d="M236 176.59c13.14-.79 24.16-4.22 17.94-18.45s-22-18.22-34.31-15.78c-15.73 3.11-19.44 22.79-19.44 22.79s22.68 12.24 35.81 11.44z" style="fill:#f0f0f0"/><path d="M252.5 168.2c-10.93-3.52-19.5-8.79-11.17-19.48s22.5-10.63 32.4-5.91c12.62 6 11.5 23.46 11.5 23.46s-21.8 5.44-32.73 1.93z" style="fill:#ebebeb"/><path d="M232 150c10.91 3.6 20.94 4.38 20.49-9.16s-11.91-21.84-22.69-23.9c-13.75-2.56-23.11 12.19-23.11 12.19S221.11 146.37 232 150z" style="fill:#f5f5f5"/><path d="M259.69 144.15c-7.81.54-14.56-.64-12-9.51s11.56-12.4 19-11.91c9.5.63 13.19 12 13.19 12s-12.39 8.89-20.19 9.42z" style="fill:#fafafa"/><g><ellipse cx="250" cy="416.24" rx="193.89" ry="11.32" style="fill:#f5f5f5"/></g><g><path style="fill:#926dfc" d="M79.51 251.09h339.75v12.19H79.51z"/><path style="fill:#fff;opacity:.30000000000000004" d="M79.51 251.09h90.93v12.19H79.51z"/><path style="fill:#926dfc" d="M171.89 263.28h-7.91l4.14 152.78h7.54l4.15-152.78h-7.92z"/><path style="fill:#fff;opacity:.30000000000000004" d="M168.12 416.06h3.77v-149.5l-7.78 1.42 4.01 148.08z"/><path style="fill:#926dfc" d="M96.92 263.28h-7.91l4.14 152.78h7.54l4.14-152.78h-7.91z"/><path style="fill:#fff;opacity:.30000000000000004" d="M93.15 416.06h3.77v-149.5l-7.79 1.42 4.02 148.08z"/><path style="fill:#926dfc" d="M401.85 263.28h-7.91l4.14 152.78h7.54l4.15-152.78h-7.92z"/><path style="fill:#fff;opacity:.30000000000000004" d="M398.08 416.06h3.77v-149.5l-7.78 1.42 4.01 148.08z"/><path style="fill:#926dfc" d="M326.88 263.28h-7.91l4.14 152.78h7.54l4.14-152.78h-7.91z"/><path style="fill:#fff;opacity:.30000000000000004" d="M323.11 416.06h3.77v-149.5l-7.78 1.42 4.01 148.08z"/><path d="M240.78 185.83H160a4.16 4.16 0 0 0-4.17 5.28l10.76 51.35a6.87 6.87 0 0 0 6.38 5.27h80.84a4.16 4.16 0 0 0 4.17-5.27l-10.77-51.35a6.87 6.87 0 0 0-6.43-5.28z" style="fill:#263238"/><path d="M173.67 244.8a4.79 4.79 0 0 1-4.32-3.6l-10.76-51.35a2.35 2.35 0 0 1 .37-2 2.17 2.17 0 0 1 1.73-.73h80.84a4.79 4.79 0 0 1 4.32 3.6l10.76 51.35a2.35 2.35 0 0 1-.37 2 2.14 2.14 0 0 1-1.73.73z" style="fill:#fff"/><path d="M234.66 240.69 224.46 192a2 2 0 0 1 1.94-2.39h13.12a2 2 0 0 1 1.94 1.58l10.2 48.65a2 2 0 0 1-1.94 2.39H236.6a2 2 0 0 1-1.94-1.54z" style="fill:#926dfc;opacity:.4"/><path style="fill:#926dfc" d="m165.32 193.87-.44-2.11h16.2l.44 2.11h-16.2z"/><path style="fill:#ebebeb" d="m172.8 199.11-.44-2.11h28.39l.45 2.11h-28.4zM174.3 204.34l-.45-2.11h31.83l.44 2.11H174.3zM175.79 209.58l-.44-2.11h25.62l.45 2.11h-25.63z"/><path style="fill:#926dfc" d="m170.25 218.07-.45-2.11h10.25l.44 2.11h-10.24z"/><path style="fill:#ebebeb" d="m177.72 223.3-.44-2.11h12.48l.45 2.11h-12.49zM193.2 223.3l-.45-2.11h12.49l.44 2.11H193.2zM179.22 228.54l-.44-2.11h42.2l.44 2.11h-42.2zM180.71 233.77l-.44-2.11h32.18l.44 2.11h-32.18z"/><path d="M278.52 247.42H172.16c-2.9 0-4.78 1.65-4.17 3.67H284.9c-.6-2.02-3.48-3.67-6.38-3.67z" style="fill:#263238"/><path d="M137.21 172.85 127 124.19a2 2 0 0 1 1.94-2.38h82.6a2 2 0 0 1 1.94 1.57L223.69 172a2 2 0 0 1-1.94 2.39h-82.6a2 2 0 0 1-1.94-1.54z" style="fill:#926dfc;opacity:.1"/><path style="fill:#926dfc" d="M166.57 123.41h-17.34l-.39-1.87h17.34l.39 1.87z"/><path style="fill:#926dfc;opacity:.4" d="M163.75 126.39h-6.96l-.39-1.87h6.96l.39 1.87zM175.33 126.39h-10.72l-.39-1.87h10.72l.39 1.87zM180 129.36h-22.59l-.39-1.87h22.6l.38 1.87zM177.13 132.34h-19.1l-.39-1.87h19.1l.39 1.87zM189.8 163.95h-12.16l.39 1.86h12.16l-.39-1.86z"/><path style="fill:#926dfc" d="M174.64 159.87h-17.81l-.39-1.87h17.81l.39 1.87z"/><path style="fill:#926dfc;opacity:.4" d="M181.8 166.92h-16.56l.39 1.87h16.56l-.39-1.87zM176.78 163.95h-12.16l.39 1.86h12.16l-.39-1.86zM188.32 160.97H164l.39 1.87h24.32l-.39-1.87z"/><path style="fill:#926dfc" d="M165.96 109.53h-19.62l-.39-1.86h19.62l.39 1.86z"/><path style="fill:#926dfc;opacity:.4" d="M175.65 116.59h-21.64l.39 1.87h21.63l-.38-1.87zM171.32 113.62h-17.93l.39 1.86h17.93l-.39-1.86zM172.51 110.64h-19.74l.39 1.87h19.74l-.39-1.87z"/><path style="fill:#926dfc" d="M165.74 137.18H152.1l-.39-1.87h13.64l.39 1.87z"/><path style="fill:#926dfc;opacity:.4" d="M187.16 144.23h-26.65l.39 1.87h26.64l-.38-1.87zM170.93 141.26h-11.04l.39 1.87h11.04l-.39-1.87zM182.91 141.26h-11.04l.39 1.87h11.04l-.39-1.87zM183.59 138.28h-24.32l.39 1.87h24.31l-.38-1.87zM183.54 153.16h-21.17l.39 1.86h21.17l-.39-1.86zM167.91 150.18h-6.16l.39 1.87h6.15l-.38-1.87zM177.54 150.18h-8.79l.39 1.87h8.79l-.39-1.87zM185.45 147.21h-24.32l.39 1.86h24.32l-.39-1.86zM204.6 146.71h-8.71l-.39-1.87h8.72l.38 1.87zM219.1 146.71h-13.42l-.39-1.87h13.42l.39 1.87zM224.8 149.69h-28.29l-.39-1.87h28.29l.39 1.87zM221.04 152.66h-23.91l-.39-1.87h23.91l.39 1.87zM231.75 134.88h-27.09l.39 1.86h27.09l-.39-1.86zM226.49 131.9h-22.45l.39 1.87h22.44l-.38-1.87z"/><path style="fill:#926dfc" d="M222.43 128.93h-24.72l.39 1.86h24.72l-.39-1.86z"/><path style="fill:#926dfc;opacity:.4" d="M232.97 164.56h-33.36l.39 1.87h33.36l-.39-1.87zM212.81 161.59h-13.82l.39 1.86h13.82l-.39-1.86zM227.81 161.59h-13.82l.39 1.86h13.82l-.39-1.86zM228.81 158.61h-30.44l.39 1.87h30.44l-.39-1.87zM227.97 173.48h-26.5l.39 1.87h26.5l-.39-1.87zM208.56 170.51h-7.71l.39 1.87h7.71l-.39-1.87zM220.62 170.51h-11l.39 1.87h11l-.39-1.87zM230.68 167.53h-30.45l.39 1.87h30.44l-.38-1.87zM149.6 175.79h-20.74l.39 1.87h20.74l-.39-1.87zM143.47 172.82h-15.23l.39 1.86h15.22l-.38-1.86zM159.76 172.82h-15.22l.39 1.86h15.23l-.4-1.86zM158.07 169.84h-30.45l.39 1.87h30.44l-.38-1.87z"/><path style="fill:#926dfc" d="M390.95 231.66h-12.84l1.5 19.43h9.84l1.5-19.43z"/><path style="fill:#fff;opacity:.4" d="M390.95 231.66h-12.84l1.5 19.43h9.84l1.5-19.43z"/><path style="fill:#263238" d="M111.13 218.17h18.46l-6.3 32.92h-18.46l6.3-32.92z"/><path style="fill:#926dfc" d="M134.64 209.35h-26.07l7.3 41.74h26.07l-7.3-41.74z"/><path style="fill:#926dfc" d="M107.03 209.35h1.54l7.3 41.74h-1.54l-7.3-41.74z"/><path style="opacity:.30000000000000004" d="M107.03 209.35h1.54l7.3 41.74h-1.54l-7.3-41.74z"/><path style="fill:#fff" d="m119.62 246.62-5.74-32.81h17.02l5.73 32.81h-17.01z"/><path style="fill:#926dfc;opacity:.6000000000000001" d="m135.82 246.62-5.73-32.81h.81l5.73 32.81h-.81z"/></g><g><path d="M263.77 156c.37.8.25 1.65-.28 1.89s-1.25-.21-1.62-1-.24-1.65.28-1.89 1.25.16 1.62 1z" style="fill:#263238"/><path d="M264.09 157.58s.32 5.46-.66 8.62c2 .67 4.16-1 4.16-1z" style="fill:#ff5652"/><path d="M263.87 149.39a.53.53 0 0 1-.3.12 4.12 4.12 0 0 0-3.29 1.79.52.52 0 1 1-.9-.52 5.14 5.14 0 0 1 4.13-2.31.52.52 0 0 1 .36.92z" style="fill:#263238"/><path d="M293.22 154.76c3.09 10.7 6.54 19 10.75 23.74 0 0 .08 8.41-14.25 12.41-15.76 4.4-9.72-5.72-9.72-5.72 8-4.45 7.24-11.17 1.22-13.73z" style="fill:#ff8b7b"/><path d="M307.31 176.45c-.28-3.91-.65-8.37-3.06-8.49-2.66-.12-18.06 6.76-21.35 11.61s3.14 9.6 3.14 9.6z" style="fill:#263238"/><path d="m275.79 237-13.3-.44.24 11.14s11.6-1.2 12.11-4.25zM255.46 242.03l-1.4 5.7 8.67-.02-.24-11.14-7.03 5.46z" style="fill:#ff8b7b"/><path d="m329.17 190.71-.28 2.86c-.09.92-.21 1.82-.33 2.73-.23 1.81-.52 3.62-.83 5.42-.6 3.61-1.38 7.2-2.28 10.81a107.83 107.83 0 0 1-3.32 10.87c-.69 1.83-1.41 3.66-2.27 5.52a45.73 45.73 0 0 1-3 5.65c-.27.47-.61 1-.94 1.44s-.65 1-1 1.46-.72 1-1.18 1.47l-.65.74a10.06 10.06 0 0 1-.74.78 22.81 22.81 0 0 1-6.93 4.65 41 41 0 0 1-12.43 3.15c-1.95.23-3.88.32-5.77.37s-3.78 0-5.64-.1-3.7-.26-5.53-.48-3.61-.51-5.55-.9l.32-10.45a160.33 160.33 0 0 0 18.9-4.5 41.44 41.44 0 0 0 4.06-1.56 18.63 18.63 0 0 0 3.22-1.75 4.48 4.48 0 0 0 1.46-1.42l.29-.46a6.53 6.53 0 0 0 .37-.61 7.56 7.56 0 0 0 .39-.71c.13-.26.27-.5.4-.79a52.59 52.59 0 0 0 2.89-7.94c.82-2.94 1.59-6 2.21-9.17s1.22-6.37 1.77-9.6l.76-4.86.69-4.73z" style="fill:#926dfc"/><path d="m329.17 190.71-.28 2.86c-.09.92-.21 1.82-.33 2.73-.23 1.81-.52 3.62-.83 5.42-.6 3.61-1.38 7.2-2.28 10.81a107.83 107.83 0 0 1-3.32 10.87c-.69 1.83-1.41 3.66-2.27 5.52a45.73 45.73 0 0 1-3 5.65c-.27.47-.61 1-.94 1.44s-.65 1-1 1.46-.72 1-1.18 1.47l-.65.74a10.06 10.06 0 0 1-.74.78 22.81 22.81 0 0 1-6.93 4.65 41 41 0 0 1-12.43 3.15c-1.95.23-3.88.32-5.77.37s-3.78 0-5.64-.1-3.7-.26-5.53-.48-3.61-.51-5.55-.9l.32-10.45a160.33 160.33 0 0 0 18.9-4.5 41.44 41.44 0 0 0 4.06-1.56 18.63 18.63 0 0 0 3.22-1.75 4.48 4.48 0 0 0 1.46-1.42l.29-.46a6.53 6.53 0 0 0 .37-.61 7.56 7.56 0 0 0 .39-.71c.13-.26.27-.5.4-.79a52.59 52.59 0 0 0 2.89-7.94c.82-2.94 1.59-6 2.21-9.17s1.22-6.37 1.77-9.6l.76-4.86.69-4.73z" style="opacity:.2"/><path d="M270.12 204a326.55 326.55 0 0 1 8.33 65.14H337c.32-7.23-.9-48-6.79-77.45a20.4 20.4 0 0 0-24.4-16l-.28.07c-7.31 1.66-17.8 4.34-24 6.69l-.25.1A18.33 18.33 0 0 0 270.12 204z" style="fill:#926dfc"/><path d="M273.93 222.7c.46 2.81.93 5.79 1.36 8.91 4.79-5 6.31-20.32 6.31-20.32z" style="opacity:.2"/><path d="M225.29 237.73 212 236.49l-.44 11.13a12.48 12.48 0 0 0 12.44-3.51z" style="fill:#ff8b7b"/><path style="fill:#ff8b7b" d="m205.68 239.77-4.26 7.65 10.18.2.44-11.13-6.36 3.28z"/><path d="M292.09 198.87c-.92 1.75-1.74 3.3-2.66 4.9s-1.8 3.16-2.75 4.71a199.1 199.1 0 0 1-5.89 9.21 153.64 153.64 0 0 1-13.71 17.64 75.7 75.7 0 0 1-8.69 8.27c-.39.33-.85.65-1.28 1s-.81.63-1.45 1-1.18.74-1.76 1.06-1.18.61-1.77.87a31.42 31.42 0 0 1-6.88 2.09 43.44 43.44 0 0 1-12.52.28 52 52 0 0 1-5.8-1q-1.43-.33-2.82-.75c-1-.28-1.81-.59-2.88-1l1.65-10.32c6.28-.85 13.07-1.94 17.75-4.06a12.83 12.83 0 0 0 2.91-1.67 6.81 6.81 0 0 0 1-.84c.07-.09.38-.36.61-.58s.5-.43.75-.69a71.37 71.37 0 0 0 6-6.75 195.49 195.49 0 0 0 11.27-16.16c1.8-2.83 3.55-5.71 5.3-8.6l2.58-4.34 2.49-4.27z" style="fill:#926dfc"/><path style="fill:#ff8b7b" d="M276.02 407.6h-10.94l-5.51-25.35h10.95l5.5 25.35z"/><path d="M264.47 405.26h12.3a1 1 0 0 1 .93.74l2.16 9.74a1.6 1.6 0 0 1-1.6 1.94c-4.29-.07-6.38-.32-11.79-.32-3.33 0-7.6.34-12.19.34s-5.2-4.54-3.32-4.95c8.44-1.85 9-4.39 11.73-6.82a2.64 2.64 0 0 1 1.78-.67z" style="fill:#263238"/><path d="M270.53 382.26h-10.96l3.06 14.04 10.74-.97-2.84-13.07z" style="opacity:.2"/><path d="M289.71 141.9c4 10.12 6.78 15.85 4.14 23.2-4 11.05-18.19 12.17-25.09 3.43-6.2-7.87-11.62-23.1-3.79-31.47a14.81 14.81 0 0 1 24.74 4.84z" style="fill:#ff8b7b"/><path d="M270.49 157.06c-1.64 2.2-2.9 3.87-2.9 3.87s-3.37-8.37-2.08-12.21c-1.64-3.25-4.95 1.54-6.2-4.79s4.16-13.13 6.2-14.54a7.41 7.41 0 0 1 .28 2.27 28 28 0 0 1 19.6-6.19 6.77 6.77 0 0 0-1.1 2.94s11.87 2 14.57 8.72a12.83 12.83 0 0 0-3-1 14.49 14.49 0 0 1 2.4 10.72 110.21 110.21 0 0 0-1.34 16.53c.11 2.84-7.68 8.27-12.43 2.47s-14-8.79-14-8.79z" style="fill:#263238"/><path d="M275.44 154.88a11.07 11.07 0 0 1-.5 7.1c-1.27 3-3.88 2.28-5.17-.34-1.17-2.35-1.92-6.71.15-8.8s4.74-.79 5.52 2.04z" style="fill:#ff8b7b"/><path d="M296 269.1s-50.84 18.44-52.33 42.83c-2.76 44.93 15.61 80.5 15.61 80.5l16.84-1.8s-3-14.46-5.23-55.16c-2.81-51.15 84 1.2 66.12-66.37z" style="fill:#926dfc"/><path d="M296 269.1s-50.84 18.44-52.33 42.83c-2.76 44.93 15.61 80.5 15.61 80.5l16.84-1.8s-3-14.46-5.23-55.16c-2.81-51.15 84 1.2 66.12-66.37z" style="fill:#fff;opacity:.5"/><path d="M254.62 386.23c-.08 0 2.68 7.48 2.68 7.48l21-2.06-1.05-6.8z" style="fill:#926dfc"/><path style="fill:#ff8b7b" d="M228.73 408.85h-10.95l-3.2-25.36h10.95l3.2 25.36z"/><path d="M217.7 405.25h12a.94.94 0 0 1 .93.74l2.18 9.73a1.59 1.59 0 0 1-1.57 2c-4.31-.07-10.55-.31-16-.3-6.34 0-7.55.35-15 .36-4.5 0-5.75-4.53-3.87-5 8.56-1.88 11.3-2.09 18.69-6.66a5 5 0 0 1 2.64-.87z" style="fill:#263238"/><path style="opacity:.2" d="m214.59 383.5 1.74 13.81 10.86-.74-1.65-13.07h-10.95z"/><path d="M278.45 269.1s-83.3 7.39-82.4 49.23c.93 43.52 17.19 72.87 17.19 72.87h16.26s-3.08-22.58-2.53-65.42c.16-12.83 26.1-17.07 51.42-18.57 21.88-1.3 42.36-13.77 50.86-34l1.75-4.11z" style="fill:#926dfc"/><path d="M278.45 269.1s-83.3 7.39-82.4 49.23c.93 43.52 17.19 72.87 17.19 72.87h16.26s-3.08-22.58-2.53-65.42c.16-12.83 26.1-17.07 51.42-18.57 21.88-1.3 42.36-13.77 50.86-34l1.75-4.11z" style="fill:#fff;opacity:.5"/><path d="M209.43 386.83c-.07 0 2.79 7.52 2.79 7.52l19.64-1.41-1.15-6.8z" style="fill:#926dfc"/><path d="m300.32 222.08-10.57 40.73a127.1 127.1 0 0 0-4.06 31.95v18.93c0 4.78 3.52 8.66 7.87 8.66h54.18c4.35 0 7.87-3.88 7.87-8.66v-18.93a127.11 127.11 0 0 1 4.07-31.95l9.33-36c1.44-5.53-2.34-11-7.57-11h-53.56a8 8 0 0 0-7.56 6.27z" style="fill:#263238"/><path d="m232.93 302.63 1.77 10.1c.94 5.31 5.61 9.62 10.44 9.62h60.23c4.83 0 8-4.31 7.06-9.62l-1.77-10.1c-1.07-6.05-6.38-10.95-11.88-10.95H241c-5.54 0-9.13 4.9-8.07 10.95z" style="fill:#263238"/><path style="fill:#926dfc" d="M311.17 332.49h-31.55l-3.08-10.14h37.71l-3.08 10.14zM289.76 332.49h11.27v75.41h-11.27z"/><path style="fill:#fff;opacity:.7000000000000001" d="M301.03 407.9h-11.27v-73.6l11.27 1.15v72.45z"/><path style="fill:#fff;opacity:.7000000000000001" d="M298.28 407.9h-2.69v-73.01l2.69.28v72.73z"/><path d="M321.31 419.56h-51.84a1.44 1.44 0 0 1-.84-2.6l8.22-6a23.08 23.08 0 0 1 13.62-4.46h9.85a23.07 23.07 0 0 1 13.61 4.46l8.23 6a1.44 1.44 0 0 1-.85 2.6z" style="fill:#926dfc"/></g></svg>