<svg xmlns="http://www.w3.org/2000/svg" viewBox="0 0 500 500"><path d="M461.07 428s-77-42.47-124.79-42.47c-57.35 0-113.08 18.93-134.23 25.18C146.52 427.11 38.93 428 38.93 428z" style="fill:#dbdbdb"/><path d="M38.93 428s43.74-24.71 93.14-24.71c34.48 0 84 5.12 130.59 13.51C280.41 420 372.8 428 372.8 428z" style="fill:#c7c7c7"/><path d="M278.21 300c5.28 0 137-.92 174.15-.92 2.6 0-.69-4.5-2.12-4.81-4.58-1-9.34-1.06-14-1.54a45.56 45.56 0 0 1-13.33-3.34c-3.65-1.54-7.31-3.33-11.27-4-7.66-1.2-14.39 3-21.57 4.79a16.27 16.27 0 0 1-13.07-1.72c-3.32-2-6.34-4.38-9.81-6.14a53.82 53.82 0 0 0-43-2 50.37 50.37 0 0 0-9.42 4.81c-3.51 2.31-6.53 5.25-10.05 7.53-7.8 5-17.45 3.4-25.95 6.29-.49.19-1.02 1.05-.56 1.05zM306.22 110.62c7 0 124.38.77 131.76.54.53 0 .81-.8.28-1.06-4.65-2.3-9.92-1.84-14.76-3.47-2.84-1-4.59-2.82-6.56-4.95a13.69 13.69 0 0 0-6.11-4 12.93 12.93 0 0 0-6.65-.2c-2.38.56-4.45 1.93-6.72 2.79-5.64 2.13-11.12.1-15.15-4.07-3.32-3.44-6.59-6.69-11.1-8.54a14.76 14.76 0 0 0-11.76-.16c-4.31 1.95-7.26 5.87-11.31 8.23-4.79 2.81-10.53 2.14-15.82 3s-9.36 5.3-14 7.87a9.84 9.84 0 0 1-5.06 1.57c-1 0-2.06-.31-3.08-.43-1.6-.2-3.12-.16-4.2 1.18-.27.32-.22 1.7.24 1.7zM62 137.91c5.09 0 90.8.57 96.19.39.39 0 .6-.58.21-.77-3.39-1.68-7.25-1.34-10.78-2.53-2.07-.7-3.35-2.06-4.79-3.61a10 10 0 0 0-4.46-2.92 9.39 9.39 0 0 0-4.85-.15 42 42 0 0 0-4.91 2c-4.12 1.55-8.12.08-11.06-3-2.43-2.51-4.81-4.88-8.11-6.23a10.72 10.72 0 0 0-8.58-.12c-3.15 1.42-5.3 4.29-8.26 6-3.5 2-7.68 1.56-11.55 2.18S74.19 133.1 70.8 135a7.15 7.15 0 0 1-3.69 1.14 21.37 21.37 0 0 1-2.25-.32 3.07 3.07 0 0 0-3.06.87c-.2.22-.16 1.22.2 1.22zM354.21 245.25c5.09 0 90.81.57 96.19.39.39 0 .6-.58.21-.77-3.39-1.68-7.24-1.34-10.77-2.53-2.08-.7-3.35-2.06-4.8-3.61a9.91 9.91 0 0 0-4.46-2.92 9.39 9.39 0 0 0-4.85-.15 42 42 0 0 0-4.91 2c-4.12 1.55-8.12.08-11.06-3-2.42-2.51-4.81-4.88-8.1-6.23a10.74 10.74 0 0 0-8.59-.12c-3.14 1.42-5.3 4.29-8.25 6-3.5 2.05-7.69 1.56-11.56 2.18s-6.83 3.87-10.22 5.75a7.21 7.21 0 0 1-3.7 1.14 21.37 21.37 0 0 1-2.25-.32 3.07 3.07 0 0 0-3.09.94c-.16.25-.12 1.25.21 1.25zM166.22 168.85c.1.28 135.09 0 133.39 0-.78 0 1.18-1.17.42-1.54-4.4-2.18-9.2-2.24-14-2.68a21.52 21.52 0 0 1-8.17-2c-2.55-1.33-4.13-3.64-5.94-5.78a25.36 25.36 0 0 0-23.05-8.73c-9.6 1.5-17.16 8.81-26.78 10.16-5.78.81-11.24-1.43-16.88-2.22a20.7 20.7 0 0 0-12.68 2.32c-3 1.51-5.86 2.78-9.3 3-2.65.19-5.3-.11-8-.14a17.82 17.82 0 0 0-11.69 4.67c-.37.41-1.73 2.94 2.68 2.94z" style="fill:#ebebeb"/><path d="M83.19 427.66h-6a8.13 8.13 0 0 1-8.13-8.13V382.8l8.13-8.13h6a8.13 8.13 0 0 1 8.13 8.13v36.73a8.13 8.13 0 0 1-8.13 8.13zM229.55 427.66h6a8.13 8.13 0 0 0 8.13-8.13V382.8l-8.13-8.13h-6a8.13 8.13 0 0 0-8.13 8.13v36.73a8.13 8.13 0 0 0 8.13 8.13z" style="fill:#a6a6a6"/><path d="M254.18 351.88c-.31 14-1.21 22.82-1.21 22.82s-32.95 12.64-96.6 14.63c-63.64-2-96.59-14.63-96.59-14.63s-.91-8.86-1.22-22.82c-.07-3.28-.11-6.84-.09-10.63.11-33.55 4.34-85.32 26.13-121.83h143.54c21.8 36.51 26 88.28 26.14 121.83.01 3.75-.03 7.35-.1 10.63z" style="fill:#dbdbdb"/><path d="M65 266.36c-1 4.05-2 8.25-2.75 12.52a3 3 0 0 1-2 2.32h-.13c-1.31-.65-2.68-1.45-3-2.07-.63-1.26 2.15-10.78 3.23-12.31s4.65-.46 4.65-.46z" style="fill:#a6a6a6"/><path d="M43.4 259.85c.27 4.13 1.68 8.28 5.22 10.67a46.21 46.21 0 0 0 10.69 4.9c1.67.58 2.38-2.07.73-2.64a52.65 52.65 0 0 1-8.51-3.7c-3.55-2-5.13-5.2-5.4-9.23-.11-1.75-2.85-1.76-2.73 0z" style="fill:#a6a6a6"/><path d="M53.37 257.44a8.61 8.61 0 1 1-8.6-8.61 8.6 8.6 0 0 1 8.6 8.61z" style="fill:#a6a6a6"/><path d="M231.32 222H81.43c-2.64 0-4.75-4.75-4-6.6s29.8-15.57 78.9-15.57 78.12 13.73 78.91 15.57-1.24 6.6-3.92 6.6z" style="fill:#ebebeb"/><circle cx="84.14" cy="340.1" r="13.24" transform="rotate(-76.47 84.132 340.087)" style="fill:#a6a6a6"/><circle cx="84.14" cy="340.1" r="11.44" transform="rotate(-80.75 84.137 340.095)" style="fill:#ebebeb"/><path d="M70.9 313.69c2.28-1.35 7.4 5.3 4.71 7.37s-8.34-5.21-4.71-7.37z" style="fill:#ebebeb"/><circle cx="228.61" cy="340.1" r="13.24" transform="rotate(-14.98 228.546 340.012)" style="fill:#a6a6a6"/><circle cx="228.61" cy="340.1" r="11.44" transform="rotate(-9.51 228.53 339.976)" style="fill:#ebebeb"/><path d="M241.84 313.69c-2.27-1.35-7.39 5.3-4.7 7.37s8.33-5.21 4.7-7.37z" style="fill:#ebebeb"/><path d="M247.77 266.36c1 4.05 2 8.25 2.74 12.52a3 3 0 0 0 2 2.32h.14c1.3-.65 2.68-1.45 3-2.07.63-1.26-2.16-10.78-3.24-12.31s-4.64-.46-4.64-.46z" style="fill:#a6a6a6"/><path d="M266.61 259.85c-.26 4-1.84 7.25-5.39 9.23a53 53 0 0 1-8.51 3.7c-1.66.57-.94 3.22.73 2.64a46.41 46.41 0 0 0 10.69-4.9c3.53-2.38 4.95-6.54 5.22-10.67.11-1.76-2.62-1.75-2.74 0z" style="fill:#a6a6a6"/><path d="M259.37 257.44a8.61 8.61 0 1 0 8.61-8.61 8.61 8.61 0 0 0-8.61 8.61z" style="fill:#a6a6a6"/><path d="M253.09 292.14c-11.42 3.5-60.56 21.64-91.85 82.28a3 3 0 0 1-2.67 1.64h-4.39a3 3 0 0 1-2.67-1.64c-31.3-60.64-80.44-78.78-91.86-82.28a3 3 0 0 1-2.1-3.26v-.27l.14-1.07.5-3.85a3 3 0 0 1 1.88-2.41h.13a3 3 0 0 0 2-2.32c.78-4.27 1.72-8.47 2.75-12.52 1.7-6.65 3.67-12.92 5.64-18.53a233.15 233.15 0 0 1 10-24.15 3 3 0 0 1 2.7-1.69h146.16a3 3 0 0 1 2.71 1.69 231.52 231.52 0 0 1 10 24.15c2 5.61 3.94 11.88 5.64 18.53 1 4.05 2 8.25 2.75 12.52a3 3 0 0 0 2 2.32h.14a3 3 0 0 1 1.88 2.41l.49 3.85.14 1.07v.27a3 3 0 0 1-2.11 3.26z" style="fill:#ebebeb"/><path d="M255.16 288.61c-4.59 1.07-18.5 4.85-35.25 14.88-18.65 11.16-44.69 32.51-63.54 71.08-18.85-38.57-44.89-59.92-63.53-71.08-16.75-10-30.66-13.81-35.26-14.88l.14-1.07c4.58 1 18.66 4.86 35.62 15 18.48 11 44.14 32 63 69.6 18.89-37.59 44.56-58.56 63-69.6 17-10.14 31-14 35.62-15z" style="fill:#fff"/><path d="M233.94 227.48 77.37 230.7c1.37-3.13 2.51-5.52 3.22-7a3 3 0 0 1 2.7-1.69h146.17a3 3 0 0 1 2.7 1.69c.45.92 1.06 2.2 1.78 3.78z" style="fill:#dbdbdb"/><path d="M156.37 342.41a13.75 13.75 0 1 1 13.75-13.75 13.77 13.77 0 0 1-13.75 13.75zm0-25.86a12.11 12.11 0 1 0 12.11 12.11 12.12 12.12 0 0 0-12.11-12.11z" style="fill:#fff"/><path style="fill:#fff" d="m159.39 341.92-2.95-16.13-2.2 16.11-7.23-22.67 1.57-.5 5.01 15.74 2.61-19.08 3.42 18.63 3.82-15.81 1.6.38-5.65 23.33z"/><path d="M152.54 233.1v30.55a5.26 5.26 0 0 1-5.26 5.26H79.6a5.25 5.25 0 0 1-5-6.93l.2-.59 10-30a5.25 5.25 0 0 1 5-3.59h57.43a4.94 4.94 0 0 1 1.1.12 5.24 5.24 0 0 1 4.16 5.14z" style="fill:#c7c7c7"/><g style="opacity:.30000000000000004"><path style="fill:#fff" d="m141.89 227.84-41.06 41.07H88.12l41.08-41.07h12.69zM152.54 253.46v10.19a5.26 5.26 0 0 1-5.26 5.26h-10.19zM152.48 232.3l-36.62 36.61h-8.42l40.94-41a5.26 5.26 0 0 1 4.1 4.39zM112.58 227.84l-37.83 37.84a5.21 5.21 0 0 1-.13-3.7l.2-.59 33.55-33.55z"/></g><path d="M233.14 268.91h-67.68a5.27 5.27 0 0 1-5.26-5.26V233.1a5.27 5.27 0 0 1 5.26-5.26h57.44a5.27 5.27 0 0 1 5 3.59l2.71 8.1 2.12 6.31 3.76 11.23 1.65 4.91a5.27 5.27 0 0 1-5 6.93z" style="fill:#c7c7c7"/><g style="opacity:.30000000000000004"><path d="m175.54 227.84-15.34 15.34V233.1a5.27 5.27 0 0 1 5.26-5.26zM233.14 268.91h-8.51l11.85-11.84 1.65 4.91a5.27 5.27 0 0 1-4.99 6.93zM210.14 227.84l-41.07 41.07h-3.61a5.22 5.22 0 0 1-3.49-1.33l39.74-39.74zM232.72 245.84l-23.07 23.07h-8.44l29.39-29.38 2.12 6.31zM219.58 227.84l-41.06 41.07h-4.23l41.08-41.07h4.21z" style="fill:#fff"/></g><path style="fill:#c7c7c7" d="M57.1 372.14h198.54v19.67H57.1z"/><g><path d="M383.88 407.3c-2.52-3.26-5.39-6.85-5.21-11.17.16-4 1.5-8.42 5.16-10.54 1.05-.61 1.81-.82 2.15.53.51 2.05-.36 4.54-.8 6.53a41.94 41.94 0 0 0-1.06 7.8c-.06 1.84.07 3.69.06 5.54V407l.06.1a.19.19 0 0 1 0 .19v.06a.21.21 0 0 1-.36-.05z" style="fill:#ff725e"/><path d="M384.22 407.3c-2.06-3-4.47-6-4.17-9.83a16.87 16.87 0 0 1 1.35-5.11c.31-.73 1.22-2.94 2.18-3 1.74-.09-.58 6.89-.69 7.71a17.63 17.63 0 0 0 1.29 8.91v.69a19.67 19.67 0 0 1-1.63-6.21c-.26-3 .75-5.46 1.29-8.33.12-.62.6-2.58-.46-2.42-.7.1-1.61 2.25-1.8 2.71a16.69 16.69 0 0 0-1.3 4.84c-.36 3.82 2 6.92 4 10z" style="fill:#fff"/><path d="m383.17 410.61-.44.19a.11.11 0 0 1-.11 0 .19.19 0 0 1-.06-.23.18.18 0 0 1 .08-.06h.2c1.78-2.19 3.92-4.07 5.68-6.29s3.22-4.34 5.07-6.32c1.16-1.25 7.3-7.09 8.61-3.48.58 1.6-.69 3.9-1.48 5.24a17.4 17.4 0 0 1-4.1 4.62c-3.98 3.1-8.86 4.3-13.45 6.33z" style="fill:#ff725e"/><path d="M392.35 405.46a20.16 20.16 0 0 0 4.28-3.81c.42-.51 2.46-3 1.79-3.77-.43-.52-1.58.16-2 .37-1.66.9-2.85 2.51-4.12 3.87a77.11 77.11 0 0 1-8.31 7.65c-.21.11-.43.22-.63.34l-.53.28-.18.1-.14.08a.19.19 0 0 0 .06.23c.13-.08.27-.15.41-.22l-.3.23.36-.17h.08l.5-.38a84.89 84.89 0 0 0 8.73-4.8zm-7.61 3.94c1.72-1.37 3.38-2.83 5-4.36 1.28-1.23 2.5-2.51 3.69-3.83a19.47 19.47 0 0 1 2.14-2.12c.6-.47 3-2 2.4.18-.42 1.59-2.48 3.39-3.67 4.4a28.19 28.19 0 0 1-4.29 3c-1.74.95-3.52 1.83-5.27 2.73z" style="fill:#fff"/><path d="m375.3 419-.11-.11c-2-3.17-5.25-7-5.06-11 .14-2.95 1.76-6.91 4.69-8.12 3.31-1.36 2.67 4.89 2.58 6.49a115.81 115.81 0 0 1-1.9 12.74v.08c-.06.02-.14-.02-.2-.08z" style="fill:#ff725e"/><path d="M375.46 419v-.76c-.18-2.92-.23-5.85-.14-8.77 0-.74.6-6.38-.86-6.11-.89.16-1.42 2.27-1.61 3a11.68 11.68 0 0 0-.41 3.81c.2 2.95 1.7 5.61 2.75 8.36.06.12.1.25.15.38a.25.25 0 0 0 0 .09c.02.06.09.1.12 0zm-2.61-7.29a11.72 11.72 0 0 1-.11-3.92c.12-.86.64-4 1.74-4 .58 0 .52.33.64 1 .05.3.07.61.09.91 0 .76 0 1.51-.06 2.26-.07 1.32-.1 2.64-.11 4 0 2.17.06 4.33.21 6.49-.76-2.29-1.93-4.39-2.4-6.7z" style="fill:#fff"/><path d="M385.61 420.05a22.23 22.23 0 0 1-12.91 1.35h-.08a.15.15 0 0 1-.05-.19.17.17 0 0 1 .18-.12l.27.05c4.52-2.49 9.05-4.9 13.52-7.47 1-.6 7.85-4.33 8.21-1.68.23 1.64-2.27 3.56-3.35 4.49a22.58 22.58 0 0 1-5.79 3.57z" style="fill:#ff725e"/><path d="M390.37 414.94c.28-.35.5-.79 0-1-1-.41-4.15 1.41-5.05 1.87-3.72 1.9-7.51 3.42-11.37 5l-1 .39h-.38a.15.15 0 0 0 .05.19h.62a26.39 26.39 0 0 0 8.07-1.21 25.69 25.69 0 0 0 4.75-2.07c1.39-.84 3.34-1.88 4.31-3.17zm-16.91 6.22h-.25l.41-.14a74.73 74.73 0 0 0 9-3.62c1.47-.72 2.89-1.53 4.38-2.19.64-.29 2.4-1.14 3-.87s0 .7-.36 1-.69.55-.92.72a25.91 25.91 0 0 1-15.26 5.1z" style="fill:#fff"/><path d="m364.1 428.35-.44-.61 1.59-1.2c2.12-1.63 4.22-3.28 6.3-5 1.19-1 2.35-1.94 3.47-2.94l.12-.1.27-.25.3-.28a32.41 32.41 0 0 0 6.46-7.83c.57-1 1.08-2 1.58-3.05l.14-.3v-.08c.05-.1.09-.2.14-.31l.11-.23c1.47-3.2 2.68-6.53 4-9.78.37-.93.74-1.87 1.12-2.8a.77.77 0 0 1 .07-.16 1.8 1.8 0 0 1 .08-.21c1.65-4.11 3.35-8.21 4.9-12.36.05-.16.28 0 .22.11-1 2.77-1.94 5.57-2.9 8.37-.13.37-.26.74-.38 1.11l-.77 2.21c-.51 1.47-1 2.93-1.58 4.39a108.34 108.34 0 0 1-5.05 12.17l-.47.86-.3.53-.36.62a34.73 34.73 0 0 1-8.14 9l-.66.54-.31.25-.16.13-.22.17-.16.13-.58.45c-2.11 1.65-4.24 3.27-6.37 4.88-.67.52-1.34 1.04-2.02 1.57z" style="fill:#ff725e"/><path d="M390.29 381.83c1-3.29 4.15-8.77 8.33-8a3.23 3.23 0 0 1 2.77 3.31c0 2-1.36 3.84-2.53 5.32-3.12 4-6.59 7.6-9.43 11.78 0 0-.25.36-.31.45s-.18 0-.13-.1l.28-.41c.02-4.09-.22-8.45 1.02-12.35z" style="fill:#ff725e"/><path d="M389.43 394.23v-.09a33.46 33.46 0 0 1 1.79-3.66 70.75 70.75 0 0 1 4.71-7c.65-.87 3.92-5.05 1.21-5.34-1.14-.12-2.31.85-3.08 1.56a12.88 12.88 0 0 0-3 4.07 23.32 23.32 0 0 0-1.81 9.73v.45l-.06.14v.15a.12.12 0 0 0 .15.09.1.1 0 0 0 .09-.1zm0-1a27.06 27.06 0 0 1 1.34-8.1 14 14 0 0 1 2-3.79 10.73 10.73 0 0 1 1.28-1.42 7.94 7.94 0 0 1 1.11-.9c.87-.59 2.05-.9 2.5-.46s.35 1-.07 1.93a7.84 7.84 0 0 1-.49.9c-.44.73-.95 1.42-1.45 2.1-.85 1.14-1.68 2.27-2.48 3.44-.54.79-1.06 1.6-1.54 2.42a35.53 35.53 0 0 0-2.24 4.39l.03-.49z" style="fill:#fff"/><path d="M107.55 402c2 1.88 3.94 3.89 5.83 5.91 1.06 1.15 2.12 2.31 3.19 3.46s2.29 2.68 4 3.3.2.12.2.12a.21.21 0 0 1-.25.26l-.11-.05a6.68 6.68 0 0 1-1.5-.34 37.15 37.15 0 0 1-4-1.2 34.41 34.41 0 0 1-7.67-3.84 28.69 28.69 0 0 1-5.74-5.09c-1.34-1.56-3.36-3.85-3.73-6-.34-1.9 2.11-1.52 3.24-1.19 2.48.89 4.62 2.93 6.54 4.66z" style="fill:#ff725e"/><path d="M101.38 400.66c-.58.81 1.63 3.28 2.56 4.39a27.93 27.93 0 0 0 5 4.61 35.94 35.94 0 0 0 10.94 5.27l.47.14h.11a.21.21 0 0 0 .26-.25c-.32-.15-.62-.3-.91-.46s-.54-.3-.79-.46a47.13 47.13 0 0 1-7.71-6.26c-2.8-2.58-9.15-8.06-9.93-6.98zm18.08 13.81q.6.33 1.2.6l-1-.31a39.85 39.85 0 0 1-9.68-4.61 27.07 27.07 0 0 1-6.77-6.33c-.27-.37-2-2.54-1.58-3s2.37 1 2.41 1.06c.41.26.81.55 1.21.84.81.6 1.59 1.24 2.36 1.89 1.66 1.42 3.24 2.94 4.85 4.41a37.9 37.9 0 0 0 7 5.45z" style="fill:#fff"/><path d="M122.89 393.63c1.85 3.58 2.29 7.69 2.34 11.67 0 2.12 0 4.25-.07 6.38a28.72 28.72 0 0 0 .21 5.69 2.21 2.21 0 0 0 0 .25 7 7 0 0 0 .5 1.51.09.09 0 0 1 0 .1l.09.14s0 .08-.05.05a1.49 1.49 0 0 1-.14-.12.09.09 0 0 1-.11-.07v-.06l-.13-.12c-3.11-2.86-4.85-7.71-6-11.61a22.22 22.22 0 0 1-.7-12c.26-1 .7-3.37 1.91-3.71s1.76 1.14 2.15 1.9z" style="fill:#ff725e"/><path d="M121.26 396c-1.22.2-1 3.55-.93 4.36a43.23 43.23 0 0 0 1.11 7.34 38.52 38.52 0 0 0 4 11.25.3.3 0 0 0 .17.26v.06a.1.1 0 0 0 .12.07 1.05 1.05 0 0 1 0-.19c-.13-.49-.25-1-.35-1.48v-.25a82.31 82.31 0 0 1-1.09-10.56 40 40 0 0 0-1.11-7.3c-.18-.66-.9-3.78-1.92-3.56zm1.09 1.77c1.67 3.86 1.62 8.44 1.9 12.56a43.24 43.24 0 0 0 1.15 8.27 40.77 40.77 0 0 1-3.54-10.26 52.3 52.3 0 0 1-1.1-6.1 23.36 23.36 0 0 1-.19-3.35 9.22 9.22 0 0 1 .26-2c.42-1.25 1.23.17 1.52.83z" style="fill:#fff"/><path d="M132.53 424.57a.25.25 0 0 1 0 .22h.08a.07.07 0 0 1 .06.07s0 .06-.05.07c-4.79.75-10.11 1-14.82-.31a19.17 19.17 0 0 1-5.61-2.52c-1.17-.79-3.53-2.39-3.66-4-.27-3.18 8.15.11 9.42.62 2.31.91 4.53 2 6.83 3 2.5 1 5.08 1.9 7.66 2.77a.15.15 0 0 1 .09.08z" style="fill:#ff725e"/><path d="m132.53 424.57-.77-.08a40.72 40.72 0 0 1-12.13-3.29 37.16 37.16 0 0 0-5.92-2.25c-.51-.12-2.39-.72-2.09.49.16.62 3.24 2.4 4.08 2.79a25.78 25.78 0 0 0 6 1.9 42.26 42.26 0 0 0 10.6.73h.3s0-.07-.06-.06h-.08a.23.23 0 0 0 .07-.23zm-9-.37a30 30 0 0 1-6.11-1.5 21.22 21.22 0 0 1-2.29-1 12.37 12.37 0 0 1-1.69-1c-1.3-.94-1.56-1.28-1.45-1.53s.34-.24 1.39-.07a11.22 11.22 0 0 1 2 .57c.92.35 1.82.73 2.71 1.12 1.8.77 3.58 1.57 5.43 2.21a31.78 31.78 0 0 0 8.19 1.71 48.6 48.6 0 0 1-8.18-.51z" style="fill:#fff"/><path d="M132 410.82a12.09 12.09 0 0 1 2.48 4.51c1.09 3.26 1.47 6.7 2.33 10 .13.5.27 1 .43 1.49 0 .05.34.59.3.56s-.16-.16-.43-.44c-1.29-1.36-5.15-5.55-6.63-8.38a24.2 24.2 0 0 1-2.22-5.55c-.21-.92-.6-3 .31-3.7s2.84.85 3.43 1.51z" style="fill:#ff725e"/><path d="M130.07 411.62c-1.28.54 1.37 6.17 1.7 6.91a34.18 34.18 0 0 0 4.73 7.64c.21.27.42.53.64.79l.43.45s-.28-.52-.31-.58l-.07-.25c-.13-.41-.24-.82-.34-1.22-.85-2.23-1.65-4.47-2.54-6.68a31.85 31.85 0 0 0-2.24-4.63c-.21-.33-1.44-2.66-2-2.43zm1.05 1.17c2.87 4.11 3.91 9.07 5.8 13.63l.09.23c-.07-.1-.16-.2-.23-.31a39.23 39.23 0 0 1-4-6.27 38.38 38.38 0 0 1-1.8-4.16 17.71 17.71 0 0 1-.8-2.36c-.08-.35-.25-1.33 0-1.45s.75.42.94.69z" style="fill:#fff"/><path d="M107.18 378.49c4.52 7.53 2.22 17.2 6.22 25 .12.24.25.47.38.71a.16.16 0 0 1-.12.24.14.14 0 0 1-.12-.07l-.09-.17a41.9 41.9 0 0 1-8.59-12.2c-1.85-3.8-3.07-8.06-2.44-12.31.16-1 .39-3.13 1.66-3.53s2.55 1.4 3.1 2.33z" style="fill:#ff725e"/><path d="M105.63 381.25c-.53.18-.6 1-.66 1.39a13.87 13.87 0 0 0-.07 3.22 22.38 22.38 0 0 0 1.64 6.38 46.05 46.05 0 0 0 5.34 10c.5.69 1 1.35 1.59 2l.21.24a.17.17 0 0 0 .13-.24c-.14-.23-.26-.45-.38-.68v-.06a27.66 27.66 0 0 1-2.28-4.71 62.9 62.9 0 0 1-2-7.89c-.28-1.08-1.7-10.24-3.52-9.65zm1.19 1.54a30.53 30.53 0 0 1 1.68 6.32c.48 2.13.93 4.27 1.44 6.39a31.24 31.24 0 0 0 1.62 4.93 24.53 24.53 0 0 0 2 3.82 35.14 35.14 0 0 1-2.48-3.46v-.05a59.6 59.6 0 0 1-3.53-6.71.56.56 0 0 1 0-.08 28.15 28.15 0 0 1-2.15-6.31 16.16 16.16 0 0 1-.3-3.61c.07-1.37.26-2.47.73-2.49.28-.01.72.67.99 1.25z" style="fill:#fff"/><path d="M107.74 393.94c1.24 2.18 2.53 4.34 3.82 6.49l1.83 3v.06l.66 1.09a71.68 71.68 0 0 0 6.47 9.69 32.79 32.79 0 0 0 4.44 4.2l.49.4.27.2.15.12c1.4 1.08 2.86 2.09 4.28 3.07 2 1.36 4 2.58 6.11 3.78l.19.1a2.61 2.61 0 0 0 .28.17l.14.08.27.16c.66.38 1.33.77 2 1.17l-.43.6a47.14 47.14 0 0 1-6.28-3.41.5.5 0 0 1-.12-.08c-.2-.12-.4-.24-.59-.37s-.48-.31-.72-.47l-1.7-1.14a50.29 50.29 0 0 1-9.17-7.6L120 415l-.09-.11-.16-.17-.24-.29c-.14-.17-.28-.35-.41-.53l-.12-.15a76.11 76.11 0 0 1-5.6-9c-.32-.55-.63-1.11-.94-1.66l-.51-.93-.76-1.42v-.05c-1.19-2.23-2.33-4.48-3.53-6.71-.13-.05.04-.14.1-.04z" style="fill:#ff725e"/></g><g><path style="fill:#263238" d="m34.95 428.01 53.76-.24 53.77-.09 107.52-.17 107.52.17 53.77.09 53.76.24-53.76.25-53.77.09-107.52.16-107.52-.16-53.77-.09-53.76-.25z"/></g><g><g style="opacity:.6000000000000001"><path style="fill:#ebebeb" d="m117.39 85.55 181.43 38.89-162.81-48.05-18.62 9.16zM142.71 97.21c9.88 1.22 19.7 2.74 29.51 4.36 4.9.78 9.79 1.67 14.69 2.51l14.66 2.67 14.63 2.83c4.87 1 9.75 2 14.61 3 9.72 2.06 19.43 4.21 29.07 6.66-9.88-1.22-19.7-2.73-29.51-4.36-4.9-.78-9.79-1.67-14.69-2.5L201 109.7l-14.63-2.84c-4.87-1-9.75-1.94-14.61-3-9.7-2.05-19.4-4.21-29.05-6.65zM211.42 94.09q9.47 2.31 18.8 5c6.24 1.75 12.44 3.62 18.63 5.5s12.36 3.88 18.5 5.93 12.27 4.19 18.34 6.47q-9.45-2.31-18.8-5c-6.23-1.76-12.43-3.62-18.63-5.51s-12.36-3.88-18.5-5.94-12.26-4.17-18.34-6.45z"/></g><path d="M112.8 87c.35-.4 5.21-3.8 5.58-4l-.83-.14s-4.45 3.69-4.75 4.14z" style="fill:#ff725e"/><path d="M112.8 87c.35-.4 5.21-3.8 5.58-4l-.83-.14s-4.45 3.69-4.75 4.14z" style="fill:#fff;opacity:.5"/><path d="M112.79 87c0 .09.37.16.75.21a3.62 3.62 0 0 0 1 0c.11-.08 3.61-1.83 5.76-2.9h.09l.3-.15.88-.44.35-.17-3.61-.62c-.21.14-1.85 1.29-3.3 2.34l-.15.1-.4.29c-.88.64-1.6 1.18-1.73 1.32z" style="fill:#ff725e"/><path d="M112.79 87c0 .09.37.16.75.21a3.62 3.62 0 0 0 1 0c.11-.08 3.71-1.88 5.85-2.94-.36.17-5 2.39-5.91 1.33-.88.64-1.6 1.18-1.73 1.32z" style="opacity:.1"/><path d="M65.23 91c0 .48 2.66.64 3 .53S97.61 80 97.61 80L87 75.78l-.3.21-.14.09c-2 1.36-7.83 5.43-13 9l-.3.21-.41.28c-3.55 2.49-6.63 4.66-7.62 5.43z" style="fill:#ff725e"/><path d="M65.23 91c2.6-2 19.51-13.69 21.77-15.22l-1.35-.54s-19.7 15-20.29 15.58a.23.23 0 0 0-.13.18z" style="fill:#ff725e"/><path d="M65.23 91c2.6-2 19.51-13.69 21.77-15.22l-1.35-.54s-19.7 15-20.29 15.58a.23.23 0 0 0-.13.18z" style="fill:#fff;opacity:.5"/><g style="opacity:.5"><path d="M65.23 91c0 .48 2.66.64 3 .53S97.61 80 97.61 80L87 75.78s2.64 3-3.61 7.65c-4.27 3.15-8.8 3.81-10.49 2.15-3.6 2.48-6.68 4.65-7.67 5.42z" style="opacity:.1"/></g><path d="M89.38 83.73c.82.4 1.72.72 1.78-.11 0-.34-.24-.7-1.56-1.34-.31-.15-1.07-.48-1.29.21s.76 1.09 1.07 1.24z" style="fill:#ff725e"/><path d="M89.38 83.73c.82.4 1.72.72 1.78-.11 0-.34-.24-.7-1.56-1.34-.31-.15-1.07-.48-1.29.21s.76 1.09 1.07 1.24z" style="opacity:.1"/><path d="M82.66 86.48c.82.4 1.72.72 1.78-.11 0-.34-.23-.7-1.56-1.34-.31-.15-1.07-.48-1.29.21s.76 1.09 1.07 1.24z" style="fill:#ff725e"/><path d="M82.66 86.48c.82.4 1.72.72 1.78-.11 0-.34-.23-.7-1.56-1.34-.31-.15-1.07-.48-1.29.21s.76 1.09 1.07 1.24z" style="opacity:.1"/><path d="M75.94 89.23c.83.4 1.72.71 1.79-.11 0-.34-.24-.7-1.56-1.34-.32-.15-1.07-.48-1.3.21s.76 1.09 1.07 1.24z" style="fill:#ff725e"/><path d="M75.94 89.23c.83.4 1.72.71 1.79-.11 0-.34-.24-.7-1.56-1.34-.32-.15-1.07-.48-1.3.21s.76 1.09 1.07 1.24z" style="opacity:.1"/><path d="M78.14 82c.81 1.44 2.64 2 3.81 2.42 3.09 1.24 5.33 1.93 6.43-.88a3.81 3.81 0 0 0 .25-1c.18-2.12-2-3.17-3.12-3.76-1.34-.71-2.29-1.17-3-1.46a5.49 5.49 0 0 0-2.2-.57c-.62 0-2 .14-2.49 2.72a3.71 3.71 0 0 0 .32 2.53z" style="fill:#ff725e"/><path d="M78.1 80c0 1.57 1 2.85 2.2 2.85s2.2-1.28 2.2-2.85-1-2.86-2.2-2.86-2.2 1.28-2.2 2.86z" style="fill:#263238"/><path d="M78.36 80a2 2 0 1 0 1.94-2.52A2.29 2.29 0 0 0 78.36 80z" style="fill:#455a64"/><path d="m124.23 79.24.51.19 1.15.41 4-1.71c3.85-1.65 8.4-3.59 9.28-3.89H138.75l-.31.1-.31.1-.87.29-.3.1-.28.09h-.15l-.48.16-.31.11-4.09 1.37-.39.13-1.52.52-2.62.88-.37.13-1.15.39-.29.1H125.1z" style="fill:#ff725e"/><path d="m124.23 79.24.51.19 1.15.41 4-1.71c3.85-1.65 8.4-3.59 9.28-3.89H138.75l-.31.1-.31.1-.87.29-.3.1-.28.09h-.15l-.48.16-.31.11-4.09 1.37-.39.13-1.52.52-2.62.88-.37.13-1.15.39-.29.1H125.1z" style="fill:#fff;opacity:.5"/><path d="M125.89 79.84 129 81s6.88-3.18 11-5.18h.05l1.18-.58a10.16 10.16 0 0 0 1.71-.94 8.87 8.87 0 0 0-3.69 0h-.06c-.85.29-5.13 2.11-8.89 3.72h-.09l-.3.13z" style="fill:#ff725e"/><path d="M125.89 79.84 129 81s6.88-3.18 11-5.18c-.68.29-7.63 3.35-9.34 2.92a1 1 0 0 1-.73-.57z" style="opacity:.1"/><path d="m118 75.46 7.47 3.59s-.08-6.4-.14-11v-4.27c0-1.85-.23-2.23-.72-1.93a23.88 23.88 0 0 0-3.33 3.05c-.53.69-1.72 4.89-2.5 7.78a.64.64 0 0 1 0 .07c0 .17-.09.33-.13.49z" style="fill:#ff725e"/><path d="m118 75.46 7.47 3.59s-.08-6.4-.14-11c-1.1 2.45-3.27 5.8-6.75 5.19z" style="opacity:.1"/><path d="M130.65 83c.77-1.92-2.49-3.66-6.2-5.33S84.24 59.87 79 58.44 67.5 59 66.46 62c-1.57 4.53 5 8.33 28.67 18.14 3.1 1.28 17 4.61 24.75 4.64 8.34.01 10.39-.87 10.77-1.78z" style="fill:#ff725e"/><path d="M130.65 83c.77-1.92-2.49-3.66-6.2-5.33S84.24 59.87 79 58.44 67.5 59 66.46 62c-1.57 4.53 5 8.33 28.67 18.14 3.1 1.28 17 4.61 24.75 4.64 8.34.01 10.39-.87 10.77-1.78z" style="fill:#fff;opacity:.5"/><path d="M95.13 80.13c3.1 1.28 17 4.61 24.75 4.64 8.34 0 10.39-.86 10.77-1.81s-.3-2-1.59-2.88a1.28 1.28 0 0 1-.1.57c-.34.86-2.21 1.66-9.77 1.63-7.07 0-17.24-5.75-20.06-6.91-21.45-8.9-29.84-9.64-28.42-13.76.62-1.79 3.22-3.17 6.29-3.55-4.76-.57-9.63 1.27-10.54 3.93-1.57 4.53 5.02 8.33 28.67 18.14z" style="opacity:.1"/><path style="fill:#455a64" d="m119.08 76.63-.84-.37v1.24l.84.36v-1.23zM117.55 75.97l-.9-.39v1.23l.9.39v-1.23zM115.96 75.28l-.89-.39v1.23l.89.39v-1.23zM114.37 74.59l-.89-.39v1.24l.89.38v-1.23zM112.79 73.9l-.9-.38v1.23l.9.39V73.9zM111.2 73.22l-.9-.39v1.23l.9.39v-1.23zM109.61 72.53l-.89-.39v1.24l.89.38v-1.23zM108.03 71.84l-.9-.39v1.24l.9.39v-1.24zM106.44 71.16l-.9-.39V72l.9.39v-1.23zM104.85 70.47l-.9-.39v1.23l.9.39v-1.23zM103.26 69.78l-.89-.39v1.24l.89.39v-1.24zM101.68 69.09l-.9-.38v1.23l.9.39v-1.24zM100.09 68.41l-.9-.39v1.23l.9.39v-1.23zM98.5 67.72l-.89-.39v1.24l.89.38v-1.23zM96.91 67.03l-.89-.39v1.24l.89.39v-1.24zM95.33 66.35l-.9-.39v1.23l.9.39v-1.23zM93.74 65.66l-.9-.39v1.23l.9.39v-1.23zM92.15 64.97l-.89-.39v1.24l.89.39v-1.24zM90.56 64.28l-.89-.38v1.23l.89.39v-1.24zM88.98 63.6l-.9-.39v1.23l.9.39V63.6zM87.39 62.91l-.9-.39v1.24l.9.38v-1.23zM84.91 61.84v1.23l.89.39v-1.24l-.89-.38zM83.32 61.15v1.23l.9.39v-1.23l-.9-.39zM81.73 60.46v1.24l.9.38v-1.23l-.9-.39zM80.14 59.77v1.24l.9.39v-1.24l-.9-.39zM76 59.27a4.49 4.49 0 0 0-1.67-.78v.83zM72.38 58.3v1.13c.42 0 .84-.06 1.26-.08v-1a6.65 6.65 0 0 0-1.26-.05zM68.39 59.9c.35 0 .67-.07 1-.11s.63-.09 1-.12.9-.12 1.35-.17v-1.13a6.37 6.37 0 0 0-1.59.44 5.86 5.86 0 0 0-.9.46 2.47 2.47 0 0 0-.42.3 3.09 3.09 0 0 0-.44.33z"/><path d="m96.91 70 10.52 5s16.73-9 28.73-15.51c6.4-3.5 11.29-6.21 11.21-6.32-.2-.27-3.42-.24-4.69-.06a2.19 2.19 0 0 0-.37.06c-.54.15-19.46 7.16-32.71 12.07z" style="fill:#ff725e"/><path d="m96.91 70 10.52 5s16.73-9 28.73-15.51c-.94.47-22.45 11.31-25.26 9.69-1.07-.62-1.34-2.2-1.27-4z" style="opacity:.1"/><path d="m95.38 69.26 3.12 1.5c8-3.35 41.24-16.5 44-17.6H142.65a2.19 2.19 0 0 0-.37.06c-.77.17-46.9 16.04-46.9 16.04z" style="fill:#ff725e"/><path d="m95.38 69.26 3.12 1.5c8-3.35 41.24-16.5 44-17.6H142.65a2.19 2.19 0 0 0-.37.06c-.77.17-46.9 16.04-46.9 16.04z" style="fill:#fff;opacity:.5"/><path d="M117.91 69.5c1 .5 2.15.89 2.23-.14 0-.43-.3-.88-2-1.68-.39-.18-1.34-.6-1.62.26s1 1.37 1.39 1.56z" style="fill:#ff725e"/><path d="M117.91 69.5c1 .5 2.15.89 2.23-.14 0-.43-.3-.88-2-1.68-.39-.18-1.34-.6-1.62.26s1 1.37 1.39 1.56z" style="opacity:.1"/><path d="M126.81 65c1 .5 2.15.89 2.23-.14 0-.42-.29-.88-1.95-1.67-.39-.19-1.33-.6-1.61.25s.95 1.37 1.33 1.56z" style="fill:#ff725e"/><path d="M126.81 65c1 .5 2.15.89 2.23-.14 0-.42-.29-.88-1.95-1.67-.39-.19-1.33-.6-1.61.25s.95 1.37 1.33 1.56z" style="opacity:.1"/><path d="M135.74 60.45c1 .47 2 .83 2.08-.13 0-.4-.27-.82-1.82-1.56-.36-.17-1.24-.56-1.5.24s.88 1.28 1.24 1.45z" style="fill:#ff725e"/><path d="M135.74 60.45c1 .47 2 .83 2.08-.13 0-.4-.27-.82-1.82-1.56-.36-.17-1.24-.56-1.5.24s.88 1.28 1.24 1.45z" style="opacity:.1"/><path d="M104.63 68.48c.81 1.44 2.64 2 3.81 2.42 3.09 1.24 5.33 1.93 6.43-.87a3.88 3.88 0 0 0 .25-1c.18-2.11-2-3.17-3.13-3.76-1.34-.71-2.29-1.16-3-1.46a5.49 5.49 0 0 0-2.2-.57c-.62 0-2 .14-2.49 2.73a3.63 3.63 0 0 0 .33 2.51z" style="fill:#ff725e"/><ellipse cx="106.79" cy="66.47" rx="2.2" ry="2.85" style="fill:#263238"/><path d="M104.85 66.47a2 2 0 1 0 1.94-2.47 2.29 2.29 0 0 0-1.94 2.47z" style="fill:#455a64"/><path d="m138.1 74.57.31-.1z" style="fill:#ff725e"/></g><g><path d="M378.08 93.54a20.77 20.77 0 0 0-2.56-1.1 10.83 10.83 0 0 0-2.79-.64 2.33 2.33 0 0 0-.87.1 1.19 1.19 0 0 0-.26.12l-.17.13c-.12.08-.2.16-.3.24a12.36 12.36 0 0 0-1 1c-.63.7-1.19 1.44-1.75 2.2l.7-.25a23.29 23.29 0 0 0-2.85-.6 10.46 10.46 0 0 0-1.49-.1 5.32 5.32 0 0 0-.79 0 3.89 3.89 0 0 0-.43.11 2.67 2.67 0 0 0-.42.2 5.09 5.09 0 0 0-1.1 1.16 12.17 12.17 0 0 0-.84 1.19 19.19 19.19 0 0 0-1.33 2.54c.62-.73 1.21-1.47 1.84-2.16.31-.35.62-.69.95-1a4.36 4.36 0 0 1 1-.78 2.5 2.5 0 0 1 1.11-.11A10.34 10.34 0 0 1 366 96c.9.16 1.81.38 2.69.62l.44.12.25-.36c.51-.74 1.07-1.46 1.62-2.16.28-.35.57-.69.86-1l.22-.21.1-.08a1.45 1.45 0 0 1 .49-.1 13.57 13.57 0 0 1 2.64.26c.96.09 1.86.28 2.77.45zM368 120.73a32.13 32.13 0 0 0-3.44-2.35 15.88 15.88 0 0 0-3.92-1.76 3.49 3.49 0 0 0-1.3-.12 2.09 2.09 0 0 0-.43.11l-.28.13a4.86 4.86 0 0 0-.51.28 18.22 18.22 0 0 0-1.8 1.21c-1.13.85-2.16 1.77-3.21 2.72l1.09-.16a32.2 32.2 0 0 0-4-1.71 17.83 17.83 0 0 0-2.15-.59 8.64 8.64 0 0 0-1.18-.15 5 5 0 0 0-.66 0 5.63 5.63 0 0 0-.68.17 7.57 7.57 0 0 0-2 1.26c-.57.48-1.08 1-1.58 1.5a26.85 26.85 0 0 0-2.69 3.35c1.11-.9 2.19-1.81 3.32-2.64a19.27 19.27 0 0 1 1.7-1.19A6.75 6.75 0 0 1 346 120a3.93 3.93 0 0 1 1.67.16 14.29 14.29 0 0 1 1.9.66c1.27.49 2.54 1.09 3.76 1.69l.61.31.48-.46c1-.93 2-1.84 3-2.7.51-.43 1-.85 1.55-1.21.13-.08.26-.17.38-.23l.18-.1h.06a2.07 2.07 0 0 1 .75 0 20 20 0 0 1 3.8 1.15c1.32.41 2.59.95 3.86 1.46zM118.53 164.84a19.11 19.11 0 0 0-2.35-1.5 11 11 0 0 0-2.65-1.09 2.39 2.39 0 0 0-.87-.05 2.05 2.05 0 0 0-.28.08l-.19.1-.33.19a11.72 11.72 0 0 0-1.17.85c-.74.59-1.41 1.23-2.09 1.88l.73-.13a22.31 22.31 0 0 0-2.71-1 11.11 11.11 0 0 0-1.46-.35 4.94 4.94 0 0 0-.79-.07 2.12 2.12 0 0 0-.43 0 2.64 2.64 0 0 0-.46.13 4.9 4.9 0 0 0-1.28.88c-.37.33-.7.68-1 1a18.36 18.36 0 0 0-1.72 2.3c.72-.63 1.43-1.26 2.16-1.84.36-.29.73-.58 1.11-.83a4.68 4.68 0 0 1 1.11-.6 2.46 2.46 0 0 1 1.12.07 10 10 0 0 1 1.28.4c.86.3 1.73.67 2.55 1l.42.19.31-.32c.62-.64 1.29-1.26 1.95-1.86a12.84 12.84 0 0 1 1-.84l.25-.17.11-.07a1.58 1.58 0 0 1 .5 0 13.42 13.42 0 0 1 2.55.68c.9.32 1.76.65 2.63.97zM141.33 161.15a31.35 31.35 0 0 0-2.59-3.28 16.07 16.07 0 0 0-3.21-2.84 3.77 3.77 0 0 0-1.21-.49 2 2 0 0 0-.44 0h-.31c-.21 0-.38.08-.57.11a20.85 20.85 0 0 0-2.07.63c-1.34.48-2.6 1.05-3.87 1.64l1.08.18a31 31 0 0 0-3.32-2.83 18.81 18.81 0 0 0-1.88-1.2 7.8 7.8 0 0 0-1.09-.49 3.86 3.86 0 0 0-.63-.17 5.43 5.43 0 0 0-.71 0 7.58 7.58 0 0 0-2.25.62c-.68.29-1.32.62-2 1a27.73 27.73 0 0 0-3.56 2.4c1.33-.52 2.63-1.07 4-1.53a20.54 20.54 0 0 1 2-.64 7.51 7.51 0 0 1 1.88-.31 3.89 3.89 0 0 1 1.55.66 16 16 0 0 1 1.62 1.19c1.06.85 2.1 1.79 3.09 2.73l.49.48.59-.3c1.2-.6 2.45-1.16 3.68-1.68a19 19 0 0 1 1.84-.69l.44-.12h.2a.14.14 0 0 1 .07 0 1.93 1.93 0 0 1 .71.22 19.41 19.41 0 0 1 3.29 2.22c1.05.72 2.1 1.61 3.18 2.49zM400.55 114.06a31.35 31.35 0 0 0-2.59-3.28 15.8 15.8 0 0 0-3.21-2.84 3.77 3.77 0 0 0-1.21-.49 2 2 0 0 0-.44 0h-.31c-.21 0-.38.08-.57.11a20.85 20.85 0 0 0-2.07.63c-1.33.48-2.6 1-3.87 1.64l1.08.18a31 31 0 0 0-3.32-2.83 18.81 18.81 0 0 0-1.88-1.2 7.8 7.8 0 0 0-1.09-.49 3.86 3.86 0 0 0-.63-.17 5.43 5.43 0 0 0-.71 0 7.58 7.58 0 0 0-2.25.62c-.68.29-1.32.62-2 1a29.57 29.57 0 0 0-3.56 2.4c1.33-.52 2.64-1.07 4-1.53a20.54 20.54 0 0 1 2-.64 7.51 7.51 0 0 1 1.88-.31 3.89 3.89 0 0 1 1.55.66 16 16 0 0 1 1.62 1.19c1.06.85 2.1 1.79 3.09 2.73l.49.48.59-.3a64.3 64.3 0 0 1 3.69-1.68 17.88 17.88 0 0 1 1.83-.69l.44-.12h.27a2 2 0 0 1 .72.22 20.38 20.38 0 0 1 3.28 2.22c1.05.72 2.1 1.61 3.18 2.49z" style="fill:#263238"/></g><g><ellipse cx="283.44" cy="451.21" rx="138.76" ry="10.99" style="fill:#ebebeb"/></g><g><path d="M302.48 192.37c-.56.78-50.35 5.37-52.76 4.8a1.56 1.56 0 0 1-.34-.12c-3-1.24-17.19-13.09-18.27-14.09-2.64-2.47 6.93-21.13 10.11-24.29 2.11-2.11 6.17-3.08 6.17-3.08s10-33.9 16.78-41.22c1.7-1.83 32.61-4 38.26-1.72 2.42 1 8.46 6.58 8.66 7.63.22 1.54-8.09 71.3-8.61 72.09z" style="fill:#455a64"/><path d="M302.48 192.37c-.56.78-50.35 5.37-52.76 4.8a1.56 1.56 0 0 1-.34-.12c4.17-13.15 23.79-74.88 24.41-75.3s30.2-1.64 37.3-1.46c.22 1.53-8.09 71.29-8.61 72.08z" style="fill:#37474f"/><path d="M313 110.13c-.55 4.45-2.37 7.94-4.22 8.16l-41.74.56 2.07-17.17 40.75-.54a1.39 1.39 0 0 1 .64-.06.85.85 0 0 1 .22 0h.14c1.69.78 2.64 4.61 2.14 9.05z" style="fill:#ff725e"/><path d="M313 110.13c-.55 4.45-2.37 7.94-4.22 8.16l-41.74.56 2.07-17.17 40.75-.54a1.39 1.39 0 0 1 .64-.06.85.85 0 0 1 .22 0h.14c1.69.78 2.64 4.61 2.14 9.05z" style="opacity:.1"/><path d="M271.58 110.73c-.57 4.74-2.62 8.39-4.57 8.16s-3.08-4.28-2.5-9 2.62-8.39 4.57-8.16 3.08 4.27 2.5 9z" style="fill:#ff725e"/><path d="M253.51 444.39c-2.41-.83-57.07-42.93-58.13-45.85-.42-1.1 5.25-9.43 12.39-19.28.07-.11.15-.21.22-.31 1.47-2 27.77-36 27.77-36l35.95 28.42-28.15 34.31-.47.59s13.71 25.47 14.54 28.81-1.72 10.14-4.12 9.31z" style="fill:#ffc4c0"/><path d="M195.39 398.54c1.05 2.93 55.71 45 58.12 45.85s4.94-6 4.12-9.28-14.54-28.82-14.54-28.82l.47-.58L247 402l-35.27-28c-1.18 1.37-3.56 4.64-3.78 4.94-.08.1-.15.21-.23.3-7.09 9.88-12.72 18.2-12.33 19.3z" style="fill:#ebebeb"/><path d="M253.54 444.65c-2.42-.85-57.3-43.58-58.36-46.53-.41-1.12 5.34-9.47 12.59-19.37l35.46 27.44s13.7 25.76 14.52 29.13-1.75 10.19-4.21 9.33z" style="fill:#ff725e"/><path d="M254.46 441.85c-9-7.39-46.12-36.34-55.6-43-.08-.05-.12 0-.05.06 8.79 7.52 46.12 36.16 55.54 43.05.19.18.3.04.11-.11zM255.75 430.59a9.4 9.4 0 0 0-7.25-2 9.09 9.09 0 0 0-5.88 3.32c0 .05.06.13.11.08a10.82 10.82 0 0 1 12.93-1.24c.08.01.17-.1.09-.16zM246.09 409.89c-3.65-2.92-8.93-4.94-13.56-3.71-.18 0-.11.3 0 .33a64.34 64.34 0 0 1 13.23 3.88.29.29 0 0 0 .33-.5zM248.07 413.21c-3.65-2.92-8.93-4.94-13.56-3.71-.18 0-.11.3 0 .33a64.34 64.34 0 0 1 13.23 3.88.29.29 0 0 0 .33-.5zM250.05 416.53c-3.65-2.92-8.93-4.94-13.56-3.71-.18.05-.11.3 0 .33a64.34 64.34 0 0 1 13.27 3.85.29.29 0 0 0 .29-.47zM252 419.85c-3.65-2.92-8.93-4.94-13.56-3.71-.18.05-.11.3 0 .33a65 65 0 0 1 13.23 3.88.29.29 0 0 0 .33-.5z" style="fill:#263238"/><path d="M208 392c-4.14-3.21-9.13 3.22-5 6.43s9.15-3.24 5-6.43z" style="fill:#fff"/><path d="M257.72 403.16c-.66-3-4.19-3.31-6.59-2.6a24.4 24.4 0 0 0-10.67 6.81.12.12 0 0 0 0 .19.56.56 0 0 0 .43.81c4 .23 8.32 1 12.3 0 2.36-.64 5.15-2.37 4.53-5.21zm-10.61 4.31c-2-.07-4-.23-6-.22a73.86 73.86 0 0 1 6.32-3.84 26.46 26.46 0 0 1 3.28-1.43c1.75-.6 7.76-.86 5 3.43-1.46 2.37-6.24 2.13-8.6 2.06z" style="fill:#263238"/><path d="M230.24 401.61c2.83 3 6.85 4.65 10.38 6.61a.56.56 0 0 0 .79-.45c.08 0 .15 0 .14-.15a24.41 24.41 0 0 0-5.39-11.46c-1.64-1.89-4.79-3.5-6.95-1.32s-.61 5.02 1.03 6.77zm-.59-3.83c0-5.1 4.91-1.66 6.07-.22a26.94 26.94 0 0 1 2 3 73 73 0 0 1 3.29 6.63c-1.67-1.07-3.42-2-5.14-3-2.04-1.19-6.2-3.6-6.22-6.41z" style="fill:#263238"/><path d="m218.76 364.14 35.15 29.26s56.3-66.4 58.36-76.4c2.35-11.34 8.87-100.18 8.72-104.61-.18-5.37-6.09-29-6.09-29h-42.18s-5.9 116.18-7.13 119.78c-1.32 3.89-46.83 60.97-46.83 60.97z" style="fill:#37474f"/><path style="fill:#455a64" d="m215.04 369.7 4.94-9.32 36.53 32.03-7.18 6.3-34.29-29.01z"/><path d="M257.23 384.59c-5.43-5.25-26.64-22.09-29.28-23.47-.06 0-.14.07-.09.12 1.91 2.28 20 17.09 29.23 23.52.1.07.23-.09.14-.17zM317 200.88a13.21 13.21 0 0 0-1.71-.4 9.7 9.7 0 0 1-1.78-.68 13.44 13.44 0 0 1-3.25-2.3 12.23 12.23 0 0 1-2.5-4c-.37-.85-2.09-5.37-2.11-5.41s-.17 0-.15.07c.12.63 1.3 4.54 1.65 5.51a12.74 12.74 0 0 0 2.6 4.67 10.44 10.44 0 0 0 3.6 2.42 7.26 7.26 0 0 0 1.94.52 3.09 3.09 0 0 0 1.76-.1c.07-.07.01-.27-.05-.3zM279.68 185.47l-.89 23.33-1 23.33-2.24 46.65c-.42 7.77-.84 15.54-1.33 23.31 0 1-.13 2-.23 3a1.35 1.35 0 0 1-.09.45 3.2 3.2 0 0 1-.19.37c-.12.23-.26.44-.39.65-.27.42-.55.82-.83 1.22-1.13 1.6-2.3 3.16-3.48 4.71-2.36 3.1-4.78 6.15-7.2 9.2q-7.28 9.14-14.66 18.18l-14.88 18 14.51-18.3c4.83-6.1 9.67-12.2 14.44-18.34q3.59-4.6 7.11-9.26c1.17-1.55 2.33-3.11 3.44-4.69.27-.4.55-.8.8-1.2s.57-.8.54-1.14c.08-.94.16-1.88.21-2.86.46-7.77.84-15.54 1.24-23.31l2.44-46.68 1.28-23.31z" style="fill:#263238"/><path d="M313.12 310.8c-.31 2.86-.59 5-.84 6.19-1.16 5.6-19.43 29-35.22 48.46l-10.83-68.11c1.93-24.17 6.49-113.93 6.49-113.93h21z" style="fill:#263238"/><path d="M372.6 443c-2.22 1.23-70.1 13.56-73 12.38-1.1-.42-3.48-10.21-6-22.12l-.07-.37c-.53-2.45-6.61-44.13-6.61-44.13l40.66-7.49 9.65 43.18.12.74s28.09 6.9 31.13 8.53 6.35 8.01 4.12 9.28z" style="fill:#ffc4c0"/><path d="M292.55 428.12c.33 1.61.66 3.18 1 4.72l.07.38c2.53 11.9 4.91 21.69 6 22.11 2.88 1.18 70.76-11.15 73-12.38s-1.11-7.66-4.12-9.28-31.13-8.52-31.13-8.52l-.12-.75-.73-4.65z" style="fill:#ebebeb"/><path d="M373.2 443c-2.25 1.23-70.73 13.43-73.63 12.25-1.11-.44-3.46-10.31-6-22.32l44.13-8s28.31 7.06 31.35 8.7 6.4 8.14 4.15 9.37z" style="fill:#ff725e"/><path d="M371.73 440.43c-11.53 1.76-57.86 10-69.13 12.59-.09 0-.08.08 0 .07 11.46-1.5 57.73-10.08 69.14-12.47.26-.05.26-.23-.01-.19zM364.23 431.94a9.39 9.39 0 0 0-6.37 4 9.14 9.14 0 0 0-1.47 6.59c0 .06.14 0 .14 0a10.81 10.81 0 0 1 7.73-10.44.08.08 0 0 0-.03-.15zM342.38 425.27c-4.61.76-9.65 3.33-11.83 7.59-.09.17.15.29.27.19a64.54 64.54 0 0 1 11.74-7.23.29.29 0 0 0-.18-.55zM346.17 426c-4.61.76-9.64 3.33-11.83 7.6-.08.16.15.28.28.18a64.46 64.46 0 0 1 11.73-7.23.29.29 0 0 0-.18-.55zM350 426.77c-4.6.76-9.64 3.33-11.83 7.6-.08.16.15.28.28.19a63.37 63.37 0 0 1 11.73-7.23.3.3 0 0 0-.18-.56zM353.76 427.52c-4.61.76-9.65 3.33-11.83 7.6-.09.16.15.28.27.19a64 64 0 0 1 11.74-7.23.3.3 0 0 0-.18-.56z" style="fill:#263238"/><path d="M303.59 441.59c-5.16.94-3.71 8.94 1.45 8s3.71-8.93-1.45-8z" style="fill:#fff"/><path d="M345.16 412.13c-2.67-1.52-5.27.89-6.34 3.15a24.54 24.54 0 0 0-2.09 12.49.13.13 0 0 0 .17.11.57.57 0 0 0 .89.22c2.87-2.84 6.29-5.53 8.2-9.17 1.11-2.13 1.69-5.37-.83-6.8zm-3.9 10.77c-1.38 1.43-2.82 2.79-4.14 4.27a72.71 72.71 0 0 1 1.38-7.27 26.9 26.9 0 0 1 1.12-3.39c.73-1.7 4.56-6.34 5.9-1.43.75 2.71-2.62 6.11-4.26 7.82z" style="fill:#263238"/><path d="M325.62 431.51c4.11-.1 8-2 11.86-3.28a.57.57 0 0 0 .19-.9c.05-.06.07-.15 0-.2a24.49 24.49 0 0 0-12.12-3.67c-2.5 0-5.81 1.23-5.63 4.29.14 2.9 3.3 3.82 5.7 3.76zm-3.24-2.12c-3.81-3.39 2.05-4.76 3.89-4.66a26.36 26.36 0 0 1 3.55.49 72.92 72.92 0 0 1 7.12 2c-1.91.53-3.77 1.22-5.66 1.82-2.28.7-6.8 2.22-8.9.35z" style="fill:#263238"/><path d="M306.5 183.41s-1.11 18-6.08 30.88c0 0-7.18 4.47-7.93 5.18L335.21 412l-43.81 8.52s-17.21-93.26-18.68-99.65c-2.35-10.26-21-97.53-21.78-102.49-1.72-10.37 7.85-34.93 7.85-34.93z" style="fill:#37474f"/><path d="M330.74 402.34c-12.05 1.81-35.08 6.69-37.92 7.87-.06 0 0 .15 0 .15 3.07-.05 31.14-5.62 37.94-7.8a.11.11 0 0 0-.02-.22zM264.18 200.89c.88-.2 1.82-.14 2.71-.25a20.7 20.7 0 0 0 7.76-2.56 10.59 10.59 0 0 0 3.62-3.84c.51-.82 2.84-5.26 2.87-5.29s.27 0 .25.09c-.13.62-1.66 4.47-2.12 5.43a10.43 10.43 0 0 1-3.74 4.49 17.59 17.59 0 0 1-8.57 2.47 7.93 7.93 0 0 1-2.83-.26c-.13-.06-.07-.26.05-.28zM301.46 213.81a71.94 71.94 0 0 0-11.55 5.25.13.13 0 0 0 .1.24c3.89-1.63 7.86-3.19 11.65-5a.25.25 0 0 0-.2-.49zM302.93 187.23c0-.14-.24-.17-.24 0a128.2 128.2 0 0 1-.77 12.94c-.2 2-1.9 13-5.36 12.17-.58-.14-.87-.71-.95-1.59a13.93 13.93 0 0 1 .49-3.37c.4-2.31.73-4.62.95-7a63.24 63.24 0 0 0 0-13 .11.11 0 1 0-.22 0 119.14 119.14 0 0 1-1.22 18c-.46 2.87-1.94 7.17 1.05 7.64s5.1-6.74 5.49-8.71a66 66 0 0 0 .78-17.08z" style="fill:#263238"/><path d="M296.65 212.62a18.68 18.68 0 0 0-.8 2.28 5.3 5.3 0 0 0-.34 1.88c0 .12.17.13.24.05a6.51 6.51 0 0 0 .82-1.82c.27-.71.56-1.41.81-2.12a.39.39 0 0 0-.73-.27zM262.38 183.41c-1.19 4.57-2.32 9.16-3.35 13.77s-2 9.24-2.58 13.92l-.16 1.75c-.05.58 0 1.16-.06 1.74l.52 3.47 1.32 7 2.82 13.89 11.58 55.5 11.6 55.5 5.75 27.76 5.68 27.78-6.16-27.68-6-27.7-11.84-55.5c-3.83-18.51-7.7-37-11.36-55.55l-2.68-13.92-1.26-7-.49-3.54a30 30 0 0 1 .29-3.6c.66-4.7 1.72-9.31 2.82-13.91s2.29-9.09 3.56-13.68z" style="fill:#263238"/><path style="fill:#455a64" d="m292.02 424.31-4.34-9.62 47.7-9.24.58 9.54-43.94 9.32z"/><path d="M323.26 115.07c1.75 4.46 4.24 8.52 5.63 13.14a30.14 30.14 0 0 1 1.17 13.17c-2.48 16.18-23.55 25.89-38.35 20.86-7.07-2.4-13.23-8.14-15.11-15.51-2.3-9 2.52-17.7 5.44-25.94a42.15 42.15 0 0 0 2.37-14.37c0-4.29-.25-8.64.61-12.87.62-3 2.68-11.78 13.79-15.29 8-2.51 16.05 1.85 19.77 9.42 4.32 8.81 1.23 18.54 4.68 27.39z" style="fill:#263238"/><path d="M285.27 116.39c-3.45 7.38-8 14.92-9.3 23.06-1.1 6.76.72 14.06 6.6 18.08.05 0 .11 0 .06-.08-6.18-4.78-6.94-13-5.21-20.16 1.77-7.28 6-13.62 8.2-20.75.06-.23-.25-.38-.35-.15z" style="fill:#263238"/><path d="M283.71 116c-2.61 9.68-10.58 17.31-11.09 27.61 0 .12.18.15.19 0 .67-10.29 9.53-17.59 11.09-27.61a.1.1 0 0 0-.19 0zM323.82 114.91a33.58 33.58 0 0 1-3-11.38c0-.2-.35-.22-.36 0-.93 14.22 15.34 24.87 11 39.57 0 .1.12.17.16.06 2.08-6.06.46-12.12-2.26-17.71-1.76-3.58-3.86-6.95-5.54-10.54z" style="fill:#263238"/><path d="M320.53 101.42c0-.27-.43-.19-.41.07a31.78 31.78 0 0 0 5 14.94c1.41 2.21 3.15 4.19 4.52 6.44 1.5 2.45 2.66 5.09 3.92 7.67 0 .07.12 0 .1 0-1.64-4.9-4.21-8.79-7.15-13a35.08 35.08 0 0 1-5.98-16.12z" style="fill:#263238"/><path d="M303.5 139.41c3.77 12 17.33 50.67 29.32 54.25 7.87 2.35 39.58 5.55 47.26 0 3-2.18 1.13-28.73-3.25-28.14s-30.57 2-33.68.84-24.85-30.47-33.23-38c-14.46-12.94-8.46 4.64-6.42 11.05z" style="fill:#ffc4c0"/><path d="m328.71 147.1-18.18 19.35S301 138.86 300.42 130c-.59-10 4.66-8.13 11.86-1.85s16.43 18.95 16.43 18.95z" style="fill:#ff725e"/><path d="M325 144.49c-.73.58-6.45 6.57-7.66 7.89s-6.23 6.71-7.37 8.19c-.05.06 0 .15.09.09 1.39-1.23 6.47-6.64 7.73-8s6.79-7.37 7.31-8.12c.01-.03-.1-.09-.1-.05z" style="fill:#263238"/><path d="m326.16 149.8-15.63 16.65S301 138.86 300.43 130c-.37-6.27 1.54-7.89 4.78-6.68 4.79 5.99 14.13 17.73 20.95 26.48z" style="opacity:.1"/><path transform="rotate(15.53 167.968 365.715)" style="fill:#ff725e" d="M134.84 304.09h66.36v123.5h-66.36z"/><g style="opacity:.1"><path transform="rotate(15.53 180.47 320.722)" style="fill:#020100" d="M147.34 320.46h66.36v.75h-66.36z"/><path transform="rotate(15.53 176.918 333.57)" style="fill:#020100" d="M143.77 333.32h66.36v.75h-66.36z"/><path transform="matrix(.96 .27 -.27 .96 99.08 -33.76)" style="fill:#020100" d="M140.2 346.18h66.36v.75H140.2z"/><path transform="matrix(.96 .27 -.27 .96 102.4 -32.34)" style="fill:#020100" d="M136.62 359.03h66.36v.75h-66.36z"/><path transform="rotate(15.53 166.194 372.157)" style="fill:#020100" d="M133.05 371.89h66.36v.75h-66.36z"/><path transform="rotate(15.53 162.642 385.004)" style="fill:#020100" d="M129.48 384.75h66.36v.75h-66.36z"/><path transform="rotate(15.53 159.054 397.856)" style="fill:#020100" d="M125.91 397.61h66.36v.75h-66.36z"/><path transform="matrix(.96 .27 -.27 .96 115.64 -26.64)" style="fill:#020100" d="M122.34 410.46h66.36v.75h-66.36z"/></g><path transform="rotate(15.52 168.038 365.927)" style="fill:#263238" d="M165.46 304.09h5.12v123.5h-5.12z"/><path transform="rotate(15.52 179.382 369.09)" style="fill:#263238" d="M176.58 350.33h5.53v37.31h-5.53z"/><path style="fill:#263238" d="m185.93 425.31-15.36-4.27-8.61 7.2 21.5 5.97 2.47-8.9zM122 407.54l15.35 4.27 3.67 10.62-21.5-5.98 2.48-8.91zM169.61 441.88l5.68 1.58 6.74-9.64-12.27-3.41 2.02 6.32-2.17 5.15z"/><path d="M163.44 443.65a8.13 8.13 0 1 0 10-5.65 8.13 8.13 0 0 0-10 5.65z" style="fill:#37474f"/><path d="M167 444.64a4.44 4.44 0 1 0 5.47-3.09 4.45 4.45 0 0 0-5.47 3.09z" style="fill:#dbdbdb"/><path d="M171.9 443.21c-.17.62-.23 1.14-.14 1.16s.3-.45.47-1.07.24-1.13.15-1.16-.31.46-.48 1.07zM173.57 444.43c-.56.31-1 .63-.93.71s.54-.1 1.1-.42 1-.63.92-.71-.54.1-1.09.42zM173.89 446.46c-.62-.17-1.14-.23-1.16-.14s.45.3 1.06.47 1.14.24 1.16.15-.45-.31-1.06-.48zM172.67 448.13c-.31-.56-.63-1-.72-.93s.11.54.42 1.1.64 1 .72.92-.09-.54-.42-1.09zM170.64 448.45c.17-.62.23-1.14.14-1.16s-.3.45-.48 1.06-.23 1.14-.14 1.16.3-.45.48-1.06zM169 447.23c.56-.31 1-.63.92-.72s-.53.11-1.09.42-1 .64-.92.72.5-.1 1.09-.42zM168.65 445.2c.62.17 1.14.23 1.16.14s-.45-.3-1.07-.48-1.13-.23-1.16-.14.42.28 1.07.48zM169.87 443.53c.31.56.63 1 .71.92s-.1-.53-.42-1.09-.63-1-.71-.92.1.56.42 1.09zM127.43 430.16l-5.68-1.58-.8-11.73 12.27 3.41-5 4.37-.79 5.53z" style="fill:#263238"/><path d="M131.8 434.86a8.13 8.13 0 1 1-5.65-10 8.12 8.12 0 0 1 5.65 10z" style="fill:#37474f"/><path d="M128.25 433.88a4.44 4.44 0 1 1-3.09-5.47 4.44 4.44 0 0 1 3.09 5.47z" style="fill:#dbdbdb"/><path d="M124.78 430.12c-.17.62-.38 1.09-.48 1.07s0-.55.15-1.16.38-1.09.47-1.07.08.55-.14 1.16zM122.73 430.3c.31.56.5 1.05.42 1.09s-.41-.36-.72-.92-.5-1-.42-1.09.4.37.72.92zM121.4 431.88c.62.17 1.1.39 1.07.48s-.54 0-1.16-.15-1.09-.38-1.07-.47.55-.03 1.16.14zM121.58 433.93c.56-.31 1-.5 1.1-.41s-.37.4-.93.71-1 .51-1.09.42.34-.4.92-.72zM123.16 435.26c.18-.62.39-1.09.48-1.07s0 .55-.14 1.16-.39 1.09-.48 1.07-.02-.55.14-1.16zM125.22 435.08c-.32-.56-.5-1.05-.42-1.09s.4.36.72.92.5 1 .42 1.09-.41-.37-.72-.92zM126.54 433.5c-.61-.17-1.09-.39-1.07-.48s.55 0 1.16.15 1.1.38 1.07.47-.54.03-1.16-.14zM126.36 431.44c-.56.32-1 .51-1.09.42s.36-.4.92-.71 1-.51 1.09-.42-.37.4-.92.71z" style="fill:#263238"/><path transform="rotate(15.52 194.64 306.355)" style="fill:#263238" d="M189.06 303.46h11.08v5.56h-11.08z"/><path transform="rotate(15.53 224.169 267.591)" style="fill:#c7c7c7" d="M221.71 219.72h5.04v95.89h-5.04z"/><path transform="rotate(15.53 235.771 225.859)" style="fill:#263238" d="M232.24 219.9h7.17v12.08h-7.17z"/><path d="m316.54 165.73-1.64 17.68h-56.11s16-44.16 31.9-59.07c6.32-5.93 12.19-4.17 16.68.37 1 1 13.36 21.42 14.4 28.7.85 5.98-5.23 12.32-5.23 12.32z" style="fill:#ff725e"/><path d="M308.73 162.38a45.24 45.24 0 0 0-8.41 1c-1.39.32-2.75.73-4.12 1.17-.68.22-1.37.41-2.05.6a7.42 7.42 0 0 1-2.17.33c-.07 0-.08.12 0 .12a11.78 11.78 0 0 0 2.05.14 12.38 12.38 0 0 0 2-.3c1.4-.31 2.8-.71 4.21-1 2.83-.66 5.66-1.33 8.51-1.73.11-.05.11-.34-.02-.33zM315.29 166.17a48.22 48.22 0 0 0-6.85-1 30.7 30.7 0 0 0-3.46 0c-.55 0-1.11.06-1.66.1s-1.22.19-1.83.22c-.06 0-.07.13 0 .13.58 0 1.15.11 1.72.14l1.72.1c1.15.06 2.3.15 3.45.2 2.31.11 4.6.24 6.9.45.11-.08.12-.31.01-.34z" style="fill:#263238"/><g style="opacity:.1"><path d="m315.51 176.84-.05.48c-1.47.14-3 .2-4.44.2a64.36 64.36 0 0 1-9.9-.69 66.14 66.14 0 0 1-4.2-.8l-1.54-.37c-1.32-.31-2.64-.66-3.95-1-1-.27-2-.53-2.95-.78l-1.37-.35c-1.76-.44-3.53-.83-5.31-1.13a38.33 38.33 0 0 0-4.89-.56 40.37 40.37 0 0 0-4.91.16c-3.11.28-6.21.83-9.3 1.38.1-.23.2-.47.29-.72a89.84 89.84 0 0 1 9-1.27 36.09 36.09 0 0 1 5-.09 38.83 38.83 0 0 1 4.94.66c2 .36 3.95.84 5.91 1.36l1.31.36 2.41.69c1.44.42 2.9.81 4.36 1.15l1.62.36c1.22.25 2.44.47 3.67.64a65.08 65.08 0 0 0 9.86.57c1.45 0 2.93-.09 4.44-.25z"/><path d="M316 171.47v.28l-1.05-.16a63.67 63.67 0 0 0-9.86-.58 50.22 50.22 0 0 0-9.78 1.13c-2.08.43-4.13 1-6.19 1.56l-.62.18c-.92.25-1.84.51-2.77.75a53.77 53.77 0 0 1-19.73 1.88 39.52 39.52 0 0 1-4.22-.71l.29-.72c1.33.28 2.67.51 4 .66a55.36 55.36 0 0 0 19.49-1.8l1.58-.41.68-.19c2.44-.64 4.89-1.29 7.38-1.77a51.43 51.43 0 0 1 9.9-1 64.5 64.5 0 0 1 9.91.7z"/><path d="m315.76 174.1-.07.78c-.42-.07-.84-.12-1.26-.17a53.71 53.71 0 0 0-16.94 1.19 3.9 3.9 0 0 0-.57.13c-.66.14-1.32.31-2 .48-3.19.82-6.38 1.74-9.64 2.37a51.43 51.43 0 0 1-9.9 1 64.41 64.41 0 0 1-9.91-.7c-1.58-.24-3.16-.56-4.72-.92a1.36 1.36 0 0 1 .09-.23c1.55.35 3.11.64 4.68.86a63.62 63.62 0 0 0 9.85.58 50.23 50.23 0 0 0 9.79-1.13c3.22-.67 6.37-1.65 9.58-2.49l.62-.16a3.89 3.89 0 0 1 .49-.12 52.78 52.78 0 0 1 18.65-1.6z"/></g><path d="M289.17 134c-4.89 7-25.5 36.33-26.1 37.86s-11.16 32.44-12.26 37.44c-.77 3.53-25.05-8.2-24.19-11.23 2-7.1 7.5-28.39 12.8-36.11 6.91-10.05 35.36-34 44-37.42s13.78-2.08 5.75 9.46z" style="fill:#ffc4c0"/><path d="M237 220.8c1.52-.91 2-.12.89 2.82s-8.06 13.65-4.13 15.75 13.51-13.13 15-18.17 2.14-13.73 2.14-13.73c-2.41 2.59-8.97 8.31-13.9 13.33z" style="fill:#ffc4c0"/><path d="M230 191.57c-6.65 7.56-15.4 16.56-17.55 27.71a5.61 5.61 0 0 0 .44 3.66c-1 5 1 7 1 7 .44 4.94 2.81 6.69 2.81 6.69s-1.17 5.86 2.25 7.16c3.84 1.46 4.73-7 8.09-11.44 7.69-10 21.43-22.18 23.93-24.85z" style="fill:#ffc4c0"/><path d="M227.67 216.13a80.57 80.57 0 0 0-6.24 9.18 81.41 81.41 0 0 0-4.64 11.23.1.1 0 0 1-.19 0A43.09 43.09 0 0 1 227.53 216c.13-.1.25 0 .14.13zM222.28 210.61c-2 3-5.43 8.4-8.3 19.33h-.07a38.64 38.64 0 0 1 8.22-19.42c.14-.19.28-.12.15.09zM219.33 207.69c-3.18 5.3-4.51 9-6.42 15.23h-.07c1.44-7.26 2.78-9.74 6.32-15.35.12-.2.29-.08.17.12zM258.14 186.3c.31-1.46.71-2.89 1.11-4.31s.86-2.83 1.32-4.24 1-2.8 1.53-4.18a12.2 12.2 0 0 1 1-2c.45-.6.87-1.21 1.33-1.79-.32.67-.68 1.32-1 2a11 11 0 0 0-.75 2c-.44 1.41-.9 2.81-1.37 4.22s-.95 2.8-1.48 4.18-1.08 2.76-1.69 4.12z" style="fill:#263238"/><path d="m276.36 158-25.47-13.46s26.11-17.94 35.28-21c10.31-3.5 9.84 2.54 5.34 11.87S276.36 158 276.36 158z" style="fill:#ff725e"/><path d="M278 153.37c-.82-.6-8.72-4.86-10.46-5.74s-8.8-4.59-10.67-5.36a.07.07 0 0 0-.08.12c1.69 1.1 8.81 4.85 10.56 5.8s9.66 5 10.59 5.3c.06.03.12-.08.06-.12z" style="fill:#263238"/><path d="M273.06 156.29c1.15.49 2.28 1 3.39 1.55h-.26l6.37-8.72c2.11-2.92 4.23-5.82 6.24-8.83a49.73 49.73 0 0 1-2.65 4.73c-.94 1.55-2 3-3 4.51s-2.12 2.92-3.21 4.36-2.24 2.83-3.4 4.22l-.12.14-.14-.08c-1.1-.58-2.16-1.17-3.22-1.88z" style="fill:#263238"/><path d="M284.69 146.76a14.34 14.34 0 0 1 1.65-1.82 16.88 16.88 0 0 1 1.9-1.55 6.63 6.63 0 0 1-.71 1 10.29 10.29 0 0 1-.85.9 9 9 0 0 1-1.99 1.47z" style="fill:#263238"/><path d="M294.58 123.6c.46 1 6.93 7.11 11.84 6 1.6-.37-.07-9.18-.07-9.18v-.68l.35-9.5-12-4.89-1.72-.62s.08 2.6.2 5.85v.46a4.61 4.61 0 0 0 0 .53c0 .48 0 1 .05 1.47s0 .74.06 1.13.06.78.08 1.18a62.26 62.26 0 0 0 1.21 8.25z" style="fill:#ffc4c0"/><path d="m306.72 110.19-.25 6.74c-5 2-11.14.78-12.84.38-.07-.66-.13-1.34-.19-2 0-.4-.05-.78-.07-1.18s-.05-.76-.07-1.13 0-1-.05-1.47v-.99c-.13-3.25-.21-5.85-.21-5.85l1.72.62z" style="fill:#263238"/><path d="M283.15 91.69c-8.13 14.57-.32 21.08 2.83 22.83 2.85 1.59 12.77 6.63 22.36-7s5.38-22-1-26-16.07-4.4-24.19 10.17z" style="fill:#ffc4c0"/><path d="M288.13 89.86a10 10 0 0 0 1.1.34 1.82 1.82 0 0 0 1.19.13.58.58 0 0 0 .35-.63 1.47 1.47 0 0 0-1.1-1 2.15 2.15 0 0 0-1.56 0 .64.64 0 0 0 .02 1.16zM297.68 95.32a10.52 10.52 0 0 1-.87-.76 1.86 1.86 0 0 1-.74-.94.6.6 0 0 1 .35-.63 1.5 1.5 0 0 1 1.44.4 2.15 2.15 0 0 1 .81 1.33.63.63 0 0 1-.99.6zM293.68 97.91s.05.09 0 .13c-.61 1-1.14 2.16-.45 3 0 0 0 .07 0 0-1-.73-.23-2.32.45-3.13z" style="fill:#263238"/><path d="M295.16 97.4c1.64.81-.09 4-1.62 3.29s.24-3.97 1.62-3.29z" style="fill:#263238"/><path d="M295.7 97.91c.19.34.29.81.61 1s.85.07 1.28-.12c.05 0 .06 0 0 .07-.32.62-.9 1.13-1.62.86a1.36 1.36 0 0 1-.57-1.72c.04-.1.23-.22.3-.09zM288 94.56h-.12c-.5 1-1.24 2.1-2.33 2 0 0-.06.05 0 .06 1.19.44 2.16-1.01 2.45-2.06z" style="fill:#263238"/><path d="M287.68 93c-1.55-1-3.39 2.19-1.95 3.1s3.27-2.25 1.95-3.1z" style="fill:#263238"/><path d="M286.9 92.86c-.35 0-.78.19-1.09 0s-.42-.67-.45-1.12h-.07c-.36.6-.53 1.35 0 1.8s1.16.12 1.65-.4c.06-.07.06-.29-.04-.28zM289 105.75a1.71 1.71 0 0 1-1.15.18 2.93 2.93 0 0 1-1-.78h-.07a1.53 1.53 0 0 0 1 1.18 1.22 1.22 0 0 0 1.24-.52c.14-.02.07-.08-.02-.06zM286.87 99.86s-1 1.37-1.42 2.07c0 .06.12.19.35.33a3.78 3.78 0 0 0 3.92.54c.08 0 0-.16-.05-.15a5.73 5.73 0 0 1-3.53-.81c.06-.22 1.84-2.29 1.74-2.36a7.39 7.39 0 0 0-1.79-.52c2.05-2.92 4.56-5.48 6.56-8.42a.11.11 0 0 0-.16-.15 58.51 58.51 0 0 0-7.45 8.77c-.25.39 1.48.66 1.83.7z" style="fill:#263238"/><path d="M286.55 102.32a4 4 0 0 0 .81 1.88 1.8 1.8 0 0 0 .93.6c.8.2 1.17-.43 1.35-1a4.72 4.72 0 0 0 .15-1 5.16 5.16 0 0 1-3.24-.48z" style="fill:#263238"/><path d="M287.36 104.2a1.8 1.8 0 0 0 .93.6c.8.2 1.17-.43 1.35-1a1.88 1.88 0 0 0-2.28.4z" style="fill:#ff9cbd"/><path d="M306.81 107.53c-3.07-1.75.71-8.89.71-8.89s-1.42-1.69-1.61-6.43c0 0-.26 3.86 1.08 6.26.23.4-9.77-6.54-6.27-15.21a18.72 18.72 0 0 1-15 3.93c-.27-.06 4.76-6.9 7.26-7.75a17.76 17.76 0 0 1 4.49-.93 17.33 17.33 0 0 1 12.7 3.29c6 4.56 6.45 13.76 5.38 16.84-2.09 6.05-7.29 9.72-8.74 8.89z" style="fill:#263238"/><path d="M306.56 98.46c-5.64-3.46-8.19-9.7-5.4-15.87.07-.15-.15-.27-.25-.14-4.11 5.55-.07 13.55 5.64 16.14.14.06.14-.05.01-.13z" style="fill:#263238"/><path d="M300.94 83.06s0-.07-.05 0c-3.17 2.21-7.65 6.76-11.84 4.15-.11-.07-.23.09-.12.16 3.8 2.82 9.71-1.11 12.01-4.31z" style="fill:#263238"/><path d="M305.4 107.32s5.45-3.26 7.08-1.1-4 7.91-6.92 7.72a2.82 2.82 0 0 1-2.83-2.93z" style="fill:#ffc4c0"/><path d="M310.83 107.83c.05 0 0 .08 0 .07-2.1-.07-3.77 1.15-5.19 2.56a1.56 1.56 0 0 1 2.3.57s-.05.11-.09.07a1.74 1.74 0 0 0-2-.23 8 8 0 0 0-1.47 1c-.16.12-.4-.09-.26-.25 1-2.28 4.18-4.62 6.71-3.79zM287.49 122.31c-.79-1 4.78-1 6.14.08s6.56 14.66 3.88 31.91-36.78 30.7-38.08 28.08l2.5-7.45c1.3-1.34 23.65-9 26.56-19.69 2.58-9.48 2.35-28.85-1-32.93z" style="fill:#263238"/><path style="fill:#ebebeb" d="m367.6 203.86 2.71-32.83 6.96-28.87-20.22 1.75-14.7-4.51-15.8 3.17-18.54-6.18 2.35 31.7-5.57 31.11 13.93 4.94 17.12-3.46 13.82 6.03 17.94-2.85z"/><path style="fill:#dbdbdb" d="m349.66 206.71 7.39-62.8-14.7-4.51-6.51 61.28 13.82 6.03zM318.72 204.14l7.83-61.57-18.54-6.18 2.35 31.7-5.57 31.11 13.93 4.94z"/><path d="M374.69 156.63c2.17 4.07 7.39 9 8 12.36a3.92 3.92 0 0 1-2 4.25s3.47 1.53 3.49 4.68c0 1.62-2.58 3.05-2.58 3.05s2.73 1.35 2.57 4.15c-.13 2.23-2.7 3.34-2.7 3.34s2 2.5 1.16 4.74c-1.74 4.52-20.91 5.45-24.21-1.47-1.54-3.22 3.15-3.19 3.15-3.19s-6.74-1.67-7-5.62 5.8-3.54 5.8-3.54-6.52-1.68-6.41-5.8c.12-4.29 6.15-2.84 6.15-2.84s-4.4-2.69-3.6-5.83c1.34-5.17 9.72.85 13.88-.35l2-7.06z" style="fill:#ffc4c0"/><path d="M378.82 162.49c-1.72-4 3.11-9.34 2-13.42-1.48-5.53-7.51.25-8.51 8.43l.33 6.49z" style="fill:#ffc4c0"/><path d="M381.07 188.69a.05.05 0 0 1 0 .1 33.3 33.3 0 0 1-19.81-.23c-.2-.07-.17-.43.07-.39a68.18 68.18 0 0 0 19.74.52zM381.68 181c.07 0 .09.11 0 .14-6.43 1.86-14.78 1.76-21.59-1.59-.23-.11-.32-.45 0-.34 4.66 1.89 15.44 2.63 21.59 1.79zM359.64 170.34c6.65 2.95 13.58 3.48 20.77 3 .1 0 .1.13 0 .16-3.45 1.19-8.07 1-11.66.59a19.26 19.26 0 0 1-9.24-3.51c-.08-.09-.01-.31.13-.24z" style="fill:#263238"/><path d="m321.6 94.33 1.34-10.86s-6.57-6.55-8.27-7.71-9.25-4-9.25-4l-7.69 6z" style="fill:#ff725e"/><path d="M288.8 78.77s17.08 6.91 33.75 24.37l-.95-8.81s-10.74-12.69-23.87-16.6z" style="fill:#ff725e"/><path d="M288.8 78.77s17.08 6.91 33.75 24.37l-.95-8.81s-10.74-12.69-23.87-16.6z" style="opacity:.1"/></g></svg>