<svg xmlns="http://www.w3.org/2000/svg" viewBox="0 0 500 500"><path style="fill:#ebebeb" d="M0 382.4h500v.25H0zM416.78 398.49h33.12v.25h-33.12zM322.53 401.21h8.69v.25h-8.69zM396.59 389.21h19.19v.25h-19.19zM52.46 390.89h43.19v.25H52.46zM104.56 390.89h6.33v.25h-6.33zM131.47 395.11h93.68v.25h-93.68zM237 337.8H43.91a5.71 5.71 0 0 1-5.7-5.71V60.66a5.71 5.71 0 0 1 5.7-5.66H237a5.71 5.71 0 0 1 5.71 5.71v271.38a5.71 5.71 0 0 1-5.71 5.71zM43.91 55.2a5.46 5.46 0 0 0-5.45 5.46v271.43a5.46 5.46 0 0 0 5.45 5.46H237a5.47 5.47 0 0 0 5.46-5.46V60.66A5.47 5.47 0 0 0 237 55.2zM453.31 337.8h-193.1a5.72 5.72 0 0 1-5.71-5.71V60.66a5.72 5.72 0 0 1 5.71-5.66h193.1a5.71 5.71 0 0 1 5.69 5.66v271.43a5.71 5.71 0 0 1-5.69 5.71zM260.21 55.2a5.47 5.47 0 0 0-5.46 5.46v271.43a5.47 5.47 0 0 0 5.46 5.46h193.1a5.47 5.47 0 0 0 5.46-5.46V60.66a5.47 5.47 0 0 0-5.46-5.46z"/><circle cx="118.36" cy="107.44" r="27.79" style="fill:#fafafa"/><path d="M103.94 107.12a4.83 4.83 0 0 0-4.83-4.83 4.52 4.52 0 0 0-1.38.21 10.45 10.45 0 0 0 .11-1.49 10.23 10.23 0 0 0-10.23-10.23 10.62 10.62 0 0 0-1.89.18 8.93 8.93 0 0 0-16.57 4.52H69A8.24 8.24 0 1 0 69 112h30.25a4.84 4.84 0 0 0 4.69-4.88zM351.85 129.5a4.84 4.84 0 0 0-6.22-4.63 10.21 10.21 0 0 0-10.12-11.71 9.74 9.74 0 0 0-1.88.18 8.94 8.94 0 0 0-16.58 4.52h-.15a8.24 8.24 0 1 0 0 16.48h30.25a4.82 4.82 0 0 0 4.7-4.84zM215.62 98.25a4.83 4.83 0 0 1 4.83-4.83 4.52 4.52 0 0 1 1.38.21 10.45 10.45 0 0 1-.11-1.49A10.23 10.23 0 0 1 232 81.91a10.62 10.62 0 0 1 1.89.18 8.94 8.94 0 0 1 16.58 4.52h.14a8.24 8.24 0 1 1 0 16.48h-30.3a4.82 4.82 0 0 1-4.69-4.84zM164.55 121.59a3 3 0 0 0-3.86-2.87 7 7 0 0 0 .07-.92 6.36 6.36 0 0 0-6.36-6.36 6.56 6.56 0 0 0-1.18.11 5.55 5.55 0 0 0-10.3 2.81h-.09a5.13 5.13 0 1 0 0 10.25h18.81a3 3 0 0 0 2.91-3.02zM176.77 174.09a3 3 0 0 1 3-3 3 3 0 0 1 .86.12 7 7 0 0 1-.06-.92 6.36 6.36 0 0 1 6.36-6.36 6.45 6.45 0 0 1 1.17.11 5.55 5.55 0 0 1 10.3 2.81h.1a5.12 5.12 0 0 1 0 10.24h-18.81a3 3 0 0 1-2.92-3zM388.51 172.05a3 3 0 0 1 3-3 3.16 3.16 0 0 1 .87.13 5.62 5.62 0 0 1-.07-.92 6.36 6.36 0 0 1 6.36-6.36 5.66 5.66 0 0 1 1.17.11 5.56 5.56 0 0 1 10.31 2.81h.09a5.13 5.13 0 0 1 0 10.25h-18.81a3 3 0 0 1-2.92-3.02zM153.62 200.04h8.21v180.94h-8.21zM83.62 200.04h8.21v180.94h-8.21z" style="fill:#f5f5f5"/><path style="fill:#e6e6e6" d="M203.62 246.3h8.21v134.68h-8.21zM133.62 246.3h8.21v134.68h-8.21z"/><path style="fill:#f5f5f5" d="M123.58 224.73H60.44l-24.22-52.38h63.14l24.22 52.38z"/><path style="fill:#fafafa" d="M111.76 199.16H48.62l-.58-1.24h63.14l.58 1.24z"/><path style="fill:#fafafa" d="M71.69 224.73h-1.5l-24.22-52.38h1.5l24.22 52.38zM82.22 224.73h-1.5l-24.21-52.38h1.5l24.21 52.38zM92.76 224.73h-1.5l-24.22-52.38h1.5l24.22 52.38zM103.29 224.73h-1.5l-24.22-52.38h1.5l24.22 52.38zM113.82 224.73h-1.5l-24.21-52.38h1.5l24.21 52.38z"/><path style="fill:#f5f5f5" d="M190.19 224.73h-49.35l-18.93-40.94h49.36l18.92 40.94z"/><path style="fill:#fafafa" d="M180.96 204.75H131.6l-.45-.98h49.36l.45.98z"/><path style="fill:#fafafa" d="M149.64 224.73h-1.17l-18.93-40.94h1.17l18.93 40.94zM157.87 224.73h-1.17l-18.93-40.94h1.17l18.93 40.94zM166.1 224.73h-1.17L146 183.79h1.18l18.92 40.94zM174.34 224.73h-1.18l-18.92-40.94h1.17l18.93 40.94zM182.57 224.73h-1.17l-18.93-40.94h1.17l18.93 40.94z"/><path style="fill:#ebebeb" d="M177.3 262.71h-63.14l-24.21-52.37h63.14l24.21 52.37z"/><path style="fill:#f5f5f5" d="M165.48 237.15h-63.14l-.57-1.25h63.14l.57 1.25z"/><path style="fill:#f5f5f5" d="M125.42 262.71h-1.5L99.7 210.34h1.5l24.22 52.37zM135.95 262.71h-1.5l-24.22-52.37h1.5l24.22 52.37zM146.48 262.71h-1.5l-24.21-52.37h1.5l24.21 52.37zM157.02 262.71h-1.5l-24.22-52.37h1.5l24.22 52.37zM167.55 262.71h-1.5l-24.22-52.37h1.5l24.22 52.37z"/><path style="fill:#ebebeb" d="M241.52 262.71h-49.35l-18.93-40.94h49.35l18.93 40.94z"/><path style="fill:#f5f5f5" d="M232.28 242.73h-49.35l-.45-.97h49.35l.45.97z"/><path style="fill:#f5f5f5" d="M200.97 262.71h-1.18l-18.92-40.93h1.17l18.93 40.93zM209.2 262.71h-1.17l-18.93-40.93h1.17l18.93 40.93zM217.43 262.71h-1.17l-18.93-40.93h1.17l18.93 40.93zM225.67 262.71h-1.18l-18.93-40.93h1.18l18.93 40.93zM233.9 262.71h-1.17l-18.93-40.93h1.17l18.93 40.93zM299.65 381l-1.6-237.56a2.77 2.77 0 0 0-2.77-2.75 2.77 2.77 0 0 0-2.77 2.75L290.9 381z"/><path d="m292.86 153.4-25.76 33.44a1.07 1.07 0 0 0 .19 1.51 1.08 1.08 0 0 0 1.44-.11l26-27.22-1.38-3.22 2-2.53z" style="fill:#f0f0f0"/><path d="m295.28 155.27-16.26-39a1.08 1.08 0 0 0-1.41-.58A1.09 1.09 0 0 0 277 117l10.76 36 3.48.41 1.23 2.95z" style="fill:#f0f0f0"/><path d="m292.54 156.44 42 4.42a1.08 1.08 0 0 0 1.19-1 1.08 1.08 0 0 0-.85-1.17l-36.78-7.85-2 2.86-3.19-.34z" style="fill:#f0f0f0"/><path d="m359.47 381-1.78-264a3.08 3.08 0 0 0-3.08-3.06 3.08 3.08 0 0 0-3.08 3.06l-1.78 264z" style="fill:#f5f5f5"/><path d="m351.92 128.12-28.62 37.15a1.19 1.19 0 0 0 .22 1.68 1.19 1.19 0 0 0 1.59-.13L354 136.58l-1.56-3.58 2.17-2.82z" style="fill:#ebebeb"/><path d="m354.61 130.19-18.06-43.28a1.21 1.21 0 0 0-1.57-.65 1.2 1.2 0 0 0-.69 1.45l11.95 40.05 3.87.45 1.37 3.28z" style="fill:#ebebeb"/><path d="m351.57 131.49 46.64 4.91a1.19 1.19 0 0 0 1.31-1.06 1.2 1.2 0 0 0-.94-1.3l-40.87-8.73-2.25 3.18-3.54-.37z" style="fill:#ebebeb"/><path d="m419.27 381-2-293.28a3.42 3.42 0 0 0-3.42-3.4 3.42 3.42 0 0 0-3.42 3.4l-2 293.28z" style="fill:#f0f0f0"/><path d="m410.88 100-31.8 41.28a1.34 1.34 0 0 0 .24 1.87 1.33 1.33 0 0 0 1.77-.14l32.06-33.6-1.7-4 2.42-3.14z" style="fill:#e6e6e6"/><path d="M413.87 102.32 393.8 54.23a1.33 1.33 0 0 0-1.75-.71 1.34 1.34 0 0 0-.76 1.61l13.28 44.5 4.29.49 1.53 3.65z" style="fill:#e6e6e6"/><path d="m410.49 103.77 51.82 5.46a1.32 1.32 0 0 0 1.46-1.19 1.34 1.34 0 0 0-1-1.44l-45.42-9.69-2.49 3.52-3.94-.41z" style="fill:#e6e6e6"/><g><ellipse cx="250" cy="416.24" rx="193.89" ry="11.32" style="fill:#f5f5f5"/></g><g><path d="M413.07 398.34a822.38 822.38 0 0 0-6.15-107.65c-4.48-34.91-.18-51.2-.18-51.2l2.41.46s-3.91 13.09 3.92 66.88a757.41 757.41 0 0 1 7.12 90.35z" style="fill:#6942d9"/><path d="M409.25 302.33a46.42 46.42 0 0 0 13.15-23.12h1.6s-3.54 17.31-13.27 26.11zM393.38 299.54s11.94 24.87 21.07 28.78v3.74s-14.05-11-21.77-31.78zM407.32 277.09s-5.49-12.16-20.58-19.46l-.81 1.46s11.51 3.79 21.49 25.74zM407.3 262.84s4.27-8.7 18.57-17.16l.71.69s-15.91 11.78-19.17 23.93z" style="fill:#6942d9"/><g style="opacity:.4;isolation:isolate"><path d="M413.07 398.34a822.38 822.38 0 0 0-6.15-107.65c-4.48-34.91-.18-51.2-.18-51.2l2.41.46s-3.91 13.09 3.92 66.88a757.41 757.41 0 0 1 7.12 90.35z" style="fill:#fff"/><path d="M409.25 302.33a46.42 46.42 0 0 0 13.15-23.12h1.6s-3.54 17.31-13.27 26.11zM393.38 299.54s11.94 24.87 21.07 28.78v3.74s-14.05-11-21.77-31.78zM407.32 277.09s-5.49-12.16-20.58-19.46l-.81 1.46s11.51 3.79 21.49 25.74zM407.3 262.84s4.27-8.7 18.57-17.16l.71.69s-15.91 11.78-19.17 23.93z" style="fill:#fff"/></g><path d="M411.62 228.2s5 11.68-4.09 15.3c0 0-6.99-7.78 4.09-15.3z" style="fill:#6942d9"/><path d="M411.62 228.2s5 11.68-4.09 15.3c0 0-6.99-7.78 4.09-15.3z" style="fill:#fff;opacity:.1;isolation:isolate"/><path d="M434.69 241.93s-4.13 10.57-12.18 7.16c0 0 .43-9.33 12.18-7.16z" style="fill:#6942d9"/><path d="M434.69 241.93s-4.13 10.57-12.18 7.16c0 0 .43-9.33 12.18-7.16z" style="fill:#fff;opacity:.1;isolation:isolate"/><path d="M379.19 250.62s10.35 1.23 9.2 9.17c0 0-8.39 1.78-9.2-9.17z" style="fill:#6942d9"/><path d="M379.19 250.62s10.35 1.23 9.2 9.17c0 0-8.39 1.78-9.2-9.17z" style="fill:#fff;opacity:.1;isolation:isolate"/><path d="M394 294.11s6.92 5.79 2.32 11c-.02 0-6.95-2.69-2.32-11z" style="fill:#6942d9"/><path d="M394 294.11s6.92 5.79 2.32 11c-.02 0-6.95-2.69-2.32-11z" style="fill:#fff;opacity:.1;isolation:isolate"/><path d="M433.34 274.53s-3.88 9.93-11.45 6.73c0 0 .41-8.76 11.45-6.73z" style="fill:#6942d9"/><path d="M433.34 274.53s-3.88 9.93-11.45 6.73c0 0 .41-8.76 11.45-6.73z" style="fill:#fff;opacity:.1;isolation:isolate"/><path d="M421.48 238.91s-5.26 11.57-14.06 7.28c0 0 1.05-10.41 14.06-7.28z" style="fill:#6942d9"/><path d="M421.48 238.91s-5.26 11.57-14.06 7.28c0 0 1.05-10.41 14.06-7.28z" style="fill:#fff;opacity:.2;isolation:isolate"/><path d="M395.62 235.85s12.67 1 11.62 10.75c0 0-10.14 2.56-11.62-10.75z" style="fill:#6942d9"/><path d="M395.62 235.85s12.67 1 11.62 10.75c0 0-10.14 2.56-11.62-10.75z" style="fill:#fff;opacity:.2;isolation:isolate"/><path d="M385.67 248.86s8.9 5.42 4.55 12.17c0-.03-8.37-1.87-4.55-12.17z" style="fill:#6942d9"/><path d="M385.67 248.86s8.9 5.42 4.55 12.17c0-.03-8.37-1.87-4.55-12.17z" style="fill:#fff;opacity:.2;isolation:isolate"/><path d="M403.5 231.79s9.95 7.9 3.66 15.41c0 0-9.84-3.53-3.66-15.41z" style="fill:#6942d9"/><path d="M403.5 231.79s9.95 7.9 3.66 15.41c0 0-9.84-3.53-3.66-15.41z" style="fill:#fff;opacity:.30000000000000004;isolation:isolate"/><path d="M402.12 296.06s.31 9-6.64 9.07c0 0-2.62-6.95 6.64-9.07z" style="fill:#6942d9"/><path d="M402.12 296.06s.31 9-6.64 9.07c0 0-2.62-6.95 6.64-9.07z" style="fill:#fff;opacity:.2;isolation:isolate"/><path d="M384.71 302.29s8.37-3.36 10.79 3.17c0 0-5.65 4.83-10.79-3.17z" style="fill:#6942d9"/><path d="M384.71 302.29s8.37-3.36 10.79 3.17c0 0-5.65 4.83-10.79-3.17z" style="fill:#fff;opacity:.2;isolation:isolate"/><path d="M388.43 297.22s8.83 1.88 7.2 8.64c0 0-7.37.87-7.2-8.64z" style="fill:#6942d9"/><path d="M388.43 297.22s8.83 1.88 7.2 8.64c0 0-7.37.87-7.2-8.64z" style="fill:#fff;opacity:.30000000000000004;isolation:isolate"/><path d="M378.19 260.38s8.6-5.88 13 .86c-.04 0-5.19 6.86-13-.86z" style="fill:#6942d9"/><path d="M378.19 260.38s8.6-5.88 13 .86c-.04 0-5.19 6.86-13-.86z" style="fill:#fff;opacity:.30000000000000004;isolation:isolate"/><path d="M425.89 269.24s4.36 9.73-3.23 12.88c0 0-5.96-6.43 3.23-12.88z" style="fill:#6942d9"/><path d="M425.89 269.24s4.36 9.73-3.23 12.88c0 0-5.96-6.43 3.23-12.88z" style="fill:#fff;opacity:.2;isolation:isolate"/><path d="M416.49 270.7s9.93 3.87 6.74 11.44c0 0-8.76-.4-6.74-11.44z" style="fill:#6942d9"/><path d="M416.49 270.7s9.93 3.87 6.74 11.44c0 0-8.76-.4-6.74-11.44z" style="fill:#fff;opacity:.30000000000000004;isolation:isolate"/><path d="M434.69 251.06s-8.66 7.34-14.13.52c0 0 4.82-8.01 14.13-.52z" style="fill:#6942d9"/><path d="M434.69 251.06s-8.66 7.34-14.13.52c0 0 4.82-8.01 14.13-.52z" style="fill:#fff;opacity:.2;isolation:isolate"/><path d="M424.63 238.94s4 10.6-4.21 13.49c0 0-5.95-7.19 4.21-13.49z" style="fill:#6942d9"/><path d="M424.63 238.94s4 10.6-4.21 13.49c0 0-5.95-7.19 4.21-13.49z" style="fill:#fff;opacity:.30000000000000004;isolation:isolate"/><path d="M382.25 401.88s15.2-2.07 23.93-5.65 27.19.49 33 2.36a122.3 122.3 0 0 0 14.24 3.29z" style="fill:#6942d9"/><path d="M382.25 401.88s15.2-2.07 23.93-5.65 27.19.49 33 2.36a122.3 122.3 0 0 0 14.24 3.29z" style="fill:#fff;opacity:.30000000000000004;isolation:isolate"/></g><g><path d="M83.47 398.45A821.74 821.74 0 0 0 92 291c.29-35.19 6.75-50.74 6.75-50.74l2.34.78s-5.65 12.44-5.19 66.78a756.35 756.35 0 0 1-5.19 90.49z" style="fill:#6942d9"/><path d="M94.58 263.79a46.37 46.37 0 0 0 22.18-14.68l1.38.7s-11 13.84-23.63 17.3zM71.12 280.31s20 19 20.89 28.92l3.55 1.15s-6.13-16.75-23.51-30.5zM94.22 277.55s-3.79-12.8-17.75-22.08l-1 1.34s10.88 5.32 17.8 28.42zM94.72 290.36s5.41-8 20.73-14.47l.6.77s-17.36 9.51-22.23 21.11zM95 262.49s-10.39-14.38-12.26-29l.8-.33s4 17.12 12.79 24.06z" style="fill:#6942d9"/><g style="opacity:.4;isolation:isolate"><path d="M83.47 398.45A821.74 821.74 0 0 0 92 291c.29-35.19 6.75-50.74 6.75-50.74l2.34.78s-5.65 12.44-5.19 66.78a756.35 756.35 0 0 1-5.19 90.49z" style="fill:#fff"/><path d="M94.58 263.79a46.37 46.37 0 0 0 22.18-14.68l1.38.7s-11 13.84-23.63 17.3zM71.12 280.31s20 19 20.89 28.92l3.55 1.15s-6.13-16.75-23.51-30.5zM94.22 277.55s-3.79-12.8-17.75-22.08l-1 1.34s10.88 5.32 17.8 28.42zM94.72 290.36s5.41-8 20.73-14.47l.6.77s-17.36 9.51-22.23 21.11zM95 262.49s-10.39-14.38-12.26-29l.8-.33s4 17.12 12.79 24.06z" style="fill:#fff"/></g><path d="M110.08 225.9s2.08 12.54-7.61 13.88c0 0-4.94-9.22 7.61-13.88z" style="fill:#6942d9"/><path d="M110.08 225.9s2.08 12.54-7.61 13.88c0 0-4.94-9.22 7.61-13.88z" style="fill:#fff;opacity:.1;isolation:isolate"/><path d="M124.7 273.36s-5.53 9.91-13 5.45c-.05 0 1.64-9.19 13-5.45z" style="fill:#6942d9"/><path d="M124.7 273.36s-5.53 9.91-13 5.45c-.05 0 1.64-9.19 13-5.45z" style="fill:#fff;opacity:.1;isolation:isolate"/><path d="M69.93 247.51s10.1 2.61 7.87 10.33c0 0-8.55.63-7.87-10.33z" style="fill:#6942d9"/><path d="M69.93 247.51s10.1 2.61 7.87 10.33c0 0-8.55.63-7.87-10.33z" style="fill:#fff;opacity:.1;isolation:isolate"/><path d="M65.77 279.21s3.37 8.37 9.75 5.6c0 0-.42-7.42-9.75-5.6z" style="fill:#6942d9"/><path d="M65.77 279.21s3.37 8.37 9.75 5.6c0 0-.42-7.42-9.75-5.6z" style="fill:#fff;opacity:.1;isolation:isolate"/><path d="M128.63 249.88s-7.94 7.1-13.25.83c0 0 4.32-7.63 13.25-.83z" style="fill:#6942d9"/><path d="M128.63 249.88s-7.94 7.1-13.25.83c0 0 4.32-7.63 13.25-.83z" style="fill:#fff;opacity:.1;isolation:isolate"/><path d="M112.34 238.09s-5 11.66-13.93 7.53c0 0 .86-10.42 13.93-7.53z" style="fill:#6942d9"/><path d="M112.34 238.09s-5 11.66-13.93 7.53c0 0 .86-10.42 13.93-7.53z" style="fill:#fff;opacity:.2;isolation:isolate"/><path d="M93.72 230.23s10.43 7.27 4.62 15.14c0 0-10.05-2.91-4.62-15.14z" style="fill:#6942d9"/><path d="M93.72 230.23s10.43 7.27 4.62 15.14c0 0-10.05-2.91-4.62-15.14z" style="fill:#fff;opacity:.2;isolation:isolate"/><path d="M76.59 246.64s8.09 6.58 2.86 12.67c0 0-8.04-2.99-2.86-12.67z" style="fill:#6942d9"/><path d="M76.59 246.64s8.09 6.58 2.86 12.67c0 0-8.04-2.99-2.86-12.67z" style="fill:#fff;opacity:.2;isolation:isolate"/><path d="M100.3 226.89s7.09 10.55-1.18 15.79c0 0-8.31-6.36 1.18-15.79z" style="fill:#6942d9"/><path d="M100.3 226.89s7.09 10.55-1.18 15.79c0 0-8.31-6.36 1.18-15.79z" style="fill:#fff;opacity:.30000000000000004;isolation:isolate"/><path d="M65.12 287.56s8.48 3.07 10.67-3.52c0-.04-5.79-4.64-10.67 3.52z" style="fill:#6942d9"/><path d="M65.12 287.56s8.48 3.07 10.67-3.52c0-.04-5.79-4.64-10.67 3.52z" style="fill:#fff;opacity:.2;isolation:isolate"/><path d="M76.41 272.91s-5.77 6.94-.31 11.24c0 0 6.33-3.88.31-11.24z" style="fill:#6942d9"/><path d="M76.41 272.91s-5.77 6.94-.31 11.24c0 0 6.33-3.88.31-11.24z" style="fill:#fff;opacity:.2;isolation:isolate"/><path d="M70.44 274.89s-.94 9 6 9.52c-.01 0 3.09-6.75-6-9.52z" style="fill:#6942d9"/><path d="M70.44 274.89s-.94 9 6 9.52c-.01 0 3.09-6.75-6-9.52z" style="fill:#fff;opacity:.30000000000000004;isolation:isolate"/><path d="M67.62 257s9.32-4.67 12.72 2.61c0 .04-6.03 6.14-12.72-2.61z" style="fill:#6942d9"/><path d="M67.62 257s9.32-4.67 12.72 2.61c0 .04-6.03 6.14-12.72-2.61z" style="fill:#fff;opacity:.30000000000000004;isolation:isolate"/><path d="M124.38 241.8s-.51 10.64-8.7 10c0 .03-2.41-8.41 8.7-10z" style="fill:#6942d9"/><path d="M124.38 241.8s-.51 10.64-8.7 10c0 .03-2.41-8.41 8.7-10z" style="fill:#fff;opacity:.2;isolation:isolate"/><path d="M115.34 238.85s7.11 7.94.84 13.25c0 0-7.63-4.32-.84-13.25z" style="fill:#6942d9"/><path d="M115.34 238.85s7.11 7.94.84 13.25c0 0-7.63-4.32-.84-13.25z" style="fill:#fff;opacity:.30000000000000004;isolation:isolate"/><path d="M123.46 282.41s-9.58 6.09-14.07-1.41c0 0 5.85-7.27 14.07 1.41z" style="fill:#6942d9"/><path d="M123.46 282.41s-9.58 6.09-14.07-1.41c0 0 5.85-7.27 14.07 1.41z" style="fill:#fff;opacity:.2;isolation:isolate"/><path d="M115.13 269s2.57 11.06-6 12.8c0 .03-4.92-7.9 6-12.8z" style="fill:#6942d9"/><path d="M115.13 269s2.57 11.06-6 12.8c0 .03-4.92-7.9 6-12.8z" style="fill:#fff;opacity:.30000000000000004;isolation:isolate"/><path d="M82.8 224.94s7.2 7.06 1.56 12.47c0 0-7.46-3.63-1.56-12.47z" style="fill:#6942d9"/><path d="M82.8 224.94s7.2 7.06 1.56 12.47c0 0-7.46-3.63-1.56-12.47z" style="fill:#fff;opacity:.1;isolation:isolate"/><path d="M90.26 228.16s2.94 9.65-4.55 11.71c0 0-4.84-6.75 4.55-11.71z" style="fill:#6942d9"/><path d="M90.26 228.16s2.94 9.65-4.55 11.71c0 0-4.84-6.75 4.55-11.71z" style="fill:#fff;opacity:.2;isolation:isolate"/><path d="M76.82 232.1s10.08.43 9.54 8.18c0 0-7.97 2.33-9.54-8.18z" style="fill:#6942d9"/><path d="M76.82 232.1s10.08.43 9.54 8.18c0 0-7.97 2.33-9.54-8.18z" style="fill:#fff;opacity:.30000000000000004;isolation:isolate"/><path d="M52.25 401.88s15.2-2.07 23.93-5.65 27.19.49 33 2.36a122.3 122.3 0 0 0 14.24 3.29z" style="fill:#6942d9"/><path d="M52.25 401.88s15.2-2.07 23.93-5.65 27.19.49 33 2.36a122.3 122.3 0 0 0 14.24 3.29z" style="fill:#fff;opacity:.30000000000000004;isolation:isolate"/></g><g><path d="M276.69 310.3s-3.23 17.74-4.64 24.17S243.74 379 243.74 379s-6.07 9.92-6.07 13.09 10.29 9.85 11.6 9.15 4.22-15.74 4.22-15.74l-1.31-3.93s27.45-35.63 29.68-40.9 7.32-26.95 7.32-26.95z" style="fill:#e4897b"/><path d="M273 323.19s3-32.49 5.74-38.3 13.25 2.82 15 14-6.33 31.58-6.33 31.58z" style="fill:#6942d9"/><path d="M293.38 309.81a108 108 0 0 1-4.26 16.19c-.94 2.76-1.64 4.51-1.64 4.51L273 323.19s3-32.49 5.74-38.3 13.25 2.82 15 14a35.51 35.51 0 0 1-.36 10.92z" style="fill:#fff;opacity:.4;isolation:isolate"/><path style="fill:#6942d9" d="M272.05 320.51V325l16.02 8.06 2.37-4.98-18.39-7.57z"/><path style="fill:#fff;opacity:.6000000000000001;isolation:isolate" d="M272.05 320.51V325l16.02 8.06 2.37-4.98-18.39-7.57z"/><path d="M293.38 309.81a108 108 0 0 1-4.26 16.19c-3.87-10-2.92-31.27-2.92-31.27z" style="opacity:.2;isolation:isolate"/><path style="fill:#e4897b" d="m355.05 404.55-12.91 1.44-11.91 1.32 1.2-10.07v-.03h.01l.86-.01 9.34-.09 9.58-.09 3.83 7.53z"/><path style="opacity:.2;isolation:isolate" d="m342.14 405.99-11.91 1.32 1.2-10.07.01-.03.86-.01 9.35-.1-.01.01.5 8.88z"/><path style="fill:#6942d9" d="m336.75 393.33-.91 17.08 4.38-.56.1-17.01-3.57.49z"/><path d="m353.76 404.83-6.49-8.1a.75.75 0 0 1 0-.93l4.88-6.07a1.26 1.26 0 0 1 1.77-.18 1.19 1.19 0 0 1 .19.2c2.06 2.65 3.43 4.69 6.07 8 1.62 2 6.73 8 9 10.76s-.23 5.38-1.4 4.44c-5.23-4.24-9.88-6.86-12.68-7.32a2.13 2.13 0 0 1-1.34-.8z" style="fill:#263238"/><path d="m353.76 404.83-6.49-8.1a.75.75 0 0 1 0-.93l4.88-6.07a1.26 1.26 0 0 1 1.77-.18 1.19 1.19 0 0 1 .19.2c2.06 2.65 3.43 4.69 6.07 8 1.62 2 6.73 8 9 10.76s-.23 5.38-1.4 4.44c-5.23-4.24-9.88-6.86-12.68-7.32a2.13 2.13 0 0 1-1.34-.8z" style="opacity:.2;isolation:isolate"/><path d="M289.69 270c3.34-5.65 10.91-10.33 16.5-9.65s32.94 39.19 32.94 39.19L356.68 336l-58.35 19.58s1.1-32.36-7.66-58.21c0 .01-5.48-19.74-.98-27.37z" style="fill:#6942d9"/><path d="M289.69 270c3.34-5.65 10.91-10.33 16.5-9.65s32.94 39.19 32.94 39.19L356.68 336l-58.35 19.58s1.1-32.36-7.66-58.21c0 .01-5.48-19.74-.98-27.37z" style="fill:#fff;opacity:.2;isolation:isolate"/><path d="m340.06 330.6-2.3 31.13s-2.32 2.25-5.56 5.59c-8.34 8.55-22.78 24.27-20.05 27.79 3.8 4.9 16.47 3.73 16.47 3.73l4.33 13 1 2.94-.95.22a111.84 111.84 0 0 1-20.47 3c-12.41.55-26.11-1.66-28.76-13.43-5.06-22.42 18.32-48.64 27-60 2.14-2.8 1.45-14 1.45-14z" style="fill:#263238"/><path d="M333 415a111.84 111.84 0 0 1-20.47 3 33.28 33.28 0 0 1-14.4-12.62c-10.48-17.41 21.56-49.67 21.56-49.67v-7.55l12.31 7.61.2 11.55c-8.34 8.55-22.78 24.27-20.05 27.79 3.8 4.9 16.47 3.73 16.47 3.73l4.33 13z" style="opacity:.2;isolation:isolate"/><path d="M356.7 406.09a2.59 2.59 0 0 1 .69 1.55 1.19 1.19 0 0 1-.59 1 .6.6 0 0 1-.65.09c-1-.44-1.38-3.65-1.42-4a.2.2 0 0 1 .09-.2.21.21 0 0 1 .23 0 10.55 10.55 0 0 1 1.65 1.56zm-.59 2.1a.39.39 0 0 0 .21.17s.13.05.27-.05a.81.81 0 0 0 .39-.66 4.11 4.11 0 0 0-1.78-2.47 8.41 8.41 0 0 0 .91 3.01z" style="fill:#6942d9"/><path d="m355.1 404.58.06.08c.17 1-.23 3.49-1 3.92a.66.66 0 0 1-.82-.18 1.05 1.05 0 0 1-.33-.83c0-1.28 1.79-3 1.88-3.06a.24.24 0 0 1 .2 0 .22.22 0 0 1 .01.07zm-1.63 3.51.06.07c.16.21.29.13.34.1.5-.26.93-2 .9-3.1a4.77 4.77 0 0 0-1.45 2.46.68.68 0 0 0 .15.47z" style="fill:#6942d9"/><path style="fill:#e4897b" d="m395.16 410.54-12.91 1.44-11.92 1.32 1.2-10.07.01-.03h.86l9.35-.1 9.58-.09 3.83 7.53z"/><path d="m393.87 410.82-6.49-8.09a.75.75 0 0 1 0-.94l4.88-6.07a1.26 1.26 0 0 1 1.78-.17 1.14 1.14 0 0 1 .19.19c2.06 2.66 3.43 4.69 6.06 8 1.63 2 6.74 8 9 10.77s-.23 5.37-1.4 4.43c-5.24-4.24-9.89-6.86-12.68-7.32a2.06 2.06 0 0 1-1.34-.8z" style="fill:#263238"/><path d="M396.81 412.09a2.55 2.55 0 0 1 .68 1.55 1.18 1.18 0 0 1-.58 1 .61.61 0 0 1-.66.08c-1-.43-1.37-3.64-1.41-4a.18.18 0 0 1 .09-.2.2.2 0 0 1 .23 0 10.08 10.08 0 0 1 1.65 1.57zm-.59 2.1a.55.55 0 0 0 .2.17s.14 0 .27-.05a.82.82 0 0 0 .4-.67 4.18 4.18 0 0 0-1.78-2.47 8 8 0 0 0 .91 3.02z" style="fill:#6942d9"/><path d="m395.2 410.57.06.08c.18 1-.22 3.49-1 3.92a.65.65 0 0 1-.82-.18 1.08 1.08 0 0 1-.34-.83c0-1.27 1.8-3 1.88-3.05a.23.23 0 0 1 .21 0 .21.21 0 0 1 .01.06zm-1.63 3.51.06.08c.17.2.3.12.35.1.5-.27.93-2 .9-3.1a4.79 4.79 0 0 0-1.46 2.46.71.71 0 0 0 .15.46z" style="fill:#6942d9"/><path style="opacity:.2;isolation:isolate" d="m382.25 411.98-11.92 1.32 1.2-10.07.02-.03h.85l9.35-.11v.01l.5 8.88z"/><path d="M331.3 328.33c-2.68 12.3-29.68 70.37-12.62 85.81 12.52 11.35 59.25.65 59.25.65l.73-14.16s-36.78 1.21-40.64-3.06 18.83-36.38 22-45.14c5.59-15.55-.47-24.73-.47-24.73z" style="fill:#263238"/><path style="fill:#6942d9" d="m376.85 399.32-.9 17.08 4.38-.56.1-17-3.58.48zM365.58 336.88l-53.93 1.05s-13.2-42.09-32.31-53.95a40.59 40.59 0 0 1 7.1-8.52 51.7 51.7 0 0 1 20.9-12 59.3 59.3 0 0 1 18.31-2.31s27.95 15.27 39.93 75.73z"/><path d="M306.19 264.19c-5.44 19.88-15.52 8.82-15.52 8.82a3.86 3.86 0 0 0 .46-2.06 5.27 5.27 0 0 0-2.29-3.92 17.05 17.05 0 0 0-2-1.33l1.22-15.63a68.75 68.75 0 0 0 6.11 8c3.57 3.93 7.89 7.15 12.02 6.12z" style="fill:#e4897b"/><path d="M291.13 271a5.27 5.27 0 0 0-2.29-3.92 17.05 17.05 0 0 0-2-1.33l1.22-15.63a68.75 68.75 0 0 0 6.11 8c.31 5.27-.25 10.5-3.04 12.88z" style="opacity:.2;isolation:isolate"/><path d="M262.79 249.22s2.6 9.44 10.14 11-1.33-18.42-1.33-18.42z" style="fill:#263238"/><path d="M293.5 260.12a13.53 13.53 0 0 1-.2 1.36 10.67 10.67 0 0 1-9.53 8.75 11.9 11.9 0 0 1-8.45-2.31 10.39 10.39 0 0 1-1-.8 26.82 26.82 0 0 1-1.87-1.94c-5-5.77-9.29-15.31-4.8-21.89a11.6 11.6 0 0 1 19.71.81c3.95 6.74 6.64 10.75 6.14 16.02z" style="fill:#e4897b"/><path d="M278 253.18a1 1 0 0 1 0 1.48c-.38.26-1 0-1.37-.58s-.39-1.25 0-1.49.97.01 1.37.59zM271.5 257.48a1.07 1.07 0 0 1 0 1.49c-.37.25-1 0-1.37-.59s-.38-1.24 0-1.49 1.01.05 1.37.59z" style="fill:#263238"/><path d="M273.75 256.4a24.53 24.53 0 0 1 .52 6.73 4 4 0 0 0 3.1-1.32z" style="fill:#de5753"/><path d="M278.61 249.74a.46.46 0 0 1-.42.09 3.24 3.24 0 0 0-2.9.3.42.42 0 0 1-.57-.07.41.41 0 0 1 .08-.57 4 4 0 0 1 3.65-.43.41.41 0 0 1 .27.51.54.54 0 0 1-.11.17zM267.23 257.1a.33.33 0 0 1-.19.14.4.4 0 0 1-.46-.33 4 4 0 0 1 1.17-3.51.41.41 0 0 1 .57.05.41.41 0 0 1 0 .56 3.28 3.28 0 0 0-.89 2.79.38.38 0 0 1-.2.3zM289.06 250c.78-.21 4.1 5.64 4.1 5.64s1.88-3.16.41-8.8c-2.9-11.12-5.72-12.29-9-12.29-6 0-8.79 8.54-8.79 8.54 1.75-1.59 4.67-1 5.08 1.42.58 3.31 4.6 6.57 7.66 7 .02-.04-.61-1.24.54-1.51z" style="fill:#263238"/><path d="M294.29 247.84a8 8 0 0 1-1.59 5.94c-1.73 2.23-4.27 1.08-5.2-1.43-.8-2.24-.93-6.15 1.51-7.46s4.91.36 5.28 2.95z" style="fill:#e4897b"/><path d="M278.74 241.2s-3 5.27-4.1 5.8-.89-1.94-.89-1.94-3.88 4.84-5.34 4.64-.94-3.1-.94-3.1-4.07 6.93-5.66 7-2-5.44 1-10.06c0 0-2 3.69-3.35 2.9s1.82-8.44 8-10.94c0 0-.83 0-.94-1.58s7.43-4.88 13.42-2.64c0 0-2.05-2.11.85-2.64s5.4 3.56 5.4 3.56-.13-2 1.72-1.58 6 6 4.65 12.69z" style="fill:#263238"/><path d="M293.5 260.12a13.53 13.53 0 0 1-.2 1.36 10.67 10.67 0 0 1-9.53 8.75 11.9 11.9 0 0 1-8.45-2.31 10.39 10.39 0 0 1-1-.8 26.82 26.82 0 0 1-1.87-1.94 15.5 15.5 0 0 0 8.33-3.86c2.77-2.42 6.92-7.08 4.17-11.62-1.45-2.38 2.19 1.4 2.19 1.4s4.45 4.4 6.36 9.02z" style="opacity:.30000000000000004;isolation:isolate"/><path d="M280.27 264.16a6.18 6.18 0 0 0 3.49-4.54.21.21 0 1 0-.42-.06 5.92 5.92 0 0 1-3.26 4.2.22.22 0 0 0-.11.28.2.2 0 0 0 .27.1z" style="fill:#263238"/><path d="M310.77 274.2s35 39.73 40 69.16l18.57-4.36s-16.76-65.4-43.69-77.8h-14.88z" style="fill:#6942d9"/><path d="m369.34 339-18.59 4.38c-1.23-7.33-4.32-15.29-8.28-23.11a181.89 181.89 0 0 0-10.47-17.9 278.81 278.81 0 0 0-21.24-28.17v-13h14.88c26.94 12.38 43.7 77.8 43.7 77.8z" style="fill:#fff;opacity:.6000000000000001;isolation:isolate"/><path d="M306.19 260.36s4 3.83 4.58 13.84h7.34s-1.06-11.13-4.94-13.69c-1.46-.96-6.98-.15-6.98-.15z" style="fill:#6942d9"/><path d="M306.19 260.36s4 3.83 4.58 13.84h7.34s-1.06-11.13-4.94-13.69c-1.46-.96-6.98-.15-6.98-.15z" style="fill:#fff;opacity:.4;isolation:isolate"/><path d="M290.54 284.52s11.35 45.56 7.79 71.07c0 0-2.66-33.82-7.66-46.08 0 0-9.76-13.67-11.33-25.53l7.66-10.41s.88 6.73 3.54 10.95z" style="fill:#6942d9"/><path d="M290.54 284.52s11.35 45.56 7.79 71.07c0 0-2.66-33.82-7.66-46.08 0 0-9.76-13.67-11.33-25.53l7.66-10.41s.88 6.73 3.54 10.95z" style="fill:#fff;opacity:.6000000000000001;isolation:isolate"/><path d="M289.69 270s-2.31 7.78.85 14.51l-2.43 2.9a21 21 0 0 1-1.91-9.37c0-6.04 3.49-8.04 3.49-8.04z" style="fill:#6942d9"/><path d="M289.69 270s-2.31 7.78.85 14.51l-2.43 2.9a21 21 0 0 1-1.91-9.37c0-6.04 3.49-8.04 3.49-8.04z" style="fill:#fff;opacity:.4;isolation:isolate"/><path d="M279.19 374.75a14.5 14.5 0 0 0-1.43 2.6l3.49 4.18a67.16 67.16 0 0 1-23.67 10.26c1.39-8.11 14.47-20 14.47-20l2.54 2.62s.48-.83 1.36-2.19a77.55 77.55 0 0 1 10-12.35 2.26 2.26 0 0 1 3.46.35 2.28 2.28 0 0 1-.27 2.86 77 77 0 0 0-9.95 11.67z" style="fill:#263238"/><path d="M281.25 381.53a67.16 67.16 0 0 1-23.67 10.26c1.39-8.11 14.47-20 14.47-20l2.54 2.62s.48-.83 1.36-2.19a4.2 4.2 0 0 0 3.24 2.57 14.5 14.5 0 0 0-1.43 2.6z" style="fill:#fff;opacity:.4;isolation:isolate"/><path d="M281.25 381.53a67.16 67.16 0 0 1-23.67 10.26c1.39-8.11 14.47-20 14.47-20l2.54 2.62s-2.5 3-3 5.55a12.38 12.38 0 0 0 6.2-2.57z" style="fill:#fff;opacity:.2;isolation:isolate"/><path d="M210.92 416.24H273s-7.73-2.26-9.62-4.45-8.61-1.36-10.58-1.38-5.94 1.95-8.31.76-10.49-9.93-15.79-12.68-8.11 6.47-10.88 8.29-6.9 9.46-6.9 9.46z" style="fill:#6942d9"/><path d="M196.91 419.25s15.35-7.88 20-8.08 11 3.28 12.57 3.62 13.06-.74 15.43-1.49 10.28 1.34 12.66 1 9.43-5.13 11.83-5.9 20.81 9.19 23 9.75 7.51 1.22 7.51 1.22-18 1.11-20.57 1.11-5.52 2.77-15.92 2.18-14.94.56-19.88.08-6.13-1.86-11.67-1.86-12.86 1.78-16.62.2-18.34-1.83-18.34-1.83z" style="fill:#6942d9"/><path d="M196.91 419.25s15.35-7.88 20-8.08 11 3.28 12.57 3.62 13.06-.74 15.43-1.49 10.28 1.34 12.66 1 9.43-5.13 11.83-5.9 20.81 9.19 23 9.75 7.51 1.22 7.51 1.22-18 1.11-20.57 1.11-5.52 2.77-15.92 2.18-14.94.56-19.88.08-6.13-1.86-11.67-1.86-12.86 1.78-16.62.2-18.34-1.83-18.34-1.83z" style="fill:#fff;opacity:.2;isolation:isolate"/><path d="M242 389.14c.29.12.5.45.82.51h.39a.7.7 0 0 1 .49.44 1.34 1.34 0 0 1 0 .69c.4-.09.71 0 .93-.35s.26-.65.71-.71a1.71 1.71 0 0 1 .45 0 1.9 1.9 0 0 1 1.27.59 3.35 3.35 0 0 0 .39.59c.36.3.91.07 1.38.13a1.5 1.5 0 0 1 1 .72 2.81 2.81 0 0 1 .44 1.08v.83a2.55 2.55 0 0 1-.14 1c-.12.28-.31.87.2.92.17 0 .36-.05.47.07s.06.21.1.31.21.22.31.33a.92.92 0 0 1 .2.31 3.52 3.52 0 0 1 .1 2.29 7.82 7.82 0 0 0-.46 1.5v2.23a24.68 24.68 0 0 0 0 3.33 2.1 2.1 0 0 1 0 .79.69.69 0 0 1-.33.43c-.13.09-.31 0-.33.26a1.65 1.65 0 0 0 .06.43c.05.31-.08.77-.32.36a2 2 0 0 1-.08-.8v-1.74c0-.58-.11-1.07-.18-1.59a.91.91 0 0 0-.18-.49c-.45-.47-1.06.59-1.05 1a6.43 6.43 0 0 1 0 1.24 13.71 13.71 0 0 0-.13 4.65c0 .21.07.46-.1.59a.51.51 0 0 1-.28.07.62.62 0 0 1-.53-.11.64.64 0 0 1-.12-.41 10.81 10.81 0 0 0 0-2 .68.68 0 0 0-.08-.24c-.05-.06-.13-.1-.19-.16a.88.88 0 0 1-.15-.72 17.46 17.46 0 0 0-.18-2.89 1.61 1.61 0 0 0-.15-.62.58.58 0 0 0-.49-.35c-.49 0-.36.55-.34.85a1.6 1.6 0 0 1 0 .49.45.45 0 0 1-.33.32.23.23 0 0 1-.16 0 .35.35 0 0 1-.1-.3v-.36a.32.32 0 0 0 0-.14c-.08-.14-.3-.09-.45-.15s-.28-.92-.34-1.16c-.12-.48-.2-1-.28-1.46a11.68 11.68 0 0 0-.49-2.49c-.25-.6-.38-1.24-.68-1.81a2.07 2.07 0 0 1-.2-.46 5.85 5.85 0 0 0 0-.6c-.06-.23-.23-.41-.26-.63a1.41 1.41 0 0 1 .27-.77 1.68 1.68 0 0 0-.33-1.87c-.23-.23-.53-.31-.76-.54a4.44 4.44 0 0 0-.74-.76c-.4-.27-1-.27-1.21-.72.08.14.28 0 .32-.16s.1-.35.25-.34l.13.05a.83.83 0 0 0 .6.05.73.73 0 0 1-.21-.69 1.29 1.29 0 0 1 .37-.65.82.82 0 0 1 .66-.3z" style="fill:#6942d9"/><path d="M242 389.14c.29.12.5.45.82.51h.39a.7.7 0 0 1 .49.44 1.34 1.34 0 0 1 0 .69c.4-.09.71 0 .93-.35s.26-.65.71-.71a1.71 1.71 0 0 1 .45 0 1.9 1.9 0 0 1 1.27.59 3.35 3.35 0 0 0 .39.59c.36.3.91.07 1.38.13a1.5 1.5 0 0 1 1 .72 2.81 2.81 0 0 1 .44 1.08v.83a2.55 2.55 0 0 1-.14 1c-.12.28-.31.87.2.92.17 0 .36-.05.47.07s.06.21.1.31.21.22.31.33a.92.92 0 0 1 .2.31 3.52 3.52 0 0 1 .1 2.29 7.82 7.82 0 0 0-.46 1.5v2.23a24.68 24.68 0 0 0 0 3.33 2.1 2.1 0 0 1 0 .79.69.69 0 0 1-.33.43c-.13.09-.31 0-.33.26a1.65 1.65 0 0 0 .06.43c.05.31-.08.77-.32.36a2 2 0 0 1-.08-.8v-1.74c0-.58-.11-1.07-.18-1.59a.91.91 0 0 0-.18-.49c-.45-.47-1.06.59-1.05 1a6.43 6.43 0 0 1 0 1.24 13.71 13.71 0 0 0-.13 4.65c0 .21.07.46-.1.59a.51.51 0 0 1-.28.07.62.62 0 0 1-.53-.11.64.64 0 0 1-.12-.41 10.81 10.81 0 0 0 0-2 .68.68 0 0 0-.08-.24c-.05-.06-.13-.1-.19-.16a.88.88 0 0 1-.15-.72 17.46 17.46 0 0 0-.18-2.89 1.61 1.61 0 0 0-.15-.62.58.58 0 0 0-.49-.35c-.49 0-.36.55-.34.85a1.6 1.6 0 0 1 0 .49.45.45 0 0 1-.33.32.23.23 0 0 1-.16 0 .35.35 0 0 1-.1-.3v-.36a.32.32 0 0 0 0-.14c-.08-.14-.3-.09-.45-.15s-.28-.92-.34-1.16c-.12-.48-.2-1-.28-1.46a11.68 11.68 0 0 0-.49-2.49c-.25-.6-.38-1.24-.68-1.81a2.07 2.07 0 0 1-.2-.46 5.85 5.85 0 0 0 0-.6c-.06-.23-.23-.41-.26-.63a1.41 1.41 0 0 1 .27-.77 1.68 1.68 0 0 0-.33-1.87c-.23-.23-.53-.31-.76-.54a4.44 4.44 0 0 0-.74-.76c-.4-.27-1-.27-1.21-.72.08.14.28 0 .32-.16s.1-.35.25-.34l.13.05a.83.83 0 0 0 .6.05.73.73 0 0 1-.21-.69 1.29 1.29 0 0 1 .37-.65.82.82 0 0 1 .66-.3z" style="fill:#fff;opacity:.2;isolation:isolate"/><path d="M342.47 320.25A181.89 181.89 0 0 0 332 302.37l8.05-20.95s4.75 19.91 2.42 38.83z" style="opacity:.2;isolation:isolate"/><path d="M338.08 298.08s.47 21.19-2.24 26.86-39.33 35.79-39.33 35.79-.93 6.77-2.45 7.9-10.49 3.12-11.42 3.12-1.64-12.66-.78-13.75 8.82-3.69 10.14-3.69c0 0 32.7-32.83 32.7-35.53s.79-24.09.79-24.09z" style="fill:#e4897b"/><path d="M323.72 302.4s-2.48-32.52-.71-38.72 13.54.58 17.15 11.34-1 32.2-1 32.2z" style="fill:#6942d9"/><path d="M323.72 302.4s-2.48-32.52-.71-38.72 13.54.58 17.15 11.34-1 32.2-1 32.2z" style="fill:#fff;opacity:.4;isolation:isolate"/><path style="fill:#6942d9" d="m322.3 299.93.75 4.43 17.14 5.28 1.51-5.31-19.4-4.4z"/><path style="fill:#fff;opacity:.6000000000000001;isolation:isolate" d="m322.3 299.93.75 4.43 17.14 5.28 1.51-5.31-19.4-4.4z"/></g><g><path d="M211.41 362.64c-2.37.2-6.5-2.07-7.28-2.61s-1.78-4.08-1.78-4.08-21-15-24-19.35l-.35-.52c-4.23-6.63-9-24.43-9.93-28-.1-.4-.16-.62-.16-.62s.35-12.55 5.88-12.17c5.24.36 7.79 27.35 13.22 35.62 1.74 2.65 20.74 21.33 21.88 22.57s9.22 2.23 10 3.41-5.12 5.56-7.48 5.75z" style="fill:#b97964"/><path d="M178 336.08c-4.23-6.63-9-24.43-9.93-28l6.56-11.29s5.94 23.65 3.37 39.29z" style="opacity:.2;isolation:isolate"/><path d="M138 289c-.82 0-1.61-.1-2.41-.2-8.24-1.05.85-18.64 19.83-31.16 15.9-10.48 30.13-11.62 35.75-6.62a7.35 7.35 0 0 1 2.26 3.56C195.79 263 163.78 290.37 138 289z" style="fill:#6942d9"/><path d="M158.28 264.48c5.05-3.6 13.43-9.69 23.29-8.47s-4 15.94-18.6 23.39-18.69 6.6-19.38 4.5c-1.16-3.58 7.41-14.19 14.69-19.42z" style="opacity:.2;isolation:isolate"/><path d="M149.8 275s-2.17 4.12 0 10.33c0 0-7.48 1.68-8.76 9s9.84 7.09 13.77 5.81-1-13.88-1-13.88 6.74-4.33 8.07-8.36-12.08-2.9-12.08-2.9z" style="fill:#263238"/><path d="M162.79 361.26c-4.73 9.94-40.36 12.54-43.11 5.48s16.14-32.45 16.93-44.06 33.53-20.27 33.53-20.27 5.86 31.1-7.35 58.85z" style="fill:#6942d9"/><path d="M162.79 361.26c-4.73 9.94-40.36 12.54-43.11 5.48s16.14-32.45 16.93-44.06 33.53-20.27 33.53-20.27 5.86 31.1-7.35 58.85z" style="fill:#fff;opacity:.4;isolation:isolate"/><path style="fill:#b97964" d="m122.67 402.06 15.63-.19-.75 8.43-19.72-2.77 4.84-5.47z"/><path style="opacity:.2;isolation:isolate" d="m122.67 402.06 15.63-.19-.75 8.43-19.72-2.77 4.84-5.47z"/><path d="M126.5 401.48c.53.49-5.75 6.83-5.75 6.83s-7.8.47-12.24 3.66-4.9-1.15-1-5.64l9.67-11.09c2.82-3.19 3.82 1.17 9.32 6.24z" style="fill:#263238"/><path d="M126.5 401.48c.53.49-5.75 6.83-5.75 6.83s-7.8.47-12.24 3.66-4.9-1.15-1-5.64l9.67-11.09c2.82-3.19 3.82 1.17 9.32 6.24z" style="opacity:.2;isolation:isolate"/><path d="m153.74 348.17 1.4 9s39 30.31 41.5 47.24S183.46 421 133.46 417l-1.58-16.14 18.76-2.59s-31-12.21-26.43-33.45c4.21-19.58 29.53-16.65 29.53-16.65z" style="fill:#6942d9"/><path d="m153.74 348.17 1.4 9s39 30.31 41.5 47.24S183.46 421 133.46 417l-1.58-16.14 18.76-2.59s-31-12.21-26.43-33.45c4.21-19.58 29.53-16.65 29.53-16.65z" style="opacity:.2;isolation:isolate"/><path style="fill:#b97964" d="m109.7 407.76 15.63-.19-.75 8.43-19.72-2.76 4.84-5.48z"/><path d="M113.53 407.19c.53.49-5.75 6.83-5.75 6.83s-7.8.47-12.24 3.66-4.9-1.15-1-5.64l9.68-11.04c2.78-3.24 3.78 1.12 9.31 6.19zM153.74 348.17l-30.44-5c.93.15 6.85-12.95 8.19-17.61 1.87-6.44 3.32-18.76 2-26.73v-.06a5.92 5.92 0 0 1 5.36-6.82c2.43-.19 4.86-.28 7.31-.29a102.89 102.89 0 0 1 14.46.85c6.16 1 13.13 2.84 13.13 2.84s1 .41.52 7c-.4 6.25-2.74 26.55-20.53 45.82z" style="fill:#263238"/><path d="M165.13 286.37s-3.92 2.53-4.59 4.21a2 2 0 0 0-.1.32 23.15 23.15 0 0 0-.4 2.89c1.14 3.35-3.15 5.27-3.15 5.27-7.64-2.29-9.43-6-9.43-6 6.29-2.46 7.49-14.52 7.49-14.52l3.05 2.35z" style="fill:#b97964"/><path d="M165.13 286.37s-3.92 2.53-4.59 4.21a2 2 0 0 0-.1.32 12.79 12.79 0 0 1-5-10.89l2.55.86z" style="opacity:.2;isolation:isolate"/><path d="M169.49 258.1s7.92-2.22 11.76 4.18.77 11.25-1.89 13.56" style="fill:none;stroke:#263238;stroke-linecap:round;stroke-linejoin:round;stroke-width:.488465px"/><path d="M172.65 257.75s6.46.2 8.24 5.66.46 11.59-9.13 18.19c-4.69 3.23-16.34-3.08-16.34-3.08l-.93 2.82a23.68 23.68 0 0 1-4.21-3.91c-3.77-4.42-2.8-19.06 7.66-21.93 10.93-2.99 14.71 2.25 14.71 2.25z" style="fill:#263238"/><path d="M166.48 259.58c8.22 1.12 10.26 5.87 9.71 14.42-.69 10.67-4.06 17.87-14 14.21-13.54-4.97-9.34-30.49 4.29-28.63z" style="fill:#b97964"/><path d="M170.94 272.81a17.6 17.6 0 0 0 1.93 3.73 2.27 2.27 0 0 1-2.29.64z" style="fill:#a24e3f"/><path d="M166 271.46c-.08.67-.51 1.18-1 1.13s-.75-.64-.68-1.32.51-1.18 1-1.13.76.64.68 1.32z" style="fill:#263238"/><path d="m165.14 270.15 1.53-.41s-.87 1.16-1.53.41zM174.44 272.26c-.08.68-.51 1.19-1 1.14s-.75-.64-.68-1.32.51-1.19 1-1.13.75.64.68 1.31z" style="fill:#263238"/><path d="m173.57 271 1.53-.41s-.87 1.11-1.53.41z" style="fill:#263238"/><path d="M166.7 265.78a4.3 4.3 0 0 0-3.73.75M172.71 266.24a3.86 3.86 0 0 1 3.18 1.12" style="fill:none;stroke:#263238;stroke-linecap:round;stroke-linejoin:round;stroke-width:.707962px"/><path d="M155.62 272.19s4.76-6.22 4.89-11.51c0 0 17.18-4.43 15.73 12.2 0 0 3.59-14.45-10.48-16.7s-17.32 17.13-10.86 24.28c0 0-2.23-4.37.72-8.27z" style="fill:#263238"/><path d="M156.73 274.11a3.64 3.64 0 0 0-3.43-3.82c-2.58-.07-4.51 5 1.65 7.11.89.3 1.52-.52 1.78-3.29z" style="fill:#b97964"/><path d="M170.14 279.63a20.79 20.79 0 0 0-.83 3h-.55c-2.48-.12-3.59-1-4.07-1.92a3.27 3.27 0 0 1-.33-1.48 3.24 3.24 0 0 1 .11-.86 11.82 11.82 0 0 0 4.82 1.23c.52.03.85.03.85.03z" style="fill:#263238"/><path d="m169.29 279.58-.27.88c-2.33-.12-4-.51-4.66-1.25a3.24 3.24 0 0 1 .11-.86 11.82 11.82 0 0 0 4.82 1.23z" style="fill:#fff"/><path d="M168.76 282.61c-2.48-.12-3.59-1-4.07-1.92a8 8 0 0 1 2.73.67 2.93 2.93 0 0 1 1.34 1.25z" style="fill:#de5753"/><path d="M123.3 343.15c-14 19.88-11.1 40.56 27.11 57.4l-30.14 4.89.79 10.93s29.79 3 54 3c10.52 0 15.67-17.93 1.87-33.39S145.57 360 145.57 360c4.89-3.49 8.17-11.86 8.17-11.86z" style="fill:#6942d9"/><path d="M146.2 291.11a106.72 106.72 0 0 1-4.48 48.45c-8.66 25.11-28.16 49.2-28.16 49.2s-5.69-28 8.87-46.14c0 0 10.61-19.88 9.85-42.32-.4-11.61 13.92-9.19 13.92-9.19z" style="fill:#6942d9"/><path d="M141.73 339.56c-8.67 25.11-28.17 49.21-28.17 49.21s-5.7-28 8.87-46.15a98 98 0 0 0 9.06-28.91 76.16 76.16 0 0 0 .79-13.41 10.79 10.79 0 0 1 .4-3.47c2.31-7.62 13.52-5.72 13.52-5.72a106.8 106.8 0 0 1-4.47 48.45z" style="fill:#fff;opacity:.6000000000000001;isolation:isolate"/><path d="M163.57 292.82s6.83 13.91 5.19 36.16-6 32.28-6 32.28 18.11-24.4 11.63-65.75z" style="fill:#6942d9"/><path d="M163.57 292.82s6.83 13.91 5.19 36.16-6 32.28-6 32.28 18.11-24.4 11.63-65.75z" style="fill:#fff;opacity:.6000000000000001;isolation:isolate"/><path d="M167.91 254.58s-11.55-6.5-17.06-5.45-3.39 4.72-3.39 4.72a3 3 0 0 0-3.18 3.08c-.13 3.22 2.93 11.67 2.93 11.67z" style="fill:#6942d9"/><path d="M167.91 254.58s-11.55-6.5-17.06-5.45-3.39 4.72-3.39 4.72a3 3 0 0 0-3.18 3.08c-.13 3.22 2.93 11.67 2.93 11.67z" style="fill:#fff;opacity:.2;isolation:isolate"/><path d="m191.17 251-1.74 3.56s-15.49-.86-29.27 8.56a63.51 63.51 0 0 0-19.94 22.31L138 289c-.82 0-1.61-.1-2.41-.2-8.24-1.05.85-18.64 19.83-31.16 15.9-10.48 30.13-11.64 35.75-6.64zM201.25 323.07a4.76 4.76 0 0 0-.57-4.57c-1.62-2.51-6-3.55-6-3.55s-.4 5.61 1.32 7.68 5.25.44 5.25.44zM208.76 323.91s-.9-5.56 8.16-5.22c0 0-1.25 7.54-8.16 5.22z" style="fill:#6942d9"/><path d="M201.25 323.07a4.76 4.76 0 0 0-.57-4.57c-1.62-2.51-6-3.55-6-3.55s-.4 5.61 1.32 7.68 5.25.44 5.25.44zM208.76 323.91s-.9-5.56 8.16-5.22c0 0-1.25 7.54-8.16 5.22z" style="fill:#fff;opacity:.1;isolation:isolate"/><path d="M210.81 322a.5.5 0 0 0-.7-.07 13.36 13.36 0 0 0-2 2 12.32 12.32 0 0 0-1.58 2.34 13.91 13.91 0 0 0-1 2.5q-.39-.87-.84-1.71a19.6 19.6 0 0 0-4.74-6 .51.51 0 0 0-.68.05.48.48 0 0 0 0 .7 18.53 18.53 0 0 1 4.09 5.86 26 26 0 0 1 2.09 6.86 24.92 24.92 0 0 1 .07 7.11 23.7 23.7 0 0 1-.75 3.44 16.58 16.58 0 0 1-1.25 3.14v.08a.16.16 0 0 0 0 .07 1.39 1.39 0 0 0 2.52 1.19 18.91 18.91 0 0 0 1.29-3.82 25.55 25.55 0 0 0 .59-3.86 26.77 26.77 0 0 0-.54-7.69 25.41 25.41 0 0 0-.77-2.75 11.26 11.26 0 0 1 .29-2.21 12.23 12.23 0 0 1 .83-2.43 11.24 11.24 0 0 1 1.32-2.21 12.56 12.56 0 0 1 1.76-1.89.5.5 0 0 0 0-.7z" style="fill:#6942d9"/><path d="M210.81 322a.5.5 0 0 0-.7-.07 13.36 13.36 0 0 0-2 2 12.32 12.32 0 0 0-1.58 2.34 13.91 13.91 0 0 0-1 2.5q-.39-.87-.84-1.71a19.6 19.6 0 0 0-4.74-6 .51.51 0 0 0-.68.05.48.48 0 0 0 0 .7 18.53 18.53 0 0 1 4.09 5.86 26 26 0 0 1 2.09 6.86 24.92 24.92 0 0 1 .07 7.11 23.7 23.7 0 0 1-.75 3.44 16.58 16.58 0 0 1-1.25 3.14v.08a.16.16 0 0 0 0 .07 1.39 1.39 0 0 0 2.52 1.19 18.91 18.91 0 0 0 1.29-3.82 25.55 25.55 0 0 0 .59-3.86 26.77 26.77 0 0 0-.54-7.69 25.41 25.41 0 0 0-.77-2.75 11.26 11.26 0 0 1 .29-2.21 12.23 12.23 0 0 1 .83-2.43 11.24 11.24 0 0 1 1.32-2.21 12.56 12.56 0 0 1 1.76-1.89.5.5 0 0 0 0-.7z" style="fill:#fff;opacity:.30000000000000004;isolation:isolate"/><path d="M190.61 357a28 28 0 0 1 2.23-3 21.85 21.85 0 0 1 5.47-4.62l1.81-1.12.63-.39a18.3 18.3 0 0 0 2.71-1.9c.8-.7 1.61-1.59 2.67-1.59 1.84 0 2.72 1.47 3.82 2.75a16.29 16.29 0 0 0 3.62 3.56c2 1.15 5.41 5.42 5.32 6.2s-8.89 7.11-16.21 5.76a26.24 26.24 0 0 1-12.07-5.65z" style="fill:#6942d9"/><path d="M140 317a14 14 0 0 1-8.47-3.26 76.16 76.16 0 0 0 .79-13.41 10.79 10.79 0 0 1 .4-3.47C136.29 301.77 147 317.2 140 317z" style="opacity:.2;isolation:isolate"/><path d="M137.08 292.83c5.15-.45 15.64 33.07 19.58 36.74s37.27 26 37.27 26a26.18 26.18 0 0 1 4.72 0c1.84.27 10.24 2.64 10.24 2.64s-3.15 5.57-6.3 6.72-11.59-2.29-12.59-5.18c0 0-33.07-16.75-40.29-21.5s-14.9-27.3-16.83-33.87 1.12-11.29 4.2-11.55z" style="fill:#b97964"/></g></svg>