<svg xmlns="http://www.w3.org/2000/svg" viewBox="0 0 64 80" x="0px" y="0px"><path fill="#926dfc" d="m27.00006,44c0,3.85999,2.23999,7,5,7s5-3.14001,5-7c-.25-9.27002-9.73999-9.28003-10,0Z"/><path fill="#926dfc" d="m32.00006,4c-15.46002,0-28,15.64996-28,31.10999,0,10.78003,6.08002,18.62,15,22.37V25h-2c-1.32001-.03003-1.31-1.97003,0-2h10c1.32001.01996,1.31,1.97998,0,2h-6v33.23999c3.38,1.15997,7.09998,1.76001,11,1.76001s7.62-.60004,11-1.76001V25h-6c-.54999,0-1-.45001-1-1s.45001-1,1-1h10c1.32001.01996,1.31,1.97998,0,2h-2v32.47998c8.91998-3.75,15-11.58997,15-22.37,0-15.46002-12.53998-31.10999-28-31.10999Zm7,40c0,4.95996-3.14001,9-7,9-9.28003-.47003-9.28003-17.53003,0-18,3.85999,0,7,4.03998,7,9Z"/></svg>